0
SECTION
2
HEADER
9
$INSUNITS
70
1
9
$ACADVER
1
AC1014
9
$HANDSEED
5
FFFF
0
ENDSEC
0
SECTION
2
TABLES
0
TABLE
2
VPORT
5
8
100
AcDbSymbolTable
0
ENDTAB
0
TABLE
2
LTYPE
5
5
100
AcDbSymbolTable
0
LTYPE
5
14
100
AcDbSymbolTableRecord
100
AcDbLinetypeTableRecord
2
BYBLOCK
70
0
0
LTYPE
5
15
100
AcDbSymbolTableRecord
100
AcDbLinetypeTableRecord
2
BYLAYER
70
0
0
ENDTAB
0
TABLE
2
LAYER
5
2
100
AcDbSymbolTable
70
2
0
LAYER
5
50
100
AcDbSymbolTableRecord
100
AcDbLayerTableRecord
2
0
70
0
6
CONTINUOUS
0
ENDTAB
0
TABLE
2
STYLE
5
3
100
AcDbSymbolTable
70
1
0
STYLE
5
11
100
AcDbSymbolTableRecord
100
AcDbTextStyleTableRecord
2
STANDARD
70
0
0
ENDTAB
0
TABLE
2
VIEW
5
6
100
AcDbSymbolTable
70
0
0
ENDTAB
0
TABLE
2
UCS
5
7
100
AcDbSymbolTable
70
0
0
ENDTAB
0
TABLE
2
APPID
5
9
100
AcDbSymbolTable
70
2
0
APPID
5
12
100
AcDbSymbolTableRecord
100
AcDbRegAppTableRecord
2
ACAD
70
0
0
ENDTAB
0
TABLE
2
DIMSTYLE
5
A
100
AcDbSymbolTable
70
1
0
ENDTAB
0
TABLE
2
BLOCK_RECORD
5
1
100
AcDbSymbolTable
70
1
0
BLOCK_RECORD
5
1F
100
AcDbSymbolTableRecord
100
AcDbBlockTableRecord
2
*MODEL_SPACE
0
BLOCK_RECORD
5
1B
100
AcDbSymbolTableRecord
100
AcDbBlockTableRecord
2
*PAPER_SPACE
0
ENDTAB
0
ENDSEC
0
SECTION
2
BLOCKS
0
BLOCK
5
20
100
AcDbEntity
100
AcDbBlockBegin
2
*MODEL_SPACE
0
ENDBLK
5
21
100
AcDbEntity
100
AcDbBlockEnd
0
BLOCK
5
1C
100
AcDbEntity
100
AcDbBlockBegin
2
*PAPER_SPACE
0
ENDBLK
5
1D
100
AcDbEntity
100
AcDbBlockEnd
0
ENDSEC
0
SECTION
2
ENTITIES
0
LINE
5
100
100
AcDbEntity
8
0
100
AcDbLine
10
615.2502737506901
20
342.4208870514629
30
0
11
621.51011627037508
21
342.42088705146284
31
0
0
LWPOLYLINE
5
101
100
AcDbEntity
8
0
100
AcDbPolyline
90
4
70
1
43
0.0
10
593.08306431044468
20
346.03336732078941
42
-0.41421356237309503
10
593.00432415296427
20
345.95462716330911
42
-0.41421356237309503
10
592.92558399548398
20
346.03336732078941
42
-0.41421356237309503
10
593.00432415296427
20
346.11210747826976
42
-0.41421356237309503
0
LWPOLYLINE
5
102
100
AcDbEntity
8
0
100
AcDbPolyline
90
4
70
1
43
0.0
10
614.01827732804611
20
347.51075905701555
42
-0.41421356237309503
10
614.09701748552629
20
347.43201889953531
42
-0.41421356237309503
10
614.01827732804611
20
347.35327874205507
42
-0.41421356237342799
10
613.9395371705657
20
347.43201889953531
42
-0.41421356237342799
0
LWPOLYLINE
5
103
100
AcDbEntity
8
0
100
AcDbPolyline
90
4
70
1
43
0.0
10
611.41229789386955
20
330.7097810685238
42
-0.41421356237309503
10
611.32962072851512
20
330.62710390316943
42
-0.41421356237325357
10
611.24694356316081
20
330.7097810685238
42
-0.41421356237309503
10
611.32962072851512
20
330.79245823387816
42
-0.41421356237309503
0
LINE
5
104
100
AcDbEntity
8
0
100
AcDbLine
10
599.30275725383149
20
339.77012667713001
30
0
11
599.13933827998596
21
339.93360548928712
31
0
0
LWPOLYLINE
5
105
100
AcDbEntity
8
0
100
AcDbPolyline
90
4
70
1
43
0.0
10
591.88642573247569
20
343.38005778205667
42
-0.41421356237309503
10
591.95631324355418
20
343.44994529313527
42
-0.41421356237328266
10
592.02620075463267
20
343.38005778205667
42
-0.41421356237253226
10
591.95631324355429
20
343.31017027097812
42
-0.41421356237365781
0
ARC
5
106
100
AcDbEntity
8
0
100
AcDbCircle
10
592.42313690328388
20
347.06416470157313
30
0
40
0.011811023621975468
210
0
220
0
230
1
100
AcDbArc
50
220.33001085012498
51
278.71915868433609
0
LWPOLYLINE
5
107
100
AcDbEntity
8
0
100
AcDbPolyline
90
4
70
1
43
0.0
10
596.3419922770139
20
344.75314498541019
42
-0.41421356237309503
10
597.89711038725011
20
346.30826309564645
42
-0.41421356237309503
10
599.45222849748632
20
344.75314498541019
42
-0.41421356237309503
10
597.89711038725011
20
343.19802687517398
42
-0.41421356237309503
0
LWPOLYLINE
5
108
100
AcDbEntity
8
0
100
AcDbPolyline
90
4
70
1
43
0.0
10
587.51598650172843
20
342.30252140167642
42
-0.41421356237309503
10
587.58587401280704
20
342.37240891275496
42
-0.41421356237309503
10
587.65576152388553
20
342.30252140167642
42
-0.41421356237309503
10
587.58587401280704
20
342.23263389059787
42
-0.41421356237290746
0
ARC
5
109
100
AcDbEntity
8
0
100
AcDbCircle
10
605.13650379230103
20
336.98496419975254
30
0
40
1.5551181102360707
210
0
220
0
230
1
100
AcDbArc
50
-41.087046171618319
51
45.010441158770796
0
LWPOLYLINE
5
110
100
AcDbEntity
8
0
100
AcDbPolyline
90
4
70
1
43
0.0
10
599.96429614128158
20
340.92557831078
42
-0.41421356237307816
10
601.51941425151767
20
342.48069642101621
42
-0.41421356237308665
10
603.07453236175411
20
340.92557831078
42
-0.41421356237311197
10
601.51941425151767
20
339.37046020054368
42
-0.41421356237308665
0
LWPOLYLINE
5
111
100
AcDbEntity
8
0
100
AcDbPolyline
90
4
70
1
43
0.0
10
590.17495713500261
20
342.30269408515642
42
-0.41421356237271989
10
590.10506962392412
20
342.23280657407793
42
-0.41421356237365781
10
590.0351821128454
20
342.30269408515642
42
-0.41421356237347023
10
590.10506962392412
20
342.37258159623497
42
-0.41421356237253226
0
ARC
5
112
100
AcDbEntity
8
0
100
AcDbCircle
10
597.89723051836177
20
340.92565249281472
30
0
40
1.555146941967346
210
0
220
0
230
1
100
AcDbArc
50
-37.207718916100362
51
26.39706111929144
0
LWPOLYLINE
5
113
100
AcDbEntity
8
0
100
AcDbPolyline
90
4
70
1
43
0.0
10
590.17550913064292
20
339.26921907605322
42
-0.41421356237309503
10
590.10562161956443
20
339.19933156497456
42
-0.41421356237328266
10
590.03573410848594
20
339.26921907605322
42
-0.41421356237309503
10
590.10562161956443
20
339.33910658713177
42
-0.41421356237309503
0
LWPOLYLINE
5
114
100
AcDbEntity
8
0
100
AcDbPolyline
90
4
70
1
43
0.0
10
599.17794592152893
20
342.28455935819375
42
-0.41421356237309503
10
599.25668607900923
20
342.20581920071339
42
-0.41421356237309503
10
599.17794592152893
20
342.1270790432331
42
-0.41421356237292856
10
599.09920576404863
20
342.20581920071339
42
-0.41421356237309503
0
LWPOLYLINE
5
115
100
AcDbEntity
8
0
100
AcDbPolyline
90
4
70
1
43
0.0
10
606.33846528888466
20
335.70474900882976
42
-0.41421356237292856
10
606.41720544636507
20
335.78348916631012
42
-0.41421356237309503
10
606.49594560384537
20
335.70474900882976
42
-0.41421356237309503
10
606.41720544636507
20
335.62600885134952
42
-0.41421356237309503
0
LWPOLYLINE
5
116
100
AcDbEntity
8
0
100
AcDbPolyline
90
4
70
1
43
0.0
10
614.01827770207285
20
342.19588696765919
42
-0.41421356237292856
10
613.93953754459244
20
342.27462712513949
42
-0.41421356237309503
10
614.01827770207285
20
342.35336728261979
42
-0.41421356237276202
10
614.09701785955315
20
342.27462712513949
42
-0.41421356237309503
0
LWPOLYLINE
5
117
100
AcDbEntity
8
0
100
AcDbPolyline
90
4
70
1
43
0.0
10
590.10440461789801
20
340.52184128715567
42
-0.41421356237309503
10
590.17429212897662
20
340.45195377607706
42
-0.41421356237290746
10
590.10440461789801
20
340.38206626499857
42
-0.41421356237309503
10
590.03451710681941
20
340.45195377607706
42
-0.41421356237309503
0
LWPOLYLINE
5
118
100
AcDbEntity
8
0
100
AcDbPolyline
90
4
70
1
43
0.0
10
592.92556732923708
20
343.47291412134638
42
-0.41421356237309503
10
593.00430748671727
20
343.55165427882667
42
-0.41421356237292856
10
593.08304764419756
20
343.47291412134638
42
-0.41421356237309503
10
593.00430748671727
20
343.39417396386608
42
-0.41421356237326151
0
ARC
5
119
100
AcDbEntity
8
0
100
AcDbCircle
10
605.13653281649943
20
344.75314498541024
30
0
40
1.5551181102361673
210
0
220
0
230
1
100
AcDbArc
50
131.10792848914525
51
217.20541581953182
0
LWPOLYLINE
5
120
100
AcDbEntity
8
0
100
AcDbPolyline
90
4
70
1
43
0.0
10
590.17538323690053
20
343.37778361737969
42
-0.41421356237309503
10
590.10549572582204
20
343.30789610630109
42
-0.41421356237328266
10
590.03560821474332
20
343.37778361737969
42
-0.41421356237290746
10
590.10549572582192
20
343.4476711284583
42
-0.41421356237309503
0
ARC
5
121
100
AcDbEntity
8
0
100
AcDbCircle
10
613.78113563932459
20
347.69836578689848
30
0
40
0.0078740157481064985
210
0
220
0
230
1
100
AcDbArc
50
266.55863892181361
51
328.71677835317456
0
LWPOLYLINE
5
122
100
AcDbEntity
8
0
100
AcDbPolyline
90
4
70
1
43
0.0
10
599.17782570217253
20
346.11211324109604
42
-0.41421356237309503
10
599.25656585965294
20
346.03337308361569
42
-0.41421356237309503
10
599.17782570217253
20
345.95463292613533
42
-0.41421356237309503
10
599.09908554469223
20
346.03337308361569
42
-0.41421356237309503
0
LWPOLYLINE
5
123
100
AcDbEntity
8
0
100
AcDbPolyline
90
4
70
1
43
0.0
10
596.61639498410705
20
343.55165716023987
42
-0.41421356237309503
10
596.69513514158734
20
343.47291700275952
42
-0.41421356237309503
10
596.61639498410705
20
343.39417684527922
42
-0.41421356237292856
10
596.53765482662675
20
343.47291700275952
42
-0.41421356237309503
0
LWPOLYLINE
5
124
100
AcDbEntity
8
0
100
AcDbPolyline
90
4
70
1
43
0.0
10
614.09701748552641
20
337.55202338771414
42
-0.41421356237309503
10
614.01827732804611
20
337.47328323023379
42
-0.41421356237309503
10
613.9395371705657
20
337.55202338771414
42
-0.41421356237342799
10
614.01827732804611
20
337.63076354519438
42
-0.41421356237309503
0
LWPOLYLINE
5
125
100
AcDbEntity
8
0
100
AcDbPolyline
90
4
70
1
43
0.0
10
590.10560302948568
20
345.15910962797858
42
-0.41421356237365781
10
590.03571551840707
20
345.22899713905707
42
-0.41421356237347023
10
590.10560302948568
20
345.29888465013568
42
-0.41421356237309503
10
590.17549054056428
20
345.22899713905707
42
-0.41421356237309503
0
LWPOLYLINE
5
126
100
AcDbEntity
8
0
100
AcDbPolyline
90
4
70
1
43
0.0
10
589.91055096077298
20
341.37914155241549
42
-0.41421356237309503
10
591.02737850877645
20
342.4959691004189
42
-0.41421356237308332
10
592.14420605677992
20
341.37914155241549
42
-0.41421356237309503
10
591.02737850877645
20
340.26231400441196
42
-0.41421356237309503
0
LINE
5
127
100
AcDbEntity
8
0
100
AcDbLine
10
607.45703753491136
20
347.7297716518587
30
0
11
613.72018461170819
21
347.7297716518587
31
0
0
ARC
5
128
100
AcDbEntity
8
0
100
AcDbCircle
10
596.9335461279403
20
339.65525170212351
30
0
40
0.039370078740111662
210
0
220
-0
230
1
100
AcDbArc
50
52.817172978614153
51
135.01048793488022
0
ARC
5
129
100
AcDbEntity
8
0
100
AcDbCircle
10
597.89723051836188
20
340.92565249281483
30
0
40
1.5551469419672705
210
0
220
-0
230
1
100
AcDbArc
50
26.397061119289553
51
90.001841154686673
0
LWPOLYLINE
5
130
100
AcDbEntity
8
0
100
AcDbPolyline
90
4
70
1
43
0.0
10
599.63569600909204
20
339.17507418091003
42
-0.41421356237309503
10
599.71443616657234
20
339.25381433839038
42
-0.41421356237309503
10
599.79317632405275
20
339.17507418091003
42
-0.41421356237309503
10
599.71443616657234
20
339.09633402342973
42
-0.41421356237309503
0
ARC
5
131
100
AcDbEntity
8
0
100
AcDbCircle
10
598.86089870382716
20
339.65526808177287
30
0
40
0.039370078740169387
210
0
220
-0
230
1
100
AcDbArc
50
44.989512065061341
51
127.18339414787711
0
LWPOLYLINE
5
132
100
AcDbEntity
8
0
100
AcDbPolyline
90
4
70
1
43
0.0
10
614.09701748552641
20
345.56981241083855
42
-0.41421356237309503
10
614.01827732804611
20
345.4910722533582
42
-0.41421356237309503
10
613.9395371705657
20
345.56981241083855
42
-0.41421356237309503
10
614.01827732804611
20
345.64855256831891
42
-0.41421356237276202
0
LWPOLYLINE
5
133
100
AcDbEntity
8
0
100
AcDbPolyline
90
4
70
1
43
0.0
10
587.63512042837408
20
344.11300907569591
42
-0.41421356237309503
10
587.5563802708939
20
344.19174923317621
42
-0.41421356237309503
10
587.63512042837408
20
344.27048939065651
42
-0.41421356237292856
10
587.71386058585438
20
344.19174923317621
42
-0.41421356237309503
0
LWPOLYLINE
5
134
100
AcDbEntity
8
0
100
AcDbPolyline
90
4
70
1
43
0.0
10
587.58624616024372
20
340.52294110340932
42
-0.41421356237309503
10
587.65613367132232
20
340.45305359233078
42
-0.41421356237309503
10
587.58624616024372
20
340.38316608125217
42
-0.41421356237309503
10
587.51635864916511
20
340.45305359233078
42
-0.41421356237328266
0
LINE
5
135
100
AcDbEntity
8
0
100
AcDbLine
10
621.51011627037508
20
345.64923350815582
30
0
11
621.51011627037508
21
342.42088705146284
31
0
0
LWPOLYLINE
5
136
100
AcDbEntity
8
0
100
AcDbPolyline
90
4
70
1
43
0.0
10
592.23017329116215
20
346.87696471136627
42
-0.41421356237292856
10
592.30891344864256
20
346.79822455388597
42
-0.41421356237309503
10
592.23017329116237
20
346.71948439640562
42
-0.41421356237326151
10
592.15143313368196
20
346.79822455388597
42
-0.41421356237292856
0
ARC
5
137
100
AcDbEntity
8
0
100
AcDbCircle
10
592.50905927457882
20
347.02788434943744
30
0
40
0.081456965742099291
210
0
220
0
230
1
100
AcDbArc
50
114.06874565330628
51
157.1083065175001
0
LWPOLYLINE
5
138
100
AcDbEntity
8
0
100
AcDbPolyline
90
4
70
1
43
0.0
10
587.02225063902665
20
338.97944067919093
42
-0.41421356237309503
10
587.10099079650695
20
339.05818083667128
42
-0.41421356237309503
10
587.17973095398725
20
338.97944067919093
42
-0.41421356237309503
10
587.10099079650695
20
338.90070052171063
42
-0.41421356237309503
0
LWPOLYLINE
5
139
100
AcDbEntity
8
0
100
AcDbPolyline
90
4
70
1
43
0.0
10
592.54548499714383
20
346.88424066494565
42
-0.41421356237309503
10
592.62422515462413
20
346.96298082242595
42
-0.41421356237259555
10
592.70296531210442
20
346.88424066494565
42
-0.41421356237309503
10
592.62422515462413
20
346.8055005074653
42
-0.41421356237309503
0
ARC
5
140
100
AcDbEntity
8
0
100
AcDbCircle
10
601.51940059065964
20
344.75326045122762
30
0
40
1.555118110236273
210
0
220
0
230
1
100
AcDbArc
50
-41.087046171612819
51
45.010441158767847
0
LWPOLYLINE
5
141
100
AcDbEntity
8
0
100
AcDbPolyline
90
4
70
1
43
0.0
10
599.0990718838342
20
343.47292979448747
42
-0.41421356237309503
10
599.1778120413145
20
343.55166995196771
42
-0.41421356237309503
10
599.25655219879468
20
343.47292979448747
42
-0.41421356237326151
10
599.1778120413145
20
343.39418963700712
42
-0.41421356237309503
0
LWPOLYLINE
5
142
100
AcDbEntity
8
0
100
AcDbPolyline
90
4
70
1
43
0.0
10
592.23017329115623
20
346.8769656883216
42
-0.41421356237309503
10
592.30891344863653
20
346.79822553084125
42
-0.41421356237309503
10
592.23017329115623
20
346.7194853733609
42
-0.41421356237309503
10
592.15143313367582
20
346.79822553084125
42
-0.41421356237292856
0
LWPOLYLINE
5
143
100
AcDbEntity
8
0
100
AcDbPolyline
90
4
70
1
43
0.0
10
589.36672723811239
20
342.30304297868832
42
-0.41421356237328266
10
589.43661474919088
20
342.37293048976693
42
-0.41421356237328266
10
589.50650226026937
20
342.30304297868832
42
-0.41421356237290746
10
589.43661474919088
20
342.23315546760972
42
-0.41421356237309503
0
ARC
5
144
100
AcDbEntity
8
0
100
AcDbCircle
10
599.16718222504596
20
339.96143924260036
30
0
40
0.039370078740120981
210
0
220
0
230
1
100
AcDbArc
50
142.79488719811138
51
224.9895120652368
0
LWPOLYLINE
5
145
100
AcDbEntity
8
0
100
AcDbPolyline
90
4
70
1
43
0.0
10
607.07961798608392
20
338.97944183944043
42
-0.41421356237309503
10
607.1583581435641
20
339.05818199692078
42
-0.41421356237309503
10
607.23709830104463
20
338.97944183944043
42
-0.41421356237342799
10
607.1583581435641
20
338.90070168196019
42
-0.41421356237259555
0
LWPOLYLINE
5
146
100
AcDbEntity
8
0
100
AcDbPolyline
90
4
70
1
43
0.0
10
598.76928009443418
20
346.82040953658429
42
-0.41421356237309503
10
598.69053993695388
20
346.89914969406459
42
-0.41421356237309503
10
598.76928009443418
20
346.97788985154494
42
-0.41421356237309503
10
598.84802025191459
20
346.89914969406459
42
-0.41421356237309503
0
LWPOLYLINE
5
147
100
AcDbEntity
8
0
100
AcDbPolyline
90
4
70
1
43
0.0
10
588.50574093950218
20
340.25972867163136
42
-0.41421356237309503
10
587.38891339149882
20
341.37655621963484
42
-0.41421356237309503
10
588.50574093950218
20
342.49338376763831
42
-0.41421356237309503
10
589.62256848750565
20
341.37655621963484
42
-0.41421356237309503
0
LWPOLYLINE
5
148
100
AcDbEntity
8
0
100
AcDbPolyline
90
4
70
1
43
0.0
10
596.69515180783435
20
346.03337020220255
42
-0.41421356237276202
10
596.61641165035417
20
345.95463004472225
42
-0.41421356237359452
10
596.53767149287376
20
346.03337020220255
42
-0.41421356237292856
10
596.61641165035405
20
346.11211035968296
42
-0.41421356237259555
0
LWPOLYLINE
5
149
100
AcDbEntity
8
0
100
AcDbPolyline
90
4
70
1
43
0.0
10
595.48699804730245
20
346.03337020220255
42
-0.41421356237292856
10
595.56573820478263
20
346.11211035968296
42
-0.41421356237259555
10
595.64447836226304
20
346.03337020220255
42
-0.41421356237309503
10
595.56573820478275
20
345.95463004472219
42
-0.41421356237309503
0
ARC
5
150
100
AcDbEntity
8
0
100
AcDbCircle
10
592.36911355683981
20
347.01830090230845
30
0
40
0.059055118110195981
210
0
220
-0
230
1
100
AcDbArc
50
40.330010850532737
51
103.26930660943972
0
LWPOLYLINE
5
151
100
AcDbEntity
8
0
100
AcDbPolyline
90
4
70
1
43
0.0
10
606.33847894974292
20
338.26519229795804
42
-0.41421356237292856
10
606.41721910722322
20
338.34393245543833
42
-0.41421356237259555
10
606.49595926470352
20
338.26519229795804
42
-0.41421356237309503
10
606.41721910722322
20
338.18645214047768
42
-0.41421356237309503
0
LWPOLYLINE
5
152
100
AcDbEntity
8
0
100
AcDbPolyline
90
4
70
1
43
0.0
10
589.50696117581788
20
340.45320633141711
42
-0.41421356237309503
10
589.43707366473927
20
340.38331882033856
42
-0.41421356237328266
10
589.36718615366078
20
340.45320633141711
42
-0.41421356237309503
10
589.43707366473927
20
340.5230938424956
42
-0.41421356237290746
0
LWPOLYLINE
5
153
100
AcDbEntity
8
0
100
AcDbPolyline
90
4
70
1
43
0.0
10
614.09701748552629
20
337.9421788758317
42
-0.41421356237259555
10
614.01827732804611
20
337.86343871835146
42
-0.41421356237342799
10
613.9395371705657
20
337.9421788758317
42
-0.41421356237309503
10
614.01827732804611
20
338.020919033312
42
-0.41421356237326151
0
LWPOLYLINE
5
154
100
AcDbEntity
8
0
100
AcDbPolyline
90
4
70
1
43
0.0
10
603.93457423708389
20
342.20581631930025
42
-0.41421356237309503
10
603.85583407960348
20
342.1270761618199
42
-0.41421356237309503
10
603.77709392212319
20
342.20581631930025
42
-0.41421356237326151
10
603.85583407960348
20
342.28455647678055
42
-0.41421356237326151
0
LWPOLYLINE
5
155
100
AcDbEntity
8
0
100
AcDbPolyline
90
4
70
1
43
0.0
10
595.5657245439246
20
343.55166707055452
42
-0.41421356237309503
10
595.6444647014049
20
343.47292691307428
42
-0.41421356237259555
10
595.5657245439246
20
343.39418675559398
42
-0.41421356237359452
10
595.48698438644431
20
343.47292691307428
42
-0.41421356237309503
0
LWPOLYLINE
5
156
100
AcDbEntity
8
0
100
AcDbPolyline
90
4
70
1
43
0.0
10
602.8096344251428
20
346.89914969406459
42
-0.41421356237309503
10
602.94742970073344
20
347.03694496965522
42
-0.41421356237309503
10
603.08522497632396
20
346.89914969406459
42
-0.41421356237309503
10
602.94742970073344
20
346.76135441847407
42
-0.41421356237280965
0
LWPOLYLINE
5
157
100
AcDbEntity
8
0
100
AcDbPolyline
90
4
70
1
43
0.0
10
600.15995869089443
20
339.64535032812933
42
-0.41421356237259555
10
600.23869884837472
20
339.72409048560962
42
-0.41421356237292856
10
600.31743900585502
20
339.64535032812933
42
-0.41421356237309503
10
600.23869884837472
20
339.56661017064908
42
-0.41421356237309503
0
LWPOLYLINE
5
158
100
AcDbEntity
8
0
100
AcDbPolyline
90
4
70
1
43
0.0
10
603.06136026807405
20
339.1761681247603
42
-0.41421356237309503
10
603.14010042555446
20
339.25490828224054
42
-0.41421356237309503
10
603.21884058303476
20
339.1761681247603
42
-0.41421356237292856
10
603.14010042555446
20
339.09742796727994
42
-0.41421356237309503
0
LWPOLYLINE
5
159
100
AcDbEntity
8
0
100
AcDbPolyline
90
8
70
1
43
0.0
10
598.97105174797764
20
347.24265363107253
42
-0.41421356237309503
10
599.07046119679649
20
347.34206307989137
10
601.85392576372556
20
347.34206307989143
42
-0.41421356237309503
10
601.95333521254452
20
347.24265363107253
10
601.95333521254452
20
346.55564575705671
42
-0.4142135623729632
10
601.85392576372556
20
346.45623630823786
10
599.07046119679649
20
346.45623630823786
42
-0.41421356237335882
10
598.97105174797753
20
346.55564575705671
0
LWPOLYLINE
5
160
100
AcDbEntity
8
0
100
AcDbPolyline
90
4
70
1
43
0.0
10
600.31744201124388
20
346.03348566801998
42
-0.41421356237309503
10
600.23870185376359
20
345.95474551053968
42
-0.41421356237326151
10
600.15996169628318
20
346.03348566801998
42
-0.41421356237309503
10
600.23870185376359
20
346.11222582550027
42
-0.41421356237309503
0
LWPOLYLINE
5
161
100
AcDbEntity
8
0
100
AcDbPolyline
90
4
70
1
43
0.0
10
602.8788697239205
20
342.20580640898544
42
-0.41421356237309503
10
602.80012956644032
20
342.1270662515052
42
-0.41421356237292856
10
602.72138940895991
20
342.20580640898544
42
-0.41421356237309503
10
602.80012956644021
20
342.28454656646579
42
-0.41421356237309503
0
LWPOLYLINE
5
162
100
AcDbEntity
8
0
100
AcDbPolyline
90
4
70
1
43
0.0
10
606.3384943130834
20
339.64537591158512
42
-0.41421356237309503
10
606.4172344705637
20
339.72411606906542
42
-0.41421356237292856
10
606.49597462804411
20
339.64537591158512
42
-0.41421356237359452
10
606.41723447056393
20
339.56663575410477
42
-0.41421356237259555
0
LWPOLYLINE
5
163
100
AcDbEntity
8
0
100
AcDbPolyline
90
4
70
1
43
0.0
10
603.13908006924078
20
347.35327874205495
42
-0.41421356237326151
10
603.06033991176037
20
347.43201889953531
42
-0.41421356237309503
10
603.13908006924066
20
347.51075905701566
42
-0.41421356237309503
10
603.21782022672107
20
347.43201889953531
42
-0.41421356237326151
0
ARC
5
164
100
AcDbEntity
8
0
100
AcDbCircle
10
613.73796236741612
20
346.89128234151082
30
0
40
0.039370078740211187
210
0
220
-0
230
1
100
AcDbArc
50
0
51
90
0
ARC
5
165
100
AcDbEntity
8
0
100
AcDbCircle
10
592.42313690328388
20
347.0641647015733
30
0
40
0.011811023622127747
210
0
220
0
230
1
100
AcDbArc
50
278.71915868421075
51
337.10830651722586
0
ARC
5
166
100
AcDbEntity
8
0
100
AcDbCircle
10
599.17745858925696
20
339.64487569936557
30
0
40
0.17716535433068017
210
0
220
0
230
1
100
AcDbArc
50
-45.010905019187739
51
44.989094980812261
0
LWPOLYLINE
5
167
100
AcDbEntity
8
0
100
AcDbPolyline
90
4
70
1
43
0.0
10
602.07636670860745
20
346.89914969406465
42
-0.41421356237309503
10
602.15510686608775
20
346.977889851545
42
-0.41421356237276202
10
602.23384702356816
20
346.89914969406465
42
-0.41421356237309503
10
602.15510686608786
20
346.82040953658429
42
-0.41421356237326151
0
LWPOLYLINE
5
168
100
AcDbEntity
8
0
100
AcDbPolyline
90
4
70
1
43
0.0
10
600.31745567210203
20
342.20580352757236
42
-0.41421356237309503
10
600.23871551462173
20
342.12706337009206
42
-0.41421356237276202
10
600.15997535714143
20
342.20580352757236
42
-0.41421356237309503
10
600.23871551462173
20
342.2845436850526
42
-0.41421356237342799
0
LWPOLYLINE
5
169
100
AcDbEntity
8
0
100
AcDbPolyline
90
4
70
1
43
0.0
10
597.90158816999121
20
347.35327874205501
42
-0.41421356237309503
10
597.8228480125108
20
347.43201889953531
42
-0.41421356237309503
10
597.90158816999121
20
347.51075905701566
42
-0.41421356237309503
10
597.98032832747151
20
347.43201889953531
42
-0.41421356237309503
0
ARC
5
170
100
AcDbEntity
8
0
100
AcDbCircle
10
601.51940059065964
20
344.75326045122756
30
0
40
1.5551181102362295
210
0
220
0
230
1
100
AcDbArc
50
232.81546649800546
51
318.91295382838877
0
LWPOLYLINE
5
171
100
AcDbEntity
8
0
100
AcDbPolyline
90
4
70
1
43
0.0
10
603.93457423708389
20
346.03337020220255
42
-0.41421356237309503
10
603.8558340796036
20
345.95463004472219
42
-0.41421356237326151
10
603.77709392212319
20
346.03337020220255
42
-0.41421356237309503
10
603.85583407960348
20
346.11211035968279
42
-0.41421356237309503
0
LWPOLYLINE
5
172
100
AcDbEntity
8
0
100
AcDbPolyline
90
4
70
1
43
0.0
10
602.80011590558206
20
339.72410327733752
42
-0.41421356237309503
10
602.87885606306236
20
339.64536311985717
42
-0.41421356237309503
10
602.80011590558206
20
339.56662296237687
42
-0.41421356237309503
10
602.72137574810176
20
339.64536311985717
42
-0.41421356237309503
0
LWPOLYLINE
5
173
100
AcDbEntity
8
0
100
AcDbPolyline
90
4
70
1
43
0.0
10
604.14187678828978
20
346.89914969315788
42
-0.41421356237276202
10
604.06313663080948
20
346.82040953567758
42
-0.41421356237359452
10
603.98439647332918
20
346.89914969315788
42
-0.41421356237292856
10
604.06313663080948
20
346.97788985063812
42
-0.41421356237309503
0
ARC
5
174
100
AcDbEntity
8
0
100
AcDbCircle
10
603.33655503202738
20
347.70221213866103
30
0
40
0.0078740157480544949
210
0
220
0
230
1
100
AcDbArc
50
270.00024994021567
51
331.92779198461761
0
ARC
5
175
100
AcDbEntity
8
0
100
AcDbCircle
10
603.27750007058671
20
347.67071586670198
30
0
40
0.059055078210280269
210
0
220
-0
230
1
100
AcDbArc
50
28.072707894726996
51
90.000094894963055
0
ARC
5
176
100
AcDbEntity
8
0
100
AcDbCircle
10
605.13653281649954
20
340.92559110250801
30
0
40
1.5551181102362934
210
0
220
0
230
1
100
AcDbArc
50
131.10792848914704
51
217.20541581952929
0
ARC
5
177
100
AcDbEntity
8
0
100
AcDbCircle
10
613.79721483052219
20
337.74689212488374
30
0
40
0.011811023622126018
210
0
220
-0
230
1
100
AcDbArc
50
0
51
56.442690237884378
0
ARC
5
178
100
AcDbEntity
8
0
100
AcDbCircle
10
601.51940059065964
20
344.75326045122756
30
0
40
1.555118110236261
210
0
220
-0
230
1
100
AcDbArc
50
45.010441158769325
51
131.10792848914429
0
ARC
5
179
100
AcDbEntity
8
0
100
AcDbCircle
10
603.86656639921137
20
339.96144490833092
30
0
40
0.039370078740232697
210
0
220
0
230
1
100
AcDbArc
50
-44.989512064944392
51
37.205415819355736
0
ARC
5
180
100
AcDbEntity
8
0
100
AcDbCircle
10
603.33655503202738
20
347.70221213866097
30
0
40
0.007874015747982837
210
0
220
0
230
1
100
AcDbArc
50
208.07270789484051
51
270.00024994021567
0
ARC
5
181
100
AcDbEntity
8
0
100
AcDbCircle
10
600.24943417337158
20
343.78911425705064
30
0
40
0.039370078740201028
210
0
220
0
230
1
100
AcDbArc
50
-44.989512065119854
51
37.205415819555832
0
LINE
5
182
100
AcDbEntity
8
0
100
AcDbLine
10
600.11387393953885
20
343.59781649195037
30
0
11
600.27729291338426
21
343.76129530410742
31
0
0
LWPOLYLINE
5
183
100
AcDbEntity
8
0
100
AcDbPolyline
90
4
70
1
43
0.0
10
602.80011590558195
20
345.95474839195276
42
-0.41421356237309503
10
602.72137574810165
20
346.03348854943312
42
-0.41421356237309503
10
602.80011590558195
20
346.11222870691341
42
-0.41421356237292856
10
602.87885606306236
20
346.03348854943312
42
-0.41421356237309503
0
ARC
5
184
100
AcDbEntity
8
0
100
AcDbCircle
10
603.85630482995327
20
343.4724500483685
30
0
40
0.17716535433071184
210
0
220
0
230
1
100
AcDbArc
50
135.01090501920075
51
225.01090501920069
0
LWPOLYLINE
5
185
100
AcDbEntity
8
0
100
AcDbPolyline
90
4
70
1
43
0.0
10
602.87884240220421
20
343.47304526030479
42
-0.41421356237292856
10
602.80010224472392
20
343.39430510282449
42
-0.41421356237309503
10
602.72136208724351
20
343.47304526030479
42
-0.41421356237309503
10
602.80010224472392
20
343.55178541778508
42
-0.41421356237309503
0
ARC
5
186
100
AcDbEntity
8
0
100
AcDbCircle
10
604.1728495449081
20
339.65527337184358
30
0
40
0.039370078740228742
210
0
220
-0
230
1
100
AcDbArc
50
52.815466497919715
51
135.01048793470468
0
ARC
5
187
100
AcDbEntity
8
0
100
AcDbCircle
10
603.85630482995327
20
343.47245004836844
30
0
40
0.17716535433064853
210
0
220
0
230
1
100
AcDbArc
50
225.01090501918776
51
315.0109050192267
0
LWPOLYLINE
5
188
100
AcDbEntity
8
0
100
AcDbPolyline
90
4
70
1
43
0.0
10
603.21842581069973
20
342.84103272142698
42
-0.41421356237259555
10
603.13968565321954
20
342.76229256394674
42
-0.41421356237342799
10
603.06094549573913
20
342.84103272142698
42
-0.41421356237309503
10
603.13968565321954
20
342.91977287890722
42
-0.41421356237309503
0
LINE
5
189
100
AcDbEntity
8
0
100
AcDbLine
10
603.73100616537874
20
343.59770102613294
30
0
11
603.89442513922427
21
343.76117983828999
31
0
0
LWPOLYLINE
5
190
100
AcDbEntity
8
0
100
AcDbPolyline
90
4
70
1
43
0.0
10
603.61160494849844
20
347.43201889953536
42
-0.41421356237326151
10
603.53286479101814
20
347.35327874205495
42
-0.41421356237276202
10
603.45412463353784
20
347.43201889953536
42
-0.41421356237309503
10
603.53286479101814
20
347.5107590570156
42
-0.41421356237342799
0
LINE
5
191
100
AcDbEntity
8
0
100
AcDbLine
10
604.26490828435271
20
347.11568512804223
30
0
11
604.26490828435271
21
346.68261426190048
31
0
0
LWPOLYLINE
5
192
100
AcDbEntity
8
0
100
AcDbPolyline
90
8
70
1
43
0.0
10
604.46175867805357
20
346.48576386819576
42
-0.41421356237309503
10
604.26490828435271
20
346.68261426189656
10
604.26490828435271
20
347.11568512804615
42
-0.41421356237309503
10
604.46175867805357
20
347.31253552174695
10
606.35152245758104
20
347.3125355217469
42
-0.41421356237329482
10
606.5483728512819
20
347.11568512804615
10
606.5483728512819
20
346.68261426189656
42
-0.41421356237309503
10
606.35152245758104
20
346.48576386819576
0
LINE
5
193
100
AcDbEntity
8
0
100
AcDbLine
10
603.98160167092942
20
339.51964336343559
30
0
11
604.14502077032307
21
339.6831223011867
31
0
0
LINE
5
194
100
AcDbEntity
8
0
100
AcDbLine
10
600.36446944508941
20
343.34731271215526
30
0
11
600.52788854448306
21
343.51079164990642
31
0
0
ARC
5
195
100
AcDbEntity
8
0
100
AcDbCircle
10
600.23917260411338
20
343.47256551418593
30
0
40
0.17716535433071184
210
0
220
0
230
1
100
AcDbArc
50
135.01090501920075
51
225.0109050191877
0
ARC
5
196
100
AcDbEntity
8
0
100
AcDbCircle
10
603.85630482995327
20
339.64489616546621
30
0
40
0.17716535433068017
210
0
220
0
230
1
100
AcDbArc
50
135.01090501916175
51
225.01090501920069
0
ARC
5
197
100
AcDbEntity
8
0
100
AcDbCircle
10
604.1728495449081
20
343.48282725474593
30
0
40
0.039370078740174647
210
0
220
-0
230
1
100
AcDbArc
50
52.815466497919715
51
135.0104879348217
0
ARC
5
198
100
AcDbEntity
8
0
100
AcDbCircle
10
600.55571731906821
20
343.48294272056336
30
0
40
0.039370078740103322
210
0
220
-0
230
1
100
AcDbArc
50
52.815466497951533
51
135.01048793493865
0
ARC
5
199
100
AcDbEntity
8
0
100
AcDbCircle
10
603.39560999346816
20
347.67071586670198
30
0
40
0.059055078210256504
210
0
220
-0
230
1
100
AcDbArc
50
89.999905104926668
51
151.92729210527301
0
ARC
5
200
100
AcDbEntity
8
0
100
AcDbCircle
10
600.23917260411338
20
343.47256551418587
30
0
40
0.17716535433074346
210
0
220
0
230
1
100
AcDbArc
50
225.01090501917471
51
315.0109050191877
0
ARC
5
201
100
AcDbEntity
8
0
100
AcDbCircle
10
603.85630482995327
20
339.64489616546621
30
0
40
0.17716535433068017
210
0
220
0
230
1
100
AcDbArc
50
225.01090501920069
51
315.01090501921374
0
LINE
5
202
100
AcDbEntity
8
0
100
AcDbLine
10
603.73100616537874
20
339.77014714323064
30
0
11
603.89442513922427
21
339.93362595538775
31
0
0
LINE
5
203
100
AcDbEntity
8
0
100
AcDbLine
10
603.98160167092942
20
343.34719724633783
30
0
11
604.14502077032307
21
343.51067618408899
31
0
0
ARC
5
204
100
AcDbEntity
8
0
100
AcDbCircle
10
603.86656639921159
20
343.78899879123321
30
0
40
0.039370078740137718
210
0
220
0
230
1
100
AcDbArc
50
-44.989512065236795
51
37.20541581948995
0
LWPOLYLINE
5
205
100
AcDbEntity
8
0
100
AcDbPolyline
90
6
70
1
43
0.0
10
592.39001389722796
20
331.62864305663982
42
-0.30369697790646411
10
592.17347846415703
20
331.48375769807927
42
-0.30369697790645572
10
591.9569430310861
20
331.62864305663976
10
591.95694303108621
20
331.80737627652661
42
-0.30369697790646411
10
592.17347846415703
20
331.95226163508715
42
-0.30369697790641592
10
592.39001389722796
20
331.80737627652667
0
LWPOLYLINE
5
206
100
AcDbEntity
8
0
100
AcDbPolyline
90
6
70
1
43
0.0
10
594.53521057263492
20
331.48407199055544
42
-0.30369697790650396
10
594.31867513956399
20
331.62895734911604
10
594.31867513956399
20
331.80769056900289
42
-0.30369697790656847
10
594.53521057263492
20
331.95257592756337
42
-0.30369697790646411
10
594.75174600570585
20
331.80769056900289
10
594.75174600570585
20
331.62895734911604
42
-0.30369697790646411
0
LWPOLYLINE
5
207
100
AcDbEntity
8
0
100
AcDbPolyline
90
6
70
1
43
0.0
10
593.74759941963373
20
331.4833294845098
42
-0.30369697790641592
10
593.53106398656291
20
331.62821484307028
10
593.53106398656291
20
331.80694806295713
42
-0.30369697790651234
10
593.74759941963373
20
331.95183342151762
42
-0.30369697790646411
10
593.96413485270455
20
331.80694806295713
10
593.96413485270455
20
331.62821484307028
42
-0.30369697790646411
0
LWPOLYLINE
5
208
100
AcDbEntity
8
0
100
AcDbPolyline
90
6
70
1
43
0.0
10
592.96074950698278
20
331.95298031103783
42
-0.30369697790646411
10
593.1772849400536
20
331.80809495247735
10
593.1772849400536
20
331.6293617325905
42
-0.30369697790646411
10
592.96074950698278
20
331.48447637403001
42
-0.30369697790646411
10
592.74421407391196
20
331.6293617325905
10
592.74421407391196
20
331.80809495247735
42
-0.30369697790646411
0
LWPOLYLINE
5
209
100
AcDbEntity
8
0
100
AcDbPolyline
90
4
70
1
43
0.0
10
592.14622888241092
20
330.7097810685238
42
-0.41421356237309503
10
592.22890604776535
20
330.79245823387816
42
-0.41421356237309503
10
592.31158321311966
20
330.7097810685238
42
-0.41421356237309503
10
592.22890604776535
20
330.62710390316948
42
-0.41421356237309503
0
LWPOLYLINE
5
210
100
AcDbEntity
8
0
100
AcDbPolyline
90
6
70
1
43
0.0
10
595.53904843291741
20
331.80660305613623
10
595.53904843291741
20
331.62786983624937
42
-0.30369697790646411
10
595.32251299984648
20
331.48298447768883
42
-0.30369697790641592
10
595.10597756677566
20
331.62786983624932
10
595.10597756677566
20
331.80660305613623
42
-0.30369697790646411
10
595.32251299984648
20
331.95148841469671
42
-0.30369697790641592
0
ARC
5
211
100
AcDbEntity
8
0
100
AcDbCircle
10
597.89721216053056
20
340.92562528568629
30
0
40
1.5551521895843126
210
0
220
0
230
1
100
AcDbArc
50
232.81717297914719
51
307.19202518310425
0
ARC
5
212
100
AcDbEntity
8
0
100
AcDbCircle
10
613.73934815446228
20
333.29221666355721
30
0
40
0.039370078740345642
210
0
220
0
230
1
100
AcDbArc
50
270.00000551394913
51
315.00903445794239
0
LWPOLYLINE
5
213
100
AcDbEntity
8
0
100
AcDbPolyline
90
4
70
1
43
0.0
10
607.23709830104451
20
347.43201889953531
42
-0.41421356237259555
10
607.15835814356421
20
347.35327874205507
42
-0.41421356237342799
10
607.07961798608392
20
347.43201889953531
42
-0.41421356237309503
10
607.15835814356421
20
347.51075905701555
42
-0.41421356237309503
0
LWPOLYLINE
5
214
100
AcDbEntity
8
0
100
AcDbPolyline
90
4
70
1
43
0.0
10
592.62457695400087
20
342.91954206569903
42
-0.41421356237292856
10
592.70331711148128
20
342.84080190821874
42
-0.41421356237309503
10
592.62457695400087
20
342.76206175073844
42
-0.41421356237309503
10
592.54583679652058
20
342.84080190821874
42
-0.41421356237309503
0
LWPOLYLINE
5
215
100
AcDbEntity
8
0
100
AcDbPolyline
90
4
70
1
43
0.0
10
610.58833323382896
20
332.42277870432963
42
-0.41421356237309503
10
610.96234898186049
20
332.04876295629816
42
-0.41421356237309503
10
610.58833323382896
20
331.67474720826664
42
-0.41421356237309503
10
610.21431748579744
20
332.04876295629816
42
-0.41421356237309503
0
ARC
5
216
100
AcDbEntity
8
0
100
AcDbCircle
10
599.17745858925696
20
339.64487569936563
30
0
40
0.1771653543307751
210
0
220
0
230
1
100
AcDbArc
50
224.98909498082529
51
314.98909498079928
0
ARC
5
217
100
AcDbEntity
8
0
100
AcDbCircle
10
613.78113563932459
20
347.69836578689836
30
0
40
0.0078740157479942532
210
0
220
0
230
1
100
AcDbArc
50
204.4004994899455
51
266.55863892176399
0
LINE
5
218
100
AcDbEntity
8
0
100
AcDbLine
10
607.43874976899099
20
346.93065242025102
30
0
11
613.73796236741612
21
346.93065242025102
31
0
0
LWPOLYLINE
5
219
100
AcDbEntity
8
0
100
AcDbPolyline
90
4
70
1
43
0.0
10
591.88638824968905
20
345.22989653341693
42
-0.41421356237309503
10
591.95627576076754
20
345.29978404449542
42
-0.41421356237309503
10
592.02616327184614
20
345.22989653341693
42
-0.41421356237309503
10
591.95627576076754
20
345.16000902233833
42
-0.41421356237309503
0
LWPOLYLINE
5
220
100
AcDbEntity
8
0
100
AcDbPolyline
90
4
70
1
43
0.0
10
606.75014450482524
20
346.82040953567753
42
-0.41421356237309503
10
606.67140434734483
20
346.89914969315788
42
-0.41421356237292856
10
606.75014450482524
20
346.97788985063812
42
-0.41421356237309503
10
606.82888466230554
20
346.89914969315788
42
-0.41421356237309503
0
LWPOLYLINE
5
221
100
AcDbEntity
8
0
100
AcDbPolyline
90
4
70
1
43
0.0
10
594.28502288986033
20
343.19802399376078
42
-0.41421356237309503
10
592.72990477962401
20
344.75314210399705
42
-0.41421356237309503
10
594.28502288986033
20
346.30826021423326
42
-0.41421356237309503
10
595.84014100009642
20
344.75314210399705
42
-0.41421356237309503
0
ARC
5
222
100
AcDbEntity
8
0
100
AcDbCircle
10
607.39798241676135
20
347.70221259681517
30
0
40
0.0078740157480664593
210
0
220
0
230
1
100
AcDbArc
50
208.07248700865094
51
270.00000005128948
0
ARC
5
223
100
AcDbEntity
8
0
100
AcDbCircle
10
607.39798241676135
20
347.70221259681512
30
0
40
0.0078740157480243333
210
0
220
0
230
1
100
AcDbArc
50
270.00000005128948
51
331.92751309385505
0
LWPOLYLINE
5
224
100
AcDbEntity
8
0
100
AcDbPolyline
90
4
70
1
43
0.0
10
622.24675499415378
20
346.27349213860634
42
-0.41421356237309503
10
622.16801483667348
20
346.35223229608658
42
-0.41421356237309503
10
622.24675499415378
20
346.43097245356688
42
-0.41421356237309503
10
622.32549515163396
20
346.35223229608658
42
-0.41421356237309503
0
ARC
5
225
100
AcDbEntity
8
0
100
AcDbCircle
10
597.89723051836199
20
340.92565249281455
30
0
40
1.5551469419674575
210
0
220
0
230
1
100
AcDbArc
50
90.001841154690851
51
153.60662119007515
0
ARC
5
226
100
AcDbEntity
8
0
100
AcDbCircle
10
601.51940059065964
20
344.75326045122762
30
0
40
1.5551181102362346
210
0
220
0
230
1
100
AcDbArc
50
131.10792848914565
51
217.20541581952344
0
LWPOLYLINE
5
227
100
AcDbEntity
8
0
100
AcDbPolyline
90
4
70
1
43
0.0
10
589.36682386328891
20
339.27014958722344
42
-0.41421356237309503
10
589.43671137436752
20
339.34003709830205
42
-0.41421356237309503
10
589.50659888544612
20
339.27014958722344
42
-0.41421356237309503
10
589.43671137436752
20
339.2002620761449
42
-0.41421356237309503
0
LWPOLYLINE
5
228
100
AcDbEntity
8
0
100
AcDbPolyline
90
4
70
1
43
0.0
10
589.91409989327008
20
344.30049810032972
42
-0.41421356237309503
10
591.03092744127355
20
345.41732564833319
42
-0.41421356237309503
10
592.14775498927702
20
344.30049810032972
42
-0.41421356237309503
10
591.03092744127355
20
343.18367055232625
42
-0.41421356237309503
0
LWPOLYLINE
5
229
100
AcDbEntity
8
0
100
AcDbPolyline
90
4
70
1
43
0.0
10
613.93953717056581
20
334.61368598789079
42
-0.41421356237309503
10
614.01827732804611
20
334.69242614537103
42
-0.41421356237309503
10
614.09701748552641
20
334.61368598789079
42
-0.41421356237309503
10
614.01827732804611
20
334.53494583041044
42
-0.41421356237309503
0
LWPOLYLINE
5
230
100
AcDbEntity
8
0
100
AcDbPolyline
90
4
70
1
43
0.0
10
621.79059781731962
20
342.98755472439433
42
-0.41421356237309503
10
621.86933797479981
20
342.90881456691409
42
-0.41421356237309503
10
621.79059781731962
20
342.83007440943379
42
-0.41421356237309503
10
621.71185765983921
20
342.90881456691409
42
-0.41421356237309503
0
ARC
5
231
100
AcDbEntity
8
0
100
AcDbCircle
10
605.13653281649965
20
344.75314498541024
30
0
40
1.5551181102360498
210
0
220
0
230
1
100
AcDbArc
50
-41.087046171612407
51
45.010441158775244
0
ARC
5
232
100
AcDbEntity
8
0
100
AcDbCircle
10
613.72018461189884
20
347.67071653393936
30
0
40
0.0590551179192546
210
0
220
-0
230
1
100
AcDbArc
50
24.400499490209103
51
90.000000184973004
0
LWPOLYLINE
5
233
100
AcDbEntity
8
0
100
AcDbPolyline
90
4
70
1
43
0.0
10
587.5160666552307
20
339.27026089649934
42
-0.41421356237309503
10
587.58595416630931
20
339.34014840757794
42
-0.41421356237309503
10
587.65584167738791
20
339.27026089649934
42
-0.41421356237290746
10
587.58595416630931
20
339.20037338542079
42
-0.41421356237309503
0
ARC
5
234
100
AcDbEntity
8
0
100
AcDbCircle
10
613.83833400853382
20
347.66361157105564
30
0
40
0.059055118110388806
210
0
220
-0
230
1
100
AcDbArc
50
88.591923341660973
51
148.71677835407371
0
LINE
5
235
100
AcDbEntity
8
0
100
AcDbLine
10
599.05216174828081
20
339.5196228973349
30
0
11
598.88874264888727
21
339.68310183508606
31
0
0
LWPOLYLINE
5
236
100
AcDbEntity
8
0
100
AcDbPolyline
90
6
70
1
43
0.0
10
623.48319466393207
20
343.03301522813706
42
-0.31919774706122916
10
623.14854899464081
20
343.27088767335158
10
623.14854899464081
20
343.50380420024533
42
-0.31919774706126208
10
623.48319466393207
20
343.7416766454599
42
-0.31919774706131782
10
623.81784033322344
20
343.50380420024527
10
623.81784033322344
20
343.27088767335158
42
-0.31919774706128495
0
LWPOLYLINE
5
237
100
AcDbEntity
8
0
100
AcDbPolyline
90
4
70
1
43
0.0
10
614.01827840968633
20
330.79288114066026
42
-0.41421356237325357
10
614.10095557504064
20
330.71020397530583
42
-0.41421356237309503
10
614.01827840968633
20
330.62752680995152
42
-0.41421356237309503
10
613.93560124433191
20
330.71020397530583
42
-0.41421356237309503
0
ARC
5
238
100
AcDbEntity
8
0
100
AcDbCircle
10
613.79721483052219
20
337.74689212488374
30
0
40
0.01181102362207353
210
0
220
0
230
1
100
AcDbArc
50
-56.442690237884371
51
0
0
ARC
5
239
100
AcDbEntity
8
0
100
AcDbCircle
10
613.7393481544625
20
333.29221666355693
30
0
40
0.039370078739975001
210
0
220
0
230
1
100
AcDbArc
50
-44.99096554199906
51
0.018063402382414547
0
LWPOLYLINE
5
240
100
AcDbEntity
8
0
100
AcDbPolyline
90
4
70
1
43
0.0
10
607.1583581435641
20
345.49107225335831
42
-0.41421356237309503
10
607.07961798608392
20
345.56981241083855
42
-0.41421356237276202
10
607.1583581435641
20
345.64855256831885
42
-0.41421356237359452
10
607.2370983010444
20
345.56981241083855
42
-0.41421356237309503
0
LWPOLYLINE
5
241
100
AcDbEntity
8
0
100
AcDbPolyline
90
4
70
1
43
0.0
10
621.79059781731962
20
345.08256583522422
42
-0.41421356237309503
10
621.71185765983932
20
345.16130599270457
42
-0.41421356237326151
10
621.79059781731962
20
345.24004615018487
42
-0.41421356237326151
10
621.86933797479981
20
345.16130599270457
42
-0.41421356237309503
0
LWPOLYLINE
5
242
100
AcDbEntity
8
0
100
AcDbPolyline
90
4
70
1
43
0.0
10
612.2806218809045
20
332.04876295629816
42
-0.41421356237309503
10
612.65463762893603
20
332.42277870432963
42
-0.41421356237309503
10
613.02865337696755
20
332.04876295629816
42
-0.41421356237309503
10
612.65463762893603
20
331.67474720826658
42
-0.41421356237309503
0
LINE
5
243
100
AcDbEntity
8
0
100
AcDbLine
10
596.74229945714069
20
339.5196228973349
30
0
11
596.90571855653423
21
339.68310183508606
31
0
0
LWPOLYLINE
5
244
100
AcDbEntity
8
0
100
AcDbPolyline
90
7
70
1
43
0.0
10
618.98076059451159
20
332.02900873021383
42
-0.38989861631481992
10
618.74536755763245
20
331.81254249248468
42
-0.38989861631481076
10
618.50997452075342
20
332.02900873021383
42
-0.38989861631488798
10
618.70599747889241
20
332.2816794918192
10
618.70599747889241
20
332.36372359484682
10
618.78473763637271
20
332.36372359484682
10
618.78473763637271
20
332.2816794918192
42
-0.38989861631488798
0
LWPOLYLINE
5
245
100
AcDbEntity
8
0
100
AcDbPolyline
90
6
70
1
43
0.0
10
601.46531475429242
20
333.28129653433172
10
601.46531475429242
20
333.46002975421857
42
-0.30369697790646411
10
601.68185018736324
20
333.60491511277905
42
-0.30369697790646411
10
601.89838562043406
20
333.46002975421857
10
601.89838562043406
20
333.28129653433172
42
-0.30369697790646411
10
601.68185018736324
20
333.13641117577123
42
-0.30369697790641592
0
LWPOLYLINE
5
246
100
AcDbEntity
8
0
100
AcDbPolyline
90
4
70
1
43
0.0
10
596.69527202719087
20
342.20581631930031
42
-0.41421356237309503
10
596.61653186971046
20
342.12707616181996
42
-0.41421356237309503
10
596.53779171223016
20
342.20581631930031
42
-0.41421356237309503
10
596.61653186971046
20
342.28455647678061
42
-0.41421356237309503
0
LWPOLYLINE
5
247
100
AcDbEntity
8
0
100
AcDbPolyline
90
4
70
1
43
0.0
10
587.90606806220967
20
335.1953350956644
42
-0.41421356237328211
10
587.83598932205234
20
335.26541383582202
42
-0.41421356237309503
10
587.90606806220967
20
335.33549257597946
42
-0.41421356237309503
10
587.97614680236711
20
335.26541383582202
42
-0.41421356237309503
0
LWPOLYLINE
5
248
100
AcDbEntity
8
0
100
AcDbPolyline
90
4
70
1
43
0.0
10
601.51941425151767
20
338.54008230998875
42
-0.41421356237308665
10
603.074532361754
20
336.98496419975254
42
-0.41421356237309503
10
601.51941425151767
20
335.42984608951633
42
-0.41421356237309503
10
599.96429614128158
20
336.98496419975254
42
-0.41421356237309503
0
LWPOLYLINE
5
249
100
AcDbEntity
8
0
100
AcDbPolyline
90
4
70
1
43
0.0
10
595.5657551830376
20
342.28455935819375
42
-0.41421356237309503
10
595.64449534051812
20
342.20581920071339
42
-0.41421356237359452
10
595.5657551830376
20
342.12707904323304
42
-0.41421356237276202
10
595.48701502555741
20
342.20581920071339
42
-0.41421356237259555
0
LWPOLYLINE
5
250
100
AcDbEntity
8
0
100
AcDbPolyline
90
4
70
1
43
0.0
10
601.69568386019625
20
330.71056341982552
42
-0.41421356237309503
10
601.77836102555057
20
330.79324058517983
42
-0.41421356237309503
10
601.86103819090488
20
330.71056341982552
42
-0.41421356237293649
10
601.77836102555057
20
330.62788625447115
42
-0.41421356237309503
0
LWPOLYLINE
5
251
100
AcDbEntity
8
0
100
AcDbPolyline
90
4
70
1
43
0.0
10
606.41724813142196
20
342.1270790432331
42
-0.41421356237276202
10
606.33850797394166
20
342.20581920071345
42
-0.41421356237309503
10
606.41724813142196
20
342.28455935819375
42
-0.41421356237309503
10
606.49598828890237
20
342.20581920071345
42
-0.41421356237359452
0
LWPOLYLINE
5
252
100
AcDbEntity
8
0
100
AcDbPolyline
90
8
70
1
43
0.0
10
603.61705794307659
20
332.95011822283033
42
-0.41421356237359452
10
603.69579810055711
20
333.02885838031062
10
603.73516817929715
20
333.02885838031062
42
-0.41421356237309503
10
603.81390833677756
20
332.95011822283033
10
603.81390833677756
20
331.92649617558629
42
-0.41421356237309503
10
603.73516817929715
20
331.84775601810594
10
603.69579810055711
20
331.847756018106
42
-0.41421356237292856
10
603.6170579430767
20
331.92649617558629
0
LWPOLYLINE
5
253
100
AcDbEntity
8
0
100
AcDbPolyline
90
4
70
1
43
0.0
10
606.3384943130834
20
343.47292979448747
42
-0.41421356237309503
10
606.41723447056381
20
343.55166995196777
42
-0.41421356237309503
10
606.49597462804411
20
343.47292979448747
42
-0.41421356237309503
10
606.41723447056393
20
343.39418963700717
42
-0.41421356237326151
0
LWPOLYLINE
5
254
100
AcDbEntity
8
0
100
AcDbPolyline
90
4
70
1
43
0.0
10
605.66823935698676
20
333.91209674109183
42
-0.41421356237309503
10
605.75682203415215
20
334.00067941825711
42
-0.41421356237309503
10
605.84540471131743
20
333.91209674109183
42
-0.41421356237309503
10
605.75682203415215
20
333.8235140639265
42
-0.41421356237309503
0
LWPOLYLINE
5
255
100
AcDbEntity
8
0
100
AcDbPolyline
90
4
70
1
43
0.0
10
615.06813220674485
20
333.27803418460996
42
-0.41421356237309503
10
615.15671488391024
20
333.18945150744463
42
-0.41421356237309503
10
615.06813220674485
20
333.10086883027924
42
-0.41421356237309503
10
614.97954952957957
20
333.18945150744463
42
-0.41421356237309503
0
LWPOLYLINE
5
256
100
AcDbEntity
8
0
100
AcDbPolyline
90
4
70
1
43
0.0
10
607.23709830104463
20
334.61368598789079
42
-0.41421356237359452
10
607.1583581435641
20
334.53494583041044
42
-0.41421356237276202
10
607.07961798608392
20
334.61368598789079
42
-0.41421356237309503
10
607.1583581435641
20
334.69242614537109
42
-0.41421356237309503
0
LINE
5
257
100
AcDbEntity
8
0
100
AcDbLine
10
615.36553166465455
20
331.31057705557998
30
0
11
615.3369097142504
21
331.31057705429328
31
0
0
LWPOLYLINE
5
258
100
AcDbEntity
8
0
100
AcDbPolyline
90
4
70
1
43
0.0
10
618.28679917252691
20
347.20505603034849
42
-0.41421356237309503
10
618.36553933000721
20
347.28379618782884
42
-0.41421356237309503
10
618.44427948748762
20
347.20505603034849
42
-0.41421356237309503
10
618.36553933000721
20
347.12631587286825
42
-0.41421356237309503
0
LWPOLYLINE
5
259
100
AcDbEntity
8
0
100
AcDbPolyline
90
4
70
1
43
0.0
10
589.50590997171423
20
337.41889937734487
42
-0.41421356237309503
10
589.43602246063563
20
337.34901186626632
42
-0.41421356237309503
10
589.36613494955702
20
337.41889937734487
42
-0.41421356237309503
10
589.43602246063551
20
337.48878688842342
42
-0.41421356237253226
0
LWPOLYLINE
5
260
100
AcDbEntity
8
0
100
AcDbPolyline
90
4
70
1
43
0.0
10
620.96504384910872
20
334.61368598789079
42
-0.41421356237309503
10
620.88630369162843
20
334.53494583041049
42
-0.41421356237326151
10
620.80756353414813
20
334.61368598789079
42
-0.41421356237309503
10
620.88630369162843
20
334.69242614537109
42
-0.41421356237309503
0
LWPOLYLINE
5
261
100
AcDbEntity
8
0
100
AcDbPolyline
90
4
70
1
43
0.0
10
591.95528603362197
20
340.38335805715462
42
-0.41421356237309503
10
591.88539852254348
20
340.45324556823323
42
-0.41421356237309503
10
591.95528603362197
20
340.52313307931178
42
-0.41421356237290746
10
592.02517354470046
20
340.45324556823323
42
-0.41421356237309503
0
LWPOLYLINE
5
262
100
AcDbEntity
8
0
100
AcDbPolyline
90
4
70
1
43
0.0
10
616.09762199646843
20
337.07877540751429
42
-0.41421356237309503
10
615.99525979174405
20
336.9764132027899
42
-0.41421356237309503
10
615.89289758701966
20
337.07877540751429
42
-0.41421356237309503
10
615.99525979174405
20
337.18113761223873
42
-0.41421356237309503
0
LWPOLYLINE
5
263
100
AcDbEntity
8
0
100
AcDbPolyline
90
4
70
1
43
0.0
10
591.95610161928573
20
339.3398173839858
42
-0.41421356237309503
10
592.02598913036434
20
339.2699298729072
42
-0.41421356237309503
10
591.95610161928585
20
339.20004236182865
42
-0.41421356237290746
10
591.88621410820713
20
339.2699298729072
42
-0.41421356237309503
0
LWPOLYLINE
5
264
100
AcDbEntity
8
0
100
AcDbPolyline
90
6
70
1
43
0.0
10
604.11902643074416
20
331.06035444330274
10
604.11902643074416
20
333.81625995511376
42
-0.41421356237700202
10
604.41430202129925
20
334.11153554566499
42
-0.41421356236923246
10
604.7095776118465
20
333.81625995511376
10
604.7095776118465
20
331.06035444330274
42
-0.41421356237691326
10
604.41430202129141
20
330.76507885275157
42
-0.41421356236927687
0
LWPOLYLINE
5
265
100
AcDbEntity
8
0
100
AcDbPolyline
90
4
70
1
43
0.0
10
591.95512875290922
20
342.23342968079669
42
-0.41421356237328266
10
591.88524124183061
20
342.30331719187529
42
-0.41421356237309503
10
591.95512875290922
20
342.3732047029539
42
-0.41421356237309503
10
592.02501626398782
20
342.30331719187529
42
-0.41421356237309503
0
LWPOLYLINE
5
266
100
AcDbEntity
8
0
100
AcDbPolyline
90
4
70
1
43
0.0
10
596.35513073741629
20
336.55778359764287
42
-0.41421356237309503
10
596.28505199725885
20
336.48770485748543
42
-0.41421356237309503
10
596.21497325710141
20
336.55778359764287
42
-0.41421356237309503
10
596.28505199725885
20
336.62786233780042
42
-0.41421356237309503
0
LWPOLYLINE
5
267
100
AcDbEntity
8
0
100
AcDbPolyline
90
4
70
1
43
0.0
10
626.00698725590848
20
339.09913391177463
42
-0.41421356237326151
10
626.08572741338878
20
339.02039375429428
42
-0.41421356237309503
10
626.00698725590848
20
338.94165359681392
42
-0.41421356237309503
10
625.92824709842819
20
339.02039375429428
42
-0.41421356237309503
0
LWPOLYLINE
5
268
100
AcDbEntity
8
0
100
AcDbPolyline
90
4
70
1
43
0.0
10
616.61406458147087
20
331.16398711211929
42
-0.41421356237309503
10
616.52548190430537
20
331.07540443495401
42
-0.41421356237309503
10
616.43689922713997
20
331.16398711211929
42
-0.4142135623729471
10
616.52548190430537
20
331.25256978928462
42
-0.41421356237309503
0
LWPOLYLINE
5
269
100
AcDbEntity
8
0
100
AcDbPolyline
90
4
70
1
43
0.0
10
598.67547533164316
20
337.07877542489274
42
-0.41421356237309503
10
598.57311312691877
20
336.9764132201683
42
-0.41421356237309503
10
598.47075092219438
20
337.07877542489274
42
-0.41421356237309503
10
598.57311312691877
20
337.18113762961713
42
-0.41421356237309503
0
LWPOLYLINE
5
270
100
AcDbEntity
8
0
100
AcDbPolyline
90
4
70
1
43
0.0
10
605.75682203415215
20
330.87075815841456
42
-0.41421356237309503
10
605.66823935698676
20
330.95934083557995
42
-0.41421356237309503
10
605.75682203415215
20
331.04792351274529
42
-0.41421356237309503
10
605.84540471131754
20
330.95934083557995
42
-0.4142135623729471
0
LWPOLYLINE
5
271
100
AcDbEntity
8
0
100
AcDbPolyline
90
4
70
1
43
0.0
10
596.16567503547969
20
333.6042203958703
42
-0.41421356237309503
10
596.39795850004668
20
333.37193693130342
42
-0.41421356237309503
10
596.16567503547969
20
333.13965346673649
42
-0.41421356237309503
10
595.93339157091282
20
333.37193693130342
42
-0.41421356237315149
0
LWPOLYLINE
5
272
100
AcDbEntity
8
0
100
AcDbPolyline
90
4
70
1
43
0.0
10
597.13446493580852
20
337.07877542489274
42
-0.41421356237296697
10
597.23682714053302
20
337.18113762961713
42
-0.41421356237309503
10
597.33918934525752
20
337.07877542489274
42
-0.41421356237309503
10
597.23682714053302
20
336.9764132201683
42
-0.41421356237309503
0
LWPOLYLINE
5
273
100
AcDbEntity
8
0
100
AcDbPolyline
90
4
70
1
43
0.0
10
614.96979220374556
20
345.24004615018492
42
-0.41421356237326151
10
615.04853236122597
20
345.16130599270457
42
-0.41421356237292856
10
614.96979220374556
20
345.08256583522433
42
-0.41421356237309503
10
614.89105204626537
20
345.16130599270457
42
-0.41421356237326151
0
LWPOLYLINE
5
274
100
AcDbEntity
8
0
100
AcDbPolyline
90
4
70
1
43
0.0
10
616.61380149808338
20
333.18945150744463
42
-0.41421356237309503
10
616.5252188209181
20
333.10086883027924
42
-0.41421356237309503
10
616.43663614375282
20
333.18945150744463
42
-0.41421356237353901
10
616.5252188209181
20
333.27803418460996
42
-0.41421356237309503
0
LWPOLYLINE
5
275
100
AcDbEntity
8
0
100
AcDbPolyline
90
4
70
1
43
0.0
10
587.58547644451846
20
337.48946487926872
42
-0.41421356237309503
10
587.65536395559695
20
337.41957736819023
42
-0.41421356237309503
10
587.58547644451846
20
337.34968985711163
42
-0.41421356237309503
10
587.51558893343997
20
337.41957736819023
42
-0.41421356237309503
0
LWPOLYLINE
5
276
100
AcDbEntity
8
0
100
AcDbPolyline
90
4
70
1
43
0.0
10
601.68185018736335
20
331.36922213045636
42
-0.41421356237279483
10
601.63818076237692
20
331.41289155544263
42
-0.41421356237339524
10
601.68185018736324
20
331.45656098042878
42
-0.41421356237309503
10
601.72551961234944
20
331.41289155544263
42
-0.41421356237309503
0
LWPOLYLINE
5
277
100
AcDbEntity
8
0
100
AcDbPolyline
90
4
70
1
43
0.0
10
597.573728965736
20
332.01834189342225
10
597.573728965736
20
333.12857811389466
10
598.02648487124782
20
333.12857811389466
10
598.02648487124782
20
332.01834189342225
0
LWPOLYLINE
5
278
100
AcDbEntity
8
0
100
AcDbPolyline
90
4
70
1
43
0.0
10
600.44730514613059
20
333.37066314427517
42
-0.41421356237309503
10
600.2150216815636
20
333.13837967970818
42
-0.41421356237309503
10
599.98273821699661
20
333.37066314427517
42
-0.41421356237309503
10
600.2150216815636
20
333.60294660884205
42
-0.41421356237309503
0
LINE
5
279
100
AcDbEntity
8
0
100
AcDbLine
10
615.2502737506901
20
345.64923350815582
30
0
11
615.2502737506901
21
342.42088705146284
31
0
0
LWPOLYLINE
5
280
100
AcDbEntity
8
0
100
AcDbPolyline
90
4
70
1
43
0.0
10
595.56574152217945
20
339.72411606906542
42
-0.41421356237292856
10
595.64448167965975
20
339.64537591158512
42
-0.41421356237309503
10
595.56574152217945
20
339.56663575410477
42
-0.41421356237309503
10
595.48700136469915
20
339.64537591158512
42
-0.41421356237259555
0
LWPOLYLINE
5
281
100
AcDbEntity
8
0
100
AcDbPolyline
90
4
70
1
43
0.0
10
620.01263229198992
20
330.79245823387816
42
-0.41421356237309503
10
620.09530945734423
20
330.7097810685238
42
-0.41421356237309503
10
620.01263229198992
20
330.62710390316948
42
-0.41421356237309503
10
619.9299551266356
20
330.7097810685238
42
-0.41421356237309503
0
LWPOLYLINE
5
282
100
AcDbEntity
8
0
100
AcDbPolyline
90
4
70
1
43
0.0
10
597.67097455579938
20
330.79245823387816
42
-0.41421356237309503
10
597.7536517211538
20
330.7097810685238
42
-0.41421356237293649
10
597.67097455579938
20
330.62710390316948
42
-0.41421356237309503
10
597.58829739044506
20
330.7097810685238
42
-0.41421356237309503
0
LWPOLYLINE
5
283
100
AcDbEntity
8
0
100
AcDbPolyline
90
4
70
1
43
0.0
10
615.04853236122597
20
342.90881456691409
42
-0.41421356237359452
10
614.96979220374556
20
342.83007440943379
42
-0.41421356237276202
10
614.89105204626537
20
342.90881456691409
42
-0.41421356237309503
10
614.96979220374556
20
342.98755472439444
42
-0.41421356237309503
0
LWPOLYLINE
5
284
100
AcDbEntity
8
0
100
AcDbPolyline
90
4
70
1
43
0.0
10
603.57926363338254
20
334.51132378262122
42
-0.41421356237309503
10
603.47690142865815
20
334.6136859873456
42
-0.41421356237309503
10
603.57926363338254
20
334.71604819206999
42
-0.41421356237309503
10
603.68162583810692
20
334.6136859873456
42
-0.41421356237309503
0
LWPOLYLINE
5
285
100
AcDbEntity
8
0
100
AcDbPolyline
90
4
70
1
43
0.0
10
615.99525979174405
20
338.51737505056087
42
-0.41421356237309503
10
616.09762199646843
20
338.41501284583637
42
-0.41421356237309503
10
615.99525979174405
20
338.31265064111193
42
-0.41421356237309503
10
615.89289758701966
20
338.41501284583637
42
-0.41421356237309503
0
LWPOLYLINE
5
286
100
AcDbEntity
8
0
100
AcDbPolyline
90
4
70
1
43
0.0
10
602.80011590558206
20
335.78348916631006
42
-0.41421356237309503
10
602.87885606306236
20
335.70474900882976
42
-0.41421356237309503
10
602.80011590558206
20
335.62600885134947
42
-0.41421356237292856
10
602.72137574810176
20
335.70474900882976
42
-0.41421356237309503
0
LWPOLYLINE
5
287
100
AcDbEntity
8
0
100
AcDbPolyline
90
4
70
1
43
0.0
10
598.16034313896432
20
332.01834189342225
10
598.16034313896432
20
333.12857811389466
10
598.61309904447614
20
333.12857811389466
10
598.61309904447614
20
332.01834189342225
0
ARC
5
288
100
AcDbEntity
8
0
100
AcDbCircle
10
615.33690971248029
20
331.34994713303337
30
0
40
0.039370078740121668
210
0
220
0
230
1
100
AcDbArc
50
180
51
270.00000257605507
0
LWPOLYLINE
5
289
100
AcDbEntity
8
0
100
AcDbPolyline
90
11
70
1
43
0.0
10
615.90596469524314
20
332.17671932147567
10
615.73061057503207
20
332.17671931359251
42
-0.41421352925879712
10
615.69124049452205
20
332.21608938611155
10
615.69124035145205
20
333.12150613940491
10
616.12068887368946
20
333.12150614423155
10
616.12068887368946
20
331.27130151377537
42
-0.41421354920569292
10
616.0813187967193
20
331.23193143503528
10
616.05269684631503
20
331.23193143374851
42
-0.41421357554049726
10
616.01332676580489
20
331.27130151248866
10
616.01332676580489
20
331.70361150120999
10
615.90596465792032
20
331.70361149638336
0
LWPOLYLINE
5
290
100
AcDbEntity
8
0
100
AcDbPolyline
90
6
70
1
43
0.0
10
596.32623044065451
20
331.62777888471987
42
-0.30369697790646411
10
596.1096950075837
20
331.48289352615939
42
-0.30369697790646411
10
595.89315957451288
20
331.62777888471987
10
595.89315957451288
20
331.80651210460672
42
-0.30369697790646411
10
596.1096950075837
20
331.95139746316721
42
-0.30369697790645572
10
596.32623044065463
20
331.80651210460672
0
ARC
5
291
100
AcDbEntity
8
0
100
AcDbCircle
10
603.85627580575454
20
335.70426926271085
30
0
40
0.17716535433074346
210
0
220
0
230
1
100
AcDbArc
50
135.01090501918773
51
225.0109050191877
0
LWPOLYLINE
5
292
100
AcDbEntity
8
0
100
AcDbPolyline
90
4
70
1
43
0.0
10
596.01173870390642
20
339.17510017743615
42
-0.41421356237309503
10
596.09047886138683
20
339.25384033491645
42
-0.41421356237309503
10
596.16921901886712
20
339.17510017743615
42
-0.41421356237309503
10
596.09047886138683
20
339.0963600199558
42
-0.41421356237309503
0
LWPOLYLINE
5
293
100
AcDbEntity
8
0
100
AcDbPolyline
90
4
70
1
43
0.0
10
617.43390798285418
20
337.07877540751429
42
-0.41421356237309503
10
617.33154577812979
20
336.9764132027899
42
-0.41421356237309503
10
617.22918357340541
20
337.07877540751429
42
-0.41421356237309503
10
617.33154577812979
20
337.18113761223867
42
-0.41421356237296697
0
LWPOLYLINE
5
294
100
AcDbEntity
8
0
100
AcDbPolyline
90
4
70
1
43
0.0
10
593.00434113121923
20
342.28455647678055
42
-0.41421356237342799
10
593.08308128869965
20
342.20581631930031
42
-0.41421356237359452
10
593.00434113121923
20
342.12707616181996
42
-0.41421356237276202
10
592.92560097373894
20
342.20581631930031
42
-0.41421356237309503
0
ARC
5
295
100
AcDbEntity
8
0
100
AcDbCircle
10
626.21918409751402
20
334.41519196205132
30
0
40
0.011811023621990657
210
0
220
0
230
1
100
AcDbArc
50
123.55699603758252
51
179.99968627681048
0
LWPOLYLINE
5
296
100
AcDbEntity
8
0
100
AcDbPolyline
90
4
70
1
43
0.0
10
602.72138940895991
20
338.26519229795804
42
-0.41421356237309503
10
602.80012956644021
20
338.34393245543833
42
-0.41421356237309503
10
602.8788697239205
20
338.26519229795804
42
-0.41421356237309503
10
602.80012956644021
20
338.18645214047768
42
-0.41421356237276202
0
LWPOLYLINE
5
297
100
AcDbEntity
8
0
100
AcDbPolyline
90
4
70
1
43
0.0
10
596.50303980945228
20
340.09059027164801
42
-0.41421356237309503
10
596.42429965197186
20
340.01185011416766
42
-0.41421356237309503
10
596.34555949449157
20
340.09059027164801
42
-0.41421356237309503
10
596.42429965197186
20
340.16933042912837
42
-0.41421356237309503
0
LWPOLYLINE
5
298
100
AcDbEntity
8
0
100
AcDbPolyline
90
4
70
1
43
0.0
10
597.67648600097868
20
334.53494583041044
42
-0.41421356237292856
10
597.59774584349827
20
334.61368598789073
42
-0.41421356237309503
10
597.67648600097857
20
334.69242614537103
42
-0.41421356237309503
10
597.75522615845887
20
334.61368598789073
42
-0.41421356237309503
0
LWPOLYLINE
5
299
100
AcDbEntity
8
0
100
AcDbPolyline
90
4
70
1
43
0.0
10
600.23869884837472
20
335.78347637458216
42
-0.41421356237292856
10
600.31743900585502
20
335.70473621710187
42
-0.41421356237309503
10
600.23869884837472
20
335.62599605962151
42
-0.41421356237309503
10
600.15995869089443
20
335.70473621710187
42
-0.41421356237309503
0
ARC
5
300
100
AcDbEntity
8
0
100
AcDbCircle
10
621.47931360428254
20
332.04876296914938
30
0
40
0.24606299212601429
210
0
220
-0
230
1
100
AcDbArc
50
17.577451074807271
51
90
0
LWPOLYLINE
5
301
100
AcDbEntity
8
0
100
AcDbPolyline
90
4
70
1
43
0.0
10
589.41029774623507
20
335.69366555673281
42
-0.41421356237309503
10
589.1780142816682
20
335.92594902129974
42
-0.41421356237298218
10
589.41029774623507
20
336.15823248586673
42
-0.41421356237309503
10
589.64258121080195
20
335.92594902129974
42
-0.41421356237309503
0
LWPOLYLINE
5
302
100
AcDbEntity
8
0
100
AcDbPolyline
90
4
70
1
43
0.0
10
588.50478593521154
20
335.69366555137606
42
-0.41421356237309503
10
588.27250247064467
20
335.92594901594305
42
-0.41421356237315149
10
588.50478593521154
20
336.15823248050992
42
-0.41421356237309503
10
588.73706939977842
20
335.92594901594305
42
-0.41421356237309503
0
ARC
5
303
100
AcDbEntity
8
0
100
AcDbCircle
10
621.47931360428254
20
332.04876296915728
30
0
40
0.246062992126029
210
0
220
0
230
1
100
AcDbArc
50
270
51
342.42254892518014
0
LWPOLYLINE
5
304
100
AcDbEntity
8
0
100
AcDbPolyline
90
4
70
1
43
0.0
10
598.57311312691877
20
338.51737506793916
42
-0.41421356237309503
10
598.67547533164316
20
338.41501286321471
42
-0.41421356237309503
10
598.57311312691888
20
338.31265065849038
42
-0.41421356237296697
10
598.47075092219438
20
338.41501286321471
42
-0.41421356237309503
0
LWPOLYLINE
5
305
100
AcDbEntity
8
0
100
AcDbPolyline
90
4
70
1
43
0.0
10
617.22918357340541
20
338.41501284583637
42
-0.41421356237309503
10
617.33154577812979
20
338.5173750505607
42
-0.41421356237296697
10
617.43390798285418
20
338.41501284583637
42
-0.41421356237309503
10
617.33154577812979
20
338.31265064111193
42
-0.41421356237309503
0
LWPOLYLINE
5
306
100
AcDbEntity
8
0
100
AcDbPolyline
90
4
70
1
43
0.0
10
592.92558430749193
20
339.64536311985722
42
-0.41421356237309503
10
593.00432446497223
20
339.72410327733746
42
-0.41421356237309503
10
593.08306462245253
20
339.64536311985722
42
-0.41421356237259555
10
593.00432446497223
20
339.56662296237687
42
-0.41421356237309503
0
LWPOLYLINE
5
307
100
AcDbEntity
8
0
100
AcDbPolyline
90
4
70
1
43
0.0
10
626.00698725590848
20
330.79245823387816
42
-0.41421356237309503
10
626.0896644212628
20
330.7097810685238
42
-0.41421356237293649
10
626.00698725590848
20
330.62710390316954
42
-0.41421356237293649
10
625.92431009055417
20
330.7097810685238
42
-0.41421356237309503
0
LWPOLYLINE
5
308
100
AcDbEntity
8
0
100
AcDbPolyline
90
4
70
1
43
0.0
10
599.42731310981242
20
333.60262798624177
42
-0.41421356237286927
10
599.65959657437929
20
333.37034452167484
42
-0.41421356237309503
10
599.42731310981242
20
333.1380610571079
42
-0.41421356237309503
10
599.19502964524543
20
333.37034452167484
42
-0.41421356237309503
0
LINE
5
309
100
AcDbEntity
8
0
100
AcDbLine
10
596.49170395159001
20
339.77012667713001
30
0
11
596.65512292543542
21
339.93360548928712
31
0
0
LWPOLYLINE
5
310
100
AcDbEntity
8
0
100
AcDbPolyline
90
6
70
1
43
0.0
10
597.11396736510426
20
331.62605986413371
42
-0.30369697790646411
10
596.89743193203333
20
331.48117450557322
42
-0.30369697790646411
10
596.68089649896251
20
331.62605986413371
10
596.68089649896262
20
331.80479308402056
42
-0.30369697790635136
10
596.89743193203333
20
331.94967844258116
42
-0.30369697790650396
10
597.11396736510426
20
331.80479308402056
0
LWPOLYLINE
5
311
100
AcDbEntity
8
0
100
AcDbPolyline
90
4
70
1
43
0.0
10
601.68185018736312
20
331.86564745845556
42
-0.41421356237318385
10
601.82948798263885
20
331.71800966317994
42
-0.41421356237309503
10
601.68185018736324
20
331.57037186790433
42
-0.41421356237309503
10
601.53421239208762
20
331.71800966317994
42
-0.41421356237309503
0
ARC
5
312
100
AcDbEntity
8
0
100
AcDbCircle
10
626.21918409751413
20
334.41519196205132
30
0
40
0.011811023622124038
210
0
220
0
230
1
100
AcDbArc
50
179.99968627681048
51
236.44237651396793
0
LWPOLYLINE
5
313
100
AcDbEntity
8
0
100
AcDbPolyline
90
4
70
1
43
0.0
10
603.77706489792456
20
338.26518941654496
42
-0.41421356237309503
10
603.85580505540474
20
338.3439295740252
42
-0.41421356237309503
10
603.93454521288515
20
338.26518941654496
42
-0.41421356237309503
10
603.85580505540474
20
338.1864492590646
42
-0.41421356237309503
0
LINE
5
314
100
AcDbEntity
8
0
100
AcDbLine
10
621.2447393935181
20
332.1230726975719
30
0
11
621.2447393935181
21
331.9744532407268
31
0
0
LWPOLYLINE
5
315
100
AcDbEntity
8
0
100
AcDbPolyline
90
4
70
1
43
0.0
10
598.09829385958085
20
334.53494583041032
42
-0.41421356237276202
10
598.01955370210055
20
334.61368598789079
42
-0.41421356237309503
10
598.09829385958085
20
334.69242614537109
42
-0.41421356237309503
10
598.17703401706115
20
334.61368598789079
42
-0.41421356237309503
0
ARC
5
316
100
AcDbEntity
8
0
100
AcDbCircle
10
604.17282052070937
20
335.71464646908822
30
0
40
0.039370078740138988
210
0
220
-0
230
1
100
AcDbArc
50
52.815466497869721
51
135.01048793470468
0
LWPOLYLINE
5
317
100
AcDbEntity
8
0
100
AcDbPolyline
90
4
70
1
43
0.0
10
608.78777687021818
20
332.0487629587966
42
-0.41421356237309503
10
608.52202883872201
20
331.78301492730054
42
-0.41421356237309503
10
608.25628080722595
20
332.0487629587966
42
-0.41421356237309503
10
608.52202883872201
20
332.31451099029266
42
-0.41421356237309503
0
LINE
5
318
100
AcDbEntity
8
0
100
AcDbLine
10
603.31482965204793
20
329.48083716873191
30
0
11
602.55233127039673
21
330.28270562912326
31
0
0
LWPOLYLINE
5
319
100
AcDbEntity
8
0
100
AcDbPolyline
90
4
70
1
43
0.0
10
606.49598828890237
20
346.03337308361569
42
-0.41421356237342799
10
606.41724813142196
20
345.95463292613533
42
-0.41421356237276202
10
606.33850797394155
20
346.03337308361569
42
-0.41421356237309503
10
606.41724813142196
20
346.11211324109593
42
-0.41421356237342799
0
LWPOLYLINE
5
320
100
AcDbEntity
8
0
100
AcDbPolyline
90
4
70
1
43
0.0
10
592.72992175787908
20
340.92559110250784
42
-0.41421356237309503
10
594.28503986811529
20
342.48070921274399
42
-0.41421356237309503
10
595.84015797835139
20
340.92559110250784
42
-0.41421356237309503
10
594.28503986811529
20
339.37047299227163
42
-0.41421356237309503
0
LINE
5
321
100
AcDbEntity
8
0
100
AcDbLine
10
599.32841769184131
20
347.72977095675026
30
0
11
603.27749997277795
21
347.72977094491216
31
0
0
ARC
5
322
100
AcDbEntity
8
0
100
AcDbCircle
10
596.62727898037542
20
339.96143924260031
30
0
40
0.039370078740169387
210
0
220
0
230
1
100
AcDbArc
50
-44.989512065178324
51
37.205112801854476
0
LWPOLYLINE
5
323
100
AcDbEntity
8
0
100
AcDbPolyline
90
4
70
1
43
0.0
10
616.66340278493703
20
338.2390201109273
42
-0.41421356237309503
10
617.155528769189
20
337.74689412667533
42
-0.41421356237309503
10
616.66340278493703
20
337.25476814242336
42
-0.41421356237309503
10
616.17127680068506
20
337.74689412667533
42
-0.41421356237309503
0
LWPOLYLINE
5
324
100
AcDbEntity
8
0
100
AcDbPolyline
90
4
70
1
43
0.0
10
626.00698725590848
20
334.69242614537109
42
-0.41421356237309503
10
626.08572741338878
20
334.61368598789079
42
-0.41421356237309503
10
626.00698725590848
20
334.53494583041044
42
-0.41421356237309503
10
625.9282470984283
20
334.61368598789079
42
-0.41421356237309503
0
ARC
5
325
100
AcDbEntity
8
0
100
AcDbCircle
10
621.47931360428254
20
332.04876296914938
30
0
40
0.24606299212598423
210
0
220
-0
230
1
100
AcDbArc
50
90
51
162.42254892519276
0
LINE
5
326
100
AcDbEntity
8
0
100
AcDbLine
10
606.5483728512819
20
346.68261426190048
30
0
11
606.5483728512819
21
347.11568512804223
31
0
0
ARC
5
327
100
AcDbEntity
8
0
100
AcDbCircle
10
603.86653737501274
20
336.02081800557556
30
0
40
0.039370078740201028
210
0
220
0
230
1
100
AcDbArc
50
-44.989512065119854
51
37.20541581945578
0
LWPOLYLINE
5
328
100
AcDbEntity
8
0
100
AcDbPolyline
90
4
70
1
43
0.0
10
624.05992855596651
20
332.5389212078793
42
-0.4142135623729471
10
623.97134587880112
20
332.62750388504458
42
-0.41421356237324303
10
624.05992855596639
20
332.71608656221002
42
-0.41421356237324303
10
624.14851123313179
20
332.62750388504458
42
-0.41421356237309503
0
LWPOLYLINE
5
329
100
AcDbEntity
8
0
100
AcDbPolyline
90
4
70
1
43
0.0
10
592.62474177842898
20
339.25381849699863
42
-0.41421356237309503
10
592.70348193590928
20
339.17507833951828
42
-0.41421356237309503
10
592.6247417784291
20
339.09633818203804
42
-0.41421356237292856
10
592.54600162094869
20
339.17507833951828
42
-0.41421356237309503
0
LINE
5
330
100
AcDbEntity
8
0
100
AcDbLine
10
603.73097714118001
20
335.82952024047529
30
0
11
603.89439611502542
21
335.9929990526324
31
0
0
ARC
5
331
100
AcDbEntity
8
0
100
AcDbCircle
10
615.36553166288456
20
331.34994713432019
30
0
40
0.039370078740211228
210
0
220
0
230
1
100
AcDbArc
50
270.00000257588965
51
360
0
ARC
5
332
100
AcDbEntity
8
0
100
AcDbCircle
10
596.61700261616454
20
339.64487569936557
30
0
40
0.17716535433074346
210
0
220
0
230
1
100
AcDbArc
50
135.01090501918773
51
225.01090501916173
0
LWPOLYLINE
5
333
100
AcDbEntity
8
0
100
AcDbPolyline
90
4
70
1
43
0.0
10
588.50933509344668
20
337.22396053141438
42
-0.41421356237309503
10
587.39250754544321
20
338.34078807941785
42
-0.41421356237309503
10
588.50933509344657
20
339.45761562742138
42
-0.4142135623731068
10
589.62616264145015
20
338.34078807941785
42
-0.41421356237309503
0
ARC
5
334
100
AcDbEntity
8
0
100
AcDbCircle
10
596.61700261616454
20
339.64487569936557
30
0
40
0.17716535433074346
210
0
220
0
230
1
100
AcDbArc
50
225.01090501916173
51
315.0109050191877
0
LWPOLYLINE
5
335
100
AcDbEntity
8
0
100
AcDbPolyline
90
4
70
1
43
0.0
10
597.13446493580864
20
338.41501286321471
42
-0.41421356237309503
10
597.23682714053314
20
338.51737506793921
42
-0.41421356237283891
10
597.33918934525752
20
338.41501286321471
42
-0.41421356237296697
10
597.23682714053314
20
338.31265065849033
42
-0.41421356237309503
0
LWPOLYLINE
5
336
100
AcDbEntity
8
0
100
AcDbPolyline
90
4
70
1
43
0.0
10
625.48048566467878
20
344.31443609947155
42
-0.41421356237309503
10
625.55922582215908
20
344.23569594199131
42
-0.41421356237309503
10
625.48048566467878
20
344.15695578451096
42
-0.41421356237309503
10
625.40174550719837
20
344.23569594199131
42
-0.41421356237342799
0
LWPOLYLINE
5
337
100
AcDbEntity
8
0
100
AcDbPolyline
90
6
70
1
43
0.0
10
623.42410178431294
20
332.34797632598946
42
-0.41421356237309503
10
623.32567658746245
20
332.44640152283989
10
623.32567658746245
20
334.80860624724932
42
-0.41421356237309503
10
623.42410178431294
20
334.90703144409969
42
-0.41421356237309503
10
623.52252698116331
20
334.80860624724932
10
623.52252698116331
20
332.44640152283989
42
-0.41421356237309503
0
SPLINE
5
338
100
AcDbEntity
8
0
100
AcDbSpline
70
0
71
3
72
15
73
11
74
0
42
0.000000001
43
0.0000000001
44
0.0000000001
40
0
40
0
40
0
40
0
40
16.98343887071087
40
35.853742041514124
40
73.123849678033821
40
101.54932196433083
40
132.58042561947377
40
156.27904721985988
40
175.72385219782836
40
195.78342590117893
40
195.78342590117893
40
195.78342590117893
40
195.78342590117893
10
586.86872705769451
20
342.53601675608712
30
0
10
586.87796472383366
20
342.75925546552588
30
0
10
586.89746636312714
20
343.23053476077507
30
0
10
587.17743516370047
20
344.16196841734092
30
0
10
587.88584174516109
20
345.0606211323003
30
0
10
588.91138587140699
20
345.81554928929273
30
0
10
589.88862933681162
20
346.31185956547586
30
0
10
590.80059031192695
20
346.65435048937314
30
0
10
591.5949415926159
20
346.89503475993672
30
0
10
592.09929122852668
20
347.01534523016539
30
0
10
592.35555873174678
20
347.07577936515935
30
0
0
LWPOLYLINE
5
339
100
AcDbEntity
8
0
100
AcDbPolyline
90
4
70
1
43
0.0
10
624.05992855596639
20
334.71608656220997
42
-0.41421356237309503
10
624.1485112331319
20
334.62750388504458
42
-0.41421356237309503
10
624.05992855596639
20
334.53892120787924
42
-0.41421356237309503
10
623.971345878801
20
334.62750388504458
42
-0.41421356237309503
0
LWPOLYLINE
5
340
100
AcDbEntity
8
0
100
AcDbPolyline
90
4
70
1
43
0.0
10
615.15635836723152
20
331.16398711211934
42
-0.41421356237309503
10
615.06777569006624
20
331.07540443495401
42
-0.41421356237309503
10
614.97919301290096
20
331.16398711211934
42
-0.41421356237309503
10
615.06777569006624
20
331.25256978928473
42
-0.41421356237309503
0
LINE
5
341
100
AcDbEntity
8
0
100
AcDbLine
10
615.2502737506901
20
345.68860358689597
30
0
11
621.51011627037508
21
345.68860358689597
31
0
0
ARC
5
342
100
AcDbEntity
8
0
100
AcDbCircle
10
607.45703753471264
20
347.67071653394714
30
0
40
0.059055117911543852
210
0
220
-0
230
1
100
AcDbArc
50
89.999999807195707
51
151.92751309389882
0
LINE
5
343
100
AcDbEntity
8
0
100
AcDbLine
10
615.36553165392547
20
333.04286051886021
30
0
11
615.3369097035212
21
333.04286052014692
31
0
0
ARC
5
344
100
AcDbEntity
8
0
100
AcDbCircle
10
588.50478593521154
20
335.92594901594305
30
0
40
0.2322834645669864
210
0
220
0
230
1
100
AcDbArc
50
180
51
270
0
LWPOLYLINE
5
345
100
AcDbEntity
8
0
100
AcDbPolyline
90
4
70
1
43
0.0
10
587.90606806220865
20
336.62786233786505
42
-0.41421356237272089
10
587.97614680236609
20
336.5577835977075
42
-0.41421356237309503
10
587.90606806220865
20
336.48770485755006
42
-0.41421356237346918
10
587.8359893220512
20
336.5577835977075
42
-0.41421356237309503
0
LWPOLYLINE
5
346
100
AcDbEntity
8
0
100
AcDbPolyline
90
4
70
1
43
0.0
10
598.39709611797787
20
337.74689414405373
42
-0.4142135623730151
10
597.9049701337259
20
337.25476815980176
42
-0.41421356237309503
10
597.41284414947393
20
337.74689414405373
42
-0.41421356237309503
10
597.9049701337259
20
338.2390201283057
42
-0.41421356237309503
0
ARC
5
347
100
AcDbEntity
8
0
100
AcDbCircle
10
588.50478593521154
20
335.92594901594305
30
0
40
0.23228346456689689
210
0
220
-0
230
1
100
AcDbArc
50
90
51
180
0
LWPOLYLINE
5
348
100
AcDbEntity
8
0
100
AcDbPolyline
90
4
70
1
43
0.0
10
600.23871551462184
20
338.18644925906466
42
-0.41421356237326151
10
600.15997535714143
20
338.26518941654496
42
-0.41421356237309503
10
600.23871551462173
20
338.34392957402525
42
-0.41421356237309503
10
600.31745567210203
20
338.26518941654496
42
-0.41421356237309503
0
LINE
5
349
100
AcDbEntity
8
0
100
AcDbLine
10
603.98157264673068
20
335.57901646068018
30
0
11
604.14499174612422
21
335.74249539843134
31
0
0
ARC
5
350
100
AcDbEntity
8
0
100
AcDbCircle
10
621.51011627037508
20
345.64923350815582
30
0
40
0.039370078740121668
210
0
220
0
230
1
100
AcDbArc
50
0
51
90
0
ARC
5
351
100
AcDbEntity
8
0
100
AcDbCircle
10
615.36553165215537
20
333.00349044012
30
0
40
0.039370078740211187
210
0
220
-0
230
1
100
AcDbArc
50
0
51
89.999997423944905
0
ARC
5
352
100
AcDbEntity
8
0
100
AcDbCircle
10
621.51011627037508
20
342.42088705146284
30
0
40
0.039370078740121668
210
0
220
0
230
1
100
AcDbArc
50
-90
51
0
0
LWPOLYLINE
5
353
100
AcDbEntity
8
0
100
AcDbPolyline
90
4
70
1
43
0.0
10
596.28505199725885
20
335.33549257597952
42
-0.41421356237309503
10
596.35513073741629
20
335.26541383582202
42
-0.41421356237309503
10
596.28505199725885
20
335.19533509566457
42
-0.41421356237309503
10
596.21497325710129
20
335.26541383582202
42
-0.41421356237309503
0
ARC
5
354
100
AcDbEntity
8
0
100
AcDbCircle
10
597.89723051836177
20
340.92565249281472
30
0
40
1.5551469419672146
210
0
220
0
230
1
100
AcDbArc
50
153.60662119007708
51
217.21140122547359
0
LINE
5
355
100
AcDbEntity
8
0
100
AcDbLine
10
607.43874976899099
20
333.25284597847826
30
0
11
613.73934815825112
21
333.25284658481689
31
0
0
ARC
5
356
100
AcDbEntity
8
0
100
AcDbCircle
10
607.33892729869069
20
347.67071653374813
30
0
40
0.059055118110566907
210
0
220
-0
230
1
100
AcDbArc
50
28.072487008345952
51
90.000002512191443
0
ARC
5
357
100
AcDbEntity
8
0
100
AcDbCircle
10
613.8363875642666
20
337.68783700677346
30
0
40
0.059055118110244324
210
0
220
0
230
1
100
AcDbArc
50
123.55730976190131
51
180
0
LINE
5
358
100
AcDbEntity
8
0
100
AcDbLine
10
615.40490173641308
20
331.34994713432013
30
0
11
615.40490173641308
21
333.00349044012
31
0
0
ARC
5
359
100
AcDbEntity
8
0
100
AcDbCircle
10
626.1800116871276
20
334.47424729465149
30
0
40
0.059055118110113915
210
0
220
0
230
1
100
AcDbArc
50
303.55699603801162
51
359.99968627681045
0
ARC
5
360
100
AcDbEntity
8
0
100
AcDbCircle
10
613.8363875642666
20
337.80594724299402
30
0
40
0.059055118110272024
210
0
220
0
230
1
100
AcDbArc
50
180
51
236.44269023809872
0
ARC
5
361
100
AcDbEntity
8
0
100
AcDbCircle
10
607.43874976899087
20
346.89128234151093
30
0
40
0.039370078740121668
210
0
220
-0
230
1
100
AcDbArc
50
89.999999999834557
51
180
0
LINE
5
362
100
AcDbEntity
8
0
100
AcDbLine
10
604.11902643074416
20
333.81625995511376
30
0
11
604.11902643074416
21
331.06035444330274
31
0
0
LINE
5
363
100
AcDbEntity
8
0
100
AcDbLine
10
615.29753962852851
20
333.00349044140677
30
0
11
615.29753962852851
21
331.34994713303342
31
0
0
ARC
5
364
100
AcDbEntity
8
0
100
AcDbCircle
10
588.50478593521154
20
335.92594901594305
30
0
40
0.23228346456689689
210
0
220
0
230
1
100
AcDbArc
50
-90
51
0
0
ARC
5
365
100
AcDbEntity
8
0
100
AcDbCircle
10
602.0055200192287
20
329.59690493065443
30
0
40
0.87711181865502019
210
0
220
-0
230
1
100
AcDbArc
50
51.433502710253656
51
90.65100843503086
0
LINE
5
366
100
AcDbEntity
8
0
100
AcDbLine
10
615.2502737506901
20
342.38151697272275
30
0
11
621.51011627037508
21
342.38151697272275
31
0
0
ARC
5
367
100
AcDbEntity
8
0
100
AcDbCircle
10
626.18001104041309
20
334.35613705843286
30
0
40
0.059055118110262123
210
0
220
0
230
1
100
AcDbArc
50
-0.00031372318952718704
51
56.44237651415223
0
LINE
5
368
100
AcDbEntity
8
0
100
AcDbLine
10
610.55564677717859
20
330.28270562428537
30
0
11
609.79314840036523
21
329.48083716873191
31
0
0
ARC
5
369
100
AcDbEntity
8
0
100
AcDbCircle
10
605.1365037923008
20
336.98496419975254
30
0
40
1.5551181102362346
210
0
220
0
230
1
100
AcDbArc
50
131.10792848914565
51
217.20541581952597
0
ARC
5
370
100
AcDbEntity
8
0
100
AcDbCircle
10
626.17999010685242
20
330.53301522671501
30
0
40
0.059055118110048231
210
0
220
0
230
1
100
AcDbArc
50
269.99999994440884
51
359.99968627681045
0
ARC
5
371
100
AcDbEntity
8
0
100
AcDbCircle
10
611.10245803318458
20
329.59690493065432
30
0
40
0.87711181865516774
210
0
220
-0
230
1
100
AcDbArc
50
89.348991564969239
51
128.56649728974986
0
LINE
5
372
100
AcDbEntity
8
0
100
AcDbLine
10
615.2502737506901
20
345.64923350815582
30
0
11
621.51011627037508
21
345.64923350815582
31
0
0
LINE
5
373
100
AcDbEntity
8
0
100
AcDbLine
10
621.54948634911523
20
345.64923350815582
30
0
11
621.54948634911523
21
342.42088705146284
31
0
0
LINE
5
374
100
AcDbEntity
8
0
100
AcDbLine
10
626.23906615852241
20
334.35613673507572
30
0
11
626.23904522496161
21
330.53301490335798
31
0
0
LWPOLYLINE
5
375
100
AcDbEntity
8
0
100
AcDbPolyline
90
4
70
1
43
0.0
10
591.45563179455303
20
333.12857811389466
10
591.45563179455303
20
332.01834189342225
10
591.00287588904121
20
332.01834189342225
10
591.00287588904121
20
333.12857811389466
0
LWPOLYLINE
5
376
100
AcDbEntity
8
0
100
AcDbPolyline
90
4
70
1
43
0.0
10
590.8690176213247
20
333.12857811389466
10
590.8690176213247
20
332.01834189342225
10
590.41626171581288
20
332.01834189342225
10
590.41626171581288
20
333.12857811389466
0
ARC
5
377
100
AcDbEntity
8
0
100
AcDbCircle
10
586.88860709181813
20
334.41540713799509
30
0
40
0.011811023622076974
210
0
220
0
230
1
100
AcDbArc
50
-56.43773953231635
51
0
0
LWPOLYLINE
5
378
100
AcDbEntity
8
0
100
AcDbPolyline
90
4
70
1
43
0.0
10
587.02225063902449
20
334.61368598789079
42
-0.41421356237309503
10
587.10099079650468
20
334.69242614537109
42
-0.41421356237309503
10
587.17973095398497
20
334.61368598789079
42
-0.41421356237309503
10
587.10099079650468
20
334.53494583041044
42
-0.41421356237309503
0
ARC
5
379
100
AcDbEntity
8
0
100
AcDbCircle
10
605.13650379230091
20
336.98496419975248
30
0
40
1.555118110236261
210
0
220
-0
230
1
100
AcDbArc
50
45.010441158769325
51
131.10792848914744
0
ARC
5
380
100
AcDbEntity
8
0
100
AcDbCircle
10
586.92767847476739
20
330.53301526489037
30
0
40
0.059055118110003108
210
0
220
0
230
1
100
AcDbArc
50
179.99823223676984
51
224.99911609059677
0
LINE
5
381
100
AcDbEntity
8
0
100
AcDbLine
10
588.53592803744016
20
332.48844429298947
30
0
11
588.82523784957982
21
332.19913448084969
31
0
0
ARC
5
382
100
AcDbEntity
8
0
100
AcDbCircle
10
586.88860709181824
20
334.41540713799509
30
0
40
0.011811023622036501
210
0
220
0
230
1
100
AcDbArc
50
0
51
56.437739532775907
0
ARC
5
383
100
AcDbEntity
8
0
100
AcDbCircle
10
605.13653281649954
20
340.92559110250789
30
0
40
1.5551181102361753
210
0
220
0
230
1
100
AcDbArc
50
232.81546649800876
51
318.91295382839309
0
LINE
5
384
100
AcDbEntity
8
0
100
AcDbLine
10
604.46175867805357
20
346.48576386819968
30
0
11
606.35152245758104
21
346.48576386819968
31
0
0
ARC
5
385
100
AcDbEntity
8
0
100
AcDbCircle
10
605.13653281649954
20
344.75314498541007
30
0
40
1.5551181102360869
210
0
220
0
230
1
100
AcDbArc
50
232.81546649800501
51
318.91295382839508
0
LWPOLYLINE
5
386
100
AcDbEntity
8
0
100
AcDbPolyline
90
4
70
1
43
0.0
10
593.03234499032965
20
336.15823248318833
42
-0.41421356237309503
10
593.26462845489664
20
335.9259490186214
42
-0.41421356237309503
10
593.03234499032965
20
335.69366555405441
42
-0.41421356237309503
10
592.80006152576277
20
335.9259490186214
42
-0.41421356237309503
0
LWPOLYLINE
5
387
100
AcDbEntity
8
0
100
AcDbPolyline
90
4
70
1
43
0.0
10
591.95557928130597
20
337.35047020744554
42
-0.41421356237290746
10
591.88569177022737
20
337.42035771852409
42
-0.41421356237328266
10
591.95557928130586
20
337.49024522960275
42
-0.41421356237328266
10
592.02546679238446
20
337.42035771852409
42
-0.41421356237309503
0
LWPOLYLINE
5
388
100
AcDbEntity
8
0
100
AcDbPolyline
90
4
70
1
43
0.0
10
592.126833179306
20
335.69366555765697
42
-0.41421356237309503
10
591.89454971473913
20
335.92594902222385
42
-0.41421356237309503
10
592.126833179306
20
336.15823248679084
42
-0.41421356237309503
10
592.35911664387299
20
335.92594902222385
42
-0.41421356237309503
0
LWPOLYLINE
5
389
100
AcDbEntity
8
0
100
AcDbPolyline
90
4
70
1
43
0.0
10
593.93785680135329
20
335.69366555405441
42
-0.41421356237309503
10
593.7055733367863
20
335.9259490186214
42
-0.4142135623732644
10
593.93785680135329
20
336.15823248318833
42
-0.41421356237309503
10
594.17014026592017
20
335.9259490186214
42
-0.41421356237298218
0
ARC
5
390
100
AcDbEntity
8
0
100
AcDbCircle
10
605.13653281649954
20
344.75314498541002
30
0
40
1.5551181102363558
210
0
220
-0
230
1
100
AcDbArc
50
45.010441158778207
51
131.10792848914289
0
LWPOLYLINE
5
391
100
AcDbEntity
8
0
100
AcDbPolyline
90
4
70
1
43
0.0
10
592.2294322246604
20
333.13954026199343
42
-0.41421356237309503
10
591.99714876009352
20
333.37182372656036
42
-0.41421356237309503
10
592.2294322246604
20
333.60410719112724
42
-0.41421356237309503
10
592.46171568922739
20
333.37182372656036
42
-0.41421356237309503
0
LINE
5
392
100
AcDbEntity
8
0
100
AcDbLine
10
609.23637140730489
20
329.25021258698899
30
0
11
603.87160664510827
21
329.25021258698899
31
0
0
LWPOLYLINE
5
393
100
AcDbEntity
8
0
100
AcDbPolyline
90
4
70
1
43
0.0
10
595.37952243452332
20
333.60416080884119
42
-0.41421356237292573
10
595.61180589909031
20
333.37187734427425
42
-0.41421356237309503
10
595.37952243452344
20
333.13959387970726
42
-0.41421356237309503
10
595.14723896995645
20
333.37187734427425
42
-0.4142135623732644
0
LWPOLYLINE
5
394
100
AcDbEntity
8
0
100
AcDbPolyline
90
4
70
1
43
0.0
10
594.59188192505042
20
333.13953033010876
42
-0.41421356237309503
10
594.35959846048354
20
333.37181379467575
42
-0.41421356237315149
10
594.59188192505042
20
333.60409725924268
42
-0.41421356237309503
10
594.82416538961741
20
333.37181379467575
42
-0.41421356237309503
0
LWPOLYLINE
5
395
100
AcDbEntity
8
0
100
AcDbPolyline
90
4
70
1
43
0.0
10
593.57189894836506
20
333.37163467447277
42
-0.41421356237309503
10
593.80418241293205
20
333.60391813903965
42
-0.41421356237309503
10
594.03646587749893
20
333.37163467447277
42
-0.41421356237309503
10
593.80418241293205
20
333.13935120990578
42
-0.41421356237309503
0
LWPOLYLINE
5
396
100
AcDbEntity
8
0
100
AcDbPolyline
90
4
70
1
43
0.0
10
592.78326277531744
20
333.37145026326402
42
-0.41421356237309503
10
593.01554623988443
20
333.6037337278309
42
-0.41421356237309503
10
593.24782970445142
20
333.37145026326402
42
-0.41421356237309503
10
593.01554623988443
20
333.13916679869703
42
-0.41421356237309503
0
ARC
5
397
100
AcDbEntity
8
0
100
AcDbCircle
10
588.91025345314733
20
332.57345989655698
30
0
40
0.38385826771652426
210
0
220
0
230
1
100
AcDbArc
50
134.99999999998801
51
192.79577249603321
0
LWPOLYLINE
5
398
100
AcDbEntity
8
0
100
AcDbPolyline
90
4
70
1
43
0.0
10
587.10099079650468
20
330.79245823387828
42
-0.41421356237325357
10
587.18366796185899
20
330.70978106852385
42
-0.41421356237309503
10
587.10099079650468
20
330.62710390316954
42
-0.41421356237309503
10
587.01831363115036
20
330.70978106852385
42
-0.41421356237309503
0
ARC
5
399
100
AcDbEntity
8
0
100
AcDbCircle
10
588.91025345314733
20
332.57345989655693
30
0
40
0.38385826771656789
210
0
220
-0
230
1
100
AcDbArc
50
77.204227503970543
51
134.99999999998201
0
ARC
5
400
100
AcDbEntity
8
0
100
AcDbCircle
10
588.91025345314733
20
332.57345989655693
30
0
40
0.38385826771651893
210
0
220
0
230
1
100
AcDbArc
50
257.20422750259371
51
314.99999999862609
0
ARC
5
401
100
AcDbEntity
8
0
100
AcDbCircle
10
588.91025345314733
20
332.57345989655693
30
0
40
0.3838582677165559
210
0
220
0
230
1
100
AcDbArc
50
-45.000000001373898
51
12.795772494638005
0
ARC
5
402
100
AcDbEntity
8
0
100
AcDbCircle
10
586.92777370515785
20
334.35637232097707
30
0
40
0.059034817616890035
210
0
220
0
230
1
100
AcDbArc
50
123.56226046748677
51
180.51833177905982
0
ARC
5
403
100
AcDbEntity
8
0
100
AcDbCircle
10
586.92767847476728
20
330.53301526489025
30
0
40
0.059055118109817104
210
0
220
0
230
1
100
AcDbArc
50
224.99911609059677
51
269.99999994440884
0
ARC
5
404
100
AcDbEntity
8
0
100
AcDbCircle
10
586.92777370515785
20
334.47444195501311
30
0
40
0.05903481761688633
210
0
220
0
230
1
100
AcDbArc
50
179.48166822099574
51
236.43773953251323
0
LINE
5
405
100
AcDbEntity
8
0
100
AcDbLine
10
586.86862335668548
20
330.53301708693493
30
0
11
586.86874130325589
21
334.35583826410726
31
0
0
LINE
5
406
100
AcDbEntity
8
0
100
AcDbLine
10
589.28457886885462
20
332.65847550012444
30
0
11
588.99526905671485
21
332.94778531226422
31
0
0
SPLINE
5
407
100
AcDbEntity
8
0
100
AcDbSpline
70
0
71
3
72
14
73
10
74
0
42
0.000000001
43
0.0000000001
44
0.0000000001
40
0
40
0
40
0
40
0
40
94.074213406790932
40
190.22246044394524
40
260.82798094401551
40
305.05722477397285
40
337.93346459869917
40
356.48090088397203
40
372.11344451039531
40
372.11344451039531
40
372.11344451039531
40
372.11344451039531
10
613.8397851758632
20
347.72264885663355
30
0
10
615.07453590401235
20
347.6922980385142
30
0
10
617.57112441420952
20
347.62855689589219
30
0
10
620.97105106742538
20
347.13222049347331
30
0
10
623.61557937425562
20
346.22236881316587
30
0
10
625.22665893467843
20
345.09614788085059
30
0
10
625.97655240342181
20
344.04987980627948
30
0
10
626.21327334643104
20
343.19058928153999
30
0
10
626.23100239668952
20
342.74160517744303
30
0
10
626.23911094889866
20
342.53625796503979
30
0
0
LWPOLYLINE
5
408
100
AcDbEntity
8
0
100
AcDbPolyline
90
4
70
1
43
0.0
10
590.54809302182571
20
335.9259490186214
42
-0.41421356237309503
10
590.31580955725872
20
335.69366555405452
42
-0.41421356237309503
10
590.08352609269184
20
335.9259490186214
42
-0.41421356237315149
10
590.31580955725872
20
336.15823248318833
42
-0.41421356237309503
0
ARC
5
409
100
AcDbEntity
8
0
100
AcDbCircle
10
605.13650379230091
20
336.98496419975265
30
0
40
1.5551181102363907
210
0
220
0
230
1
100
AcDbArc
50
232.81546649800924
51
318.91295382838132
0
LWPOLYLINE
5
410
100
AcDbEntity
8
0
100
AcDbPolyline
90
4
70
1
43
0.0
10
591.22132136828236
20
335.69366555673281
42
-0.41421356237309503
10
590.98903790371548
20
335.92594902129974
42
-0.41421356237309503
10
591.22132136828236
20
336.15823248586662
42
-0.41421356237309503
10
591.45360483284924
20
335.92594902129974
42
-0.41421356237309503
0
LINE
5
411
100
AcDbEntity
8
0
100
AcDbLine
10
586.86874130325589
20
334.47497601188286
30
0
11
586.8687270576944
21
342.53601675608718
31
0
0
LINE
5
412
100
AcDbEntity
8
0
100
AcDbLine
10
626.17999010679512
20
330.47396010860496
30
0
11
611.11242377145379
21
330.47396012325913
31
0
0
LWPOLYLINE
5
413
100
AcDbEntity
8
0
100
AcDbPolyline
90
4
70
1
43
0.0
10
589.91538606732263
20
338.34790061175647
42
-0.41421356237309503
10
591.03221361532599
20
339.46472815975994
42
-0.41421356237309503
10
592.14904116332946
20
338.34790061175647
42
-0.41421356237309503
10
591.03221361532599
20
337.23107306375306
42
-0.41421356237309503
0
LINE
5
414
100
AcDbEntity
8
0
100
AcDbLine
10
603.39559454100322
20
347.72977148314612
30
0
11
607.33892729610136
21
347.7297716518587
31
0
0
LWPOLYLINE
5
415
100
AcDbEntity
8
0
100
AcDbPolyline
90
4
70
1
43
0.0
10
616.3347400096103
20
334.61368598789079
42
-0.41421356237309503
10
616.41348016709048
20
334.69242614537103
42
-0.41421356237259555
10
616.49222032457089
20
334.61368598789079
42
-0.41421356237309503
10
616.4134801670906
20
334.53494583041044
42
-0.41421356237309503
0
LINE
5
416
100
AcDbEntity
8
0
100
AcDbLine
10
604.7095776118465
20
331.06035444330274
30
0
11
604.7095776118465
21
333.81625995511376
31
0
0
ARC
5
417
100
AcDbEntity
8
0
100
AcDbCircle
10
588.50478593521154
20
335.92594901594305
30
0
40
0.23228346456689689
210
0
220
0
230
1
100
AcDbArc
50
0
51
90
0
ARC
5
418
100
AcDbEntity
8
0
100
AcDbCircle
10
605.13653281649931
20
340.92559110250801
30
0
40
1.5551181102364462
210
0
220
0
230
1
100
AcDbArc
50
-41.087046171604577
51
45.010441158763399
0
LINE
5
419
100
AcDbEntity
8
0
100
AcDbLine
10
613.77733244615627
20
337.68783700677341
30
0
11
613.77871823124599
21
333.2922290755979
31
0
0
SPLINE
5
420
100
AcDbEntity
8
0
100
AcDbSpline
70
0
71
3
72
11
73
7
74
0
42
0.000000001
43
0.0000000001
44
0.0000000001
40
0
40
0
40
0
40
0
40
39.493341781749223
40
98.709185770871045
40
159.57806044535982
40
175.04390341281442
40
175.04390341281442
40
175.04390341281442
40
175.04390341281442
10
592.47583848013358
20
347.10225918445803
30
0
10
592.98463811475972
20
347.2022789335731
30
0
10
594.25657968625478
20
347.45062477065812
30
0
10
596.34673588828014
20
347.63296446173223
30
0
10
598.12405301067372
20
347.69916130684032
30
0
10
599.12551571705126
20
347.72461408150184
30
0
10
599.32841769184131
20
347.72977095675026
30
0
0
LINE
5
421
100
AcDbEntity
8
0
100
AcDbLine
10
607.39937969025073
20
333.29221605721847
30
0
11
607.39937969025073
21
346.89128234151087
31
0
0
LWPOLYLINE
5
422
100
AcDbEntity
8
0
100
AcDbPolyline
90
4
70
1
43
0.0
10
616.80914853640286
20
334.69242614537103
42
-0.41421356237309503
10
616.88788869388316
20
334.61368598789073
42
-0.41421356237309503
10
616.80914853640286
20
334.53494583041032
42
-0.41421356237259555
10
616.73040837892256
20
334.61368598789073
42
-0.41421356237276202
0
LWPOLYLINE
5
423
100
AcDbEntity
8
0
100
AcDbPolyline
90
4
70
1
43
0.0
10
590.10570756625407
20
337.48934322735772
42
-0.41421356237290746
10
590.17559507733256
20
337.41945571627923
42
-0.41421356237309503
10
590.10570756625407
20
337.34956820520068
42
-0.41421356237290746
10
590.03582005517558
20
337.41945571627923
42
-0.41421356237309503
0
LINE
5
424
100
AcDbEntity
8
0
100
AcDbLine
10
626.23911094889866
20
342.53625796503979
30
0
11
626.2390668052368
21
334.47424697129441
31
0
0
LINE
5
425
100
AcDbEntity
8
0
100
AcDbLine
10
601.99555427810219
20
330.47396013212591
30
0
11
586.92767847470998
21
330.47396014678037
31
0
0
LINE
5
426
100
AcDbEntity
8
0
100
AcDbLine
10
613.77733244615627
20
346.89128234151087
30
0
11
613.77733244615627
21
337.80594724299408
31
0
0
ARC
5
427
100
AcDbEntity
8
0
100
AcDbCircle
10
609.23637140730511
20
330.03761416179191
30
0
40
0.78740157480288098
210
0
220
0
230
1
100
AcDbArc
50
269.99999999998346
51
315.00000000000585
0
LINE
5
428
100
AcDbEntity
8
0
100
AcDbLine
10
615.21090367194995
20
345.64923350815582
30
0
11
615.21090367194995
21
342.42088705146284
31
0
0
LWPOLYLINE
5
429
100
AcDbEntity
8
0
100
AcDbPolyline
90
4
70
1
43
0.0
10
607.23709830104463
20
342.27462712513955
42
-0.41421356237359452
10
607.1583581435641
20
342.19588696765919
42
-0.41421356237276202
10
607.07961798608392
20
342.27462712513955
42
-0.41421356237259555
10
607.1583581435641
20
342.35336728261979
42
-0.41421356237342799
0
ARC
5
430
100
AcDbEntity
8
0
100
AcDbCircle
10
621.47931360428254
20
332.04876296915728
30
0
40
0.24606299212602781
210
0
220
0
230
1
100
AcDbArc
50
197.57745107481986
51
270
0
ARC
5
431
100
AcDbEntity
8
0
100
AcDbCircle
10
615.2502737506901
20
342.4208870514629
30
0
40
0.039370078740211187
210
0
220
0
230
1
100
AcDbArc
50
180
51
270
0
ARC
5
432
100
AcDbEntity
8
0
100
AcDbCircle
10
615.33690970175121
20
333.00349044140677
30
0
40
0.039370078740166466
210
0
220
-0
230
1
100
AcDbArc
50
89.999997424110347
51
180
0
ARC
5
433
100
AcDbEntity
8
0
100
AcDbCircle
10
603.87160664510816
20
330.03761416179196
30
0
40
0.78740157480299766
210
0
220
0
230
1
100
AcDbArc
50
224.99999999999125
51
270.00000000000824
0
ARC
5
434
100
AcDbEntity
8
0
100
AcDbCircle
10
607.43874976899099
20
333.29221605721847
30
0
40
0.039370078740211187
210
0
220
0
230
1
100
AcDbArc
50
180
51
270
0
ARC
5
435
100
AcDbEntity
8
0
100
AcDbCircle
10
615.2502737506901
20
345.64923350815582
30
0
40
0.039370078740166431
210
0
220
-0
230
1
100
AcDbArc
50
90
51
180
0
LINE
5
436
100
AcDbEntity
8
0
100
AcDbLine
10
621.71388781504697
20
331.9744532407268
30
0
11
621.71388781504697
21
332.1230726975719
31
0
0
ARC
5
437
100
AcDbEntity
8
0
100
AcDbCircle
10
603.85627580575454
20
335.70426926271085
30
0
40
0.1771653543307751
210
0
220
0
230
1
100
AcDbArc
50
225.0109050191877
51
315.01090501921374
0
LWPOLYLINE
5
438
100
AcDbEntity
8
0
100
AcDbPolyline
90
4
70
1
43
0.0
10
592.23067663406925
20
334.51132378262122
42
-0.41421356237309503
10
592.12831442934475
20
334.6136859873456
42
-0.41421356237309503
10
592.23067663406925
20
334.71604819206999
42
-0.41421356237309503
10
592.33303883879364
20
334.6136859873456
42
-0.41421356237309503
0
ARC
5
439
100
AcDbEntity
8
0
100
AcDbCircle
10
605.13653281649954
20
340.92559110250784
30
0
40
1.5551181102364193
210
0
220
-0
230
1
100
AcDbArc
50
45.010441158773759
51
131.10792848914289
0
LINE
5
440
100
AcDbEntity
8
0
100
AcDbLine
10
-43.74951599292713
20
52.430144588775356
30
0
11
-50.009358512612117
21
52.430144588775399
31
0
0
LWPOLYLINE
5
441
100
AcDbEntity
8
0
100
AcDbPolyline
90
4
70
1
43
0.0
10
-21.582306552681615
20
48.817664319448845
42
-0.41421356237309503
10
-21.503566395201279
20
48.896404476929177
42
-0.41421356237309503
10
-21.424826237720946
20
48.817664319448845
42
-0.41421356237309503
10
-21.503566395201279
20
48.738924161968512
42
-0.41421356237309503
0
LWPOLYLINE
5
442
100
AcDbEntity
8
0
100
AcDbPolyline
90
4
70
1
43
0.0
10
-42.517519570283064
20
47.340272583222692
42
-0.41421356237309503
10
-42.596259727763353
20
47.419012740702932
42
-0.41421356237309503
10
-42.517519570283064
20
47.49775289818318
42
-0.41421356237342799
10
-42.438779412802681
20
47.419012740702932
42
-0.41421356237342799
0
LWPOLYLINE
5
443
100
AcDbEntity
8
0
100
AcDbPolyline
90
4
70
1
43
0.0
10
-39.91154013610651
20
64.141250571714451
42
-0.41421356237309503
10
-39.828862970752162
20
64.223927737068834
42
-0.41421356237325357
10
-39.746185805397815
20
64.141250571714451
42
-0.41421356237309503
10
-39.828862970752162
20
64.058573406360097
42
-0.41421356237309503
0
LINE
5
444
100
AcDbEntity
8
0
100
AcDbLine
10
-27.801999496068486
20
55.080904963108239
30
0
11
-27.638580522223013
21
54.917426150951123
31
0
0
LWPOLYLINE
5
445
100
AcDbEntity
8
0
100
AcDbPolyline
90
4
70
1
43
0.0
10
-20.385667974712621
20
51.470973858181601
42
-0.41421356237309503
10
-20.455555485791205
20
51.401086347102975
42
-0.41421356237328266
10
-20.525442996869696
20
51.470973858181601
42
-0.41421356237253226
10
-20.455555485791205
20
51.540861369260135
42
-0.41421356237365781
0
ARC
5
446
100
AcDbEntity
8
0
100
AcDbCircle
10
-20.922379145520857
20
47.786866938665156
30
0
40
0.011811023621975466
210
0
220
-0
230
1
100
AcDbArc
50
40.33001085016565
51
98.719158684216893
0
LWPOLYLINE
5
447
100
AcDbEntity
8
0
100
AcDbPolyline
90
4
70
1
43
0.0
10
-24.841234519250843
20
50.097886654828059
42
-0.41421356237309503
10
-26.396352629487083
20
48.542768544591816
42
-0.41421356237309503
10
-27.95147073972332
20
50.097886654828059
42
-0.41421356237309503
10
-26.396352629487083
20
51.653004765064296
42
-0.41421356237309503
0
LWPOLYLINE
5
448
100
AcDbEntity
8
0
100
AcDbPolyline
90
4
70
1
43
0.0
10
-16.015228743965388
20
52.548510238561875
42
-0.41421356237309503
10
-16.085116255043971
20
52.478622727483291
42
-0.41421356237309503
10
-16.155003766122551
20
52.548510238561875
42
-0.41421356237309503
10
-16.085116255043971
20
52.618397749640408
42
-0.41421356237290746
0
ARC
5
449
100
AcDbEntity
8
0
100
AcDbCircle
10
-33.635746034538045
20
57.866067440485722
30
0
40
1.5551181102360707
210
0
220
0
230
1
100
AcDbArc
50
138.91295382838217
51
225.01044115877227
0
LWPOLYLINE
5
450
100
AcDbEntity
8
0
100
AcDbPolyline
90
4
70
1
43
0.0
10
-28.463538383518607
20
53.925453329458279
42
-0.41421356237307816
10
-30.018656493754712
20
52.370335219222085
42
-0.41421356237308665
10
-31.573774603991041
20
53.925453329458279
42
-0.41421356237311197
10
-30.018656493754712
20
55.480571439694565
42
-0.41421356237308665
0
LWPOLYLINE
5
451
100
AcDbEntity
8
0
100
AcDbPolyline
90
4
70
1
43
0.0
10
-18.674199377239592
20
52.548337555081822
42
-0.41421356237271989
10
-18.604311866161101
20
52.618225066160356
42
-0.41421356237365781
10
-18.534424355082475
20
52.548337555081822
42
-0.41421356237347023
10
-18.604311866161101
20
52.478450044003282
42
-0.41421356237253226
0
ARC
5
452
100
AcDbEntity
8
0
100
AcDbCircle
10
-26.396472760598748
20
53.92537914742352
30
0
40
1.555146941967346
210
0
220
0
230
1
100
AcDbArc
50
142.79228108389856
51
206.39706111929064
0
LWPOLYLINE
5
453
100
AcDbEntity
8
0
100
AcDbPolyline
90
4
70
1
43
0.0
10
-18.67475137287995
20
55.581812564185057
42
-0.41421356237309503
10
-18.604863861801412
20
55.651700075263683
42
-0.41421356237328266
10
-18.534976350722875
20
55.581812564185057
42
-0.41421356237309503
10
-18.604863861801412
20
55.511925053106481
42
-0.41421356237309503
0
LWPOLYLINE
5
454
100
AcDbEntity
8
0
100
AcDbPolyline
90
4
70
1
43
0.0
10
-27.677188163765919
20
52.566472282044543
42
-0.41421356237309503
10
-27.755928321246252
20
52.645212439524876
42
-0.41421356237309503
10
-27.677188163765919
20
52.723952597005166
42
-0.41421356237292856
10
-27.598448006285587
20
52.645212439524876
42
-0.41421356237309503
0
LWPOLYLINE
5
455
100
AcDbEntity
8
0
100
AcDbPolyline
90
4
70
1
43
0.0
10
-34.837707531121701
20
59.146282631408482
42
-0.41421356237292856
10
-34.916447688602034
20
59.06754247392815
42
-0.41421356237309503
10
-34.995187846082366
20
59.146282631408482
42
-0.41421356237309503
10
-34.916447688602034
20
59.225022788888722
42
-0.41421356237309503
0
LWPOLYLINE
5
456
100
AcDbEntity
8
0
100
AcDbPolyline
90
4
70
1
43
0.0
10
-42.517519944309804
20
52.655144672579077
42
-0.41421356237292856
10
-42.438779786829471
20
52.576404515098787
42
-0.41421356237309503
10
-42.517519944309804
20
52.497664357618454
42
-0.41421356237276202
10
-42.596260101790094
20
52.576404515098787
42
-0.41421356237309503
0
LWPOLYLINE
5
457
100
AcDbEntity
8
0
100
AcDbPolyline
90
4
70
1
43
0.0
10
-18.60364686013498
20
54.329190353082616
42
-0.41421356237309503
10
-18.67353437121356
20
54.3990778641612
42
-0.41421356237290746
10
-18.60364686013498
20
54.468965375239691
42
-0.41421356237309503
10
-18.533759349056396
20
54.3990778641612
42
-0.41421356237309503
0
LWPOLYLINE
5
458
100
AcDbEntity
8
0
100
AcDbPolyline
90
4
70
1
43
0.0
10
-21.424809571473979
20
51.378117518891877
42
-0.41421356237309503
10
-21.503549728954269
20
51.299377361411587
42
-0.41421356237292856
10
-21.582289886434602
20
51.378117518891877
42
-0.41421356237309503
10
-21.503549728954269
20
51.456857676372167
42
-0.41421356237326151
0
ARC
5
459
100
AcDbEntity
8
0
100
AcDbCircle
10
-33.635775058736421
20
50.09788665482801
30
0
40
1.5551181102361673
210
-0
220
0
230
1
100
AcDbArc
50
-48.892071510852794
51
37.205415819531403
0
LWPOLYLINE
5
460
100
AcDbEntity
8
0
100
AcDbPolyline
90
4
70
1
43
0.0
10
-18.674625479137475
20
51.47324802285857
42
-0.41421356237309503
10
-18.604737968058892
20
51.543135533937196
42
-0.41421356237328266
10
-18.534850456980312
20
51.47324802285857
42
-0.41421356237290746
10
-18.604737968058892
20
51.403360511779987
42
-0.41421356237309503
0
ARC
5
461
100
AcDbEntity
8
0
100
AcDbCircle
10
-42.280377881561563
20
47.152665853339805
30
0
40
0.0078740157481064985
210
0
220
-0
230
1
100
AcDbArc
50
86.5586389222657
51
148.71677835361032
0
LWPOLYLINE
5
462
100
AcDbEntity
8
0
100
AcDbPolyline
90
4
70
1
43
0.0
10
-27.677067944409547
20
48.738918399142243
42
-0.41421356237309503
10
-27.75580810188988
20
48.817658556622575
42
-0.41421356237309503
10
-27.677067944409547
20
48.896398714102908
42
-0.41421356237309503
10
-27.598327786929215
20
48.817658556622575
42
-0.41421356237309503
0
LWPOLYLINE
5
463
100
AcDbEntity
8
0
100
AcDbPolyline
90
4
70
1
43
0.0
10
-25.115637226344077
20
51.299374479998413
42
-0.41421356237309503
10
-25.194377383824367
20
51.378114637478745
42
-0.41421356237309503
10
-25.115637226344077
20
51.456854794959035
42
-0.41421356237292856
10
-25.036897068863745
20
51.378114637478745
42
-0.41421356237309503
0
LWPOLYLINE
5
464
100
AcDbEntity
8
0
100
AcDbPolyline
90
4
70
1
43
0.0
10
-42.596259727763396
20
57.299008252524132
42
-0.41421356237309503
10
-42.517519570283064
20
57.377748410004465
42
-0.41421356237309503
10
-42.438779412802639
20
57.299008252524132
42
-0.41421356237342799
10
-42.517519570283064
20
57.220268095043885
42
-0.41421356237309503
0
LWPOLYLINE
5
465
100
AcDbEntity
8
0
100
AcDbPolyline
90
4
70
1
43
0.0
10
-18.604845271722631
20
49.691922012259703
42
-0.41421356237365781
10
-18.534957760644005
20
49.622034501181169
42
-0.41421356237347023
10
-18.604845271722631
20
49.552146990102585
42
-0.41421356237309503
10
-18.674732782801215
20
49.622034501181169
42
-0.41421356237309503
0
LWPOLYLINE
5
466
100
AcDbEntity
8
0
100
AcDbPolyline
90
4
70
1
43
0.0
10
-18.409793203009993
20
53.4718900878228
42
-0.41421356237309503
10
-19.526620751013436
20
52.35506253981935
42
-0.41421356237308332
10
-20.643448299016924
20
53.4718900878228
42
-0.41421356237309503
10
-19.526620751013436
20
54.588717635826285
42
-0.41421356237309503
0
LINE
5
467
100
AcDbEntity
8
0
100
AcDbLine
10
-35.956279777148318
20
47.121259988379578
30
0
11
-42.219426853945123
21
47.121259988379578
31
0
0
ARC
5
468
100
AcDbEntity
8
0
100
AcDbCircle
10
-25.432788370177306
20
55.195779938114754
30
0
40
0.039370078740111662
210
0
220
0
230
1
100
AcDbArc
50
232.81717297860791
51
315.01048793492777
0
ARC
5
469
100
AcDbEntity
8
0
100
AcDbCircle
10
-26.396472760598837
20
53.925379147423428
30
0
40
1.5551469419672705
210
0
220
0
230
1
100
AcDbArc
50
206.39706111928905
51
270.00184115468721
0
LWPOLYLINE
5
470
100
AcDbEntity
8
0
100
AcDbPolyline
90
4
70
1
43
0.0
10
-28.134938251329054
20
55.675957459328224
42
-0.41421356237309503
10
-28.213678408809386
20
55.597217301847891
42
-0.41421356237309503
10
-28.292418566289719
20
55.675957459328224
42
-0.41421356237309503
10
-28.213678408809386
20
55.754697616808556
42
-0.41421356237309503
0
ARC
5
471
100
AcDbEntity
8
0
100
AcDbCircle
10
-27.360140946064153
20
55.195763558465366
30
0
40
0.039370078740169387
210
0
220
0
230
1
100
AcDbArc
50
224.98951206511251
51
307.18339414791421
0
LWPOLYLINE
5
472
100
AcDbEntity
8
0
100
AcDbPolyline
90
4
70
1
43
0.0
10
-42.596259727763396
20
49.281219229399717
42
-0.41421356237309503
10
-42.517519570283064
20
49.35995938688005
42
-0.41421356237309503
10
-42.438779412802731
20
49.281219229399717
42
-0.41421356237309503
10
-42.517519570283064
20
49.202479071919385
42
-0.41421356237276202
0
LWPOLYLINE
5
473
100
AcDbEntity
8
0
100
AcDbPolyline
90
4
70
1
43
0.0
10
-16.134362670611075
20
50.738022564542362
42
-0.41421356237309503
10
-16.055622513130789
20
50.65928240706203
42
-0.41421356237309503
10
-16.134362670611075
20
50.58054224958174
42
-0.41421356237292856
10
-16.213102828091408
20
50.65928240706203
42
-0.41421356237309503
0
LWPOLYLINE
5
474
100
AcDbEntity
8
0
100
AcDbPolyline
90
4
70
1
43
0.0
10
-16.085488402480728
20
54.328090536828924
42
-0.41421356237309503
10
-16.155375913559311
20
54.397978047907507
42
-0.41421356237309503
10
-16.085488402480728
20
54.467865558986091
42
-0.41421356237309503
10
-16.01560089140219
20
54.397978047907507
42
-0.41421356237328266
0
LINE
5
475
100
AcDbEntity
8
0
100
AcDbLine
10
-50.009358512612117
20
49.201798132082466
30
0
11
-50.009358512612117
21
52.430144588775399
31
0
0
LWPOLYLINE
5
476
100
AcDbEntity
8
0
100
AcDbPolyline
90
4
70
1
43
0.0
10
-20.729415533399258
20
47.974066928871991
42
-0.41421356237292856
10
-20.808155690879591
20
48.052807086352281
42
-0.41421356237309503
10
-20.729415533399258
20
48.131547243832657
42
-0.41421356237326151
10
-20.650675375918926
20
48.052807086352281
42
-0.41421356237292856
0
ARC
5
477
100
AcDbEntity
8
0
100
AcDbCircle
10
-21.008301516815823
20
47.823147290800826
30
0
40
0.081456965742099291
210
-0
220
0
230
1
100
AcDbArc
50
294.06874565329667
51
337.10830651750712
0
LWPOLYLINE
5
478
100
AcDbEntity
8
0
100
AcDbPolyline
90
4
70
1
43
0.0
10
-15.521492881263633
20
55.871590961047325
42
-0.41421356237309503
10
-15.600233038743921
20
55.792850803566992
42
-0.41421356237309503
10
-15.678973196224209
20
55.871590961047325
42
-0.41421356237309503
10
-15.600233038743921
20
55.950331118527657
42
-0.41421356237309503
0
LWPOLYLINE
5
479
100
AcDbEntity
8
0
100
AcDbPolyline
90
4
70
1
43
0.0
10
-21.044727239380798
20
47.966790975292618
42
-0.41421356237309503
10
-21.12346739686113
20
47.888050817812328
42
-0.41421356237259555
10
-21.202207554341467
20
47.966790975292618
42
-0.41421356237309503
10
-21.12346739686113
20
48.04553113277295
42
-0.41421356237309503
0
ARC
5
480
100
AcDbEntity
8
0
100
AcDbCircle
10
-30.018642832896596
20
50.097771189010643
30
0
40
1.555118110236273
210
0
220
0
230
1
100
AcDbArc
50
138.91295382838842
51
225.01044115876758
0
LWPOLYLINE
5
481
100
AcDbEntity
8
0
100
AcDbPolyline
90
4
70
1
43
0.0
10
-27.598314126071141
20
51.37810184575082
42
-0.41421356237309503
10
-27.677054283551431
20
51.299361688270579
42
-0.41421356237309503
10
-27.755794441031718
20
51.37810184575082
42
-0.41421356237326151
10
-27.677054283551431
20
51.456842003231152
42
-0.41421356237309503
0
LWPOLYLINE
5
482
100
AcDbEntity
8
0
100
AcDbPolyline
90
4
70
1
43
0.0
10
-20.729415533393173
20
47.974065951916685
42
-0.41421356237309503
10
-20.808155690873505
20
48.052806109397018
42
-0.41421356237309503
10
-20.729415533393173
20
48.131546266877351
42
-0.41421356237309503
10
-20.65067537591284
20
48.052806109397018
42
-0.41421356237292856
0
LWPOLYLINE
5
483
100
AcDbEntity
8
0
100
AcDbPolyline
90
4
70
1
43
0.0
10
-17.865969480349278
20
52.547988661549965
42
-0.41421356237328266
10
-17.935856991427816
20
52.478101150471339
42
-0.41421356237328266
10
-18.005744502506399
20
52.547988661549965
42
-0.41421356237290746
10
-17.935856991427816
20
52.617876172628549
42
-0.41421356237309503
0
ARC
5
484
100
AcDbEntity
8
0
100
AcDbCircle
10
-27.666424467282983
20
54.889592397637884
30
0
40
0.039370078740120981
210
-0
220
0
230
1
100
AcDbArc
50
-37.205112801818174
51
44.989512065258744
0
LWPOLYLINE
5
485
100
AcDbEntity
8
0
100
AcDbPolyline
90
4
70
1
43
0.0
10
-35.578860228320849
20
55.871589800797814
42
-0.41421356237309503
10
-35.657600385801132
20
55.792849643317481
42
-0.41421356237309503
10
-35.736340543281514
20
55.871589800797814
42
-0.41421356237342799
10
-35.657600385801132
20
55.950329958278104
42
-0.41421356237259555
0
LWPOLYLINE
5
486
100
AcDbEntity
8
0
100
AcDbPolyline
90
4
70
1
43
0.0
10
-27.268522336671186
20
48.03062210365399
42
-0.41421356237309503
10
-27.189782179190853
20
47.951881946173657
42
-0.41421356237309503
10
-27.268522336671186
20
47.873141788693324
42
-0.41421356237309503
10
-27.347262494151519
20
47.951881946173657
42
-0.41421356237309503
0
LWPOLYLINE
5
487
100
AcDbEntity
8
0
100
AcDbPolyline
90
4
70
1
43
0.0
10
-17.004983181739195
20
54.591302968606925
42
-0.41421356237309503
10
-15.888155633735751
20
53.47447542060344
42
-0.41421356237309503
10
-17.004983181739195
20
52.357647872599948
42
-0.41421356237309503
10
-18.12181072974268
20
53.47447542060344
42
-0.41421356237309503
0
LWPOLYLINE
5
488
100
AcDbEntity
8
0
100
AcDbPolyline
90
4
70
1
43
0.0
10
-25.194394050071335
20
48.817661438035707
42
-0.41421356237276202
10
-25.115653892591091
20
48.896401595515997
42
-0.41421356237359452
10
-25.036913735110716
20
48.817661438035707
42
-0.41421356237292856
10
-25.115653892591091
20
48.738921280555331
42
-0.41421356237259555
0
LWPOLYLINE
5
489
100
AcDbEntity
8
0
100
AcDbPolyline
90
4
70
1
43
0.0
10
-23.986240289539356
20
48.817661438035707
42
-0.41421356237292856
10
-24.064980447019735
20
48.738921280555331
42
-0.41421356237259555
10
-24.143720604500068
20
48.817661438035707
42
-0.41421356237309503
10
-24.064980447019735
20
48.896401595516046
42
-0.41421356237309503
0
ARC
5
490
100
AcDbEntity
8
0
100
AcDbCircle
10
-20.868355799076799
20
47.832730737929822
30
0
40
0.059055118110195981
210
0
220
0
230
1
100
AcDbArc
50
220.33001085052078
51
283.26930660942651
0
LWPOLYLINE
5
491
100
AcDbEntity
8
0
100
AcDbPolyline
90
4
70
1
43
0.0
10
-34.837721191979909
20
56.585839342280238
42
-0.41421356237292856
10
-34.916461349460242
20
56.507099184799948
42
-0.41421356237259555
10
-34.995201506940532
20
56.585839342280238
42
-0.41421356237309503
10
-34.916461349460242
20
56.664579499760571
42
-0.41421356237309503
0
LWPOLYLINE
5
492
100
AcDbEntity
8
0
100
AcDbPolyline
90
4
70
1
43
0.0
10
-18.006203418054859
20
54.397825308821183
42
-0.41421356237309503
10
-17.936315906976276
20
54.467712819899724
42
-0.41421356237328266
10
-17.866428395897739
20
54.397825308821183
42
-0.41421356237309503
10
-17.936315906976276
20
54.327937797742649
42
-0.41421356237290746
0
LWPOLYLINE
5
493
100
AcDbEntity
8
0
100
AcDbPolyline
90
4
70
1
43
0.0
10
-42.596259727763304
20
56.908852764406561
42
-0.41421356237259555
10
-42.517519570283064
20
56.987592921886808
42
-0.41421356237342799
10
-42.438779412802731
20
56.908852764406561
42
-0.41421356237309503
10
-42.517519570283064
20
56.830112606926271
42
-0.41421356237326151
0
LWPOLYLINE
5
494
100
AcDbEntity
8
0
100
AcDbPolyline
90
4
70
1
43
0.0
10
-32.433816479320811
20
52.645215320938007
42
-0.41421356237309503
10
-32.355076321840521
20
52.72395547841834
42
-0.41421356237309503
10
-32.276336164360231
20
52.645215320938007
42
-0.41421356237326151
10
-32.355076321840521
20
52.566475163457717
42
-0.41421356237326151
0
LWPOLYLINE
5
495
100
AcDbEntity
8
0
100
AcDbPolyline
90
4
70
1
43
0.0
10
-24.064966786161619
20
51.299364569683753
42
-0.41421356237309503
10
-24.143706943641909
20
51.378104727164001
42
-0.41421356237259555
10
-24.064966786161619
20
51.456844884644283
42
-0.41421356237359452
10
-23.986226628681287
20
51.378104727164001
42
-0.41421356237309503
0
LWPOLYLINE
5
496
100
AcDbEntity
8
0
100
AcDbPolyline
90
4
70
1
43
0.0
10
-31.308876667379778
20
47.951881946173657
42
-0.41421356237309503
10
-31.446671942970383
20
47.814086670583052
42
-0.41421356237309503
10
-31.584467218560942
20
47.951881946173657
42
-0.41421356237309503
10
-31.446671942970383
20
48.089677221764219
42
-0.41421356237280965
0
LWPOLYLINE
5
497
100
AcDbEntity
8
0
100
AcDbPolyline
90
4
70
1
43
0.0
10
-28.659200933131469
20
55.205681312108922
42
-0.41421356237259555
10
-28.737941090611713
20
55.126941154628632
42
-0.41421356237292856
10
-28.816681248092046
20
55.205681312108922
42
-0.41421356237309503
10
-28.737941090611713
20
55.284421469589169
42
-0.41421356237309503
0
LWPOLYLINE
5
498
100
AcDbEntity
8
0
100
AcDbPolyline
90
4
70
1
43
0.0
10
-31.560602510311064
20
55.674863515477988
42
-0.41421356237309503
10
-31.639342667791396
20
55.596123357997747
42
-0.41421356237309503
10
-31.718082825271729
20
55.674863515477988
42
-0.41421356237292856
10
-31.639342667791396
20
55.75360367295832
42
-0.41421356237309503
0
LWPOLYLINE
5
499
100
AcDbEntity
8
0
100
AcDbPolyline
90
8
70
1
43
0.0
10
-27.470293990214557
20
47.608378009165762
42
-0.41421356237309503
10
-27.569703439033432
20
47.508968560346887
10
-30.353168005962541
20
47.508968560346844
42
-0.41421356237309503
10
-30.452577454781458
20
47.608378009165762
10
-30.452577454781458
20
48.295385883181552
42
-0.4142135623729632
10
-30.353168005962541
20
48.394795332000427
10
-27.569703439033432
20
48.394795332000385
42
-0.41421356237335882
10
-27.470293990214511
20
48.295385883181552
0
LWPOLYLINE
5
500
100
AcDbEntity
8
0
100
AcDbPolyline
90
4
70
1
43
0.0
10
-28.816684253480851
20
48.817545972218298
42
-0.41421356237309503
10
-28.737944096000518
20
48.896286129698581
42
-0.41421356237326151
10
-28.659203938520228
20
48.817545972218298
42
-0.41421356237309503
10
-28.737944096000518
20
48.738805814737965
42
-0.41421356237309503
0
LWPOLYLINE
5
501
100
AcDbEntity
8
0
100
AcDbPolyline
90
4
70
1
43
0.0
10
-31.378111966157508
20
52.645225231252802
42
-0.41421356237309503
10
-31.299371808677176
20
52.723965388733092
42
-0.41421356237292856
10
-31.220631651196843
20
52.645225231252802
42
-0.41421356237309503
10
-31.299371808677176
20
52.566485073772469
42
-0.41421356237309503
0
LWPOLYLINE
5
502
100
AcDbEntity
8
0
100
AcDbPolyline
90
4
70
1
43
0.0
10
-34.83773655532044
20
55.20565572865312
42
-0.41421356237309503
10
-34.916476712800772
20
55.12691557117283
42
-0.41421356237292856
10
-34.995216870281148
20
55.20565572865312
42
-0.41421356237359452
10
-34.916476712800772
20
55.284395886133495
42
-0.41421356237259555
0
LWPOLYLINE
5
503
100
AcDbEntity
8
0
100
AcDbPolyline
90
4
70
1
43
0.0
10
-31.638322311477687
20
47.497752898183315
42
-0.41421356237326151
10
-31.559582153997354
20
47.419012740702932
42
-0.41421356237309503
10
-31.638322311477687
20
47.3402725832226
42
-0.41421356237309503
10
-31.717062468957977
20
47.419012740702932
42
-0.41421356237326151
0
ARC
5
504
100
AcDbEntity
8
0
100
AcDbCircle
10
-42.23649877871258
20
47.959506814607067
30
0
40
0.039370078732173269
210
0
220
0
230
1
100
AcDbArc
50
179.99966913324445
51
269.99966899002129
0
ARC
5
505
100
AcDbEntity
8
0
100
AcDbCircle
10
-20.922379145520857
20
47.786866938664978
30
0
40
0.011811023622127746
210
0
220
0
230
1
100
AcDbArc
50
98.719158684086281
51
157.10830651728793
0
ARC
5
506
100
AcDbEntity
8
0
100
AcDbCircle
10
-27.676700831493967
20
55.206155940872684
30
0
40
0.17716535433068017
210
0
220
0
230
1
100
AcDbArc
50
134.98909498080982
51
224.98909498082929
0
LWPOLYLINE
5
507
100
AcDbEntity
8
0
100
AcDbPolyline
90
4
70
1
43
0.0
10
-30.575608950844497
20
47.951881946173614
42
-0.41421356237309503
10
-30.654349108324784
20
47.873141788693282
42
-0.41421356237276202
10
-30.733089265805116
20
47.951881946173614
42
-0.41421356237309503
10
-30.654349108324784
20
48.03062210365399
42
-0.41421356237326151
0
LWPOLYLINE
5
508
100
AcDbEntity
8
0
100
AcDbPolyline
90
4
70
1
43
0.0
10
-28.816697914339056
20
52.64522811266589
42
-0.41421356237309503
10
-28.737957756858723
20
52.723968270146223
42
-0.41421356237276202
10
-28.659217599378433
20
52.64522811266589
42
-0.41421356237309503
10
-28.737957756858723
20
52.566487955185643
42
-0.41421356237342799
0
LWPOLYLINE
5
509
100
AcDbEntity
8
0
100
AcDbPolyline
90
4
70
1
43
0.0
10
-26.400830412228142
20
47.497752898183265
42
-0.41421356237309503
10
-26.32209025474781
20
47.419012740702932
42
-0.41421356237309503
10
-26.400830412228142
20
47.3402725832226
42
-0.41421356237309503
10
-26.479570569708478
20
47.419012740702932
42
-0.41421356237309503
0
ARC
5
510
100
AcDbEntity
8
0
100
AcDbCircle
10
-30.018642832896596
20
50.097771189010686
30
0
40
1.5551181102362295
210
0
220
-0
230
1
100
AcDbArc
50
52.815466498008334
51
138.91295382838962
0
LWPOLYLINE
5
511
100
AcDbEntity
8
0
100
AcDbPolyline
90
4
70
1
43
0.0
10
-32.433816479320853
20
48.817661438035707
42
-0.41421356237309503
10
-32.355076321840521
20
48.896401595516089
42
-0.41421356237326151
10
-32.276336164360231
20
48.817661438035707
42
-0.41421356237309503
10
-32.355076321840521
20
48.738921280555466
42
-0.41421356237309503
0
LWPOLYLINE
5
512
100
AcDbEntity
8
0
100
AcDbPolyline
90
4
70
1
43
0.0
10
-31.29935814781906
20
55.126928362900756
42
-0.41421356237309503
10
-31.378098305299392
20
55.205668520381089
42
-0.41421356237309503
10
-31.29935814781906
20
55.284408677861421
42
-0.41421356237309503
10
-31.220617990338727
20
55.205668520381089
42
-0.41421356237309503
0
LWPOLYLINE
5
513
100
AcDbEntity
8
0
100
AcDbPolyline
90
4
70
1
43
0.0
10
-32.641119030526745
20
47.951881947080381
42
-0.41421356237276202
10
-32.562378873046498
20
48.030622104560663
42
-0.41421356237359452
10
-32.483638715566165
20
47.951881947080381
42
-0.41421356237292856
10
-32.562378873046498
20
47.873141789600133
42
-0.41421356237309503
0
ARC
5
514
100
AcDbEntity
8
0
100
AcDbCircle
10
-31.835802778915841
20
47.148828675953226
30
0
40
0.0078648432543939675
210
0
220
-0
230
1
100
AcDbArc
50
89.960356722437197
51
151.96739323695977
0
ARC
5
515
100
AcDbEntity
8
0
100
AcDbCircle
10
-31.776742312823739
20
47.180315773536265
30
0
40
0.059055078210280269
210
0
220
0
230
1
100
AcDbArc
50
208.07270789470712
51
270.00009489501133
0
ARC
5
516
100
AcDbEntity
8
0
100
AcDbCircle
10
-33.635775058736513
20
53.925440537730267
30
0
40
1.5551181102362934
210
-0
220
0
230
1
100
AcDbArc
50
-48.892071510852482
51
37.205415819529151
0
ARC
5
517
100
AcDbEntity
8
0
100
AcDbCircle
10
-42.296457072759175
20
57.104139515354511
30
0
40
0.011811023622126018
210
0
220
0
230
1
100
AcDbArc
50
180
51
236.44269100065176
0
ARC
5
518
100
AcDbEntity
8
0
100
AcDbCircle
10
-30.018642832896596
20
50.097771189010686
30
0
40
1.555118110236261
210
0
220
0
230
1
100
AcDbArc
50
225.01044115876869
51
311.107928489144
0
ARC
5
519
100
AcDbEntity
8
0
100
AcDbCircle
10
-32.365808641448403
20
54.889586731907343
30
0
40
0.039370078740232697
210
0
220
0
230
1
100
AcDbArc
50
135.0104879349752
51
217.20541581940151
0
ARC
5
520
100
AcDbEntity
8
0
100
AcDbCircle
10
-31.835797274264419
20
47.148819501577293
30
0
40
0.007874015747982837
210
0
220
-0
230
1
100
AcDbArc
50
28.072707894849607
51
90.000457854680661
0
ARC
5
521
100
AcDbEntity
8
0
100
AcDbCircle
10
-28.748676415608575
20
51.061917383187627
30
0
40
0.039370078740201028
210
0
220
0
230
1
100
AcDbArc
50
135.01048793483994
51
217.2054158195578
0
LINE
5
522
100
AcDbEntity
8
0
100
AcDbLine
10
-28.61311618177578
20
51.253215148287914
30
0
11
-28.776535155621257
21
51.089736336130841
31
0
0
LWPOLYLINE
5
523
100
AcDbEntity
8
0
100
AcDbPolyline
90
4
70
1
43
0.0
10
-31.299358147818971
20
48.896283248285492
42
-0.41421356237309503
10
-31.220617990338638
20
48.81754309080516
42
-0.41421356237309503
10
-31.299358147818971
20
48.738802933324877
42
-0.41421356237292856
10
-31.378098305299304
20
48.81754309080516
42
-0.41421356237309503
0
ARC
5
524
100
AcDbEntity
8
0
100
AcDbCircle
10
-32.355547072190305
20
51.378581591869775
30
0
40
0.17716535433071184
210
-0
220
0
230
1
100
AcDbArc
50
-44.98909498079928
51
45.010905019190993
0
LWPOLYLINE
5
525
100
AcDbEntity
8
0
100
AcDbPolyline
90
4
70
1
43
0.0
10
-31.378084644441188
20
51.377986379933446
42
-0.41421356237292856
10
-31.299344486960855
20
51.456726537413779
42
-0.41421356237309503
10
-31.220604329480523
20
51.377986379933446
42
-0.41421356237309503
10
-31.299344486960855
20
51.299246222453206
42
-0.41421356237309503
0
ARC
5
526
100
AcDbEntity
8
0
100
AcDbCircle
10
-32.672091787145099
20
55.19575826839467
30
0
40
0.039370078740228749
210
0
220
0
230
1
100
AcDbArc
50
232.81546649785983
51
315.01048793469738
0
ARC
5
527
100
AcDbEntity
8
0
100
AcDbCircle
10
-32.355547072190305
20
51.378581591869818
30
0
40
0.17716535433064851
210
0
220
-0
230
1
100
AcDbArc
50
45.010905019181244
51
135.01090501920075
0
LWPOLYLINE
5
528
100
AcDbEntity
8
0
100
AcDbPolyline
90
4
70
1
43
0.0
10
-31.717668052936727
20
52.009998918811284
42
-0.41421356237259555
10
-31.638927895456483
20
52.088739076291525
42
-0.41421356237342799
10
-31.56018773797615
20
52.009998918811284
42
-0.41421356237309503
10
-31.638927895456483
20
51.931258761331037
42
-0.41421356237309503
0
LINE
5
529
100
AcDbEntity
8
0
100
AcDbLine
10
-32.230248407615697
20
51.25333061410533
30
0
11
-32.393667381461263
21
51.089851801948249
31
0
0
LWPOLYLINE
5
530
100
AcDbEntity
8
0
100
AcDbPolyline
90
4
70
1
43
0.0
10
-32.110847190735427
20
47.41901274070289
42
-0.41421356237326151
10
-32.032107033255137
20
47.497752898183315
42
-0.41421356237276202
10
-31.953366875774847
20
47.41901274070289
42
-0.41421356237309503
10
-32.032107033255137
20
47.340272583222649
42
-0.41421356237342799
0
LINE
5
531
100
AcDbEntity
8
0
100
AcDbLine
10
-32.764150526589738
20
47.735346512196045
30
0
11
-32.764150526589738
21
48.168417378337786
31
0
0
LWPOLYLINE
5
532
100
AcDbEntity
8
0
100
AcDbPolyline
90
8
70
1
43
0.0
10
-32.961000920290523
20
48.365267772042515
42
-0.41421356237309503
10
-32.764150526589738
20
48.168417378341722
10
-32.764150526589738
20
47.735346512192109
42
-0.41421356237309503
10
-32.961000920290523
20
47.538496118491317
10
-34.850764699818065
20
47.538496118491366
42
-0.41421356237329482
10
-35.04761509351885
20
47.735346512192109
10
-35.04761509351885
20
48.168417378341722
42
-0.41421356237309503
10
-34.850764699818065
20
48.365267772042515
0
LINE
5
533
100
AcDbEntity
8
0
100
AcDbLine
10
-32.480843913166446
20
55.331388276802691
30
0
11
-32.64426301256006
21
55.167909339051562
31
0
0
LINE
5
534
100
AcDbEntity
8
0
100
AcDbLine
10
-28.863711687326443
20
51.503718928083025
30
0
11
-29.027130786720054
21
51.340239990331845
31
0
0
ARC
5
535
100
AcDbEntity
8
0
100
AcDbCircle
10
-28.738414846350391
20
51.378466126052359
30
0
40
0.17716535433071184
210
-0
220
0
230
1
100
AcDbArc
50
-44.989094980798463
51
45.01090501917961
0
ARC
5
536
100
AcDbEntity
8
0
100
AcDbCircle
10
-32.355547072190305
20
55.206135474772076
30
0
40
0.17716535433068017
210
-0
220
0
230
1
100
AcDbArc
50
-44.989094980830117
51
45.010905019189373
0
ARC
5
537
100
AcDbEntity
8
0
100
AcDbCircle
10
-32.672091787145099
20
51.368204385492326
30
0
40
0.03937007874017464
210
0
220
0
230
1
100
AcDbArc
50
232.8154664979669
51
315.01048793479248
0
ARC
5
538
100
AcDbEntity
8
0
100
AcDbCircle
10
-29.054959561305186
20
51.368088919674911
30
0
40
0.039370078740103322
210
0
220
0
230
1
100
AcDbArc
50
232.81546649788564
51
315.01048793488383
0
ARC
5
539
100
AcDbEntity
8
0
100
AcDbCircle
10
-31.894852439139395
20
47.180315092012144
30
0
40
0.059054936995248559
210
0
220
0
230
1
100
AcDbArc
50
270.0151895337811
51
331.92796841840334
0
ARC
5
540
100
AcDbEntity
8
0
100
AcDbCircle
10
-28.738414846350391
20
51.378466126052402
30
0
40
0.17716535433074346
210
0
220
-0
230
1
100
AcDbArc
50
45.010905019169869
51
135.01090501917881
0
ARC
5
541
100
AcDbEntity
8
0
100
AcDbCircle
10
-32.355547072190305
20
55.206135474772076
30
0
40
0.17716535433068017
210
0
220
-0
230
1
100
AcDbArc
50
45.010905019189373
51
135.01090501920075
0
LINE
5
542
100
AcDbEntity
8
0
100
AcDbLine
10
-32.230248407615697
20
55.080884497007624
30
0
11
-32.393667381461263
21
54.917405684850507
31
0
0
LINE
5
543
100
AcDbEntity
8
0
100
AcDbLine
10
-32.480843913166446
20
51.503834393900441
30
0
11
-32.64426301256006
21
51.340355456149261
31
0
0
ARC
5
544
100
AcDbEntity
8
0
100
AcDbCircle
10
-32.365808641448581
20
51.062032849005043
30
0
40
0.039370078740137718
210
0
220
0
230
1
100
AcDbArc
50
135.01048793474857
51
217.20541581950016
0
LWPOLYLINE
5
545
100
AcDbEntity
8
0
100
AcDbPolyline
90
6
70
1
43
0.0
10
-20.889256139464941
20
63.222388583598452
42
-0.30369697790646411
10
-20.672720706394063
20
63.367273942159031
42
-0.30369697790645572
10
-20.456185273323126
20
63.22238858359848
10
-20.456185273323186
20
63.043655363711622
42
-0.30369697790646411
10
-20.672720706394063
20
62.898770005151135
42
-0.30369697790641592
10
-20.889256139464912
20
63.043655363711594
0
LWPOLYLINE
5
546
100
AcDbEntity
8
0
100
AcDbPolyline
90
6
70
1
43
0.0
10
-23.034452814871969
20
63.366959649682777
42
-0.30369697790650396
10
-22.817917381801031
20
63.222074291122212
10
-22.817917381800999
20
63.043341071235353
42
-0.30369697790656847
10
-23.034452814871969
20
62.898455712674874
42
-0.30369697790646411
10
-23.250988247942814
20
63.043341071235361
10
-23.250988247942843
20
63.222074291122219
42
-0.30369697790646411
0
LWPOLYLINE
5
547
100
AcDbEntity
8
0
100
AcDbPolyline
90
6
70
1
43
0.0
10
-22.246841661870711
20
63.367702155728423
42
-0.30369697790641592
10
-22.030306228799862
20
63.222816797167965
10
-22.030306228799859
20
63.044083577281121
42
-0.30369697790651234
10
-22.246841661870711
20
62.899198218720628
42
-0.30369697790646411
10
-22.46337709494156
20
63.044083577281121
10
-22.463377094941546
20
63.222816797167965
42
-0.30369697790646411
0
LWPOLYLINE
5
548
100
AcDbEntity
8
0
100
AcDbPolyline
90
6
70
1
43
0.0
10
-21.459991749219792
20
62.898051329200428
42
-0.30369697790646411
10
-21.676527182290641
20
63.042936687760914
10
-21.676527182290631
20
63.221669907647765
42
-0.30369697790646411
10
-21.459991749219792
20
63.366555266208252
42
-0.30369697790646411
10
-21.243456316148944
20
63.221669907647765
10
-21.243456316148919
20
63.042936687760907
42
-0.30369697790646411
0
LWPOLYLINE
5
549
100
AcDbEntity
8
0
100
AcDbPolyline
90
4
70
1
43
0.0
10
-20.645471124647944
20
64.141250571714451
42
-0.41421356237309503
10
-20.728148290002288
20
64.058573406360097
42
-0.41421356237309503
10
-20.810825455356635
20
64.141250571714451
42
-0.41421356237309503
10
-20.728148290002288
20
64.223927737068792
42
-0.41421356237309503
0
LWPOLYLINE
5
550
100
AcDbEntity
8
0
100
AcDbPolyline
90
6
70
1
43
0.0
10
-24.038290675154371
20
63.044428584102043
10
-24.0382906751544
20
63.223161803988901
42
-0.30369697790646411
10
-23.821755242083523
20
63.368047162549395
42
-0.30369697790641592
10
-23.605219809012674
20
63.223161803988937
10
-23.605219809012688
20
63.044428584102043
42
-0.30369697790646411
10
-23.821755242083523
20
62.899543225541585
42
-0.30369697790641592
0
ARC
5
551
100
AcDbEntity
8
0
100
AcDbCircle
10
-26.396454402767588
20
53.925406354551967
30
0
40
1.5551521895843126
210
0
220
-0
230
1
100
AcDbArc
50
52.817172979146491
51
127.19202518310173
0
ARC
5
552
100
AcDbEntity
8
0
100
AcDbCircle
10
-42.238590396699209
20
61.558814976681049
30
0
40
0.039370078740345635
210
0
220
0
230
1
100
AcDbArc
50
90.000005514042229
51
135.00903445805207
0
LWPOLYLINE
5
553
100
AcDbEntity
8
0
100
AcDbPolyline
90
4
70
1
43
0.0
10
-35.736340543281464
20
47.419012740702982
42
-0.41421356237259555
10
-35.657600385801224
20
47.497752898183222
42
-0.41421356237342799
10
-35.578860228320892
20
47.419012740702982
42
-0.41421356237309503
10
-35.657600385801224
20
47.340272583222735
42
-0.41421356237309503
0
LWPOLYLINE
5
554
100
AcDbEntity
8
0
100
AcDbPolyline
90
4
70
1
43
0.0
10
-21.12381919623791
20
51.931489574539228
42
-0.41421356237292856
10
-21.202559353718243
20
52.010229732019518
42
-0.41421356237309503
10
-21.12381919623791
20
52.08896988949985
42
-0.41421356237309503
10
-21.045079038757624
20
52.010229732019518
42
-0.41421356237309503
0
LWPOLYLINE
5
555
100
AcDbEntity
8
0
100
AcDbPolyline
90
4
70
1
43
0.0
10
-39.087575476065993
20
62.42825293590861
42
-0.41421356237309503
10
-39.461591224097511
20
62.802268683940127
42
-0.41421356237309503
10
-39.087575476065993
20
63.176284431971638
42
-0.41421356237309503
10
-38.713559728034483
20
62.802268683940127
42
-0.41421356237309503
0
ARC
5
556
100
AcDbEntity
8
0
100
AcDbCircle
10
-27.676700831493967
20
55.206155940872641
30
0
40
0.1771653543307751
210
0
220
-0
230
1
100
AcDbArc
50
44.989094980820383
51
134.98909498080008
0
ARC
5
557
100
AcDbEntity
8
0
100
AcDbCircle
10
-42.280377881561563
20
47.152665853339897
30
0
40
0.0078740157479942532
210
0
220
-0
230
1
100
AcDbArc
50
24.400499489992573
51
86.558638922225356
0
LINE
5
558
100
AcDbEntity
8
0
100
AcDbLine
10
-35.937992011227948
20
47.920379219987232
30
0
11
-42.236499006161949
21
47.920136735855813
31
0
0
LWPOLYLINE
5
559
100
AcDbEntity
8
0
100
AcDbPolyline
90
4
70
1
43
0.0
10
-20.385630491925991
20
49.621135106821335
42
-0.41421356237309503
10
-20.45551800300457
20
49.551247595742836
42
-0.41421356237309503
10
-20.52540551408315
20
49.621135106821335
42
-0.41421356237309503
10
-20.45551800300457
20
49.691022617899911
42
-0.41421356237309503
0
LWPOLYLINE
5
560
100
AcDbEntity
8
0
100
AcDbPolyline
90
4
70
1
43
0.0
10
-35.249386747062175
20
48.030622104560713
42
-0.41421356237309503
10
-35.170646589581843
20
47.951881947080381
42
-0.41421356237292856
10
-35.249386747062175
20
47.873141789600133
42
-0.41421356237309503
10
-35.328126904542508
20
47.951881947080381
42
-0.41421356237309503
0
LWPOLYLINE
5
561
100
AcDbEntity
8
0
100
AcDbPolyline
90
4
70
1
43
0.0
10
-22.784265132097271
20
51.653007646477477
42
-0.41421356237309503
10
-21.229147021861031
20
50.097889536241233
42
-0.41421356237309503
10
-22.784265132097271
20
48.542771426004997
42
-0.41421356237309503
10
-24.339383242333465
20
50.097889536241233
42
-0.41421356237309503
0
ARC
5
562
100
AcDbEntity
8
0
100
AcDbCircle
10
-35.89722465899839
20
47.148819043423096
30
0
40
0.0078740157480657706
210
0
220
-0
230
1
100
AcDbArc
50
28.605831574971084
51
90.000000050824141
0
ARC
5
563
100
AcDbEntity
8
0
100
AcDbCircle
10
-35.89722465899839
20
47.148819043423138
30
0
40
0.0078740157480243333
210
0
220
0
230
1
100
AcDbArc
50
90.000000050824141
51
151.92751309387634
0
LWPOLYLINE
5
564
100
AcDbEntity
8
0
100
AcDbPolyline
90
4
70
1
43
0.0
10
-50.745997236390735
20
48.577539501631932
42
-0.41421356237309503
10
-50.667257078910446
20
48.498799344151692
42
-0.41421356237309503
10
-50.745997236390735
20
48.420059186671359
42
-0.41421356237309503
10
-50.824737393871025
20
48.498799344151692
42
-0.41421356237309503
0
ARC
5
565
100
AcDbEntity
8
0
100
AcDbCircle
10
-26.396472760598925
20
53.925379147423698
30
0
40
1.5551469419674575
210
-0
220
0
230
1
100
AcDbArc
50
270.00184115469045
51
333.60662119007554
0
ARC
5
566
100
AcDbEntity
8
0
100
AcDbCircle
10
-30.018642832896596
20
50.097771189010643
30
0
40
1.5551181102362346
210
-0
220
0
230
1
100
AcDbArc
50
-48.892071510854926
51
37.205415819524454
0
LWPOLYLINE
5
567
100
AcDbEntity
8
0
100
AcDbPolyline
90
4
70
1
43
0.0
10
-17.866066105525938
20
55.580882053014797
42
-0.41421356237309503
10
-17.935953616604518
20
55.510994541936221
42
-0.41421356237309503
10
-18.005841127683102
20
55.580882053014797
42
-0.41421356237309503
10
-17.935953616604518
20
55.65076956409338
42
-0.41421356237309503
0
LWPOLYLINE
5
568
100
AcDbEntity
8
0
100
AcDbPolyline
90
4
70
1
43
0.0
10
-18.413342135507047
20
50.55053353990855
42
-0.41421356237309503
10
-19.530169683510536
20
49.433705991905065
42
-0.41421356237309503
10
-20.646997231514021
20
50.55053353990855
42
-0.41421356237309503
10
-19.530169683510536
20
51.667361087912035
42
-0.41421356237309503
0
LWPOLYLINE
5
569
100
AcDbEntity
8
0
100
AcDbPolyline
90
4
70
1
43
0.0
10
-42.438779412802774
20
60.2373456523475
42
-0.41421356237309503
10
-42.517519570283064
20
60.158605494867253
42
-0.41421356237309503
10
-42.596259727763396
20
60.2373456523475
42
-0.41421356237309503
10
-42.517519570283064
20
60.316085809827833
42
-0.41421356237309503
0
LWPOLYLINE
5
570
100
AcDbEntity
8
0
100
AcDbPolyline
90
4
70
1
43
0.0
10
-50.289840059556575
20
51.863476915843918
42
-0.41421356237309503
10
-50.368580217036858
20
51.942217073324159
42
-0.41421356237309503
10
-50.289840059556575
20
52.020957230804491
42
-0.41421356237309503
10
-50.211099902076242
20
51.942217073324159
42
-0.41421356237309503
0
ARC
5
571
100
AcDbEntity
8
0
100
AcDbCircle
10
-33.635775058736691
20
50.09788665482801
30
0
40
1.5551181102360498
210
0
220
0
230
1
100
AcDbArc
50
138.91295382838777
51
225.01044115877579
0
ARC
5
572
100
AcDbEntity
8
0
100
AcDbCircle
10
-42.219426854135797
20
47.180315106298906
30
0
40
0.0590551179192546
210
0
220
0
230
1
100
AcDbArc
50
204.40049949019431
51
270.00000018499367
0
LWPOLYLINE
5
573
100
AcDbEntity
8
0
100
AcDbPolyline
90
4
70
1
43
0.0
10
-16.015308897467683
20
55.580770743738917
42
-0.41421356237309503
10
-16.085196408546267
20
55.510883232660333
42
-0.41421356237309503
10
-16.155083919624847
20
55.580770743738917
42
-0.41421356237290746
10
-16.085196408546267
20
55.6506582548175
42
-0.41421356237309503
0
ARC
5
574
100
AcDbEntity
8
0
100
AcDbCircle
10
-42.337576250770852
20
47.187420069182622
30
0
40
0.059055118110388806
210
0
220
0
230
1
100
AcDbArc
50
268.59192334170211
51
328.71677835406189
0
LINE
5
575
100
AcDbEntity
8
0
100
AcDbLine
10
-27.551403990517827
20
55.331408742903349
30
0
11
-27.387984891124216
21
55.167929805152177
31
0
0
LWPOLYLINE
5
576
100
AcDbEntity
8
0
100
AcDbPolyline
90
6
70
1
43
0.0
10
-51.982436906169042
20
51.818016412101187
42
-0.31919774706122916
10
-51.647791236877737
20
51.580143966886695
10
-51.64779123687773
20
51.347227439992956
42
-0.31919774706126208
10
-51.982436906169042
20
51.109354994778357
42
-0.31919774706131782
10
-52.317082575460432
20
51.347227439992999
10
-52.317082575460411
20
51.580143966886681
42
-0.31919774706128495
0
LWPOLYLINE
5
577
100
AcDbEntity
8
0
100
AcDbPolyline
90
4
70
1
43
0.0
10
-42.51752065192327
20
64.058150499578019
42
-0.41421356237325357
10
-42.600197817277568
20
64.140827664932416
42
-0.41421356237309503
10
-42.51752065192327
20
64.223504830286757
42
-0.41421356237309503
10
-42.434843486568965
20
64.140827664932416
42
-0.41421356237309503
0
ARC
5
578
100
AcDbEntity
8
0
100
AcDbCircle
10
-42.296457072759175
20
57.104139515354511
30
0
40
0.01181102362207353
210
0
220
0
230
1
100
AcDbArc
50
123.55730976219212
51
180
0
ARC
5
579
100
AcDbEntity
8
0
100
AcDbCircle
10
-42.238590396699479
20
61.558814976681319
30
0
40
0.039370078739975001
210
0
220
0
230
1
100
AcDbArc
50
135.00903445805213
51
180.01806340238238
0
LWPOLYLINE
5
580
100
AcDbEntity
8
0
100
AcDbPolyline
90
4
70
1
43
0.0
10
-35.657600385801132
20
49.359959386879957
42
-0.41421356237309503
10
-35.578860228320934
20
49.281219229399717
42
-0.41421356237276202
10
-35.657600385801132
20
49.202479071919427
42
-0.41421356237359452
10
-35.736340543281422
20
49.281219229399717
42
-0.41421356237309503
0
LWPOLYLINE
5
581
100
AcDbEntity
8
0
100
AcDbPolyline
90
4
70
1
43
0.0
10
-50.289840059556575
20
49.768465805014038
42
-0.41421356237309503
10
-50.211099902076285
20
49.689725647533706
42
-0.41421356237326151
10
-50.289840059556575
20
49.610985490053423
42
-0.41421356237326151
10
-50.368580217036858
20
49.689725647533706
42
-0.41421356237309503
0
LWPOLYLINE
5
582
100
AcDbEntity
8
0
100
AcDbPolyline
90
4
70
1
43
0.0
10
-40.779864123141465
20
62.802268683940085
42
-0.41421356237309503
10
-41.153879871172975
20
62.42825293590866
42
-0.41421356237309503
10
-41.527895619204493
20
62.802268683940085
42
-0.41421356237309503
10
-41.153879871172975
20
63.176284431971688
42
-0.41421356237309503
0
LINE
5
583
100
AcDbEntity
8
0
100
AcDbLine
10
-25.241541699377699
20
55.331408742903349
30
0
11
-25.404960798771221
21
55.167929805152177
31
0
0
LWPOLYLINE
5
584
100
AcDbEntity
8
0
100
AcDbPolyline
90
7
70
1
43
0.0
10
-47.480002836748604
20
62.822022910024437
42
-0.38989861631481992
10
-47.244609799869473
20
63.038489147753594
42
-0.38989861631481076
10
-47.009216762990391
20
62.822022910024437
42
-0.38989861631488798
10
-47.205239721129352
20
62.569352148419036
10
-47.205239721129352
20
62.487308045391444
10
-47.283979878609685
20
62.487308045391444
10
-47.283979878609685
20
62.569352148419036
42
-0.38989861631488798
0
LWPOLYLINE
5
585
100
AcDbEntity
8
0
100
AcDbPolyline
90
6
70
1
43
0.0
10
-29.964556996529371
20
61.569735105906531
10
-29.964556996529343
20
61.391001886019673
42
-0.30369697790646411
10
-30.18109242960022
20
61.246116527459193
42
-0.30369697790646411
10
-30.397627862671069
20
61.391001886019687
10
-30.397627862671097
20
61.569735105906545
42
-0.30369697790646411
10
-30.18109242960022
20
61.714620464466989
42
-0.30369697790641592
0
LWPOLYLINE
5
586
100
AcDbEntity
8
0
100
AcDbPolyline
90
4
70
1
43
0.0
10
-25.194514269427799
20
52.645215320937965
42
-0.41421356237309503
10
-25.115774111947466
20
52.723955478418297
42
-0.41421356237309503
10
-25.037033954467134
20
52.645215320937965
42
-0.41421356237309503
10
-25.115774111947466
20
52.566475163457632
42
-0.41421356237309503
0
LWPOLYLINE
5
587
100
AcDbEntity
8
0
100
AcDbPolyline
90
4
70
1
43
0.0
10
-16.405310304446711
20
59.655696544573836
42
-0.41421356237328211
10
-16.335231564289234
20
59.585617804416266
42
-0.41421356237309503
10
-16.405310304446711
20
59.515539064258832
42
-0.41421356237309503
10
-16.475389044604192
20
59.585617804416266
42
-0.41421356237309503
0
LWPOLYLINE
5
588
100
AcDbEntity
8
0
100
AcDbPolyline
90
4
70
1
43
0.0
10
-30.018656493754715
20
56.310949330249528
42
-0.41421356237308665
10
-31.573774603990955
20
57.866067440485722
42
-0.41421356237309503
10
-30.018656493754715
20
59.421185550721958
42
-0.41421356237309503
10
-28.463538383518522
20
57.866067440485722
42
-0.41421356237309503
0
LWPOLYLINE
5
589
100
AcDbEntity
8
0
100
AcDbPolyline
90
4
70
1
43
0.0
10
-24.064997425274633
20
52.566472282044543
42
-0.41421356237309503
10
-24.143737582755012
20
52.645212439524876
42
-0.41421356237359452
10
-24.064997425274633
20
52.723952597005209
42
-0.41421356237276202
10
-23.986257267794389
20
52.645212439524876
42
-0.41421356237259555
0
LWPOLYLINE
5
590
100
AcDbEntity
8
0
100
AcDbPolyline
90
4
70
1
43
0.0
10
-30.194926102433232
20
64.140468220412771
42
-0.41421356237309503
10
-30.277603267787576
20
64.057791055058416
42
-0.41421356237309503
10
-30.36028043314192
20
64.140468220412771
42
-0.41421356237293649
10
-30.277603267787576
20
64.223145385767111
42
-0.41421356237309503
0
LWPOLYLINE
5
591
100
AcDbEntity
8
0
100
AcDbPolyline
90
4
70
1
43
0.0
10
-34.916490373658888
20
52.723952597005166
42
-0.41421356237276202
10
-34.837750216178598
20
52.645212439524833
42
-0.41421356237309503
10
-34.916490373658888
20
52.566472282044501
42
-0.41421356237309503
10
-34.995230531139264
20
52.645212439524833
42
-0.41421356237359452
0
LWPOLYLINE
5
592
100
AcDbEntity
8
0
100
AcDbPolyline
90
8
70
1
43
0.0
10
-32.116300185313669
20
61.900913417407963
42
-0.41421356237359452
10
-32.195040342794051
20
61.822173259927631
10
-32.234410421534172
20
61.822173259927631
42
-0.41421356237309503
10
-32.313150579014504
20
61.900913417407963
10
-32.313150579014504
20
62.924535464651974
42
-0.41421356237309503
10
-32.234410421534172
20
63.003275622132307
10
-32.195040342794051
20
63.003275622132264
42
-0.41421356237292856
10
-32.116300185313712
20
62.924535464651974
0
LWPOLYLINE
5
593
100
AcDbEntity
8
0
100
AcDbPolyline
90
4
70
1
43
0.0
10
-34.837736555320483
20
51.37810184575082
42
-0.41421356237309503
10
-34.916476712800772
20
51.299361688270487
42
-0.41421356237309503
10
-34.995216870281105
20
51.37810184575082
42
-0.41421356237309503
10
-34.916476712800772
20
51.45684200323111
42
-0.41421356237326151
0
LWPOLYLINE
5
594
100
AcDbEntity
8
0
100
AcDbPolyline
90
4
70
1
43
0.0
10
-34.167481599223791
20
60.938934899146446
42
-0.41421356237309503
10
-34.256064276389111
20
60.850352221981126
42
-0.41421356237309503
10
-34.344646953554431
20
60.938934899146446
42
-0.41421356237309503
10
-34.256064276389111
20
61.027517576311766
42
-0.41421356237309503
0
LWPOLYLINE
5
595
100
AcDbEntity
8
0
100
AcDbPolyline
90
4
70
1
43
0.0
10
-43.567374448981866
20
61.572997455628297
42
-0.41421356237309503
10
-43.655957126147229
20
61.661580132793617
42
-0.41421356237309503
10
-43.567374448981866
20
61.750162809959029
42
-0.41421356237309503
10
-43.478791771816503
20
61.661580132793617
42
-0.41421356237309503
0
LWPOLYLINE
5
596
100
AcDbEntity
8
0
100
AcDbPolyline
90
4
70
1
43
0.0
10
-35.736340543281514
20
60.2373456523475
42
-0.41421356237359452
10
-35.657600385801132
20
60.316085809827833
42
-0.41421356237276202
10
-35.578860228320849
20
60.2373456523475
42
-0.41421356237309503
10
-35.657600385801132
20
60.158605494867167
42
-0.41421356237309503
0
LINE
5
597
100
AcDbEntity
8
0
100
AcDbLine
10
-43.864773906891521
20
63.540454584658271
30
0
11
-43.836151956487335
21
63.540454585944993
31
0
0
LWPOLYLINE
5
598
100
AcDbEntity
8
0
100
AcDbPolyline
90
4
70
1
43
0.0
10
-46.786041414763901
20
47.645975609889781
42
-0.41421356237309503
10
-46.864781572244233
20
47.567235452409449
42
-0.41421356237309503
10
-46.943521729724566
20
47.645975609889781
42
-0.41421356237309503
10
-46.864781572244233
20
47.724715767370022
42
-0.41421356237309503
0
LWPOLYLINE
5
599
100
AcDbEntity
8
0
100
AcDbPolyline
90
4
70
1
43
0.0
10
-18.005152213951156
20
57.432132262893369
42
-0.41421356237309503
10
-17.935264702872619
20
57.502019773971952
42
-0.41421356237309503
10
-17.865377191794082
20
57.432132262893369
42
-0.41421356237309503
10
-17.935264702872619
20
57.362244751814835
42
-0.41421356237253226
0
LWPOLYLINE
5
600
100
AcDbEntity
8
0
100
AcDbPolyline
90
4
70
1
43
0.0
10
-49.464286091345741
20
60.2373456523475
42
-0.41421356237309503
10
-49.385545933865409
20
60.316085809827783
42
-0.41421356237326151
10
-49.306805776385126
20
60.2373456523475
42
-0.41421356237309503
10
-49.385545933865409
20
60.158605494867167
42
-0.41421356237309503
0
LWPOLYLINE
5
601
100
AcDbEntity
8
0
100
AcDbPolyline
90
4
70
1
43
0.0
10
-20.454528275858969
20
54.467673583083631
42
-0.41421356237309503
10
-20.384640764780432
20
54.397786072005047
42
-0.41421356237309503
10
-20.454528275858969
20
54.327898560926513
42
-0.41421356237290746
10
-20.524415786937507
20
54.397786072005047
42
-0.41421356237309503
0
LWPOLYLINE
5
602
100
AcDbEntity
8
0
100
AcDbPolyline
90
4
70
1
43
0.0
10
-44.59686423870545
20
57.772256232723969
42
-0.41421356237309503
10
-44.494502033981043
20
57.874618437448376
42
-0.41421356237309503
10
-44.392139829256642
20
57.772256232723969
42
-0.41421356237309503
10
-44.494502033981043
20
57.669894027999561
42
-0.41421356237309503
0
LWPOLYLINE
5
603
100
AcDbEntity
8
0
100
AcDbPolyline
90
4
70
1
43
0.0
10
-20.455343861522742
20
55.51121425625248
42
-0.41421356237309503
10
-20.525231372601279
20
55.581101767331063
42
-0.41421356237309503
10
-20.455343861522742
20
55.650989278409597
42
-0.41421356237290746
10
-20.385456350444205
20
55.581101767331063
42
-0.41421356237309503
0
LWPOLYLINE
5
604
100
AcDbEntity
8
0
100
AcDbPolyline
90
6
70
1
43
0.0
10
-32.618268672981095
20
63.790677196935505
10
-32.618268672981095
20
61.034771685124483
42
-0.41421356237700202
10
-32.913544263536217
20
60.739496094573255
42
-0.41421356236923246
10
-33.208819854083458
20
61.034771685124483
10
-33.208819854083458
20
63.790677196935505
42
-0.41421356237691326
10
-32.913544263528429
20
64.08595278748669
42
-0.41421356236927687
0
LWPOLYLINE
5
605
100
AcDbEntity
8
0
100
AcDbPolyline
90
4
70
1
43
0.0
10
-20.454370995146171
20
52.617601959441593
42
-0.41421356237328266
10
-20.384483484067633
20
52.547714448362967
42
-0.41421356237309503
10
-20.454370995146171
20
52.477826937284384
42
-0.41421356237309503
10
-20.524258506224754
20
52.547714448362967
42
-0.41421356237309503
0
LWPOLYLINE
5
606
100
AcDbEntity
8
0
100
AcDbPolyline
90
4
70
1
43
0.0
10
-24.854372979653338
20
58.293248042595373
42
-0.41421356237309503
10
-24.784294239495861
20
58.363326782752807
42
-0.41421356237309503
10
-24.71421549933838
20
58.293248042595373
42
-0.41421356237309503
10
-24.784294239495861
20
58.223169302437853
42
-0.41421356237309503
0
LWPOLYLINE
5
607
100
AcDbEntity
8
0
100
AcDbPolyline
90
4
70
1
43
0.0
10
-54.506229498145487
20
55.751897728463618
42
-0.41421356237326151
10
-54.584969655625819
20
55.830637885943993
42
-0.41421356237309503
10
-54.506229498145487
20
55.909378043424326
42
-0.41421356237309503
10
-54.427489340665154
20
55.830637885943993
42
-0.41421356237309503
0
LWPOLYLINE
5
608
100
AcDbEntity
8
0
100
AcDbPolyline
90
4
70
1
43
0.0
10
-45.113306823707759
20
63.68704452811896
42
-0.41421356237309503
10
-45.024724146542397
20
63.775627205284273
42
-0.41421356237309503
10
-44.936141469377034
20
63.68704452811896
42
-0.4142135623729471
10
-45.024724146542397
20
63.59846185095364
42
-0.41421356237309503
0
LWPOLYLINE
5
609
100
AcDbEntity
8
0
100
AcDbPolyline
90
4
70
1
43
0.0
10
-27.174717573880145
20
57.77225621534555
42
-0.41421356237309503
10
-27.072355369155737
20
57.874618420069957
42
-0.41421356237309503
10
-26.969993164431376
20
57.77225621534555
42
-0.41421356237309503
10
-27.072355369155737
20
57.669894010621142
42
-0.41421356237309503
0
LWPOLYLINE
5
610
100
AcDbEntity
8
0
100
AcDbPolyline
90
4
70
1
43
0.0
10
-34.256064276389111
20
63.980273481823708
42
-0.41421356237309503
10
-34.167481599223748
20
63.891690804658303
42
-0.41421356237309503
10
-34.256064276389111
20
63.803108127492983
42
-0.41421356237309503
10
-34.344646953554516
20
63.891690804658303
42
-0.4142135623729471
0
LWPOLYLINE
5
611
100
AcDbEntity
8
0
100
AcDbPolyline
90
4
70
1
43
0.0
10
-24.664917277716693
20
61.246811244367969
42
-0.41421356237309503
10
-24.897200742283637
20
61.479094708934866
42
-0.41421356237309503
10
-24.664917277716693
20
61.711378173501764
42
-0.41421356237309503
10
-24.432633813149796
20
61.479094708934866
42
-0.41421356237315149
0
LWPOLYLINE
5
612
100
AcDbEntity
8
0
100
AcDbPolyline
90
4
70
1
43
0.0
10
-25.633707178045537
20
57.77225621534555
42
-0.41421356237296697
10
-25.736069382769987
20
57.669894010621142
42
-0.41421356237309503
10
-25.838431587494437
20
57.77225621534555
42
-0.41421356237309503
10
-25.736069382769987
20
57.874618420069957
42
-0.41421356237309503
0
LWPOLYLINE
5
613
100
AcDbEntity
8
0
100
AcDbPolyline
90
4
70
1
43
0.0
10
-43.469034445982587
20
49.610985490053331
42
-0.41421356237326151
10
-43.547774603462919
20
49.689725647533706
42
-0.41421356237292856
10
-43.469034445982587
20
49.768465805013953
42
-0.41421356237309503
10
-43.390294288502304
20
49.689725647533706
42
-0.41421356237326151
0
LWPOLYLINE
5
614
100
AcDbEntity
8
0
100
AcDbPolyline
90
4
70
1
43
0.0
10
-45.113043740320471
20
61.661580132793617
42
-0.41421356237309503
10
-45.024461063155101
20
61.750162809959029
42
-0.41421356237309503
10
-44.935878385989739
20
61.661580132793617
42
-0.41421356237353901
10
-45.024461063155101
20
61.572997455628297
42
-0.41421356237309503
0
LWPOLYLINE
5
615
100
AcDbEntity
8
0
100
AcDbPolyline
90
4
70
1
43
0.0
10
-16.084718686755419
20
57.361566760969552
42
-0.41421356237309503
10
-16.154606197833999
20
57.431454272048043
42
-0.41421356237309503
10
-16.084718686755419
20
57.501341783126627
42
-0.41421356237309503
10
-16.014831175676882
20
57.431454272048043
42
-0.41421356237309503
0
LWPOLYLINE
5
616
100
AcDbEntity
8
0
100
AcDbPolyline
90
4
70
1
43
0.0
10
-30.18109242960022
20
63.481809509781883
42
-0.41421356237279483
10
-30.137423004614
20
63.438140084795663
42
-0.41421356237339524
10
-30.18109242960022
20
63.394470659809492
42
-0.41421356237309503
10
-30.22476185458644
20
63.438140084795663
42
-0.41421356237309503
0
LWPOLYLINE
5
617
100
AcDbEntity
8
0
100
AcDbPolyline
90
4
70
1
43
0.0
10
-26.072971207972959
20
62.832689746816037
10
-26.072971207972959
20
61.722453526343578
10
-26.525727113484805
20
61.722453526343578
10
-26.525727113484805
20
62.832689746816037
0
LWPOLYLINE
5
618
100
AcDbEntity
8
0
100
AcDbPolyline
90
4
70
1
43
0.0
10
-28.946547388367502
20
61.480368495963113
42
-0.41421356237309503
10
-28.714263923800562
20
61.712651960530096
42
-0.41421356237309503
10
-28.481980459233576
20
61.480368495963113
42
-0.41421356237309503
10
-28.714263923800562
20
61.248085031396215
42
-0.41421356237309503
0
LINE
5
619
100
AcDbEntity
8
0
100
AcDbLine
10
-43.749515992927044
20
49.201798132082466
30
0
11
-43.749515992927044
21
52.430144588775399
31
0
0
LWPOLYLINE
5
620
100
AcDbEntity
8
0
100
AcDbPolyline
90
4
70
1
43
0.0
10
-24.064983764416436
20
55.126915571172873
42
-0.41421356237292856
10
-24.143723921896768
20
55.205655728653163
42
-0.41421356237309503
10
-24.064983764416436
20
55.284395886133495
42
-0.41421356237309503
10
-23.986243606936146
20
55.205655728653163
42
-0.41421356237259555
0
LWPOLYLINE
5
621
100
AcDbEntity
8
0
100
AcDbPolyline
90
4
70
1
43
0.0
10
-48.511874534226905
20
64.058573406360097
42
-0.41421356237309503
10
-48.594551699581245
20
64.141250571714451
42
-0.41421356237309503
10
-48.511874534226905
20
64.223927737068792
42
-0.41421356237309503
10
-48.4291973688726
20
64.141250571714451
42
-0.41421356237309503
0
LWPOLYLINE
5
622
100
AcDbEntity
8
0
100
AcDbPolyline
90
4
70
1
43
0.0
10
-26.17021679803641
20
64.058573406360097
42
-0.41421356237309503
10
-26.252893963390758
20
64.141250571714451
42
-0.41421356237293649
10
-26.17021679803641
20
64.223927737068792
42
-0.41421356237309503
10
-26.087539632682066
20
64.141250571714451
42
-0.41421356237309503
0
LWPOLYLINE
5
623
100
AcDbEntity
8
0
100
AcDbPolyline
90
4
70
1
43
0.0
10
-43.547774603462919
20
51.942217073324159
42
-0.41421356237359452
10
-43.469034445982587
20
52.020957230804491
42
-0.41421356237276202
10
-43.390294288502304
20
51.942217073324159
42
-0.41421356237309503
10
-43.469034445982587
20
51.863476915843826
42
-0.41421356237309503
0
LWPOLYLINE
5
624
100
AcDbEntity
8
0
100
AcDbPolyline
90
4
70
1
43
0.0
10
-32.078505875619513
20
60.339707857617064
42
-0.41421356237309503
10
-31.976143670895109
20
60.237345652892657
42
-0.41421356237309503
10
-32.078505875619513
20
60.134983448168249
42
-0.41421356237309503
10
-32.18086808034392
20
60.237345652892657
42
-0.41421356237309503
0
LWPOLYLINE
5
625
100
AcDbEntity
8
0
100
AcDbPolyline
90
4
70
1
43
0.0
10
-44.494502033981043
20
56.33365658967741
42
-0.41421356237309503
10
-44.59686423870545
20
56.436018794401903
42
-0.41421356237309503
10
-44.494502033981043
20
56.538380999126311
42
-0.41421356237309503
10
-44.392139829256642
20
56.436018794401903
42
-0.41421356237309503
0
LWPOLYLINE
5
626
100
AcDbEntity
8
0
100
AcDbPolyline
90
4
70
1
43
0.0
10
-31.29935814781906
20
59.067542473928192
42
-0.41421356237309503
10
-31.37809830529935
20
59.146282631408525
42
-0.41421356237309503
10
-31.29935814781906
20
59.225022788888815
42
-0.41421356237292856
10
-31.220617990338727
20
59.146282631408525
42
-0.41421356237309503
0
LWPOLYLINE
5
627
100
AcDbEntity
8
0
100
AcDbPolyline
90
4
70
1
43
0.0
10
-26.65958538120131
20
62.832689746816037
10
-26.65958538120131
20
61.722453526343578
10
-27.112341286713157
20
61.722453526343578
10
-27.112341286713157
20
62.832689746816037
0
ARC
5
628
100
AcDbEntity
8
0
100
AcDbCircle
10
-43.836151954717309
20
63.501084507204872
30
0
40
0.039370078740121668
210
-0
220
0
230
1
100
AcDbArc
50
0
51
90.000002575941352
0
LWPOLYLINE
5
629
100
AcDbEntity
8
0
100
AcDbPolyline
90
11
70
1
43
0.0
10
-44.405206937480081
20
62.674312318762567
10
-44.229852817269105
20
62.674312326645762
42
-0.41421352925879712
10
-44.190482736759051
20
62.634942254126727
10
-44.19048259368909
20
61.729525500833333
10
-44.619931115926448
20
61.729525496006701
10
-44.619931115926448
20
63.579730126462891
42
-0.41421354920569292
10
-44.580561038956262
20
63.619100205203011
10
-44.551939088551983
20
63.619100206489733
42
-0.41421357554049726
10
-44.512569008041929
20
63.579730127749613
10
-44.512569008041929
20
63.147420139028284
10
-44.405206900157317
20
63.147420143854873
0
LWPOLYLINE
5
630
100
AcDbEntity
8
0
100
AcDbPolyline
90
6
70
1
43
0.0
10
-24.825472682891565
20
63.223252755518423
42
-0.30369697790646411
10
-24.608937249820688
20
63.368138114078903
42
-0.30369697790646411
10
-24.392401816749842
20
63.223252755518416
10
-24.392401816749853
20
63.044519535631565
42
-0.30369697790646411
10
-24.608937249820688
20
62.899634177071022
42
-0.30369697790645572
10
-24.825472682891625
20
63.044519535631565
0
ARC
5
631
100
AcDbEntity
8
0
100
AcDbCircle
10
-32.355518047991573
20
59.146762377527438
30
0
40
0.17716535433074346
210
-0
220
0
230
1
100
AcDbArc
50
-44.989094980809
51
45.01090501917961
0
LWPOLYLINE
5
632
100
AcDbEntity
8
0
100
AcDbPolyline
90
4
70
1
43
0.0
10
-24.510980946143444
20
55.675931462802126
42
-0.41421356237309503
10
-24.589721103623777
20
55.597191305321793
42
-0.41421356237309503
10
-24.668461261104067
20
55.675931462802126
42
-0.41421356237309503
10
-24.589721103623777
20
55.754671620282458
42
-0.41421356237309503
0
LWPOLYLINE
5
633
100
AcDbEntity
8
0
100
AcDbPolyline
90
4
70
1
43
0.0
10
-45.933150225091204
20
57.772256232723969
42
-0.41421356237309503
10
-45.830788020366796
20
57.874618437448376
42
-0.41421356237309503
10
-45.728425815642389
20
57.772256232723969
42
-0.41421356237309503
10
-45.830788020366796
20
57.669894027999611
42
-0.41421356237296697
0
LWPOLYLINE
5
634
100
AcDbEntity
8
0
100
AcDbPolyline
90
4
70
1
43
0.0
10
-21.503583373456181
20
52.566475163457717
42
-0.41421356237342799
10
-21.582323530936559
20
52.645215320937965
42
-0.41421356237359452
10
-21.503583373456181
20
52.723955478418297
42
-0.41421356237276202
10
-21.424843215975891
20
52.645215320937965
42
-0.41421356237309503
0
ARC
5
635
100
AcDbEntity
8
0
100
AcDbCircle
10
-54.718426339751034
20
60.43583967818693
30
0
40
0.011811023621990657
210
-0
220
0
230
1
100
AcDbArc
50
303.55699603768807
51
359.99968627681045
0
LWPOLYLINE
5
636
100
AcDbEntity
8
0
100
AcDbPolyline
90
4
70
1
43
0.0
10
-31.220631651196886
20
56.585839342280238
42
-0.41421356237309503
10
-31.299371808677176
20
56.507099184799905
42
-0.41421356237309503
10
-31.378111966157508
20
56.585839342280238
42
-0.41421356237309503
10
-31.299371808677176
20
56.664579499760571
42
-0.41421356237276202
0
LWPOLYLINE
5
637
100
AcDbEntity
8
0
100
AcDbPolyline
90
4
70
1
43
0.0
10
-25.002282051689246
20
54.760441368590243
42
-0.41421356237309503
10
-24.923541894208913
20
54.839181526070583
42
-0.41421356237309503
10
-24.844801736728581
20
54.760441368590243
42
-0.41421356237309503
10
-24.923541894208913
20
54.68170121110991
42
-0.41421356237309503
0
LWPOLYLINE
5
638
100
AcDbEntity
8
0
100
AcDbPolyline
90
4
70
1
43
0.0
10
-26.17572824321557
20
60.316085809827833
42
-0.41421356237292856
10
-26.096988085735237
20
60.237345652347543
42
-0.41421356237309503
10
-26.17572824321557
20
60.15860549486721
42
-0.41421356237309503
10
-26.25446840069586
20
60.237345652347543
42
-0.41421356237309503
0
LWPOLYLINE
5
639
100
AcDbEntity
8
0
100
AcDbPolyline
90
4
70
1
43
0.0
10
-28.737941090611713
20
59.067555265656118
42
-0.41421356237292856
10
-28.816681248092046
20
59.146295423136408
42
-0.41421356237309503
10
-28.737941090611713
20
59.225035580616741
42
-0.41421356237309503
10
-28.65920093313138
20
59.146295423136408
42
-0.41421356237309503
0
ARC
5
640
100
AcDbEntity
8
0
100
AcDbCircle
10
-49.978555846519505
20
62.802268671088903
30
0
40
0.24606299212601429
210
0
220
0
230
1
100
AcDbArc
50
197.57745107481315
51
270
0
LWPOLYLINE
5
641
100
AcDbEntity
8
0
100
AcDbPolyline
90
4
70
1
43
0.0
10
-17.909539988472066
20
59.15736608350543
42
-0.41421356237309503
10
-17.677256523905168
20
58.925082618938532
42
-0.41421356237298218
10
-17.909539988472066
20
58.692799154371549
42
-0.41421356237309503
10
-18.14182345303896
20
58.925082618938532
42
-0.41421356237309503
0
LWPOLYLINE
5
642
100
AcDbEntity
8
0
100
AcDbPolyline
90
4
70
1
43
0.0
10
-17.00402817744855
20
59.157366088862233
42
-0.41421356237309503
10
-16.771744712881652
20
58.925082624295243
42
-0.41421356237315149
10
-17.00402817744855
20
58.692799159728345
42
-0.41421356237309503
10
-17.236311642015448
20
58.925082624295243
42
-0.41421356237309503
0
ARC
5
643
100
AcDbEntity
8
0
100
AcDbCircle
10
-49.978555846519505
20
62.802268671080981
30
0
40
0.246062992126029
210
0
220
0
230
1
100
AcDbArc
50
90
51
162.42254892517579
0
LWPOLYLINE
5
644
100
AcDbEntity
8
0
100
AcDbPolyline
90
4
70
1
43
0.0
10
-27.072355369155737
20
56.333656572299127
42
-0.41421356237309503
10
-27.174717573880098
20
56.436018777023527
42
-0.41421356237309503
10
-27.072355369155737
20
56.538380981747892
42
-0.41421356237296697
10
-26.969993164431333
20
56.436018777023527
42
-0.41421356237309503
0
LWPOLYLINE
5
645
100
AcDbEntity
8
0
100
AcDbPolyline
90
4
70
1
43
0.0
10
-45.728425815642389
20
56.436018794401903
42
-0.41421356237309503
10
-45.830788020366796
20
56.333656589677545
42
-0.41421356237296697
10
-45.933150225091204
20
56.436018794401903
42
-0.41421356237309503
10
-45.830788020366796
20
56.538380999126311
42
-0.41421356237309503
0
LWPOLYLINE
5
646
100
AcDbEntity
8
0
100
AcDbPolyline
90
4
70
1
43
0.0
10
-21.42482654972893
20
55.205668520381046
42
-0.41421356237309503
10
-21.503566707209263
20
55.126928362900799
42
-0.41421356237309503
10
-21.582306864689507
20
55.205668520381046
42
-0.41421356237259555
10
-21.503566707209263
20
55.284408677861379
42
-0.41421356237309503
0
LWPOLYLINE
5
647
100
AcDbEntity
8
0
100
AcDbPolyline
90
4
70
1
43
0.0
10
-54.506229498145487
20
64.058573406360097
42
-0.41421356237309503
10
-54.588906663499834
20
64.141250571714451
42
-0.41421356237293649
10
-54.506229498145487
20
64.223927737068749
42
-0.41421356237293649
10
-54.423552332791139
20
64.141250571714451
42
-0.41421356237309503
0
LWPOLYLINE
5
648
100
AcDbEntity
8
0
100
AcDbPolyline
90
4
70
1
43
0.0
10
-27.926555352049359
20
61.248403653996498
42
-0.41421356237286927
10
-28.158838816616303
20
61.480687118563395
42
-0.41421356237309503
10
-27.926555352049359
20
61.712970583130385
42
-0.41421356237309503
10
-27.694271887482465
20
61.480687118563395
42
-0.41421356237309503
0
LINE
5
649
100
AcDbEntity
8
0
100
AcDbLine
10
-24.990946193826947
20
55.080904963108239
30
0
11
-25.154365167672424
21
54.917426150951123
31
0
0
LWPOLYLINE
5
650
100
AcDbEntity
8
0
100
AcDbPolyline
90
6
70
1
43
0.0
10
-25.613209607341243
20
63.224971776104553
42
-0.30369697790646411
10
-25.396674174270366
20
63.369857134665033
42
-0.30369697790646411
10
-25.180138741199517
20
63.224971776104539
10
-25.180138741199542
20
63.046238556217695
42
-0.30369697790635136
10
-25.396674174270366
20
62.901353197657123
42
-0.30369697790650396
10
-25.613209607341304
20
63.046238556217695
0
LWPOLYLINE
5
651
100
AcDbEntity
8
0
100
AcDbPolyline
90
4
70
1
43
0.0
10
-30.18109242960022
20
62.985384181782692
42
-0.41421356237318385
10
-30.328730224875809
20
63.133021977058327
42
-0.41421356237309503
10
-30.18109242960022
20
63.280659772333912
42
-0.41421356237309503
10
-30.033454634324631
20
63.133021977058327
42
-0.41421356237309503
0
ARC
5
652
100
AcDbEntity
8
0
100
AcDbCircle
10
-54.718426339751119
20
60.43583967818693
30
0
40
0.011811023622124038
210
-0
220
0
230
1
100
AcDbArc
50
-0.00031372318952718704
51
56.442376514035054
0
LWPOLYLINE
5
653
100
AcDbEntity
8
0
100
AcDbPolyline
90
4
70
1
43
0.0
10
-32.276307140161499
20
56.585842223693327
42
-0.41421356237309503
10
-32.355047297641789
20
56.507102066213086
42
-0.41421356237309503
10
-32.433787455122122
20
56.585842223693327
42
-0.41421356237309503
10
-32.355047297641789
20
56.664582381173659
42
-0.41421356237309503
0
LINE
5
654
100
AcDbEntity
8
0
100
AcDbLine
10
-49.743981635755041
20
62.727958942666348
30
0
11
-49.743981635755127
21
62.876578399511466
31
0
0
LWPOLYLINE
5
655
100
AcDbEntity
8
0
100
AcDbPolyline
90
4
70
1
43
0.0
10
-26.597536101817823
20
60.316085809827918
42
-0.41421356237276202
10
-26.518795944337537
20
60.2373456523475
42
-0.41421356237309503
10
-26.597536101817823
20
60.158605494867167
42
-0.41421356237309503
10
-26.676276259298156
20
60.2373456523475
42
-0.41421356237309503
0
ARC
5
656
100
AcDbEntity
8
0
100
AcDbCircle
10
-32.672062762946368
20
59.136385171150032
30
0
40
0.039370078740138981
210
0
220
0
230
1
100
AcDbArc
50
232.81546649792313
51
315.01048793479242
0
LWPOLYLINE
5
657
100
AcDbEntity
8
0
100
AcDbPolyline
90
4
70
1
43
0.0
10
-37.287019112455098
20
62.80226868144166
42
-0.41421356237309503
10
-37.021271080959011
20
63.068016712937705
42
-0.41421356237309503
10
-36.755523049462965
20
62.80226868144166
42
-0.41421356237309503
10
-37.021271080959011
20
62.536520649945615
42
-0.41421356237309503
0
LINE
5
658
100
AcDbEntity
8
0
100
AcDbLine
10
-31.814071894284915
20
65.370194471506323
30
0
11
-31.051573512633759
21
64.568326011115005
31
0
0
LWPOLYLINE
5
659
100
AcDbEntity
8
0
100
AcDbPolyline
90
4
70
1
43
0.0
10
-34.995230531139306
20
48.817658556622575
42
-0.41421356237342799
10
-34.916490373658888
20
48.896398714102908
42
-0.41421356237276202
10
-34.837750216178556
20
48.817658556622575
42
-0.41421356237309503
10
-34.916490373658888
20
48.738918399142335
42
-0.41421356237342799
0
LWPOLYLINE
5
660
100
AcDbEntity
8
0
100
AcDbPolyline
90
4
70
1
43
0.0
10
-21.229164000116022
20
53.925440537730402
42
-0.41421356237309503
10
-22.784282110352258
20
52.370322427494251
42
-0.41421356237309503
10
-24.339400220588452
20
53.925440537730402
42
-0.41421356237309503
10
-22.784282110352258
20
55.480558647966639
42
-0.41421356237309503
0
LINE
5
661
100
AcDbEntity
8
0
100
AcDbLine
10
-27.827659934078326
20
47.121260683488025
30
0
11
-31.776742215014924
21
47.121260695326093
31
0
0
ARC
5
662
100
AcDbEntity
8
0
100
AcDbCircle
10
-25.126521222612361
20
54.889592397637934
30
0
40
0.039370078740169387
210
0
220
0
230
1
100
AcDbArc
50
135.01048793488749
51
217.20511280179448
0
LWPOLYLINE
5
663
100
AcDbEntity
8
0
100
AcDbPolyline
90
4
70
1
43
0.0
10
-45.162645027173966
20
56.612011529310969
42
-0.41421356237309503
10
-45.654771011425936
20
57.104137513562939
42
-0.41421356237309503
10
-45.162645027173966
20
57.596263497814903
42
-0.41421356237309503
10
-44.670519042921995
20
57.104137513562939
42
-0.41421356237309503
0
LWPOLYLINE
5
664
100
AcDbEntity
8
0
100
AcDbPolyline
90
4
70
1
43
0.0
10
-54.506229498145487
20
60.158605494867167
42
-0.41421356237309503
10
-54.584969655625819
20
60.2373456523475
42
-0.41421356237309503
10
-54.506229498145487
20
60.316085809827833
42
-0.41421356237309503
10
-54.427489340665197
20
60.2373456523475
42
-0.41421356237309503
0
ARC
5
665
100
AcDbEntity
8
0
100
AcDbCircle
10
-49.978555846519505
20
62.802268671088903
30
0
40
0.24606299212598423
210
-0
220
0
230
1
100
AcDbArc
50
270
51
342.42254892518685
0
LINE
5
666
100
AcDbEntity
8
0
100
AcDbLine
10
-35.04761509351885
20
48.168417378337786
30
0
11
-35.04761509351885
21
47.735346512196045
31
0
0
ARC
5
667
100
AcDbEntity
8
0
100
AcDbCircle
10
-32.365779617249757
20
58.830213634662705
30
0
40
0.039370078740201028
210
0
220
0
230
1
100
AcDbArc
50
135.01048793483631
51
217.20541581948279
0
LWPOLYLINE
5
668
100
AcDbEntity
8
0
100
AcDbPolyline
90
4
70
1
43
0.0
10
-52.559170798203425
20
62.312110432358978
42
-0.4142135623729471
10
-52.470588121038105
20
62.2235277551937
42
-0.41421356237324303
10
-52.559170798203425
20
62.134945078028252
42
-0.41421356237324303
10
-52.647753475368745
20
62.2235277551937
42
-0.41421356237309503
0
LWPOLYLINE
5
669
100
AcDbEntity
8
0
100
AcDbPolyline
90
4
70
1
43
0.0
10
-21.123984020665979
20
55.597213143239628
42
-0.41421356237309503
10
-21.202724178146269
20
55.675953300719961
42
-0.41421356237309503
10
-21.123984020665979
20
55.754693458200244
42
-0.41421356237292856
10
-21.045243863185647
20
55.675953300719961
42
-0.41421356237309503
0
LINE
5
670
100
AcDbEntity
8
0
100
AcDbLine
10
-32.230219383416959
20
59.021511399762986
30
0
11
-32.393638357262439
21
58.858032587605869
31
0
0
ARC
5
671
100
AcDbEntity
8
0
100
AcDbCircle
10
-43.864773905121588
20
63.501084505918065
30
0
40
0.039370078740211228
210
0
220
0
230
1
100
AcDbArc
50
90.000002575806931
51
180
0
ARC
5
672
100
AcDbEntity
8
0
100
AcDbCircle
10
-25.116244858401554
20
55.206155940872684
30
0
40
0.17716535433074346
210
-0
220
0
230
1
100
AcDbArc
50
-44.989094980809
51
45.010905019169869
0
LWPOLYLINE
5
673
100
AcDbEntity
8
0
100
AcDbPolyline
90
4
70
1
43
0.0
10
-17.008577335683647
20
57.627071108823905
42
-0.41421356237309503
10
-15.89174978768016
20
56.51024356082042
42
-0.41421356237309503
10
-17.008577335683647
20
55.393416012816886
42
-0.4142135623731068
10
-18.125404883687136
20
56.51024356082042
42
-0.41421356237309503
0
ARC
5
674
100
AcDbEntity
8
0
100
AcDbCircle
10
-25.116244858401554
20
55.206155940872684
30
0
40
0.17716535433074346
210
0
220
-0
230
1
100
AcDbArc
50
45.010905019169869
51
135.01090501916906
0
LWPOLYLINE
5
675
100
AcDbEntity
8
0
100
AcDbPolyline
90
4
70
1
43
0.0
10
-25.633707178045668
20
56.436018777023527
42
-0.41421356237309503
10
-25.736069382770076
20
56.333656572299034
42
-0.41421356237283891
10
-25.838431587494483
20
56.436018777023527
42
-0.41421356237296697
10
-25.736069382770076
20
56.538380981747935
42
-0.41421356237309503
0
LWPOLYLINE
5
676
100
AcDbEntity
8
0
100
AcDbPolyline
90
4
70
1
43
0.0
10
-53.979727906915798
20
50.536595540766733
42
-0.41421356237309503
10
-54.058468064396088
20
50.615335698246973
42
-0.41421356237309503
10
-53.979727906915798
20
50.694075855727306
42
-0.41421356237309503
10
-53.900987749435423
20
50.615335698246973
42
-0.41421356237342799
0
LWPOLYLINE
5
677
100
AcDbEntity
8
0
100
AcDbPolyline
90
6
70
1
43
0.0
10
-51.923344026549877
20
62.50305531424879
42
-0.41421356237309503
10
-51.824918829699484
20
62.404630117398398
10
-51.824918829699484
20
60.042425392988946
42
-0.41421356237309503
10
-51.923344026549877
20
59.944000196138553
42
-0.41421356237309503
10
-52.02176922340027
20
60.042425392988946
10
-52.02176922340027
20
62.404630117398398
42
-0.41421356237309503
0
SPLINE
5
678
100
AcDbEntity
8
0
100
AcDbSpline
70
0
71
3
72
15
73
11
74
0
42
0.000000001
43
0.0000000001
44
0.0000000001
40
0
40
0
40
0
40
0
40
16.98343887071087
40
35.853742041514124
40
73.123849678033821
40
101.54932196433083
40
132.58042561947377
40
156.27904721985988
40
175.72385219782836
40
195.78342590117893
40
195.78342590117893
40
195.78342590117893
40
195.78342590117893
10
-15.367969299931445
20
52.315014884151118
30
0
10
-15.377206966070645
20
52.091776174712393
30
0
10
-15.396708605364129
20
51.620496879463218
30
0
10
-15.676677405937463
20
50.689063222897332
30
0
10
-16.385083987398044
20
49.790410507937992
30
0
10
-17.410628113643927
20
49.035482350945529
30
0
10
-18.387871579048564
20
48.539172074762433
30
0
10
-19.299832554163967
20
48.196681150865132
30
0
10
-20.094183834852863
20
47.95599688030152
30
0
10
-20.59853347076367
20
47.835686410072867
30
0
10
-20.85480097398376
20
47.775252275078898
30
0
0
LWPOLYLINE
5
679
100
AcDbEntity
8
0
100
AcDbPolyline
90
4
70
1
43
0.0
10
-52.559170798203425
20
60.134945078028281
42
-0.41421356237309503
10
-52.647753475368788
20
60.223527755193686
42
-0.41421356237309503
10
-52.559170798203425
20
60.312110432359006
42
-0.41421356237309503
10
-52.470588121038062
20
60.223527755193686
42
-0.41421356237309503
0
LWPOLYLINE
5
680
100
AcDbEntity
8
0
100
AcDbPolyline
90
4
70
1
43
0.0
10
-43.655600609468593
20
63.687044528118911
42
-0.41421356237309503
10
-43.56701793230323
20
63.775627205284231
42
-0.41421356237309503
10
-43.478435255137867
20
63.687044528118911
42
-0.41421356237309503
10
-43.56701793230323
20
63.598461850953505
42
-0.41421356237309503
0
LINE
5
681
100
AcDbEntity
8
0
100
AcDbLine
10
-43.749515992927044
20
49.162428053342303
30
0
11
-50.009358512612117
21
49.162428053342303
31
0
0
ARC
5
682
100
AcDbEntity
8
0
100
AcDbCircle
10
-35.956279776949593
20
47.180315106291118
30
0
40
0.059055117911543852
210
0
220
0
230
1
100
AcDbArc
50
269.99999980719571
51
331.92751309385096
0
LINE
5
683
100
AcDbEntity
8
0
100
AcDbLine
10
-43.86477389616244
20
61.808171121378074
30
0
11
-43.836151945758161
21
61.808171120091352
31
0
0
ARC
5
684
100
AcDbEntity
8
0
100
AcDbCircle
10
-17.00402817744855
20
58.925082624295243
30
0
40
0.2322834645669864
210
0
220
-0
230
1
100
AcDbArc
50
0
51
90
0
LWPOLYLINE
5
685
100
AcDbEntity
8
0
100
AcDbPolyline
90
4
70
1
43
0.0
10
-16.405310304445639
20
58.223169302373222
42
-0.41421356237272089
10
-16.475389044603116
20
58.293248042530742
42
-0.41421356237309503
10
-16.405310304445639
20
58.363326782688176
42
-0.41421356237346918
10
-16.335231564288158
20
58.293248042530742
42
-0.41421356237309503
0
LWPOLYLINE
5
686
100
AcDbEntity
8
0
100
AcDbPolyline
90
4
70
1
43
0.0
10
-26.89633836021483
20
57.104137496184563
42
-0.4142135623730151
10
-26.404212375962906
20
57.596263480436527
42
-0.41421356237309503
10
-25.91208639171094
20
57.104137496184563
42
-0.41421356237309503
10
-26.404212375962906
20
56.612011511932593
42
-0.41421356237309503
0
ARC
5
687
100
AcDbEntity
8
0
100
AcDbCircle
10
-17.00402817744855
20
58.9250826242952
30
0
40
0.23228346456689689
210
-0
220
0
230
1
100
AcDbArc
50
-90
51
0
0
LWPOLYLINE
5
688
100
AcDbEntity
8
0
100
AcDbPolyline
90
4
70
1
43
0.0
10
-28.737957756858727
20
56.664582381173616
42
-0.41421356237326151
10
-28.65921759937844
20
56.585842223693327
42
-0.41421356237309503
10
-28.737957756858727
20
56.507102066212994
42
-0.41421356237309503
10
-28.816697914339059
20
56.585842223693327
42
-0.41421356237309503
0
LINE
5
689
100
AcDbEntity
8
0
100
AcDbLine
10
-32.480814888967622
20
59.272015179558103
30
0
11
-32.644233988361236
21
59.108536241806924
31
0
0
ARC
5
690
100
AcDbEntity
8
0
100
AcDbCircle
10
-50.009358512612117
20
49.201798132082466
30
0
40
0.039370078740121668
210
0
220
0
230
1
100
AcDbArc
50
180
51
270
0
ARC
5
691
100
AcDbEntity
8
0
100
AcDbCircle
10
-43.864773894392414
20
61.847541200118286
30
0
40
0.039370078740211187
210
0
220
0
230
1
100
AcDbArc
50
180
51
269.99999742405862
0
ARC
5
692
100
AcDbEntity
8
0
100
AcDbCircle
10
-50.009358512612117
20
52.430144588775399
30
0
40
0.039370078740121668
210
0
220
0
230
1
100
AcDbArc
50
90
51
180
0
LWPOLYLINE
5
693
100
AcDbEntity
8
0
100
AcDbPolyline
90
4
70
1
43
0.0
10
-24.784294239495861
20
59.515539064258746
42
-0.41421356237309503
10
-24.854372979653338
20
59.585617804416266
42
-0.41421356237309503
10
-24.784294239495861
20
59.655696544573701
42
-0.41421356237309503
10
-24.714215499338337
20
59.585617804416266
42
-0.41421356237309503
0
ARC
5
694
100
AcDbEntity
8
0
100
AcDbCircle
10
-26.396472760598748
20
53.92537914742352
30
0
40
1.5551469419672146
210
-0
220
0
230
1
100
AcDbArc
50
-26.393378809921494
51
37.211401225476088
0
LINE
5
695
100
AcDbEntity
8
0
100
AcDbLine
10
-35.937992011227948
20
61.598185661759985
30
0
11
-42.238590400488114
21
61.598185055421396
31
0
0
ARC
5
696
100
AcDbEntity
8
0
100
AcDbCircle
10
-35.84026554343852
20
47.183939892765224
30
0
40
0.05905511811058365
210
0
220
0
230
1
100
AcDbArc
50
212.06463154184246
51
270.00579932739168
0
ARC
5
697
100
AcDbEntity
8
0
100
AcDbCircle
10
-42.33562980650354
20
57.163194633464784
30
0
40
0.05905511811024431
210
-0
220
0
230
1
100
AcDbArc
50
-56.442690238144671
51
0
0
LINE
5
698
100
AcDbEntity
8
0
100
AcDbLine
10
-43.904143978650112
20
63.501084505918108
30
0
11
-43.904143978650019
21
61.847541200118243
31
0
0
ARC
5
699
100
AcDbEntity
8
0
100
AcDbCircle
10
-54.67925392936462
20
60.376784345586792
30
0
40
0.059055118110113901
210
0
220
0
230
1
100
AcDbArc
50
123.55699603800578
51
179.99968627681048
0
ARC
5
700
100
AcDbEntity
8
0
100
AcDbCircle
10
-42.335629803095351
20
57.045084394983405
30
0
40
0.059055118110272024
210
-0
220
0
230
1
100
AcDbArc
50
0
51
56.442694053612719
0
ARC
5
701
100
AcDbEntity
8
0
100
AcDbCircle
10
-35.937992011227863
20
47.959749298727353
30
0
40
0.039370078740121668
210
0
220
0
230
1
100
AcDbArc
50
-90.000000000124075
51
0
0
LINE
5
702
100
AcDbEntity
8
0
100
AcDbLine
10
-32.618268672981095
20
61.034771685124483
30
0
11
-32.618268672981095
21
63.790677196935505
31
0
0
LINE
5
703
100
AcDbEntity
8
0
100
AcDbLine
10
-43.796781870765493
20
61.847541198831472
30
0
11
-43.796781870765493
21
63.50108450720483
31
0
0
ARC
5
704
100
AcDbEntity
8
0
100
AcDbCircle
10
-17.00402817744855
20
58.925082624295243
30
0
40
0.23228346456689689
210
0
220
0
230
1
100
AcDbArc
50
90
51
180
0
ARC
5
705
100
AcDbEntity
8
0
100
AcDbCircle
10
-30.504762261465665
20
65.254126709583801
30
0
40
0.87711181865502019
210
0
220
0
230
1
100
AcDbArc
50
231.43350271024957
51
270.65100843503274
0
LINE
5
706
100
AcDbEntity
8
0
100
AcDbLine
10
-43.749515992927044
20
52.469514667515519
30
0
11
-50.009358512612117
21
52.469514667515519
31
0
0
ARC
5
707
100
AcDbEntity
8
0
100
AcDbCircle
10
-54.679253282650059
20
60.494894581805411
30
0
40
0.059055118110262123
210
0
220
0
230
1
100
AcDbArc
50
179.99968627681048
51
236.44237651413303
0
LINE
5
708
100
AcDbEntity
8
0
100
AcDbLine
10
-39.05488901941554
20
64.56832601595292
30
0
11
-38.29239064260225
21
65.370194471506323
31
0
0
ARC
5
709
100
AcDbEntity
8
0
100
AcDbCircle
10
-33.635746034537775
20
57.866067440485722
30
0
40
1.5551181102362346
210
-0
220
0
230
1
100
AcDbArc
50
-48.892071510855025
51
37.205415819526436
0
ARC
5
710
100
AcDbEntity
8
0
100
AcDbCircle
10
-54.679232349089446
20
64.318016413523253
30
0
40
0.059055118110048231
210
0
220
-0
230
1
100
AcDbArc
50
89.999999944326106
51
179.99968627681048
0
ARC
5
711
100
AcDbEntity
8
0
100
AcDbCircle
10
-39.601700275421599
20
65.254126709583943
30
0
40
0.87711181865516774
210
0
220
0
230
1
100
AcDbArc
50
269.3489915649734
51
308.56649728975145
0
LINE
5
712
100
AcDbEntity
8
0
100
AcDbLine
10
-43.749515992927044
20
49.201798132082466
30
0
11
-50.009358512612117
21
49.201798132082466
31
0
0
LINE
5
713
100
AcDbEntity
8
0
100
AcDbLine
10
-50.048728591352237
20
49.201798132082466
30
0
11
-50.048728591352237
21
52.430144588775399
31
0
0
LINE
5
714
100
AcDbEntity
8
0
100
AcDbLine
10
-54.738308400759436
20
60.494894905162553
30
0
11
-54.738287467198639
21
64.318016736880267
31
0
0
LWPOLYLINE
5
715
100
AcDbEntity
8
0
100
AcDbPolyline
90
4
70
1
43
0.0
10
-19.954874036789985
20
61.722453526343578
10
-19.954874036789985
20
62.832689746816037
10
-19.502118131278227
20
62.832689746816037
10
-19.502118131278227
20
61.722453526343578
0
LWPOLYLINE
5
716
100
AcDbEntity
8
0
100
AcDbPolyline
90
4
70
1
43
0.0
10
-19.368259863561725
20
61.722453526343578
10
-19.368259863561725
20
62.832689746816037
10
-18.915503958049879
20
62.832689746816037
10
-18.915503958049879
20
61.722453526343578
0
ARC
5
717
100
AcDbEntity
8
0
100
AcDbCircle
10
-15.387849334055092
20
60.435624502243186
30
0
40
0.011811023622076974
210
0
220
0
230
1
100
AcDbArc
50
123.56226046762373
51
180
0
LWPOLYLINE
5
718
100
AcDbEntity
8
0
100
AcDbPolyline
90
4
70
1
43
0.0
10
-15.521492881261395
20
60.2373456523475
42
-0.41421356237309503
10
-15.600233038741683
20
60.158605494867167
42
-0.41421356237309503
10
-15.678973196222017
20
60.2373456523475
42
-0.41421356237309503
10
-15.600233038741683
20
60.316085809827833
42
-0.41421356237309503
0
ARC
5
719
100
AcDbEntity
8
0
100
AcDbCircle
10
-33.635746034537867
20
57.866067440485764
30
0
40
1.555118110236261
210
0
220
0
230
1
100
AcDbArc
50
225.01044115876877
51
311.1079284891465
0
ARC
5
720
100
AcDbEntity
8
0
100
AcDbCircle
10
-15.426920717004391
20
64.318016375347881
30
0
40
0.059055118110003101
210
-0
220
0
230
1
100
AcDbArc
50
-0.0017677630240140287
51
44.999116090550444
0
LINE
5
721
100
AcDbEntity
8
0
100
AcDbLine
10
-17.0351702796771
20
62.362587347248791
30
0
11
-17.324480091816866
21
62.651897159388554
31
0
0
ARC
5
722
100
AcDbEntity
8
0
100
AcDbCircle
10
-15.387849334055183
20
60.435624502243186
30
0
40
0.011811023622036501
210
0
220
0
230
1
100
AcDbArc
50
180
51
236.43773953274248
0
ARC
5
723
100
AcDbEntity
8
0
100
AcDbCircle
10
-33.635775058736513
20
53.925440537730353
30
0
40
1.5551181102361753
210
0
220
-0
230
1
100
AcDbArc
50
52.815466498010935
51
138.91295382839434
0
LINE
5
724
100
AcDbEntity
8
0
100
AcDbLine
10
-32.961000920290523
20
48.365267772038571
30
0
11
-34.850764699818065
21
48.365267772038571
31
0
0
ARC
5
725
100
AcDbEntity
8
0
100
AcDbCircle
10
-33.635775058736513
20
50.097886654828194
30
0
40
1.5551181102360869
210
0
220
-0
230
1
100
AcDbArc
50
52.815466498004106
51
138.91295382839721
0
LWPOLYLINE
5
726
100
AcDbEntity
8
0
100
AcDbPolyline
90
4
70
1
43
0.0
10
-21.531587232566661
20
58.692799157049947
42
-0.41421356237309503
10
-21.763870697133601
20
58.925082621616845
42
-0.41421356237309503
10
-21.531587232566661
20
59.157366086183835
42
-0.41421356237309503
10
-21.299303767999763
20
58.925082621616845
42
-0.41421356237309503
0
LWPOLYLINE
5
727
100
AcDbEntity
8
0
100
AcDbPolyline
90
4
70
1
43
0.0
10
-20.454821523542886
20
57.500561432792693
42
-0.41421356237290746
10
-20.384934012464353
20
57.43067392171416
42
-0.41421356237328266
10
-20.454821523542886
20
57.360786410635534
42
-0.41421356237328266
10
-20.524709034621424
20
57.43067392171416
42
-0.41421356237309503
0
LWPOLYLINE
5
728
100
AcDbEntity
8
0
100
AcDbPolyline
90
4
70
1
43
0.0
10
-20.626075421542964
20
59.157366082581305
42
-0.41421356237309503
10
-20.39379195697607
20
58.925082618014407
42
-0.41421356237309503
10
-20.626075421542964
20
58.692799153447417
42
-0.41421356237309503
10
-20.858358886109908
20
58.925082618014407
42
-0.41421356237309503
0
LWPOLYLINE
5
729
100
AcDbEntity
8
0
100
AcDbPolyline
90
4
70
1
43
0.0
10
-22.437099043590262
20
59.157366086183835
42
-0.41421356237309503
10
-22.204815579023276
20
58.925082621616845
42
-0.4142135623732644
10
-22.437099043590262
20
58.692799157049947
42
-0.41421356237309503
10
-22.669382508157117
20
58.925082621616845
42
-0.41421356237298218
0
ARC
5
730
100
AcDbEntity
8
0
100
AcDbCircle
10
-33.635775058736513
20
50.097886654828237
30
0
40
1.5551181102363558
210
0
220
0
230
1
100
AcDbArc
50
225.01044115877707
51
311.10792848914423
0
LWPOLYLINE
5
731
100
AcDbEntity
8
0
100
AcDbPolyline
90
4
70
1
43
0.0
10
-20.728674466897424
20
61.711491378244808
42
-0.41421356237309503
10
-20.49639100233053
20
61.479207913677911
42
-0.41421356237309503
10
-20.728674466897424
20
61.246924449111013
42
-0.41421356237309503
10
-20.960957931464367
20
61.479207913677911
42
-0.41421356237309503
0
LINE
5
732
100
AcDbEntity
8
0
100
AcDbLine
10
-37.735613649541889
20
65.600819053249239
30
0
11
-32.370848887345289
21
65.600819053249239
31
0
0
LWPOLYLINE
5
733
100
AcDbEntity
8
0
100
AcDbPolyline
90
4
70
1
43
0.0
10
-23.878764676760415
20
61.246870831397054
42
-0.41421356237292573
10
-24.111048141327355
20
61.479154295964001
42
-0.41421356237309503
10
-23.878764676760415
20
61.711437760530984
42
-0.41421356237309503
10
-23.646481212193429
20
61.479154295964001
42
-0.4142135623732644
0
LWPOLYLINE
5
734
100
AcDbEntity
8
0
100
AcDbPolyline
90
4
70
1
43
0.0
10
-23.091124167287454
20
61.711501310129485
42
-0.41421356237309503
10
-22.858840702720556
20
61.479217845562495
42
-0.41421356237315149
10
-23.091124167287454
20
61.246934380995597
42
-0.41421356237309503
10
-23.323407631854394
20
61.479217845562495
42
-0.41421356237309503
0
LWPOLYLINE
5
735
100
AcDbEntity
8
0
100
AcDbPolyline
90
4
70
1
43
0.0
10
-22.071141190602063
20
61.479396965765496
42
-0.41421356237309503
10
-22.303424655169003
20
61.247113501198598
42
-0.41421356237309503
10
-22.535708119735901
20
61.479396965765496
42
-0.41421356237309503
10
-22.303424655169003
20
61.711680430332478
42
-0.41421356237309503
0
LWPOLYLINE
5
736
100
AcDbEntity
8
0
100
AcDbPolyline
90
4
70
1
43
0.0
10
-21.282505017554474
20
61.479581376974238
42
-0.41421356237309503
10
-21.514788482121414
20
61.24729791240734
42
-0.41421356237309503
10
-21.747071946688358
20
61.479581376974238
42
-0.41421356237309503
10
-21.514788482121414
20
61.711864841541228
42
-0.41421356237309503
0
ARC
5
737
100
AcDbEntity
8
0
100
AcDbCircle
10
-17.409495695384368
20
62.277571743681293
30
0
40
0.38385826771652426
210
-0
220
0
230
1
100
AcDbArc
50
-45
51
12.795772496028089
0
LWPOLYLINE
5
738
100
AcDbEntity
8
0
100
AcDbPolyline
90
4
70
1
43
0.0
10
-15.600233038741683
20
64.058573406360011
42
-0.41421356237325357
10
-15.682910204096029
20
64.141250571714394
42
-0.41421356237309503
10
-15.600233038741683
20
64.223927737068749
42
-0.41421356237309503
10
-15.517555873387339
20
64.141250571714394
42
-0.41421356237309503
0
ARC
5
739
100
AcDbEntity
8
0
100
AcDbCircle
10
-17.409495695384368
20
62.277571743681335
30
0
40
0.38385826771656789
210
0
220
0
230
1
100
AcDbArc
50
257.20422750397188
51
314.99999999999545
0
ARC
5
740
100
AcDbEntity
8
0
100
AcDbCircle
10
-17.409495695384368
20
62.277571743681335
30
0
40
0.38385826771651893
210
0
220
-0
230
1
100
AcDbArc
50
77.204227502585795
51
134.99999999861561
0
ARC
5
741
100
AcDbEntity
8
0
100
AcDbCircle
10
-17.409495695384368
20
62.277571743681335
30
0
40
0.3838582677165559
210
0
220
0
230
1
100
AcDbArc
50
134.99999999861561
51
192.7957724946383
0
ARC
5
742
100
AcDbEntity
8
0
100
AcDbCircle
10
-15.427015947394874
20
60.494659319261189
30
0
40
0.059034817616890022
210
-0
220
0
230
1
100
AcDbArc
50
-56.437739532440474
51
0.51833177904507377
0
ARC
5
743
100
AcDbEntity
8
0
100
AcDbCircle
10
-15.426920717004302
20
64.318016375348023
30
0
40
0.059055118109817104
210
0
220
-0
230
1
100
AcDbArc
50
44.999116090513887
51
89.999999944329559
0
ARC
5
744
100
AcDbEntity
8
0
100
AcDbCircle
10
-15.427015947394874
20
60.376589685225184
30
0
40
0.05903481761688633
210
-0
220
0
230
1
100
AcDbArc
50
-0.5183317790450731
51
56.437739532440489
0
LINE
5
745
100
AcDbEntity
8
0
100
AcDbLine
10
-15.367865598922496
20
64.318014553303357
30
0
11
-15.367983545492878
21
60.495193376130985
31
0
0
LINE
5
746
100
AcDbEntity
8
0
100
AcDbLine
10
-17.783821111091633
20
62.192556140113837
30
0
11
-17.494511298951867
21
61.903246327974067
31
0
0
SPLINE
5
747
100
AcDbEntity
8
0
100
AcDbSpline
70
0
71
3
72
14
73
10
74
0
42
0.000000001
43
0.0000000001
44
0.0000000001
40
0
40
0
40
0
40
0
40
94.074213406790932
40
190.22246044394524
40
260.82798094401551
40
305.05722477397285
40
337.93346459869917
40
356.48090088397203
40
372.11344451039531
40
372.11344451039531
40
372.11344451039531
40
372.11344451039531
10
-42.339027418100187
20
47.1283827836047
30
0
10
-43.573778146249296
20
47.158733601724059
30
0
10
-46.070366656446566
20
47.222474744346052
30
0
10
-49.470293309662402
20
47.718811146764942
30
0
10
-52.114821616492549
20
48.628662827072375
30
0
10
-53.725901176915414
20
49.754883759387674
30
0
10
-54.475794645658837
20
50.801151833958798
30
0
10
-54.712515588667998
20
51.660442358698305
30
0
10
-54.730244638926514
20
52.109426462795213
30
0
10
-54.738353191135658
20
52.314773675198452
30
0
0
LWPOLYLINE
5
748
100
AcDbEntity
8
0
100
AcDbPolyline
90
4
70
1
43
0.0
10
-19.047335264062699
20
58.925082621616845
42
-0.41421356237309503
10
-18.815051799495759
20
59.157366086183742
42
-0.41421356237309503
10
-18.582768334928861
20
58.925082621616845
42
-0.41421356237315149
10
-18.815051799495759
20
58.692799157049947
42
-0.41421356237309503
0
ARC
5
749
100
AcDbEntity
8
0
100
AcDbCircle
10
-33.635746034537867
20
57.866067440485629
30
0
40
1.5551181102363907
210
0
220
-0
230
1
100
AcDbArc
50
52.815466498008718
51
138.91295382838393
0
LWPOLYLINE
5
750
100
AcDbEntity
8
0
100
AcDbPolyline
90
4
70
1
43
0.0
10
-19.720563610519363
20
59.15736608350543
42
-0.41421356237309503
10
-19.488280145952466
20
58.925082618938532
42
-0.41421356237309503
10
-19.720563610519363
20
58.692799154371642
42
-0.41421356237309503
10
-19.952847075086304
20
58.925082618938532
42
-0.41421356237309503
0
LINE
5
751
100
AcDbEntity
8
0
100
AcDbLine
10
-15.367983545492878
20
60.376055628355388
30
0
11
-15.367969299931357
21
52.315014884151076
31
0
0
LINE
5
752
100
AcDbEntity
8
0
100
AcDbLine
10
-54.679232349032063
20
64.377071531633305
30
0
11
-39.611666013690744
21
64.377071516979115
31
0
0
LWPOLYLINE
5
753
100
AcDbEntity
8
0
100
AcDbPolyline
90
4
70
1
43
0.0
10
-18.414628309559522
20
56.503131028481789
42
-0.41421356237309503
10
-19.531455857562964
20
55.386303480478304
42
-0.41421356237309503
10
-20.648283405566453
20
56.503131028481789
42
-0.41421356237309503
10
-19.531455857562964
20
57.619958576485189
42
-0.41421356237309503
0
LINE
5
754
100
AcDbEntity
8
0
100
AcDbLine
10
-31.894836783240173
20
47.121260157092138
30
0
11
-35.840259566035535
21
47.124884774957174
31
0
0
LWPOLYLINE
5
755
100
AcDbEntity
8
0
100
AcDbPolyline
90
4
70
1
43
0.0
10
-44.833982251847281
20
60.2373456523475
42
-0.41421356237309503
10
-44.912722409327571
20
60.15860549486721
42
-0.41421356237259555
10
-44.991462566807904
20
60.2373456523475
42
-0.41421356237309503
10
-44.912722409327571
20
60.316085809827833
42
-0.41421356237309503
0
LINE
5
756
100
AcDbEntity
8
0
100
AcDbLine
10
-33.208819854083458
20
63.790677196935505
30
0
11
-33.208819854083458
21
61.034771685124483
31
0
0
ARC
5
757
100
AcDbEntity
8
0
100
AcDbCircle
10
-17.00402817744855
20
58.925082624295243
30
0
40
0.23228346456689689
210
0
220
0
230
1
100
AcDbArc
50
180
51
270
0
ARC
5
758
100
AcDbEntity
8
0
100
AcDbCircle
10
-33.635775058736336
20
53.925440537730267
30
0
40
1.5551181102364462
210
0
220
0
230
1
100
AcDbArc
50
138.91295382839627
51
225.01044115876542
0
LINE
5
759
100
AcDbEntity
8
0
100
AcDbLine
10
-42.276574688393268
20
57.163194633464869
30
0
11
-42.277960473482935
21
61.558802564640352
31
0
0
SPLINE
5
760
100
AcDbEntity
8
0
100
AcDbSpline
70
0
71
3
72
11
73
7
74
0
42
0.000000001
43
0.0000000001
44
0.0000000001
40
0
40
0
40
0
40
0
40
39.493341781749223
40
98.709185770871045
40
159.57806044535982
40
175.04390341281442
40
175.04390341281442
40
175.04390341281442
40
175.04390341281442
10
-20.975080722370603
20
47.748772455780248
30
0
10
-21.483880356996657
20
47.648752706665135
30
0
10
-22.755821928491748
20
47.400406869580117
30
0
10
-24.845978130517175
20
47.218067178506033
30
0
10
-26.623295252910758
20
47.151870333397966
30
0
10
-27.624757959288239
20
47.126417558736392
30
0
10
-27.827659934078326
20
47.121260683488025
30
0
0
LINE
5
761
100
AcDbEntity
8
0
100
AcDbLine
10
-35.898621932487735
20
61.558815583019815
30
0
11
-35.898621932487735
21
47.959749298727395
31
0
0
LWPOLYLINE
5
762
100
AcDbEntity
8
0
100
AcDbPolyline
90
4
70
1
43
0.0
10
-45.308390778639804
20
60.15860549486721
42
-0.41421356237309503
10
-45.387130936120087
20
60.237345652347543
42
-0.41421356237309503
10
-45.308390778639804
20
60.316085809827918
42
-0.41421356237259555
10
-45.229650621159557
20
60.237345652347543
42
-0.41421356237276202
0
LWPOLYLINE
5
763
100
AcDbEntity
8
0
100
AcDbPolyline
90
4
70
1
43
0.0
10
-18.604949808491071
20
57.361688412880518
42
-0.41421356237290746
10
-18.674837319569605
20
57.431575923959059
42
-0.41421356237309503
10
-18.604949808491071
20
57.501463435037593
42
-0.41421356237290746
10
-18.535062297412534
20
57.431575923959059
42
-0.41421356237309503
0
LINE
5
764
100
AcDbEntity
8
0
100
AcDbLine
10
-54.738353191135658
20
52.314773675198452
30
0
11
-54.738309047473813
21
60.376784668943849
31
0
0
LINE
5
765
100
AcDbEntity
8
0
100
AcDbLine
10
-30.494796520339129
20
64.377071508112351
30
0
11
-15.426920716946922
21
64.37707149345789
31
0
0
LINE
5
766
100
AcDbEntity
8
0
100
AcDbLine
10
-42.275868857444095
20
47.959507041958055
30
0
11
-42.276574684985079
21
57.045084394707914
31
0
0
ARC
5
767
100
AcDbEntity
8
0
100
AcDbCircle
10
-37.73561364954206
20
64.813417478446368
30
0
40
0.78740157480288098
210
0
220
-0
230
1
100
AcDbArc
50
89.999999999987594
51
135.00000000001205
0
LINE
5
768
100
AcDbEntity
8
0
100
AcDbLine
10
-43.710145914186924
20
49.201798132082466
30
0
11
-43.710145914186924
21
52.430144588775399
31
0
0
LWPOLYLINE
5
769
100
AcDbEntity
8
0
100
AcDbPolyline
90
4
70
1
43
0.0
10
-35.736340543281514
20
52.576404515098744
42
-0.41421356237359452
10
-35.657600385801132
20
52.655144672579077
42
-0.41421356237276202
10
-35.578860228320892
20
52.576404515098744
42
-0.41421356237259555
10
-35.657600385801132
20
52.497664357618497
42
-0.41421356237342799
0
ARC
5
770
100
AcDbEntity
8
0
100
AcDbCircle
10
-49.978555846519505
20
62.802268671080981
30
0
40
0.24606299212602781
210
0
220
-0
230
1
100
AcDbArc
50
17.577451074824204
51
90
0
ARC
5
771
100
AcDbEntity
8
0
100
AcDbCircle
10
-43.74951599292713
20
52.430144588775356
30
0
40
0.039370078740211187
210
0
220
-0
230
1
100
AcDbArc
50
0
51
89.999999999875911
0
ARC
5
772
100
AcDbEntity
8
0
100
AcDbCircle
10
-43.836151943988227
20
61.847541198831522
30
0
40
0.039370078740166466
210
0
220
0
230
1
100
AcDbArc
50
-90.000002575806903
51
0
0
ARC
5
773
100
AcDbEntity
8
0
100
AcDbCircle
10
-32.37084888734519
20
64.813417478446269
30
0
40
0.78740157480299766
210
0
220
-0
230
1
100
AcDbArc
50
44.999999999988667
51
90.000000000007233
0
ARC
5
774
100
AcDbEntity
8
0
100
AcDbCircle
10
-35.937992011227948
20
61.558815583019815
30
0
40
0.039370078740211187
210
0
220
-0
230
1
100
AcDbArc
50
0
51
90
0
ARC
5
775
100
AcDbEntity
8
0
100
AcDbCircle
10
-43.749515992927044
20
49.201798132082466
30
0
40
0.039370078740166431
210
-0
220
0
230
1
100
AcDbArc
50
-90
51
0
0
LINE
5
776
100
AcDbEntity
8
0
100
AcDbLine
10
-50.213130057283969
20
62.876578399511466
30
0
11
-50.213130057283969
21
62.727958942666348
31
0
0
ARC
5
777
100
AcDbEntity
8
0
100
AcDbCircle
10
-32.355518047991573
20
59.146762377527438
30
0
40
0.1771653543307751
210
0
220
-0
230
1
100
AcDbArc
50
45.01090501917961
51
135.010905019191
0
LWPOLYLINE
5
778
100
AcDbEntity
8
0
100
AcDbPolyline
90
4
70
1
43
0.0
10
-20.729918876306204
20
60.339707857617064
42
-0.41421356237309503
10
-20.627556671581797
20
60.237345652892657
42
-0.41421356237309503
10
-20.729918876306204
20
60.134983448168249
42
-0.41421356237309503
10
-20.832281081030608
20
60.237345652892657
42
-0.41421356237309503
0
ARC
5
779
100
AcDbEntity
8
0
100
AcDbCircle
10
-33.635775058736513
20
53.925440537730445
30
0
40
1.5551181102364193
210
0
220
0
230
1
100
AcDbArc
50
225.01044115877468
51
311.10792848914326
0
LINE
5
780
100
AcDbEntity
8
0
100
AcDbLine
10
-15.399660357677218
20
60.435624502243186
30
0
11
-54.706615316129174
21
60.435839613515505
31
0
0
LINE
5
781
100
AcDbEntity
8
0
100
AcDbLine
10
-35.898621932487735
20
47.98257882364387
30
0
11
-35.898621932487735
21
47.124938391841276
31
0
0
LINE
5
782
100
AcDbEntity
8
0
100
AcDbLine
10
-42.275875940566188
20
48.050682396635743
30
0
11
-42.275801164442747
21
47.088146591377324
31
0
0
ENDSEC
0
SECTION
2
OBJECTS
0
DICTIONARY
5
C
100
AcDbDictionary
3
ACAD_GROUP
350
D
3
ACAD_MLINESTYLE
350
17
0
DICTIONARY
5
D
100
AcDbDictionary
0
DICTIONARY
5
1A
330
C
100
AcDbDictionary
0
DICTIONARY
5
17
100
AcDbDictionary
0
ENDSEC
0
EOF
