  0
SECTION
  2
HEADER
  9
$ACADVER
  1
AC1014
  9
$ACADMAINTVER
 70
     9
  9
$DWGCODEPAGE
  3
ANSI_1252
  9
$INSBASE
 10
0.0
 20
0.0
 30
0.0
  9
$EXTMIN
 10
134.9346147649927
 20
355.0492749302958
 30
0.0
  9
$EXTMAX
 10
733.0599158933969
 20
492.0233200308208
 30
0.0
  9
$LIMMIN
 10
0.0
 20
0.0
  9
$LIMMAX
 10
420.0
 20
297.0
  9
$ORTHOMODE
 70
     0
  9
$REGENMODE
 70
     1
  9
$FILLMODE
 70
     1
  9
$QTEXTMODE
 70
     0
  9
$MIRRTEXT
 70
     1
  9
$DRAGMODE
 70
     2
  9
$LTSCALE
 40
1.0
  9
$OSMODE
 70
  2831
  9
$ATTMODE
 70
     1
  9
$TEXTSIZE
 40
2.5
  9
$TRACEWID
 40
1.0
  9
$TEXTSTYLE
  7
STANDARD
  9
$CLAYER
  8
0
  9
$CELTYPE
  6
BYLAYER
  9
$CECOLOR
 62
   256
  9
$CELTSCALE
 40
1.0
  9
$DELOBJ
 70
     1
  9
$DISPSILH
 70
     0
  9
$DIMSCALE
 40
1.0
  9
$DIMASZ
 40
2.5
  9
$DIMEXO
 40
0.625
  9
$DIMDLI
 40
3.75
  9
$DIMRND
 40
0.0
  9
$DIMDLE
 40
0.0
  9
$DIMEXE
 40
1.25
  9
$DIMTP
 40
0.0
  9
$DIMTM
 40
0.0
  9
$DIMTXT
 40
2.5
  9
$DIMCEN
 40
2.5
  9
$DIMTSZ
 40
0.0
  9
$DIMTOL
 70
     0
  9
$DIMLIM
 70
     0
  9
$DIMTIH
 70
     0
  9
$DIMTOH
 70
     0
  9
$DIMSE1
 70
     0
  9
$DIMSE2
 70
     0
  9
$DIMTAD
 70
     1
  9
$DIMZIN
 70
     8
  9
$DIMBLK
  1

  9
$DIMASO
 70
     1
  9
$DIMSHO
 70
     1
  9
$DIMPOST
  1

  9
$DIMAPOST
  1

  9
$DIMALT
 70
     0
  9
$DIMALTD
 70
     3
  9
$DIMALTF
 40
0.03937007874016
  9
$DIMLFAC
 40
1.0
  9
$DIMTOFL
 70
     1
  9
$DIMTVP
 40
0.0
  9
$DIMTIX
 70
     0
  9
$DIMSOXD
 70
     0
  9
$DIMSAH
 70
     0
  9
$DIMBLK1
  1

  9
$DIMBLK2
  1

  9
$DIMSTYLE
  2
ISO-25
  9
$DIMCLRD
 70
     0
  9
$DIMCLRE
 70
     0
  9
$DIMCLRT
 70
     0
  9
$DIMTFAC
 40
1.0
  9
$DIMGAP
 40
0.625
  9
$DIMJUST
 70
     0
  9
$DIMSD1
 70
     0
  9
$DIMSD2
 70
     0
  9
$DIMTOLJ
 70
     0
  9
$DIMTZIN
 70
     8
  9
$DIMALTZ
 70
     0
  9
$DIMALTTZ
 70
     0
  9
$DIMFIT
 70
     3
  9
$DIMUPT
 70
     0
  9
$DIMUNIT
 70
     2
  9
$DIMDEC
 70
     2
  9
$DIMTDEC
 70
     2
  9
$DIMALTU
 70
     2
  9
$DIMALTTD
 70
     3
  9
$DIMTXSTY
  7
STANDARD
  9
$DIMAUNIT
 70
     0
  9
$LUNITS
 70
     2
  9
$LUPREC
 70
     4
  9
$SKETCHINC
 40
1.0
  9
$FILLETRAD
 40
10.0
  9
$AUNITS
 70
     0
  9
$AUPREC
 70
     0
  9
$MENU
  1
.
  9
$ELEVATION
 40
0.0
  9
$PELEVATION
 40
0.0
  9
$THICKNESS
 40
0.0
  9
$LIMCHECK
 70
     0
  9
$BLIPMODE
 70
     0
  9
$CHAMFERA
 40
10.0
  9
$CHAMFERB
 40
10.0
  9
$CHAMFERC
 40
20.0
  9
$CHAMFERD
 40
0.0
  9
$SKPOLY
 70
     0
  9
$TDCREATE
 40
2452681.451446169
  9
$TDUPDATE
 40
2452691.619014109
  9
$TDINDWG
 40
0.0120405671
  9
$TDUSRTIMER
 40
0.0120405671
  9
$USRTIMER
 70
     1
  9
$ANGBASE
 50
0.0
  9
$ANGDIR
 70
     0
  9
$PDMODE
 70
     0
  9
$PDSIZE
 40
0.0
  9
$PLINEWID
 40
0.0
  9
$COORDS
 70
     0
  9
$SPLFRAME
 70
     0
  9
$SPLINETYPE
 70
     6
  9
$SPLINESEGS
 70
     8
  9
$ATTDIA
 70
     0
  9
$ATTREQ
 70
     1
  9
$HANDLING
 70
 10241
  9
$HANDSEED
  5
123
  9
$SURFTAB1
 70
     6
  9
$SURFTAB2
 70
     6
  9
$SURFTYPE
 70
     6
  9
$SURFU
 70
     6
  9
$SURFV
 70
     6
  9
$UCSNAME
  2

  9
$UCSORG
 10
0.0
 20
0.0
 30
0.0
  9
$UCSXDIR
 10
1.0
 20
0.0
 30
0.0
  9
$UCSYDIR
 10
0.0
 20
1.0
 30
0.0
  9
$PUCSNAME
  2

  9
$PUCSORG
 10
0.0
 20
0.0
 30
0.0
  9
$PUCSXDIR
 10
1.0
 20
0.0
 30
0.0
  9
$PUCSYDIR
 10
0.0
 20
1.0
 30
0.0
  9
$USERI1
 70
     0
  9
$USERI2
 70
     0
  9
$USERI3
 70
     0
  9
$USERI4
 70
     0
  9
$USERI5
 70
     0
  9
$USERR1
 40
0.0
  9
$USERR2
 40
0.0
  9
$USERR3
 40
0.0
  9
$USERR4
 40
0.0
  9
$USERR5
 40
0.0
  9
$WORLDVIEW
 70
     1
  9
$SHADEDGE
 70
     3
  9
$SHADEDIF
 70
    70
  9
$TILEMODE
 70
     1
  9
$MAXACTVP
 70
    64
  9
$PINSBASE
 10
0.0
 20
0.0
 30
0.0
  9
$PLIMCHECK
 70
     0
  9
$PEXTMIN
 10
1.000000000000000E+20
 20
1.000000000000000E+20
 30
1.000000000000000E+20
  9
$PEXTMAX
 10
-1.000000000000000E+20
 20
-1.000000000000000E+20
 30
-1.000000000000000E+20
  9
$PLIMMIN
 10
0.0
 20
0.0
  9
$PLIMMAX
 10
420.0
 20
297.0
  9
$UNITMODE
 70
     0
  9
$VISRETAIN
 70
     1
  9
$PLINEGEN
 70
     0
  9
$PSLTSCALE
 70
     1
  9
$TREEDEPTH
 70
  3020
  9
$PICKSTYLE
 70
     1
  9
$CMLSTYLE
  2
STANDARD
  9
$CMLJUST
 70
     0
  9
$CMLSCALE
 40
20.0
  9
$PROXYGRAPHICS
 70
     1
  9
$MEASUREMENT
 70
     1
  0
ENDSEC
  0
SECTION
  2
CLASSES
  0
CLASS
  1
ACDBDICTIONARYWDFLT
  2
AcDbDictionaryWithDefault
  3
AutoCAD 2000
 90
        0
280
     0
281
     0
  0
CLASS
  1
ACDBPLACEHOLDER
  2
AcDbPlaceHolder
  3
AutoCAD 2000
 90
        0
280
     0
281
     0
  0
CLASS
  1
LAYOUT
  2
AcDbLayout
  3
AutoCAD 2000
 90
        0
280
     0
281
     0
  0
CLASS
  1
LONG_TRANSACTION
  2
AcDbLongTransaction
  3
AutoCAD 2000
 90
        0
280
     0
281
     0
  0
CLASS
  1
LWPOLYLINE
  2
AcDbPolyline
  3
AutoCAD 2000
 90
        0
280
     0
281
     1
  0
CLASS
  1
HATCH
  2
AcDbHatch
  3
AutoCAD 2000
 90
        0
280
     0
281
     1
  0
CLASS
  1
XRECORD
  2
AcDbXrecord
  3
AutoCAD 2000
 90
        0
280
     0
281
     0
  0
ENDSEC
  0
SECTION
  2
TABLES
  0
TABLE
  2
VPORT
  5
8
330
0
100
AcDbSymbolTable
 70
     2
  0
VPORT
  5
FB
330
8
100
AcDbSymbolTableRecord
100
AcDbViewportTableRecord
  2
*ACTIVE
 70
     0
 10
0.0
 20
0.0
 11
1.0
 21
1.0
 12
439.0766486193247
 22
417.0043960980573
 13
0.0
 23
0.0
 14
10.0
 24
10.0
 15
10.0
 25
10.0
 16
0.0
 26
0.0
 36
1.0
 17
0.0
 27
0.0
 37
0.0
 40
339.1693865458884
 41
1.950617283950617
 42
50.0
 43
0.0
 44
0.0
 50
0.0
 51
0.0
 71
     0
 72
   100
 73
     1
 74
     3
 75
     0
 76
     0
 77
     0
 78
     0
  0
ENDTAB
  0
TABLE
  2
LTYPE
  5
5
330
0
100
AcDbSymbolTable
 70
     1
  0
LTYPE
  5
14
330
5
100
AcDbSymbolTableRecord
100
AcDbLinetypeTableRecord
  2
BYBLOCK
 70
     0
  3

 72
    65
 73
     0
 40
0.0
  0
LTYPE
  5
15
330
5
100
AcDbSymbolTableRecord
100
AcDbLinetypeTableRecord
  2
BYLAYER
 70
     0
  3

 72
    65
 73
     0
 40
0.0
  0
LTYPE
  5
16
330
5
100
AcDbSymbolTableRecord
100
AcDbLinetypeTableRecord
  2
CONTINUOUS
 70
     0
  3
Solid line
 72
    65
 73
     0
 40
0.0
  0
ENDTAB
  0
TABLE
  2
LAYER
  5
2
330
0
100
AcDbSymbolTable
 70
     2
  0
LAYER
  5
10
330
2
100
AcDbSymbolTableRecord
100
AcDbLayerTableRecord
  2
0
 70
     0
 62
     7
  6
CONTINUOUS
  0
LAYER
  5
40
330
2
100
AcDbSymbolTableRecord
100
AcDbLayerTableRecord
  2
SIXPANEL
 70
     0
 62
   250
  6
CONTINUOUS
  0
ENDTAB
  0
TABLE
  2
STYLE
  5
3
330
0
100
AcDbSymbolTable
 70
     1
  0
STYLE
  5
11
330
3
100
AcDbSymbolTableRecord
100
AcDbTextStyleTableRecord
  2
STANDARD
 70
     0
 40
0.0
 41
1.0
 50
0.0
 71
     0
 42
2.5
  3
txt
  4

  0
ENDTAB
  0
TABLE
  2
VIEW
  5
6
330
0
100
AcDbSymbolTable
 70
     0
  0
ENDTAB
  0
TABLE
  2
UCS
  5
7
330
0
100
AcDbSymbolTable
 70
     0
  0
ENDTAB
  0
TABLE
  2
APPID
  5
9
330
0
100
AcDbSymbolTable
 70
     1
  0
APPID
  5
12
330
9
100
AcDbSymbolTableRecord
100
AcDbRegAppTableRecord
  2
ACAD
 70
     0
  0
ENDTAB
  0
TABLE
  2
DIMSTYLE
  5
A
330
0
100
AcDbSymbolTable
 70
     1
  0
DIMSTYLE
105
27
330
A
100
AcDbSymbolTableRecord
100
AcDbDimStyleTableRecord
  2
ISO-25
 70
     0
  3

  4

  5

  6

  7

 40
1.0
 41
2.5
 42
0.625
 43
3.75
 44
1.25
 45
0.0
 46
0.0
 47
0.0
 48
0.0
140
2.5
141
2.5
142
0.0
143
0.03937007874016
144
1.0
145
0.0
146
1.0
147
0.625
 71
     0
 72
     0
 73
     0
 74
     0
 75
     0
 76
     0
 77
     1
 78
     8
170
     0
171
     3
172
     1
173
     0
174
     0
175
     0
176
     0
177
     0
178
     0
270
     2
271
     2
272
     2
273
     2
274
     3
340
11
275
     0
280
     0
281
     0
282
     0
283
     0
284
     8
285
     0
286
     0
287
     3
288
     0
  0
ENDTAB
  0
TABLE
  2
BLOCK_RECORD
  5
1
330
0
100
AcDbSymbolTable
 70
     1
  0
BLOCK_RECORD
  5
1F
102
{ACAD_XDICTIONARY
360
11F
102
}
330
1
100
AcDbSymbolTableRecord
100
AcDbBlockTableRecord
  2
*MODEL_SPACE
  0
BLOCK_RECORD
  5
1B
102
{ACAD_XDICTIONARY
360
11D
102
}
330
1
100
AcDbSymbolTableRecord
100
AcDbBlockTableRecord
  2
*PAPER_SPACE
  0
ENDTAB
  0
ENDSEC
  0
SECTION
  2
BLOCKS
  0
BLOCK
  5
20
330
1F
100
AcDbEntity
  8
0
100
AcDbBlockBegin
  2
*MODEL_SPACE
 70
     0
 10
0.0
 20
0.0
 30
0.0
  3
*MODEL_SPACE
  1

  0
ENDBLK
  5
21
330
1F
100
AcDbEntity
  8
0
100
AcDbBlockEnd
  0
BLOCK
  5
1C
330
1B
100
AcDbEntity
 67
     1
  8
0
100
AcDbBlockBegin
  2
*PAPER_SPACE
 70
     0
 10
0.0
 20
0.0
 30
0.0
  3
*PAPER_SPACE
  1

  0
ENDBLK
  5
1D
330
1B
100
AcDbEntity
 67
     1
  8
0
100
AcDbBlockEnd
  0
ENDSEC
  0
SECTION
  2
ENTITIES
  0
LINE
  5
76
102
{ACAD_REACTORS
330
A8
102
}
330
1F
100
AcDbEntity
  8
SIXPANEL
 62
   250
100
AcDbLine
 10
446.0118232769739
 20
390.6185374984668
 30
0.0
 11
441.8609781523763
 21
394.7709025173466
 31
0.0
  0
LINE
  5
77
102
{ACAD_REACTORS
330
A8
102
}
330
1F
100
AcDbEntity
  8
SIXPANEL
 62
   250
100
AcDbLine
 10
387.341321082014
 20
390.6185374984668
 30
0.0
 11
391.4921662066115
 21
394.7709025173466
 31
0.0
  0
ARC
  5
78
102
{ACAD_REACTORS
330
A8
102
}
330
1F
100
AcDbEntity
  8
SIXPANEL
 62
   250
100
AcDbCircle
 10
384.1587813212207
 20
393.7999586700456
 30
0.0
 40
4.5
100
AcDbArc
 50
135.0109050191754
 51
315.0109050191753
  0
ARC
  5
79
102
{ACAD_REACTORS
330
A8
102
}
330
1F
100
AcDbEntity
  8
SIXPANEL
 62
   250
100
AcDbCircle
 10
416.6761037481196
 20
426.3309981625921
 30
0.0
 40
39.50086561544237
100
AcDbArc
 50
232.8171729791336
 51
307.1920251830891
  0
ARC
  5
7A
102
{ACAD_REACTORS
330
A8
102
}
330
1F
100
AcDbEntity
  8
SIXPANEL
 62
   250
100
AcDbCircle
 10
449.1943630377673
 20
393.7999586700456
 30
0.0
 40
4.5
100
AcDbArc
 50
224.9890949808245
 51
44.98909498082453
  0
ARC
  5
7B
102
{ACAD_REACTORS
330
A8
102
}
330
1F
100
AcDbEntity
  8
SIXPANEL
 62
   250
100
AcDbCircle
 10
416.676570037032
 20
426.331689223655
 30
0.0
 40
39.50073232596931
100
AcDbArc
 50
322.7922810838968
 51
217.2114012254801
  0
LINE
  5
7C
102
{ACAD_REACTORS
330
A8
102
}
330
1F
100
AcDbEntity
  8
SIXPANEL
 62
   250
100
AcDbLine
 10
380.9761952410261
 20
396.9813335052628
 30
0.0
 11
385.1270371767019
 21
401.133695334053
 31
0.0
  0
CIRCLE
  5
7D
102
{ACAD_REACTORS
330
A8
102
}
330
1F
100
AcDbEntity
  8
SIXPANEL
 62
   250
100
AcDbCircle
 10
379.2641260307278
 20
405.1211088060195
 30
0.0
 40
2.0
  0
ARC
  5
7E
102
{ACAD_REACTORS
330
A8
102
}
330
1F
100
AcDbEntity
  8
SIXPANEL
 62
   250
100
AcDbCircle
 10
384.4198009721772
 20
401.8406726682091
 30
0.0
 40
1.0
100
AcDbArc
 50
315.0104879348242
 51
37.20511280179756
  0
ARC
  5
7F
102
{ACAD_REACTORS
330
A8
102
}
330
1F
100
AcDbEntity
  8
SIXPANEL
 62
   250
100
AcDbCircle
 10
392.1989865203253
 20
394.0635091400956
 30
0.0
 40
1.0
100
AcDbArc
 50
52.81717297913367
 51
135.0104879348172
  0
CIRCLE
  5
80
102
{ACAD_REACTORS
330
A8
102
}
330
1F
100
AcDbEntity
  8
SIXPANEL
 62
   250
100
AcDbCircle
 10
384.1468243612873
 20
458.847850416387
 30
0.0
 40
2.0
  0
LINE
  5
81
102
{ACAD_REACTORS
330
A8
102
}
330
1F
100
AcDbEntity
  8
SIXPANEL
 62
   250
100
AcDbLine
 10
452.3769491179616
 20
396.9813335052628
 30
0.0
 11
448.2261071822858
 21
401.133695334053
 31
0.0
  0
ARC
  5
82
102
{ACAD_REACTORS
330
A8
102
}
330
1F
100
AcDbEntity
  8
SIXPANEL
 62
   250
100
AcDbCircle
 10
448.9333433868107
 20
401.8406726682091
 30
0.0
 40
1.0
100
AcDbArc
 50
142.7948871982023
 51
224.9895120651757
  0
ARC
  5
83
102
{ACAD_REACTORS
330
A8
102
}
330
1F
100
AcDbEntity
  8
SIXPANEL
 62
   250
100
AcDbCircle
 10
441.1537419478521
 20
394.0639251831909
 30
0.0
 40
1.0
100
AcDbArc
 50
44.98951206518269
 51
127.183394147906
  0
CIRCLE
  5
84
102
{ACAD_REACTORS
330
A8
102
}
330
1F
100
AcDbEntity
  8
SIXPANEL
 62
   250
100
AcDbCircle
 10
449.2067412774759
 20
458.8479236042798
 30
0.0
 40
2.0
  0
CIRCLE
  5
85
102
{ACAD_REACTORS
330
A7
102
}
330
1F
100
AcDbEntity
  8
SIXPANEL
 62
   250
100
AcDbCircle
 10
302.1886808259222
 20
426.3301326744043
 30
0.0
 40
39.5
  0
CIRCLE
  5
86
102
{ACAD_REACTORS
330
A7
102
}
330
1F
100
AcDbEntity
  8
SIXPANEL
 62
   250
100
AcDbCircle
 10
269.6585095860899
 20
393.8123419150773
 30
0.0
 40
2.0
  0
CIRCLE
  5
87
102
{ACAD_REACTORS
330
A7
102
}
330
1F
100
AcDbEntity
  8
SIXPANEL
 62
   250
100
AcDbCircle
 10
269.6589329087637
 20
458.8478531809299
 30
0.0
 40
2.0
  0
CIRCLE
  5
88
102
{ACAD_REACTORS
330
A7
102
}
330
1F
100
AcDbEntity
  8
SIXPANEL
 62
   250
100
AcDbCircle
 10
334.7185028391558
 20
393.8126668249656
 30
0.0
 40
2.0
  0
CIRCLE
  5
89
102
{ACAD_REACTORS
330
A7
102
}
330
1F
100
AcDbEntity
  8
SIXPANEL
 62
   250
100
AcDbCircle
 10
334.7188498249523
 20
458.8479263688236
 30
0.0
 40
2.0
  0
LINE
  5
8A
102
{ACAD_REACTORS
330
AA
102
}
330
1F
100
AcDbEntity
  8
SIXPANEL
 62
   250
100
AcDbLine
 10
606.7745024576006
 20
409.3301326744043
 30
0.0
 11
677.4745024576006
 21
409.3301326744043
 31
0.0
  0
LINE
  5
8B
102
{ACAD_REACTORS
330
AA
102
}
330
1F
100
AcDbEntity
  8
SIXPANEL
 62
   250
100
AcDbLine
 10
606.7745024576006
 20
386.8301326744043
 30
0.0
 11
677.4745024576006
 21
386.8301326744043
 31
0.0
  0
LINE
  5
8C
102
{ACAD_REACTORS
330
AA
102
}
330
1F
100
AcDbEntity
  8
SIXPANEL
 62
   250
100
AcDbLine
 10
604.2495024576006
 20
406.8051326744045
 30
0.0
 11
604.2495024576006
 21
389.3551326744045
 31
0.0
  0
CIRCLE
  5
8D
102
{ACAD_REACTORS
330
AA
102
}
330
1F
100
AcDbEntity
  8
SIXPANEL
 62
   250
100
AcDbCircle
 10
599.1245024576004
 20
398.0801326744046
 30
0.0
 40
1.0
  0
ARC
  5
8E
102
{ACAD_REACTORS
330
AA
102
}
330
1F
100
AcDbEntity
  8
SIXPANEL
 62
   250
100
AcDbCircle
 10
606.7745024576006
 20
389.3551326744045
 30
0.0
 40
2.524999999999999
100
AcDbArc
 50
180.0
 51
270.0
  0
ARC
  5
8F
102
{ACAD_REACTORS
330
AA
102
}
330
1F
100
AcDbEntity
  8
SIXPANEL
 62
   250
100
AcDbCircle
 10
606.7745024576005
 20
406.8051326744045
 30
0.0
 40
2.524999999999863
100
AcDbArc
 50
89.99999999999836
 51
180.0
  0
CIRCLE
  5
90
102
{ACAD_REACTORS
330
AA
102
}
330
1F
100
AcDbEntity
  8
SIXPANEL
 62
   250
100
AcDbCircle
 10
685.1245024576006
 20
398.0801326744046
 30
0.0
 40
1.0
  0
LINE
  5
91
102
{ACAD_REACTORS
330
AA
102
}
330
1F
100
AcDbEntity
  8
SIXPANEL
 62
   250
100
AcDbLine
 10
679.9995024576007
 20
406.8051326744045
 30
0.0
 11
679.9995024576007
 21
389.3551326744045
 31
0.0
  0
ARC
  5
92
102
{ACAD_REACTORS
330
AA
102
}
330
1F
100
AcDbEntity
  8
SIXPANEL
 62
   250
100
AcDbCircle
 10
677.4745024576008
 20
389.3551326744045
 30
0.0
 40
2.524999999999999
100
AcDbArc
 50
270.0
 51
0.0
  0
ARC
  5
93
102
{ACAD_REACTORS
330
AA
102
}
330
1F
100
AcDbEntity
  8
SIXPANEL
 62
   250
100
AcDbCircle
 10
677.4745024576008
 20
406.8051326744045
 30
0.0
 40
2.524999999999863
100
AcDbArc
 50
359.9999999999983
 51
90.00000000000488
  0
CIRCLE
  5
94
102
{ACAD_REACTORS
330
AA
102
}
330
1F
100
AcDbEntity
  8
SIXPANEL
100
AcDbCircle
 10
705.2495024576005
 20
398.0801326744046
 30
0.0
 40
3.5
  0
ARC
  5
95
102
{ACAD_REACTORS
330
A9
102
}
330
1F
100
AcDbEntity
  8
SIXPANEL
 62
   250
100
AcDbCircle
 10
525.0610992739214
 20
426.3207736068808
 30
0.0
 40
39.50000000000065
100
AcDbArc
 50
232.8154664980054
 51
217.2054158195269
  0
ARC
  5
96
102
{ACAD_REACTORS
330
A9
102
}
330
1F
100
AcDbEntity
  8
SIXPANEL
 62
   250
100
AcDbCircle
 10
492.5433084156463
 20
393.7911222060211
 30
0.0
 40
4.5
100
AcDbArc
 50
135.0109050191754
 51
315.0109050191753
  0
LINE
  5
97
102
{ACAD_REACTORS
330
A9
102
}
330
1F
100
AcDbEntity
  8
SIXPANEL
 62
   250
100
AcDbLine
 10
489.360722335452
 20
396.9724970412383
 30
0.0
 11
493.5115642711278
 21
401.1248588700285
 31
0.0
  0
ARC
  5
98
102
{ACAD_REACTORS
330
A9
102
}
330
1F
100
AcDbEntity
  8
SIXPANEL
 62
   250
100
AcDbCircle
 10
492.8039522748063
 20
401.8314602747851
 30
0.0
 40
1.0
100
AcDbArc
 50
315.010487934815
 51
37.20541581952462
  0
ARC
  5
99
102
{ACAD_REACTORS
330
A9
102
}
330
1F
100
AcDbEntity
  8
SIXPANEL
 62
   250
100
AcDbCircle
 10
500.5835441754982
 20
394.0547032480084
 30
0.0
 40
1.0
100
AcDbArc
 50
52.81546649800318
 51
135.0104879348126
  0
LINE
  5
9A
102
{ACAD_REACTORS
330
A9
102
}
330
1F
100
AcDbEntity
  8
SIXPANEL
 62
   250
100
AcDbLine
 10
495.7258481764397
 20
390.6097010344423
 30
0.0
 11
499.8766933010372
 21
394.7620660533221
 31
0.0
  0
CIRCLE
  5
9B
102
{ACAD_REACTORS
330
A9
102
}
330
1F
100
AcDbEntity
  8
SIXPANEL
 62
   250
100
AcDbCircle
 10
557.590921287153
 20
393.8033077574421
 30
0.0
 40
2.0
  0
CIRCLE
  5
9C
102
{ACAD_REACTORS
330
A9
102
}
330
1F
100
AcDbEntity
  8
SIXPANEL
 62
   250
100
AcDbCircle
 10
492.531351356761
 20
458.8384941134067
 30
0.0
 40
2.0
  0
CIRCLE
  5
9D
102
{ACAD_REACTORS
330
A9
102
}
330
1F
100
AcDbEntity
  8
SIXPANEL
 62
   250
100
AcDbCircle
 10
557.5912682729497
 20
458.8385673013002
 30
0.0
 40
2.0
  0
CIRCLE
  5
9E
330
1F
100
AcDbEntity
  8
SIXPANEL
 62
   250
100
AcDbCircle
 10
190.4138691413754
 20
415.1975523936926
 30
0.0
 40
28.36741971928823
  0
LINE
  5
9F
330
1F
100
AcDbEntity
  8
SIXPANEL
  6
CONTINUOUS
 62
   250
100
AcDbLine
 10
168.8055411149834
 20
391.7278201695445
 30
0.0
 11
168.8055411149834
 21
391.7278201695445
 31
0.0
  0
CIRCLE
  5
A0
330
1F
100
AcDbEntity
  8
SIXPANEL
 62
   250
100
AcDbCircle
 10
167.0587017482101
 20
391.7405856601699
 30
0.0
 40
1.775142781395335
  0
CIRCLE
  5
A1
330
1F
100
AcDbEntity
  8
SIXPANEL
 62
   250
100
AcDbCircle
 10
167.0492492033171
 20
438.7170680175486
 30
0.0
 40
1.775142781395335
  0
LINE
  5
A2
330
1F
100
AcDbEntity
  8
SIXPANEL
  6
CONTINUOUS
 62
   250
100
AcDbLine
 10
168.8152439149835
 20
438.7264307695442
 30
0.0
 11
168.8152439149835
 21
438.7264307695442
 31
0.0
  0
CIRCLE
  5
A3
330
1F
100
AcDbEntity
  8
SIXPANEL
 62
   250
100
AcDbCircle
 10
214.0697203623985
 20
391.7444652329614
 30
0.0
 40
1.775142781395335
  0
LINE
  5
A4
330
1F
100
AcDbEntity
  8
SIXPANEL
  6
CONTINUOUS
 62
   250
100
AcDbLine
 10
215.8011291149831
 20
391.7469209695438
 30
0.0
 11
215.8011291149831
 21
391.7469209695438
 31
0.0
  0
CIRCLE
  5
A5
330
1F
100
AcDbEntity
  8
SIXPANEL
 62
   250
100
AcDbCircle
 10
214.0580639074669
 20
438.7303160736511
 30
0.0
 40
1.775142781395335
  0
LINE
  5
A6
330
1F
100
AcDbEntity
  8
SIXPANEL
  6
CONTINUOUS
 62
   250
100
AcDbLine
 10
215.8108319149831
 20
438.7455315695444
 30
0.0
 11
215.8108319149831
 21
438.7455315695444
 31
0.0
  0
LWPOLYLINE
  5
AC
102
{ACAD_REACTORS
330
B2
102
}
330
1F
100
AcDbEntity
  8
0
 62
     5
100
AcDbPolyline
 90
        4
 70
     1
 43
0.0
 10
134.9346147649927
 20
492.0233200308208
 10
733.0599158933969
 20
492.0233200308208
 10
733.0599158933969
 20
355.0492749302958
 10
134.9346147649927
 20
355.0492749302958
  0
LINE
  5
AE
102
{ACAD_REACTORS
330
B2
102
}
330
1F
100
AcDbEntity
  8
0
 62
     5
100
AcDbLine
 10
246.1384167586799
 20
492.0233200308208
 30
0.0
 11
246.1384167586799
 21
355.0492749302958
 31
0.0
  0
LINE
  5
AF
102
{ACAD_REACTORS
330
B2
102
}
330
1F
100
AcDbEntity
  8
0
 62
     5
100
AcDbLine
 10
359.5015152631176
 20
492.0233200308208
 30
0.0
 11
359.5015152631176
 21
355.0492749302958
 31
0.0
  0
LINE
  5
B0
102
{ACAD_REACTORS
330
B2
102
}
330
1F
100
AcDbEntity
  8
0
 62
     5
100
AcDbLine
 10
472.8646137675553
 20
492.0233200308208
 30
0.0
 11
472.8646137675553
 21
355.0492749302958
 31
0.0
  0
LINE
  5
B1
102
{ACAD_REACTORS
330
B2
102
}
330
1F
100
AcDbEntity
  8
0
 62
     5
100
AcDbLine
 10
582.9887664836083
 20
492.0233200308208
 30
0.0
 11
582.9887664836083
 21
355.0492749302958
 31
0.0
  0
ENDSEC
  0
SECTION
  2
OBJECTS
  0
DICTIONARY
  5
C
330
0
100
AcDbDictionary
  3
ACAD_GROUP
350
D
  3
ACAD_LAYOUT
350
1A
  3
ACAD_MLINESTYLE
350
17
  3
ACAD_PLOTSETTINGS
350
19
  3
ACAD_PLOTSTYLENAME
350
E
  3
ACDBHEADERROUNDTRIPXREC
350
FC
  0
DICTIONARY
  5
11F
330
1F
100
AcDbDictionary
280
     1
  3
ACAD_LAYOUTSELFREF
360
120
  0
DICTIONARY
  5
11D
330
1B
100
AcDbDictionary
280
     1
  3
ACAD_LAYOUTSELFREF
360
11E
  0
DICTIONARY
  5
D
102
{ACAD_REACTORS
330
C
102
}
330
C
100
AcDbDictionary
  3
*A1
350
A7
  3
*A2
350
A8
  3
*A3
350
A9
  3
*A4
350
AA
  3
*A5
350
B2
  0
DICTIONARY
  5
1A
102
{ACAD_REACTORS
330
C
102
}
330
C
100
AcDbDictionary
  0
DICTIONARY
  5
17
102
{ACAD_REACTORS
330
C
102
}
330
C
100
AcDbDictionary
  3
STANDARD
350
18
  0
DICTIONARY
  5
19
102
{ACAD_REACTORS
330
C
102
}
330
C
100
AcDbDictionary
  0
ACDBDICTIONARYWDFLT
  5
E
102
{ACAD_REACTORS
330
C
102
}
330
C
100
AcDbDictionary
281
     1
  3
Normal
350
F
100
AcDbDictionaryWithDefault
340
F
  0
DICTIONARY
  5
FC
102
{ACAD_REACTORS
330
C
102
}
330
C
100
AcDbDictionary
  3
TSTACKALIGN
350
FD
  3
TSTACKSIZE
350
FE
  3
HYPERLINKBASE
350
FF
  3
STYLESHEET
350
100
  3
LAYOUTDICT
350
101
  3
PLOTSETDICT
350
102
  3
PLOTSTYLNAMDICT
350
103
  3
LWETCUNION
350
104
  3
INSUNITS
350
105
  3
CEPSNTYPE
350
106
  3
FINGERPRINTGUID
350
107
  3
VERSIONGUID
350
108
  3
PSVPSCALE
350
109
  3
DIMSTYLEDATA
350
10A
  3
PUCSORTHOREF
350
10B
  3
PUCSORTHOVIEW
350
10C
  3
PUCSBASE
350
10D
  3
PUCSORGTOP
350
10E
  3
PUCSORGBOTTOM
350
10F
  3
PUCSORGLEFT
350
110
  3
PUCSORGRIGHT
350
111
  3
PUCSORGFRONT
350
112
  3
PUCSORGBACK
350
113
  3
UCSORTHOREF
350
114
  3
UCSORTHOVIEW
350
115
  3
UCSBASE
350
116
  3
UCSORGTOP
350
117
  3
UCSORGBOTTOM
350
118
  3
UCSORGLEFT
350
119
  3
UCSORGRIGHT
350
11A
  3
UCSORGFRONT
350
11B
  3
UCSORGBACK
350
11C
  0
XRECORD
  5
120
102
{ACAD_REACTORS
330
11F
102
}
330
11F
100
AcDbXrecord
340
1F
  0
XRECORD
  5
11E
102
{ACAD_REACTORS
330
11D
102
}
330
11D
100
AcDbXrecord
340
1B
  0
GROUP
  5
A7
102
{ACAD_REACTORS
330
D
102
}
330
D
100
AcDbGroup
300

 70
     1
 71
     1
340
85
340
86
340
87
340
88
340
89
  0
GROUP
  5
A8
102
{ACAD_REACTORS
330
D
102
}
330
D
100
AcDbGroup
300

 70
     1
 71
     1
340
7B
340
79
340
7C
340
78
340
7D
340
7F
340
77
340
7E
340
80
340
81
340
7A
340
83
340
76
340
82
340
84
  0
GROUP
  5
A9
102
{ACAD_REACTORS
330
D
102
}
330
D
100
AcDbGroup
300

 70
     1
 71
     1
340
95
340
96
340
9A
340
97
340
98
340
99
340
9C
340
9B
340
9D
  0
GROUP
  5
AA
102
{ACAD_REACTORS
330
D
102
}
330
D
100
AcDbGroup
300

 70
     1
 71
     1
340
91
340
8C
340
8B
340
8E
340
92
340
94
340
8A
340
8D
340
8F
340
90
340
93
  0
GROUP
  5
B2
102
{ACAD_REACTORS
330
D
102
}
330
D
100
AcDbGroup
300

 70
     1
 71
     1
340
AE
340
AF
340
B0
340
B1
340
AC
  0
MLINESTYLE
  5
18
102
{ACAD_REACTORS
330
17
102
}
330
17
100
AcDbMlineStyle
  2
STANDARD
 70
     0
  3

 62
   256
 51
90.0
 52
90.0
 71
     2
 49
0.5
 62
   256
  6
BYLAYER
 49
-0.5
 62
   256
  6
BYLAYER
  0
ACDBPLACEHOLDER
  5
F
102
{ACAD_REACTORS
330
E
102
}
330
E
100
AcDbPlaceHolder
280
     0
  0
XRECORD
  5
FD
102
{ACAD_REACTORS
330
FC
102
}
330
FC
100
AcDbXrecord
 90
        1
  0
XRECORD
  5
FE
102
{ACAD_REACTORS
330
FC
102
}
330
FC
100
AcDbXrecord
 90
       70
  0
XRECORD
  5
FF
102
{ACAD_REACTORS
330
FC
102
}
330
FC
100
AcDbXrecord
  1

  0
XRECORD
  5
100
102
{ACAD_REACTORS
330
FC
102
}
330
FC
100
AcDbXrecord
  1

  0
XRECORD
  5
101
102
{ACAD_REACTORS
330
FC
102
}
330
FC
100
AcDbXrecord
340
1A
  0
XRECORD
  5
102
102
{ACAD_REACTORS
330
FC
102
}
330
FC
100
AcDbXrecord
340
19
  0
XRECORD
  5
103
102
{ACAD_REACTORS
330
FC
102
}
330
FC
100
AcDbXrecord
340
E
  0
XRECORD
  5
104
102
{ACAD_REACTORS
330
FC
102
}
330
FC
100
AcDbXrecord
 90
    10781
  0
XRECORD
  5
105
102
{ACAD_REACTORS
330
FC
102
}
330
FC
100
AcDbXrecord
 90
        4
  0
XRECORD
  5
106
102
{ACAD_REACTORS
330
FC
102
}
330
FC
100
AcDbXrecord
 90
        0
  0
XRECORD
  5
107
102
{ACAD_REACTORS
330
FC
102
}
330
FC
100
AcDbXrecord
  1
{FDEAD578-A652-11D2-9A35-0060089B3A3F}
  0
XRECORD
  5
108
102
{ACAD_REACTORS
330
FC
102
}
330
FC
100
AcDbXrecord
  1
{7C7D1DF8-9D0F-4D2E-A1C9-E9CB4894F427}
  0
XRECORD
  5
109
102
{ACAD_REACTORS
330
FC
102
}
330
FC
100
AcDbXrecord
 40
0.0
  0
XRECORD
  5
10A
102
{ACAD_REACTORS
330
FC
102
}
330
FC
100
AcDbXrecord
1000
DSTYLE
1002
{
1070
   278
 70
    44
1002
}
  0
XRECORD
  5
10B
102
{ACAD_REACTORS
330
FC
102
}
330
FC
100
AcDbXrecord
340
0
  0
XRECORD
  5
10C
102
{ACAD_REACTORS
330
FC
102
}
330
FC
100
AcDbXrecord
 70
     0
  0
XRECORD
  5
10D
102
{ACAD_REACTORS
330
FC
102
}
330
FC
100
AcDbXrecord
340
0
  0
XRECORD
  5
10E
102
{ACAD_REACTORS
330
FC
102
}
330
FC
100
AcDbXrecord
 10
0.0
 20
0.0
 30
0.0
  0
XRECORD
  5
10F
102
{ACAD_REACTORS
330
FC
102
}
330
FC
100
AcDbXrecord
 10
0.0
 20
0.0
 30
0.0
  0
XRECORD
  5
110
102
{ACAD_REACTORS
330
FC
102
}
330
FC
100
AcDbXrecord
 10
0.0
 20
0.0
 30
0.0
  0
XRECORD
  5
111
102
{ACAD_REACTORS
330
FC
102
}
330
FC
100
AcDbXrecord
 10
0.0
 20
0.0
 30
0.0
  0
XRECORD
  5
112
102
{ACAD_REACTORS
330
FC
102
}
330
FC
100
AcDbXrecord
 10
0.0
 20
0.0
 30
0.0
  0
XRECORD
  5
113
102
{ACAD_REACTORS
330
FC
102
}
330
FC
100
AcDbXrecord
 10
0.0
 20
0.0
 30
0.0
  0
XRECORD
  5
114
102
{ACAD_REACTORS
330
FC
102
}
330
FC
100
AcDbXrecord
340
0
  0
XRECORD
  5
115
102
{ACAD_REACTORS
330
FC
102
}
330
FC
100
AcDbXrecord
 70
     1
  0
XRECORD
  5
116
102
{ACAD_REACTORS
330
FC
102
}
330
FC
100
AcDbXrecord
340
0
  0
XRECORD
  5
117
102
{ACAD_REACTORS
330
FC
102
}
330
FC
100
AcDbXrecord
 10
0.0
 20
0.0
 30
0.0
  0
XRECORD
  5
118
102
{ACAD_REACTORS
330
FC
102
}
330
FC
100
AcDbXrecord
 10
0.0
 20
0.0
 30
0.0
  0
XRECORD
  5
119
102
{ACAD_REACTORS
330
FC
102
}
330
FC
100
AcDbXrecord
 10
0.0
 20
0.0
 30
0.0
  0
XRECORD
  5
11A
102
{ACAD_REACTORS
330
FC
102
}
330
FC
100
AcDbXrecord
 10
0.0
 20
0.0
 30
0.0
  0
XRECORD
  5
11B
102
{ACAD_REACTORS
330
FC
102
}
330
FC
100
AcDbXrecord
 10
0.0
 20
0.0
 30
0.0
  0
XRECORD
  5
11C
102
{ACAD_REACTORS
330
FC
102
}
330
FC
100
AcDbXrecord
 10
0.0
 20
0.0
 30
0.0
  0
ENDSEC
  0
EOF
