<?xml version="1.0" encoding="UTF-8" standalone="no"?>
<svg
   xmlns:dc="http://purl.org/dc/elements/1.1/"
   xmlns:cc="http://creativecommons.org/ns#"
   xmlns:rdf="http://www.w3.org/1999/02/22-rdf-syntax-ns#"
   xmlns:svg="http://www.w3.org/2000/svg"
   xmlns="http://www.w3.org/2000/svg"
   xmlns:sodipodi="http://sodipodi.sourceforge.net/DTD/sodipodi-0.dtd"
   xmlns:inkscape="http://www.inkscape.org/namespaces/inkscape"
   sodipodi:docname="GNS 530 Export.svg"
   inkscape:version="1.0 (4035a4fb49, 2020-05-01)"
   id="svg8"
   version="1.1"
   viewBox="0 0 210 297"
   height="297mm"
   width="210mm">
  <defs
     id="defs2">
    <marker
       inkscape:stockid="Arrow1Lend"
       orient="auto"
       refY="0.0"
       refX="0.0"
       id="Arrow1Lend"
       style="overflow:visible;"
       inkscape:isstock="true">
      <path
         id="path1079"
         d="M 0.0,0.0 L 5.0,-5.0 L -12.5,0.0 L 5.0,5.0 L 0.0,0.0 z "
         style="fill-rule:evenodd;stroke:#000000;stroke-width:1pt;stroke-opacity:1;fill:#000000;fill-opacity:1"
         transform="scale(0.8) rotate(180) translate(12.5,0)" />
    </marker>
    <marker
       id="marker1411"
       inkscape:isstock="true"
       inkscape:stockid="Arrow2Send"
       orient="auto"
       refX="0"
       refY="0"
       style="overflow:visible">
      <path
         d="M 8.72,4.03 -2.21,0.02 8.72,-4 c -1.75,2.37 -1.74,5.62 0,8.03 z"
         id="path1409"
         style="fill:#000000;fill-opacity:1;stroke:#000000;stroke-opacity:1"
         transform="matrix(-0.3,0,0,-0.3,0.69,0)" />
    </marker>
    <marker
       id="marker1401"
       inkscape:isstock="true"
       inkscape:stockid="Arrow2Sstart"
       orient="auto"
       refX="0"
       refY="0"
       style="overflow:visible">
      <path
         d="M 8.72,4.03 -2.21,0.02 8.72,-4 c -1.75,2.37 -1.74,5.62 0,8.03 z"
         id="path1399"
         style="fill:#000000;fill-opacity:1;stroke:#000000;stroke-opacity:1"
         transform="matrix(0.3,0,0,0.3,-0.69,0)" />
    </marker>
    <marker
       id="marker1331"
       inkscape:isstock="true"
       inkscape:stockid="Arrow2Send"
       orient="auto"
       refX="0"
       refY="0"
       style="overflow:visible">
      <path
         d="M 8.72,4.03 -2.21,0.02 8.72,-4 c -1.75,2.37 -1.74,5.62 0,8.03 z"
         id="path1329"
         style="fill:#000000;fill-opacity:1;stroke:#000000;stroke-opacity:1"
         transform="matrix(-0.3,0,0,-0.3,0.69,0)" />
    </marker>
    <marker
       id="marker1321"
       inkscape:isstock="true"
       inkscape:stockid="Arrow2Sstart"
       orient="auto"
       refX="0"
       refY="0"
       style="overflow:visible">
      <path
         d="M 8.72,4.03 -2.21,0.02 8.72,-4 c -1.75,2.37 -1.74,5.62 0,8.03 z"
         id="path1319"
         style="fill:#000000;fill-opacity:1;stroke:#000000;stroke-opacity:1"
         transform="matrix(0.3,0,0,0.3,-0.69,0)" />
    </marker>
    <marker
       id="marker1263"
       inkscape:isstock="true"
       inkscape:stockid="Arrow2Send"
       orient="auto"
       refX="0"
       refY="0"
       style="overflow:visible">
      <path
         d="M 8.72,4.03 -2.21,0.02 8.72,-4 c -1.75,2.37 -1.74,5.62 0,8.03 z"
         id="path1261"
         style="fill:#000000;fill-opacity:1;stroke:#000000;stroke-opacity:1"
         transform="matrix(-0.3,0,0,-0.3,0.69,0)" />
    </marker>
    <marker
       id="marker1253"
       inkscape:isstock="true"
       inkscape:stockid="Arrow2Sstart"
       orient="auto"
       refX="0"
       refY="0"
       style="overflow:visible">
      <path
         d="M 8.72,4.03 -2.21,0.02 8.72,-4 c -1.75,2.37 -1.74,5.62 0,8.03 z"
         id="path1251"
         style="fill:#000000;fill-opacity:1;stroke:#000000;stroke-opacity:1"
         transform="matrix(0.3,0,0,0.3,-0.69,0)" />
    </marker>
    <marker
       inkscape:isstock="true"
       style="overflow:visible"
       id="Arrow1Lstart"
       refX="0.0"
       refY="0.0"
       orient="auto"
       inkscape:stockid="Arrow1Lstart">
      <path
         transform="scale(0.8) translate(12.5,0)"
         style="fill-rule:evenodd;stroke:#000000;stroke-width:1pt;stroke-opacity:1;fill:#000000;fill-opacity:1"
         d="M 0.0,0.0 L 5.0,-5.0 L -12.5,0.0 L 5.0,5.0 L 0.0,0.0 z "
         id="path851" />
    </marker>
    <clipPath
       id="clipPath1834"
       clipPathUnits="userSpaceOnUse">
      <path
         d="m 178.15605,133.44301 -161.424772,5.3e-4 V 270.3313 H 178.15605 V 152.33179 c -0.38699,0.0309 -0.77328,0.0318 -1.16272,-0.0135 -0.39142,-0.0455 -0.68933,-0.14383 -1.079,-0.14882 -0.004,-2.7e-4 -0.008,7.9e-4 -0.0119,5.3e-4 -0.001,2.6e-4 -0.004,0.001 -0.005,0.002 -0.23244,0.0688 -0.13592,-0.007 0.005,-0.002 0.16239,-0.0477 0.62969,-0.16106 0.46509,-0.16124 -2.30986,-0.003 -1.68052,0.0986 -1.19218,0.18914 0.0202,0.004 0.0808,0.008 0.0605,0.0114 -0.0997,0.0131 -0.20121,-5.3e-4 -0.30179,0 -0.149,0 -0.29801,10e-4 -0.447,0.002 -0.21007,-0.01 -0.42224,0.0137 -0.632,-5.3e-4 -0.29179,-0.0197 -0.57927,-0.0723 -0.87075,-0.0894 -0.0193,0.002 -0.0273,0.003 -0.0284,0.004 -0.21427,-0.0188 -0.42941,-0.0293 -0.64234,-0.0594 -0.0883,-0.0125 -0.17117,-0.0502 -0.25787,-0.0708 -0.023,-0.005 -0.0476,-0.002 -0.0708,-0.007 -0.163,-0.0318 -0.32526,-0.0674 -0.48783,-0.10129 -0.49759,-0.10946 -0.998,-0.20492 -1.49862,-0.29973 -0.22649,0.0187 -0.45384,0.0228 -0.68109,0 -0.006,-5.2e-4 0.0195,-0.0115 0.0134,-0.0119 -0.0296,-0.002 -0.0593,0.005 -0.0889,0.007 -0.10881,0.0182 -0.21693,0.0387 -0.32608,0.0548 -0.0613,0.009 -0.1239,0.0104 -0.185,0.0207 -0.15392,0.026 -0.30564,0.0646 -0.45992,0.0884 -0.46488,0.0715 -0.42507,0.047 -0.85266,0.0754 -0.14513,0.01 -0.29012,0.0231 -0.43512,0.0346 -0.0238,-0.003 -0.0743,0.0152 -0.0713,-0.008 0.001,-0.01 0.1225,-0.0434 0.16329,-0.0724 0.22854,-0.1626 0.94095,-0.59109 0.6749,-0.50229 -0.37861,0.12638 -1.35848,0.66326 -1.30328,0.69918 -0.24583,0.0512 -0.39082,0.0816 -0.72089,0.11937 -0.48287,0.0553 -0.97198,0.0362 -1.45417,0.10336 -0.36782,0.0118 -0.24878,0.004 -0.64699,0.0341 -0.15827,0.0119 -0.31578,0.0327 -0.47439,0.0377 -0.0356,0.001 0.0707,-0.0119 0.10387,-0.0248 0.0666,-0.0259 0.1311,-0.0567 0.19637,-0.0863 -0.34804,0.0381 -0.6982,0.0634 -1.04076,0.13435 -0.11097,0.0231 0.15608,0.0162 0.31522,0.0165 0.015,-0.002 0.0299,-0.005 0.045,-0.006 0.01,-0.001 0.0382,0.006 0.0284,0.006 -0.0164,-5.3e-4 -0.0504,5e-5 -0.0734,0 -0.0848,0.0103 -0.1692,0.0226 -0.25373,0.0351 -0.80941,0.11931 -0.27548,0.0537 -1.06763,0.14004 -0.12949,0.01 -0.25894,0.0219 -0.38861,0.0289 -0.0603,0.003 -0.12119,-0.004 -0.18139,10e-4 -0.28429,0.0231 -0.54965,0.0883 -0.83509,0.12196 -0.44262,0.0527 -0.56982,0.0419 -1.00097,0.0439 -0.91257,0.0103 -1.82684,0.0369 -2.7373,-0.0455 -0.49868,-0.011 -0.49145,-0.003 -0.97978,-0.0439 -0.10762,-0.009 -0.21474,-0.0266 -0.32247,-0.0346 -0.72805,-0.0519 -1.45899,-0.0739 -2.18849,-0.0879 -1.31473,-0.042 -2.64065,-0.0306 -3.94085,-0.25477 -0.23486,-0.0161 -0.46904,-0.0416 -0.70435,-0.0496 -0.23137,-0.008 -0.46308,-0.004 -0.69453,-0.0103 -0.78725,-0.0188 -1.57348,-0.0581 -2.36058,-0.0811 -0.16556,-0.01 -0.33167,-0.0177 -0.49713,-0.0289 -0.0835,-0.006 -0.16599,-0.0197 -0.24959,-0.0217 -0.12576,-0.002 -0.25146,0.008 -0.37724,0.009 -0.41613,0.003 -0.83108,-0.0296 -1.24592,-0.0584 -0.16061,-0.01 -0.32075,-0.0254 -0.48162,-0.0294 -0.18491,-0.005 -0.37006,0.003 -0.55501,0.005 -1.0676,0.011 -2.13579,0.0325 -3.2029,-0.0139 -0.21993,-0.011 -0.44009,-0.0202 -0.65991,-0.0331 -0.10561,-0.006 -0.21049,-0.0223 -0.31626,-0.0243 -0.10914,-0.002 -0.62752,0.0378 -0.70022,0.0398 -0.32259,0.007 -0.47978,-0.0168 -0.80563,-0.046 -0.97882,-0.0896 -1.9588,-0.15 -2.93988,-0.2098 -0.40941,-0.0249 -1.02575,-0.0556 -1.4614,-0.0925 -0.0692,-0.006 -0.13784,-0.0155 -0.20671,-0.0243 -0.1313,0.0189 -0.26488,0.0311 -0.416,0.0346 -0.16227,0.004 -0.32448,-0.003 -0.48679,-0.004 -1.13796,-0.0691 -0.0658,0.001 -1.36116,-0.10128 -0.2832,-0.0223 -0.56614,-0.052 -0.85007,-0.062 -0.33389,-0.0112 -0.66792,0 -1.00201,0 h -1.63711 c -1.5586,0 -2.50262,-0.61898 -2.83703,-1.36995 -0.12614,0.0107 -0.25243,0.0212 -0.37879,0.0279 -0.51606,0.0264 -0.68858,0.0197 -1.21026,0.0196 -0.66352,-0.0103 -0.37802,-0.003 -0.85732,-0.017 -3.96698,-0.11782 -3.84483,-4.13207 0.12196,-4.00751 0.31282,0.01 0.35106,0.009 0.57826,0.0119 -0.94365,-0.68918 -1.06762,-1.80907 -0.29559,-2.56987 -0.198,-0.0475 -0.39535,-0.0972 -0.5917,-0.15244 -3.82026,-1.07541 -3.03144,-5.01649 0.786,-3.93103 1.24595,0.35427 2.52828,0.5297 3.81166,0.68007 0.61151,0.0716 1.22318,0.1414 1.83658,0.1943 0.78403,0.0677 2.41597,0.14883 3.22822,0.19224 1.81873,0.1177 3.64123,0.0622 5.46169,0.0387 1.30167,-0.017 1.52996,-0.0146 2.7652,-0.0186 0.87149,0.006 1.74282,0.0129 2.61431,0.0108 1.85726,-0.008 3.71171,0.13721 5.56607,0.21911 2.19443,0.0974 2.08096,0.0804 4.14962,0.10645 1.61402,-0.0482 1.62593,-0.009 3.19154,-0.20361 0.60605,-0.0752 1.20754,-0.18356 1.81332,-0.26096 0.7624,-0.0975 1.52566,-0.19118 2.29082,-0.26407 1.00412,-0.0956 1.92328,-0.159 2.8453,-0.21342 -0.0701,-0.13867 -0.1393,-0.2781 -0.21807,-0.41031 -0.0699,-0.37106 -0.23191,-0.73617 -0.20981,-1.11311 0.0296,-0.50507 0.15578,-1.01197 0.36122,-1.47433 0.14058,-0.31639 0.39876,-0.5729 0.65319,-0.8077 0.67236,-0.62052 1.48508,-0.96213 2.34766,-1.20923 0.14209,-0.0509 0.29067,-0.0868 0.42633,-0.15296 0.16745,-0.0816 0.89569,-0.56628 1.00408,-0.63717 0.32817,-0.16243 0.66174,-0.32617 1.01699,-0.41497 0.3297,-0.0824 0.62173,-0.11193 0.90537,-0.11162 0.47275,5.3e-4 0.92227,0.0843 1.4826,0.14418 0.54362,0.14668 1.09723,0.26022 1.6309,0.43977 0.47961,0.16135 0.94156,0.37205 1.4025,0.58084 0.5681,0.2573 1.13998,0.51046 1.6831,0.817 1.11991,0.63206 2.28409,1.4476 3.19154,2.3673 0.44433,0.45033 0.80521,0.97638 1.20768,1.46451 0.20972,0.46175 0.4686,0.9043 0.6289,1.38545 0.0623,0.18689 0.10292,0.38003 0.13539,0.57515 z m -14.27097,5.53042 c -0.0927,0.0407 -0.17572,0.0811 -0.23254,0.11834 -0.0394,0.0258 -0.0966,0.11433 -0.0527,0.13126 0.059,0.0227 0.13098,-0.0358 0.16898,-0.0863 0.0507,-0.0674 0.0816,-0.1136 0.11627,-0.16329 z m 14.27097,4.79402 c -0.0995,0.16928 -0.2034,0.33595 -0.30954,0.50126 0.0651,0.015 0.13184,0.0299 0.19585,0.0444 0.0658,0.015 0.0602,0.0152 0.11369,0.0274 z m -4.56613,2.16111 c -0.0104,0.0632 -0.0214,0.12172 -0.031,0.19223 0.0378,-0.0575 0.0833,-0.131 0.12299,-0.19223 -0.0307,-1e-4 -0.0613,1e-4 -0.092,0 z"
         style="fill:#ff0000;fill-opacity:1;fill-rule:nonzero;stroke:none;stroke-width:0.264583"
         id="path1836" />
    </clipPath>
  </defs>
  <sodipodi:namedview
     inkscape:window-maximized="1"
     inkscape:window-y="-9"
     inkscape:window-x="-9"
     inkscape:window-height="1001"
     inkscape:window-width="1920"
     showgrid="false"
     inkscape:document-rotation="0"
     inkscape:current-layer="layer5"
     inkscape:document-units="mm"
     inkscape:cy="748.50539"
     inkscape:cx="386.59942"
     inkscape:zoom="1.28"
     inkscape:pageshadow="2"
     inkscape:pageopacity="0.0"
     borderopacity="1.0"
     bordercolor="#666666"
     pagecolor="#ffffff"
     id="base" />
  <metadata
     id="metadata5">
    <rdf:RDF>
      <cc:Work
         rdf:about="">
        <dc:format>image/svg+xml</dc:format>
        <dc:type
           rdf:resource="http://purl.org/dc/dcmitype/StillImage" />
        <dc:title />
      </cc:Work>
    </rdf:RDF>
  </metadata>
  <g
     inkscape:groupmode="layer"
     id="layer5"
     inkscape:label="TRACE"
     style="display:inline;opacity:1">
    <path
       id="rect934"
       style="opacity:1;fill:none;stroke:#000000;stroke-width:0;stroke-linejoin:round;stroke-miterlimit:4;stroke-dasharray:none"
       d="M 18.916391,145.96541 H 177.66639 v 116.84 H 18.916391 Z" />
    <path
       id="path948"
       style="opacity:1;fill:#ffffff;stroke:#000000;stroke-width:0;stroke-linejoin:round;stroke-miterlimit:4;stroke-dasharray:none"
       d="m 38.9955,248.18471 a 7.5,7.5 0 0 1 -7.5,7.5 7.5,7.5 0 0 1 -7.499999,-7.5 7.5,7.5 0 0 1 7.499999,-7.5 7.5,7.5 0 0 1 7.5,7.5" />
    <path
       id="path948-2"
       style="display:inline;opacity:1;fill:#ffffff;stroke:#000000;stroke-width:0;stroke-linejoin:round;stroke-miterlimit:4;stroke-dasharray:none"
       d="m 172.54471,248.18471 a 7.5000004,7.5000004 0 0 1 -7.5,7.5 7.5000004,7.5000004 0 0 1 -7.5,-7.5 7.5000004,7.5000004 0 0 1 7.5,-7.5 7.5000004,7.5000004 0 0 1 7.5,7.5" />
    <path
       id="rect967"
       style="opacity:1;fill:#ffffff;stroke:#000000;stroke-width:1.00559;stroke-linejoin:round;stroke-miterlimit:4;stroke-dasharray:none"
       d="m 34.591428,156.5997 h 3.501956 c 0.464602,0 0.838632,0.35463 0.838632,0.79514 v 7.40413 c 0,0.44051 -0.37403,0.79514 -0.838632,0.79514 h -3.501956 c -0.464602,0 -0.838632,-0.35463 -0.838632,-0.79514 v -7.40413 c 0,-0.44051 0.37403,-0.79514 0.838632,-0.79514 z" />
    <path
       id="rect967-2"
       style="display:inline;opacity:1;fill:#ffffff;stroke:#000000;stroke-width:1.00559;stroke-linejoin:round;stroke-miterlimit:4;stroke-dasharray:none"
       d="m 34.591428,182.9162 h 3.501956 c 0.464602,0 0.838632,0.35463 0.838632,0.79514 v 7.40413 c 0,0.4405 -0.37403,0.79514 -0.838632,0.79514 h -3.501956 c -0.464602,0 -0.838632,-0.35464 -0.838632,-0.79514 v -7.40413 c 0,-0.44051 0.37403,-0.79514 0.838632,-0.79514 z" />
    <path
       id="rect967-2-4"
       style="display:inline;opacity:1;fill:#ffffff;stroke:#000000;stroke-width:1.00559;stroke-linejoin:round;stroke-miterlimit:4;stroke-dasharray:none"
       d="m 205.84142,-169.49721 h 3.50196 c 0.4646,0 0.83863,0.35464 0.83863,0.79514 v 7.40413 c 0,0.44051 -0.37403,0.79514 -0.83863,0.79514 h -3.50196 c -0.4646,0 -0.83863,-0.35463 -0.83863,-0.79514 v -7.40413 c 0,-0.4405 0.37403,-0.79514 0.83863,-0.79514 z"
       transform="rotate(90)" />
    <path
       id="rect967-2-4-4"
       style="display:inline;opacity:1;fill:#ffffff;stroke:#000000;stroke-width:1.00559;stroke-linejoin:round;stroke-miterlimit:4;stroke-dasharray:none"
       d="m 195.84142,-169.49721 h 3.50196 c 0.4646,0 0.83863,0.35464 0.83863,0.79514 v 7.40413 c 0,0.44051 -0.37403,0.79514 -0.83863,0.79514 h -3.50196 c -0.4646,0 -0.83863,-0.35463 -0.83863,-0.79514 v -7.40413 c 0,-0.4405 0.37403,-0.79514 0.83863,-0.79514 z"
       transform="rotate(90)" />
    <path
       id="rect967-2-4-4-0"
       style="display:inline;opacity:1;fill:#ffffff;stroke:#000000;stroke-width:1.00559;stroke-linejoin:round;stroke-miterlimit:4;stroke-dasharray:none"
       d="m 185.84142,-169.49721 h 3.50196 c 0.4646,0 0.83863,0.35464 0.83863,0.79514 v 7.40413 c 0,0.44051 -0.37403,0.79514 -0.83863,0.79514 h -3.50196 c -0.4646,0 -0.83863,-0.35463 -0.83863,-0.79514 v -7.40413 c 0,-0.4405 0.37403,-0.79514 0.83863,-0.79514 z"
       transform="rotate(90)" />
    <path
       id="rect967-2-4-4-0-2"
       style="display:inline;opacity:1;fill:#ffffff;stroke:#000000;stroke-width:1.06016;stroke-linecap:square;stroke-linejoin:round;stroke-miterlimit:4;stroke-dasharray:none"
       d="m 160.57216,-169.46991 h 16.98544 c 0.99976,0 1.80461,0.80486 1.80461,1.80461 v 5.33062 c 0,0.99975 -0.80485,1.80461 -1.80461,1.80461 h -16.98544 c -0.99976,0 -1.80461,-0.80486 -1.80461,-1.80461 v -5.33062 c 0,-0.99975 0.80485,-1.80461 1.80461,-1.80461 z"
       transform="rotate(90)" />
    <path
       id="rect967-2-4-3"
       style="display:inline;opacity:1;fill:#ffffff;stroke:#000000;stroke-width:1.00559;stroke-linejoin:round;stroke-miterlimit:4;stroke-dasharray:none"
       d="m 216.84142,-169.49721 h 3.50196 c 0.4646,0 0.83863,0.35464 0.83863,0.79514 v 7.40413 c 0,0.44051 -0.37403,0.79514 -0.83863,0.79514 h -3.50196 c -0.4646,0 -0.83863,-0.35463 -0.83863,-0.79514 v -7.40413 c 0,-0.4405 0.37403,-0.79514 0.83863,-0.79514 z"
       transform="rotate(90)" />
    <path
       id="rect967-2-4-33"
       style="display:inline;opacity:1;fill:#ffffff;stroke:#000000;stroke-width:1.00559;stroke-linejoin:round;stroke-miterlimit:4;stroke-dasharray:none"
       d="m 241.84142,-60.997204 h 3.50196 c 0.4646,0 0.83863,0.354633 0.83863,0.795141 v 7.404127 c 0,0.440508 -0.37403,0.795141 -0.83863,0.795141 h -3.50196 c -0.4646,0 -0.83863,-0.354633 -0.83863,-0.795141 v -7.404127 c 0,-0.440508 0.37403,-0.795141 0.83863,-0.795141 z"
       transform="rotate(90)" />
    <path
       id="rect967-2-4-33-1-3"
       style="display:inline;opacity:1;fill:#ffffff;stroke:#000000;stroke-width:0;stroke-linejoin:round;stroke-miterlimit:4;stroke-dasharray:none"
       d="m 95.00279,242.00428 v 4.18202 c 0,0.55482 -0.394282,1.00149 -0.884038,1.00149 H 85.88683 c -0.489757,0 -0.884039,-0.44667 -0.884039,-1.00149 v -4.18202 c 0,-0.55483 0.394282,-1.00149 0.884039,-1.00149 h 8.231922 c 0.489756,0 0.884038,0.44666 0.884038,1.00149 z" />
    <path
       id="path948-1"
       style="display:inline;opacity:1;fill:#ffffff;stroke:#000000;stroke-width:0.639063;stroke-linejoin:round;stroke-miterlimit:4;stroke-dasharray:none"
       d="m 32.82035,199.72916 a 3.1804688,3.1804688 0 0 1 -3.180469,3.18047 3.1804688,3.1804688 0 0 1 -3.180469,-3.18047 3.1804688,3.1804688 0 0 1 3.180469,-3.18047 3.1804688,3.1804688 0 0 1 3.180469,3.18047" />
    <path
       id="path948-1-0"
       style="display:inline;opacity:1;fill:#ffffff;stroke:#000000;stroke-width:0.639064;stroke-linejoin:round;stroke-miterlimit:4;stroke-dasharray:none"
       d="m 32.284635,173.11308 a 3.180469,3.180469 0 0 1 -3.180469,3.18047 3.180469,3.180469 0 0 1 -3.180469,-3.18047 3.180469,3.180469 0 0 1 3.180469,-3.18047 3.180469,3.180469 0 0 1 3.180469,3.18047" />
    <path
       id="rect1183"
       style="opacity:1;fill:#ffffff;stroke:#000000;stroke-width:0;stroke-linecap:square;stroke-linejoin:miter;stroke-miterlimit:4;stroke-dasharray:none"
       d="M 43.500395,156.08566 H 153.4458 c 0.50264,0 0.9073,0.34806 0.9073,0.7804 v 73.50996 c 0,0.43234 -0.40466,0.7804 -0.9073,0.7804 H 43.500395 c -0.502643,0 -0.907297,-0.34806 -0.907297,-0.7804 v -73.50996 c 0,-0.43234 0.404654,-0.7804 0.907297,-0.7804 z" />
    <path
       id="rect1183-5"
       style="display:inline;opacity:1;fill:#ffffff;stroke:#000000;stroke-width:0;stroke-linecap:square;stroke-linejoin:miter;stroke-miterlimit:4;stroke-dasharray:none"
       d="M 46.207537,161.52744 H 151.96211 c 0.48348,0 0.87271,0.30136 0.87271,0.67571 v 63.64858 c 0,0.37434 -0.38923,0.67571 -0.87271,0.67571 H 46.207537 c -0.483483,0 -0.872713,-0.30137 -0.872713,-0.67571 v -63.64858 c 0,-0.37435 0.38923,-0.67571 0.872713,-0.67571 z" />
    <path
       id="path948-1-00"
       style="display:inline;opacity:1;fill:#ffffff;stroke:#000000;stroke-width:0.721562;stroke-linejoin:round;stroke-miterlimit:4;stroke-dasharray:none"
       d="m 99.452383,254.93312 a 1.6392188,1.6392188 0 0 1 -1.639219,1.63922 1.6392188,1.6392188 0 0 1 -1.639219,-1.63922 1.6392188,1.6392188 0 0 1 1.639219,-1.63922 1.6392188,1.6392188 0 0 1 1.639219,1.63922" />
    <path
       id="rect958"
       style="opacity:1;fill:#ffffff;stroke:#000000;stroke-width:0.925003;stroke-linejoin:round;stroke-miterlimit:4;stroke-dasharray:none"
       d="m 57.546225,251.43716 h 26.340693 c 0.235574,0 0.425223,0.25287 0.425223,0.56698 v 2.98182 c 0,0.3141 -0.189649,0.56697 -0.425223,0.56697 H 57.546225 c -0.235573,0 -0.425223,-0.25287 -0.425223,-0.56697 v -2.98182 c 0,-0.31411 0.18965,-0.56698 0.425223,-0.56698 z" />
    <path
       id="rect958-1"
       style="display:inline;opacity:1;fill:#ffffff;stroke:#000000;stroke-width:0.925002;stroke-linejoin:round;stroke-miterlimit:4;stroke-dasharray:none"
       d="m 112.20705,251.44434 h 26.3407 c 0.23557,0 0.42522,0.25286 0.42522,0.56697 v 2.98182 c 0,0.3141 -0.18965,0.56697 -0.42522,0.56697 h -26.3407 c -0.23557,0 -0.42522,-0.25287 -0.42522,-0.56697 v -2.98182 c 0,-0.31411 0.18965,-0.56697 0.42522,-0.56697 z" />
    <path
       d="m 109.17969,240.99493 v 4.18202 c 0,0.55482 -0.39428,1.00149 -0.88404,1.00149 h -8.23192 c -0.48976,0 -0.884042,-0.44667 -0.884042,-1.00149 v -4.18202 c 0,-0.55483 0.394282,-1.00149 0.884042,-1.00149 h 8.23192 c 0.48976,0 0.88404,0.44666 0.88404,1.00149 z"
       style="display:inline;opacity:1;fill:#ffffff;stroke:#000000;stroke-width:0;stroke-linejoin:round;stroke-miterlimit:4;stroke-dasharray:none"
       id="rect967-2-4-33-1-3-3" />
    <path
       d="m 123.02897,242.75193 v 4.18202 c 0,0.55482 -0.39428,1.00149 -0.88404,1.00149 h -8.23192 c -0.48976,0 -0.88404,-0.44667 -0.88404,-1.00149 v -4.18202 c 0,-0.55483 0.39428,-1.00149 0.88404,-1.00149 h 8.23192 c 0.48976,0 0.88404,0.44666 0.88404,1.00149 z"
       style="display:inline;opacity:1;fill:#ffffff;stroke:#000000;stroke-width:0;stroke-linejoin:round;stroke-miterlimit:4;stroke-dasharray:none"
       id="rect967-2-4-33-1-3-1" />
    <path
       d="m 139.87549,241.7184 v 4.18202 c 0,0.55482 -0.39428,1.00149 -0.88404,1.00149 h -8.23192 c -0.48976,0 -0.88404,-0.44667 -0.88404,-1.00149 v -4.18202 c 0,-0.55483 0.39428,-1.00149 0.88404,-1.00149 h 8.23192 c 0.48976,0 0.88404,0.44666 0.88404,1.00149 z"
       style="display:inline;opacity:1;fill:#ffffff;stroke:#000000;stroke-width:0;stroke-linejoin:round;stroke-miterlimit:4;stroke-dasharray:none"
       id="rect967-2-4-33-1-3-15" />
    <path
       d="m 87.578939,242.13181 v 4.18202 c 0,0.55482 -0.394282,1.00149 -0.884038,1.00149 h -8.231922 c -0.489757,0 -0.884039,-0.44667 -0.884039,-1.00149 v -4.18202 c 0,-0.55483 0.394282,-1.00149 0.884039,-1.00149 h 8.231922 c 0.489756,0 0.884038,0.44666 0.884038,1.00149 z"
       style="display:inline;opacity:1;fill:#ffffff;stroke:#000000;stroke-width:0;stroke-linejoin:round;stroke-miterlimit:4;stroke-dasharray:none"
       id="rect967-2-4-33-1-3-0" />
  </g>
  <g
     inkscape:groupmode="layer"
     id="layer2"
     inkscape:label="TEXT"
     style="display:inline">
    <g
       aria-label="GARMIN"
       transform="scale(0.91410998,1.0939603)"
       id="text980"
       style="font-style:normal;font-variant:normal;font-weight:normal;font-stretch:normal;font-size:3.09985px;line-height:1.25;font-family:'Malgun Gothic';-inkscape-font-specification:'Malgun Gothic';letter-spacing:-0.304605px;word-spacing:-0.795714px;fill:#000000;fill-opacity:1;stroke:none;stroke-width:0.0774966">
      <path
         d="m 26.702363,138.71447 q -0.343587,0.19828 -0.844588,0.19828 -0.560031,0 -0.883941,-0.31482 -0.323911,-0.31483 -0.323911,-0.86124 0,-0.55398 0.355696,-0.90059 0.357209,-0.34813 0.939945,-0.34813 0.375372,0 0.655388,0.10595 v 0.47376 q -0.272448,-0.15893 -0.665983,-0.15893 -0.339046,0 -0.549437,0.22099 -0.21039,0.22098 -0.21039,0.58273 0,0.36781 0.1892,0.57365 0.190713,0.20585 0.519164,0.20585 0.195255,0 0.31937,-0.0605 v -0.48132 H 25.729119 V 137.549 h 0.973244 z"
         style="font-style:normal;font-variant:normal;font-weight:bold;font-stretch:normal;font-family:'Microsoft YaHei UI';-inkscape-font-specification:'Microsoft YaHei UI Bold';stroke-width:0.0774966"
         id="path2056" />
      <path
         d="m 28.899737,138.87189 h -0.544896 l -0.175577,-0.53733 h -0.852156 l -0.17255,0.53733 h -0.541869 l 0.858211,-2.34457 h 0.587276 z m -0.838534,-0.9233 -0.266393,-0.8128 q -0.02573,-0.0772 -0.03633,-0.20434 h -0.01362 q -0.0091,0.10293 -0.04087,0.19829 l -0.267907,0.81885 z"
         style="font-style:normal;font-variant:normal;font-weight:bold;font-stretch:normal;font-family:'Microsoft YaHei UI';-inkscape-font-specification:'Microsoft YaHei UI Bold';stroke-width:0.0774966"
         id="path2058" />
      <path
         d="m 30.826176,138.87189 h -0.575167 l -0.367805,-0.60998 q -0.11352,-0.1892 -0.186172,-0.24369 -0.07265,-0.0545 -0.154387,-0.0545 h -0.15136 v 0.90816 h -0.499488 v -2.34457 h 0.821884 q 0.83702,0 0.83702,0.63571 0,0.23915 -0.140764,0.41019 -0.139252,0.17104 -0.384455,0.24066 v 0.006 q 0.161956,0.0545 0.358723,0.35721 z m -1.434891,-1.96465 v 0.67506 h 0.245203 q 0.175577,0 0.281529,-0.10141 0.107465,-0.10292 0.107465,-0.2558 0,-0.31785 -0.379913,-0.31785 z"
         style="font-style:normal;font-variant:normal;font-weight:bold;font-stretch:normal;font-family:'Microsoft YaHei UI';-inkscape-font-specification:'Microsoft YaHei UI Bold';stroke-width:0.0774966"
         id="path2060" />
      <path
         d="m 32.900948,138.87189 v -1.42279 q 0,-0.19676 0.01968,-0.49494 h -0.01211 q -0.04541,0.22552 -0.07265,0.3012 l -0.578194,1.61653 H 31.859592 L 31.27383,137.2705 q -0.02119,-0.0575 -0.07417,-0.31634 h -0.01362 q 0.01968,0.29515 0.01968,0.59181 v 1.32592 h -0.451053 v -2.34457 h 0.726528 l 0.505542,1.41673 q 0.06357,0.17558 0.08627,0.32997 h 0.0106 q 0.04692,-0.19223 0.09687,-0.333 l 0.507056,-1.4137 h 0.70685 v 2.34457 z"
         style="font-style:normal;font-variant:normal;font-weight:bold;font-stretch:normal;font-family:'Microsoft YaHei UI';-inkscape-font-specification:'Microsoft YaHei UI Bold';stroke-width:0.0774966"
         id="path2062" />
      <path
         d="m 34.1387,136.52732 v 2.34457 h -0.499487 v -2.34457 z"
         style="font-style:normal;font-variant:normal;font-weight:bold;font-stretch:normal;font-family:'Microsoft YaHei UI';-inkscape-font-specification:'Microsoft YaHei UI Bold';stroke-width:0.0774966"
         id="path2064" />
      <path
         d="m 36.461702,138.87189 h -0.511596 l -0.992921,-1.51663 q -0.07719,-0.11806 -0.112006,-0.19071 h -0.0076 q 0.01362,0.12109 0.01362,0.37386 v 1.33348 h -0.473756 v -2.34457 h 0.544895 l 0.956595,1.47425 q 0.09536,0.14682 0.116547,0.18617 h 0.0076 q -0.01514,-0.0848 -0.01514,-0.32391 v -1.33651 h 0.473756 z"
         style="font-style:normal;font-variant:normal;font-weight:bold;font-stretch:normal;font-family:'Microsoft YaHei UI';-inkscape-font-specification:'Microsoft YaHei UI Bold';stroke-width:0.0774966"
         id="path2066" />
    </g>
    <g
       aria-label="COM "
       id="text984"
       style="font-style:normal;font-weight:normal;font-size:3.03293px;line-height:1.25;font-family:sans-serif;fill:#000000;fill-opacity:1;stroke:none;stroke-width:0.0758235">
      <path
         d="m 24.048153,230.9903 q -0.245833,0 -0.454643,-0.0726 -0.207329,-0.0726 -0.356903,-0.21622 -0.149573,-0.14365 -0.232504,-0.35838 -0.08145,-0.21473 -0.08145,-0.49611 0,-0.26212 0.07849,-0.47537 0.07849,-0.21326 0.228062,-0.36579 0.143649,-0.14661 0.355421,-0.22658 0.213253,-0.08 0.46501,-0.08 0.139207,0 0.250276,0.0163 0.11255,0.0148 0.207329,0.04 0.09922,0.0281 0.179192,0.0637 0.08145,0.0341 0.142169,0.0637 v 0.53461 h -0.06516 q -0.04147,-0.0355 -0.105146,-0.0844 -0.0622,-0.0489 -0.142168,-0.0963 -0.08145,-0.0474 -0.17623,-0.08 -0.09478,-0.0326 -0.202886,-0.0326 -0.119955,0 -0.228063,0.0385 -0.108107,0.037 -0.199924,0.12439 -0.08738,0.0844 -0.142169,0.22362 -0.05331,0.13921 -0.05331,0.33765 0,0.20733 0.05776,0.34654 0.05924,0.13921 0.148092,0.21917 0.09034,0.0815 0.201406,0.117 0.111069,0.0341 0.219176,0.0341 0.103665,0 0.204368,-0.0311 0.102183,-0.0311 0.188077,-0.0844 0.07257,-0.0429 0.134764,-0.0918 0.0622,-0.0489 0.102184,-0.0844 h 0.05924 v 0.52721 q -0.08293,0.037 -0.158459,0.0696 -0.07553,0.0326 -0.158459,0.0563 -0.108107,0.0311 -0.202886,0.0474 -0.09478,0.0163 -0.260643,0.0163 z"
         style="font-style:normal;font-variant:normal;font-weight:bold;font-stretch:normal;font-family:sans-serif;-inkscape-font-specification:'sans-serif Bold';letter-spacing:-0.238125px;stroke-width:0.0758235"
         id="path2069" />
      <path
         d="m 27.155433,229.84555 q 0,0.52721 -0.302108,0.8382 -0.302109,0.30952 -0.835241,0.30952 -0.531651,0 -0.833759,-0.30952 -0.302109,-0.31099 -0.302109,-0.8382 0,-0.53165 0.302109,-0.83968 0.302108,-0.30952 0.833759,-0.30952 0.530171,0 0.83376,0.30952 0.303589,0.30803 0.303589,0.83968 z m -0.75379,0.55831 q 0.08293,-0.1007 0.122917,-0.23695 0.03998,-0.13772 0.03998,-0.32284 0,-0.19844 -0.04591,-0.33765 -0.04591,-0.13921 -0.119955,-0.2251 -0.07553,-0.0889 -0.174749,-0.12884 -0.09774,-0.04 -0.204367,-0.04 -0.108107,0 -0.204367,0.0385 -0.09478,0.0385 -0.174749,0.12736 -0.07405,0.0829 -0.121436,0.22954 -0.04591,0.14513 -0.04591,0.33765 0,0.19696 0.04443,0.33617 0.04591,0.13773 0.119955,0.2251 0.07405,0.0874 0.173268,0.12884 0.09922,0.0415 0.20881,0.0415 0.109588,0 0.20881,-0.0415 0.09922,-0.043 0.173268,-0.1318 z"
         style="font-style:normal;font-variant:normal;font-weight:bold;font-stretch:normal;font-family:sans-serif;-inkscape-font-specification:'sans-serif Bold';letter-spacing:-0.238125px;stroke-width:0.0758235"
         id="path2071" />
      <path
         d="m 29.661458,230.94736 h -0.565713 v -1.47648 l -0.408735,0.95815 h -0.392444 l -0.408735,-0.95815 v 1.47648 h -0.536094 v -2.2051 h 0.660492 l 0.496109,1.10625 0.494628,-1.10625 h 0.660492 z"
         style="font-style:normal;font-variant:normal;font-weight:bold;font-stretch:normal;font-family:sans-serif;-inkscape-font-specification:'sans-serif Bold';letter-spacing:-0.238125px;stroke-width:0.0758235"
         id="path2073" />
    </g>
    <g
       aria-label="VLOC "
       id="text984-4"
       style="font-style:normal;font-weight:normal;font-size:2.87853px;line-height:1.25;font-family:sans-serif;fill:#000000;fill-opacity:1;stroke:none;stroke-width:0.0719635">
      <path
         d="m 32.230638,231.41125 -0.763204,2.09284 h -0.604379 l -0.763204,-2.09284 h 0.56643 l 0.505991,1.47019 0.505992,-1.47019 z"
         style="font-style:normal;font-variant:normal;font-weight:bold;font-stretch:normal;font-family:sans-serif;-inkscape-font-specification:'sans-serif Bold';letter-spacing:-0.240771px;stroke-width:0.0719635"
         id="path2076" />
      <path
         d="m 33.800192,233.50409 h -1.509541 v -2.09284 h 0.539724 v 1.68805 h 0.969817 z"
         style="font-style:normal;font-variant:normal;font-weight:bold;font-stretch:normal;font-family:sans-serif;-inkscape-font-specification:'sans-serif Bold';letter-spacing:-0.240771px;stroke-width:0.0719635"
         id="path2078" />
      <path
         d="m 35.917905,232.45837 q 0,0.50037 -0.286729,0.79553 -0.286729,0.29376 -0.79272,0.29376 -0.504586,0 -0.791315,-0.29376 -0.286728,-0.29516 -0.286728,-0.79553 0,-0.50458 0.286728,-0.79693 0.286729,-0.29376 0.791315,-0.29376 0.50318,0 0.791314,0.29376 0.288135,0.29235 0.288135,0.79693 z m -0.715416,0.52989 q 0.07871,-0.0956 0.116659,-0.22489 0.03795,-0.13071 0.03795,-0.3064 0,-0.18834 -0.04357,-0.32046 -0.04357,-0.13212 -0.113848,-0.21364 -0.07168,-0.0843 -0.165853,-0.12229 -0.09276,-0.0379 -0.193964,-0.0379 -0.102603,0 -0.193963,0.0366 -0.08995,0.0365 -0.165853,0.12087 -0.07028,0.0787 -0.115254,0.21786 -0.04357,0.13774 -0.04357,0.32046 0,0.18694 0.04217,0.31906 0.04357,0.13071 0.113848,0.21364 0.07028,0.0829 0.164447,0.12228 0.09417,0.0394 0.19818,0.0394 0.10401,0 0.19818,-0.0394 0.09417,-0.0408 0.164448,-0.12509 z"
         style="font-style:normal;font-variant:normal;font-weight:bold;font-stretch:normal;font-family:sans-serif;-inkscape-font-specification:'sans-serif Bold';letter-spacing:-0.240771px;stroke-width:0.0719635"
         id="path2080" />
      <path
         d="m 37.033472,233.54485 q -0.233318,0 -0.431498,-0.0689 -0.196775,-0.0689 -0.338733,-0.20521 -0.141959,-0.13634 -0.220669,-0.34014 -0.0773,-0.2038 -0.0773,-0.47085 0,-0.24878 0.07449,-0.45118 0.07449,-0.20239 0.216452,-0.34716 0.136337,-0.13915 0.337328,-0.21505 0.202396,-0.0759 0.441337,-0.0759 0.13212,0 0.237535,0.0155 0.10682,0.0141 0.196774,0.0379 0.09417,0.0267 0.17007,0.0604 0.0773,0.0323 0.134931,0.0604 v 0.50739 h -0.06184 q -0.03936,-0.0337 -0.09979,-0.0801 -0.05903,-0.0464 -0.134932,-0.0914 -0.0773,-0.045 -0.167258,-0.0759 -0.08995,-0.0309 -0.192558,-0.0309 -0.113848,0 -0.216452,0.0365 -0.102604,0.0351 -0.189747,0.11807 -0.08293,0.0801 -0.134931,0.21223 -0.0506,0.13212 -0.0506,0.32046 0,0.19678 0.05482,0.3289 0.05622,0.13212 0.140553,0.20802 0.08574,0.0773 0.191153,0.11103 0.105414,0.0323 0.208018,0.0323 0.09839,0 0.193964,-0.0295 0.09698,-0.0295 0.178502,-0.0801 0.06887,-0.0408 0.127904,-0.0871 0.05903,-0.0464 0.09698,-0.0801 h 0.05622 v 0.50037 q -0.07871,0.0351 -0.150392,0.0661 -0.07168,0.0309 -0.150392,0.0534 -0.102604,0.0295 -0.192558,0.045 -0.08995,0.0155 -0.247374,0.0155 z"
         style="font-style:normal;font-variant:normal;font-weight:bold;font-stretch:normal;font-family:sans-serif;-inkscape-font-specification:'sans-serif Bold';letter-spacing:-0.240771px;stroke-width:0.0719635"
         id="path2082" />
    </g>
    <g
       aria-label="/ "
       transform="scale(1.0826106,0.92369315)"
       id="text984-8"
       style="font-style:normal;font-variant:normal;font-weight:bold;font-stretch:normal;font-size:4.11194px;line-height:1.25;font-family:sans-serif;-inkscape-font-specification:'sans-serif Bold';fill:#000000;fill-opacity:1;stroke:none;stroke-width:0.102799">
      <path
         d="m 28.947094,248.00301 -1.592172,3.77463 h -0.616389 l 1.586148,-3.77463 z"
         style="font-style:normal;font-variant:normal;font-weight:bold;font-stretch:normal;font-family:sans-serif;-inkscape-font-specification:'sans-serif Bold';stroke-width:0.102799"
         id="path2085" />
    </g>
    <g
       aria-label="GPS "
       id="text984-4-8"
       style="font-style:normal;font-variant:normal;font-weight:bold;font-stretch:normal;font-size:3.30712px;line-height:1.25;font-family:sans-serif;-inkscape-font-specification:'sans-serif Bold';letter-spacing:-0.0105833px;fill:#000000;fill-opacity:1;stroke:none;stroke-width:0.0826784">
      <path
         d="m 159.07368,233.88845 q -0.16148,0.063 -0.42793,0.12596 -0.26644,0.0614 -0.53127,0.0614 -0.61362,0 -0.9608,-0.33265 -0.34719,-0.33426 -0.34719,-0.92205 0,-0.56034 0.35041,-0.90268 0.35042,-0.34395 0.97696,-0.34395 0.23738,0 0.45215,0.0436 0.21477,0.042 0.47798,0.16955 v 0.56357 h -0.0694 q -0.0452,-0.0339 -0.13241,-0.0953 -0.0872,-0.063 -0.16794,-0.10658 -0.0937,-0.0517 -0.21961,-0.0888 -0.12434,-0.0371 -0.26483,-0.0371 -0.16471,0 -0.29874,0.0485 -0.13403,0.0484 -0.24061,0.14856 -0.10173,0.0969 -0.16148,0.24706 -0.0581,0.14857 -0.0581,0.34396 0,0.39885 0.21154,0.61039 0.21154,0.21154 0.62493,0.21154 0.0355,0 0.0775,-0.002 0.0436,-0.002 0.0791,-0.005 v -0.47152 h -0.47959 v -0.45376 h 1.10937 z"
         style="font-style:normal;font-variant:normal;font-weight:bold;font-stretch:normal;font-family:sans-serif;-inkscape-font-specification:'sans-serif Bold';letter-spacing:-0.264583px;stroke-width:0.0826784"
         id="path2088" />
      <path
         d="m 161.34757,232.38023 q 0,0.16148 -0.0565,0.3165 -0.0565,0.1534 -0.16148,0.25837 -0.14372,0.1421 -0.32135,0.21476 -0.17601,0.0727 -0.43922,0.0727 h -0.38594 v 0.78318 h -0.62009 v -2.40444 h 1.02056 q 0.2293,0 0.38594,0.0404 0.15825,0.0387 0.27936,0.11788 0.14533,0.0953 0.22123,0.24383 0.0775,0.14857 0.0775,0.35688 z m -0.64108,0.0145 q 0,-0.10173 -0.0549,-0.1744 -0.0549,-0.0743 -0.12757,-0.10335 -0.0969,-0.0387 -0.18893,-0.042 -0.0921,-0.005 -0.24546,-0.005 h -0.10657 v 0.72021 h 0.17763 q 0.15825,0 0.25998,-0.0194 0.10335,-0.0194 0.17278,-0.0775 0.0598,-0.0517 0.0856,-0.12273 0.0275,-0.0727 0.0275,-0.17601 z"
         style="font-style:normal;font-variant:normal;font-weight:bold;font-stretch:normal;font-family:sans-serif;-inkscape-font-specification:'sans-serif Bold';letter-spacing:-0.264583px;stroke-width:0.0826784"
         id="path2090" />
      <path
         d="m 163.44544,233.26998 q 0,0.35526 -0.30196,0.5781 -0.30036,0.22123 -0.8171,0.22123 -0.29873,0 -0.52158,-0.0517 -0.22123,-0.0533 -0.415,-0.13403 v -0.57649 h 0.0678 q 0.19216,0.15341 0.42954,0.23576 0.23899,0.0824 0.4586,0.0824 0.0565,0 0.14856,-0.01 0.0921,-0.01 0.15018,-0.0323 0.0711,-0.0291 0.11627,-0.0727 0.0468,-0.0436 0.0468,-0.12919 0,-0.0791 -0.0678,-0.13564 -0.0662,-0.0581 -0.19539,-0.0888 -0.13564,-0.0323 -0.28743,-0.0598 -0.15018,-0.0291 -0.28259,-0.0727 -0.30359,-0.0985 -0.43761,-0.26644 -0.13242,-0.16956 -0.13242,-0.41985 0,-0.33588 0.30035,-0.54742 0.30197,-0.21315 0.77511,-0.21315 0.23738,0 0.46829,0.0468 0.23254,0.0452 0.40209,0.11465 v 0.55388 h -0.0662 q -0.14533,-0.11627 -0.35687,-0.19378 -0.20992,-0.0791 -0.42954,-0.0791 -0.0775,0 -0.15502,0.0113 -0.0759,0.01 -0.14694,0.0387 -0.063,0.0242 -0.1082,0.0743 -0.0452,0.0485 -0.0452,0.11143 0,0.0953 0.0727,0.14694 0.0727,0.0501 0.27451,0.0921 0.13242,0.0275 0.25353,0.0533 0.12272,0.0258 0.26321,0.0711 0.27613,0.0904 0.40693,0.24706 0.13241,0.15502 0.13241,0.4037 z"
         style="font-style:normal;font-variant:normal;font-weight:bold;font-stretch:normal;font-family:sans-serif;-inkscape-font-specification:'sans-serif Bold';letter-spacing:-0.264583px;stroke-width:0.0826784"
         id="path2092" />
    </g>
    <g
       aria-label="DEFAULT NAV "
       transform="scale(0.95017398,1.0524388)"
       id="text984-4-2"
       style="font-style:normal;font-variant:normal;font-weight:bold;font-stretch:normal;font-size:2.27523px;line-height:1.05;font-family:sans-serif;-inkscape-font-specification:'sans-serif Bold';text-align:end;letter-spacing:-0.264583px;text-anchor:end;fill:#000000;fill-opacity:1;stroke:none;stroke-width:0.0568809">
      <path
         d="m 173.22292,214.52356 q 0,0.23108 -0.10554,0.41439 -0.10554,0.18219 -0.26663,0.27996 -0.12109,0.0733 -0.26551,0.1022 -0.14443,0.0289 -0.34218,0.0289 h -0.58325 v -1.65421 h 0.59992 q 0.20219,0 0.34884,0.0344 0.14664,0.0333 0.24663,0.0955 0.17108,0.10443 0.26885,0.28218 0.0989,0.17665 0.0989,0.41661 z m -0.44104,-0.003 q 0,-0.16331 -0.06,-0.27885 -0.0589,-0.11665 -0.18775,-0.1822 -0.0655,-0.0322 -0.13442,-0.0433 -0.0678,-0.0122 -0.20553,-0.0122 h -0.10776 v 1.0354 h 0.10776 q 0.1522,0 0.2233,-0.0133 0.0711,-0.0144 0.13887,-0.0511 0.11665,-0.0667 0.17109,-0.17775 0.0544,-0.11221 0.0544,-0.27663 z"
         style="font-style:normal;font-variant:normal;font-weight:bold;font-stretch:normal;font-family:sans-serif;-inkscape-font-specification:'sans-serif Bold';text-align:end;text-anchor:end;stroke-width:0.0568809"
         id="path2095" />
      <path
         d="m 174.48034,215.349 h -1.19649 v -1.65421 h 1.19649 v 0.31996 h -0.77211 v 0.28551 h 0.71657 v 0.31995 h -0.71657 v 0.40883 h 0.77211 z"
         style="font-style:normal;font-variant:normal;font-weight:bold;font-stretch:normal;font-family:sans-serif;-inkscape-font-specification:'sans-serif Bold';text-align:end;text-anchor:end;stroke-width:0.0568809"
         id="path2097" />
      <path
         d="m 175.75999,214.01475 h -0.76101 v 0.30773 h 0.70546 v 0.31995 h -0.70546 v 0.70657 h -0.42438 v -1.65421 h 1.18539 z"
         style="font-style:normal;font-variant:normal;font-weight:bold;font-stretch:normal;font-family:sans-serif;-inkscape-font-specification:'sans-serif Bold';text-align:end;text-anchor:end;stroke-width:0.0568809"
         id="path2099" />
      <path
         d="m 177.31847,215.349 h -0.44104 l -0.11443,-0.3344 h -0.61325 l -0.11443,0.3344 h -0.42993 l 0.61102,-1.65421 h 0.49104 z m -0.65879,-0.63769 -0.2033,-0.59325 -0.20331,0.59325 z"
         style="font-style:normal;font-variant:normal;font-weight:bold;font-stretch:normal;font-family:sans-serif;-inkscape-font-specification:'sans-serif Bold';text-align:end;text-anchor:end;stroke-width:0.0568809"
         id="path2101" />
      <path
         d="m 178.74254,214.7502 q 0,0.30662 -0.18664,0.46993 -0.18664,0.16331 -0.54992,0.16331 -0.36328,0 -0.54992,-0.16331 -0.18553,-0.16331 -0.18553,-0.46882 v -1.05652 h 0.42882 v 1.03208 q 0,0.17219 0.0722,0.25663 0.0722,0.0844 0.23441,0.0844 0.15997,0 0.2333,-0.0811 0.0744,-0.0811 0.0744,-0.25996 v -1.03208 h 0.42883 z"
         style="font-style:normal;font-variant:normal;font-weight:bold;font-stretch:normal;font-family:sans-serif;-inkscape-font-specification:'sans-serif Bold';text-align:end;text-anchor:end;stroke-width:0.0568809"
         id="path2103" />
      <path
         d="m 180.07106,215.349 h -1.19316 v -1.65421 h 0.4266 v 1.33425 h 0.76656 z"
         style="font-style:normal;font-variant:normal;font-weight:bold;font-stretch:normal;font-family:sans-serif;-inkscape-font-specification:'sans-serif Bold';text-align:end;text-anchor:end;stroke-width:0.0568809"
         id="path2105" />
      <path
         d="m 181.35626,214.01475 h -0.5166 v 1.33425 h -0.4266 v -1.33425 h -0.51659 v -0.31996 h 1.45979 z"
         style="font-style:normal;font-variant:normal;font-weight:bold;font-stretch:normal;font-family:sans-serif;-inkscape-font-specification:'sans-serif Bold';text-align:end;text-anchor:end;stroke-width:0.0568809"
         id="path2107" />
      <path
         d="m 178.2115,217.73799 h -0.41105 l -0.70212,-1.13539 v 1.13539 h -0.39106 v -1.65421 h 0.50993 l 0.60325,0.94764 v -0.94764 h 0.39105 z"
         style="font-style:normal;font-variant:normal;font-weight:bold;font-stretch:normal;font-family:sans-serif;-inkscape-font-specification:'sans-serif Bold';text-align:end;text-anchor:end;stroke-width:0.0568809"
         id="path2109" />
      <path
         d="m 179.89997,217.71799 h -0.44104 l -0.11443,-0.3344 h -0.61325 l -0.11443,0.3344 h -0.42993 l 0.61102,-1.65421 h 0.49104 z m -0.65879,-0.63769 -0.2033,-0.59324 -0.20331,0.59324 z"
         style="font-style:normal;font-variant:normal;font-weight:bold;font-stretch:normal;font-family:sans-serif;-inkscape-font-specification:'sans-serif Bold';text-align:end;text-anchor:end;stroke-width:0.0568809"
         id="path2111" />
      <path
         d="m 181.37514,216.06378 -0.60324,1.65421 h -0.47771 l -0.60325,-1.65421 h 0.44771 l 0.39995,1.16206 0.39994,-1.16206 z"
         style="font-style:normal;font-variant:normal;font-weight:bold;font-stretch:normal;font-family:sans-serif;-inkscape-font-specification:'sans-serif Bold';text-align:end;text-anchor:end;stroke-width:0.0568809"
         id="path2113" />
    </g>
    <g
       aria-label="GNS 530 "
       transform="scale(0.98768855,1.0124649)"
       id="text984-4-9"
       style="font-style:normal;font-weight:normal;font-size:2.84309px;line-height:1.25;font-family:sans-serif;fill:#000000;fill-opacity:1;stroke:none;stroke-width:0.0710775">
      <path
         d="m 167.69683,151.28827 q -0.16936,0.0777 -0.37066,0.13605 -0.1999,0.0569 -0.38731,0.0569 -0.24155,0 -0.44285,-0.0666 -0.20129,-0.0666 -0.34289,-0.1999 -0.14299,-0.13466 -0.22073,-0.33595 -0.0777,-0.20268 -0.0777,-0.47339 0,-0.4956 0.28875,-0.78157 0.29014,-0.28736 0.79546,-0.28736 0.1763,0 0.35955,0.043 0.18463,0.0417 0.39703,0.14299 v 0.32623 h -0.025 q -0.043,-0.0333 -0.12495,-0.0875 -0.0819,-0.0541 -0.16103,-0.0902 -0.0958,-0.043 -0.21795,-0.0708 -0.12078,-0.0291 -0.27487,-0.0291 -0.34706,0 -0.54974,0.2235 -0.20129,0.22212 -0.20129,0.60249 0,0.4012 0.21101,0.6247 0.21101,0.22212 0.57473,0.22212 0.13327,0 0.26515,-0.0264 0.13327,-0.0264 0.23322,-0.068 v -0.5067 h -0.5539 v -0.24155 h 0.82599 z"
         style="letter-spacing:-0.261326px;stroke-width:0.0710775"
         id="path2116" />
      <path
         d="m 169.49286,151.44098 h -0.34012 l -0.98009,-1.84912 v 1.84912 h -0.25682 v -2.06707 h 0.42619 l 0.89402,1.68808 v -1.68808 h 0.25682 z"
         style="letter-spacing:-0.261326px;stroke-width:0.0710775"
         id="path2118" />
      <path
         d="m 171.28333,150.85098 q 0,0.12078 -0.0569,0.23878 -0.0555,0.118 -0.15687,0.1999 -0.11106,0.0889 -0.2596,0.13882 -0.14715,0.05 -0.35539,0.05 -0.2235,0 -0.40258,-0.0417 -0.1777,-0.0416 -0.36233,-0.12355 v -0.34428 h 0.0194 q 0.15687,0.1305 0.36233,0.20129 0.20546,0.0708 0.38593,0.0708 0.25543,0 0.39703,-0.0958 0.14299,-0.0958 0.14299,-0.25544 0,-0.13743 -0.068,-0.20268 -0.0666,-0.0653 -0.20407,-0.10134 -0.10412,-0.0278 -0.22629,-0.0458 -0.12077,-0.018 -0.25682,-0.0458 -0.27487,-0.0583 -0.40814,-0.19852 -0.13188,-0.1416 -0.13188,-0.36788 0,-0.2596 0.21934,-0.4248 0.21934,-0.16658 0.55668,-0.16658 0.21795,0 0.39981,0.0416 0.18186,0.0417 0.32207,0.10273 v 0.32485 h -0.0194 q -0.118,-0.1 -0.31096,-0.1652 -0.19157,-0.0666 -0.39287,-0.0666 -0.22073,0 -0.35538,0.0916 -0.13327,0.0916 -0.13327,0.23599 0,0.12911 0.0666,0.20269 0.0666,0.0736 0.23461,0.11244 0.0889,0.0194 0.25266,0.0472 0.16381,0.0278 0.27765,0.0569 0.23044,0.0611 0.34705,0.18463 0.11661,0.12356 0.11661,0.34567 z"
         style="letter-spacing:-0.261326px;stroke-width:0.0710775"
         id="path2120" />
      <path
         d="m 173.5302,150.78435 q 0,0.14437 -0.0528,0.27625 -0.0528,0.13189 -0.14437,0.22212 -0.1,0.0972 -0.23878,0.14993 -0.13743,0.0514 -0.31929,0.0514 -0.16936,0 -0.32623,-0.0361 -0.15687,-0.0347 -0.26516,-0.0847 v -0.29292 h 0.0194 q 0.11383,0.0722 0.26654,0.12355 0.1527,0.05 0.29986,0.05 0.0986,0 0.19018,-0.0278 0.093,-0.0278 0.1652,-0.0972 0.0611,-0.0597 0.0916,-0.14299 0.0319,-0.0833 0.0319,-0.19296 0,-0.10689 -0.0375,-0.18047 -0.0361,-0.0736 -0.10134,-0.118 -0.0722,-0.0528 -0.1763,-0.0736 -0.10273,-0.0222 -0.23045,-0.0222 -0.12216,0 -0.236,0.0167 -0.11244,0.0167 -0.19435,0.0333 v -1.06477 h 1.24385 v 0.24294 h -0.97592 v 0.54974 q 0.0597,-0.006 0.12216,-0.008 0.0625,-0.003 0.10828,-0.003 0.16798,0 0.29431,0.0291 0.12633,0.0278 0.23183,0.1 0.11106,0.0763 0.17214,0.19712 0.0611,0.12078 0.0611,0.30264 z"
         style="letter-spacing:-0.261326px;stroke-width:0.0710775"
         id="path2122" />
      <path
         d="m 174.91392,150.44562 q 0.0666,0.0597 0.10967,0.14993 0.043,0.0902 0.043,0.23322 0,0.1416 -0.0514,0.2596 -0.0514,0.118 -0.14438,0.20546 -0.10411,0.0972 -0.24571,0.14437 -0.14021,0.0458 -0.30819,0.0458 -0.17214,0 -0.33873,-0.0416 -0.16658,-0.0403 -0.27348,-0.0889 v -0.29014 h 0.0208 q 0.118,0.0777 0.27764,0.12911 0.15965,0.0514 0.30819,0.0514 0.0875,0 0.18602,-0.0292 0.0986,-0.0291 0.15965,-0.0861 0.0639,-0.0611 0.0944,-0.13466 0.0319,-0.0736 0.0319,-0.18602 0,-0.11106 -0.0361,-0.18325 -0.0347,-0.0736 -0.0972,-0.11522 -0.0625,-0.043 -0.15132,-0.0583 -0.0889,-0.0167 -0.19158,-0.0167 h -0.12494 v -0.23044 h 0.0972 q 0.21101,0 0.33595,-0.0875 0.12633,-0.0889 0.12633,-0.25821 0,-0.075 -0.0319,-0.13049 -0.0319,-0.0569 -0.0888,-0.093 -0.0597,-0.0361 -0.12771,-0.05 -0.068,-0.0139 -0.1541,-0.0139 -0.13188,0 -0.28042,0.0472 -0.14854,0.0472 -0.28042,0.13327 h -0.0139 v -0.29014 q 0.0986,-0.0486 0.26237,-0.0888 0.1652,-0.0417 0.31929,-0.0417 0.15132,0 0.26654,0.0278 0.11523,0.0278 0.20824,0.0888 0.1,0.0666 0.15131,0.16104 0.0514,0.0944 0.0514,0.22073 0,0.17214 -0.12217,0.30124 -0.12077,0.12772 -0.28597,0.16104 v 0.0194 q 0.0666,0.0111 0.1527,0.0472 0.0861,0.0347 0.14577,0.0875 z"
         style="letter-spacing:-0.261326px;stroke-width:0.0710775"
         id="path2124" />
      <path
         d="m 176.64192,150.40675 q 0,0.55668 -0.17491,0.81767 -0.17353,0.25959 -0.54002,0.25959 -0.37205,0 -0.54419,-0.26376 -0.17075,-0.26376 -0.17075,-0.81072 0,-0.55113 0.17353,-0.81351 0.17353,-0.26376 0.54141,-0.26376 0.37204,0 0.54279,0.26793 0.17214,0.26654 0.17214,0.80656 z m -0.3651,0.63025 q 0.0486,-0.11244 0.0653,-0.26376 0.018,-0.1527 0.018,-0.36649 0,-0.21101 -0.018,-0.36649 -0.0167,-0.15548 -0.0666,-0.26377 -0.0486,-0.10689 -0.13327,-0.16103 -0.0833,-0.0541 -0.21517,-0.0541 -0.1305,0 -0.21657,0.0541 -0.0847,0.0541 -0.13466,0.16381 -0.0472,0.10273 -0.0652,0.26793 -0.0167,0.1652 -0.0167,0.36233 0,0.21656 0.0153,0.36232 0.0153,0.14577 0.0652,0.26099 0.0458,0.10828 0.1291,0.1652 0.0847,0.0569 0.22351,0.0569 0.13049,0 0.21656,-0.0541 0.0861,-0.0541 0.13327,-0.16382 z"
         style="letter-spacing:-0.261326px;stroke-width:0.0710775"
         id="path2126" />
    </g>
    <path
       style="fill:none;stroke:#000000;stroke-width:0;stroke-linecap:butt;stroke-linejoin:miter;stroke-miterlimit:4;stroke-dasharray:none;stroke-opacity:1"
       d="m 172.04223,226.97864 h 1.14842 v -18.15762 h -2.13815"
       id="path1062"
       sodipodi:nodetypes="cccc" />
    <g
       aria-label="VOL "
       id="text984-4-4"
       style="font-style:normal;font-weight:normal;font-size:2.2499px;line-height:1.25;font-family:sans-serif;fill:#000000;fill-opacity:1;stroke:none;stroke-width:0.0562478">
      <path
         d="m 23.68518,205.23416 -0.596531,1.63579 h -0.472391 l -0.596531,-1.63579 h 0.442729 l 0.39549,1.14912 0.39549,-1.14912 z"
         style="font-style:normal;font-variant:normal;font-weight:bold;font-stretch:normal;font-family:sans-serif;-inkscape-font-specification:'sans-serif Bold';letter-spacing:-0.264583px;stroke-width:0.0562478"
         id="path2129" />
      <path
         d="m 25.246444,206.0526 q 0,0.3911 -0.224112,0.6218 -0.224111,0.22961 -0.619601,0.22961 -0.394392,0 -0.618503,-0.22961 -0.224111,-0.2307 -0.224111,-0.6218 0,-0.39439 0.224111,-0.62289 0.224111,-0.22961 0.618503,-0.22961 0.393293,0 0.618503,0.22961 0.22521,0.2285 0.22521,0.62289 z m -0.55918,0.41417 q 0.06152,-0.0747 0.09118,-0.17577 0.02966,-0.10217 0.02966,-0.2395 0,-0.14721 -0.03406,-0.25047 -0.03406,-0.10327 -0.08899,-0.16699 -0.05603,-0.0659 -0.129633,-0.0956 -0.07251,-0.0297 -0.151604,-0.0297 -0.0802,0 -0.151605,0.0286 -0.07031,0.0286 -0.129633,0.0945 -0.05493,0.0615 -0.09008,0.17028 -0.03406,0.10766 -0.03406,0.25047 0,0.14611 0.03296,0.24938 0.03406,0.10217 0.08898,0.16699 0.05493,0.0648 0.128534,0.0956 0.07361,0.0308 0.154901,0.0308 0.0813,0 0.1549,-0.0308 0.07361,-0.0319 0.128534,-0.0978 z"
         style="font-style:normal;font-variant:normal;font-weight:bold;font-stretch:normal;font-family:sans-serif;-inkscape-font-specification:'sans-serif Bold';letter-spacing:-0.264583px;stroke-width:0.0562478"
         id="path2131" />
      <path
         d="m 26.482526,206.86995 h -1.179879 v -1.63579 h 0.421856 v 1.3194 h 0.758023 z"
         style="font-style:normal;font-variant:normal;font-weight:bold;font-stretch:normal;font-family:sans-serif;-inkscape-font-specification:'sans-serif Bold';letter-spacing:-0.264583px;stroke-width:0.0562478"
         id="path2133" />
    </g>
    <g
       aria-label="PUSH ID "
       id="text984-4-4-4"
       style="font-style:normal;font-weight:normal;font-size:1.65484px;line-height:0;font-family:sans-serif;fill:#000000;fill-opacity:1;stroke:none;stroke-width:0.041371">
      <path
         d="m 27.558743,205.59788 q 0,0.0808 -0.02828,0.15838 -0.02828,0.0768 -0.0808,0.12928 -0.07192,0.0711 -0.160798,0.10747 -0.08808,0.0364 -0.219783,0.0364 H 26.87596 v 0.39189 h -0.310282 v -1.20315 h 0.510673 q 0.11474,0 0.193118,0.0202 0.07919,0.0194 0.139789,0.059 0.07272,0.0477 0.1107,0.12201 0.03879,0.0743 0.03879,0.17857 z m -0.320787,0.007 q 0,-0.0509 -0.02747,-0.0873 -0.02747,-0.0372 -0.06384,-0.0517 -0.04848,-0.0194 -0.09454,-0.021 -0.04606,-0.002 -0.12282,-0.002 h -0.05333 v 0.36038 h 0.08888 q 0.07919,0 0.130093,-0.01 0.05171,-0.01 0.08646,-0.0388 0.0299,-0.0258 0.04283,-0.0614 0.01374,-0.0364 0.01374,-0.0881 z"
         style="font-style:normal;font-variant:normal;font-weight:bold;font-stretch:normal;line-height:1.25;font-family:sans-serif;-inkscape-font-specification:'sans-serif Bold';text-align:center;letter-spacing:-0.194604px;text-anchor:middle;stroke-width:0.041371"
         id="path2136" />
      <path
         d="m 28.636782,205.98574 q 0,0.22301 -0.135748,0.34179 -0.135749,0.11878 -0.399974,0.11878 -0.264225,0 -0.399973,-0.11878 -0.134941,-0.11878 -0.134941,-0.34098 v -0.76844 h 0.311899 v 0.75066 q 0,0.12524 0.05252,0.18665 0.05252,0.0614 0.170494,0.0614 0.116356,0 0.169686,-0.059 0.05414,-0.059 0.05414,-0.18908 v -0.75066 h 0.311898 z"
         style="font-style:normal;font-variant:normal;font-weight:bold;font-stretch:normal;line-height:1.25;font-family:sans-serif;-inkscape-font-specification:'sans-serif Bold';text-align:center;letter-spacing:-0.194604px;text-anchor:middle;stroke-width:0.041371"
         id="path2138" />
      <path
         d="m 29.696237,206.04311 q 0,0.17776 -0.151101,0.28927 -0.150293,0.1107 -0.408862,0.1107 -0.149485,0 -0.260993,-0.0259 -0.1107,-0.0267 -0.207663,-0.0671 v -0.28847 h 0.03394 q 0.09615,0.0768 0.214935,0.11797 0.119589,0.0412 0.22948,0.0412 0.02828,0 0.07434,-0.005 0.04606,-0.005 0.07515,-0.0162 0.03555,-0.0146 0.05818,-0.0364 0.02343,-0.0218 0.02343,-0.0646 0,-0.0396 -0.03394,-0.0679 -0.03313,-0.0291 -0.09777,-0.0444 -0.06788,-0.0162 -0.143829,-0.0299 -0.07515,-0.0145 -0.141405,-0.0364 -0.151909,-0.0493 -0.218975,-0.13333 -0.06626,-0.0848 -0.06626,-0.21008 0,-0.16807 0.150293,-0.27393 0.151102,-0.10665 0.387854,-0.10665 0.11878,0 0.234327,0.0234 0.116356,0.0226 0.201199,0.0574 v 0.27715 h -0.03313 q -0.07272,-0.0582 -0.178574,-0.097 -0.105043,-0.0396 -0.214935,-0.0396 -0.03879,0 -0.07757,0.006 -0.03798,0.005 -0.07353,0.0194 -0.03151,0.0121 -0.05414,0.0372 -0.02263,0.0242 -0.02263,0.0558 0,0.0477 0.03636,0.0735 0.03636,0.0251 0.137365,0.0461 0.06626,0.0137 0.12686,0.0267 0.06141,0.0129 0.131709,0.0356 0.138172,0.0453 0.203623,0.12363 0.06626,0.0776 0.06626,0.20201 z"
         style="font-style:normal;font-variant:normal;font-weight:bold;font-stretch:normal;line-height:1.25;font-family:sans-serif;-inkscape-font-specification:'sans-serif Bold';text-align:center;letter-spacing:-0.194604px;text-anchor:middle;stroke-width:0.041371"
         id="path2140" />
      <path
         d="m 30.793669,206.42126 h -0.310283 v -0.53006 h -0.458151 v 0.53006 h -0.310283 v -1.20315 h 0.310283 v 0.44038 h 0.458151 v -0.44038 h 0.310283 z"
         style="font-style:normal;font-variant:normal;font-weight:bold;font-stretch:normal;line-height:1.25;font-family:sans-serif;-inkscape-font-specification:'sans-serif Bold';text-align:center;letter-spacing:-0.194604px;text-anchor:middle;stroke-width:0.041371"
         id="path2142" />
      <path
         d="m 28.442048,207.74514 h -0.7046 v -0.21332 h 0.197159 v -0.77652 h -0.197159 v -0.21332 h 0.7046 v 0.21332 h -0.197159 v 0.77652 h 0.197159 z"
         style="font-style:normal;font-variant:normal;font-weight:bold;font-stretch:normal;line-height:0.35;font-family:sans-serif;-inkscape-font-specification:'sans-serif Bold';text-align:center;letter-spacing:-0.194604px;text-anchor:middle;stroke-width:0.041371"
         id="path2144" />
      <path
         d="m 29.638867,207.14477 q 0,0.16807 -0.07676,0.3014 -0.07676,0.13251 -0.193926,0.20362 -0.08807,0.0533 -0.193119,0.0743 -0.105043,0.021 -0.248872,0.021 h -0.424215 v -1.20316 h 0.436335 q 0.147061,0 0.253721,0.025 0.106659,0.0242 0.179382,0.0695 0.124436,0.076 0.195542,0.20524 0.07192,0.12848 0.07192,0.30301 z m -0.320787,-0.002 q 0,-0.11878 -0.04363,-0.20282 -0.04283,-0.0848 -0.136557,-0.13251 -0.04767,-0.0234 -0.09777,-0.0315 -0.04929,-0.009 -0.149485,-0.009 h -0.07838 v 0.75308 h 0.07838 q 0.110699,0 0.162413,-0.01 0.05171,-0.0105 0.101003,-0.0372 0.08484,-0.0485 0.124437,-0.12928 0.03959,-0.0816 0.03959,-0.2012 z"
         style="font-style:normal;font-variant:normal;font-weight:bold;font-stretch:normal;line-height:0.35;font-family:sans-serif;-inkscape-font-specification:'sans-serif Bold';text-align:center;letter-spacing:-0.194604px;text-anchor:middle;stroke-width:0.041371"
         id="path2146" />
    </g>
    <g
       aria-label="PWR VOL "
       id="text984-4-4-0"
       style="font-style:normal;font-weight:normal;font-size:1.99766px;line-height:1.15;font-family:sans-serif;fill:#000000;fill-opacity:1;stroke:none;stroke-width:0.049942">
      <path
         d="m 23.121669,178.16707 q 0,0.0775 -0.02713,0.15192 -0.02713,0.0736 -0.07752,0.12403 -0.06899,0.0682 -0.154254,0.10309 -0.08449,0.0349 -0.21084,0.0349 h -0.18526 v 0.37595 h -0.297656 v -1.15419 h 0.489893 q 0.11007,0 0.18526,0.0194 0.07596,0.0186 0.1341,0.0566 0.06976,0.0457 0.106195,0.11705 0.03721,0.0713 0.03721,0.17131 z m -0.307733,0.007 q 0,-0.0488 -0.02636,-0.0837 -0.02635,-0.0357 -0.06124,-0.0496 -0.04651,-0.0186 -0.09069,-0.0202 -0.04418,-0.002 -0.117822,-0.002 h -0.05116 v 0.34571 h 0.08527 q 0.07597,0 0.124799,-0.009 0.04961,-0.009 0.08294,-0.0372 0.02868,-0.0248 0.04108,-0.0589 0.01318,-0.0349 0.01318,-0.0845 z"
         style="font-style:normal;font-variant:normal;font-weight:bold;font-stretch:normal;font-size:1.5875px;font-family:sans-serif;-inkscape-font-specification:'sans-serif Bold';letter-spacing:-0.234922px;stroke-width:0.049942"
         id="path2149" />
      <path
         d="m 24.689738,177.80275 -0.310834,1.15419 h -0.329437 l -0.206964,-0.75189 -0.201538,0.75189 h -0.329438 l -0.310833,-1.15419 h 0.310833 l 0.177509,0.79452 0.21239,-0.79452 h 0.296881 l 0.202313,0.79452 0.186035,-0.79452 z"
         style="font-style:normal;font-variant:normal;font-weight:bold;font-stretch:normal;font-size:1.5875px;font-family:sans-serif;-inkscape-font-specification:'sans-serif Bold';letter-spacing:-0.234922px;stroke-width:0.049942"
         id="path2151" />
      <path
         d="m 25.301276,178.15621 q 0,-0.0434 -0.01783,-0.0744 -0.01783,-0.031 -0.06124,-0.0488 -0.03023,-0.0124 -0.07054,-0.0147 -0.04031,-0.003 -0.09379,-0.003 h -0.107746 v 0.31083 h 0.09147 q 0.07131,0 0.119372,-0.007 0.04806,-0.007 0.08062,-0.0318 0.03101,-0.024 0.04496,-0.0527 0.01473,-0.0294 0.01473,-0.0783 z m 0.464312,0.80073 h -0.363543 l -0.31471,-0.42323 h -0.137201 v 0.42323 h -0.296106 v -1.15419 h 0.499195 q 0.102319,0 0.175958,0.0116 0.07364,0.0116 0.137976,0.0504 0.06511,0.0388 0.103095,0.10077 0.03876,0.0612 0.03876,0.15425 0,0.1279 -0.05969,0.20852 -0.05891,0.0806 -0.168982,0.1341 z"
         style="font-style:normal;font-variant:normal;font-weight:bold;font-stretch:normal;font-size:1.5875px;font-family:sans-serif;-inkscape-font-specification:'sans-serif Bold';letter-spacing:-0.234922px;stroke-width:0.049942"
         id="path2153" />
      <path
         d="m 23.523883,179.80185 -0.529653,1.4524 h -0.419431 l -0.529653,-1.4524 h 0.393094 l 0.351152,1.02029 0.351151,-1.02029 z"
         style="font-style:normal;font-variant:normal;font-weight:bold;font-stretch:normal;font-family:sans-serif;-inkscape-font-specification:'sans-serif Bold';letter-spacing:-0.108479px;stroke-width:0.049942"
         id="path2155" />
      <path
         d="m 25.036552,180.52854 q 0,0.34725 -0.198986,0.55208 -0.198986,0.20387 -0.550137,0.20387 -0.350175,0 -0.549161,-0.20387 -0.198986,-0.20483 -0.198986,-0.55208 0,-0.35018 0.198986,-0.55307 0.198986,-0.20386 0.549161,-0.20386 0.349201,0 0.549162,0.20386 0.199961,0.20289 0.199961,0.55307 z m -0.496489,0.36773 q 0.05462,-0.0663 0.08096,-0.15607 0.02634,-0.0907 0.02634,-0.21264 0,-0.13071 -0.03024,-0.22239 -0.03024,-0.0917 -0.07901,-0.14827 -0.04975,-0.0585 -0.115099,-0.0849 -0.06438,-0.0263 -0.134608,-0.0263 -0.07121,0 -0.134608,0.0254 -0.06243,0.0254 -0.1151,0.0839 -0.04877,0.0546 -0.07998,0.15119 -0.03024,0.0956 -0.03024,0.2224 0,0.12973 0.02926,0.22142 0.03024,0.0907 0.07901,0.14826 0.04877,0.0575 0.114124,0.0849 0.06535,0.0273 0.137535,0.0273 0.07218,0 0.137534,-0.0273 0.06535,-0.0283 0.114124,-0.0868 z"
         style="font-style:normal;font-variant:normal;font-weight:bold;font-stretch:normal;font-family:sans-serif;-inkscape-font-specification:'sans-serif Bold';letter-spacing:-0.108479px;stroke-width:0.049942"
         id="path2157" />
      <path
         d="m 26.260497,181.25425 h -1.047601 v -1.4524 h 0.374561 v 1.17148 h 0.67304 z"
         style="font-style:normal;font-variant:normal;font-weight:bold;font-stretch:normal;font-family:sans-serif;-inkscape-font-specification:'sans-serif Bold';letter-spacing:-0.108479px;stroke-width:0.049942"
         id="path2159" />
    </g>
    <g
       aria-label="PUSH SQ "
       id="text984-4-4-0-9"
       style="font-style:normal;font-weight:normal;font-size:2.08735px;line-height:0.95;font-family:sans-serif;letter-spacing:-0.264583px;fill:#000000;fill-opacity:1;stroke:none;stroke-width:0.0521842">
      <path
         d="m 27.437554,179.11507 q 0,0.0732 -0.02562,0.14349 -0.02562,0.0696 -0.07321,0.11714 -0.06516,0.0644 -0.145685,0.0974 -0.0798,0.0329 -0.199127,0.0329 h -0.174969 v 0.35506 h -0.28112 v -1.09008 h 0.462677 q 0.103956,0 0.174969,0.0183 0.07174,0.0176 0.12665,0.0534 0.06589,0.0432 0.100296,0.11054 0.03514,0.0674 0.03514,0.16179 z m -0.290638,0.007 q 0,-0.0461 -0.02489,-0.0791 -0.02489,-0.0337 -0.05783,-0.0469 -0.04393,-0.0176 -0.08565,-0.019 -0.04173,-0.002 -0.111277,-0.002 h -0.04832 v 0.32651 h 0.08053 q 0.07174,0 0.117865,-0.009 0.04685,-0.009 0.07833,-0.0351 0.02709,-0.0234 0.0388,-0.0556 0.01244,-0.0329 0.01244,-0.0798 z"
         style="font-style:normal;font-variant:normal;font-weight:bold;font-stretch:normal;font-size:1.49931px;font-family:sans-serif;-inkscape-font-specification:'sans-serif Bold';text-align:center;letter-spacing:-0.264583px;text-anchor:middle;stroke-width:0.0521842"
         id="path2162" />
      <path
         d="m 28.326005,179.46647 q 0,0.20206 -0.12299,0.30968 -0.122991,0.10761 -0.362382,0.10761 -0.239392,0 -0.362383,-0.10761 -0.122258,-0.10762 -0.122258,-0.30894 v -0.69622 h 0.282585 v 0.68011 q 0,0.11347 0.04759,0.16911 0.04758,0.0556 0.15447,0.0556 0.10542,0 0.153737,-0.0534 0.04905,-0.0534 0.04905,-0.17131 v -0.68011 h 0.282585 z"
         style="font-style:normal;font-variant:normal;font-weight:bold;font-stretch:normal;font-size:1.49931px;font-family:sans-serif;-inkscape-font-specification:'sans-serif Bold';text-align:center;letter-spacing:-0.264583px;text-anchor:middle;stroke-width:0.0521842"
         id="path2164" />
      <path
         d="m 29.197618,179.51845 q 0,0.16106 -0.1369,0.26209 -0.136168,0.1003 -0.370435,0.1003 -0.135436,0 -0.236464,-0.0234 -0.100295,-0.0242 -0.188145,-0.0608 v -0.26136 h 0.03075 q 0.08712,0.0695 0.194735,0.10689 0.108348,0.0373 0.207912,0.0373 0.02562,0 0.06735,-0.004 0.04173,-0.004 0.06808,-0.0146 0.03221,-0.0132 0.05271,-0.0329 0.02123,-0.0198 0.02123,-0.0586 0,-0.0359 -0.03075,-0.0615 -0.03002,-0.0264 -0.08858,-0.0403 -0.0615,-0.0146 -0.130311,-0.0271 -0.06808,-0.0132 -0.128115,-0.0329 -0.137632,-0.0447 -0.198395,-0.1208 -0.06003,-0.0769 -0.06003,-0.19034 0,-0.15227 0.136168,-0.24818 0.1369,-0.0966 0.351401,-0.0966 0.107616,0 0.212305,0.0212 0.10542,0.0205 0.182289,0.052 v 0.2511 h -0.03002 q -0.06589,-0.0527 -0.161791,-0.0879 -0.09517,-0.0359 -0.194734,-0.0359 -0.03514,0 -0.07028,0.005 -0.03441,0.004 -0.06662,0.0176 -0.02855,0.011 -0.04905,0.0337 -0.0205,0.022 -0.0205,0.0505 0,0.0432 0.03294,0.0666 0.03294,0.0227 0.124454,0.0417 0.06003,0.0125 0.114937,0.0242 0.05564,0.0117 0.11933,0.0322 0.125187,0.041 0.184486,0.11201 0.06003,0.0703 0.06003,0.18302 z"
         style="font-style:normal;font-variant:normal;font-weight:bold;font-stretch:normal;font-size:1.49931px;font-family:sans-serif;-inkscape-font-specification:'sans-serif Bold';text-align:center;letter-spacing:-0.264583px;text-anchor:middle;stroke-width:0.0521842"
         id="path2166" />
      <path
         d="m 30.103639,179.86107 h -0.281121 v -0.48025 h -0.415092 v 0.48025 h -0.281121 v -1.09008 h 0.281121 v 0.39899 h 0.415092 v -0.39899 h 0.281121 z"
         style="font-style:normal;font-variant:normal;font-weight:bold;font-stretch:normal;font-size:1.49931px;font-family:sans-serif;-inkscape-font-specification:'sans-serif Bold';text-align:center;letter-spacing:-0.264583px;text-anchor:middle;stroke-width:0.0521842"
         id="path2168" />
      <path
         d="m 28.233237,181.36706 q 0,0.22423 -0.190593,0.36488 -0.189573,0.13963 -0.515722,0.13963 -0.188554,0 -0.329206,-0.0326 -0.139632,-0.0336 -0.261938,-0.0846 v -0.36386 h 0.04281 q 0.121287,0.0968 0.271111,0.14881 0.150844,0.052 0.289457,0.052 0.03567,0 0.09377,-0.006 0.0581,-0.006 0.09479,-0.0204 0.04485,-0.0183 0.07338,-0.0459 0.02956,-0.0275 0.02956,-0.0815 0,-0.0499 -0.04281,-0.0856 -0.04179,-0.0367 -0.123325,-0.0561 -0.08561,-0.0204 -0.18142,-0.0377 -0.09479,-0.0183 -0.178362,-0.0459 -0.191613,-0.0622 -0.276207,-0.16817 -0.08358,-0.10702 -0.08358,-0.265 0,-0.21199 0.189574,-0.34551 0.190593,-0.13454 0.489223,-0.13454 0.149824,0 0.295572,0.0296 0.146766,0.0285 0.253784,0.0724 v 0.34959 h -0.04179 q -0.09173,-0.0734 -0.225246,-0.1223 -0.132498,-0.0499 -0.271111,-0.0499 -0.04892,0 -0.09784,0.007 -0.0479,0.006 -0.09275,0.0245 -0.03975,0.0153 -0.06829,0.0469 -0.02854,0.0306 -0.02854,0.0703 0,0.0601 0.04586,0.0927 0.04586,0.0316 0.173267,0.0581 0.08357,0.0173 0.160016,0.0336 0.07746,0.0163 0.166132,0.0448 0.174286,0.0571 0.256842,0.15594 0.08357,0.0978 0.08357,0.2548 z"
         style="font-style:normal;font-variant:normal;font-weight:bold;font-stretch:normal;font-family:sans-serif;-inkscape-font-specification:'sans-serif Bold';text-align:center;letter-spacing:-0.264583px;text-anchor:middle;stroke-width:0.0521842"
         id="path2170" />
      <path
         d="m 29.194769,181.47 q 0.05708,-0.0693 0.08459,-0.16307 0.02752,-0.0948 0.02752,-0.22219 0,-0.13658 -0.0316,-0.23238 -0.0316,-0.0958 -0.08256,-0.15492 -0.05198,-0.0612 -0.120267,-0.0887 -0.06727,-0.0275 -0.140652,-0.0275 -0.0744,0 -0.140651,0.0265 -0.06523,0.0265 -0.120267,0.0877 -0.05096,0.0571 -0.08358,0.15798 -0.03159,0.0999 -0.03159,0.23238 0,0.13555 0.03058,0.23136 0.0316,0.0948 0.08256,0.15492 0.05096,0.0601 0.119248,0.0887 0.06829,0.0285 0.143709,0.0285 0.07542,0 0.14371,-0.0285 0.06829,-0.0296 0.119248,-0.0907 z m 0.04179,0.35571 q 0.0041,0.1009 0.05504,0.14472 0.05096,0.0438 0.174286,0.0438 0.04179,0 0.09886,-0.0143 0.05708,-0.0143 0.0795,-0.0255 h 0.03873 v 0.26907 q -0.05708,0.0132 -0.124344,0.0234 -0.06625,0.0102 -0.203843,0.0102 -0.121286,0 -0.211996,-0.0306 -0.08969,-0.0296 -0.149825,-0.0846 -0.05911,-0.054 -0.08867,-0.12741 -0.02956,-0.0734 -0.03465,-0.16307 -0.340417,-0.0194 -0.53101,-0.22728 -0.189574,-0.20894 -0.189574,-0.55853 0,-0.3659 0.20792,-0.5779 0.20792,-0.21301 0.573817,-0.21301 0.364879,0 0.573818,0.21301 0.208938,0.212 0.208938,0.5779 0,0.27009 -0.122305,0.4668 -0.122306,0.19568 -0.354687,0.27315 z"
         style="font-style:normal;font-variant:normal;font-weight:bold;font-stretch:normal;font-family:sans-serif;-inkscape-font-specification:'sans-serif Bold';text-align:center;letter-spacing:-0.264583px;text-anchor:middle;stroke-width:0.0521842"
         id="path2172" />
    </g>
  </g>
</svg>
