0
SECTION
2
HEADER
9
$INSUNITS
70
1
9
$ACADVER
1
AC1014
9
$HANDSEED
5
FFFF
0
ENDSEC
0
SECTION
2
TABLES
0
TABLE
2
VPORT
5
8
100
AcDbSymbolTable
0
ENDTAB
0
TABLE
2
LTYPE
5
5
100
AcDbSymbolTable
0
LTYPE
5
14
100
AcDbSymbolTableRecord
100
AcDbLinetypeTableRecord
2
BYBLOCK
70
0
0
LTYPE
5
15
100
AcDbSymbolTableRecord
100
AcDbLinetypeTableRecord
2
BYLAYER
70
0
0
ENDTAB
0
TABLE
2
LAYER
5
2
100
AcDbSymbolTable
70
2
0
LAYER
5
50
100
AcDbSymbolTableRecord
100
AcDbLayerTableRecord
2
0
70
0
6
CONTINUOUS
0
ENDTAB
0
TABLE
2
STYLE
5
3
100
AcDbSymbolTable
70
1
0
STYLE
5
11
100
AcDbSymbolTableRecord
100
AcDbTextStyleTableRecord
2
STANDARD
70
0
0
ENDTAB
0
TABLE
2
VIEW
5
6
100
AcDbSymbolTable
70
0
0
ENDTAB
0
TABLE
2
UCS
5
7
100
AcDbSymbolTable
70
0
0
ENDTAB
0
TABLE
2
APPID
5
9
100
AcDbSymbolTable
70
2
0
APPID
5
12
100
AcDbSymbolTableRecord
100
AcDbRegAppTableRecord
2
ACAD
70
0
0
ENDTAB
0
TABLE
2
DIMSTYLE
5
A
100
AcDbSymbolTable
70
1
0
ENDTAB
0
TABLE
2
BLOCK_RECORD
5
1
100
AcDbSymbolTable
70
1
0
BLOCK_RECORD
5
1F
100
AcDbSymbolTableRecord
100
AcDbBlockTableRecord
2
*MODEL_SPACE
0
BLOCK_RECORD
5
1B
100
AcDbSymbolTableRecord
100
AcDbBlockTableRecord
2
*PAPER_SPACE
0
ENDTAB
0
ENDSEC
0
SECTION
2
BLOCKS
0
BLOCK
5
20
100
AcDbEntity
100
AcDbBlockBegin
2
*MODEL_SPACE
0
ENDBLK
5
21
100
AcDbEntity
100
AcDbBlockEnd
0
BLOCK
5
1C
100
AcDbEntity
100
AcDbBlockBegin
2
*PAPER_SPACE
0
ENDBLK
5
1D
100
AcDbEntity
100
AcDbBlockEnd
0
ENDSEC
0
SECTION
2
ENTITIES
0
LWPOLYLINE
5
100
100
AcDbEntity
8
0
100
AcDbPolyline
90
4
70
1
43
0.0
10
595.14723896995645
20
333.37187734427425
42
0.41421356237309503
10
595.37952243452344
20
333.13959387970732
42
0.41421356237309503
10
595.61180589909031
20
333.37187734427425
42
0.41421356237292573
10
595.37952243452344
20
333.60416080884119
42
0.4142135623732644
0
LWPOLYLINE
5
101
100
AcDbEntity
8
0
100
AcDbPolyline
90
4
70
1
43
0.0
10
589.50696117581788
20
340.45320633141711
42
0.41421356237290746
10
589.43707366473927
20
340.5230938424956
42
0.41421356237309503
10
589.36718615366078
20
340.45320633141711
42
0.41421356237328266
10
589.43707366473927
20
340.3833188203385
42
0.41421356237309503
0
LWPOLYLINE
5
102
100
AcDbEntity
8
0
100
AcDbPolyline
90
4
70
1
43
0.0
10
590.10562161956443
20
339.33910658713177
42
0.41421356237309503
10
590.03573410848583
20
339.26921907605322
42
0.41421356237328266
10
590.10562161956443
20
339.19933156497467
42
0.41421356237309503
10
590.17550913064304
20
339.26921907605322
42
0.41421356237309503
0
LWPOLYLINE
5
103
100
AcDbEntity
8
0
100
AcDbPolyline
90
4
70
1
43
0.0
10
587.02225063902665
20
338.97944067919093
42
0.41421356237309503
10
587.10099079650695
20
338.90070052171063
42
0.41421356237309503
10
587.17973095398725
20
338.97944067919093
42
0.41421356237309503
10
587.10099079650695
20
339.05818083667123
42
0.41421356237309503
0
LWPOLYLINE
5
104
100
AcDbEntity
8
0
100
AcDbPolyline
90
4
70
1
43
0.0
10
587.51635864916511
20
340.45305359233078
42
0.41421356237309503
10
587.58624616024372
20
340.38316608125217
42
0.41421356237309503
10
587.65613367132232
20
340.45305359233078
42
0.41421356237309503
10
587.58624616024372
20
340.52294110340932
42
0.41421356237328266
0
LWPOLYLINE
5
105
100
AcDbEntity
8
0
100
AcDbPolyline
90
4
70
1
43
0.0
10
589.36682386328891
20
339.27014958722344
42
0.41421356237309503
10
589.43671137436752
20
339.2002620761449
42
0.41421356237309503
10
589.50659888544612
20
339.27014958722344
42
0.41421356237309503
10
589.43671137436752
20
339.34003709830205
42
0.41421356237309503
0
LWPOLYLINE
5
106
100
AcDbEntity
8
0
100
AcDbPolyline
90
4
70
1
43
0.0
10
587.65584167738791
20
339.27026089649934
42
0.41421356237309503
10
587.58595416630931
20
339.34014840757794
42
0.41421356237309503
10
587.5160666552307
20
339.27026089649934
42
0.41421356237309503
10
587.58595416630931
20
339.20037338542079
42
0.41421356237290746
0
LWPOLYLINE
5
107
100
AcDbEntity
8
0
100
AcDbPolyline
90
4
70
1
43
0.0
10
592.02598913036434
20
339.2699298729072
42
0.41421356237309503
10
591.95610161928573
20
339.33981738398575
42
0.41421356237309503
10
591.88621410820713
20
339.2699298729072
42
0.41421356237290746
10
591.95610161928573
20
339.20004236182865
42
0.41421356237309503
0
LWPOLYLINE
5
108
100
AcDbEntity
8
0
100
AcDbPolyline
90
4
70
1
43
0.0
10
591.95557928130586
20
337.49024522960269
42
0.41421356237328266
10
591.88569177022737
20
337.42035771852409
42
0.41421356237290746
10
591.95557928130586
20
337.35047020744554
42
0.41421356237309503
10
592.02546679238446
20
337.42035771852409
42
0.41421356237328266
0
LWPOLYLINE
5
109
100
AcDbEntity
8
0
100
AcDbPolyline
90
4
70
1
43
0.0
10
591.88524124183061
20
342.30331719187529
42
0.41421356237328266
10
591.95512875290922
20
342.23342968079669
42
0.41421356237309503
10
592.02501626398782
20
342.30331719187529
42
0.41421356237309503
10
591.95512875290922
20
342.37320470295384
42
0.41421356237309503
0
LWPOLYLINE
5
110
100
AcDbEntity
8
0
100
AcDbPolyline
90
4
70
1
43
0.0
10
590.17538323690053
20
343.37778361737969
42
0.41421356237309503
10
590.10549572582192
20
343.44767112845824
42
0.41421356237290746
10
590.03560821474332
20
343.37778361737969
42
0.41421356237328266
10
590.10549572582192
20
343.30789610630109
42
0.41421356237309503
0
LWPOLYLINE
5
111
100
AcDbEntity
8
0
100
AcDbPolyline
90
4
70
1
43
0.0
10
589.50650226026937
20
342.30304297868832
42
0.41421356237328266
10
589.43661474919088
20
342.37293048976687
42
0.41421356237328266
10
589.36672723811228
20
342.30304297868832
42
0.41421356237309503
10
589.43661474919088
20
342.23315546760978
42
0.41421356237290746
0
LWPOLYLINE
5
112
100
AcDbEntity
8
0
100
AcDbPolyline
90
4
70
1
43
0.0
10
587.71386058585438
20
344.19174923317621
42
0.41421356237292856
10
587.63512042837408
20
344.27048939065651
42
0.41421356237309503
10
587.55638027089378
20
344.19174923317621
42
0.41421356237309503
10
587.63512042837408
20
344.11300907569591
42
0.41421356237309503
0
LWPOLYLINE
5
113
100
AcDbEntity
8
0
100
AcDbPolyline
90
4
70
1
43
0.0
10
587.58587401280704
20
342.37240891275496
42
0.41421356237309503
10
587.51598650172843
20
342.30252140167642
42
0.41421356237290746
10
587.58587401280704
20
342.23263389059781
42
0.41421356237309503
10
587.65576152388553
20
342.30252140167642
42
0.41421356237309503
0
LWPOLYLINE
5
114
100
AcDbEntity
8
0
100
AcDbPolyline
90
4
70
1
43
0.0
10
591.95528603362197
20
340.52313307931178
42
0.41421356237309503
10
591.88539852254337
20
340.45324556823323
42
0.41421356237309503
10
591.95528603362197
20
340.38335805715468
42
0.41421356237309503
10
592.02517354470058
20
340.45324556823323
42
0.41421356237290746
0
LWPOLYLINE
5
115
100
AcDbEntity
8
0
100
AcDbPolyline
90
4
70
1
43
0.0
10
590.03518211284552
20
342.30269408515642
42
0.41421356237365781
10
590.10506962392412
20
342.23280657407787
42
0.41421356237271989
10
590.17495713500261
20
342.30269408515642
42
0.41421356237253226
10
590.10506962392412
20
342.37258159623497
42
0.41421356237347023
0
LWPOLYLINE
5
116
100
AcDbEntity
8
0
100
AcDbPolyline
90
4
70
1
43
0.0
10
590.03451710681952
20
340.45195377607706
42
0.41421356237309503
10
590.10440461789801
20
340.38206626499851
42
0.41421356237290746
10
590.17429212897662
20
340.45195377607706
42
0.41421356237309503
10
590.10440461789801
20
340.52184128715567
42
0.41421356237309503
0
LWPOLYLINE
5
117
100
AcDbEntity
8
0
100
AcDbPolyline
90
4
70
1
43
0.0
10
601.51941425151767
20
342.48069642101621
42
0.41421356237307816
10
599.96429614128158
20
340.92557831078
42
0.41421356237308665
10
601.51941425151767
20
339.37046020054373
42
0.41421356237311197
10
603.074532361754
20
340.92557831078
42
0.41421356237308665
0
LWPOLYLINE
5
118
100
AcDbEntity
8
0
100
AcDbPolyline
90
4
70
1
43
0.0
10
590.10560302948568
20
345.15910962797852
42
0.41421356237309503
10
590.17549054056428
20
345.22899713905707
42
0.41421356237309503
10
590.10560302948568
20
345.29888465013562
42
0.41421356237347023
10
590.03571551840707
20
345.22899713905707
42
0.41421356237365781
0
ARC
5
119
100
AcDbEntity
8
0
100
AcDbCircle
10
605.13653281649954
20
340.92559110250784
30
0
40
1.5551181102364193
210
0
220
-0
230
1
100
AcDbArc
50
45.010441158773759
51
131.10792848914289
0
LINE
5
120
100
AcDbEntity
8
0
100
AcDbLine
10
613.77733244615627
20
346.89128234151087
30
0
11
613.77733244615627
21
337.80594724299408
31
0
0
LWPOLYLINE
5
121
100
AcDbEntity
8
0
100
AcDbPolyline
90
4
70
1
43
0.0
10
606.49597462804411
20
339.64537591158512
42
0.41421356237292856
10
606.41723447056381
20
339.72411606906547
42
0.41421356237309503
10
606.3384943130834
20
339.64537591158512
42
0.41421356237259555
10
606.41723447056381
20
339.56663575410482
42
0.41421356237359452
0
ARC
5
122
100
AcDbEntity
8
0
100
AcDbCircle
10
605.13653281649931
20
340.92559110250801
30
0
40
1.5551181102364462
210
0
220
0
230
1
100
AcDbArc
50
-41.087046171604577
51
45.010441158763399
0
LWPOLYLINE
5
123
100
AcDbEntity
8
0
100
AcDbPolyline
90
4
70
1
43
0.0
10
591.95631324355418
20
343.44994529313527
42
0.41421356237309503
10
591.88642573247569
20
343.38005778205667
42
0.41421356237365781
10
591.95631324355418
20
343.31017027097812
42
0.41421356237253226
10
592.02620075463278
20
343.38005778205667
42
0.41421356237328266
0
LWPOLYLINE
5
124
100
AcDbEntity
8
0
100
AcDbPolyline
90
4
70
1
43
0.0
10
591.88638824968905
20
345.22989653341693
42
0.41421356237309503
10
591.95627576076754
20
345.16000902233833
42
0.41421356237309503
10
592.02616327184603
20
345.22989653341693
42
0.41421356237309503
10
591.95627576076754
20
345.29978404449554
42
0.41421356237309503
0
LWPOLYLINE
5
125
100
AcDbEntity
8
0
100
AcDbPolyline
90
4
70
1
43
0.0
10
594.28503986811529
20
342.4807092127441
42
0.41421356237309503
10
592.72992175787908
20
340.92559110250784
42
0.41421356237309503
10
594.28503986811529
20
339.37047299227169
42
0.41421356237309503
10
595.84015797835139
20
340.92559110250784
42
0.41421356237309503
0
ARC
5
126
100
AcDbEntity
8
0
100
AcDbCircle
10
597.89723051836199
20
340.92565249281455
30
0
40
1.5551469419674575
210
0
220
0
230
1
100
AcDbArc
50
90.001841154690851
51
153.60662119007515
0
ARC
5
127
100
AcDbEntity
8
0
100
AcDbCircle
10
605.13653281649954
20
340.92559110250789
30
0
40
1.5551181102361753
210
0
220
0
230
1
100
AcDbArc
50
232.81546649800876
51
318.91295382839309
0
ARC
5
128
100
AcDbEntity
8
0
100
AcDbCircle
10
597.89723051836188
20
340.92565249281483
30
0
40
1.5551469419672705
210
0
220
-0
230
1
100
AcDbArc
50
26.397061119289553
51
90.001841154686673
0
ARC
5
129
100
AcDbEntity
8
0
100
AcDbCircle
10
605.13653281649954
20
340.92559110250801
30
0
40
1.5551181102362934
210
0
220
0
230
1
100
AcDbArc
50
131.10792848914704
51
217.20541581952929
0
LINE
5
130
100
AcDbEntity
8
0
100
AcDbLine
10
607.39937969025073
20
333.29221605721847
30
0
11
607.39937969025073
21
346.89128234151087
31
0
0
ARC
5
131
100
AcDbEntity
8
0
100
AcDbCircle
10
597.89723051836177
20
340.92565249281472
30
0
40
1.5551469419672146
210
0
220
0
230
1
100
AcDbArc
50
153.60662119007708
51
217.21140122547359
0
ARC
5
132
100
AcDbEntity
8
0
100
AcDbCircle
10
597.89723051836177
20
340.92565249281472
30
0
40
1.555146941967346
210
0
220
0
230
1
100
AcDbArc
50
-37.207718916100362
51
26.39706111929144
0
LWPOLYLINE
5
133
100
AcDbEntity
8
0
100
AcDbPolyline
90
6
70
1
43
0.0
10
593.74759941963373
20
331.95183342151768
42
0.30369697790651234
10
593.53106398656291
20
331.80694806295713
10
593.53106398656291
20
331.62821484307028
42
0.30369697790641592
10
593.74759941963373
20
331.4833294845098
42
0.30369697790646411
10
593.96413485270455
20
331.62821484307028
10
593.96413485270455
20
331.80694806295713
42
0.30369697790646411
0
ARC
5
134
100
AcDbEntity
8
0
100
AcDbCircle
10
605.13650379230091
20
336.98496419975265
30
0
40
1.5551181102363907
210
0
220
0
230
1
100
AcDbArc
50
232.81546649800924
51
318.91295382838132
0
LWPOLYLINE
5
135
100
AcDbEntity
8
0
100
AcDbPolyline
90
4
70
1
43
0.0
10
592.22890604776535
20
330.79245823387816
42
0.41421356237309503
10
592.14622888241092
20
330.7097810685238
42
0.41421356237309503
10
592.22890604776535
20
330.62710390316948
42
0.41421356237309503
10
592.31158321311966
20
330.7097810685238
42
0.41421356237309503
0
LWPOLYLINE
5
136
100
AcDbEntity
8
0
100
AcDbPolyline
90
4
70
1
43
0.0
10
606.41721910722322
20
338.34393245543833
42
0.41421356237292856
10
606.33847894974292
20
338.26519229795804
42
0.41421356237309503
10
606.41721910722322
20
338.18645214047774
42
0.41421356237309503
10
606.49595926470352
20
338.26519229795804
42
0.41421356237259555
0
LWPOLYLINE
5
137
100
AcDbEntity
8
0
100
AcDbPolyline
90
4
70
1
43
0.0
10
606.33846528888478
20
335.70474900882976
42
0.41421356237309503
10
606.41720544636507
20
335.62600885134947
42
0.41421356237309503
10
606.49594560384537
20
335.70474900882976
42
0.41421356237309503
10
606.41720544636507
20
335.78348916631006
42
0.41421356237292856
0
LWPOLYLINE
5
138
100
AcDbEntity
8
0
100
AcDbPolyline
90
6
70
1
43
0.0
10
593.1772849400536
20
331.80809495247735
42
0.30369697790646411
10
592.96074950698278
20
331.95298031103789
42
0.30369697790646411
10
592.74421407391196
20
331.80809495247735
10
592.74421407391196
20
331.6293617325905
42
0.30369697790646411
10
592.96074950698278
20
331.48447637403001
42
0.30369697790646411
10
593.1772849400536
20
331.6293617325905
0
LWPOLYLINE
5
139
100
AcDbEntity
8
0
100
AcDbPolyline
90
6
70
1
43
0.0
10
604.7095776118465
20
333.81625995511376
42
0.41421356236923246
10
604.41430202129925
20
334.11153554566499
42
0.41421356237700202
10
604.11902643074416
20
333.81625995511376
10
604.11902643074416
20
331.06035444330274
42
0.41421356236927687
10
604.41430202129141
20
330.76507885275157
42
0.41421356237691326
10
604.7095776118465
20
331.06035444330274
0
LINE
5
140
100
AcDbEntity
8
0
100
AcDbLine
10
609.23637140730489
20
329.25021258698899
30
0
11
603.87160664510827
21
329.25021258698899
31
0
0
ARC
5
141
100
AcDbEntity
8
0
100
AcDbCircle
10
605.13650379230091
20
336.98496419975248
30
0
40
1.555118110236261
210
0
220
-0
230
1
100
AcDbArc
50
45.010441158769325
51
131.10792848914744
0
LWPOLYLINE
5
142
100
AcDbEntity
8
0
100
AcDbPolyline
90
4
70
1
43
0.0
10
599.65959657437929
20
333.37034452167484
42
0.41421356237286927
10
599.42731310981242
20
333.60262798624177
42
0.41421356237309503
10
599.19502964524543
20
333.37034452167484
42
0.41421356237309503
10
599.42731310981242
20
333.1380610571079
42
0.41421356237309503
0
ARC
5
143
100
AcDbEntity
8
0
100
AcDbCircle
10
605.13650379230103
20
336.98496419975254
30
0
40
1.5551181102360707
210
0
220
0
230
1
100
AcDbArc
50
-41.087046171618319
51
45.010441158770796
0
ARC
5
144
100
AcDbEntity
8
0
100
AcDbCircle
10
605.1365037923008
20
336.98496419975254
30
0
40
1.5551181102362346
210
0
220
0
230
1
100
AcDbArc
50
131.10792848914565
51
217.20541581952597
0
LWPOLYLINE
5
145
100
AcDbEntity
8
0
100
AcDbPolyline
90
6
70
1
43
0.0
10
592.39001389722796
20
331.62864305663982
10
592.39001389722796
20
331.80737627652667
42
0.30369697790641592
10
592.17347846415703
20
331.95226163508715
42
0.30369697790646411
10
591.95694303108621
20
331.80737627652661
10
591.9569430310861
20
331.62864305663976
42
0.30369697790645572
10
592.17347846415703
20
331.48375769807927
42
0.30369697790646411
0
LWPOLYLINE
5
146
100
AcDbEntity
8
0
100
AcDbPolyline
90
4
70
1
43
0.0
10
594.59188192505042
20
333.13953033010881
42
0.41421356237309503
10
594.82416538961741
20
333.37181379467575
42
0.41421356237309503
10
594.59188192505042
20
333.60409725924274
42
0.41421356237315149
10
594.35959846048343
20
333.37181379467575
42
0.41421356237309503
0
LWPOLYLINE
5
147
100
AcDbEntity
8
0
100
AcDbPolyline
90
4
70
1
43
0.0
10
593.24782970445131
20
333.37145026326402
42
0.41421356237309503
10
593.01554623988443
20
333.60373372783096
42
0.41421356237309503
10
592.78326277531744
20
333.37145026326402
42
0.41421356237309503
10
593.01554623988443
20
333.13916679869709
42
0.41421356237309503
0
LWPOLYLINE
5
148
100
AcDbEntity
8
0
100
AcDbPolyline
90
6
70
1
43
0.0
10
594.31867513956399
20
331.80769056900289
10
594.31867513956399
20
331.62895734911604
42
0.30369697790650396
10
594.53521057263492
20
331.48407199055555
42
0.30369697790646411
10
594.75174600570585
20
331.62895734911604
10
594.75174600570585
20
331.80769056900289
42
0.30369697790646411
10
594.53521057263492
20
331.95257592756343
42
0.30369697790656847
0
LWPOLYLINE
5
149
100
AcDbEntity
8
0
100
AcDbPolyline
90
6
70
1
43
0.0
10
595.53904843291741
20
331.62786983624937
10
595.53904843291741
20
331.80660305613623
42
0.30369697790641592
10
595.32251299984648
20
331.95148841469671
42
0.30369697790646411
10
595.10597756677566
20
331.80660305613623
10
595.10597756677566
20
331.62786983624932
42
0.30369697790641592
10
595.32251299984648
20
331.48298447768883
42
0.30369697790646411
0
LWPOLYLINE
5
150
100
AcDbEntity
8
0
100
AcDbPolyline
90
4
70
1
43
0.0
10
594.03646587749893
20
333.37163467447277
42
0.41421356237309503
10
593.80418241293205
20
333.60391813903971
42
0.41421356237309503
10
593.57189894836506
20
333.37163467447277
42
0.41421356237309503
10
593.80418241293205
20
333.1393512099059
42
0.41421356237309503
0
LWPOLYLINE
5
151
100
AcDbEntity
8
0
100
AcDbPolyline
90
4
70
1
43
0.0
10
624.1485112331319
20
332.62750388504458
42
0.41421356237324303
10
624.05992855596639
20
332.71608656220991
42
0.41421356237324303
10
623.97134587880112
20
332.62750388504458
42
0.4142135623729471
10
624.05992855596639
20
332.53892120787924
42
0.41421356237309503
0
LWPOLYLINE
5
152
100
AcDbEntity
8
0
100
AcDbPolyline
90
4
70
1
43
0.0
10
592.2294322246604
20
333.60410719112724
42
0.41421356237309503
10
591.99714876009352
20
333.37182372656036
42
0.41421356237309503
10
592.2294322246604
20
333.13954026199343
42
0.41421356237309503
10
592.46171568922728
20
333.37182372656036
42
0.41421356237309503
0
LWPOLYLINE
5
153
100
AcDbEntity
8
0
100
AcDbPolyline
90
4
70
1
43
0.0
10
588.27250247064455
20
335.92594901594305
42
0.41421356237309503
10
588.50478593521154
20
335.69366555137611
42
0.41421356237309503
10
588.73706939977842
20
335.92594901594305
42
0.41421356237309503
10
588.50478593521154
20
336.15823248050998
42
0.41421356237315149
0
LINE
5
154
100
AcDbEntity
8
0
100
AcDbLine
10
626.17999010679512
20
330.47396010860496
30
0
11
611.11242377145379
21
330.47396012325913
31
0
0
LWPOLYLINE
5
155
100
AcDbEntity
8
0
100
AcDbPolyline
90
4
70
1
43
0.0
10
624.1485112331319
20
334.62750388504458
42
0.41421356237309503
10
624.05992855596639
20
334.71608656220997
42
0.41421356237309503
10
623.97134587880112
20
334.62750388504458
42
0.41421356237309503
10
624.05992855596639
20
334.53892120787924
42
0.41421356237309503
0
LWPOLYLINE
5
156
100
AcDbEntity
8
0
100
AcDbPolyline
90
4
70
1
43
0.0
10
588.50478593521154
20
335.69366555137611
42
0.41421356237309503
10
588.73706939977842
20
335.92594901594305
42
0.41421356237309503
10
588.50478593521154
20
336.15823248050998
42
0.41421356237315149
10
588.27250247064455
20
335.92594901594305
42
0.41421356237309503
0
SPLINE
5
157
100
AcDbEntity
8
0
100
AcDbSpline
70
0
71
3
72
14
73
10
74
0
42
0.000000001
43
0.0000000001
44
0.0000000001
40
0
40
0
40
0
40
0
40
94.074213406790932
40
190.22246044394524
40
260.82798094401551
40
305.05722477397285
40
337.93346459869917
40
356.48090088397203
40
372.11344451039531
40
372.11344451039531
40
372.11344451039531
40
372.11344451039531
10
613.8397851758632
20
347.72264885663355
30
0
10
615.07453590401235
20
347.6922980385142
30
0
10
617.57112441420952
20
347.62855689589219
30
0
10
620.97105106742538
20
347.13222049347331
30
0
10
623.61557937425562
20
346.22236881316587
30
0
10
625.22665893467843
20
345.09614788085059
30
0
10
625.97655240342181
20
344.04987980627948
30
0
10
626.21327334643104
20
343.19058928153999
30
0
10
626.23100239668952
20
342.74160517744303
30
0
10
626.23911094889866
20
342.53625796503979
30
0
0
LWPOLYLINE
5
158
100
AcDbEntity
8
0
100
AcDbPolyline
90
4
70
1
43
0.0
10
592.23067663406925
20
334.71604819206999
42
0.41421356237309503
10
592.12831442934475
20
334.6136859873456
42
0.41421356237309503
10
592.23067663406925
20
334.51132378262122
42
0.41421356237309503
10
592.33303883879364
20
334.6136859873456
42
0.41421356237309503
0
LWPOLYLINE
5
159
100
AcDbEntity
8
0
100
AcDbPolyline
90
4
70
1
43
0.0
10
588.50574093950218
20
342.49338376763825
42
0.41421356237309503
10
587.3889133914987
20
341.37655621963484
42
0.41421356237309503
10
588.50574093950218
20
340.25972867163136
42
0.41421356237309503
10
589.62256848750565
20
341.37655621963484
42
0.41421356237309503
0
LWPOLYLINE
5
160
100
AcDbEntity
8
0
100
AcDbPolyline
90
4
70
1
43
0.0
10
592.14775498927702
20
344.30049810032972
42
0.41421356237309503
10
591.03092744127355
20
345.41732564833319
42
0.41421356237309503
10
589.91409989327008
20
344.30049810032972
42
0.41421356237309503
10
591.03092744127355
20
343.18367055232625
42
0.41421356237309503
0
LINE
5
161
100
AcDbEntity
8
0
100
AcDbLine
10
586.86874130325589
20
334.47497601188286
30
0
11
586.8687270576944
21
342.53601675608718
31
0
0
LINE
5
162
100
AcDbEntity
8
0
100
AcDbLine
10
601.99555427810219
20
330.47396013212591
30
0
11
586.92767847470998
21
330.47396014678037
31
0
0
LWPOLYLINE
5
163
100
AcDbEntity
8
0
100
AcDbPolyline
90
4
70
1
43
0.0
10
592.14904116332946
20
338.34790061175647
42
0.41421356237309503
10
591.03221361532599
20
339.46472815975989
42
0.41421356237309503
10
589.91538606732263
20
338.34790061175647
42
0.41421356237309503
10
591.03221361532599
20
337.231073063753
42
0.41421356237309503
0
LINE
5
164
100
AcDbEntity
8
0
100
AcDbLine
10
586.86862335668548
20
330.53301708693493
30
0
11
586.86874130325589
21
334.35583826410726
31
0
0
SPLINE
5
165
100
AcDbEntity
8
0
100
AcDbSpline
70
0
71
3
72
15
73
11
74
0
42
0.000000001
43
0.0000000001
44
0.0000000001
40
0
40
0
40
0
40
0
40
16.98343887071087
40
35.853742041514124
40
73.123849678033821
40
101.54932196433083
40
132.58042561947377
40
156.27904721985988
40
175.72385219782836
40
195.78342590117893
40
195.78342590117893
40
195.78342590117893
40
195.78342590117893
10
586.86872705769451
20
342.53601675608712
30
0
10
586.87796472383366
20
342.75925546552588
30
0
10
586.89746636312714
20
343.23053476077507
30
0
10
587.17743516370047
20
344.16196841734092
30
0
10
587.88584174516109
20
345.0606211323003
30
0
10
588.91138587140699
20
345.81554928929273
30
0
10
589.88862933681162
20
346.31185956547586
30
0
10
590.80059031192695
20
346.65435048937314
30
0
10
591.5949415926159
20
346.89503475993672
30
0
10
592.09929122852668
20
347.01534523016539
30
0
10
592.35555873174678
20
347.07577936515935
30
0
0
LWPOLYLINE
5
166
100
AcDbEntity
8
0
100
AcDbPolyline
90
4
70
1
43
0.0
10
592.14420605677992
20
341.37914155241549
42
0.41421356237308332
10
591.02737850877645
20
342.4959691004189
42
0.41421356237309503
10
589.91055096077298
20
341.37914155241549
42
0.41421356237309503
10
591.02737850877645
20
340.26231400441196
42
0.41421356237309503
0
LWPOLYLINE
5
167
100
AcDbEntity
8
0
100
AcDbPolyline
90
4
70
1
43
0.0
10
592.35911664387299
20
335.92594902222385
42
0.41421356237309503
10
592.126833179306
20
336.15823248679078
42
0.41421356237309503
10
591.89454971473913
20
335.92594902222385
42
0.41421356237309503
10
592.126833179306
20
335.69366555765691
42
0.41421356237309503
0
ARC
5
168
100
AcDbEntity
8
0
100
AcDbCircle
10
586.92777370515785
20
334.35637232097707
30
0
40
0.059034817616890035
210
0
220
0
230
1
100
AcDbArc
50
123.56226046748677
51
180.51833177905982
0
LWPOLYLINE
5
169
100
AcDbEntity
8
0
100
AcDbPolyline
90
4
70
1
43
0.0
10
587.02225063902438
20
334.61368598789079
42
0.41421356237309503
10
587.10099079650468
20
334.53494583041044
42
0.41421356237309503
10
587.17973095398497
20
334.61368598789079
42
0.41421356237309503
10
587.10099079650468
20
334.69242614537103
42
0.41421356237309503
0
LWPOLYLINE
5
170
100
AcDbEntity
8
0
100
AcDbPolyline
90
4
70
1
43
0.0
10
587.90606806220967
20
335.33549257597946
42
0.41421356237309503
10
587.83598932205223
20
335.26541383582202
42
0.41421356237328211
10
587.90606806220967
20
335.19533509566452
42
0.41421356237309503
10
587.97614680236711
20
335.26541383582202
42
0.41421356237309503
0
LWPOLYLINE
5
171
100
AcDbEntity
8
0
100
AcDbPolyline
90
4
70
1
43
0.0
10
587.01831363115036
20
330.70978106852385
42
0.41421356237309503
10
587.10099079650468
20
330.62710390316954
42
0.41421356237309503
10
587.18366796185899
20
330.70978106852385
42
0.41421356237325357
10
587.10099079650468
20
330.79245823387822
42
0.41421356237309503
0
ARC
5
172
100
AcDbEntity
8
0
100
AcDbCircle
10
586.92767847476739
20
330.53301526489037
30
0
40
0.059055118110003108
210
0
220
0
230
1
100
AcDbArc
50
179.99823223676984
51
224.99911609059677
0
ARC
5
173
100
AcDbEntity
8
0
100
AcDbCircle
10
586.92767847476728
20
330.53301526489025
30
0
40
0.059055118109817104
210
0
220
0
230
1
100
AcDbArc
50
224.99911609059677
51
269.99999994440884
0
LINE
5
174
100
AcDbEntity
8
0
100
AcDbLine
10
588.53592803744016
20
332.48844429298947
30
0
11
588.82523784957982
21
332.19913448084969
31
0
0
ARC
5
175
100
AcDbEntity
8
0
100
AcDbCircle
10
588.91025345314733
20
332.57345989655698
30
0
40
0.38385826771652426
210
0
220
0
230
1
100
AcDbArc
50
134.99999999998801
51
192.79577249603321
0
LWPOLYLINE
5
176
100
AcDbEntity
8
0
100
AcDbPolyline
90
4
70
1
43
0.0
10
590.41626171581288
20
333.12857811389466
10
590.41626171581288
20
332.01834189342225
10
590.8690176213247
20
332.01834189342225
10
590.8690176213247
20
333.12857811389466
0
LINE
5
177
100
AcDbEntity
8
0
100
AcDbLine
10
589.28457886885462
20
332.65847550012444
30
0
11
588.99526905671485
21
332.94778531226422
31
0
0
LWPOLYLINE
5
178
100
AcDbEntity
8
0
100
AcDbPolyline
90
4
70
1
43
0.0
10
589.62616264145015
20
338.34078807941785
42
0.4142135623731068
10
588.50933509344668
20
339.45761562742132
42
0.41421356237309503
10
587.39250754544321
20
338.34078807941785
42
0.41421356237309503
10
588.50933509344668
20
337.22396053141438
42
0.41421356237309503
0
ARC
5
179
100
AcDbEntity
8
0
100
AcDbCircle
10
588.91025345314733
20
332.57345989655693
30
0
40
0.38385826771651893
210
0
220
0
230
1
100
AcDbArc
50
257.20422750259371
51
314.99999999862609
0
LWPOLYLINE
5
180
100
AcDbEntity
8
0
100
AcDbPolyline
90
4
70
1
43
0.0
10
591.00287588904121
20
333.12857811389466
10
591.00287588904121
20
332.01834189342225
10
591.45563179455303
20
332.01834189342225
10
591.45563179455303
20
333.12857811389466
0
ARC
5
181
100
AcDbEntity
8
0
100
AcDbCircle
10
588.91025345314733
20
332.57345989655693
30
0
40
0.38385826771656789
210
0
220
-0
230
1
100
AcDbArc
50
77.204227503970543
51
134.99999999998201
0
ARC
5
182
100
AcDbEntity
8
0
100
AcDbCircle
10
588.91025345314733
20
332.57345989655693
30
0
40
0.3838582677165559
210
0
220
0
230
1
100
AcDbArc
50
-45.000000001373898
51
12.795772494638005
0
ARC
5
183
100
AcDbEntity
8
0
100
AcDbCircle
10
586.92777370515785
20
334.47444195501311
30
0
40
0.05903481761688633
210
0
220
0
230
1
100
AcDbArc
50
179.48166822099574
51
236.43773953251323
0
LWPOLYLINE
5
184
100
AcDbEntity
8
0
100
AcDbPolyline
90
4
70
1
43
0.0
10
590.10570756625407
20
337.34956820520068
42
0.41421356237309503
10
590.17559507733267
20
337.41945571627923
42
0.41421356237290746
10
590.10570756625407
20
337.48934322735772
42
0.41421356237309503
10
590.03582005517546
20
337.41945571627923
42
0.41421356237290746
0
LWPOLYLINE
5
185
100
AcDbEntity
8
0
100
AcDbPolyline
90
4
70
1
43
0.0
10
587.90606806220865
20
336.48770485755006
42
0.41421356237309503
10
587.97614680236609
20
336.5577835977075
42
0.41421356237272089
10
587.90606806220865
20
336.627862337865
42
0.41421356237309503
10
587.83598932205109
20
336.5577835977075
42
0.41421356237346918
0
LWPOLYLINE
5
186
100
AcDbEntity
8
0
100
AcDbPolyline
90
4
70
1
43
0.0
10
591.45360483284924
20
335.92594902129974
42
0.41421356237309503
10
591.22132136828236
20
336.15823248586662
42
0.41421356237309503
10
590.98903790371548
20
335.92594902129974
42
0.41421356237309503
10
591.22132136828236
20
335.69366555673281
42
0.41421356237309503
0
LWPOLYLINE
5
187
100
AcDbEntity
8
0
100
AcDbPolyline
90
4
70
1
43
0.0
10
587.65536395559695
20
337.41957736819023
42
0.41421356237309503
10
587.58547644451846
20
337.48946487926878
42
0.41421356237309503
10
587.51558893343986
20
337.41957736819023
42
0.41421356237309503
10
587.58547644451846
20
337.34968985711163
42
0.41421356237309503
0
LWPOLYLINE
5
188
100
AcDbEntity
8
0
100
AcDbPolyline
90
4
70
1
43
0.0
10
589.64258121080206
20
335.92594902129974
42
0.41421356237309503
10
589.41029774623507
20
336.15823248586673
42
0.41421356237298218
10
589.1780142816682
20
335.92594902129974
42
0.41421356237309503
10
589.41029774623507
20
335.69366555673281
42
0.41421356237309503
0
LWPOLYLINE
5
189
100
AcDbEntity
8
0
100
AcDbPolyline
90
4
70
1
43
0.0
10
590.31580955725872
20
335.69366555405446
42
0.41421356237309503
10
590.54809302182571
20
335.9259490186214
42
0.41421356237309503
10
590.31580955725872
20
336.15823248318839
42
0.41421356237315149
10
590.08352609269184
20
335.9259490186214
42
0.41421356237309503
0
LWPOLYLINE
5
190
100
AcDbEntity
8
0
100
AcDbPolyline
90
4
70
1
43
0.0
10
589.43602246063563
20
337.48878688842342
42
0.41421356237309503
10
589.36613494955702
20
337.41889937734487
42
0.41421356237309503
10
589.43602246063563
20
337.34901186626638
42
0.41421356237309503
10
589.50590997171412
20
337.41889937734487
42
0.41421356237253226
0
LWPOLYLINE
5
191
100
AcDbEntity
8
0
100
AcDbPolyline
90
4
70
1
43
0.0
10
602.80012956644021
20
342.12706625150514
42
0.41421356237309503
10
602.8788697239205
20
342.20580640898544
42
0.41421356237309503
10
602.80012956644021
20
342.28454656646579
42
0.41421356237309503
10
602.72138940895991
20
342.20580640898544
42
0.41421356237292856
0
LWPOLYLINE
5
192
100
AcDbEntity
8
0
100
AcDbPolyline
90
4
70
1
43
0.0
10
596.69515180783446
20
346.03337020220255
42
0.41421356237259555
10
596.61641165035405
20
346.1121103596829
42
0.41421356237292856
10
596.53767149287376
20
346.03337020220255
42
0.41421356237359452
10
596.61641165035405
20
345.95463004472219
42
0.41421356237276202
0
LWPOLYLINE
5
193
100
AcDbEntity
8
0
100
AcDbPolyline
90
4
70
1
43
0.0
10
602.80010224472392
20
343.39430510282455
42
0.41421356237292856
10
602.8788424022041
20
343.47304526030479
42
0.41421356237309503
10
602.80010224472392
20
343.55178541778514
42
0.41421356237309503
10
602.72136208724351
20
343.47304526030479
42
0.41421356237309503
0
ARC
5
194
100
AcDbEntity
8
0
100
AcDbCircle
10
601.51940059065964
20
344.75326045122756
30
0
40
1.5551181102362295
210
0
220
0
230
1
100
AcDbArc
50
232.81546649800546
51
318.91295382838877
0
LWPOLYLINE
5
195
100
AcDbEntity
8
0
100
AcDbPolyline
90
4
70
1
43
0.0
10
598.69053993695388
20
346.89914969406459
42
0.41421356237309503
10
598.76928009443418
20
346.82040953658429
42
0.41421356237309503
10
598.84802025191459
20
346.89914969406459
42
0.41421356237309503
10
598.76928009443418
20
346.97788985154494
42
0.41421356237309503
0
LWPOLYLINE
5
196
100
AcDbEntity
8
0
100
AcDbPolyline
90
4
70
1
43
0.0
10
597.98032832747151
20
347.43201889953531
42
0.41421356237309503
10
597.90158816999121
20
347.51075905701566
42
0.41421356237309503
10
597.8228480125108
20
347.43201889953531
42
0.41421356237309503
10
597.90158816999121
20
347.35327874205501
42
0.41421356237309503
0
LWPOLYLINE
5
197
100
AcDbEntity
8
0
100
AcDbPolyline
90
4
70
1
43
0.0
10
600.31745567210203
20
342.20580352757236
42
0.41421356237342799
10
600.23871551462173
20
342.28454368505265
42
0.41421356237309503
10
600.15997535714155
20
342.20580352757236
42
0.41421356237276202
10
600.23871551462173
20
342.12706337009206
42
0.41421356237309503
0
ARC
5
198
100
AcDbEntity
8
0
100
AcDbCircle
10
600.23917260411338
20
343.47256551418593
30
0
40
0.17716535433071184
210
0
220
0
230
1
100
AcDbArc
50
135.01090501920075
51
225.0109050191877
0
LWPOLYLINE
5
199
100
AcDbEntity
8
0
100
AcDbPolyline
90
8
70
1
43
0.0
10
599.07046119679649
20
347.34206307989137
42
0.41421356237309503
10
598.97105174797753
20
347.24265363107253
10
598.97105174797753
20
346.55564575705671
42
0.41421356237335882
10
599.07046119679649
20
346.45623630823786
10
601.85392576372556
20
346.45623630823786
42
0.4142135623729632
10
601.95333521254452
20
346.55564575705671
10
601.95333521254452
20
347.24265363107253
42
0.41421356237309503
10
601.85392576372556
20
347.34206307989137
0
ARC
5
200
100
AcDbEntity
8
0
100
AcDbCircle
10
601.51940059065964
20
344.75326045122762
30
0
40
1.555118110236273
210
0
220
0
230
1
100
AcDbArc
50
-41.087046171612819
51
45.010441158767847
0
ARC
5
201
100
AcDbEntity
8
0
100
AcDbCircle
10
601.51940059065964
20
344.75326045122756
30
0
40
1.555118110236261
210
0
220
-0
230
1
100
AcDbArc
50
45.010441158769325
51
131.10792848914429
0
ARC
5
202
100
AcDbEntity
8
0
100
AcDbCircle
10
601.51940059065964
20
344.75326045122762
30
0
40
1.5551181102362346
210
0
220
0
230
1
100
AcDbArc
50
131.10792848914565
51
217.20541581952344
0
ARC
5
203
100
AcDbEntity
8
0
100
AcDbCircle
10
600.24943417337158
20
343.78911425705064
30
0
40
0.039370078740201028
210
0
220
0
230
1
100
AcDbArc
50
-44.989512065119854
51
37.205415819555832
0
ARC
5
204
100
AcDbEntity
8
0
100
AcDbCircle
10
603.85630482995327
20
343.4724500483685
30
0
40
0.17716535433071184
210
0
220
0
230
1
100
AcDbArc
50
135.01090501920075
51
225.01090501920069
0
LWPOLYLINE
5
205
100
AcDbEntity
8
0
100
AcDbPolyline
90
4
70
1
43
0.0
10
603.06094549573913
20
342.84103272142698
42
0.41421356237342799
10
603.13968565321954
20
342.76229256394669
42
0.41421356237259555
10
603.21842581069973
20
342.84103272142698
42
0.41421356237309503
10
603.13968565321954
20
342.91977287890734
42
0.41421356237309503
0
ARC
5
206
100
AcDbEntity
8
0
100
AcDbCircle
10
600.23917260411338
20
343.47256551418587
30
0
40
0.17716535433074346
210
0
220
0
230
1
100
AcDbArc
50
225.01090501917471
51
315.0109050191877
0
LWPOLYLINE
5
207
100
AcDbEntity
8
0
100
AcDbPolyline
90
4
70
1
43
0.0
10
602.15510686608775
20
346.97788985154494
42
0.41421356237309503
10
602.07636670860745
20
346.89914969406465
42
0.41421356237326151
10
602.15510686608775
20
346.82040953658429
42
0.41421356237309503
10
602.23384702356805
20
346.89914969406465
42
0.41421356237276202
0
LINE
5
208
100
AcDbEntity
8
0
100
AcDbLine
10
600.11387393953885
20
343.59781649195037
30
0
11
600.27729291338426
21
343.76129530410742
31
0
0
LWPOLYLINE
5
209
100
AcDbEntity
8
0
100
AcDbPolyline
90
4
70
1
43
0.0
10
603.85583407960348
20
342.12707616181996
42
0.41421356237309503
10
603.93457423708378
20
342.20581631930025
42
0.41421356237326151
10
603.85583407960348
20
342.28455647678061
42
0.41421356237326151
10
603.77709392212319
20
342.20581631930025
42
0.41421356237309503
0
ARC
5
210
100
AcDbEntity
8
0
100
AcDbCircle
10
604.1728495449081
20
343.48282725474593
30
0
40
0.039370078740174647
210
0
220
-0
230
1
100
AcDbArc
50
52.815466497919715
51
135.0104879348217
0
LINE
5
211
100
AcDbEntity
8
0
100
AcDbLine
10
599.32841769184131
20
347.72977095675026
30
0
11
603.27749997277795
21
347.72977094491216
31
0
0
ARC
5
212
100
AcDbEntity
8
0
100
AcDbCircle
10
603.85630482995327
20
343.47245004836844
30
0
40
0.17716535433064853
210
0
220
0
230
1
100
AcDbArc
50
225.01090501918776
51
315.0109050192267
0
LWPOLYLINE
5
213
100
AcDbEntity
8
0
100
AcDbPolyline
90
4
70
1
43
0.0
10
600.23870185376359
20
346.11222582550027
42
0.41421356237309503
10
600.15996169628329
20
346.03348566801998
42
0.41421356237326151
10
600.23870185376359
20
345.95474551053962
42
0.41421356237309503
10
600.31744201124388
20
346.03348566801998
42
0.41421356237309503
0
LWPOLYLINE
5
214
100
AcDbEntity
8
0
100
AcDbPolyline
90
4
70
1
43
0.0
10
602.80011590558195
20
345.95474839195276
42
0.41421356237309503
10
602.87885606306236
20
346.03348854943312
42
0.41421356237292856
10
602.80011590558195
20
346.11222870691341
42
0.41421356237309503
10
602.72137574810165
20
346.03348854943312
42
0.41421356237309503
0
LINE
5
215
100
AcDbEntity
8
0
100
AcDbLine
10
600.36446944508941
20
343.34731271215526
30
0
11
600.52788854448306
21
343.51079164990642
31
0
0
LINE
5
216
100
AcDbEntity
8
0
100
AcDbLine
10
603.98160167092942
20
343.34719724633783
30
0
11
604.14502077032307
21
343.51067618408899
31
0
0
ARC
5
217
100
AcDbEntity
8
0
100
AcDbCircle
10
600.55571731906821
20
343.48294272056336
30
0
40
0.039370078740103322
210
0
220
-0
230
1
100
AcDbArc
50
52.815466497951533
51
135.01048793493865
0
ARC
5
218
100
AcDbEntity
8
0
100
AcDbCircle
10
603.86656639921159
20
343.78899879123321
30
0
40
0.039370078740137718
210
0
220
0
230
1
100
AcDbArc
50
-44.989512065236795
51
37.20541581948995
0
LINE
5
219
100
AcDbEntity
8
0
100
AcDbLine
10
603.73100616537874
20
343.59770102613294
30
0
11
603.89442513922427
21
343.76117983828999
31
0
0
LWPOLYLINE
5
220
100
AcDbEntity
8
0
100
AcDbPolyline
90
4
70
1
43
0.0
10
603.61160494849844
20
347.43201889953536
42
0.41421356237342799
10
603.53286479101814
20
347.51075905701566
42
0.41421356237309503
10
603.45412463353784
20
347.43201889953536
42
0.41421356237276202
10
603.53286479101814
20
347.35327874205507
42
0.41421356237326151
0
LINE
5
221
100
AcDbEntity
8
0
100
AcDbLine
10
607.45703753491136
20
347.7297716518587
30
0
11
613.72018461170819
21
347.7297716518587
31
0
0
LWPOLYLINE
5
222
100
AcDbEntity
8
0
100
AcDbPolyline
90
4
70
1
43
0.0
10
603.06033991176037
20
347.43201889953531
42
0.41421356237326151
10
603.13908006924066
20
347.35327874205501
42
0.41421356237326151
10
603.21782022672107
20
347.43201889953531
42
0.41421356237309503
10
603.13908006924066
20
347.51075905701566
42
0.41421356237309503
0
LWPOLYLINE
5
223
100
AcDbEntity
8
0
100
AcDbPolyline
90
4
70
1
43
0.0
10
603.77709392212319
20
346.03337020220255
42
0.41421356237326151
10
603.85583407960348
20
345.95463004472219
42
0.41421356237309503
10
603.93457423708378
20
346.03337020220255
42
0.41421356237309503
10
603.85583407960348
20
346.11211035968284
42
0.41421356237309503
0
LWPOLYLINE
5
224
100
AcDbEntity
8
0
100
AcDbPolyline
90
8
70
1
43
0.0
10
604.26490828435271
20
346.68261426189656
42
0.41421356237309503
10
604.46175867805357
20
346.48576386819576
10
606.35152245758104
20
346.48576386819576
42
0.41421356237309503
10
606.5483728512819
20
346.68261426189656
10
606.5483728512819
20
347.11568512804615
42
0.41421356237329482
10
606.35152245758104
20
347.31253552174695
10
604.46175867805357
20
347.31253552174695
42
0.41421356237309503
10
604.26490828435271
20
347.11568512804615
0
ARC
5
225
100
AcDbEntity
8
0
100
AcDbCircle
10
603.27750007058671
20
347.67071586670198
30
0
40
0.059055078210280269
210
0
220
-0
230
1
100
AcDbArc
50
28.072707894726996
51
90.000094894963055
0
LINE
5
226
100
AcDbEntity
8
0
100
AcDbLine
10
607.43874976899099
20
346.93065242025102
30
0
11
613.73796236741612
21
346.93065242025102
31
0
0
LWPOLYLINE
5
227
100
AcDbEntity
8
0
100
AcDbPolyline
90
4
70
1
43
0.0
10
602.94742970073344
20
347.03694496965522
42
0.41421356237309503
10
602.80963442514292
20
346.89914969406459
42
0.41421356237280965
10
602.94742970073344
20
346.76135441847407
42
0.41421356237309503
10
603.08522497632396
20
346.89914969406459
42
0.41421356237309503
0
LWPOLYLINE
5
228
100
AcDbEntity
8
0
100
AcDbPolyline
90
4
70
1
43
0.0
10
604.06313663080948
20
346.82040953567753
42
0.41421356237276202
10
604.14187678828978
20
346.89914969315788
42
0.41421356237309503
10
604.06313663080948
20
346.97788985063818
42
0.41421356237292856
10
603.98439647332918
20
346.89914969315788
42
0.41421356237359452
0
LINE
5
229
100
AcDbEntity
8
0
100
AcDbLine
10
604.26490828435271
20
347.11568512804223
30
0
11
604.26490828435271
21
346.68261426190048
31
0
0
ARC
5
230
100
AcDbEntity
8
0
100
AcDbCircle
10
626.17999010685242
20
330.53301522671501
30
0
40
0.059055118110048231
210
0
220
0
230
1
100
AcDbArc
50
269.99999994440884
51
359.99968627681045
0
LWPOLYLINE
5
231
100
AcDbEntity
8
0
100
AcDbPolyline
90
4
70
1
43
0.0
10
606.67140434734483
20
346.89914969315788
42
0.41421356237309503
10
606.75014450482524
20
346.82040953567753
42
0.41421356237309503
10
606.82888466230543
20
346.89914969315788
42
0.41421356237309503
10
606.75014450482524
20
346.97788985063818
42
0.41421356237292856
0
ARC
5
232
100
AcDbEntity
8
0
100
AcDbCircle
10
607.45703753471264
20
347.67071653394714
30
0
40
0.059055117911543852
210
0
220
-0
230
1
100
AcDbArc
50
89.999999807195707
51
151.92751309389882
0
ARC
5
233
100
AcDbEntity
8
0
100
AcDbCircle
10
613.73796236741612
20
346.89128234151082
30
0
40
0.039370078740211187
210
0
220
-0
230
1
100
AcDbArc
50
0
51
90
0
ARC
5
234
100
AcDbEntity
8
0
100
AcDbCircle
10
613.83833400853382
20
347.66361157105564
30
0
40
0.059055118110388806
210
0
220
-0
230
1
100
AcDbArc
50
88.591923341660973
51
148.71677835407371
0
LWPOLYLINE
5
235
100
AcDbEntity
8
0
100
AcDbPolyline
90
4
70
1
43
0.0
10
613.9395371705657
20
347.43201889953531
42
0.41421356237342799
10
614.01827732804611
20
347.35327874205507
42
0.41421356237309503
10
614.09701748552629
20
347.43201889953531
42
0.41421356237309503
10
614.01827732804611
20
347.5107590570156
42
0.41421356237342799
0
LWPOLYLINE
5
236
100
AcDbEntity
8
0
100
AcDbPolyline
90
4
70
1
43
0.0
10
618.36553933000721
20
347.28379618782884
42
0.41421356237309503
10
618.28679917252703
20
347.20505603034849
42
0.41421356237309503
10
618.36553933000721
20
347.12631587286813
42
0.41421356237309503
10
618.44427948748762
20
347.20505603034849
42
0.41421356237309503
0
ARC
5
237
100
AcDbEntity
8
0
100
AcDbCircle
10
607.33892729869069
20
347.67071653374813
30
0
40
0.059055118110566907
210
0
220
-0
230
1
100
AcDbArc
50
28.072487008345952
51
90.000002512191443
0
ARC
5
238
100
AcDbEntity
8
0
100
AcDbCircle
10
613.72018461189884
20
347.67071653393936
30
0
40
0.0590551179192546
210
0
220
-0
230
1
100
AcDbArc
50
24.400499490209103
51
90.000000184973004
0
LINE
5
239
100
AcDbEntity
8
0
100
AcDbLine
10
606.5483728512819
20
346.68261426190048
30
0
11
606.5483728512819
21
347.11568512804223
31
0
0
LWPOLYLINE
5
240
100
AcDbEntity
8
0
100
AcDbPolyline
90
4
70
1
43
0.0
10
607.15835814356421
20
347.5107590570156
42
0.41421356237309503
10
607.07961798608392
20
347.43201889953531
42
0.41421356237342799
10
607.15835814356421
20
347.35327874205501
42
0.41421356237259555
10
607.23709830104451
20
347.43201889953531
42
0.41421356237309503
0
LINE
5
241
100
AcDbEntity
8
0
100
AcDbLine
10
626.23906615852241
20
334.35613673507572
30
0
11
626.23904522496161
21
330.53301490335798
31
0
0
ARC
5
242
100
AcDbEntity
8
0
100
AcDbCircle
10
621.47931360428254
20
332.04876296915728
30
0
40
0.24606299212602781
210
0
220
0
230
1
100
AcDbArc
50
197.57745107481986
51
270
0
ARC
5
243
100
AcDbEntity
8
0
100
AcDbCircle
10
621.47931360428254
20
332.04876296914938
30
0
40
0.24606299212601429
210
0
220
-0
230
1
100
AcDbArc
50
17.577451074807271
51
90
0
ARC
5
244
100
AcDbEntity
8
0
100
AcDbCircle
10
621.47931360428254
20
332.04876296914938
30
0
40
0.24606299212598423
210
0
220
-0
230
1
100
AcDbArc
50
90
51
162.42254892519276
0
ARC
5
245
100
AcDbEntity
8
0
100
AcDbCircle
10
607.43874976899087
20
346.89128234151093
30
0
40
0.039370078740121668
210
0
220
-0
230
1
100
AcDbArc
50
89.999999999834557
51
180
0
ARC
5
246
100
AcDbEntity
8
0
100
AcDbCircle
10
621.47931360428254
20
332.04876296915728
30
0
40
0.246062992126029
210
0
220
0
230
1
100
AcDbArc
50
270
51
342.42254892518014
0
LINE
5
247
100
AcDbEntity
8
0
100
AcDbLine
10
621.2447393935181
20
332.1230726975719
30
0
11
621.2447393935181
21
331.9744532407268
31
0
0
LINE
5
248
100
AcDbEntity
8
0
100
AcDbLine
10
626.23911094889866
20
342.53625796503979
30
0
11
626.2390668052368
21
334.47424697129441
31
0
0
LINE
5
249
100
AcDbEntity
8
0
100
AcDbLine
10
621.71388781504697
20
331.9744532407268
30
0
11
621.71388781504697
21
332.1230726975719
31
0
0
LWPOLYLINE
5
250
100
AcDbEntity
8
0
100
AcDbPolyline
90
4
70
1
43
0.0
10
596.16567503547969
20
333.13965346673643
42
0.41421356237309503
10
596.39795850004657
20
333.37193693130342
42
0.41421356237309503
10
596.16567503547969
20
333.60422039587036
42
0.41421356237315149
10
595.93339157091282
20
333.37193693130342
42
0.41421356237309503
0
LWPOLYLINE
5
251
100
AcDbEntity
8
0
100
AcDbPolyline
90
4
70
1
43
0.0
10
598.61309904447614
20
332.01834189342225
10
598.61309904447614
20
333.12857811389466
10
598.16034313896432
20
333.12857811389466
10
598.16034313896432
20
332.01834189342225
0
LWPOLYLINE
5
252
100
AcDbEntity
8
0
100
AcDbPolyline
90
6
70
1
43
0.0
10
596.68089649896251
20
331.62605986413371
42
0.30369697790646411
10
596.89743193203333
20
331.48117450557322
42
0.30369697790646411
10
597.11396736510426
20
331.62605986413371
10
597.11396736510426
20
331.80479308402056
42
0.30369697790650396
10
596.89743193203333
20
331.9496784425811
42
0.30369697790635136
10
596.68089649896251
20
331.80479308402056
0
LWPOLYLINE
5
253
100
AcDbEntity
8
0
100
AcDbPolyline
90
4
70
1
43
0.0
10
597.58829739044506
20
330.7097810685238
42
0.41421356237309503
10
597.67097455579938
20
330.62710390316954
42
0.41421356237293649
10
597.7536517211538
20
330.7097810685238
42
0.41421356237309503
10
597.67097455579938
20
330.79245823387816
42
0.41421356237309503
0
LWPOLYLINE
5
254
100
AcDbEntity
8
0
100
AcDbPolyline
90
6
70
1
43
0.0
10
596.32623044065463
20
331.80651210460672
42
0.30369697790645572
10
596.1096950075837
20
331.95139746316715
42
0.30369697790646411
10
595.89315957451288
20
331.80651210460672
10
595.89315957451288
20
331.62777888471987
42
0.30369697790646411
10
596.1096950075837
20
331.48289352615933
42
0.30369697790646411
10
596.32623044065451
20
331.62777888471987
0
LINE
5
255
100
AcDbEntity
8
0
100
AcDbLine
10
603.31482965204793
20
329.48083716873191
30
0
11
602.55233127039673
21
330.28270562912326
31
0
0
LWPOLYLINE
5
256
100
AcDbEntity
8
0
100
AcDbPolyline
90
4
70
1
43
0.0
10
601.86103819090488
20
330.71056341982552
42
0.41421356237309503
10
601.77836102555057
20
330.79324058517983
42
0.41421356237309503
10
601.69568386019625
20
330.71056341982552
42
0.41421356237309503
10
601.77836102555057
20
330.62788625447121
42
0.41421356237293649
0
ARC
5
257
100
AcDbEntity
8
0
100
AcDbCircle
10
603.87160664510816
20
330.03761416179196
30
0
40
0.78740157480299766
210
0
220
0
230
1
100
AcDbArc
50
224.99999999999125
51
270.00000000000824
0
LWPOLYLINE
5
258
100
AcDbEntity
8
0
100
AcDbPolyline
90
4
70
1
43
0.0
10
598.02648487124782
20
332.01834189342225
10
598.02648487124782
20
333.12857811389466
10
597.573728965736
20
333.12857811389466
10
597.573728965736
20
332.01834189342225
0
ARC
5
259
100
AcDbEntity
8
0
100
AcDbCircle
10
602.0055200192287
20
329.59690493065443
30
0
40
0.87711181865502019
210
0
220
-0
230
1
100
AcDbArc
50
51.433502710253656
51
90.65100843503086
0
LWPOLYLINE
5
260
100
AcDbEntity
8
0
100
AcDbPolyline
90
8
70
1
43
0.0
10
603.69579810055711
20
331.84775601810594
10
603.73516817929715
20
331.84775601810594
42
0.41421356237309503
10
603.81390833677756
20
331.92649617558629
10
603.81390833677756
20
332.95011822283033
42
0.41421356237309503
10
603.73516817929715
20
333.02885838031062
10
603.69579810055711
20
333.02885838031062
42
0.41421356237359452
10
603.6170579430767
20
332.95011822283033
10
603.6170579430767
20
331.92649617558629
42
0.41421356237292856
0
LWPOLYLINE
5
261
100
AcDbEntity
8
0
100
AcDbPolyline
90
6
70
1
43
0.0
10
601.46531475429242
20
333.28129653433172
42
0.30369697790641592
10
601.68185018736324
20
333.13641117577123
42
0.30369697790646411
10
601.89838562043406
20
333.28129653433172
10
601.89838562043406
20
333.46002975421857
42
0.30369697790646411
10
601.68185018736324
20
333.60491511277911
42
0.30369697790646411
10
601.46531475429242
20
333.46002975421857
0
LWPOLYLINE
5
262
100
AcDbEntity
8
0
100
AcDbPolyline
90
4
70
1
43
0.0
10
601.53421239208762
20
331.71800966317994
42
0.41421356237309503
10
601.68185018736324
20
331.57037186790433
42
0.41421356237309503
10
601.82948798263885
20
331.71800966317994
42
0.41421356237318385
10
601.68185018736324
20
331.86564745845556
42
0.41421356237309503
0
LWPOLYLINE
5
263
100
AcDbEntity
8
0
100
AcDbPolyline
90
4
70
1
43
0.0
10
601.72551961234944
20
331.41289155544263
42
0.41421356237309503
10
601.68185018736324
20
331.45656098042889
42
0.41421356237339524
10
601.63818076237692
20
331.41289155544263
42
0.41421356237279483
10
601.68185018736324
20
331.36922213045636
42
0.41421356237309503
0
LWPOLYLINE
5
264
100
AcDbEntity
8
0
100
AcDbPolyline
90
4
70
1
43
0.0
10
600.2150216815636
20
333.13837967970824
42
0.41421356237309503
10
600.44730514613047
20
333.37066314427517
42
0.41421356237309503
10
600.2150216815636
20
333.60294660884216
42
0.41421356237309503
10
599.98273821699661
20
333.37066314427517
42
0.41421356237309503
0
ARC
5
265
100
AcDbEntity
8
0
100
AcDbCircle
10
599.17745858925696
20
339.64487569936563
30
0
40
0.1771653543307751
210
0
220
0
230
1
100
AcDbArc
50
224.98909498082529
51
314.98909498079928
0
ARC
5
266
100
AcDbEntity
8
0
100
AcDbCircle
10
599.17745858925696
20
339.64487569936557
30
0
40
0.17716535433068017
210
0
220
0
230
1
100
AcDbArc
50
-45.010905019187739
51
44.989094980812261
0
LINE
5
267
100
AcDbEntity
8
0
100
AcDbLine
10
604.11902643074416
20
333.81625995511376
30
0
11
604.11902643074416
21
331.06035444330274
31
0
0
LINE
5
268
100
AcDbEntity
8
0
100
AcDbLine
10
604.7095776118465
20
331.06035444330274
30
0
11
604.7095776118465
21
333.81625995511376
31
0
0
LWPOLYLINE
5
269
100
AcDbEntity
8
0
100
AcDbPolyline
90
4
70
1
43
0.0
10
593.93785680135329
20
336.15823248318839
42
0.4142135623732644
10
593.7055733367863
20
335.9259490186214
42
0.41421356237309503
10
593.93785680135329
20
335.69366555405446
42
0.41421356237298218
10
594.17014026592017
20
335.9259490186214
42
0.41421356237309503
0
LWPOLYLINE
5
270
100
AcDbEntity
8
0
100
AcDbPolyline
90
4
70
1
43
0.0
10
596.28505199725885
20
336.48770485748543
42
0.41421356237309503
10
596.3551307374164
20
336.55778359764287
42
0.41421356237309503
10
596.28505199725885
20
336.62786233780037
42
0.41421356237309503
10
596.21497325710141
20
336.55778359764287
42
0.41421356237309503
0
LWPOLYLINE
5
271
100
AcDbEntity
8
0
100
AcDbPolyline
90
4
70
1
43
0.0
10
597.13446493580864
20
337.07877542489274
42
0.41421356237309503
10
597.23682714053302
20
336.97641322016824
42
0.41421356237309503
10
597.33918934525741
20
337.07877542489274
42
0.41421356237309503
10
597.23682714053302
20
337.18113762961713
42
0.41421356237296697
0
LWPOLYLINE
5
272
100
AcDbEntity
8
0
100
AcDbPolyline
90
4
70
1
43
0.0
10
593.26462845489652
20
335.9259490186214
42
0.41421356237309503
10
593.03234499032965
20
336.15823248318833
42
0.41421356237309503
10
592.80006152576266
20
335.9259490186214
42
0.41421356237309503
10
593.03234499032965
20
335.69366555405446
42
0.41421356237309503
0
LWPOLYLINE
5
273
100
AcDbEntity
8
0
100
AcDbPolyline
90
4
70
1
43
0.0
10
597.9049701337259
20
337.25476815980176
42
0.4142135623730151
10
598.39709611797787
20
337.74689414405373
42
0.41421356237309503
10
597.9049701337259
20
338.2390201283057
42
0.41421356237309503
10
597.41284414947393
20
337.74689414405373
42
0.41421356237309503
0
LWPOLYLINE
5
274
100
AcDbEntity
8
0
100
AcDbPolyline
90
4
70
1
43
0.0
10
596.21497325710141
20
335.26541383582202
42
0.41421356237309503
10
596.28505199725885
20
335.19533509566452
42
0.41421356237309503
10
596.3551307374164
20
335.26541383582202
42
0.41421356237309503
10
596.28505199725885
20
335.33549257597952
42
0.41421356237309503
0
LWPOLYLINE
5
275
100
AcDbEntity
8
0
100
AcDbPolyline
90
4
70
1
43
0.0
10
597.59774584349827
20
334.61368598789073
42
0.41421356237292856
10
597.67648600097857
20
334.53494583041044
42
0.41421356237309503
10
597.75522615845887
20
334.61368598789073
42
0.41421356237309503
10
597.67648600097857
20
334.69242614537103
42
0.41421356237309503
0
LWPOLYLINE
5
276
100
AcDbEntity
8
0
100
AcDbPolyline
90
4
70
1
43
0.0
10
598.17703401706115
20
334.61368598789079
42
0.41421356237309503
10
598.09829385958085
20
334.69242614537103
42
0.41421356237309503
10
598.01955370210055
20
334.61368598789079
42
0.41421356237276202
10
598.09829385958085
20
334.53494583041044
42
0.41421356237309503
0
LINE
5
277
100
AcDbEntity
8
0
100
AcDbLine
10
599.30275725383149
20
339.77012667713001
30
0
11
599.13933827998596
21
339.93360548928712
31
0
0
ARC
5
278
100
AcDbEntity
8
0
100
AcDbCircle
10
597.89721216053056
20
340.92562528568629
30
0
40
1.5551521895843126
210
0
220
0
230
1
100
AcDbArc
50
232.81717297914719
51
307.19202518310425
0
LWPOLYLINE
5
279
100
AcDbEntity
8
0
100
AcDbPolyline
90
4
70
1
43
0.0
10
596.09047886138683
20
339.09636001995585
42
0.41421356237309503
10
596.16921901886712
20
339.17510017743615
42
0.41421356237309503
10
596.09047886138683
20
339.25384033491645
42
0.41421356237309503
10
596.01173870390642
20
339.17510017743615
42
0.41421356237309503
0
LWPOLYLINE
5
280
100
AcDbEntity
8
0
100
AcDbPolyline
90
4
70
1
43
0.0
10
595.56574152217945
20
339.56663575410477
42
0.41421356237309503
10
595.64448167965975
20
339.64537591158512
42
0.41421356237292856
10
595.56574152217945
20
339.72411606906542
42
0.41421356237259555
10
595.48700136469915
20
339.64537591158512
42
0.41421356237309503
0
ARC
5
281
100
AcDbEntity
8
0
100
AcDbCircle
10
596.61700261616454
20
339.64487569936557
30
0
40
0.17716535433074346
210
0
220
0
230
1
100
AcDbArc
50
135.01090501918773
51
225.01090501916173
0
ARC
5
282
100
AcDbEntity
8
0
100
AcDbCircle
10
596.61700261616454
20
339.64487569936557
30
0
40
0.17716535433074346
210
0
220
0
230
1
100
AcDbArc
50
225.01090501916173
51
315.0109050191877
0
LWPOLYLINE
5
283
100
AcDbEntity
8
0
100
AcDbPolyline
90
4
70
1
43
0.0
10
592.62474177842898
20
339.25381849699863
42
0.41421356237309503
10
592.54600162094869
20
339.17507833951828
42
0.41421356237292856
10
592.62474177842898
20
339.09633818203804
42
0.41421356237309503
10
592.70348193590928
20
339.17507833951828
42
0.41421356237309503
0
LWPOLYLINE
5
284
100
AcDbEntity
8
0
100
AcDbPolyline
90
4
70
1
43
0.0
10
598.47075092219438
20
337.07877542489274
42
0.41421356237309503
10
598.57311312691877
20
336.9764132201683
42
0.41421356237309503
10
598.67547533164316
20
337.07877542489274
42
0.41421356237309503
10
598.57311312691877
20
337.18113762961707
42
0.41421356237309503
0
LWPOLYLINE
5
285
100
AcDbEntity
8
0
100
AcDbPolyline
90
4
70
1
43
0.0
10
593.00432446497223
20
339.56662296237693
42
0.41421356237259555
10
593.08306462245253
20
339.64536311985722
42
0.41421356237309503
10
593.00432446497223
20
339.72410327733758
42
0.41421356237309503
10
592.92558430749193
20
339.64536311985722
42
0.41421356237309503
0
LWPOLYLINE
5
286
100
AcDbEntity
8
0
100
AcDbPolyline
90
4
70
1
43
0.0
10
597.23682714053314
20
338.31265065849038
42
0.41421356237296697
10
597.33918934525752
20
338.41501286321471
42
0.41421356237283891
10
597.23682714053314
20
338.51737506793916
42
0.41421356237309503
10
597.13446493580864
20
338.41501286321471
42
0.41421356237309503
0
LWPOLYLINE
5
287
100
AcDbEntity
8
0
100
AcDbPolyline
90
4
70
1
43
0.0
10
598.47075092219438
20
338.41501286321471
42
0.41421356237296697
10
598.57311312691877
20
338.31265065849038
42
0.41421356237309503
10
598.67547533164316
20
338.41501286321471
42
0.41421356237309503
10
598.57311312691877
20
338.51737506793916
42
0.41421356237309503
0
LINE
5
288
100
AcDbEntity
8
0
100
AcDbLine
10
603.98157264673068
20
335.57901646068018
30
0
11
604.14499174612422
21
335.74249539843134
31
0
0
LWPOLYLINE
5
289
100
AcDbEntity
8
0
100
AcDbPolyline
90
4
70
1
43
0.0
10
600.23869884837472
20
335.78347637458216
42
0.41421356237309503
10
600.15995869089443
20
335.70473621710187
42
0.41421356237309503
10
600.23869884837472
20
335.62599605962151
42
0.41421356237309503
10
600.31743900585502
20
335.70473621710187
42
0.41421356237292856
0
LWPOLYLINE
5
290
100
AcDbEntity
8
0
100
AcDbPolyline
90
4
70
1
43
0.0
10
599.96429614128147
20
336.98496419975254
42
0.41421356237309503
10
601.51941425151767
20
335.42984608951633
42
0.41421356237309503
10
603.074532361754
20
336.98496419975254
42
0.41421356237308665
10
601.51941425151767
20
338.54008230998875
42
0.41421356237309503
0
LINE
5
291
100
AcDbEntity
8
0
100
AcDbLine
10
596.74229945714069
20
339.5196228973349
30
0
11
596.90571855653423
21
339.68310183508606
31
0
0
ARC
5
292
100
AcDbEntity
8
0
100
AcDbCircle
10
598.86089870382716
20
339.65526808177287
30
0
40
0.039370078740169387
210
0
220
-0
230
1
100
AcDbArc
50
44.989512065061341
51
127.18339414787711
0
LWPOLYLINE
5
293
100
AcDbEntity
8
0
100
AcDbPolyline
90
4
70
1
43
0.0
10
603.68162583810692
20
334.6136859873456
42
0.41421356237309503
10
603.57926363338254
20
334.71604819206999
42
0.41421356237309503
10
603.47690142865815
20
334.6136859873456
42
0.41421356237309503
10
603.57926363338254
20
334.51132378262122
42
0.41421356237309503
0
LINE
5
294
100
AcDbEntity
8
0
100
AcDbLine
10
603.73097714118001
20
335.82952024047529
30
0
11
603.89439611502542
21
335.9929990526324
31
0
0
LINE
5
295
100
AcDbEntity
8
0
100
AcDbLine
10
599.05216174828081
20
339.5196228973349
30
0
11
598.88874264888727
21
339.68310183508606
31
0
0
LWPOLYLINE
5
296
100
AcDbEntity
8
0
100
AcDbPolyline
90
4
70
1
43
0.0
10
596.50303980945228
20
340.09059027164801
42
0.41421356237309503
10
596.42429965197186
20
340.16933042912837
42
0.41421356237309503
10
596.34555949449157
20
340.09059027164801
42
0.41421356237309503
10
596.42429965197186
20
340.01185011416766
42
0.41421356237309503
0
ARC
5
297
100
AcDbEntity
8
0
100
AcDbCircle
10
596.62727898037542
20
339.96143924260031
30
0
40
0.039370078740169387
210
0
220
0
230
1
100
AcDbArc
50
-44.989512065178324
51
37.205112801854476
0
LWPOLYLINE
5
298
100
AcDbEntity
8
0
100
AcDbPolyline
90
4
70
1
43
0.0
10
602.80011590558206
20
335.62600885134947
42
0.41421356237309503
10
602.87885606306236
20
335.70474900882976
42
0.41421356237309503
10
602.80011590558206
20
335.78348916631006
42
0.41421356237309503
10
602.72137574810176
20
335.70474900882976
42
0.41421356237292856
0
ARC
5
299
100
AcDbEntity
8
0
100
AcDbCircle
10
596.9335461279403
20
339.65525170212351
30
0
40
0.039370078740111662
210
0
220
-0
230
1
100
AcDbArc
50
52.817172978614153
51
135.01048793488022
0
LINE
5
300
100
AcDbEntity
8
0
100
AcDbLine
10
596.49170395159001
20
339.77012667713001
30
0
11
596.65512292543542
21
339.93360548928712
31
0
0
ARC
5
301
100
AcDbEntity
8
0
100
AcDbCircle
10
599.16718222504596
20
339.96143924260036
30
0
40
0.039370078740120981
210
0
220
0
230
1
100
AcDbArc
50
142.79488719811138
51
224.9895120652368
0
ARC
5
302
100
AcDbEntity
8
0
100
AcDbCircle
10
603.85627580575454
20
335.70426926271085
30
0
40
0.17716535433074346
210
0
220
0
230
1
100
AcDbArc
50
135.01090501918773
51
225.0109050191877
0
ARC
5
303
100
AcDbEntity
8
0
100
AcDbCircle
10
604.17282052070937
20
335.71464646908822
30
0
40
0.039370078740138988
210
0
220
-0
230
1
100
AcDbArc
50
52.815466497869721
51
135.01048793470468
0
ARC
5
304
100
AcDbEntity
8
0
100
AcDbCircle
10
603.85627580575454
20
335.70426926271085
30
0
40
0.1771653543307751
210
0
220
0
230
1
100
AcDbArc
50
225.0109050191877
51
315.01090501921374
0
LWPOLYLINE
5
305
100
AcDbEntity
8
0
100
AcDbPolyline
90
4
70
1
43
0.0
10
600.23871551462173
20
338.1864492590646
42
0.41421356237309503
10
600.31745567210203
20
338.26518941654496
42
0.41421356237309503
10
600.23871551462173
20
338.34392957402525
42
0.41421356237309503
10
600.15997535714155
20
338.26518941654496
42
0.41421356237326151
0
LWPOLYLINE
5
306
100
AcDbEntity
8
0
100
AcDbPolyline
90
4
70
1
43
0.0
10
602.8788697239205
20
338.26519229795804
42
0.41421356237309503
10
602.80012956644021
20
338.34393245543833
42
0.41421356237309503
10
602.72138940895991
20
338.26519229795804
42
0.41421356237276202
10
602.80012956644021
20
338.18645214047768
42
0.41421356237309503
0
ARC
5
307
100
AcDbEntity
8
0
100
AcDbCircle
10
603.86656639921137
20
339.96144490833092
30
0
40
0.039370078740232697
210
0
220
0
230
1
100
AcDbArc
50
-44.989512064944392
51
37.205415819355736
0
ARC
5
308
100
AcDbEntity
8
0
100
AcDbCircle
10
603.86653737501274
20
336.02081800557556
30
0
40
0.039370078740201028
210
0
220
0
230
1
100
AcDbArc
50
-44.989512065119854
51
37.20541581945578
0
LWPOLYLINE
5
309
100
AcDbEntity
8
0
100
AcDbPolyline
90
4
70
1
43
0.0
10
599.63569600909204
20
339.17507418091003
42
0.41421356237309503
10
599.71443616657234
20
339.09633402342973
42
0.41421356237309503
10
599.79317632405275
20
339.17507418091003
42
0.41421356237309503
10
599.71443616657234
20
339.25381433839038
42
0.41421356237309503
0
LWPOLYLINE
5
310
100
AcDbEntity
8
0
100
AcDbPolyline
90
4
70
1
43
0.0
10
603.93454521288504
20
338.26518941654496
42
0.41421356237309503
10
603.85580505540474
20
338.34392957402525
42
0.41421356237309503
10
603.77706489792445
20
338.26518941654496
42
0.41421356237309503
10
603.85580505540474
20
338.1864492590646
42
0.41421356237309503
0
LWPOLYLINE
5
311
100
AcDbEntity
8
0
100
AcDbPolyline
90
4
70
1
43
0.0
10
602.72137574810176
20
339.64536311985717
42
0.41421356237309503
10
602.80011590558206
20
339.56662296237687
42
0.41421356237309503
10
602.87885606306236
20
339.64536311985717
42
0.41421356237309503
10
602.80011590558206
20
339.72410327733752
42
0.41421356237309503
0
LWPOLYLINE
5
312
100
AcDbEntity
8
0
100
AcDbPolyline
90
4
70
1
43
0.0
10
603.21884058303465
20
339.1761681247603
42
0.41421356237309503
10
603.14010042555446
20
339.25490828224059
42
0.41421356237309503
10
603.06136026807405
20
339.1761681247603
42
0.41421356237309503
10
603.14010042555446
20
339.09742796728
42
0.41421356237292856
0
ARC
5
313
100
AcDbEntity
8
0
100
AcDbCircle
10
603.85630482995327
20
339.64489616546621
30
0
40
0.17716535433068017
210
0
220
0
230
1
100
AcDbArc
50
135.01090501916175
51
225.01090501920069
0
LWPOLYLINE
5
314
100
AcDbEntity
8
0
100
AcDbPolyline
90
4
70
1
43
0.0
10
600.23869884837472
20
339.56661017064903
42
0.41421356237309503
10
600.31743900585502
20
339.64535032812933
42
0.41421356237292856
10
600.23869884837472
20
339.72409048560962
42
0.41421356237259555
10
600.15995869089443
20
339.64535032812933
42
0.41421356237309503
0
ARC
5
315
100
AcDbEntity
8
0
100
AcDbCircle
10
603.85630482995327
20
339.64489616546621
30
0
40
0.17716535433068017
210
0
220
0
230
1
100
AcDbArc
50
225.01090501920069
51
315.01090501921374
0
LWPOLYLINE
5
316
100
AcDbEntity
8
0
100
AcDbPolyline
90
4
70
1
43
0.0
10
613.93560124433191
20
330.71020397530583
42
0.41421356237309503
10
614.01827840968633
20
330.62752680995158
42
0.41421356237309503
10
614.10095557504064
20
330.71020397530583
42
0.41421356237325357
10
614.01827840968633
20
330.79288114066014
42
0.41421356237309503
0
LINE
5
317
100
AcDbEntity
8
0
100
AcDbLine
10
603.98160167092942
20
339.51964336343559
30
0
11
604.14502077032307
21
339.6831223011867
31
0
0
LWPOLYLINE
5
318
100
AcDbEntity
8
0
100
AcDbPolyline
90
4
70
1
43
0.0
10
611.24694356316081
20
330.7097810685238
42
0.41421356237325357
10
611.32962072851512
20
330.62710390316948
42
0.41421356237309503
10
611.41229789386955
20
330.7097810685238
42
0.41421356237309503
10
611.32962072851512
20
330.79245823387816
42
0.41421356237309503
0
LINE
5
319
100
AcDbEntity
8
0
100
AcDbLine
10
613.77733244615627
20
337.68783700677341
30
0
11
613.77871823124599
21
333.2922290755979
31
0
0
LWPOLYLINE
5
320
100
AcDbEntity
8
0
100
AcDbPolyline
90
4
70
1
43
0.0
10
613.02865337696744
20
332.04876295629816
42
0.41421356237309503
10
612.65463762893603
20
332.42277870432969
42
0.41421356237309503
10
612.28062188090439
20
332.04876295629816
42
0.41421356237309503
10
612.65463762893603
20
331.67474720826669
42
0.41421356237309503
0
LWPOLYLINE
5
321
100
AcDbEntity
8
0
100
AcDbPolyline
90
11
70
1
43
0.0
10
616.01332676580489
20
331.70361150120999
10
616.01332676580489
20
331.27130151248866
42
0.41421357554049726
10
616.05269684631503
20
331.23193143374851
10
616.0813187967193
20
331.23193143503528
42
0.41421354920569292
10
616.12068887368946
20
331.27130151377537
10
616.12068887368946
20
333.12150614423155
10
615.69124035145205
20
333.12150613940491
10
615.69124049452205
20
332.21608938611155
42
0.41421352925879712
10
615.73061057503207
20
332.17671931359246
10
615.90596469524314
20
332.17671932147567
10
615.90596465792032
20
331.70361149638336
0
LWPOLYLINE
5
322
100
AcDbEntity
8
0
100
AcDbPolyline
90
4
70
1
43
0.0
10
610.58833323382896
20
331.67474720826664
42
0.41421356237309503
10
610.96234898186049
20
332.04876295629816
42
0.41421356237309503
10
610.58833323382896
20
332.42277870432963
42
0.41421356237309503
10
610.21431748579744
20
332.04876295629816
42
0.41421356237309503
0
LWPOLYLINE
5
323
100
AcDbEntity
8
0
100
AcDbPolyline
90
4
70
1
43
0.0
10
608.25628080722595
20
332.0487629587966
42
0.41421356237309503
10
608.52202883872201
20
331.78301492730054
42
0.41421356237309503
10
608.78777687021807
20
332.0487629587966
42
0.41421356237309503
10
608.52202883872201
20
332.31451099029266
42
0.41421356237309503
0
ARC
5
324
100
AcDbEntity
8
0
100
AcDbCircle
10
607.43874976899099
20
333.29221605721847
30
0
40
0.039370078740211187
210
0
220
0
230
1
100
AcDbArc
50
180
51
270
0
ARC
5
325
100
AcDbEntity
8
0
100
AcDbCircle
10
609.23637140730511
20
330.03761416179191
30
0
40
0.78740157480288098
210
0
220
0
230
1
100
AcDbArc
50
269.99999999998346
51
315.00000000000585
0
ARC
5
326
100
AcDbEntity
8
0
100
AcDbCircle
10
604.1728495449081
20
339.65527337184358
30
0
40
0.039370078740228742
210
0
220
-0
230
1
100
AcDbArc
50
52.815466497919715
51
135.01048793470468
0
LINE
5
327
100
AcDbEntity
8
0
100
AcDbLine
10
610.55564677717859
20
330.28270562428537
30
0
11
609.79314840036523
21
329.48083716873191
31
0
0
ARC
5
328
100
AcDbEntity
8
0
100
AcDbCircle
10
611.10245803318458
20
329.59690493065432
30
0
40
0.87711181865516774
210
0
220
-0
230
1
100
AcDbArc
50
89.348991564969239
51
128.56649728974986
0
LINE
5
329
100
AcDbEntity
8
0
100
AcDbLine
10
603.73100616537874
20
339.77014714323064
30
0
11
603.89442513922427
21
339.93362595538775
31
0
0
LWPOLYLINE
5
330
100
AcDbEntity
8
0
100
AcDbPolyline
90
4
70
1
43
0.0
10
614.01827732804611
20
334.69242614537103
42
0.41421356237309503
10
613.9395371705657
20
334.61368598789079
42
0.41421356237309503
10
614.01827732804611
20
334.53494583041044
42
0.41421356237309503
10
614.09701748552629
20
334.61368598789079
42
0.41421356237309503
0
LWPOLYLINE
5
331
100
AcDbEntity
8
0
100
AcDbPolyline
90
4
70
1
43
0.0
10
620.09530945734423
20
330.7097810685238
42
0.41421356237309503
10
620.01263229198992
20
330.79245823387811
42
0.41421356237309503
10
619.9299551266356
20
330.7097810685238
42
0.41421356237309503
10
620.01263229198992
20
330.62710390316948
42
0.41421356237309503
0
LWPOLYLINE
5
332
100
AcDbEntity
8
0
100
AcDbPolyline
90
4
70
1
43
0.0
10
607.07961798608392
20
334.61368598789079
42
0.41421356237276202
10
607.1583581435641
20
334.53494583041044
42
0.41421356237359452
10
607.23709830104451
20
334.61368598789079
42
0.41421356237309503
10
607.1583581435641
20
334.69242614537103
42
0.41421356237309503
0
LWPOLYLINE
5
333
100
AcDbEntity
8
0
100
AcDbPolyline
90
4
70
1
43
0.0
10
607.1583581435641
20
339.05818199692072
42
0.41421356237309503
10
607.07961798608392
20
338.97944183944043
42
0.41421356237259555
10
607.1583581435641
20
338.90070168196019
42
0.41421356237342799
10
607.23709830104451
20
338.97944183944043
42
0.41421356237309503
0
LINE
5
334
100
AcDbEntity
8
0
100
AcDbLine
10
615.36553165392547
20
333.04286051886021
30
0
11
615.3369097035212
21
333.04286052014692
31
0
0
ARC
5
335
100
AcDbEntity
8
0
100
AcDbCircle
10
615.36553165215537
20
333.00349044012
30
0
40
0.039370078740211187
210
0
220
-0
230
1
100
AcDbArc
50
0
51
89.999997423944905
0
LWPOLYLINE
5
336
100
AcDbEntity
8
0
100
AcDbPolyline
90
4
70
1
43
0.0
10
616.66340278493703
20
338.2390201109273
42
0.41421356237309503
10
616.17127680068506
20
337.74689412667533
42
0.41421356237309503
10
616.66340278493703
20
337.25476814242336
42
0.41421356237309503
10
617.155528769189
20
337.74689412667533
42
0.41421356237309503
0
LWPOLYLINE
5
337
100
AcDbEntity
8
0
100
AcDbPolyline
90
4
70
1
43
0.0
10
614.09701748552629
20
337.55202338771414
42
0.41421356237309503
10
614.01827732804611
20
337.63076354519444
42
0.41421356237342799
10
613.9395371705657
20
337.55202338771414
42
0.41421356237309503
10
614.01827732804611
20
337.47328323023379
42
0.41421356237309503
0
ARC
5
338
100
AcDbEntity
8
0
100
AcDbCircle
10
615.33690970175121
20
333.00349044140677
30
0
40
0.039370078740166466
210
0
220
-0
230
1
100
AcDbArc
50
89.999997424110347
51
180
0
LWPOLYLINE
5
339
100
AcDbEntity
8
0
100
AcDbPolyline
90
4
70
1
43
0.0
10
614.01827732804611
20
337.8634387183514
42
0.41421356237259555
10
614.09701748552629
20
337.9421788758317
42
0.41421356237326151
10
614.01827732804611
20
338.02091903331205
42
0.41421356237309503
10
613.9395371705657
20
337.9421788758317
42
0.41421356237342799
0
LWPOLYLINE
5
340
100
AcDbEntity
8
0
100
AcDbPolyline
90
4
70
1
43
0.0
10
615.99525979174405
20
337.18113761223873
42
0.41421356237309503
10
615.89289758701966
20
337.07877540751429
42
0.41421356237309503
10
615.99525979174405
20
336.9764132027899
42
0.41421356237309503
10
616.09762199646843
20
337.07877540751429
42
0.41421356237309503
0
LWPOLYLINE
5
341
100
AcDbEntity
8
0
100
AcDbPolyline
90
4
70
1
43
0.0
10
616.09762199646855
20
338.41501284583637
42
0.41421356237309503
10
615.99525979174405
20
338.51737505056076
42
0.41421356237309503
10
615.89289758701966
20
338.41501284583637
42
0.41421356237309503
10
615.99525979174405
20
338.31265064111193
42
0.41421356237309503
0
LWPOLYLINE
5
342
100
AcDbEntity
8
0
100
AcDbPolyline
90
4
70
1
43
0.0
10
616.3347400096103
20
334.61368598789079
42
0.41421356237309503
10
616.4134801670906
20
334.53494583041044
42
0.41421356237309503
10
616.49222032457078
20
334.61368598789079
42
0.41421356237259555
10
616.4134801670906
20
334.69242614537103
42
0.41421356237309503
0
LWPOLYLINE
5
343
100
AcDbEntity
8
0
100
AcDbPolyline
90
4
70
1
43
0.0
10
617.33154577812979
20
337.18113761223873
42
0.41421356237309503
10
617.22918357340541
20
337.07877540751429
42
0.41421356237309503
10
617.33154577812979
20
336.9764132027899
42
0.41421356237309503
10
617.43390798285418
20
337.07877540751429
42
0.41421356237296697
0
LWPOLYLINE
5
344
100
AcDbEntity
8
0
100
AcDbPolyline
90
4
70
1
43
0.0
10
617.33154577812979
20
338.51737505056076
42
0.41421356237309503
10
617.22918357340541
20
338.41501284583637
42
0.41421356237309503
10
617.33154577812979
20
338.31265064111193
42
0.41421356237309503
10
617.43390798285418
20
338.41501284583637
42
0.41421356237296697
0
LWPOLYLINE
5
345
100
AcDbEntity
8
0
100
AcDbPolyline
90
4
70
1
43
0.0
10
616.88788869388316
20
334.61368598789073
42
0.41421356237309503
10
616.80914853640286
20
334.69242614537103
42
0.41421356237276202
10
616.73040837892245
20
334.61368598789073
42
0.41421356237259555
10
616.80914853640286
20
334.53494583041044
42
0.41421356237309503
0
ARC
5
346
100
AcDbEntity
8
0
100
AcDbCircle
10
613.8363875642666
20
337.80594724299402
30
0
40
0.059055118110272024
210
0
220
0
230
1
100
AcDbArc
50
180
51
236.44269023809872
0
ARC
5
347
100
AcDbEntity
8
0
100
AcDbCircle
10
613.8363875642666
20
337.68783700677346
30
0
40
0.059055118110244324
210
0
220
0
230
1
100
AcDbArc
50
123.55730976190131
51
180
0
LWPOLYLINE
5
348
100
AcDbEntity
8
0
100
AcDbPolyline
90
4
70
1
43
0.0
10
606.49598828890225
20
342.20581920071345
42
0.41421356237309503
10
606.41724813142196
20
342.28455935819375
42
0.41421356237309503
10
606.33850797394166
20
342.20581920071345
42
0.41421356237276202
10
606.41724813142196
20
342.1270790432331
42
0.41421356237359452
0
LWPOLYLINE
5
349
100
AcDbEntity
8
0
100
AcDbPolyline
90
4
70
1
43
0.0
10
606.41723447056381
20
343.39418963700712
42
0.41421356237309503
10
606.49597462804411
20
343.47292979448747
42
0.41421356237309503
10
606.41723447056381
20
343.55166995196771
42
0.41421356237309503
10
606.33849431308352
20
343.47292979448747
42
0.41421356237326151
0
LWPOLYLINE
5
350
100
AcDbEntity
8
0
100
AcDbPolyline
90
4
70
1
43
0.0
10
606.41724813142196
20
345.95463292613533
42
0.41421356237342799
10
606.49598828890225
20
346.03337308361569
42
0.41421356237342799
10
606.41724813142196
20
346.11211324109604
42
0.41421356237309503
10
606.33850797394166
20
346.03337308361569
42
0.41421356237276202
0
ARC
5
351
100
AcDbEntity
8
0
100
AcDbCircle
10
605.13653281649954
20
344.75314498541002
30
0
40
1.5551181102363558
210
0
220
-0
230
1
100
AcDbArc
50
45.010441158778207
51
131.10792848914289
0
LWPOLYLINE
5
352
100
AcDbEntity
8
0
100
AcDbPolyline
90
4
70
1
43
0.0
10
599.17782570217253
20
346.11211324109604
42
0.41421356237309503
10
599.09908554469223
20
346.03337308361569
42
0.41421356237309503
10
599.17782570217253
20
345.95463292613533
42
0.41421356237309503
10
599.25656585965294
20
346.03337308361569
42
0.41421356237309503
0
LWPOLYLINE
5
353
100
AcDbEntity
8
0
100
AcDbPolyline
90
4
70
1
43
0.0
10
599.1778120413145
20
343.39418963700712
42
0.41421356237326151
10
599.25655219879468
20
343.47292979448747
42
0.41421356237309503
10
599.1778120413145
20
343.55166995196771
42
0.41421356237309503
10
599.09907188383409
20
343.47292979448747
42
0.41421356237309503
0
LINE
5
354
100
AcDbEntity
8
0
100
AcDbLine
10
604.46175867805357
20
346.48576386819968
30
0
11
606.35152245758104
21
346.48576386819968
31
0
0
LWPOLYLINE
5
355
100
AcDbEntity
8
0
100
AcDbPolyline
90
4
70
1
43
0.0
10
599.17794592152893
20
342.28455935819375
42
0.41421356237309503
10
599.09920576404863
20
342.20581920071339
42
0.41421356237292856
10
599.17794592152893
20
342.12707904323304
42
0.41421356237309503
10
599.25668607900923
20
342.20581920071339
42
0.41421356237309503
0
ARC
5
356
100
AcDbEntity
8
0
100
AcDbCircle
10
605.13653281649943
20
344.75314498541024
30
0
40
1.5551181102361673
210
0
220
0
230
1
100
AcDbArc
50
131.10792848914525
51
217.20541581953182
0
ARC
5
357
100
AcDbEntity
8
0
100
AcDbCircle
10
605.13653281649965
20
344.75314498541024
30
0
40
1.5551181102360498
210
0
220
0
230
1
100
AcDbArc
50
-41.087046171612407
51
45.010441158775244
0
LINE
5
358
100
AcDbEntity
8
0
100
AcDbLine
10
603.39559454100322
20
347.72977148314612
30
0
11
607.33892729610136
21
347.7297716518587
31
0
0
ARC
5
359
100
AcDbEntity
8
0
100
AcDbCircle
10
605.13653281649954
20
344.75314498541007
30
0
40
1.5551181102360869
210
0
220
0
230
1
100
AcDbArc
50
232.81546649800501
51
318.91295382839508
0
LWPOLYLINE
5
360
100
AcDbEntity
8
0
100
AcDbPolyline
90
4
70
1
43
0.0
10
597.89711038725011
20
343.19802687517398
42
0.41421356237309503
10
599.45222849748632
20
344.75314498541019
42
0.41421356237309503
10
597.89711038725011
20
346.30826309564645
42
0.41421356237309503
10
596.3419922770139
20
344.75314498541019
42
0.41421356237309503
0
LWPOLYLINE
5
361
100
AcDbEntity
8
0
100
AcDbPolyline
90
4
70
1
43
0.0
10
593.00434113121923
20
342.12707616181996
42
0.41421356237359452
10
593.08308128869953
20
342.20581631930031
42
0.41421356237342799
10
593.00434113121923
20
342.28455647678061
42
0.41421356237309503
10
592.92560097373894
20
342.20581631930031
42
0.41421356237276202
0
LWPOLYLINE
5
362
100
AcDbEntity
8
0
100
AcDbPolyline
90
4
70
1
43
0.0
10
593.08304764419756
20
343.47291412134638
42
0.41421356237292856
10
593.00430748671727
20
343.55165427882667
42
0.41421356237309503
10
592.92556732923708
20
343.47291412134638
42
0.41421356237326151
10
593.00430748671727
20
343.39417396386608
42
0.41421356237309503
0
LWPOLYLINE
5
363
100
AcDbEntity
8
0
100
AcDbPolyline
90
4
70
1
43
0.0
10
595.5657245439246
20
343.55166707055457
42
0.41421356237309503
10
595.48698438644431
20
343.47292691307428
42
0.41421356237359452
10
595.5657245439246
20
343.39418675559392
42
0.41421356237259555
10
595.6444647014049
20
343.47292691307428
42
0.41421356237309503
0
LWPOLYLINE
5
364
100
AcDbEntity
8
0
100
AcDbPolyline
90
4
70
1
43
0.0
10
594.28502288986033
20
343.19802399376084
42
0.41421356237309503
10
595.84014100009654
20
344.75314210399705
42
0.41421356237309503
10
594.28502288986033
20
346.30826021423326
42
0.41421356237309503
10
592.72990477962401
20
344.75314210399705
42
0.41421356237309503
0
SPLINE
5
365
100
AcDbEntity
8
0
100
AcDbSpline
70
0
71
3
72
11
73
7
74
0
42
0.000000001
43
0.0000000001
44
0.0000000001
40
0
40
0
40
0
40
0
40
39.493341781749223
40
98.709185770871045
40
159.57806044535982
40
175.04390341281442
40
175.04390341281442
40
175.04390341281442
40
175.04390341281442
10
592.47583848013358
20
347.10225918445803
30
0
10
592.98463811475972
20
347.2022789335731
30
0
10
594.25657968625478
20
347.45062477065812
30
0
10
596.34673588828014
20
347.63296446173223
30
0
10
598.12405301067372
20
347.69916130684032
30
0
10
599.12551571705126
20
347.72461408150184
30
0
10
599.32841769184131
20
347.72977095675026
30
0
0
LWPOLYLINE
5
366
100
AcDbEntity
8
0
100
AcDbPolyline
90
4
70
1
43
0.0
10
592.62457695400087
20
342.91954206569903
42
0.41421356237309503
10
592.54583679652058
20
342.84080190821874
42
0.41421356237309503
10
592.62457695400087
20
342.76206175073844
42
0.41421356237309503
10
592.70331711148128
20
342.84080190821874
42
0.41421356237292856
0
LWPOLYLINE
5
367
100
AcDbEntity
8
0
100
AcDbPolyline
90
4
70
1
43
0.0
10
595.64449534051801
20
342.20581920071339
42
0.41421356237309503
10
595.5657551830376
20
342.28455935819369
42
0.41421356237259555
10
595.48701502555741
20
342.20581920071339
42
0.41421356237276202
10
595.5657551830376
20
342.12707904323304
42
0.41421356237359452
0
LWPOLYLINE
5
368
100
AcDbEntity
8
0
100
AcDbPolyline
90
4
70
1
43
0.0
10
596.69527202719087
20
342.20581631930031
42
0.41421356237309503
10
596.61653186971046
20
342.28455647678061
42
0.41421356237309503
10
596.53779171223016
20
342.20581631930031
42
0.41421356237309503
10
596.61653186971046
20
342.12707616181996
42
0.41421356237309503
0
LWPOLYLINE
5
369
100
AcDbEntity
8
0
100
AcDbPolyline
90
4
70
1
43
0.0
10
596.61639498410705
20
343.55165716023987
42
0.41421356237309503
10
596.53765482662675
20
343.47291700275952
42
0.41421356237292856
10
596.61639498410705
20
343.39417684527922
42
0.41421356237309503
10
596.69513514158746
20
343.47291700275952
42
0.41421356237309503
0
ARC
5
370
100
AcDbEntity
8
0
100
AcDbCircle
10
592.50905927457882
20
347.02788434943744
30
0
40
0.081456965742099291
210
0
220
0
230
1
100
AcDbArc
50
114.06874565330628
51
157.1083065175001
0
LWPOLYLINE
5
371
100
AcDbEntity
8
0
100
AcDbPolyline
90
4
70
1
43
0.0
10
592.62422515462413
20
346.8055005074653
42
0.41421356237309503
10
592.70296531210442
20
346.88424066494565
42
0.41421356237259555
10
592.62422515462413
20
346.962980822426
42
0.41421356237309503
10
592.54548499714383
20
346.88424066494565
42
0.41421356237309503
0
LWPOLYLINE
5
372
100
AcDbEntity
8
0
100
AcDbPolyline
90
4
70
1
43
0.0
10
595.56573820478275
20
346.1121103596829
42
0.41421356237292856
10
595.48699804730245
20
346.03337020220255
42
0.41421356237309503
10
595.56573820478275
20
345.95463004472219
42
0.41421356237309503
10
595.64447836226304
20
346.03337020220255
42
0.41421356237259555
0
LWPOLYLINE
5
373
100
AcDbEntity
8
0
100
AcDbPolyline
90
4
70
1
43
0.0
10
592.92558399548398
20
346.03336732078941
42
0.41421356237309503
10
593.00432415296427
20
345.95462716330911
42
0.41421356237309503
10
593.08306431044468
20
346.03336732078941
42
0.41421356237309503
10
593.00432415296427
20
346.11210747826976
42
0.41421356237309503
0
LWPOLYLINE
5
374
100
AcDbEntity
8
0
100
AcDbPolyline
90
4
70
1
43
0.0
10
592.30891344863653
20
346.79822553084125
42
0.41421356237309503
10
592.23017329115623
20
346.87696568832155
42
0.41421356237292856
10
592.15143313367582
20
346.79822553084125
42
0.41421356237309503
10
592.23017329115623
20
346.7194853733609
42
0.41421356237309503
0
LWPOLYLINE
5
375
100
AcDbEntity
8
0
100
AcDbPolyline
90
4
70
1
43
0.0
10
592.15143313368196
20
346.79822455388597
42
0.41421356237326151
10
592.23017329116226
20
346.71948439640568
42
0.41421356237309503
10
592.30891344864256
20
346.79822455388597
42
0.41421356237292856
10
592.23017329116226
20
346.87696471136627
42
0.41421356237292856
0
LWPOLYLINE
5
376
100
AcDbEntity
8
0
100
AcDbPolyline
90
6
70
1
43
0.0
10
623.48319466393207
20
343.033015228137
42
0.31919774706128495
10
623.81784033322344
20
343.27088767335158
10
623.81784033322344
20
343.50380420024527
42
0.31919774706131782
10
623.48319466393207
20
343.74167664545985
42
0.31919774706126208
10
623.14854899464081
20
343.50380420024533
10
623.14854899464081
20
343.27088767335158
42
0.31919774706122916
0
LWPOLYLINE
5
377
100
AcDbEntity
8
0
100
AcDbPolyline
90
4
70
1
43
0.0
10
625.92824709842819
20
334.61368598789079
42
0.41421356237309503
10
626.00698725590848
20
334.53494583041044
42
0.41421356237309503
10
626.08572741338878
20
334.61368598789079
42
0.41421356237309503
10
626.00698725590848
20
334.69242614537103
42
0.41421356237309503
0
LWPOLYLINE
5
378
100
AcDbEntity
8
0
100
AcDbPolyline
90
4
70
1
43
0.0
10
620.80756353414813
20
334.61368598789079
42
0.41421356237326151
10
620.88630369162843
20
334.53494583041044
42
0.41421356237309503
10
620.96504384910872
20
334.61368598789079
42
0.41421356237309503
10
620.88630369162843
20
334.69242614537103
42
0.41421356237309503
0
LWPOLYLINE
5
379
100
AcDbEntity
8
0
100
AcDbPolyline
90
4
70
1
43
0.0
10
625.48048566467878
20
344.31443609947155
42
0.41421356237342799
10
625.40174550719848
20
344.23569594199131
42
0.41421356237309503
10
625.48048566467878
20
344.15695578451101
42
0.41421356237309503
10
625.55922582215908
20
344.23569594199131
42
0.41421356237309503
0
LWPOLYLINE
5
380
100
AcDbEntity
8
0
100
AcDbPolyline
90
4
70
1
43
0.0
10
626.00698725590848
20
338.94165359681392
42
0.41421356237309503
10
626.08572741338878
20
339.02039375429428
42
0.41421356237326151
10
626.00698725590848
20
339.09913391177463
42
0.41421356237309503
10
625.92824709842819
20
339.02039375429428
42
0.41421356237309503
0
LWPOLYLINE
5
381
100
AcDbEntity
8
0
100
AcDbPolyline
90
4
70
1
43
0.0
10
622.32549515163407
20
346.35223229608658
42
0.41421356237309503
10
622.24675499415378
20
346.43097245356688
42
0.41421356237309503
10
622.16801483667348
20
346.35223229608658
42
0.41421356237309503
10
622.24675499415378
20
346.27349213860629
42
0.41421356237309503
0
LWPOLYLINE
5
382
100
AcDbEntity
8
0
100
AcDbPolyline
90
4
70
1
43
0.0
10
625.92431009055417
20
330.7097810685238
42
0.41421356237293649
10
626.00698725590848
20
330.62710390316954
42
0.41421356237293649
10
626.0896644212628
20
330.7097810685238
42
0.41421356237309503
10
626.00698725590848
20
330.79245823387816
42
0.41421356237309503
0
ARC
5
383
100
AcDbEntity
8
0
100
AcDbCircle
10
626.18001104041309
20
334.35613705843286
30
0
40
0.059055118110262123
210
0
220
0
230
1
100
AcDbArc
50
-0.00031372318952718704
51
56.44237651415223
0
ARC
5
384
100
AcDbEntity
8
0
100
AcDbCircle
10
626.1800116871276
20
334.47424729465149
30
0
40
0.059055118110113915
210
0
220
0
230
1
100
AcDbArc
50
303.55699603801162
51
359.99968627681045
0
LWPOLYLINE
5
385
100
AcDbEntity
8
0
100
AcDbPolyline
90
4
70
1
43
0.0
10
605.66823935698676
20
330.95934083557995
42
0.41421356237309503
10
605.75682203415215
20
330.87075815841462
42
0.4142135623729471
10
605.84540471131743
20
330.95934083557995
42
0.41421356237309503
10
605.75682203415215
20
331.04792351274534
42
0.41421356237309503
0
LWPOLYLINE
5
386
100
AcDbEntity
8
0
100
AcDbPolyline
90
4
70
1
43
0.0
10
605.66823935698676
20
333.91209674109183
42
0.41421356237309503
10
605.75682203415215
20
333.8235140639265
42
0.41421356237309503
10
605.84540471131743
20
333.91209674109183
42
0.41421356237309503
10
605.75682203415215
20
334.00067941825711
42
0.41421356237309503
0
ARC
5
387
100
AcDbEntity
8
0
100
AcDbCircle
10
613.78113563932459
20
347.69836578689848
30
0
40
0.0078740157481064985
210
0
220
0
230
1
100
AcDbArc
50
266.55863892181361
51
328.71677835317456
0
LWPOLYLINE
5
388
100
AcDbEntity
8
0
100
AcDbPolyline
90
4
70
1
43
0.0
10
616.43689922714009
20
331.16398711211929
42
0.41421356237309503
10
616.52548190430537
20
331.07540443495395
42
0.41421356237309503
10
616.61406458147076
20
331.16398711211929
42
0.41421356237309503
10
616.52548190430537
20
331.25256978928462
42
0.4142135623729471
0
ARC
5
389
100
AcDbEntity
8
0
100
AcDbCircle
10
613.78113563932459
20
347.69836578689836
30
0
40
0.0078740157479942532
210
0
220
0
230
1
100
AcDbArc
50
204.4004994899455
51
266.55863892176399
0
ARC
5
390
100
AcDbEntity
8
0
100
AcDbCircle
10
607.39798241676135
20
347.70221259681517
30
0
40
0.0078740157480664593
210
0
220
0
230
1
100
AcDbArc
50
208.07248700865094
51
270.00000005128948
0
LINE
5
391
100
AcDbEntity
8
0
100
AcDbLine
10
615.29753962852851
20
333.00349044140677
30
0
11
615.29753962852851
21
331.34994713303342
31
0
0
LINE
5
392
100
AcDbEntity
8
0
100
AcDbLine
10
615.40490173641308
20
331.34994713432013
30
0
11
615.40490173641308
21
333.00349044012
31
0
0
LINE
5
393
100
AcDbEntity
8
0
100
AcDbLine
10
615.36553166465455
20
331.31057705557998
30
0
11
615.3369097142504
21
331.31057705429328
31
0
0
ARC
5
394
100
AcDbEntity
8
0
100
AcDbCircle
10
615.33690971248029
20
331.34994713303337
30
0
40
0.039370078740121668
210
0
220
0
230
1
100
AcDbArc
50
180
51
270.00000257605507
0
LWPOLYLINE
5
395
100
AcDbEntity
8
0
100
AcDbPolyline
90
4
70
1
43
0.0
10
616.5252188209181
20
333.27803418460996
42
0.41421356237353901
10
616.43663614375271
20
333.18945150744463
42
0.41421356237309503
10
616.5252188209181
20
333.1008688302793
42
0.41421356237309503
10
616.61380149808338
20
333.18945150744463
42
0.41421356237309503
0
LWPOLYLINE
5
396
100
AcDbEntity
8
0
100
AcDbPolyline
90
4
70
1
43
0.0
10
615.06777569006624
20
331.07540443495401
42
0.41421356237309503
10
615.15635836723163
20
331.16398711211934
42
0.41421356237309503
10
615.06777569006624
20
331.25256978928473
42
0.41421356237309503
10
614.97919301290096
20
331.16398711211934
42
0.41421356237309503
0
LWPOLYLINE
5
397
100
AcDbEntity
8
0
100
AcDbPolyline
90
4
70
1
43
0.0
10
614.97954952957946
20
333.18945150744463
42
0.41421356237309503
10
615.06813220674485
20
333.1008688302793
42
0.41421356237309503
10
615.15671488391024
20
333.18945150744463
42
0.41421356237309503
10
615.06813220674485
20
333.27803418461002
42
0.41421356237309503
0
ARC
5
398
100
AcDbEntity
8
0
100
AcDbCircle
10
615.36553166288456
20
331.34994713432019
30
0
40
0.039370078740211228
210
0
220
0
230
1
100
AcDbArc
50
270.00000257588965
51
360
0
LWPOLYLINE
5
399
100
AcDbEntity
8
0
100
AcDbPolyline
90
4
70
1
43
0.0
10
614.09701785955303
20
342.27462712513949
42
0.41421356237276202
10
614.01827770207285
20
342.35336728261979
42
0.41421356237309503
10
613.93953754459244
20
342.27462712513949
42
0.41421356237292856
10
614.01827770207285
20
342.19588696765919
42
0.41421356237309503
0
ARC
5
400
100
AcDbEntity
8
0
100
AcDbCircle
10
592.42313690328388
20
347.06416470157313
30
0
40
0.011811023621975468
210
0
220
0
230
1
100
AcDbArc
50
220.33001085012498
51
278.71915868433609
0
ARC
5
401
100
AcDbEntity
8
0
100
AcDbCircle
10
603.33655503202738
20
347.70221213866097
30
0
40
0.007874015747982837
210
0
220
0
230
1
100
AcDbArc
50
208.07270789484051
51
270.00024994021567
0
ARC
5
402
100
AcDbEntity
8
0
100
AcDbCircle
10
613.79721483052219
20
337.74689212488374
30
0
40
0.01181102362207353
210
0
220
0
230
1
100
AcDbArc
50
-56.442690237884371
51
0
0
ARC
5
403
100
AcDbEntity
8
0
100
AcDbCircle
10
592.42313690328388
20
347.0641647015733
30
0
40
0.011811023622127747
210
0
220
0
230
1
100
AcDbArc
50
278.71915868421075
51
337.10830651722586
0
LWPOLYLINE
5
404
100
AcDbEntity
8
0
100
AcDbPolyline
90
4
70
1
43
0.0
10
614.01827732804611
20
345.64855256831891
42
0.41421356237309503
10
613.9395371705657
20
345.56981241083855
42
0.41421356237309503
10
614.01827732804611
20
345.4910722533582
42
0.41421356237309503
10
614.09701748552629
20
345.56981241083855
42
0.41421356237276202
0
LWPOLYLINE
5
405
100
AcDbEntity
8
0
100
AcDbPolyline
90
4
70
1
43
0.0
10
607.07961798608392
20
345.56981241083855
42
0.41421356237309503
10
607.1583581435641
20
345.49107225335825
42
0.41421356237309503
10
607.23709830104451
20
345.56981241083855
42
0.41421356237359452
10
607.1583581435641
20
345.64855256831885
42
0.41421356237276202
0
ARC
5
406
100
AcDbEntity
8
0
100
AcDbCircle
10
592.36911355683981
20
347.01830090230845
30
0
40
0.059055118110195981
210
0
220
-0
230
1
100
AcDbArc
50
40.330010850532737
51
103.26930660943972
0
ARC
5
407
100
AcDbEntity
8
0
100
AcDbCircle
10
603.33655503202738
20
347.70221213866103
30
0
40
0.0078740157480544949
210
0
220
0
230
1
100
AcDbArc
50
270.00024994021567
51
331.92779198461761
0
ARC
5
408
100
AcDbEntity
8
0
100
AcDbCircle
10
613.79721483052219
20
337.74689212488374
30
0
40
0.011811023622126018
210
0
220
-0
230
1
100
AcDbArc
50
0
51
56.442690237884378
0
ARC
5
409
100
AcDbEntity
8
0
100
AcDbCircle
10
607.39798241676135
20
347.70221259681512
30
0
40
0.0078740157480243333
210
0
220
0
230
1
100
AcDbArc
50
270.00000005128948
51
331.92751309385505
0
ARC
5
410
100
AcDbEntity
8
0
100
AcDbCircle
10
586.88860709181813
20
334.41540713799509
30
0
40
0.011811023622076974
210
0
220
0
230
1
100
AcDbArc
50
-56.43773953231635
51
0
0
ARC
5
411
100
AcDbEntity
8
0
100
AcDbCircle
10
626.21918409751413
20
334.41519196205132
30
0
40
0.011811023622124038
210
0
220
0
230
1
100
AcDbArc
50
179.99968627681048
51
236.44237651396793
0
ARC
5
412
100
AcDbEntity
8
0
100
AcDbCircle
10
586.88860709181824
20
334.41540713799509
30
0
40
0.011811023622036501
210
0
220
0
230
1
100
AcDbArc
50
0
51
56.437739532775907
0
ARC
5
413
100
AcDbEntity
8
0
100
AcDbCircle
10
626.21918409751402
20
334.41519196205132
30
0
40
0.011811023621990657
210
0
220
0
230
1
100
AcDbArc
50
123.55699603758252
51
179.99968627681048
0
ARC
5
414
100
AcDbEntity
8
0
100
AcDbCircle
10
603.39560999346816
20
347.67071586670198
30
0
40
0.059055078210256504
210
0
220
-0
230
1
100
AcDbArc
50
89.999905104926668
51
151.92729210527301
0
LWPOLYLINE
5
415
100
AcDbEntity
8
0
100
AcDbPolyline
90
4
70
1
43
0.0
10
614.89105204626537
20
342.90881456691409
42
0.41421356237276202
10
614.96979220374556
20
342.83007440943379
42
0.41421356237359452
10
615.04853236122597
20
342.90881456691409
42
0.41421356237309503
10
614.96979220374556
20
342.98755472439439
42
0.41421356237309503
0
LWPOLYLINE
5
416
100
AcDbEntity
8
0
100
AcDbPolyline
90
4
70
1
43
0.0
10
621.71185765983921
20
345.16130599270457
42
0.41421356237309503
10
621.79059781731962
20
345.08256583522427
42
0.41421356237309503
10
621.86933797479981
20
345.16130599270457
42
0.41421356237326151
10
621.79059781731962
20
345.24004615018487
42
0.41421356237326151
0
LWPOLYLINE
5
417
100
AcDbEntity
8
0
100
AcDbPolyline
90
4
70
1
43
0.0
10
607.1583581435641
20
342.19588696765919
42
0.41421356237359452
10
607.23709830104451
20
342.27462712513955
42
0.41421356237342799
10
607.1583581435641
20
342.35336728261979
42
0.41421356237259555
10
607.07961798608392
20
342.27462712513955
42
0.41421356237276202
0
LWPOLYLINE
5
418
100
AcDbEntity
8
0
100
AcDbPolyline
90
4
70
1
43
0.0
10
621.71185765983921
20
342.90881456691409
42
0.41421356237309503
10
621.79059781731962
20
342.83007440943379
42
0.41421356237309503
10
621.86933797479981
20
342.90881456691409
42
0.41421356237309503
10
621.79059781731962
20
342.98755472439444
42
0.41421356237309503
0
LINE
5
419
100
AcDbEntity
8
0
100
AcDbLine
10
615.21090367194995
20
345.64923350815582
30
0
11
615.21090367194995
21
342.42088705146284
31
0
0
LWPOLYLINE
5
420
100
AcDbEntity
8
0
100
AcDbPolyline
90
4
70
1
43
0.0
10
614.89105204626537
20
345.16130599270457
42
0.41421356237309503
10
614.96979220374556
20
345.08256583522427
42
0.41421356237292856
10
615.04853236122597
20
345.16130599270457
42
0.41421356237326151
10
614.96979220374556
20
345.24004615018487
42
0.41421356237326151
0
LINE
5
421
100
AcDbEntity
8
0
100
AcDbLine
10
621.54948634911523
20
345.64923350815582
30
0
11
621.54948634911523
21
342.42088705146284
31
0
0
LINE
5
422
100
AcDbEntity
8
0
100
AcDbLine
10
615.2502737506901
20
345.64923350815582
30
0
11
615.2502737506901
21
342.42088705146284
31
0
0
LINE
5
423
100
AcDbEntity
8
0
100
AcDbLine
10
621.51011627037508
20
345.64923350815582
30
0
11
621.51011627037508
21
342.42088705146284
31
0
0
ARC
5
424
100
AcDbEntity
8
0
100
AcDbCircle
10
615.2502737506901
20
345.64923350815582
30
0
40
0.039370078740166431
210
0
220
-0
230
1
100
AcDbArc
50
90
51
180
0
LWPOLYLINE
5
425
100
AcDbEntity
8
0
100
AcDbPolyline
90
6
70
1
43
0.0
10
623.42410178431294
20
332.34797632598946
42
0.41421356237309503
10
623.52252698116331
20
332.44640152283989
10
623.52252698116331
20
334.80860624724932
42
0.41421356237309503
10
623.42410178431294
20
334.90703144409969
42
0.41421356237309503
10
623.32567658746245
20
334.80860624724932
10
623.32567658746245
20
332.44640152283989
42
0.41421356237309503
0
LINE
5
426
100
AcDbEntity
8
0
100
AcDbLine
10
615.2502737506901
20
342.38151697272275
30
0
11
621.51011627037508
21
342.38151697272275
31
0
0
LWPOLYLINE
5
427
100
AcDbEntity
8
0
100
AcDbPolyline
90
7
70
1
43
0.0
10
618.98076059451171
20
332.02900873021383
42
0.38989861631488798
10
618.78473763637271
20
332.2816794918192
10
618.78473763637271
20
332.36372359484682
10
618.70599747889241
20
332.36372359484682
10
618.70599747889241
20
332.2816794918192
42
0.38989861631488798
10
618.50997452075342
20
332.02900873021383
42
0.38989861631481076
10
618.74536755763245
20
331.81254249248462
42
0.38989861631481992
0
LINE
5
428
100
AcDbEntity
8
0
100
AcDbLine
10
615.2502737506901
20
345.68860358689597
30
0
11
621.51011627037508
21
345.68860358689597
31
0
0
LINE
5
429
100
AcDbEntity
8
0
100
AcDbLine
10
615.2502737506901
20
342.4208870514629
30
0
11
621.51011627037508
21
342.42088705146284
31
0
0
ARC
5
430
100
AcDbEntity
8
0
100
AcDbCircle
10
621.51011627037508
20
342.42088705146284
30
0
40
0.039370078740121668
210
0
220
0
230
1
100
AcDbArc
50
-90
51
0
0
ARC
5
431
100
AcDbEntity
8
0
100
AcDbCircle
10
615.2502737506901
20
342.4208870514629
30
0
40
0.039370078740211187
210
0
220
0
230
1
100
AcDbArc
50
180
51
270
0
LINE
5
432
100
AcDbEntity
8
0
100
AcDbLine
10
615.2502737506901
20
345.64923350815582
30
0
11
621.51011627037508
21
345.64923350815582
31
0
0
ARC
5
433
100
AcDbEntity
8
0
100
AcDbCircle
10
621.51011627037508
20
345.64923350815582
30
0
40
0.039370078740121668
210
0
220
0
230
1
100
AcDbArc
50
0
51
90
0
ARC
5
434
100
AcDbEntity
8
0
100
AcDbCircle
10
613.73934815446228
20
333.29221666355721
30
0
40
0.039370078740345642
210
0
220
0
230
1
100
AcDbArc
50
270.00000551394913
51
315.00903445794239
0
ARC
5
435
100
AcDbEntity
8
0
100
AcDbCircle
10
613.7393481544625
20
333.29221666355693
30
0
40
0.039370078739975001
210
0
220
0
230
1
100
AcDbArc
50
-44.99096554199906
51
0.018063402382414547
0
LINE
5
436
100
AcDbEntity
8
0
100
AcDbLine
10
607.43874976899099
20
333.25284597847826
30
0
11
613.73934815825112
21
333.25284658481689
31
0
0
ENDSEC
0
SECTION
2
OBJECTS
0
DICTIONARY
5
C
100
AcDbDictionary
3
ACAD_GROUP
350
D
3
ACAD_MLINESTYLE
350
17
0
DICTIONARY
5
D
100
AcDbDictionary
0
DICTIONARY
5
1A
330
C
100
AcDbDictionary
0
DICTIONARY
5
17
100
AcDbDictionary
0
ENDSEC
0
EOF
