  0
SECTION
  2
HEADER
  9
$ACADVER
  1
AC1014
  9
$ACADMAINTVER
 70
     9
  9
$DWGCODEPAGE
  3
ANSI_1252
  9
$INSBASE
 10
0.0
 20
0.0
 30
0.0
  9
$EXTMIN
 10
115.3511186220587
 20
50.25149262608432
 30
-0.00000001
  9
$EXTMAX
 10
659.9183308545117
 20
395.5794234258158
 30
0.00000001
  9
$LIMMIN
 10
0.0
 20
0.0
  9
$LIMMAX
 10
420.0
 20
297.0
  9
$ORTHOMODE
 70
     0
  9
$REGENMODE
 70
     1
  9
$FILLMODE
 70
     1
  9
$QTEXTMODE
 70
     0
  9
$MIRRTEXT
 70
     1
  9
$DRAGMODE
 70
     2
  9
$LTSCALE
 40
1.0
  9
$OSMODE
 70
  2831
  9
$ATTMODE
 70
     1
  9
$TEXTSIZE
 40
2.5
  9
$TRACEWID
 40
1.0
  9
$TEXTSTYLE
  7
STANDARD
  9
$CLAYER
  8
0
  9
$CELTYPE
  6
BYLAYER
  9
$CECOLOR
 62
   256
  9
$CELTSCALE
 40
1.0
  9
$DELOBJ
 70
     1
  9
$DISPSILH
 70
     0
  9
$DIMSCALE
 40
1.0
  9
$DIMASZ
 40
2.5
  9
$DIMEXO
 40
0.625
  9
$DIMDLI
 40
3.75
  9
$DIMRND
 40
0.0
  9
$DIMDLE
 40
0.0
  9
$DIMEXE
 40
1.25
  9
$DIMTP
 40
0.0
  9
$DIMTM
 40
0.0
  9
$DIMTXT
 40
2.5
  9
$DIMCEN
 40
2.5
  9
$DIMTSZ
 40
0.0
  9
$DIMTOL
 70
     0
  9
$DIMLIM
 70
     0
  9
$DIMTIH
 70
     0
  9
$DIMTOH
 70
     0
  9
$DIMSE1
 70
     0
  9
$DIMSE2
 70
     0
  9
$DIMTAD
 70
     1
  9
$DIMZIN
 70
     8
  9
$DIMBLK
  1

  9
$DIMASO
 70
     1
  9
$DIMSHO
 70
     1
  9
$DIMPOST
  1

  9
$DIMAPOST
  1

  9
$DIMALT
 70
     0
  9
$DIMALTD
 70
     3
  9
$DIMALTF
 40
0.03937007874016
  9
$DIMLFAC
 40
1.0
  9
$DIMTOFL
 70
     1
  9
$DIMTVP
 40
0.0
  9
$DIMTIX
 70
     0
  9
$DIMSOXD
 70
     0
  9
$DIMSAH
 70
     0
  9
$DIMBLK1
  1

  9
$DIMBLK2
  1

  9
$DIMSTYLE
  2
ISO-25
  9
$DIMCLRD
 70
     0
  9
$DIMCLRE
 70
     0
  9
$DIMCLRT
 70
     0
  9
$DIMTFAC
 40
1.0
  9
$DIMGAP
 40
0.625
  9
$DIMJUST
 70
     0
  9
$DIMSD1
 70
     0
  9
$DIMSD2
 70
     0
  9
$DIMTOLJ
 70
     0
  9
$DIMTZIN
 70
     8
  9
$DIMALTZ
 70
     0
  9
$DIMALTTZ
 70
     0
  9
$DIMFIT
 70
     3
  9
$DIMUPT
 70
     0
  9
$DIMUNIT
 70
     2
  9
$DIMDEC
 70
     2
  9
$DIMTDEC
 70
     2
  9
$DIMALTU
 70
     2
  9
$DIMALTTD
 70
     3
  9
$DIMTXSTY
  7
STANDARD
  9
$DIMAUNIT
 70
     0
  9
$LUNITS
 70
     2
  9
$LUPREC
 70
     4
  9
$SKETCHINC
 40
1.0
  9
$FILLETRAD
 40
10.0
  9
$AUNITS
 70
     0
  9
$AUPREC
 70
     0
  9
$MENU
  1
.
  9
$ELEVATION
 40
0.0
  9
$PELEVATION
 40
0.0
  9
$THICKNESS
 40
0.0
  9
$LIMCHECK
 70
     0
  9
$BLIPMODE
 70
     0
  9
$CHAMFERA
 40
10.0
  9
$CHAMFERB
 40
10.0
  9
$CHAMFERC
 40
20.0
  9
$CHAMFERD
 40
0.0
  9
$SKPOLY
 70
     0
  9
$TDCREATE
 40
2452691.404442141
  9
$TDUPDATE
 40
2452691.618591863
  9
$TDINDWG
 40
0.0022751505
  9
$TDUSRTIMER
 40
0.0022739931
  9
$USRTIMER
 70
     1
  9
$ANGBASE
 50
0.0
  9
$ANGDIR
 70
     0
  9
$PDMODE
 70
     0
  9
$PDSIZE
 40
0.0
  9
$PLINEWID
 40
0.0
  9
$COORDS
 70
     0
  9
$SPLFRAME
 70
     0
  9
$SPLINETYPE
 70
     6
  9
$SPLINESEGS
 70
     8
  9
$ATTDIA
 70
     0
  9
$ATTREQ
 70
     1
  9
$HANDLING
 70
 10241
  9
$HANDSEED
  5
1DE
  9
$SURFTAB1
 70
     6
  9
$SURFTAB2
 70
     6
  9
$SURFTYPE
 70
     6
  9
$SURFU
 70
     6
  9
$SURFV
 70
     6
  9
$UCSNAME
  2

  9
$UCSORG
 10
0.0
 20
0.0
 30
0.0
  9
$UCSXDIR
 10
1.0
 20
0.0
 30
0.0
  9
$UCSYDIR
 10
0.0
 20
1.0
 30
0.0
  9
$PUCSNAME
  2

  9
$PUCSORG
 10
0.0
 20
0.0
 30
0.0
  9
$PUCSXDIR
 10
1.0
 20
0.0
 30
0.0
  9
$PUCSYDIR
 10
0.0
 20
1.0
 30
0.0
  9
$USERI1
 70
     0
  9
$USERI2
 70
     0
  9
$USERI3
 70
     0
  9
$USERI4
 70
     0
  9
$USERI5
 70
     0
  9
$USERR1
 40
0.0
  9
$USERR2
 40
0.0
  9
$USERR3
 40
0.0
  9
$USERR4
 40
0.0
  9
$USERR5
 40
0.0
  9
$WORLDVIEW
 70
     1
  9
$SHADEDGE
 70
     3
  9
$SHADEDIF
 70
    70
  9
$TILEMODE
 70
     1
  9
$MAXACTVP
 70
    64
  9
$PINSBASE
 10
0.0
 20
0.0
 30
0.0
  9
$PLIMCHECK
 70
     0
  9
$PEXTMIN
 10
1.000000000000000E+20
 20
1.000000000000000E+20
 30
1.000000000000000E+20
  9
$PEXTMAX
 10
-1.000000000000000E+20
 20
-1.000000000000000E+20
 30
-1.000000000000000E+20
  9
$PLIMMIN
 10
0.0
 20
0.0
  9
$PLIMMAX
 10
420.0
 20
297.0
  9
$UNITMODE
 70
     0
  9
$VISRETAIN
 70
     1
  9
$PLINEGEN
 70
     0
  9
$PSLTSCALE
 70
     1
  9
$TREEDEPTH
 70
  3020
  9
$PICKSTYLE
 70
     1
  9
$CMLSTYLE
  2
STANDARD
  9
$CMLJUST
 70
     0
  9
$CMLSCALE
 40
20.0
  9
$PROXYGRAPHICS
 70
     1
  9
$MEASUREMENT
 70
     1
  0
ENDSEC
  0
SECTION
  2
CLASSES
  0
CLASS
  1
ACDBDICTIONARYWDFLT
  2
AcDbDictionaryWithDefault
  3
AutoCAD 2000
 90
        0
280
     0
281
     0
  0
CLASS
  1
ACDBPLACEHOLDER
  2
AcDbPlaceHolder
  3
AutoCAD 2000
 90
        0
280
     0
281
     0
  0
CLASS
  1
LAYOUT
  2
AcDbLayout
  3
AutoCAD 2000
 90
        0
280
     0
281
     0
  0
CLASS
  1
LONG_TRANSACTION
  2
AcDbLongTransaction
  3
AutoCAD 2000
 90
        0
280
     0
281
     0
  0
CLASS
  1
LWPOLYLINE
  2
AcDbPolyline
  3
AutoCAD 2000
 90
        0
280
     0
281
     1
  0
CLASS
  1
HATCH
  2
AcDbHatch
  3
AutoCAD 2000
 90
        0
280
     0
281
     1
  0
CLASS
  1
XRECORD
  2
AcDbXrecord
  3
AutoCAD 2000
 90
        0
280
     0
281
     0
  0
ENDSEC
  0
SECTION
  2
TABLES
  0
TABLE
  2
VPORT
  5
8
330
0
100
AcDbSymbolTable
 70
     2
  0
VPORT
  5
1B6
330
8
100
AcDbSymbolTableRecord
100
AcDbViewportTableRecord
  2
*ACTIVE
 70
     0
 10
0.0
 20
0.0
 11
1.0
 21
1.0
 12
432.7332956069751
 22
221.8442844567404
 13
0.0
 23
0.0
 14
10.0
 24
10.0
 15
10.0
 25
10.0
 16
0.0
 26
0.0
 36
1.0
 17
0.0
 27
0.0
 37
0.0
 40
443.6885689134808
 41
1.950617283950617
 42
50.0
 43
0.0
 44
0.0
 50
0.0
 51
0.0
 71
     0
 72
   100
 73
     1
 74
     3
 75
     0
 76
     0
 77
     0
 78
     0
  0
ENDTAB
  0
TABLE
  2
LTYPE
  5
5
330
0
100
AcDbSymbolTable
 70
     1
  0
LTYPE
  5
14
330
5
100
AcDbSymbolTableRecord
100
AcDbLinetypeTableRecord
  2
BYBLOCK
 70
     0
  3

 72
    65
 73
     0
 40
0.0
  0
LTYPE
  5
15
330
5
100
AcDbSymbolTableRecord
100
AcDbLinetypeTableRecord
  2
BYLAYER
 70
     0
  3

 72
    65
 73
     0
 40
0.0
  0
LTYPE
  5
16
330
5
100
AcDbSymbolTableRecord
100
AcDbLinetypeTableRecord
  2
CONTINUOUS
 70
     0
  3
Solid line
 72
    65
 73
     0
 40
0.0
  0
ENDTAB
  0
TABLE
  2
LAYER
  5
2
330
0
100
AcDbSymbolTable
 70
     2
  0
LAYER
  5
10
330
2
100
AcDbSymbolTableRecord
100
AcDbLayerTableRecord
  2
0
 70
     0
 62
     7
  6
CONTINUOUS
  0
LAYER
  5
40
330
2
100
AcDbSymbolTableRecord
100
AcDbLayerTableRecord
  2
SIXPANEL
 70
     0
 62
   250
  6
CONTINUOUS
  0
ENDTAB
  0
TABLE
  2
STYLE
  5
3
330
0
100
AcDbSymbolTable
 70
     1
  0
STYLE
  5
11
330
3
100
AcDbSymbolTableRecord
100
AcDbTextStyleTableRecord
  2
STANDARD
 70
     0
 40
0.0
 41
1.0
 50
0.0
 71
     0
 42
2.5
  3
txt
  4

  0
ENDTAB
  0
TABLE
  2
VIEW
  5
6
330
0
100
AcDbSymbolTable
 70
     0
  0
ENDTAB
  0
TABLE
  2
UCS
  5
7
330
0
100
AcDbSymbolTable
 70
     0
  0
ENDTAB
  0
TABLE
  2
APPID
  5
9
330
0
100
AcDbSymbolTable
 70
     1
  0
APPID
  5
12
330
9
100
AcDbSymbolTableRecord
100
AcDbRegAppTableRecord
  2
ACAD
 70
     0
  0
ENDTAB
  0
TABLE
  2
DIMSTYLE
  5
A
330
0
100
AcDbSymbolTable
 70
     1
  0
DIMSTYLE
105
27
330
A
100
AcDbSymbolTableRecord
100
AcDbDimStyleTableRecord
  2
ISO-25
 70
     0
  3

  4

  5

  6

  7

 40
1.0
 41
2.5
 42
0.625
 43
3.75
 44
1.25
 45
0.0
 46
0.0
 47
0.0
 48
0.0
140
2.5
141
2.5
142
0.0
143
0.03937007874016
144
1.0
145
0.0
146
1.0
147
0.625
 71
     0
 72
     0
 73
     0
 74
     0
 75
     0
 76
     0
 77
     1
 78
     8
170
     0
171
     3
172
     1
173
     0
174
     0
175
     0
176
     0
177
     0
178
     0
270
     2
271
     2
272
     2
273
     2
274
     3
340
11
275
     0
280
     0
281
     0
282
     0
283
     0
284
     8
285
     0
286
     0
287
     3
288
     0
  0
ENDTAB
  0
TABLE
  2
BLOCK_RECORD
  5
1
330
0
100
AcDbSymbolTable
 70
     1
  0
BLOCK_RECORD
  5
1F
102
{ACAD_XDICTIONARY
360
1DA
102
}
330
1
100
AcDbSymbolTableRecord
100
AcDbBlockTableRecord
  2
*MODEL_SPACE
  0
BLOCK_RECORD
  5
1B
102
{ACAD_XDICTIONARY
360
1D8
102
}
330
1
100
AcDbSymbolTableRecord
100
AcDbBlockTableRecord
  2
*PAPER_SPACE
  0
ENDTAB
  0
ENDSEC
  0
SECTION
  2
BLOCKS
  0
BLOCK
  5
20
330
1F
100
AcDbEntity
  8
0
100
AcDbBlockBegin
  2
*MODEL_SPACE
 70
     0
 10
0.0
 20
0.0
 30
0.0
  3
*MODEL_SPACE
  1

  0
ENDBLK
  5
21
330
1F
100
AcDbEntity
  8
0
100
AcDbBlockEnd
  0
BLOCK
  5
1C
330
1B
100
AcDbEntity
 67
     1
  8
0
100
AcDbBlockBegin
  2
*PAPER_SPACE
 70
     0
 10
0.0
 20
0.0
 30
0.0
  3
*PAPER_SPACE
  1

  0
ENDBLK
  5
1D
330
1B
100
AcDbEntity
 67
     1
  8
0
100
AcDbBlockEnd
  0
ENDSEC
  0
SECTION
  2
ENTITIES
  0
CIRCLE
  5
F7
330
1F
100
AcDbEntity
  8
0
 62
   250
100
AcDbCircle
 10
326.5384986908953
 20
313.1425656825328
 30
0.0
 40
39.5
  0
SPLINE
  5
F8
330
1F
100
AcDbEntity
  8
0
100
AcDbSpline
210
0.0
220
0.0
230
1.0
 70
     8
 71
     3
 72
    11
 73
     7
 74
     0
 42
0.0000000001
 43
0.0000000001
 40
0.0
 40
0.0
 40
0.0
 40
0.0
 40
15.46584296745467
 40
76.33471764194336
 40
135.5505616310652
 40
175.0439034128144
 40
175.0439034128144
 40
175.0439034128144
 40
175.0439034128144
 10
454.6407266612127
 20
388.7489385194331
 30
0.0
 10
449.487016501544
 20
388.6179538881238
 30
0.0
 10
424.0498637595577
 20
387.9714534117208
 30
0.0
 10
378.9060088507589
 20
386.2900535459753
 30
0.0
 10
325.816041319315
 20
381.6586253926938
 30
0.0
 10
293.5087254033385
 20
375.3506411307343
 30
0.0
 10
280.5852146838365
 20
372.8101395032104
 30
0.0
  0
LINE
  5
F9
330
1F
100
AcDbEntity
  8
0
100
AcDbLine
 10
282.6378160310683
 20
166.4881265374133
 30
0.0
 11
416.8983039400772
 21
166.488128440833
 31
0.0
  0
LINE
  5
FA
330
1F
100
AcDbEntity
  8
0
100
AcDbLine
 10
659.6076718409504
 20
50.56417577329995
 30
0.0
 11
139.6641562717117
 21
50.56409752298738
 31
0.0
  0
CIRCLE
  5
FB
330
1F
100
AcDbEntity
  8
0
 62
   250
100
AcDbCircle
 10
326.5389299385712
 20
215.922770244708
 30
0.0
 40
39.5
  0
LINE
  5
FC
330
1F
100
AcDbEntity
  8
0
100
AcDbLine
 10
138.1645829877446
 20
52.06409753452446
 30
0.0
 11
138.1645845538812
 21
256.827581822591
 31
0.0
  0
LINE
  5
FD
330
1F
100
AcDbEntity
  8
0
100
AcDbLine
 10
279.3743823481293
 20
370.6776218336762
 30
0.0
 11
279.3745471873384
 21
169.7942339571562
 31
0.0
  0
CIRCLE
  5
FE
330
1F
100
AcDbEntity
  8
0
 62
   250
100
AcDbCircle
 10
267.3631825424425
 20
203.9251936741312
 30
0.0
 40
1.775142781395334
  0
CIRCLE
  5
FF
330
1F
100
AcDbEntity
  8
0
 62
   250
100
AcDbCircle
 10
203.4005883728229
 20
203.924197059001
 30
0.0
 40
1.775142781395334
  0
CIRCLE
  5
100
330
1F
100
AcDbEntity
  8
0
 62
   250
100
AcDbCircle
 10
220.350794583054
 20
203.8923821533654
 30
0.0
 40
1.775142781395334
  0
CIRCLE
  5
101
330
1F
100
AcDbEntity
  8
0
 62
   250
100
AcDbCircle
 10
156.3895697586346
 20
203.9203174862096
 30
0.0
 40
1.775142781395334
  0
CIRCLE
  5
102
330
1F
100
AcDbEntity
  8
0
 62
   250
100
AcDbCircle
 10
179.7447371517998
 20
227.3772842197323
 30
0.0
 40
28.36741971928823
  0
CIRCLE
  5
103
330
1F
100
AcDbEntity
  8
0
 62
   250
100
AcDbCircle
 10
243.794331411366
 20
227.4429516723603
 30
0.0
 40
28.36741971928823
  0
CIRCLE
  5
104
330
1F
100
AcDbEntity
  8
0
 62
   250
100
AcDbCircle
 10
243.9171431177244
 20
150.4494317796216
 30
0.0
 40
28.36741971928823
  0
CIRCLE
  5
105
330
1F
100
AcDbEntity
  8
0
 62
   250
100
AcDbCircle
 10
179.8360286619889
 20
150.2687734582214
 30
0.0
 40
28.36741971928823
  0
ARC
  5
106
330
1F
100
AcDbEntity
  8
0
100
AcDbCircle
 10
139.6643693994521
 20
52.06358187530838
 30
0.0
 40
1.499484367467323
100
AcDbArc
 50
179.4816682209441
 51
270.0081609331606
  0
CIRCLE
  5
107
330
1F
100
AcDbEntity
  8
0
 62
   250
100
AcDbCircle
 10
143.162150649109
 20
55.60038035646279
 30
0.0
 40
2.0
  0
LINE
  5
108
330
1F
100
AcDbEntity
  8
0
  6
CONTINUOUS
 62
   250
100
AcDbLine
 10
158.1235059254074
 20
126.8632559955831
 30
0.0
 11
158.1235059254074
 21
126.8632559955831
 31
0.0
  0
CIRCLE
  5
109
330
1F
100
AcDbEntity
  8
0
 62
   250
100
AcDbCircle
 10
156.3700189792114
 20
126.8700213930387
 30
0.0
 40
1.775142781395334
  0
CIRCLE
  5
10A
330
1F
100
AcDbEntity
  8
0
 62
   250
100
AcDbCircle
 10
143.1774774753328
 20
166.490549515487
 30
0.0
 40
2.0
  0
CIRCLE
  5
10B
330
1F
100
AcDbEntity
  8
0
 62
   250
100
AcDbCircle
 10
156.3821531127003
 20
173.8773830120916
 30
0.0
 40
1.775142781395334
  0
LINE
  5
10C
330
1F
100
AcDbEntity
  8
0
  6
CONTINUOUS
 62
   250
100
AcDbLine
 10
158.1332087254075
 20
173.861841195583
 30
0.0
 11
158.1332087254075
 21
173.861841195583
 31
0.0
  0
LINE
  5
10D
330
1F
100
AcDbEntity
  8
0
  6
CONTINUOUS
 62
   250
100
AcDbLine
 10
158.1364091254079
 20
203.9075519955841
 30
0.0
 11
158.1364091254079
 21
203.9075519955841
 31
0.0
  0
CIRCLE
  5
10E
330
1F
100
AcDbEntity
  8
0
 62
   250
100
AcDbCircle
 10
203.3738877885887
 20
126.8528004255677
 30
0.0
 40
1.775142781395334
  0
LINE
  5
10F
330
1F
100
AcDbEntity
  8
0
  6
CONTINUOUS
 62
   250
100
AcDbLine
 10
205.119119325406
 20
126.8823567955833
 30
0.0
 11
205.119119325406
 21
126.8823567955833
 31
0.0
  0
LINE
  5
110
330
1F
100
AcDbEntity
  8
0
  6
CONTINUOUS
 62
   250
100
AcDbLine
 10
222.1237081254083
 20
126.8623415955835
 30
0.0
 11
222.1237081254083
 21
126.8623415955835
 31
0.0
  0
CIRCLE
  5
111
330
1F
100
AcDbEntity
  8
0
 62
   250
100
AcDbCircle
 10
220.3838894712978
 20
126.8669314344996
 30
0.0
 40
1.775142781395334
  0
CIRCLE
  5
112
330
1F
100
AcDbEntity
  8
0
 62
   250
100
AcDbCircle
 10
203.3913861973803
 20
173.8745557564834
 30
0.0
 40
1.775142781395334
  0
LINE
  5
113
330
1F
100
AcDbEntity
  8
0
  6
CONTINUOUS
 62
   250
100
AcDbLine
 10
205.1287967254072
 20
173.8809419955833
 30
0.0
 11
205.1287967254072
 21
173.8809419955833
 31
0.0
  0
CIRCLE
  5
114
330
1F
100
AcDbEntity
  8
0
 62
   250
100
AcDbCircle
 10
220.3817064253806
 20
173.8509207727593
 30
0.0
 40
1.775142781395334
  0
LINE
  5
115
330
1F
100
AcDbEntity
  8
0
  6
CONTINUOUS
 62
   250
100
AcDbLine
 10
222.1334109254083
 20
173.8609521955831
 30
0.0
 11
222.1334109254083
 21
173.8609521955831
 31
0.0
  0
LINE
  5
116
330
1F
100
AcDbEntity
  8
0
  6
CONTINUOUS
 62
   250
100
AcDbLine
 10
205.1319971254076
 20
203.9266527955832
 30
0.0
 11
205.1319971254076
 21
203.9266527955832
 31
0.0
  0
LINE
  5
117
330
1F
100
AcDbEntity
  8
0
  6
CONTINUOUS
 62
   250
100
AcDbLine
 10
222.1091031254079
 20
203.9081615955838
 30
0.0
 11
222.1091031254079
 21
203.9081615955838
 31
0.0
  0
CIRCLE
  5
118
330
1F
100
AcDbEntity
  8
0
 62
   250
100
AcDbCircle
 10
274.3581037938008
 20
55.57246862513246
 30
0.0
 40
2.0
  0
CIRCLE
  5
119
330
1F
100
AcDbEntity
  8
0
 62
   250
100
AcDbCircle
 10
267.3706310336135
 20
126.8898422915199
 30
0.0
 40
1.775142781395334
  0
LINE
  5
11A
330
1F
100
AcDbEntity
  8
0
  6
CONTINUOUS
 62
   250
100
AcDbLine
 10
269.1192961254082
 20
126.8814423955827
 30
0.0
 11
269.1192961254082
 21
126.8814423955827
 31
0.0
  0
CIRCLE
  5
11B
330
1F
100
AcDbEntity
  8
0
 62
   250
100
AcDbCircle
 10
267.3838984183027
 20
173.8689750128504
 30
0.0
 40
1.775142781395334
  0
LINE
  5
11C
330
1F
100
AcDbEntity
  8
0
  6
CONTINUOUS
 62
   250
100
AcDbLine
 10
269.1289989254079
 20
173.8800529955833
 30
0.0
 11
269.1289989254079
 21
173.8800529955833
 31
0.0
  0
CIRCLE
  5
11D
330
1F
100
AcDbEntity
  8
0
 62
   250
100
AcDbCircle
 10
284.3673584605398
 20
171.459746064773
 30
0.0
 40
2.0
  0
ARC
  5
11E
330
1F
100
AcDbEntity
  8
0
100
AcDbCircle
 10
282.6476131763799
 20
169.7615308938902
 30
0.0
 40
3.273419017641705
100
AcDbArc
 50
179.1588762649281
 51
269.8285169382044
  0
LINE
  5
11F
330
1F
100
AcDbEntity
  8
0
  6
CONTINUOUS
 62
   250
100
AcDbLine
 10
269.1047165254083
 20
203.927262395583
 30
0.0
 11
269.1047165254083
 21
203.927262395583
 31
0.0
  0
CIRCLE
  5
120
330
1F
100
AcDbEntity
  8
0
 62
   250
100
AcDbCircle
 10
294.0087586987388
 20
183.4049794853812
 30
0.0
 40
2.0
  0
SPLINE
  5
121
330
1F
100
AcDbEntity
  8
0
100
AcDbSpline
210
0.0
220
0.0
230
1.0
 70
     8
 71
     3
 72
    15
 73
    11
 74
     0
 42
0.0000000001
 43
0.0000000001
 40
0.0
 40
0.0
 40
0.0
 40
0.0
 40
16.98343887071055
 40
35.85374204151407
 40
73.12384967803395
 40
101.5493219643305
 40
132.5804256194738
 40
156.2790472198598
 40
175.7238521978283
 40
195.7835467346503
 40
195.7835467346503
 40
195.7835467346503
 40
195.7835467346503
 10
138.1645845538812
 20
256.827581822591
 30
0.0
 10
138.3992212738172
 20
262.4978450423341
 30
0.0
 10
138.8945629118732
 20
274.468339141663
 30
0.0
 10
146.0057704464355
 20
298.1267540184365
 30
0.0
 10
163.9992976155338
 20
320.9525329784042
 30
0.0
 10
190.0481184221796
 20
340.1277081660126
 30
0.0
 10
214.8701024434574
 20
352.7339891810628
 30
0.0
 10
238.0339112113873
 20
361.4332586480547
 30
0.0
 10
258.2104723149935
 20
367.5466508081218
 30
0.0
 10
271.0209428256478
 20
370.6027559451204
 30
0.0
 10
277.5303101882835
 20
372.1375722586563
 30
0.0
  0
CIRCLE
  5
122
330
1F
100
AcDbEntity
  8
0
 62
   250
100
AcDbCircle
 10
274.3453188838109
 20
365.0876847474048
 30
0.0
 40
2.0
  0
CIRCLE
  5
123
330
1F
100
AcDbEntity
  8
0
 62
   250
100
AcDbCircle
 10
284.3542362158964
 20
367.2724691536568
 30
0.0
 40
2.0
  0
CIRCLE
  5
124
330
1F
100
AcDbEntity
  8
0
 62
   250
100
AcDbCircle
 10
243.8844742967929
 20
301.6454079893828
 30
0.0
 40
28.36741971928823
  0
CIRCLE
  5
125
330
1F
100
AcDbEntity
  8
0
 62
   250
100
AcDbCircle
 10
156.3801172137416
 20
250.8967998435883
 30
0.0
 40
1.775142781395334
  0
LINE
  5
126
330
1F
100
AcDbEntity
  8
0
  6
CONTINUOUS
 62
   250
100
AcDbLine
 10
158.1461119254079
 20
250.9061625955836
 30
0.0
 11
158.1461119254079
 21
250.9061625955836
 31
0.0
  0
CIRCLE
  5
127
330
1F
100
AcDbEntity
  8
0
 62
   250
100
AcDbCircle
 10
203.3889319178913
 20
250.9100478996908
 30
0.0
 40
1.775142781395334
  0
LINE
  5
128
330
1F
100
AcDbEntity
  8
0
  6
CONTINUOUS
 62
   250
100
AcDbLine
 10
205.1416999254076
 20
250.9252633955839
 30
0.0
 11
205.1416999254076
 21
250.9252633955839
 31
0.0
  0
CIRCLE
  5
129
330
1F
100
AcDbEntity
  8
0
 62
   250
100
AcDbCircle
 10
220.3676857361157
 20
250.901186003981
 30
0.0
 40
1.775142781395334
  0
LINE
  5
12A
330
1F
100
AcDbEntity
  8
0
  6
CONTINUOUS
 62
   250
100
AcDbLine
 10
222.1188059254079
 20
250.9067467955838
 30
0.0
 11
222.1188059254079
 21
250.9067467955838
 31
0.0
  0
CIRCLE
  5
12B
330
1F
100
AcDbEntity
  8
0
 62
   250
100
AcDbCircle
 10
220.3785087243202
 20
278.2084601224515
 30
0.0
 40
1.775142781395334
  0
CIRCLE
  5
12C
330
1F
100
AcDbEntity
  8
0
 62
   250
100
AcDbCircle
 10
157.6309761691453
 20
298.8831867867148
 30
0.0
 40
2.0
  0
CIRCLE
  5
12D
330
1F
100
AcDbEntity
  8
0
 62
   250
100
AcDbCircle
 10
220.3812342373791
 20
325.2292835730578
 30
0.0
 40
1.775142781395334
  0
CIRCLE
  5
12E
330
1F
100
AcDbEntity
  8
0
 62
   250
100
AcDbCircle
 10
284.3631719200672
 20
264.5691247097631
 30
0.0
 40
2.0
  0
LINE
  5
12F
330
1F
100
AcDbEntity
  8
0
  6
CONTINUOUS
 62
   250
100
AcDbLine
 10
269.1144193254083
 20
250.925847595584
 30
0.0
 11
269.1144193254083
 21
250.925847595584
 31
0.0
  0
CIRCLE
  5
130
330
1F
100
AcDbEntity
  8
0
 62
   250
100
AcDbCircle
 10
267.3591876123381
 20
250.9170129146397
 30
0.0
 40
1.775142781395334
  0
CIRCLE
  5
131
330
1F
100
AcDbEntity
  8
0
 62
   250
100
AcDbCircle
 10
267.3892736747211
 20
278.266223905247
 30
0.0
 40
1.775142781395334
  0
CIRCLE
  5
132
330
1F
100
AcDbEntity
  8
0
 62
   250
100
AcDbCircle
 10
294.0091820214125
 20
248.4404907512345
 30
0.0
 40
2.0
  0
CIRCLE
  5
133
330
1F
100
AcDbEntity
  8
0
 62
   250
100
AcDbCircle
 10
294.0083274510631
 20
280.6247749232058
 30
0.0
 40
2.0
  0
CIRCLE
  5
134
330
1F
100
AcDbEntity
  8
0
 62
   250
100
AcDbCircle
 10
267.38832161194
 20
325.2521281897981
 30
0.0
 40
1.775142781395334
  0
CIRCLE
  5
135
330
1F
100
AcDbEntity
  8
0
 62
   250
100
AcDbCircle
 10
294.0087507737369
 20
345.6602861890583
 30
0.0
 40
2.0
  0
ARC
  5
136
330
1F
100
AcDbEntity
  8
0
100
AcDbCircle
 10
277.8743823481292
 20
370.6776218518273
 30
0.0
 40
1.5
100
AcDbArc
 50
359.9999993066736
 51
103.2672098241119
  0
ARC
  5
137
330
1F
100
AcDbEntity
  8
0
100
AcDbCircle
 10
281.4290228627407
 20
370.9210186936904
 30
0.0
 40
2.069006929845067
100
AcDbArc
 50
114.0687456532216
 51
186.7558886628114
  0
LINE
  5
138
330
1F
100
AcDbEntity
  8
0
100
AcDbLine
 10
659.6076718409504
 20
50.56417577329995
 30
0.0
 11
659.607670675191
 21
387.248956181102
 31
0.0
  0
LINE
  5
139
330
1F
100
AcDbEntity
  8
0
100
AcDbLine
 10
556.4474165925056
 20
387.2489382355738
 30
0.0
 11
556.4474190304357
 21
169.9366813864405
 31
0.0
  0
CIRCLE
  5
13A
330
1F
100
AcDbEntity
  8
0
 62
   250
100
AcDbCircle
 10
510.2920392769951
 20
215.9224453348191
 30
0.0
 40
39.5
  0
ARC
  5
13B
330
1F
100
AcDbEntity
  8
0
 62
   250
100
AcDbCircle
 10
602.1668508275336
 20
215.9227702447086
 30
0.0
 40
39.50000000000065
100
AcDbArc
 50
232.8154664980032
 51
217.2054158195272
  0
ARC
  5
13C
330
1F
100
AcDbEntity
  8
0
 62
   250
100
AcDbCircle
 10
418.2885724548352
 20
215.9243295585024
 30
0.0
 40
39.50073232596931
100
AcDbArc
 50
322.7922810838965
 51
217.2114012254801
  0
ARC
  5
13D
330
1F
100
AcDbEntity
  8
0
 62
   250
100
AcDbCircle
 10
602.1661136128849
 20
115.830846914722
 30
0.0
 40
39.50000000000065
100
AcDbArc
 50
232.8154664980032
 51
217.2054158195272
  0
LINE
  5
13E
330
1F
100
AcDbEntity
  8
0
100
AcDbLine
 10
419.8983032594933
 20
166.4881564676716
 30
0.0
 11
553.0358675105584
 21
166.4881865383605
 31
0.0
  0
CIRCLE
  5
13F
330
1F
100
AcDbEntity
  8
0
 62
   250
100
AcDbCircle
 10
464.4455959193833
 20
171.4596404361221
 30
0.0
 40
2.0
  0
ARC
  5
140
330
1F
100
AcDbEntity
  8
0
100
AcDbCircle
 10
418.3936792524064
 20
134.3502998440708
 30
0.0
 40
14.99827295797793
100
AcDbArc
 50
89.98234143555952
 51
270.0176679420049
  0
ARC
  5
141
330
1F
100
AcDbEntity
  8
0
100
AcDbCircle
 10
418.5755910354396
 20
134.3503279020241
 30
0.0
 40
14.99932004029444
100
AcDbArc
 50
269.3227647876244
 51
90.67724458994986
  0
CIRCLE
  5
142
330
1F
100
AcDbEntity
  8
0
 62
   250
100
AcDbCircle
 10
403.3954062944284
 20
119.3520275991722
 30
0.0
 40
2.0
  0
LINE
  5
143
330
1F
100
AcDbEntity
  8
0
100
AcDbLine
 10
418.398305838065
 20
50.56413947184089
 30
0.0
 11
418.3983041761764
 21
119.3520275991722
 31
0.0
  0
CIRCLE
  5
144
330
1F
100
AcDbEntity
  8
0
 62
   250
100
AcDbCircle
 10
423.3955813217974
 20
55.56526484614817
 30
0.0
 40
2.0
  0
CIRCLE
  5
145
330
1F
100
AcDbEntity
  8
0
 62
   250
100
AcDbCircle
 10
412.6816617132998
 20
55.56614091895976
 30
0.0
 40
2.0
  0
CIRCLE
  5
146
330
1F
100
AcDbEntity
  8
0
 62
   250
100
AcDbCircle
 10
433.574911075734
 20
119.3520275991722
 30
0.0
 40
2.0
  0
ARC
  5
147
330
1F
100
AcDbEntity
  8
0
 62
   250
100
AcDbCircle
 10
418.2881061659227
 20
215.9236384974398
 30
0.0
 40
39.50086561544236
100
AcDbArc
 50
232.8171729791336
 51
307.1920251830891
  0
CIRCLE
  5
148
330
1F
100
AcDbEntity
  8
0
 62
   250
100
AcDbCircle
 10
403.3954062944284
 20
149.348572089726
 30
0.0
 40
2.0
  0
CIRCLE
  5
149
330
1F
100
AcDbEntity
  8
0
 62
   250
100
AcDbCircle
 10
359.0687519518028
 20
183.4053043952692
 30
0.0
 40
2.0
  0
CIRCLE
  5
14A
330
1F
100
AcDbEntity
  8
0
 62
   250
100
AcDbCircle
 10
372.3970803676688
 20
171.4603007478855
 30
0.0
 40
2.0
  0
ARC
  5
14B
330
1F
100
AcDbEntity
  8
0
 62
   250
100
AcDbCircle
 10
393.8109889381282
 20
183.6561494749432
 30
0.0
 40
1.0
100
AcDbArc
 50
52.81717297913367
 51
135.0104879348172
  0
ARC
  5
14C
330
1F
100
AcDbEntity
  8
0
 62
   250
100
AcDbCircle
 10
385.7707837390236
 20
183.3925990048932
 30
0.0
 40
4.5
100
AcDbArc
 50
135.0109050191757
 51
315.0109050191757
  0
LINE
  5
14D
330
1F
100
AcDbEntity
  8
0
 62
   250
100
AcDbLine
 10
388.953323499817
 20
180.2111778333145
 30
0.0
 11
393.1041686244143
 21
184.3635428521941
 31
0.0
  0
CIRCLE
  5
14E
330
1F
100
AcDbEntity
  8
0
 62
   250
100
AcDbCircle
 10
380.8761284485309
 20
194.713749140867
 30
0.0
 40
2.0
  0
LINE
  5
14F
330
1F
100
AcDbEntity
  8
0
 62
   250
100
AcDbLine
 10
382.5881976588293
 20
186.5739738401103
 30
0.0
 11
386.739039594505
 21
190.7263356689006
 31
0.0
  0
ARC
  5
150
330
1F
100
AcDbEntity
  8
0
 62
   250
100
AcDbCircle
 10
386.0318033899803
 20
191.4333130030566
 30
0.0
 40
1.0
100
AcDbArc
 50
315.0104879348242
 51
37.20511280179789
  0
LINE
  5
151
330
1F
100
AcDbEntity
  8
0
100
AcDbLine
 10
418.3983032220004
 20
164.9881566825045
 30
0.0
 11
418.3983017214186
 21
149.348572089726
 31
0.0
  0
CIRCLE
  5
152
330
1F
100
AcDbEntity
  8
0
 62
   250
100
AcDbCircle
 10
433.574911075734
 20
149.348572089726
 30
0.0
 40
2.0
  0
ARC
  5
153
330
1F
100
AcDbEntity
  8
0
100
AcDbCircle
 10
416.8983039613427
 20
164.9881284408331
 30
0.0
 40
1.5
100
AcDbArc
 50
359.9999917939938
 51
90.00000081228739
  0
ARC
  5
154
330
1F
100
AcDbEntity
  8
0
100
AcDbCircle
 10
419.8983032220006
 20
164.9881564676716
 30
0.0
 40
1.500000000000055
100
AcDbArc
 50
89.9999985678812
 51
179.9999917939905
  0
ARC
  5
155
330
1F
100
AcDbEntity
  8
0
 62
   250
100
AcDbCircle
 10
442.7657443656551
 20
183.6565655180386
 30
0.0
 40
1.0
100
AcDbArc
 50
44.98951206518269
 51
127.183394147906
  0
ARC
  5
156
330
1F
100
AcDbEntity
  8
0
 62
   250
100
AcDbCircle
 10
450.8063654555703
 20
183.3925990048932
 30
0.0
 40
4.5
100
AcDbArc
 50
224.9890949808242
 51
44.98909498082426
  0
LINE
  5
157
330
1F
100
AcDbEntity
  8
0
 62
   250
100
AcDbLine
 10
447.623825694777
 20
180.2111778333145
 30
0.0
 11
443.4729805701793
 21
184.3635428521941
 31
0.0
  0
LINE
  5
158
330
1F
100
AcDbEntity
  8
0
 62
   250
100
AcDbLine
 10
453.9889515357648
 20
186.5739738401103
 30
0.0
 11
449.838109600089
 21
190.7263356689006
 31
0.0
  0
ARC
  5
159
330
1F
100
AcDbEntity
  8
0
 62
   250
100
AcDbCircle
 10
450.5453458046137
 20
191.4333130030566
 30
0.0
 40
1.0
100
AcDbArc
 50
142.7948871982021
 51
224.9895120651757
  0
CIRCLE
  5
15A
330
1F
100
AcDbEntity
  8
0
 62
   250
100
AcDbCircle
 10
510.2920392769951
 20
115.830846914722
 30
0.0
 40
39.5
  0
CIRCLE
  5
15B
330
1F
100
AcDbEntity
  8
0
 62
   250
100
AcDbCircle
 10
477.7618680371628
 20
83.31305615539497
 30
0.0
 40
2.0
  0
CIRCLE
  5
15C
330
1F
100
AcDbEntity
  8
0
 62
   250
100
AcDbCircle
 10
542.8218612902286
 20
83.31338106528304
 30
0.0
 40
2.0
  0
ARC
  5
15D
330
1F
100
AcDbEntity
  8
0
 62
   250
100
AcDbCircle
 10
569.6483227546101
 20
83.30119551386227
 30
0.0
 40
4.5
100
AcDbArc
 50
135.0109050191757
 51
315.0109050191757
  0
LINE
  5
15E
330
1F
100
AcDbEntity
  8
0
 62
   250
100
AcDbLine
 10
572.8308625154034
 20
80.11977434228359
 30
0.0
 11
576.9817076400007
 21
84.27213936116336
 31
0.0
  0
LINE
  5
15F
330
1F
100
AcDbEntity
  8
0
 62
   250
100
AcDbLine
 10
566.4657366744157
 20
86.48257034907938
 30
0.0
 11
570.6165786100914
 21
90.63493217786975
 31
0.0
  0
ARC
  5
160
330
1F
100
AcDbEntity
  8
0
 62
   250
100
AcDbCircle
 10
569.9089666137697
 20
91.34153358262636
 30
0.0
 40
1.0
100
AcDbArc
 50
315.0104879348127
 51
37.20541581952462
  0
ARC
  5
161
330
1F
100
AcDbEntity
  8
0
 62
   250
100
AcDbCircle
 10
577.6885585144619
 20
83.56477655584967
 30
0.0
 40
1.0
100
AcDbArc
 50
52.81546649800318
 51
135.0104879348126
  0
CIRCLE
  5
162
330
1F
100
AcDbEntity
  8
0
 62
   250
100
AcDbCircle
 10
477.7622913598366
 20
148.3485674212485
 30
0.0
 40
2.0
  0
CIRCLE
  5
163
330
1F
100
AcDbEntity
  8
0
 62
   250
100
AcDbCircle
 10
477.7618680371628
 20
183.4046545754919
 30
0.0
 40
2.0
  0
CIRCLE
  5
164
330
1F
100
AcDbEntity
  8
0
 62
   250
100
AcDbCircle
 10
542.8222082760253
 20
148.348640609141
 30
0.0
 40
2.0
  0
CIRCLE
  5
165
330
1F
100
AcDbEntity
  8
0
 62
   250
100
AcDbCircle
 10
569.6363656957246
 20
148.3485674212477
 30
0.0
 40
2.0
  0
CIRCLE
  5
166
330
1F
100
AcDbEntity
  8
0
 62
   250
100
AcDbCircle
 10
551.4574680975251
 20
171.4874266099189
 30
0.0
 40
2.0
  0
CIRCLE
  5
167
330
1F
100
AcDbEntity
  8
0
 62
   250
100
AcDbCircle
 10
542.8218612902286
 20
183.4049794853801
 30
0.0
 40
2.0
  0
ARC
  5
168
330
1F
100
AcDbEntity
  8
0
 62
   250
100
AcDbCircle
 10
577.6892957291103
 20
183.6566998858364
 30
0.0
 40
1.0
100
AcDbArc
 50
52.81546649800318
 51
135.0104879348126
  0
ARC
  5
169
330
1F
100
AcDbEntity
  8
0
 62
   250
100
AcDbCircle
 10
569.6490599692586
 20
183.3931188438491
 30
0.0
 40
4.5
100
AcDbArc
 50
135.0109050191757
 51
315.0109050191757
  0
ARC
  5
16A
330
1F
100
AcDbEntity
  8
0
100
AcDbCircle
 10
552.9222123757839
 20
170.0123735034515
 30
0.0
 40
3.526019179553205
100
AcDbArc
 50
271.847150391197
 51
358.7699522380498
  0
LINE
  5
16B
330
1F
100
AcDbEntity
  8
0
 62
   250
100
AcDbLine
 10
572.831599730052
 20
180.2116976722702
 30
0.0
 11
576.9824448546495
 21
184.36406269115
 31
0.0
  0
LINE
  5
16C
330
1F
100
AcDbEntity
  8
0
 62
   250
100
AcDbLine
 10
566.4664738890642
 20
186.5744936790662
 30
0.0
 11
570.6173158247401
 21
190.7268555078566
 31
0.0
  0
ARC
  5
16D
330
1F
100
AcDbEntity
  8
0
 62
   250
100
AcDbCircle
 10
569.9097038284186
 20
191.4334569126132
 30
0.0
 40
1.0
100
AcDbArc
 50
315.010487934815
 51
37.20541581952462
  0
CIRCLE
  5
16E
330
1F
100
AcDbEntity
  8
0
 62
   250
100
AcDbCircle
 10
634.6959356261167
 20
83.31338106528338
 30
0.0
 40
2.0
  0
CIRCLE
  5
16F
330
1F
100
AcDbEntity
  8
0
 62
   250
100
AcDbCircle
 10
653.5280537042868
 20
55.57286491234187
 30
0.0
 40
2.0
  0
CIRCLE
  5
170
330
1F
100
AcDbEntity
  8
0
 62
   250
100
AcDbCircle
 10
634.6962826119132
 20
148.3486406091413
 30
0.0
 40
2.0
  0
CIRCLE
  5
171
330
1F
100
AcDbEntity
  8
0
 62
   250
100
AcDbCircle
 10
634.6966728407652
 20
183.40530439527
 30
0.0
 40
2.0
  0
CIRCLE
  5
172
330
1F
100
AcDbEntity
  8
0
 62
   250
100
AcDbCircle
 10
653.5276941692298
 20
166.4905789858246
 30
0.0
 40
2.0
  0
LINE
  5
173
330
1F
100
AcDbEntity
  8
0
100
AcDbLine
 10
557.9466186635275
 20
388.7489517832218
 30
0.0
 11
658.1076706094172
 21
388.748956175187
 31
0.0
  0
ARC
  5
174
330
1F
100
AcDbEntity
  8
0
 62
   250
100
AcDbCircle
 10
602.1668508275336
 20
313.1426388704265
 30
0.0
 40
39.50000000000065
100
AcDbArc
 50
232.8154664980051
 51
217.2054158195272
  0
CIRCLE
  5
175
330
1F
100
AcDbEntity
  8
0
100
AcDbCircle
 10
546.5636316870731
 20
367.6511584702485
 30
0.0
 40
3.5
  0
LINE
  5
176
330
1F
100
AcDbEntity
  8
0
 62
   250
100
AcDbLine
 10
445.5636316870731
 20
376.3761584702487
 30
0.0
 11
445.5636316870731
 21
358.9261584702484
 31
0.0
  0
LINE
  5
177
330
1F
100
AcDbEntity
  8
0
 62
   250
100
AcDbLine
 10
521.313631687073
 20
376.3761584702487
 30
0.0
 11
521.313631687073
 21
358.9261584702484
 31
0.0
  0
LINE
  5
178
330
1F
100
AcDbEntity
  8
0
 62
   250
100
AcDbLine
 10
448.0886316870729
 20
356.4011584702484
 30
0.0
 11
518.788631687073
 21
356.4011584702484
 31
0.0
  0
CIRCLE
  5
179
330
1F
100
AcDbEntity
  8
0
 62
   250
100
AcDbCircle
 10
418.2855211245964
 20
313.1426388704268
 30
0.0
 40
39.5
  0
CIRCLE
  5
17A
330
1F
100
AcDbEntity
  8
0
 62
   250
100
AcDbCircle
 10
359.0690989376011
 20
248.4405639391273
 30
0.0
 40
2.0
  0
CIRCLE
  5
17B
330
1F
100
AcDbEntity
  8
0
 62
   250
100
AcDbCircle
 10
359.0683207041288
 20
280.625099833094
 30
0.0
 40
2.0
  0
CIRCLE
  5
17C
330
1F
100
AcDbEntity
  8
0
 62
   250
100
AcDbCircle
 10
385.7588267790903
 20
248.4404907512345
 30
0.0
 40
2.0
  0
CIRCLE
  5
17D
330
1F
100
AcDbEntity
  8
0
 62
   250
100
AcDbCircle
 10
385.7553498847642
 20
280.6248481110998
 30
0.0
 40
2.0
  0
CIRCLE
  5
17E
330
1F
100
AcDbEntity
  8
0
 62
   250
100
AcDbCircle
 10
450.8187436952791
 20
248.4405639391273
 30
0.0
 40
2.0
  0
CIRCLE
  5
17F
330
1F
100
AcDbEntity
  8
0
 62
   250
100
AcDbCircle
 10
450.8153431378302
 20
280.6251730209877
 30
0.0
 40
2.0
  0
CIRCLE
  5
180
330
1F
100
AcDbEntity
  8
0
 62
   250
100
AcDbCircle
 10
359.0686676899255
 20
345.660359376952
 30
0.0
 40
2.0
  0
CIRCLE
  5
181
330
1F
100
AcDbEntity
  8
0
 62
   250
100
AcDbCircle
 10
385.7557732074378
 20
345.6603593769524
 30
0.0
 40
2.0
  0
CIRCLE
  5
182
330
1F
100
AcDbEntity
  8
0
 62
   250
100
AcDbCircle
 10
450.8156901236267
 20
345.6604325648459
 30
0.0
 40
2.0
  0
ARC
  5
183
330
1F
100
AcDbEntity
  8
0
 62
   250
100
AcDbCircle
 10
448.0886316870731
 20
358.9261584702484
 30
0.0
 40
2.524999999999999
100
AcDbArc
 50
180.0
 51
270.0
  0
LINE
  5
184
330
1F
100
AcDbEntity
  8
0
100
AcDbLine
 10
474.5913153527293
 20
283.7972951365463
 30
0.0
 11
478.7421572884049
 21
287.9496569653364
 31
0.0
  0
ARC
  5
185
330
1F
100
AcDbEntity
  8
0
100
AcDbCircle
 10
510.2916922911986
 20
313.1455717021888
 30
0.0
 40
39.50000000000065
100
AcDbArc
 50
232.8154664980032
 51
217.2054158195251
  0
LINE
  5
186
330
1F
100
AcDbEntity
  8
0
 62
   250
100
AcDbLine
 10
566.4664738890642
 20
283.794362304784
 30
0.0
 11
570.6173158247401
 21
287.9467241335743
 31
0.0
  0
CIRCLE
  5
187
330
1F
100
AcDbEntity
  8
0
 62
   250
100
AcDbCircle
 10
477.7622913598366
 20
248.4401658413454
 30
0.0
 40
2.0
  0
ARC
  5
188
330
1F
100
AcDbEntity
  8
0
100
AcDbCircle
 10
477.7739014329236
 20
280.6159203013292
 30
0.0
 40
4.5
100
AcDbArc
 50
135.0109050191757
 51
315.0109050191757
  0
ARC
  5
189
330
1F
100
AcDbEntity
  8
0
100
AcDbCircle
 10
485.8141371927753
 20
280.8795013433165
 30
0.0
 40
1.0
100
AcDbArc
 50
52.81546649800318
 51
135.0104879348106
  0
LINE
  5
18A
330
1F
100
AcDbEntity
  8
0
100
AcDbLine
 10
480.9564411937167
 20
277.4344991297503
 30
0.0
 11
485.1072863183143
 21
281.5868641486301
 31
0.0
  0
CIRCLE
  5
18B
330
1F
100
AcDbEntity
  8
0
 62
   250
100
AcDbCircle
 10
551.4469328802183
 20
264.5749873652532
 30
0.0
 40
2.0
  0
CIRCLE
  5
18C
330
1F
100
AcDbEntity
  8
0
 62
   250
100
AcDbCircle
 10
542.8222082760253
 20
248.4402390292383
 30
0.0
 40
2.0
  0
CIRCLE
  5
18D
330
1F
100
AcDbEntity
  8
0
100
AcDbCircle
 10
542.8215143044304
 20
280.6281058527503
 30
0.0
 40
2.0
  0
CIRCLE
  5
18E
330
1F
100
AcDbEntity
  8
0
 62
   250
100
AcDbCircle
 10
569.6371029103731
 20
248.4404907512345
 30
0.0
 40
2.0
  0
ARC
  5
18F
330
1F
100
AcDbEntity
  8
0
 62
   250
100
AcDbCircle
 10
569.6490599692586
 20
280.6129874695668
 30
0.0
 40
4.5
100
AcDbArc
 50
135.0109050191757
 51
315.0109050191757
  0
LINE
  5
190
330
1F
100
AcDbEntity
  8
0
 62
   250
100
AcDbLine
 10
572.831599730052
 20
277.4315662979879
 30
0.0
 11
576.9824448546495
 21
281.5839313168678
 31
0.0
  0
ARC
  5
191
330
1F
100
AcDbEntity
  8
0
 62
   250
100
AcDbCircle
 10
577.6892957291103
 20
280.8765685115541
 30
0.0
 40
1.0
100
AcDbArc
 50
52.81546649800318
 51
135.0104879348126
  0
ARC
  5
192
330
1F
100
AcDbEntity
  8
0
100
AcDbCircle
 10
478.0345452920833
 20
288.6562583700933
 30
0.0
 40
1.0
100
AcDbArc
 50
315.010487934813
 51
37.20541581952431
  0
CIRCLE
  5
193
330
1F
100
AcDbEntity
  8
0
100
AcDbCircle
 10
477.7619443740383
 20
345.6632922087146
 30
0.0
 40
2.0
  0
ARC
  5
194
330
1F
100
AcDbEntity
  8
0
 62
   250
100
AcDbCircle
 10
518.7886316870732
 20
358.9261584702484
 30
0.0
 40
2.524999999999999
100
AcDbArc
 50
270.0
 51
0.0
  0
ARC
  5
195
330
1F
100
AcDbEntity
  8
0
 62
   250
100
AcDbCircle
 10
569.9097038284186
 20
288.653325538331
 30
0.0
 40
1.0
100
AcDbArc
 50
315.010487934815
 51
37.20541581952462
  0
CIRCLE
  5
196
330
1F
100
AcDbEntity
  8
0
100
AcDbCircle
 10
542.8218612902268
 20
345.6633653966083
 30
0.0
 40
2.0
  0
CIRCLE
  5
197
330
1F
100
AcDbEntity
  8
0
 62
   250
100
AcDbCircle
 10
569.6371029103731
 20
345.6603593769524
 30
0.0
 40
2.0
  0
LINE
  5
198
330
1F
100
AcDbEntity
  8
0
100
AcDbLine
 10
454.6407266612127
 20
388.7489385194331
 30
0.0
 11
554.9474165970023
 21
388.7489382187458
 31
0.0
  0
LINE
  5
199
330
1F
100
AcDbEntity
  8
0
 62
   250
100
AcDbLine
 10
448.0886316870729
 20
378.9011584702485
 30
0.0
 11
518.788631687073
 21
378.9011584702485
 31
0.0
  0
CIRCLE
  5
19A
330
1F
100
AcDbEntity
  8
0
 62
   250
100
AcDbCircle
 10
418.3992568062198
 20
382.3202704100621
 30
0.0
 40
2.0
  0
ARC
  5
19B
330
1F
100
AcDbEntity
  8
0
 62
   250
100
AcDbCircle
 10
448.0886316870729
 20
376.3761584702487
 30
0.0
 40
2.524999999999863
100
AcDbArc
 50
89.99999999999836
 51
180.0
  0
CIRCLE
  5
19C
330
1F
100
AcDbEntity
  8
0
 62
   250
100
AcDbCircle
 10
440.4386316870732
 20
367.6511584702485
 30
0.0
 40
1.0
  0
ARC
  5
19D
330
1F
100
AcDbEntity
  8
0
 62
   250
100
AcDbCircle
 10
518.7886316870732
 20
376.3761584702487
 30
0.0
 40
2.524999999999863
100
AcDbArc
 50
359.9999999999983
 51
90.00000000000488
  0
CIRCLE
  5
19E
330
1F
100
AcDbEntity
  8
0
 62
   250
100
AcDbCircle
 10
551.4315510471582
 20
382.3093492568969
 30
0.0
 40
2.0
  0
CIRCLE
  5
19F
330
1F
100
AcDbEntity
  8
0
 62
   250
100
AcDbCircle
 10
526.4386316870731
 20
367.6511584702485
 30
0.0
 40
1.0
  0
CIRCLE
  5
1A0
330
1F
100
AcDbEntity
  8
0
 62
   250
100
AcDbCircle
 10
561.4336829803063
 20
382.3208595832227
 30
0.0
 40
2.0
  0
ARC
  5
1A1
330
1F
100
AcDbEntity
  8
0
100
AcDbCircle
 10
557.947418662095
 20
387.2489519965543
 30
0.0
 40
1.5
100
AcDbArc
 50
90.00000251236341
 51
180.0000257034576
  0
ARC
  5
1A2
330
1F
100
AcDbEntity
  8
0
100
AcDbCircle
 10
554.9474165925057
 20
387.248938218746
 30
0.0
 40
1.5
100
AcDbArc
 50
0.0000006427761576
 51
89.99999982824474
  0
CIRCLE
  5
1A3
330
1F
100
AcDbEntity
  8
0
 62
   250
100
AcDbCircle
 10
634.6970198265619
 20
248.4405639391283
 30
0.0
 40
2.0
  0
CIRCLE
  5
1A4
330
1F
100
AcDbEntity
  8
0
 62
   250
100
AcDbCircle
 10
634.6966728407652
 20
280.6251730209877
 30
0.0
 40
2.0
  0
CIRCLE
  5
1A5
330
1F
100
AcDbEntity
  8
0
 62
   250
100
AcDbCircle
 10
653.5276941692298
 20
265.6452606282325
 30
0.0
 40
2.0
  0
CIRCLE
  5
1A6
330
1F
100
AcDbEntity
  8
0
 62
   250
100
AcDbCircle
 10
634.6970198265619
 20
345.6604325648459
 30
0.0
 40
2.0
  0
CIRCLE
  5
1A7
330
1F
100
AcDbEntity
  8
0
 62
   250
100
AcDbCircle
 10
653.5212141349743
 20
382.3285947763876
 30
0.0
 40
2.0
  0
ARC
  5
1A8
330
1F
100
AcDbEntity
  8
0
100
AcDbCircle
 10
658.1076706751908
 20
387.2489561751871
 30
0.0
 40
1.5
100
AcDbArc
 50
0.000000225933577
 51
90.00000251236341
  0
ENDSEC
  0
SECTION
  2
OBJECTS
  0
DICTIONARY
  5
C
330
0
100
AcDbDictionary
  3
ACAD_GROUP
350
D
  3
ACAD_LAYOUT
350
1A
  3
ACAD_MLINESTYLE
350
17
  3
ACAD_PLOTSETTINGS
350
19
  3
ACAD_PLOTSTYLENAME
350
E
  3
ACDBHEADERROUNDTRIPXREC
350
1B7
  0
DICTIONARY
  5
1DA
330
1F
100
AcDbDictionary
280
     1
  3
ACAD_LAYOUTSELFREF
360
1DB
  0
DICTIONARY
  5
1D8
330
1B
100
AcDbDictionary
280
     1
  3
ACAD_LAYOUTSELFREF
360
1D9
  0
DICTIONARY
  5
D
102
{ACAD_REACTORS
330
C
102
}
330
C
100
AcDbDictionary
  0
DICTIONARY
  5
1A
102
{ACAD_REACTORS
330
C
102
}
330
C
100
AcDbDictionary
  0
DICTIONARY
  5
17
102
{ACAD_REACTORS
330
C
102
}
330
C
100
AcDbDictionary
  3
STANDARD
350
18
  0
DICTIONARY
  5
19
102
{ACAD_REACTORS
330
C
102
}
330
C
100
AcDbDictionary
  0
ACDBDICTIONARYWDFLT
  5
E
102
{ACAD_REACTORS
330
C
102
}
330
C
100
AcDbDictionary
281
     1
  3
Normal
350
F
100
AcDbDictionaryWithDefault
340
F
  0
DICTIONARY
  5
1B7
102
{ACAD_REACTORS
330
C
102
}
330
C
100
AcDbDictionary
  3
TSTACKALIGN
350
1B8
  3
TSTACKSIZE
350
1B9
  3
HYPERLINKBASE
350
1BA
  3
STYLESHEET
350
1BB
  3
LAYOUTDICT
350
1BC
  3
PLOTSETDICT
350
1BD
  3
PLOTSTYLNAMDICT
350
1BE
  3
LWETCUNION
350
1BF
  3
INSUNITS
350
1C0
  3
CEPSNTYPE
350
1C1
  3
FINGERPRINTGUID
350
1C2
  3
VERSIONGUID
350
1C3
  3
PSVPSCALE
350
1C4
  3
DIMSTYLEDATA
350
1C5
  3
PUCSORTHOREF
350
1C6
  3
PUCSORTHOVIEW
350
1C7
  3
PUCSBASE
350
1C8
  3
PUCSORGTOP
350
1C9
  3
PUCSORGBOTTOM
350
1CA
  3
PUCSORGLEFT
350
1CB
  3
PUCSORGRIGHT
350
1CC
  3
PUCSORGFRONT
350
1CD
  3
PUCSORGBACK
350
1CE
  3
UCSORTHOREF
350
1CF
  3
UCSORTHOVIEW
350
1D0
  3
UCSBASE
350
1D1
  3
UCSORGTOP
350
1D2
  3
UCSORGBOTTOM
350
1D3
  3
UCSORGLEFT
350
1D4
  3
UCSORGRIGHT
350
1D5
  3
UCSORGFRONT
350
1D6
  3
UCSORGBACK
350
1D7
  0
XRECORD
  5
1DB
102
{ACAD_REACTORS
330
1DA
102
}
330
1DA
100
AcDbXrecord
340
1F
  0
XRECORD
  5
1D9
102
{ACAD_REACTORS
330
1D8
102
}
330
1D8
100
AcDbXrecord
340
1B
  0
MLINESTYLE
  5
18
102
{ACAD_REACTORS
330
17
102
}
330
17
100
AcDbMlineStyle
  2
STANDARD
 70
     0
  3

 62
   256
 51
90.0
 52
90.0
 71
     2
 49
0.5
 62
   256
  6
BYLAYER
 49
-0.5
 62
   256
  6
BYLAYER
  0
ACDBPLACEHOLDER
  5
F
102
{ACAD_REACTORS
330
E
102
}
330
E
100
AcDbPlaceHolder
280
     0
  0
XRECORD
  5
1B8
102
{ACAD_REACTORS
330
1B7
102
}
330
1B7
100
AcDbXrecord
 90
        1
  0
XRECORD
  5
1B9
102
{ACAD_REACTORS
330
1B7
102
}
330
1B7
100
AcDbXrecord
 90
       70
  0
XRECORD
  5
1BA
102
{ACAD_REACTORS
330
1B7
102
}
330
1B7
100
AcDbXrecord
  1

  0
XRECORD
  5
1BB
102
{ACAD_REACTORS
330
1B7
102
}
330
1B7
100
AcDbXrecord
  1

  0
XRECORD
  5
1BC
102
{ACAD_REACTORS
330
1B7
102
}
330
1B7
100
AcDbXrecord
340
1A
  0
XRECORD
  5
1BD
102
{ACAD_REACTORS
330
1B7
102
}
330
1B7
100
AcDbXrecord
340
19
  0
XRECORD
  5
1BE
102
{ACAD_REACTORS
330
1B7
102
}
330
1B7
100
AcDbXrecord
340
E
  0
XRECORD
  5
1BF
102
{ACAD_REACTORS
330
1B7
102
}
330
1B7
100
AcDbXrecord
 90
    10781
  0
XRECORD
  5
1C0
102
{ACAD_REACTORS
330
1B7
102
}
330
1B7
100
AcDbXrecord
 90
        4
  0
XRECORD
  5
1C1
102
{ACAD_REACTORS
330
1B7
102
}
330
1B7
100
AcDbXrecord
 90
        0
  0
XRECORD
  5
1C2
102
{ACAD_REACTORS
330
1B7
102
}
330
1B7
100
AcDbXrecord
  1
{FDEAD578-A652-11D2-9A35-0060089B3A3F}
  0
XRECORD
  5
1C3
102
{ACAD_REACTORS
330
1B7
102
}
330
1B7
100
AcDbXrecord
  1
{713002A6-DED1-4C7A-98AC-0B061A5E05E9}
  0
XRECORD
  5
1C4
102
{ACAD_REACTORS
330
1B7
102
}
330
1B7
100
AcDbXrecord
 40
0.0
  0
XRECORD
  5
1C5
102
{ACAD_REACTORS
330
1B7
102
}
330
1B7
100
AcDbXrecord
1000
DSTYLE
1002
{
1070
   278
 70
    44
1002
}
  0
XRECORD
  5
1C6
102
{ACAD_REACTORS
330
1B7
102
}
330
1B7
100
AcDbXrecord
340
0
  0
XRECORD
  5
1C7
102
{ACAD_REACTORS
330
1B7
102
}
330
1B7
100
AcDbXrecord
 70
     0
  0
XRECORD
  5
1C8
102
{ACAD_REACTORS
330
1B7
102
}
330
1B7
100
AcDbXrecord
340
0
  0
XRECORD
  5
1C9
102
{ACAD_REACTORS
330
1B7
102
}
330
1B7
100
AcDbXrecord
 10
0.0
 20
0.0
 30
0.0
  0
XRECORD
  5
1CA
102
{ACAD_REACTORS
330
1B7
102
}
330
1B7
100
AcDbXrecord
 10
0.0
 20
0.0
 30
0.0
  0
XRECORD
  5
1CB
102
{ACAD_REACTORS
330
1B7
102
}
330
1B7
100
AcDbXrecord
 10
0.0
 20
0.0
 30
0.0
  0
XRECORD
  5
1CC
102
{ACAD_REACTORS
330
1B7
102
}
330
1B7
100
AcDbXrecord
 10
0.0
 20
0.0
 30
0.0
  0
XRECORD
  5
1CD
102
{ACAD_REACTORS
330
1B7
102
}
330
1B7
100
AcDbXrecord
 10
0.0
 20
0.0
 30
0.0
  0
XRECORD
  5
1CE
102
{ACAD_REACTORS
330
1B7
102
}
330
1B7
100
AcDbXrecord
 10
0.0
 20
0.0
 30
0.0
  0
XRECORD
  5
1CF
102
{ACAD_REACTORS
330
1B7
102
}
330
1B7
100
AcDbXrecord
340
0
  0
XRECORD
  5
1D0
102
{ACAD_REACTORS
330
1B7
102
}
330
1B7
100
AcDbXrecord
 70
     0
  0
XRECORD
  5
1D1
102
{ACAD_REACTORS
330
1B7
102
}
330
1B7
100
AcDbXrecord
340
0
  0
XRECORD
  5
1D2
102
{ACAD_REACTORS
330
1B7
102
}
330
1B7
100
AcDbXrecord
 10
0.0
 20
0.0
 30
0.0
  0
XRECORD
  5
1D3
102
{ACAD_REACTORS
330
1B7
102
}
330
1B7
100
AcDbXrecord
 10
0.0
 20
0.0
 30
0.0
  0
XRECORD
  5
1D4
102
{ACAD_REACTORS
330
1B7
102
}
330
1B7
100
AcDbXrecord
 10
0.0
 20
0.0
 30
0.0
  0
XRECORD
  5
1D5
102
{ACAD_REACTORS
330
1B7
102
}
330
1B7
100
AcDbXrecord
 10
0.0
 20
0.0
 30
0.0
  0
XRECORD
  5
1D6
102
{ACAD_REACTORS
330
1B7
102
}
330
1B7
100
AcDbXrecord
 10
0.0
 20
0.0
 30
0.0
  0
XRECORD
  5
1D7
102
{ACAD_REACTORS
330
1B7
102
}
330
1B7
100
AcDbXrecord
 10
0.0
 20
0.0
 30
0.0
  0
ENDSEC
  0
EOF
