0
SECTION
2
HEADER
9
$INSUNITS
70
1
9
$ACADVER
1
AC1014
9
$HANDSEED
5
FFFF
0
ENDSEC
0
SECTION
2
TABLES
0
TABLE
2
VPORT
5
8
100
AcDbSymbolTable
0
ENDTAB
0
TABLE
2
LTYPE
5
5
100
AcDbSymbolTable
0
LTYPE
5
14
100
AcDbSymbolTableRecord
100
AcDbLinetypeTableRecord
2
BYBLOCK
70
0
0
LTYPE
5
15
100
AcDbSymbolTableRecord
100
AcDbLinetypeTableRecord
2
BYLAYER
70
0
0
ENDTAB
0
TABLE
2
LAYER
5
2
100
AcDbSymbolTable
70
2
0
LAYER
5
50
100
AcDbSymbolTableRecord
100
AcDbLayerTableRecord
2
0
70
0
6
CONTINUOUS
0
ENDTAB
0
TABLE
2
STYLE
5
3
100
AcDbSymbolTable
70
1
0
STYLE
5
11
100
AcDbSymbolTableRecord
100
AcDbTextStyleTableRecord
2
STANDARD
70
0
0
ENDTAB
0
TABLE
2
VIEW
5
6
100
AcDbSymbolTable
70
0
0
ENDTAB
0
TABLE
2
UCS
5
7
100
AcDbSymbolTable
70
0
0
ENDTAB
0
TABLE
2
APPID
5
9
100
AcDbSymbolTable
70
2
0
APPID
5
12
100
AcDbSymbolTableRecord
100
AcDbRegAppTableRecord
2
ACAD
70
0
0
ENDTAB
0
TABLE
2
DIMSTYLE
5
A
100
AcDbSymbolTable
70
1
0
ENDTAB
0
TABLE
2
BLOCK_RECORD
5
1
100
AcDbSymbolTable
70
1
0
BLOCK_RECORD
5
1F
100
AcDbSymbolTableRecord
100
AcDbBlockTableRecord
2
*MODEL_SPACE
0
BLOCK_RECORD
5
1B
100
AcDbSymbolTableRecord
100
AcDbBlockTableRecord
2
*PAPER_SPACE
0
ENDTAB
0
ENDSEC
0
SECTION
2
BLOCKS
0
BLOCK
5
20
100
AcDbEntity
100
AcDbBlockBegin
2
*MODEL_SPACE
0
ENDBLK
5
21
100
AcDbEntity
100
AcDbBlockEnd
0
BLOCK
5
1C
100
AcDbEntity
100
AcDbBlockBegin
2
*PAPER_SPACE
0
ENDBLK
5
1D
100
AcDbEntity
100
AcDbBlockEnd
0
ENDSEC
0
SECTION
2
ENTITIES
0
LWPOLYLINE
5
100
100
AcDbEntity
8
0
100
AcDbPolyline
90
4
70
1
43
0.0
10
601.68185018736335
20
331.36922213045636
42
-0.41421356237279483
10
601.63818076237692
20
331.41289155544263
42
-0.41421356237339524
10
601.68185018736324
20
331.45656098042889
42
-0.41421356237309503
10
601.72551961234944
20
331.41289155544268
42
-0.41421356237369544
0
LINE
5
101
100
AcDbEntity
8
0
100
AcDbLine
10
607.39937969025073
20
333.29221605721847
30
0
11
607.39937969025073
21
346.89128234151087
31
0
0
LWPOLYLINE
5
102
100
AcDbEntity
8
0
100
AcDbPolyline
90
4
70
1
43
0.0
10
601.68185018736312
20
331.86564745845556
42
-0.41421356237318385
10
601.82948798263885
20
331.71800966317994
42
-0.41421356237300627
10
601.68185018736324
20
331.57037186790438
42
-0.41421356237309503
10
601.53421239208762
20
331.71800966318
42
-0.41421356237309503
0
LWPOLYLINE
5
103
100
AcDbEntity
8
0
100
AcDbPolyline
90
6
70
1
43
0.0
10
604.11902643074416
20
328.31625995511376
42
-0.41421356237700202
10
604.41430202129925
20
328.61153554566494
42
-0.41421356236923246
10
604.7095776118465
20
328.31625995511371
10
604.7095776118465
20
325.56035444330274
42
-0.41421356237691326
10
604.41430202129141
20
325.26507885275157
42
-0.41421356236927687
10
604.11902643074416
20
325.56035444330274
0
LWPOLYLINE
5
104
100
AcDbEntity
8
0
100
AcDbPolyline
90
4
70
1
43
0.0
10
603.93454521288504
20
338.26518941654496
42
-0.41421356237309503
10
603.85580505540474
20
338.18644925906455
42
-0.41421356237276202
10
603.77706489792456
20
338.2651894165449
42
-0.41421356237309503
10
603.85580505540474
20
338.3439295740252
42
-0.41421356237309503
0
LWPOLYLINE
5
105
100
AcDbEntity
8
0
100
AcDbPolyline
90
4
70
1
43
0.0
10
601.51941425151767
20
338.54008230998875
42
-0.41421356237308665
10
603.074532361754
20
336.98496419975254
42
-0.41421356237309503
10
601.51941425151767
20
335.42984608951633
42
-0.41421356237309503
10
599.96429614128158
20
336.98496419975254
42
-0.41421356237309503
0
ARC
5
106
100
AcDbEntity
8
0
100
AcDbCircle
10
607.43874976899099
20
333.29221605721847
30
0
40
0.039370078740211187
210
0
220
0
230
1
100
AcDbArc
50
180
51
270
0
ARC
5
107
100
AcDbEntity
8
0
100
AcDbCircle
10
613.7393481544625
20
333.29221666355693
30
0
40
0.039370078739975001
210
-0
220
0
230
1
100
AcDbArc
50
-44.99096554199906
51
0.018063402382414547
0
LWPOLYLINE
5
108
100
AcDbEntity
8
0
100
AcDbPolyline
90
4
70
1
43
0.0
10
600.31745567210203
20
338.2651894165449
42
-0.41421356237309503
10
600.23871551462184
20
338.18644925906466
42
-0.41421356237326151
10
600.15997535714143
20
338.26518941654496
42
-0.41421356237309503
10
600.23871551462173
20
338.34392957402525
42
-0.41421356237309503
0
LWPOLYLINE
5
109
100
AcDbEntity
8
0
100
AcDbPolyline
90
4
70
1
43
0.0
10
600.31743900585502
20
335.70473621710187
42
-0.41421356237309503
10
600.23869884837472
20
335.62599605962151
42
-0.41421356237309503
10
600.15995869089443
20
335.70473621710187
42
-0.41421356237309503
10
600.23869884837472
20
335.78347637458216
42
-0.41421356237292856
0
LWPOLYLINE
5
110
100
AcDbEntity
8
0
100
AcDbPolyline
90
8
70
1
43
0.0
10
603.81390833677756
20
326.42649617558629
42
-0.41421356237309503
10
603.73516817929715
20
326.34775601810594
10
603.69579810055711
20
326.347756018106
42
-0.41421356237292856
10
603.6170579430767
20
326.42649617558629
10
603.61705794307659
20
327.45011822283027
42
-0.41421356237359452
10
603.69579810055711
20
327.52885838031062
10
603.73516817929715
20
327.52885838031062
42
-0.41421356237309503
10
603.81390833677756
20
327.45011822283027
0
LWPOLYLINE
5
111
100
AcDbEntity
8
0
100
AcDbPolyline
90
4
70
1
43
0.0
10
602.8788697239205
20
338.26519229795798
42
-0.41421356237309503
10
602.80012956644021
20
338.18645214047763
42
-0.41421356237276202
10
602.72138940895991
20
338.26519229795798
42
-0.41421356237326151
10
602.80012956644021
20
338.34393245543833
42
-0.41421356237309503
0
LWPOLYLINE
5
112
100
AcDbEntity
8
0
100
AcDbPolyline
90
4
70
1
43
0.0
10
603.47690142865815
20
334.6136859873456
42
-0.41421356237309503
10
603.57926363338254
20
334.71604819206999
42
-0.41421356237309503
10
603.68162583810692
20
334.6136859873456
42
-0.41421356237309503
10
603.57926363338254
20
334.51132378262122
42
-0.41421356237309503
0
LINE
5
113
100
AcDbEntity
8
0
100
AcDbLine
10
586.90041811544017
20
334.41540713799509
30
0
11
626.2073730738922
21
334.41519202672276
31
0
0
LWPOLYLINE
5
114
100
AcDbEntity
8
0
100
AcDbPolyline
90
4
70
1
43
0.0
10
614.10095557504064
20
330.71020397530583
42
-0.41421356237309503
10
614.01827840968633
20
330.62752680995152
42
-0.41421356237309503
10
613.93560124433191
20
330.71020397530583
42
-0.41421356237309503
10
614.01827840968633
20
330.79288114066026
42
-0.41421356237325357
0
ARC
5
115
100
AcDbEntity
8
0
100
AcDbCircle
10
609.23637140730511
20
330.03761416179191
30
0
40
0.78740157480288098
210
0
220
0
230
1
100
AcDbArc
50
269.99999999998346
51
315.00000000000585
0
LWPOLYLINE
5
116
100
AcDbEntity
8
0
100
AcDbPolyline
90
4
70
1
43
0.0
10
597.7536517211538
20
330.7097810685238
42
-0.41421356237293649
10
597.67097455579938
20
330.62710390316948
42
-0.41421356237309503
10
597.58829739044506
20
330.7097810685238
42
-0.41421356237309503
10
597.67097455579938
20
330.79245823387816
42
-0.41421356237309503
0
LWPOLYLINE
5
117
100
AcDbEntity
8
0
100
AcDbPolyline
90
4
70
1
43
0.0
10
602.80011590558206
20
335.78348916631006
42
-0.41421356237309503
10
602.87885606306236
20
335.70474900882976
42
-0.41421356237309503
10
602.80011590558206
20
335.62600885134947
42
-0.41421356237292856
10
602.72137574810176
20
335.70474900882976
42
-0.41421356237309503
0
LWPOLYLINE
5
118
100
AcDbEntity
8
0
100
AcDbPolyline
90
4
70
1
43
0.0
10
611.32962072851512
20
330.79245823387816
42
-0.41421356237309503
10
611.41229789386955
20
330.7097810685238
42
-0.41421356237309503
10
611.32962072851512
20
330.62710390316948
42
-0.41421356237325357
10
611.24694356316081
20
330.70978106852385
42
-0.41421356237293649
0
LWPOLYLINE
5
119
100
AcDbEntity
8
0
100
AcDbPolyline
90
4
70
1
43
0.0
10
601.77836102555057
20
330.79324058517983
42
-0.41421356237309503
10
601.86103819090488
20
330.71056341982552
42
-0.41421356237293649
10
601.77836102555057
20
330.62788625447115
42
-0.41421356237309503
10
601.69568386019625
20
330.71056341982552
42
-0.41421356237309503
0
ARC
5
120
100
AcDbEntity
8
0
100
AcDbCircle
10
596.61700261616454
20
339.64487569936557
30
0
40
0.17716535433074346
210
0
220
0
230
1
100
AcDbArc
50
225.01090501916173
51
315.0109050191877
0
LWPOLYLINE
5
121
100
AcDbEntity
8
0
100
AcDbPolyline
90
8
70
1
43
0.0
10
606.35152245758104
20
347.3125355217469
42
-0.41421356237329482
10
606.5483728512819
20
347.11568512804615
10
606.5483728512819
20
346.68261426189656
42
-0.41421356237309503
10
606.35152245758104
20
346.48576386819576
10
604.46175867805357
20
346.48576386819576
42
-0.41421356237309503
10
604.26490828435271
20
346.68261426189656
10
604.26490828435271
20
347.11568512804615
42
-0.41421356237309503
10
604.46175867805357
20
347.31253552174695
0
LWPOLYLINE
5
122
100
AcDbEntity
8
0
100
AcDbPolyline
90
4
70
1
43
0.0
10
613.9395371705657
20
345.56981241083855
42
-0.41421356237309503
10
614.01827732804611
20
345.64855256831891
42
-0.41421356237276202
10
614.09701748552641
20
345.56981241083855
42
-0.41421356237309503
10
614.01827732804611
20
345.4910722533582
42
-0.41421356237309503
0
LWPOLYLINE
5
123
100
AcDbEntity
8
0
100
AcDbPolyline
90
4
70
1
43
0.0
10
621.71185765983921
20
342.90881456691409
42
-0.41421356237309503
10
621.79059781731962
20
342.98755472439433
42
-0.41421356237309503
10
621.86933797479981
20
342.90881456691409
42
-0.41421356237309503
10
621.79059781731962
20
342.83007440943379
42
-0.41421356237309503
0
LWPOLYLINE
5
124
100
AcDbEntity
8
0
100
AcDbPolyline
90
4
70
1
43
0.0
10
596.09047886138683
20
339.25384033491645
42
-0.41421356237309503
10
596.16921901886712
20
339.17510017743615
42
-0.41421356237309503
10
596.09047886138683
20
339.0963600199558
42
-0.41421356237309503
10
596.01173870390642
20
339.17510017743615
42
-0.41421356237309503
0
LINE
5
125
100
AcDbEntity
8
0
100
AcDbLine
10
607.45703753491136
20
347.72977165185864
30
0
11
613.72018461170819
21
347.7297716518587
31
0
0
LWPOLYLINE
5
126
100
AcDbEntity
8
0
100
AcDbPolyline
90
4
70
1
43
0.0
10
595.56574152217945
20
339.56663575410477
42
-0.41421356237309503
10
595.48700136469915
20
339.64537591158512
42
-0.41421356237259555
10
595.56574152217945
20
339.72411606906542
42
-0.41421356237292856
10
595.64448167965975
20
339.64537591158512
42
-0.41421356237309503
0
ARC
5
127
100
AcDbEntity
8
0
100
AcDbCircle
10
613.73725653647557
20
346.89152482563117
30
0
40
0.039370078732184462
210
-0
220
0
230
1
100
AcDbArc
50
-0.00033086565404291917
51
89.999668989990283
0
LWPOLYLINE
5
128
100
AcDbEntity
8
0
100
AcDbPolyline
90
4
70
1
43
0.0
10
589.36718615366078
20
340.45320633141711
42
-0.41421356237309503
10
589.43707366473927
20
340.5230938424956
42
-0.41421356237290746
10
589.50696117581788
20
340.45320633141711
42
-0.41421356237309503
10
589.43707366473927
20
340.38331882033856
42
-0.41421356237328266
0
LWPOLYLINE
5
129
100
AcDbEntity
8
0
100
AcDbPolyline
90
4
70
1
43
0.0
10
621.79059781731962
20
345.24004615018487
42
-0.41421356237326151
10
621.86933797479981
20
345.16130599270457
42
-0.41421356237309503
10
621.79059781731962
20
345.08256583522422
42
-0.41421356237309503
10
621.71185765983932
20
345.16130599270457
42
-0.41421356237326151
0
LWPOLYLINE
5
130
100
AcDbEntity
8
0
100
AcDbPolyline
90
4
70
1
43
0.0
10
625.40174550719837
20
344.23569594199131
42
-0.41421356237342799
10
625.48048566467878
20
344.31443609947149
42
-0.41421356237309503
10
625.55922582215908
20
344.23569594199125
42
-0.41421356237309503
10
625.48048566467878
20
344.15695578451096
42
-0.41421356237309503
0
LWPOLYLINE
5
131
100
AcDbEntity
8
0
100
AcDbPolyline
90
4
70
1
43
0.0
10
614.01827770207285
20
342.19588696765919
42
-0.41421356237292856
10
613.93953754459244
20
342.27462712513949
42
-0.41421356237309503
10
614.01827770207285
20
342.35336728261979
42
-0.41421356237276202
10
614.09701785955315
20
342.27462712513949
42
-0.41421356237309503
0
LWPOLYLINE
5
132
100
AcDbEntity
8
0
100
AcDbPolyline
90
4
70
1
43
0.0
10
587.02225063902665
20
338.97944067919093
42
-0.41421356237309503
10
587.10099079650695
20
339.05818083667128
42
-0.41421356237309503
10
587.17973095398725
20
338.97944067919093
42
-0.41421356237309503
10
587.10099079650695
20
338.90070052171063
42
-0.41421356237309503
0
LWPOLYLINE
5
133
100
AcDbEntity
8
0
100
AcDbPolyline
90
4
70
1
43
0.0
10
587.58624616024372
20
340.38316608125217
42
-0.41421356237309503
10
587.51635864916511
20
340.45305359233078
42
-0.41421356237328266
10
587.58624616024372
20
340.52294110340932
42
-0.41421356237309503
10
587.65613367132232
20
340.45305359233078
42
-0.41421356237309503
0
LWPOLYLINE
5
134
100
AcDbEntity
8
0
100
AcDbPolyline
90
6
70
1
43
0.0
10
588.1708774031473
20
333.99733353253202
10
588.1708774031473
20
330.79733353253198
10
589.64962950314737
20
330.79733353253198
10
589.64962950314737
20
333.99733353253202
10
588.1708774031473
20
333.99733353253202
10
589.64962950314737
20
330.79733353253198
0
ARC
5
135
100
AcDbEntity
8
0
100
AcDbCircle
10
588.91025345314733
20
332.57345989655693
30
0
40
0.3838582677165559
210
-0
220
0
230
1
100
AcDbArc
50
-45.000000001373898
51
12.795772494638005
0
LWPOLYLINE
5
136
100
AcDbEntity
8
0
100
AcDbPolyline
90
4
70
1
43
0.0
10
606.82888466230554
20
346.89914969315788
42
-0.41421356237309503
10
606.75014450482524
20
346.82040953567753
42
-0.41421356237309503
10
606.67140434734483
20
346.89914969315788
42
-0.41421356237292856
10
606.75014450482524
20
346.97788985063812
42
-0.41421356237309503
0
LINE
5
137
100
AcDbEntity
8
0
100
AcDbLine
10
591.36094675518291
20
333.16096000365843
30
0
11
591.36094675518291
21
331.98596000365848
31
0
0
LINE
5
138
100
AcDbEntity
8
0
100
AcDbLine
10
599.05216174828081
20
339.5196228973349
30
0
11
598.88874264888727
21
339.68310183508606
31
0
0
LWPOLYLINE
5
139
100
AcDbEntity
8
0
100
AcDbPolyline
90
4
70
1
43
0.0
10
614.01827732804611
20
347.35327874205507
42
-0.41421356237342799
10
613.9395371705657
20
347.43201889953531
42
-0.41421356237342799
10
614.01827732804611
20
347.51075905701555
42
-0.41421356237309503
10
614.09701748552629
20
347.43201889953531
42
-0.41421356237309503
0
CIRCLE
5
140
100
AcDbEntity
8
0
100
AcDbCircle
10
589.64962950314737
20
330.79733353253198
30
0
40
0.082500000000000004
210
0
220
0
230
1
0
LWPOLYLINE
5
141
100
AcDbEntity
8
0
100
AcDbPolyline
90
4
70
1
43
0.0
10
589.62256848750565
20
341.37655621963484
42
-0.41421356237309503
10
588.50574093950218
20
340.25972867163136
42
-0.41421356237309503
10
587.38891339149882
20
341.37655621963489
42
-0.41421356237309503
10
588.50574093950218
20
342.49338376763831
42
-0.41421356237309503
0
ARC
5
142
100
AcDbEntity
8
0
100
AcDbCircle
10
613.72018461189884
20
347.67071653393947
30
0
40
0.0590551179192546
210
0
220
-0
230
1
100
AcDbArc
50
24.400499490209103
51
90.000000184973004
0
LWPOLYLINE
5
143
100
AcDbEntity
8
0
100
AcDbPolyline
90
4
70
1
43
0.0
10
590.03451710681941
20
340.45195377607706
42
-0.41421356237309503
10
590.10440461789801
20
340.52184128715567
42
-0.41421356237309503
10
590.17429212897662
20
340.45195377607706
42
-0.41421356237290746
10
590.10440461789801
20
340.38206626499857
42
-0.41421356237309503
0
LINE
5
144
100
AcDbEntity
8
0
100
AcDbLine
10
591.36094675518291
20
331.98596000365848
30
0
11
590.51094675518289
21
333.16096000365843
31
0
0
LWPOLYLINE
5
145
100
AcDbEntity
8
0
100
AcDbPolyline
90
4
70
1
43
0.0
10
622.16801483667348
20
346.35223229608664
42
-0.41421356237309503
10
622.24675499415378
20
346.43097245356688
42
-0.41421356237309503
10
622.32549515163396
20
346.35223229608658
42
-0.41421356237309503
10
622.24675499415378
20
346.2734921386064
42
-0.41421356237309503
0
LWPOLYLINE
5
146
100
AcDbEntity
8
0
100
AcDbPolyline
90
4
70
1
43
0.0
10
587.63512042837408
20
344.27048939065651
42
-0.41421356237292856
10
587.71386058585438
20
344.19174923317621
42
-0.41421356237309503
10
587.63512042837408
20
344.11300907569591
42
-0.41421356237309503
10
587.5563802708939
20
344.19174923317621
42
-0.41421356237309503
0
ARC
5
147
100
AcDbEntity
8
0
100
AcDbCircle
10
599.17745858925696
20
339.64487569936563
30
0
40
0.1771653543307751
210
0
220
0
230
1
100
AcDbArc
50
224.98909498082529
51
314.98909498079928
0
LINE
5
148
100
AcDbEntity
8
0
100
AcDbLine
10
591.36094675518291
20
331.98596000365848
30
0
11
590.51094675518289
21
331.98596000365848
31
0
0
LWPOLYLINE
5
149
100
AcDbEntity
8
0
100
AcDbPolyline
90
4
70
1
43
0.0
10
596.42429965197186
20
340.01185011416766
42
-0.41421356237309503
10
596.34555949449157
20
340.09059027164801
42
-0.41421356237309503
10
596.42429965197186
20
340.16933042912837
42
-0.41421356237309503
10
596.50303980945228
20
340.09059027164801
42
-0.41421356237309503
0
CIRCLE
5
150
100
AcDbEntity
8
0
100
AcDbCircle
10
589.64962950314737
20
333.99733353253202
30
0
40
0.082500000000000004
210
0
220
0
230
1
0
LWPOLYLINE
5
151
100
AcDbEntity
8
0
100
AcDbPolyline
90
4
70
1
43
0.0
10
590.17549054056428
20
345.22899713905713
42
-0.41421356237309503
10
590.10560302948568
20
345.15910962797858
42
-0.41421356237365781
10
590.03571551840707
20
345.22899713905707
42
-0.41421356237347023
10
590.10560302948568
20
345.29888465013573
42
-0.41421356237309503
0
LWPOLYLINE
5
152
100
AcDbEntity
8
0
100
AcDbPolyline
90
4
70
1
43
0.0
10
607.1583581435641
20
345.64855256831885
42
-0.41421356237359452
10
607.2370983010444
20
345.56981241083855
42
-0.41421356237292856
10
607.1583581435641
20
345.49107225335831
42
-0.41421356237309503
10
607.07961798608392
20
345.56981241083855
42
-0.41421356237276202
0
ARC
5
153
100
AcDbEntity
8
0
100
AcDbCircle
10
596.9335461279403
20
339.65525170212351
30
0
40
0.039370078740111662
210
0
220
-0
230
1
100
AcDbArc
50
52.817172978614153
51
135.01048793488022
0
ARC
5
154
100
AcDbEntity
8
0
100
AcDbCircle
10
607.34102330120152
20
347.66709174747302
30
0
40
0.059055118110629294
210
0
220
-0
230
1
100
AcDbArc
50
32.064631541823374
51
90.005799327315813
0
LWPOLYLINE
5
155
100
AcDbEntity
8
0
100
AcDbPolyline
90
4
70
1
43
0.0
10
603.93457423708389
20
342.2058163193002
42
-0.41421356237309503
10
603.85583407960348
20
342.1270761618199
42
-0.41421356237309503
10
603.77709392212319
20
342.20581631930025
42
-0.41421356237292856
10
603.85583407960348
20
342.28455647678049
42
-0.41421356237326151
0
LWPOLYLINE
5
156
100
AcDbEntity
8
0
100
AcDbPolyline
90
4
70
1
43
0.0
10
606.33850797394155
20
346.03337308361557
42
-0.41421356237309503
10
606.41724813142196
20
346.11211324109593
42
-0.41421356237342799
10
606.49598828890225
20
346.03337308361569
42
-0.41421356237342799
10
606.41724813142184
20
345.95463292613528
42
-0.41421356237276202
0
LINE
5
157
100
AcDbEntity
8
0
100
AcDbLine
10
586.86862335668548
20
330.53301708693493
30
0
11
586.86874130325589
21
334.35583826410726
31
0
0
LWPOLYLINE
5
158
100
AcDbEntity
8
0
100
AcDbPolyline
90
4
70
1
43
0.0
10
607.23709830104451
20
347.43201889953531
42
-0.41421356237259555
10
607.15835814356421
20
347.35327874205507
42
-0.41421356237342799
10
607.07961798608392
20
347.43201889953531
42
-0.41421356237309503
10
607.15835814356421
20
347.51075905701555
42
-0.41421356237309503
0
LWPOLYLINE
5
159
100
AcDbEntity
8
0
100
AcDbPolyline
90
4
70
1
43
0.0
10
602.8788697239205
20
342.20580640898544
42
-0.41421356237309503
10
602.80012956644032
20
342.1270662515052
42
-0.41421356237292856
10
602.72138940895991
20
342.20580640898544
42
-0.41421356237309503
10
602.80012956644021
20
342.28454656646579
42
-0.41421356237309503
0
LINE
5
160
100
AcDbEntity
8
0
100
AcDbLine
10
590.51094675518289
20
333.16096000365843
30
0
11
591.36094675518291
21
333.16096000365843
31
0
0
ARC
5
161
100
AcDbEntity
8
0
100
AcDbCircle
10
601.51940059065964
20
344.75326045122762
30
0
40
1.555118110236273
210
-0
220
0
230
1
100
AcDbArc
50
-41.087046171612819
51
45.010441158767847
0
ARC
5
162
100
AcDbEntity
8
0
100
AcDbCircle
10
607.43874976899087
20
346.89128234151093
30
0
40
0.039370078740121668
210
0
220
-0
230
1
100
AcDbArc
50
89.999999999834557
51
180
0
LWPOLYLINE
5
163
100
AcDbEntity
8
0
100
AcDbPolyline
90
4
70
1
43
0.0
10
603.06094549573913
20
342.84103272142693
42
-0.41421356237309503
10
603.13968565321954
20
342.91977287890722
42
-0.41421356237309503
10
603.21842581069973
20
342.84103272142698
42
-0.41421356237259555
10
603.13968565321954
20
342.76229256394669
42
-0.41421356237342799
0
ARC
5
164
100
AcDbEntity
8
0
100
AcDbCircle
10
599.17745858925696
20
339.64487569936557
30
0
40
0.17716535433068017
210
-0
220
0
230
1
100
AcDbArc
50
-45.010905019187739
51
44.989094980812261
0
LINE
5
165
100
AcDbEntity
8
0
100
AcDbLine
10
621.51011627037508
20
345.64923350815582
30
0
11
621.51011627037508
21
342.42088705146284
31
0
0
ARC
5
166
100
AcDbEntity
8
0
100
AcDbCircle
10
613.78113563932459
20
347.69836578689853
30
0
40
0.0078740157481064985
210
0
220
0
230
1
100
AcDbArc
50
266.55863892178877
51
328.71677835352813
0
LINE
5
167
100
AcDbEntity
8
0
100
AcDbLine
10
596.74229945714069
20
339.5196228973349
30
0
11
596.90571855653423
21
339.68310183508606
31
0
0
LWPOLYLINE
5
168
100
AcDbEntity
8
0
100
AcDbPolyline
90
4
70
1
43
0.0
10
587.18366796185899
20
330.7097810685238
42
-0.41421356237309503
10
587.10099079650468
20
330.62710390316954
42
-0.41421356237309503
10
587.01831363115036
20
330.70978106852385
42
-0.41421356237309503
10
587.10099079650468
20
330.79245823387822
42
-0.41421356237325357
0
LINE
5
169
100
AcDbEntity
8
0
100
AcDbLine
10
589.28457886885462
20
332.65847550012444
30
0
11
588.99526905671485
21
332.94778531226422
31
0
0
ARC
5
170
100
AcDbEntity
8
0
100
AcDbCircle
10
613.78113563932459
20
347.69836578689848
30
0
40
0.0078740157479942532
210
0
220
0
230
1
100
AcDbArc
50
204.4004994899455
51
266.55863892176399
0
LWPOLYLINE
5
171
100
AcDbEntity
8
0
100
AcDbPolyline
90
4
70
1
43
0.0
10
591.03092744127355
20
343.18367055232625
42
-0.41421356237309503
10
589.91409989327008
20
344.30049810032972
42
-0.41421356237309503
10
591.03092744127355
20
345.41732564833319
42
-0.41421356237309503
10
592.14775498927702
20
344.30049810032972
42
-0.41421356237309503
0
LWPOLYLINE
5
172
100
AcDbEntity
8
0
100
AcDbPolyline
90
4
70
1
43
0.0
10
587.65576152388553
20
342.30252140167642
42
-0.41421356237309503
10
587.58587401280704
20
342.23263389059787
42
-0.41421356237290746
10
587.51598650172843
20
342.30252140167642
42
-0.41421356237309503
10
587.58587401280704
20
342.37240891275496
42
-0.41421356237309503
0
LWPOLYLINE
5
173
100
AcDbEntity
8
0
100
AcDbPolyline
90
4
70
1
43
0.0
10
595.84015797835139
20
340.92559110250784
42
-0.41421356237309503
10
594.28503986811529
20
339.37047299227163
42
-0.41421356237309503
10
592.72992175787908
20
340.92559110250784
42
-0.41421356237309503
10
594.28503986811529
20
342.48070921274399
42
-0.41421356237309503
0
ARC
5
174
100
AcDbEntity
8
0
100
AcDbCircle
10
598.86089870382716
20
339.65526808177287
30
0
40
0.039370078740169387
210
0
220
-0
230
1
100
AcDbArc
50
44.989512065061341
51
127.18339414787711
0
ARC
5
175
100
AcDbEntity
8
0
100
AcDbCircle
10
613.83833400853382
20
347.66361157105575
30
0
40
0.059055118110388806
210
0
220
-0
230
1
100
AcDbArc
50
88.591923341660973
51
148.71677835407371
0
LWPOLYLINE
5
176
100
AcDbEntity
8
0
100
AcDbPolyline
90
4
70
1
43
0.0
10
602.80010224472392
20
343.55178541778508
42
-0.41421356237309503
10
602.87884240220421
20
343.47304526030479
42
-0.41421356237292856
10
602.80010224472392
20
343.39430510282449
42
-0.41421356237309503
10
602.72136208724351
20
343.47304526030479
42
-0.41421356237309503
0
ARC
5
177
100
AcDbEntity
8
0
100
AcDbCircle
10
621.51011627037508
20
345.64923350815582
30
0
40
0.039370078740121668
210
-0
220
0
230
1
100
AcDbArc
50
0
51
90
0
LINE
5
178
100
AcDbEntity
8
0
100
AcDbLine
10
615.2502737506901
20
345.68860358689597
30
0
11
621.51011627037508
21
345.68860358689597
31
0
0
LWPOLYLINE
5
179
100
AcDbEntity
8
0
100
AcDbPolyline
90
4
70
1
43
0.0
10
590.0351821128454
20
342.30269408515642
42
-0.41421356237347023
10
590.10506962392412
20
342.37258159623497
42
-0.41421356237253226
10
590.17495713500261
20
342.30269408515642
42
-0.41421356237271989
10
590.10506962392412
20
342.23280657407793
42
-0.41421356237365781
0
LINE
5
180
100
AcDbEntity
8
0
100
AcDbLine
10
604.46175867805357
20
346.48576386819968
30
0
11
606.35152245758104
21
346.48576386819968
31
0
0
LINE
5
181
100
AcDbEntity
8
0
100
AcDbLine
10
590.51094675518289
20
331.98596000365848
30
0
11
590.51094675518289
21
333.16096000365843
31
0
0
ARC
5
182
100
AcDbEntity
8
0
100
AcDbCircle
10
604.1728495449081
20
343.48282725474593
30
0
40
0.039370078740174647
210
0
220
-0
230
1
100
AcDbArc
50
52.815466497919715
51
135.0104879348217
0
ARC
5
183
100
AcDbEntity
8
0
100
AcDbCircle
10
603.86656639921159
20
343.78899879123321
30
0
40
0.039370078740137718
210
-0
220
0
230
1
100
AcDbArc
50
-44.989512065236795
51
37.20541581948995
0
ARC
5
184
100
AcDbEntity
8
0
100
AcDbCircle
10
621.51011627037508
20
342.42088705146284
30
0
40
0.039370078740121668
210
0
220
0
230
1
100
AcDbArc
50
-90
51
0
0
ARC
5
185
100
AcDbEntity
8
0
100
AcDbCircle
10
596.61700261616454
20
339.64487569936557
30
0
40
0.17716535433074346
210
0
220
0
230
1
100
AcDbArc
50
135.01090501918773
51
225.01090501916173
0
LINE
5
186
100
AcDbEntity
8
0
100
AcDbLine
10
615.2502737506901
20
342.4208870514629
30
0
11
621.51011627037508
21
342.42088705146284
31
0
0
ARC
5
187
100
AcDbEntity
8
0
100
AcDbCircle
10
586.92767847476728
20
330.53301526489025
30
0
40
0.059055118109817104
210
0
220
0
230
1
100
AcDbArc
50
224.99911609059677
51
269.99999994440884
0
ARC
5
188
100
AcDbEntity
8
0
100
AcDbCircle
10
607.39798241676135
20
347.70221259681512
30
0
40
0.0078740157480243333
210
-0
220
0
230
1
100
AcDbArc
50
270.00000005128948
51
331.92751309385505
0
ARC
5
189
100
AcDbEntity
8
0
100
AcDbCircle
10
596.62727898037542
20
339.96143924260031
30
0
40
0.039370078740169387
210
-0
220
0
230
1
100
AcDbArc
50
-44.989512065178324
51
37.205112801854476
0
LINE
5
190
100
AcDbEntity
8
0
100
AcDbLine
10
615.2502737506901
20
342.38151697272275
30
0
11
621.51011627037508
21
342.38151697272275
31
0
0
ARC
5
191
100
AcDbEntity
8
0
100
AcDbCircle
10
603.85630482995327
20
343.4724500483685
30
0
40
0.17716535433071184
210
0
220
0
230
1
100
AcDbArc
50
135.01090501920075
51
225.01090501920069
0
LINE
5
192
100
AcDbEntity
8
0
100
AcDbLine
10
607.39937969025073
20
346.86845281659441
30
0
11
607.39937969025073
21
347.72609324839704
31
0
0
ARC
5
193
100
AcDbEntity
8
0
100
AcDbCircle
10
605.13653281649954
20
344.75314498541002
30
0
40
1.5551181102363558
210
0
220
-0
230
1
100
AcDbArc
50
45.010441158778207
51
131.10792848914289
0
LINE
5
194
100
AcDbEntity
8
0
100
AcDbLine
10
615.2502737506901
20
345.64923350815582
30
0
11
621.51011627037508
21
345.64923350815582
31
0
0
ARC
5
195
100
AcDbEntity
8
0
100
AcDbCircle
10
597.89723051836177
20
340.92565249281472
30
0
40
1.5551469419672146
210
0
220
0
230
1
100
AcDbArc
50
153.60662119007708
51
217.21140122547359
0
LINE
5
196
100
AcDbEntity
8
0
100
AcDbLine
10
606.5483728512819
20
346.68261426190048
30
0
11
606.5483728512819
21
347.11568512804223
31
0
0
LWPOLYLINE
5
197
100
AcDbEntity
8
0
100
AcDbPolyline
90
4
70
1
43
0.0
10
590.17538323690053
20
343.37778361737969
42
-0.41421356237309503
10
590.10549572582204
20
343.30789610630109
42
-0.41421356237328266
10
590.03560821474332
20
343.37778361737975
42
-0.41421356237290746
10
590.10549572582192
20
343.4476711284583
42
-0.41421356237309503
0
ARC
5
198
100
AcDbEntity
8
0
100
AcDbCircle
10
599.16718222504596
20
339.96143924260031
30
0
40
0.039370078740120981
210
0
220
0
230
1
100
AcDbArc
50
142.79488719811138
51
224.9895120651783
0
ARC
5
199
100
AcDbEntity
8
0
100
AcDbCircle
10
605.13653281649943
20
344.75314498541024
30
0
40
1.5551181102361673
210
0
220
0
230
1
100
AcDbArc
50
131.10792848914525
51
217.20541581953182
0
LWPOLYLINE
5
200
100
AcDbEntity
8
0
100
AcDbPolyline
90
4
70
1
43
0.0
10
589.50650226026937
20
342.30304297868832
42
-0.41421356237290746
10
589.43661474919088
20
342.23315546760978
42
-0.41421356237309503
10
589.36672723811239
20
342.30304297868832
42
-0.41421356237328266
10
589.43661474919088
20
342.37293048976693
42
-0.41421356237328266
0
LINE
5
201
100
AcDbEntity
8
0
100
AcDbLine
10
603.73100616537874
20
343.59770102613294
30
0
11
603.89442513922427
21
343.76117983828999
31
0
0
LINE
5
202
100
AcDbEntity
8
0
100
AcDbLine
10
599.30275725383149
20
339.77012667713001
30
0
11
599.13933827998596
21
339.93360548928712
31
0
0
LWPOLYLINE
5
203
100
AcDbEntity
8
0
100
AcDbPolyline
90
4
70
1
43
0.0
10
589.91055096077298
20
341.37914155241549
42
-0.41421356237309503
10
591.02737850877645
20
342.4959691004189
42
-0.41421356237308332
10
592.14420605677992
20
341.37914155241549
42
-0.41421356237309503
10
591.02737850877645
20
340.26231400441196
42
-0.41421356237309503
0
ARC
5
204
100
AcDbEntity
8
0
100
AcDbCircle
10
601.51940059065964
20
344.75326045122756
30
0
40
1.5551181102362295
210
0
220
0
230
1
100
AcDbArc
50
232.81546649800546
51
318.91295382838877
0
ARC
5
205
100
AcDbEntity
8
0
100
AcDbCircle
10
597.89723051836177
20
340.92565249281472
30
0
40
1.555146941967346
210
-0
220
0
230
1
100
AcDbArc
50
-37.207718916101996
51
26.397061119289564
0
LINE
5
206
100
AcDbEntity
8
0
100
AcDbLine
10
596.49170395159001
20
339.77012667713001
30
0
11
596.65512292543542
21
339.93360548928712
31
0
0
LINE
5
207
100
AcDbEntity
8
0
100
AcDbLine
10
603.98160167092942
20
343.34719724633783
30
0
11
604.14502077032307
21
343.51067618408899
31
0
0
LWPOLYLINE
5
208
100
AcDbEntity
8
0
100
AcDbPolyline
90
8
70
1
43
0.0
10
601.85392576372556
20
347.34206307989137
10
599.07046119679649
20
347.34206307989137
42
0.41421356237309503
10
598.97105174797753
20
347.24265363107253
10
598.97105174797753
20
346.55564575705671
42
0.41421356237335882
10
599.07046119679649
20
346.45623630823786
10
601.85392576372556
20
346.45623630823786
42
0.4142135623729632
10
601.95333521254452
20
346.55564575705671
10
601.95333521254452
20
347.24265363107253
42
0.41421356237309503
0
ARC
5
209
100
AcDbEntity
8
0
100
AcDbCircle
10
603.85630482995327
20
343.47245004836844
30
0
40
0.17716535433064853
210
0
220
0
230
1
100
AcDbArc
50
225.01090501918776
51
315.0109050192267
0
LWPOLYLINE
5
210
100
AcDbEntity
8
0
100
AcDbPolyline
90
4
70
1
43
0.0
10
601.51941425151767
20
342.48069642101621
42
-0.41421356237308665
10
603.074532361754
20
340.92557831078
42
-0.41421356237311197
10
601.51941425151767
20
339.37046020054373
42
-0.41421356237308665
10
599.96429614128158
20
340.92557831078005
42
-0.41421356237306972
0
LWPOLYLINE
5
211
100
AcDbEntity
8
0
100
AcDbPolyline
90
4
70
1
43
0.0
10
602.15510686608775
20
346.977889851545
42
-0.41421356237276202
10
602.23384702356816
20
346.89914969406465
42
-0.41421356237309503
10
602.15510686608786
20
346.82040953658429
42
-0.41421356237326151
10
602.07636670860745
20
346.8991496940647
42
-0.41421356237309503
0
LWPOLYLINE
5
212
100
AcDbEntity
8
0
100
AcDbPolyline
90
4
70
1
43
0.0
10
589.62616264145015
20
338.34078807941785
42
-0.41421356237309503
10
588.50933509344668
20
337.22396053141438
42
-0.41421356237309503
10
587.39250754544321
20
338.34078807941791
42
-0.41421356237309503
10
588.50933509344657
20
339.45761562742138
42
-0.4142135623731068
0
LWPOLYLINE
5
213
100
AcDbEntity
8
0
100
AcDbPolyline
90
6
70
1
43
0.0
10
591.95694303108621
20
331.80737627652661
42
-0.30369697790646411
10
592.17347846415703
20
331.95226163508715
42
-0.30369697790641592
10
592.39001389722796
20
331.80737627652667
10
592.39001389722796
20
331.62864305663982
42
-0.30369697790646411
10
592.17347846415703
20
331.48375769807927
42
-0.30369697790645572
10
591.9569430310861
20
331.62864305663982
0
LWPOLYLINE
5
214
100
AcDbEntity
8
0
100
AcDbPolyline
90
4
70
1
43
0.0
10
590.10562161956443
20
339.19933156497467
42
-0.41421356237328266
10
590.03573410848594
20
339.26921907605328
42
-0.41421356237290746
10
590.10562161956443
20
339.33910658713177
42
-0.41421356237309503
10
590.17550913064292
20
339.26921907605322
42
-0.41421356237309503
0
LWPOLYLINE
5
215
100
AcDbEntity
8
0
100
AcDbPolyline
90
4
70
1
43
0.0
10
624.05992855596639
20
334.71608656220997
42
-0.41421356237309503
10
624.1485112331319
20
334.62750388504452
42
-0.41421356237279905
10
624.05992855596639
20
334.53892120787924
42
-0.41421356237309503
10
623.971345878801
20
334.62750388504458
42
-0.41421356237309503
0
ARC
5
216
100
AcDbEntity
8
0
100
AcDbCircle
10
588.91025345314733
20
332.57345989655687
30
0
40
0.38385826771651893
210
0
220
0
230
1
100
AcDbArc
50
257.20422750259183
51
314.99999999863212
0
LWPOLYLINE
5
217
100
AcDbEntity
8
0
100
AcDbPolyline
90
4
70
1
43
0.0
10
592.62422515462413
20
346.96298082242595
42
-0.41421356237259555
10
592.70296531210442
20
346.88424066494565
42
-0.41421356237309503
10
592.62422515462413
20
346.8055005074653
42
-0.41421356237309503
10
592.54548499714383
20
346.88424066494565
42
-0.41421356237309503
0
LWPOLYLINE
5
218
100
AcDbEntity
8
0
100
AcDbPolyline
90
4
70
1
43
0.0
10
592.14622888241092
20
330.7097810685238
42
-0.41421356237309503
10
592.22890604776535
20
330.79245823387816
42
-0.41421356237309503
10
592.31158321311966
20
330.7097810685238
42
-0.41421356237309503
10
592.22890604776535
20
330.62710390316948
42
-0.41421356237309503
0
LWPOLYLINE
5
219
100
AcDbEntity
8
0
100
AcDbPolyline
90
4
70
1
43
0.0
10
589.36682386328891
20
339.27014958722344
42
-0.41421356237309503
10
589.43671137436752
20
339.34003709830205
42
-0.41421356237309503
10
589.50659888544612
20
339.27014958722344
42
-0.41421356237309503
10
589.43671137436752
20
339.2002620761449
42
-0.41421356237309503
0
LWPOLYLINE
5
220
100
AcDbEntity
8
0
100
AcDbPolyline
90
4
70
1
43
0.0
10
589.43602246063551
20
337.48878688842342
42
-0.41421356237253226
10
589.50590997171423
20
337.41889937734487
42
-0.41421356237309503
10
589.43602246063563
20
337.34901186626632
42
-0.41421356237271989
10
589.36613494955702
20
337.41889937734487
42
-0.41421356237309503
0
LWPOLYLINE
5
221
100
AcDbEntity
8
0
100
AcDbPolyline
90
4
70
1
43
0.0
10
596.28505199725885
20
335.33549257597957
42
-0.41421356237309503
10
596.35513073741629
20
335.26541383582202
42
-0.41421356237309503
10
596.28505199725885
20
335.19533509566457
42
-0.41421356237309503
10
596.21497325710129
20
335.26541383582202
42
-0.41421356237328211
0
LWPOLYLINE
5
222
100
AcDbEntity
8
0
100
AcDbPolyline
90
4
70
1
43
0.0
10
626.00698725590848
20
334.53494583041038
42
-0.41421356237309503
10
625.9282470984283
20
334.61368598789073
42
-0.41421356237326151
10
626.00698725590848
20
334.69242614537103
42
-0.41421356237309503
10
626.08572741338878
20
334.61368598789073
42
-0.41421356237309503
0
LWPOLYLINE
5
223
100
AcDbEntity
8
0
100
AcDbPolyline
90
4
70
1
43
0.0
10
587.58547644451846
20
337.48946487926878
42
-0.41421356237309503
10
587.65536395559695
20
337.41957736819029
42
-0.41421356237328266
10
587.58547644451846
20
337.34968985711163
42
-0.41421356237309503
10
587.51558893343997
20
337.41957736819023
42
-0.41421356237309503
0
CIRCLE
5
224
100
AcDbEntity
8
0
100
AcDbCircle
10
588.1708774031473
20
333.99733353253202
30
0
40
0.082500000000000004
210
0
220
0
230
1
0
ARC
5
225
100
AcDbEntity
8
0
100
AcDbCircle
10
588.91025345314733
20
332.57345989655693
30
0
40
0.38385826771656789
210
0
220
-0
230
1
100
AcDbArc
50
77.204227503970543
51
134.99999999998201
0
LWPOLYLINE
5
226
100
AcDbEntity
8
0
100
AcDbPolyline
90
4
70
1
43
0.0
10
591.95627576076754
20
345.29978404449554
42
-0.41421356237309503
10
592.02616327184614
20
345.22989653341705
42
-0.41421356237347023
10
591.95627576076754
20
345.16000902233833
42
-0.41421356237309503
10
591.88638824968905
20
345.22989653341693
42
-0.41421356237309503
0
LINE
5
227
100
AcDbEntity
8
0
100
AcDbLine
10
590.51094675518289
20
331.98596000365848
30
0
11
591.36094675518291
21
333.16096000365843
31
0
0
LWPOLYLINE
5
228
100
AcDbEntity
8
0
100
AcDbPolyline
90
6
70
1
43
0.0
10
593.74759941963373
20
331.95183342151762
42
-0.30369697790646411
10
593.96413485270455
20
331.80694806295713
10
593.96413485270455
20
331.62821484307028
42
-0.30369697790646411
10
593.74759941963373
20
331.4833294845098
42
-0.30369697790641592
10
593.53106398656291
20
331.62821484307028
10
593.53106398656291
20
331.80694806295713
42
-0.30369697790651234
0
LWPOLYLINE
5
229
100
AcDbEntity
8
0
100
AcDbPolyline
90
6
70
1
43
0.0
10
594.53521057263492
20
331.48407199055544
42
-0.30369697790650396
10
594.31867513956399
20
331.62895734911604
10
594.31867513956399
20
331.80769056900289
42
-0.30369697790656847
10
594.53521057263492
20
331.95257592756337
42
-0.30369697790646411
10
594.75174600570585
20
331.80769056900289
10
594.75174600570585
20
331.62895734911604
42
-0.30369697790646411
0
LWPOLYLINE
5
230
100
AcDbEntity
8
0
100
AcDbPolyline
90
4
70
1
43
0.0
10
620.01263229198992
20
330.79245823387816
42
-0.41421356237309503
10
620.09530945734423
20
330.7097810685238
42
-0.41421356237309503
10
620.01263229198992
20
330.62710390316948
42
-0.41421356237309503
10
619.9299551266356
20
330.7097810685238
42
-0.41421356237325357
0
LWPOLYLINE
5
231
100
AcDbEntity
8
0
100
AcDbPolyline
90
4
70
1
43
0.0
10
588.50478593521154
20
336.15823248050998
42
-0.41421356237309503
10
588.73706939977853
20
335.92594901594305
42
-0.4142135623732644
10
588.50478593521166
20
335.69366555137606
42
-0.41421356237309503
10
588.27250247064467
20
335.92594901594305
42
-0.41421356237315149
0
CIRCLE
5
232
100
AcDbEntity
8
0
100
AcDbCircle
10
588.1708774031473
20
330.79733353253198
30
0
40
0.082500000000000004
210
0
220
0
230
1
0
ARC
5
233
100
AcDbEntity
8
0
100
AcDbCircle
10
626.18001168712749
20
334.47424729465149
30
0
40
0.059055118110113915
210
-0
220
0
230
1
100
AcDbArc
50
303.55699603801162
51
359.99968627681045
0
ARC
5
234
100
AcDbEntity
8
0
100
AcDbCircle
10
586.92777370515796
20
334.35637232097707
30
0
40
0.059034817616890035
210
0
220
0
230
1
100
AcDbArc
50
123.5622604675787
51
180.51833177905843
0
LWPOLYLINE
5
235
100
AcDbEntity
8
0
100
AcDbPolyline
90
4
70
1
43
0.0
10
620.80756353414813
20
334.61368598789073
42
-0.41421356237309503
10
620.88630369162843
20
334.69242614537109
42
-0.41421356237309503
10
620.96504384910872
20
334.61368598789079
42
-0.41421356237309503
10
620.88630369162843
20
334.53494583041044
42
-0.41421356237326151
0
ARC
5
236
100
AcDbEntity
8
0
100
AcDbCircle
10
592.36911355683981
20
347.01830090230845
30
0
40
0.059055118110195981
210
0
220
-0
230
1
100
AcDbArc
50
40.330010850532737
51
103.26930660943972
0
ARC
5
237
100
AcDbEntity
8
0
100
AcDbCircle
10
605.13653281649965
20
344.75314498541024
30
0
40
1.5551181102360498
210
-0
220
0
230
1
100
AcDbArc
50
-41.087046171612407
51
45.010441158775244
0
LINE
5
238
100
AcDbEntity
8
0
100
AcDbLine
10
613.77663369832919
20
346.80034924360251
30
0
11
613.77655892220582
21
347.76288504886094
31
0
0
LWPOLYLINE
5
239
100
AcDbEntity
8
0
100
AcDbPolyline
90
4
70
1
43
0.0
10
587.02225063902449
20
334.61368598789079
42
-0.41421356237309503
10
587.10099079650468
20
334.69242614537109
42
-0.41421356237309503
10
587.17973095398497
20
334.61368598789079
42
-0.41421356237309503
10
587.10099079650468
20
334.53494583041049
42
-0.41421356237309503
0
LWPOLYLINE
5
240
100
AcDbEntity
8
0
100
AcDbPolyline
90
4
70
1
43
0.0
10
589.41029774623507
20
335.69366555673281
42
-0.41421356237309503
10
589.1780142816682
20
335.92594902129974
42
-0.41421356237298218
10
589.41029774623507
20
336.15823248586673
42
-0.41421356237298218
10
589.64258121080195
20
335.92594902129974
42
-0.41421356237309503
0
LINE
5
241
100
AcDbEntity
8
0
100
AcDbLine
10
603.39559454100322
20
347.72977148314612
30
0
11
607.34101732379861
21
347.72614686528118
31
0
0
LWPOLYLINE
5
242
100
AcDbEntity
8
0
100
AcDbPolyline
90
4
70
1
43
0.0
10
-13.824084246582551
20
6.2646008606070529
42
-0.41421356237309503
10
-12.268966136346322
20
7.8197189708432875
42
-1.5226218756997569
10
-9.4221145906006427
20
7.6145574660137818
42
-0.72211786918030463
10
-11.577604089883373
20
5.5970279116885919
42
-0.45461705975775379
0
LINE
5
243
100
AcDbEntity
8
0
100
AcDbLine
10
621.54948634911523
20
345.64923350815582
30
0
11
621.54948634911523
21
342.42088705146284
31
0
0
LINE
5
244
100
AcDbEntity
8
0
100
AcDbLine
10
588.53592803744016
20
332.48844429298953
30
0
11
588.82523784957982
21
332.19913448084969
31
0
0
ARC
5
245
100
AcDbEntity
8
0
100
AcDbCircle
10
607.45703753471264
20
347.67071653394709
30
0
40
0.059055117911543852
210
0
220
-0
230
1
100
AcDbArc
50
89.999999807195707
51
151.92751309385019
0
ARC
5
246
100
AcDbEntity
8
0
100
AcDbCircle
10
588.91025345314733
20
332.57345989655698
30
0
40
0.38385826771652426
210
0
220
0
230
1
100
AcDbArc
50
134.99999999998801
51
192.79577249602494
0
LINE
5
247
100
AcDbEntity
8
0
100
AcDbLine
10
607.43874976899099
20
346.93065242025102
30
0
11
613.73725676392496
21
346.93089490438246
31
0
0
LINE
5
248
100
AcDbEntity
8
0
100
AcDbLine
10
599.32841769184131
20
347.72977095675026
30
0
11
603.27749997277795
21
347.72977094491216
31
0
0
ARC
5
249
100
AcDbEntity
8
0
100
AcDbCircle
10
597.89721216053056
20
340.92562528568629
30
0
40
1.5551521895843126
210
0
220
0
230
1
100
AcDbArc
50
232.81717297914719
51
307.19202518310425
0
ARC
5
250
100
AcDbEntity
8
0
100
AcDbCircle
10
607.39798241676135
20
347.70221259681517
30
0
40
0.0078740157480407681
210
0
220
0
230
1
100
AcDbArc
50
208.60583157534239
51
270.00000005128948
0
LWPOLYLINE
5
251
100
AcDbEntity
8
0
100
AcDbPolyline
90
4
70
1
43
0.0
10
598.09829385958085
20
334.53494583041032
42
-0.41421356237276202
10
598.01955370210055
20
334.61368598789079
42
-0.41421356237309503
10
598.09829385958085
20
334.69242614537109
42
-0.41421356237309503
10
598.17703401706115
20
334.61368598789079
42
-0.41421356237309503
0
ARC
5
252
100
AcDbEntity
8
0
100
AcDbCircle
10
592.42313690328388
20
347.0641647015733
30
0
40
0.011811023622127747
210
-0
220
0
230
1
100
AcDbArc
50
278.71915868421075
51
337.10830651722586
0
LWPOLYLINE
5
253
100
AcDbEntity
8
0
100
AcDbPolyline
90
4
70
1
43
0.0
10
606.41724813142196
20
342.1270790432331
42
-0.41421356237276202
10
606.33850797394166
20
342.20581920071345
42
-0.41421356237309503
10
606.41724813142196
20
342.28455935819375
42
-0.41421356237309503
10
606.49598828890237
20
342.20581920071345
42
-0.41421356237359452
0
LWPOLYLINE
5
254
100
AcDbEntity
8
0
100
AcDbPolyline
90
4
70
1
43
0.0
10
626.00698725590848
20
330.79245823387816
42
-0.41421356237309503
10
626.0896644212628
20
330.7097810685238
42
-0.41421356237293649
10
626.00698725590848
20
330.62710390316954
42
-0.41421356237293649
10
625.92431009055417
20
330.7097810685238
42
-0.41421356237309503
0
LWPOLYLINE
5
255
100
AcDbEntity
8
0
100
AcDbPolyline
90
4
70
1
43
0.0
10
597.59774584349827
20
334.61368598789073
42
-0.41421356237309503
10
597.67648600097857
20
334.69242614537103
42
-0.41421356237309503
10
597.75522615845887
20
334.61368598789073
42
-0.41421356237309503
10
597.67648600097868
20
334.53494583041044
42
-0.41421356237292856
0
ARC
5
256
100
AcDbEntity
8
0
100
AcDbCircle
10
605.13653281649954
20
344.75314498541007
30
0
40
1.5551181102360869
210
0
220
0
230
1
100
AcDbArc
50
232.81546649800501
51
318.91295382839508
0
ARC
5
257
100
AcDbEntity
8
0
100
AcDbCircle
10
626.18001104041309
20
334.35613705843281
30
0
40
0.059055118110262123
210
-0
220
0
230
1
100
AcDbArc
50
-0.00031372318952718704
51
56.442376514182719
0
LWPOLYLINE
5
258
100
AcDbEntity
8
0
100
AcDbPolyline
90
4
70
1
43
0.0
10
614.89105204626537
20
342.90881456691409
42
-0.41421356237309503
10
614.96979220374556
20
342.98755472439444
42
-0.41421356237309503
10
615.04853236122597
20
342.90881456691409
42
-0.41421356237359452
10
614.96979220374556
20
342.83007440943379
42
-0.41421356237276202
0
LWPOLYLINE
5
259
100
AcDbEntity
8
0
100
AcDbPolyline
90
4
70
1
43
0.0
10
614.96979220374556
20
345.08256583522433
42
-0.41421356237309503
10
614.89105204626537
20
345.16130599270457
42
-0.41421356237326151
10
614.96979220374556
20
345.24004615018492
42
-0.41421356237326151
10
615.04853236122597
20
345.16130599270457
42
-0.41421356237292856
0
LWPOLYLINE
5
260
100
AcDbEntity
8
0
100
AcDbPolyline
90
4
70
1
43
0.0
10
587.65584167738791
20
339.27026089649934
42
-0.41421356237290746
10
587.58595416630931
20
339.20037338542079
42
-0.41421356237309503
10
587.5160666552307
20
339.27026089649934
42
-0.41421356237309503
10
587.58595416630931
20
339.34014840757794
42
-0.41421356237309503
0
LWPOLYLINE
5
261
100
AcDbEntity
8
0
100
AcDbPolyline
90
4
70
1
43
0.0
10
587.97614680236711
20
335.26541383582202
42
-0.41421356237309503
10
587.90606806220967
20
335.19533509566452
42
-0.41421356237328211
10
587.83598932205234
20
335.26541383582207
42
-0.41421356237253382
10
587.90606806220967
20
335.33549257597946
42
-0.41421356237309503
0
LWPOLYLINE
5
262
100
AcDbEntity
8
0
100
AcDbPolyline
90
4
70
1
43
0.0
10
592.23017329115623
20
346.7194853733609
42
-0.41421356237309503
10
592.15143313367582
20
346.79822553084125
42
-0.41421356237292856
10
592.23017329115623
20
346.8769656883216
42
-0.41421356237309503
10
592.30891344863653
20
346.79822553084125
42
-0.41421356237309503
0
LWPOLYLINE
5
263
100
AcDbEntity
8
0
100
AcDbPolyline
90
4
70
1
43
0.0
10
626.00698725590848
20
339.09913391177463
42
-0.41421356237326151
10
626.08572741338878
20
339.02039375429428
42
-0.41421356237309503
10
626.00698725590848
20
338.94165359681398
42
-0.41421356237309503
10
625.92824709842819
20
339.02039375429433
42
-0.41421356237309503
0
LWPOLYLINE
5
264
100
AcDbEntity
8
0
100
AcDbPolyline
90
6
70
1
43
0.0
10
592.96074950698278
20
331.48447637403001
42
-0.30369697790646411
10
592.74421407391196
20
331.6293617325905
10
592.74421407391196
20
331.80809495247729
42
-0.30369697790646411
10
592.96074950698278
20
331.95298031103783
42
-0.30369697790646411
10
593.1772849400536
20
331.80809495247735
10
593.1772849400536
20
331.6293617325905
42
-0.30369697790646411
0
LWPOLYLINE
5
265
100
AcDbEntity
8
0
100
AcDbPolyline
90
4
70
1
43
0.0
10
593.00432415296427
20
346.11210747826976
42
-0.41421356237309503
10
593.08306431044468
20
346.03336732078941
42
-0.41421356237309503
10
593.00432415296427
20
345.95462716330911
42
-0.41421356237309503
10
592.92558399548398
20
346.03336732078941
42
-0.41421356237309503
0
LWPOLYLINE
5
266
100
AcDbEntity
8
0
100
AcDbPolyline
90
4
70
1
43
0.0
10
618.28679917252703
20
347.20505603034849
42
-0.41421356237309503
10
618.36553933000732
20
347.28379618782884
42
-0.41421356237309503
10
618.44427948748762
20
347.20505603034849
42
-0.41421356237309503
10
618.36553933000732
20
347.12631587286825
42
-0.41421356237342799
0
LWPOLYLINE
5
267
100
AcDbEntity
8
0
100
AcDbPolyline
90
4
70
1
43
0.0
10
607.1583581435641
20
342.19588696765919
42
-0.41421356237276202
10
607.07961798608392
20
342.27462712513955
42
-0.41421356237259555
10
607.1583581435641
20
342.35336728261979
42
-0.41421356237342799
10
607.23709830104463
20
342.27462712513955
42
-0.41421356237359452
0
ARC
5
268
100
AcDbEntity
8
0
100
AcDbCircle
10
626.17999010685242
20
330.53301522671501
30
0
40
0.059055118110048231
210
0
220
0
230
1
100
AcDbArc
50
269.99999994440884
51
359.99968627681045
0
LWPOLYLINE
5
269
100
AcDbEntity
8
0
100
AcDbPolyline
90
4
70
1
43
0.0
10
592.23017329116237
20
346.71948439640562
42
-0.41421356237326151
10
592.15143313368196
20
346.79822455388597
42
-0.41421356237292856
10
592.23017329116215
20
346.87696471136627
42
-0.41421356237292856
10
592.30891344864256
20
346.79822455388597
42
-0.41421356237309503
0
ARC
5
270
100
AcDbEntity
8
0
100
AcDbCircle
10
626.2191840975139
20
334.41519196205132
30
0
40
0.011811023621990657
210
0
220
0
230
1
100
AcDbArc
50
123.55699603758252
51
179.99968627681048
0
LWPOLYLINE
5
271
100
AcDbEntity
8
0
100
AcDbPolyline
90
4
70
1
43
0.0
10
596.28505199725885
20
336.62786233780042
42
-0.41421356237309503
10
596.35513073741629
20
336.55778359764287
42
-0.41421356237309503
10
596.28505199725885
20
336.48770485748543
42
-0.41421356237309503
10
596.21497325710141
20
336.55778359764287
42
-0.41421356237309503
0
LINE
5
272
100
AcDbEntity
8
0
100
AcDbLine
10
626.23906615852241
20
334.35613673507567
30
0
11
626.23904522496161
21
330.53301490335798
31
0
0
ARC
5
273
100
AcDbEntity
8
0
100
AcDbCircle
10
586.92767847476739
20
330.53301526489037
30
0
40
0.059055118110003108
210
0
220
0
230
1
100
AcDbArc
50
179.99823223676984
51
224.99911609059677
0
ARC
5
274
100
AcDbEntity
8
0
100
AcDbCircle
10
588.50478593521166
20
335.92594901594293
30
0
40
0.23228346456689689
210
0
220
0
230
1
100
AcDbArc
50
-90
51
0
0
LWPOLYLINE
5
275
100
AcDbEntity
8
0
100
AcDbPolyline
90
6
70
1
43
0.0
10
595.53904843291741
20
331.80660305613623
10
595.53904843291741
20
331.62786983624937
42
-0.30369697790646411
10
595.32251299984648
20
331.48298447768883
42
-0.30369697790641592
10
595.10597756677566
20
331.62786983624932
10
595.10597756677566
20
331.80660305613623
42
-0.30369697790646411
10
595.32251299984648
20
331.95148841469671
42
-0.30369697790641592
0
LWPOLYLINE
5
276
100
AcDbEntity
8
0
100
AcDbPolyline
90
4
70
1
43
0.0
10
614.01827732804611
20
337.63076354519438
42
-0.41421356237309503
10
614.09701748552641
20
337.55202338771414
42
-0.41421356237309503
10
614.01827732804611
20
337.47328323023379
42
-0.41421356237309503
10
613.9395371705657
20
337.55202338771414
42
-0.41421356237342799
0
ARC
5
277
100
AcDbEntity
8
0
100
AcDbCircle
10
586.88860709181824
20
334.41540713799509
30
0
40
0.011811023622076974
210
-0
220
0
230
1
100
AcDbArc
50
-56.437739532775879
51
0
0
LINE
5
278
100
AcDbEntity
8
0
100
AcDbLine
10
613.77733244615627
20
337.68783700677341
30
0
11
613.77871823124599
21
333.2922290755979
31
0
0
LWPOLYLINE
5
279
100
AcDbEntity
8
0
100
AcDbPolyline
90
4
70
1
43
0.0
10
587.8359893220512
20
336.5577835977075
42
-0.41421356237309503
10
587.90606806220865
20
336.627862337865
42
-0.41421356237272089
10
587.97614680236609
20
336.5577835977075
42
-0.41421356237309503
10
587.90606806220853
20
336.48770485755006
42
-0.41421356237309503
0
ARC
5
280
100
AcDbEntity
8
0
100
AcDbCircle
10
588.50478593521166
20
335.92594901594305
30
0
40
0.2322834645669864
210
0
220
0
230
1
100
AcDbArc
50
180
51
270
0
ARC
5
281
100
AcDbEntity
8
0
100
AcDbCircle
10
586.88860709181824
20
334.41540713799509
30
0
40
0.011811023622036501
210
-0
220
0
230
1
100
AcDbArc
50
0
51
56.437739532775907
0
LWPOLYLINE
5
282
100
AcDbEntity
8
0
100
AcDbPolyline
90
4
70
1
43
0.0
10
591.88621410820713
20
339.26992987290726
42
-0.41421356237309503
10
591.95610161928573
20
339.3398173839858
42
-0.41421356237309503
10
592.02598913036434
20
339.2699298729072
42
-0.41421356237309503
10
591.95610161928585
20
339.20004236182871
42
-0.41421356237290746
0
LWPOLYLINE
5
283
100
AcDbEntity
8
0
100
AcDbPolyline
90
4
70
1
43
0.0
10
592.92558430749193
20
339.64536311985728
42
-0.41421356237309503
10
593.00432446497223
20
339.72410327733746
42
-0.41421356237309503
10
593.08306462245253
20
339.64536311985722
42
-0.41421356237259555
10
593.00432446497223
20
339.56662296237693
42
-0.41421356237309503
0
LWPOLYLINE
5
284
100
AcDbEntity
8
0
100
AcDbPolyline
90
4
70
1
43
0.0
10
591.95512875290922
20
342.3732047029539
42
-0.41421356237309503
10
592.02501626398782
20
342.30331719187529
42
-0.41421356237309503
10
591.95512875290922
20
342.23342968079669
42
-0.41421356237328266
10
591.88524124183061
20
342.30331719187535
42
-0.41421356237309503
0
LWPOLYLINE
5
285
100
AcDbEntity
8
0
100
AcDbPolyline
90
4
70
1
43
0.0
10
592.12831442934475
20
334.6136859873456
42
-0.41421356237309503
10
592.23067663406925
20
334.71604819206999
42
-0.41421356237309503
10
592.33303883879364
20
334.6136859873456
42
-0.41421356237309503
10
592.23067663406925
20
334.51132378262122
42
-0.41421356237309503
0
LWPOLYLINE
5
286
100
AcDbEntity
8
0
100
AcDbPolyline
90
4
70
1
43
0.0
10
590.54809302182571
20
335.92594901862145
42
-0.41421356237309503
10
590.31580955725872
20
335.69366555405452
42
-0.41421356237309503
10
590.08352609269184
20
335.9259490186214
42
-0.41421356237315149
10
590.31580955725872
20
336.15823248318839
42
-0.41421356237309503
0
LWPOLYLINE
5
287
100
AcDbEntity
8
0
100
AcDbPolyline
90
4
70
1
43
0.0
10
616.88788869388316
20
334.61368598789073
42
-0.41421356237309503
10
616.80914853640286
20
334.53494583041032
42
-0.41421356237259555
10
616.73040837892256
20
334.61368598789073
42
-0.41421356237276202
10
616.80914853640286
20
334.69242614537103
42
-0.41421356237309503
0
ARC
5
288
100
AcDbEntity
8
0
100
AcDbCircle
10
613.79721483052219
20
337.74689212488374
30
0
40
0.01181102362207353
210
-0
220
0
230
1
100
AcDbArc
50
-56.442690237884371
51
0
0
LWPOLYLINE
5
289
100
AcDbEntity
8
0
100
AcDbPolyline
90
4
70
1
43
0.0
10
592.02517354470046
20
340.45324556823323
42
-0.41421356237309503
10
591.95528603362197
20
340.38335805715462
42
-0.41421356237309503
10
591.88539852254348
20
340.45324556823323
42
-0.41421356237309503
10
591.95528603362197
20
340.52313307931178
42
-0.41421356237290746
0
ARC
5
290
100
AcDbEntity
8
0
100
AcDbCircle
10
613.79721483052208
20
337.74689212488374
30
0
40
0.011811023622126018
210
-0
220
0
230
1
100
AcDbArc
50
0
51
56.442691000536584
0
LWPOLYLINE
5
291
100
AcDbEntity
8
0
100
AcDbPolyline
90
4
70
1
43
0.0
10
591.03221361532599
20
339.46472815975994
42
-0.41421356237309503
10
592.14904116332946
20
338.34790061175647
42
-0.41421356237309503
10
591.03221361532599
20
337.23107306375306
42
-0.41421356237309503
10
589.91538606732263
20
338.34790061175647
42
-0.41421356237309503
0
LWPOLYLINE
5
292
100
AcDbEntity
8
0
100
AcDbPolyline
90
4
70
1
43
0.0
10
613.9395371705657
20
337.9421788758317
42
-0.41421356237309503
10
614.01827732804611
20
338.02091903331205
42
-0.41421356237326151
10
614.09701748552629
20
337.94217887583176
42
-0.41421356237259555
10
614.01827732804611
20
337.86343871835146
42
-0.41421356237342799
0
LWPOLYLINE
5
293
100
AcDbEntity
8
0
100
AcDbPolyline
90
4
70
1
43
0.0
10
599.98273821699661
20
333.37066314427517
42
-0.41421356237309503
10
600.2150216815636
20
333.60294660884216
42
-0.41421356237309503
10
600.44730514613059
20
333.37066314427523
42
-0.4142135623732644
10
600.2150216815636
20
333.13837967970818
42
-0.41421356237309503
0
LWPOLYLINE
5
294
100
AcDbEntity
8
0
100
AcDbPolyline
90
4
70
1
43
0.0
10
596.39795850004668
20
333.37193693130342
42
-0.41421356237309503
10
596.16567503547969
20
333.13965346673649
42
-0.41421356237309503
10
595.93339157091282
20
333.37193693130342
42
-0.41421356237315149
10
596.16567503547969
20
333.6042203958703
42
-0.41421356237309503
0
LINE
5
295
100
AcDbEntity
8
0
100
AcDbLine
10
598.51841400510602
20
331.98596000365848
30
0
11
597.66841400510611
21
331.98596000365848
31
0
0
LINE
5
296
100
AcDbEntity
8
0
100
AcDbLine
10
597.66841400510611
20
331.98596000365848
30
0
11
597.66841400510611
21
333.16096000365843
31
0
0
LWPOLYLINE
5
297
100
AcDbEntity
8
0
100
AcDbPolyline
90
6
70
1
43
0.0
10
596.89743193203333
20
331.94967844258116
42
-0.30369697790650396
10
597.11396736510426
20
331.80479308402056
10
597.11396736510426
20
331.62605986413371
42
-0.30369697790646411
10
596.89743193203333
20
331.48117450557322
42
-0.30369697790646411
10
596.68089649896251
20
331.62605986413371
10
596.68089649896262
20
331.80479308402056
42
-0.30369697790635136
0
LWPOLYLINE
5
298
100
AcDbEntity
8
0
100
AcDbPolyline
90
6
70
1
43
0.0
10
596.1096950075837
20
331.95139746316721
42
-0.30369697790645572
10
596.32623044065463
20
331.80651210460672
10
596.32623044065451
20
331.62777888471987
42
-0.30369697790646411
10
596.1096950075837
20
331.48289352615939
42
-0.30369697790646411
10
595.89315957451288
20
331.62777888471987
10
595.89315957451288
20
331.80651210460672
42
-0.30369697790646411
0
ARC
5
299
100
AcDbEntity
8
0
100
AcDbCircle
10
603.85627580575454
20
335.70426926271085
30
0
40
0.1771653543307751
210
0
220
0
230
1
100
AcDbArc
50
225.01090501917471
51
315.01090501921374
0
LWPOLYLINE
5
300
100
AcDbEntity
8
0
100
AcDbPolyline
90
4
70
1
43
0.0
10
593.24782970445142
20
333.37145026326402
42
-0.41421356237309503
10
593.01554623988443
20
333.13916679869703
42
-0.41421356237309503
10
592.78326277531744
20
333.37145026326402
42
-0.41421356237309503
10
593.01554623988443
20
333.6037337278309
42
-0.41421356237309503
0
LINE
5
301
100
AcDbEntity
8
0
100
AcDbLine
10
616.66340278493703
20
337.74689412667539
30
0
11
616.66338455214725
21
334.41524425716176
31
0
0
LWPOLYLINE
5
302
100
AcDbEntity
8
0
100
AcDbPolyline
90
4
70
1
43
0.0
10
607.07961798608392
20
338.97944183944043
42
-0.41421356237309503
10
607.1583581435641
20
339.05818199692072
42
-0.41421356237309503
10
607.23709830104463
20
338.97944183944043
42
-0.41421356237326151
10
607.1583581435641
20
338.90070168196019
42
-0.41421356237259555
0
LWPOLYLINE
5
303
100
AcDbEntity
8
0
100
AcDbPolyline
90
4
70
1
43
0.0
10
594.59188192505042
20
333.13953033010876
42
-0.41421356237309503
10
594.35959846048354
20
333.37181379467575
42
-0.41421356237315149
10
594.59188192505042
20
333.60409725924268
42
-0.41421356237309503
10
594.82416538961741
20
333.37181379467575
42
-0.41421356237309503
0
LWPOLYLINE
5
304
100
AcDbEntity
8
0
100
AcDbPolyline
90
4
70
1
43
0.0
10
600.31743900585502
20
339.64535032812933
42
-0.41421356237309503
10
600.23869884837472
20
339.56661017064908
42
-0.41421356237309503
10
600.15995869089443
20
339.64535032812933
42
-0.41421356237259555
10
600.23869884837472
20
339.72409048560962
42
-0.41421356237292856
0
LWPOLYLINE
5
305
100
AcDbEntity
8
0
100
AcDbPolyline
90
4
70
1
43
0.0
10
603.14010042555446
20
339.09742796727994
42
-0.41421356237309503
10
603.06136026807405
20
339.1761681247603
42
-0.41421356237309503
10
603.14010042555446
20
339.25490828224054
42
-0.41421356237309503
10
603.21884058303476
20
339.1761681247603
42
-0.41421356237292856
0
LWPOLYLINE
5
306
100
AcDbEntity
8
0
100
AcDbPolyline
90
4
70
1
43
0.0
10
606.49595926470352
20
338.26519229795804
42
-0.41421356237309503
10
606.41721910722322
20
338.18645214047768
42
-0.41421356237309503
10
606.33847894974292
20
338.26519229795804
42
-0.41421356237292856
10
606.41721910722322
20
338.34393245543833
42
-0.41421356237259555
0
LINE
5
307
100
AcDbEntity
8
0
100
AcDbLine
10
616.66340278493703
20
337.74689412667539
30
0
11
613.80902585397462
21
337.74689412667533
31
0
0
LWPOLYLINE
5
308
100
AcDbEntity
8
0
100
AcDbPolyline
90
4
70
1
43
0.0
10
592.126833179306
20
335.69366555765697
42
-0.41421356237309503
10
591.89454971473913
20
335.92594902222385
42
-0.41421356237309503
10
592.126833179306
20
336.15823248679084
42
-0.41421356237309503
10
592.35911664387299
20
335.92594902222385
42
-0.41421356237309503
0
LWPOLYLINE
5
309
100
AcDbEntity
8
0
100
AcDbPolyline
90
4
70
1
43
0.0
10
599.71443616657234
20
339.09633402342973
42
-0.41421356237309503
10
599.63569600909204
20
339.17507418091003
42
-0.41421356237309503
10
599.71443616657234
20
339.25381433839038
42
-0.41421356237309503
10
599.79317632405275
20
339.17507418091003
42
-0.41421356237309503
0
ARC
5
310
100
AcDbEntity
8
0
100
AcDbCircle
10
603.86656639921137
20
339.96144490833092
30
0
40
0.039370078740232697
210
-0
220
0
230
1
100
AcDbArc
50
-44.989512064944392
51
37.205415819389899
0
LWPOLYLINE
5
311
100
AcDbEntity
8
0
100
AcDbPolyline
90
4
70
1
43
0.0
10
592.46171568922739
20
333.37182372656042
42
-0.41421356237309503
10
592.2294322246604
20
333.13954026199343
42
-0.41421356237309503
10
591.99714876009352
20
333.37182372656036
42
-0.41421356237315149
10
592.2294322246604
20
333.6041071911273
42
-0.41421356237309503
0
LWPOLYLINE
5
312
100
AcDbEntity
8
0
100
AcDbPolyline
90
4
70
1
43
0.0
10
607.07961798608392
20
334.61368598789079
42
-0.41421356237309503
10
607.1583581435641
20
334.69242614537103
42
-0.41421356237309503
10
607.23709830104463
20
334.61368598789073
42
-0.41421356237359452
10
607.1583581435641
20
334.53494583041044
42
-0.41421356237276202
0
LWPOLYLINE
5
313
100
AcDbEntity
8
0
100
AcDbPolyline
90
4
70
1
43
0.0
10
591.45360483284924
20
335.92594902129974
42
-0.41421356237309503
10
591.22132136828236
20
335.69366555673281
42
-0.41421356237309503
10
590.98903790371548
20
335.92594902129974
42
-0.41421356237309503
10
591.22132136828236
20
336.15823248586662
42
-0.41421356237309503
0
LWPOLYLINE
5
314
100
AcDbEntity
8
0
100
AcDbPolyline
90
4
70
1
43
0.0
10
593.93785680135329
20
336.15823248318839
42
-0.41421356237309503
10
594.17014026592017
20
335.92594901862145
42
-0.41421356237298218
10
593.93785680135329
20
335.69366555405441
42
-0.41421356237309503
10
593.7055733367863
20
335.9259490186214
42
-0.4142135623732644
0
LWPOLYLINE
5
315
100
AcDbEntity
8
0
100
AcDbPolyline
90
4
70
1
43
0.0
10
592.54583679652058
20
342.84080190821874
42
-0.41421356237309503
10
592.62457695400087
20
342.91954206569903
42
-0.41421356237292856
10
592.70331711148128
20
342.84080190821874
42
-0.41421356237309503
10
592.62457695400087
20
342.76206175073844
42
-0.41421356237309503
0
LWPOLYLINE
5
316
100
AcDbEntity
8
0
100
AcDbPolyline
90
4
70
1
43
0.0
10
593.00434113121923
20
342.12707616181996
42
-0.41421356237276202
10
592.92560097373894
20
342.20581631930031
42
-0.41421356237309503
10
593.00434113121923
20
342.28455647678061
42
-0.41421356237342799
10
593.08308128869965
20
342.20581631930037
42
-0.414213562373761
0
LWPOLYLINE
5
317
100
AcDbEntity
8
0
100
AcDbPolyline
90
4
70
1
43
0.0
10
593.03234499032965
20
336.15823248318833
42
-0.41421356237309503
10
593.26462845489664
20
335.9259490186214
42
-0.41421356237309503
10
593.03234499032965
20
335.69366555405446
42
-0.41421356237309503
10
592.80006152576277
20
335.92594901862145
42
-0.41421356237303858
0
LWPOLYLINE
5
318
100
AcDbEntity
8
0
100
AcDbPolyline
90
4
70
1
43
0.0
10
616.3347400096103
20
334.61368598789079
42
-0.41421356237309503
10
616.41348016709048
20
334.69242614537103
42
-0.41421356237326151
10
616.49222032457089
20
334.61368598789079
42
-0.41421356237309503
10
616.4134801670906
20
334.53494583041044
42
-0.41421356237309503
0
LWPOLYLINE
5
319
100
AcDbEntity
8
0
100
AcDbPolyline
90
4
70
1
43
0.0
10
591.88642573247569
20
343.38005778205667
42
-0.41421356237309503
10
591.95631324355418
20
343.44994529313527
42
-0.41421356237328266
10
592.02620075463267
20
343.38005778205661
42
-0.41421356237234469
10
591.95631324355429
20
343.31017027097812
42
-0.41421356237365781
0
ARC
5
320
100
AcDbEntity
8
0
100
AcDbCircle
10
605.13653281649954
20
340.92559110250801
30
0
40
1.5551181102362934
210
0
220
0
230
1
100
AcDbArc
50
131.10792848914704
51
217.20541581952841
0
LWPOLYLINE
5
321
100
AcDbEntity
8
0
100
AcDbPolyline
90
4
70
1
43
0.0
10
595.37952243452332
20
333.60416080884124
42
-0.41421356237292573
10
595.61180589909031
20
333.37187734427431
42
-0.41421356237315149
10
595.37952243452344
20
333.13959387970732
42
-0.41421356237309503
10
595.14723896995645
20
333.37187734427431
42
-0.4142135623732644
0
LWPOLYLINE
5
322
100
AcDbEntity
8
0
100
AcDbPolyline
90
4
70
1
43
0.0
10
593.57189894836506
20
333.37163467447277
42
-0.41421356237309503
10
593.80418241293205
20
333.60391813903965
42
-0.41421356237309503
10
594.03646587749893
20
333.37163467447277
42
-0.41421356237309503
10
593.80418241293205
20
333.13935120990578
42
-0.41421356237309503
0
LWPOLYLINE
5
323
100
AcDbEntity
8
0
100
AcDbPolyline
90
4
70
1
43
0.0
10
591.95557928130597
20
337.35047020744554
42
-0.41421356237290746
10
591.88569177022737
20
337.42035771852409
42
-0.41421356237347023
10
591.95557928130586
20
337.49024522960275
42
-0.41421356237328266
10
592.02546679238446
20
337.42035771852409
42
-0.41421356237309503
0
ARC
5
324
100
AcDbEntity
8
0
100
AcDbCircle
10
605.13650379230103
20
336.9849641997526
30
0
40
1.5551181102360707
210
-0
220
0
230
1
100
AcDbArc
50
-41.087046171618319
51
45.010441158770796
0
LWPOLYLINE
5
325
100
AcDbEntity
8
0
100
AcDbPolyline
90
4
70
1
43
0.0
10
593.00430748671727
20
343.39417396386608
42
-0.41421356237326151
10
592.92556732923708
20
343.47291412134632
42
-0.41421356237326151
10
593.00430748671727
20
343.55165427882667
42
-0.41421356237292856
10
593.08304764419756
20
343.47291412134638
42
-0.41421356237309503
0
LWPOLYLINE
5
326
100
AcDbEntity
8
0
100
AcDbPolyline
90
4
70
1
43
0.0
10
590.17559507733256
20
337.41945571627923
42
-0.41421356237309503
10
590.10570756625407
20
337.34956820520068
42
-0.41421356237290746
10
590.03582005517558
20
337.41945571627923
42
-0.41421356237309503
10
590.10570756625407
20
337.48934322735772
42
-0.41421356237290746
0
LWPOLYLINE
5
327
100
AcDbEntity
8
0
100
AcDbPolyline
90
4
70
1
43
0.0
10
602.80011590558206
20
339.56662296237687
42
-0.41421356237309503
10
602.72137574810176
20
339.64536311985717
42
-0.41421356237309503
10
602.80011590558206
20
339.72410327733752
42
-0.41421356237309503
10
602.87885606306236
20
339.64536311985717
42
-0.41421356237309503
0
ARC
5
328
100
AcDbEntity
8
0
100
AcDbCircle
10
604.1728495449081
20
339.65527337184352
30
0
40
0.039370078740228742
210
0
220
-0
230
1
100
AcDbArc
50
52.815466497869721
51
135.01048793470468
0
LWPOLYLINE
5
329
100
AcDbEntity
8
0
100
AcDbPolyline
90
4
70
1
43
0.0
10
614.01827732804611
20
334.53494583041044
42
-0.41421356237309503
10
613.93953717056581
20
334.61368598789079
42
-0.41421356237309503
10
614.01827732804611
20
334.69242614537103
42
-0.41421356237309503
10
614.09701748552641
20
334.61368598789079
42
-0.41421356237326151
0
ARC
5
330
100
AcDbEntity
8
0
100
AcDbCircle
10
613.83638756085827
20
337.80594724525486
30
0
40
0.059055118110272024
210
0
220
0
230
1
100
AcDbArc
50
180
51
236.44269405362809
0
LINE
5
331
100
AcDbEntity
8
0
100
AcDbLine
10
601.99555427810219
20
330.47396013212597
30
0
11
586.92767847470998
21
330.47396014678037
31
0
0
LINE
5
332
100
AcDbEntity
8
0
100
AcDbLine
10
626.23911094889866
20
342.53625796503979
30
0
11
626.2390668052368
21
334.47424697129441
31
0
0
LWPOLYLINE
5
333
100
AcDbEntity
8
0
100
AcDbPolyline
90
4
70
1
43
0.0
10
592.54600162094869
20
339.17507833951828
42
-0.41421356237309503
10
592.62474177842898
20
339.25381849699863
42
-0.41421356237309503
10
592.70348193590928
20
339.17507833951828
42
-0.41421356237309503
10
592.6247417784291
20
339.09633818203804
42
-0.41421356237292856
0
ARC
5
334
100
AcDbEntity
8
0
100
AcDbCircle
10
613.8363875642666
20
337.68783700677346
30
0
40
0.059055118110244324
210
0
220
0
230
1
100
AcDbArc
50
123.55730976190131
51
180
0
LWPOLYLINE
5
335
100
AcDbEntity
8
0
100
AcDbPolyline
90
4
70
1
43
0.0
10
595.48698438644431
20
343.47292691307428
42
-0.41421356237309503
10
595.5657245439246
20
343.55166707055457
42
-0.41421356237309503
10
595.6444647014049
20
343.47292691307433
42
-0.41421356237259555
10
595.5657245439246
20
343.39418675559398
42
-0.41421356237359452
0
LWPOLYLINE
5
336
100
AcDbEntity
8
0
100
AcDbPolyline
90
4
70
1
43
0.0
10
596.61653186971046
20
342.12707616181996
42
-0.41421356237309503
10
596.53779171223016
20
342.20581631930031
42
-0.41421356237309503
10
596.61653186971046
20
342.28455647678061
42
-0.41421356237309503
10
596.69527202719087
20
342.20581631930031
42
-0.41421356237309503
0
LWPOLYLINE
5
337
100
AcDbEntity
8
0
100
AcDbPolyline
90
4
70
1
43
0.0
10
596.61639498410705
20
343.55165716023987
42
-0.41421356237309503
10
596.69513514158734
20
343.47291700275952
42
-0.41421356237309503
10
596.61639498410705
20
343.39417684527922
42
-0.41421356237292856
10
596.53765482662675
20
343.47291700275952
42
-0.41421356237309503
0
LWPOLYLINE
5
338
100
AcDbEntity
8
0
100
AcDbPolyline
90
4
70
1
43
0.0
10
595.5657551830376
20
342.28455935819375
42
-0.41421356237309503
10
595.64449534051812
20
342.20581920071339
42
-0.41421356237359452
10
595.5657551830376
20
342.1270790432331
42
-0.41421356237276202
10
595.48701502555741
20
342.20581920071345
42
-0.41421356237259555
0
LWPOLYLINE
5
339
100
AcDbEntity
8
0
100
AcDbPolyline
90
4
70
1
43
0.0
10
596.61641165035405
20
346.11211035968296
42
-0.41421356237259555
10
596.69515180783435
20
346.03337020220255
42
-0.41421356237276202
10
596.61641165035417
20
345.95463004472225
42
-0.41421356237359452
10
596.53767149287376
20
346.03337020220255
42
-0.41421356237292856
0
LWPOLYLINE
5
340
100
AcDbEntity
8
0
100
AcDbPolyline
90
4
70
1
43
0.0
10
595.56573820478275
20
345.95463004472219
42
-0.41421356237309503
10
595.48699804730245
20
346.03337020220255
42
-0.41421356237292856
10
595.56573820478263
20
346.11211035968296
42
-0.41421356237259555
10
595.64447836226304
20
346.03337020220255
42
-0.41421356237309503
0
LINE
5
341
100
AcDbEntity
8
0
100
AcDbLine
10
597.66841400510611
20
331.98596000365848
30
0
11
598.51841400510602
21
333.16096000365843
31
0
0
LWPOLYLINE
5
342
100
AcDbEntity
8
0
100
AcDbPolyline
90
4
70
1
43
0.0
10
599.42731310981242
20
333.60262798624177
42
-0.41421356237286927
10
599.65959657437929
20
333.37034452167484
42
-0.41421356237309503
10
599.42731310981242
20
333.1380610571079
42
-0.41421356237298218
10
599.19502964524543
20
333.37034452167484
42
-0.41421356237309503
0
LINE
5
343
100
AcDbEntity
8
0
100
AcDbLine
10
597.66841400510611
20
333.16096000365843
30
0
11
598.51841400510602
21
333.16096000365843
31
0
0
LINE
5
344
100
AcDbEntity
8
0
100
AcDbLine
10
598.51841400510602
20
333.16096000365843
30
0
11
598.51841400510602
21
331.98596000365848
31
0
0
LWPOLYLINE
5
345
100
AcDbEntity
8
0
100
AcDbPolyline
90
6
70
1
43
0.0
10
601.89838562043406
20
333.46002975421862
10
601.89838562043406
20
333.28129653433172
42
-0.30369697790646411
10
601.68185018736324
20
333.13641117577123
42
-0.30369697790641592
10
601.46531475429242
20
333.28129653433172
10
601.46531475429242
20
333.46002975421857
42
-0.30369697790646411
10
601.68185018736324
20
333.60491511277911
42
-0.30369697790646411
0
LINE
5
346
100
AcDbEntity
8
0
100
AcDbLine
10
598.51841400510602
20
331.98596000365848
30
0
11
597.66841400510611
21
333.16096000365843
31
0
0
CIRCLE
5
347
100
AcDbEntity
8
0
100
AcDbCircle
10
601.77836102555057
20
334.17832571694959
30
0
40
0.082500000000000004
210
0
220
0
230
1
0
CIRCLE
5
348
100
AcDbEntity
8
0
100
AcDbCircle
10
604.60426664510828
20
331.78162837654116
30
0
40
0.26549999999999946
210
0
220
0
230
1
0
LINE
5
349
100
AcDbEntity
8
0
100
AcDbLine
10
604.7095776118465
20
325.56035444330274
30
0
11
604.7095776118465
21
328.31625995511371
31
0
0
LINE
5
350
100
AcDbEntity
8
0
100
AcDbLine
10
603.31482965204793
20
329.48083716873191
30
0
11
602.55233127039673
21
330.28270562912331
31
0
0
LINE
5
351
100
AcDbEntity
8
0
100
AcDbLine
10
603.98157264673068
20
335.57901646068018
30
0
11
604.14499174612422
21
335.74249539843134
31
0
0
LINE
5
352
100
AcDbEntity
8
0
100
AcDbLine
10
604.11902643074416
20
328.31625995511376
30
0
11
604.11902643074416
21
325.56035444330274
31
0
0
ARC
5
353
100
AcDbEntity
8
0
100
AcDbCircle
10
603.85627580575454
20
335.70426926271085
30
0
40
0.17716535433074346
210
0
220
0
230
1
100
AcDbArc
50
135.01090501918773
51
225.01090501917471
0
LWPOLYLINE
5
354
100
AcDbEntity
8
0
100
AcDbPolyline
90
4
70
1
43
0.0
10
606.33846528888478
20
335.70474900882971
42
-0.41421356237292856
10
606.41720544636519
20
335.78348916631012
42
-0.41421356237276202
10
606.49594560384537
20
335.70474900882976
42
-0.41421356237309503
10
606.41720544636507
20
335.62600885134947
42
-0.41421356237309503
0
SPLINE
5
355
100
AcDbEntity
8
0
100
AcDbSpline
70
0
71
3
72
11
73
7
74
0
42
0.000000001
43
0.0000000001
44
0.0000000001
40
0
40
0
40
0
40
0
40
39.493341781749223
40
98.709185770871045
40
159.57806044535982
40
175.04390341281442
40
175.04390341281442
40
175.04390341281442
40
175.04390341281442
10
592.47583848013358
20
347.10225918445803
30
0
10
592.98463811475972
20
347.2022789335731
30
0
10
594.25657968625478
20
347.45062477065812
30
0
10
596.34673588828014
20
347.63296446173223
30
0
10
598.12405301067372
20
347.69916130684032
30
0
10
599.12551571705126
20
347.72461408150184
30
0
10
599.32841769184131
20
347.72977095675026
30
0
0
ARC
5
356
100
AcDbEntity
8
0
100
AcDbCircle
10
611.10245803318458
20
329.59690493065432
30
0
40
0.87711181865516774
210
0
220
-0
230
1
100
AcDbArc
50
89.348991564969239
51
128.5664972897475
0
CIRCLE
5
357
100
AcDbEntity
8
0
100
AcDbCircle
10
608.53240113329718
20
330.41758258698906
30
0
40
0.083136237453994968
210
0
220
0
230
1
0
LINE
5
358
100
AcDbEntity
8
0
100
AcDbLine
10
607.43874976899099
20
333.25284597847826
30
0
11
613.73934815825112
21
333.25284658481689
31
0
0
ARC
5
359
100
AcDbEntity
8
0
100
AcDbCircle
10
602.0055200192287
20
329.59690493065449
30
0
40
0.87711181865502019
210
0
220
-0
230
1
100
AcDbArc
50
51.433502710253656
51
90.65100843503086
0
CIRCLE
5
360
100
AcDbEntity
8
0
100
AcDbCircle
10
607.81570113329724
20
330.41758258698906
30
0
40
0.19149999999999998
210
0
220
0
230
1
0
ARC
5
361
100
AcDbEntity
8
0
100
AcDbCircle
10
605.1365037923008
20
336.98496419975277
30
0
40
1.5551181102363907
210
0
220
0
230
1
100
AcDbArc
50
232.81546649800924
51
318.91295382838246
0
LWPOLYLINE
5
362
100
AcDbEntity
8
0
100
AcDbPolyline
90
4
70
1
43
0.0
10
606.3384943130834
20
339.64537591158512
42
-0.41421356237309503
10
606.4172344705637
20
339.72411606906542
42
-0.41421356237292856
10
606.49597462804411
20
339.64537591158512
42
-0.41421356237359452
10
606.41723447056393
20
339.56663575410471
42
-0.41421356237259555
0
ARC
5
363
100
AcDbEntity
8
0
100
AcDbCircle
10
603.87160664510816
20
330.03761416179196
30
0
40
0.78740157480299766
210
0
220
0
230
1
100
AcDbArc
50
224.99999999999125
51
270.00000000000824
0
CIRCLE
5
364
100
AcDbEntity
8
0
100
AcDbCircle
10
609.34213464510822
20
332.02210958698902
30
0
40
0.374
210
0
220
0
230
1
0
ARC
5
365
100
AcDbEntity
8
0
100
AcDbCircle
10
605.13653281649931
20
340.92559110250795
30
0
40
1.5551181102364462
210
-0
220
0
230
1
100
AcDbArc
50
-41.087046171605742
51
45.01044115876487
0
LINE
5
366
100
AcDbEntity
8
0
100
AcDbLine
10
601.99555427810219
20
330.47396013212597
30
0
11
601.99557584761601
21
334.41532452822315
31
0
0
ARC
5
367
100
AcDbEntity
8
0
100
AcDbCircle
10
613.73934815446228
20
333.29221666355721
30
0
40
0.039370078740345642
210
-0
220
0
230
1
100
AcDbArc
50
270.00000551394913
51
315.00903445794239
0
ARC
5
368
100
AcDbEntity
8
0
100
AcDbCircle
10
605.13650379230091
20
336.98496419975254
30
0
40
1.555118110236261
210
0
220
-0
230
1
100
AcDbArc
50
45.010441158769325
51
131.10792848914883
0
CIRCLE
5
369
100
AcDbEntity
8
0
100
AcDbCircle
10
606.7814866451082
20
332.02210958698902
30
0
40
0.374
210
0
220
0
230
1
0
SPLINE
5
370
100
AcDbEntity
8
0
100
AcDbSpline
70
0
71
3
72
14
73
10
74
0
42
0.000000001
43
0.0000000001
44
0.0000000001
40
0
40
0
40
0
40
0
40
94.074213406790932
40
190.22246044394524
40
260.82798094401551
40
305.05722477397285
40
337.93346459869917
40
356.48090088397203
40
372.11344451039531
40
372.11344451039531
40
372.11344451039531
40
372.11344451039531
10
613.8397851758632
20
347.72264885663355
30
0
10
615.07453590401235
20
347.6922980385142
30
0
10
617.57112441420952
20
347.62855689589219
30
0
10
620.97105106742538
20
347.13222049347331
30
0
10
623.61557937425562
20
346.22236881316587
30
0
10
625.22665893467843
20
345.09614788085059
30
0
10
625.97655240342181
20
344.04987980627948
30
0
10
626.21327334643104
20
343.19058928153999
30
0
10
626.23100239668952
20
342.74160517744303
30
0
10
626.23911094889866
20
342.53625796503979
30
0
0
LINE
5
371
100
AcDbEntity
8
0
100
AcDbLine
10
603.98160167092942
20
339.51964336343559
30
0
11
604.14502077032307
21
339.6831223011867
31
0
0
CIRCLE
5
372
100
AcDbEntity
8
0
100
AcDbCircle
10
604.60426664510828
20
330.45032510365348
30
0
40
0.26549999999999946
210
0
220
0
230
1
0
LINE
5
373
100
AcDbEntity
8
0
100
AcDbLine
10
586.86874130325589
20
334.47497601188286
30
0
11
586.8687270576944
21
342.53601675608718
31
0
0
LINE
5
374
100
AcDbEntity
8
0
100
AcDbLine
10
610.55564677717859
20
330.28270562428537
30
0
11
609.79314840036523
21
329.48083716873191
31
0
0
LINE
5
375
100
AcDbEntity
8
0
100
AcDbLine
10
626.17999010679512
20
330.47396010860496
30
0
11
611.11242377145379
21
330.47396012325913
31
0
0
CIRCLE
5
376
100
AcDbEntity
8
0
100
AcDbCircle
10
607.09900113329718
20
330.41758258698906
30
0
40
0.08313623745399655
210
0
220
0
230
1
0
LINE
5
377
100
AcDbEntity
8
0
100
AcDbLine
10
609.23637140730489
20
329.25021258698899
30
0
11
603.87160664510827
21
329.25021258698899
31
0
0
LINE
5
378
100
AcDbEntity
8
0
100
AcDbLine
10
603.73100616537874
20
339.77014714323064
30
0
11
603.89442513922427
21
339.93362595538775
31
0
0
ARC
5
379
100
AcDbEntity
8
0
100
AcDbCircle
10
603.85630482995327
20
339.64489616546621
30
0
40
0.17716535433068017
210
0
220
0
230
1
100
AcDbArc
50
135.01090501916175
51
225.01090501920069
0
ARC
5
380
100
AcDbEntity
8
0
100
AcDbCircle
10
605.13653281649954
20
340.92559110250784
30
0
40
1.5551181102361753
210
0
220
0
230
1
100
AcDbArc
50
232.81546649801004
51
318.91295382839189
0
ARC
5
381
100
AcDbEntity
8
0
100
AcDbCircle
10
603.85630482995327
20
339.64489616546621
30
0
40
0.17716535433068017
210
0
220
0
230
1
100
AcDbArc
50
225.01090501920069
51
315.01090501921374
0
ARC
5
382
100
AcDbEntity
8
0
100
AcDbCircle
10
605.1365037923008
20
336.98496419975254
30
0
40
1.5551181102362346
210
0
220
0
230
1
100
AcDbArc
50
131.10792848914565
51
217.20541581952597
0
ARC
5
383
100
AcDbEntity
8
0
100
AcDbCircle
10
604.17282052070925
20
335.71464646908839
30
0
40
0.039370078740138988
210
0
220
-0
230
1
100
AcDbArc
50
52.815466497819727
51
135.0104879348217
0
LINE
5
384
100
AcDbEntity
8
0
100
AcDbLine
10
603.73097714118001
20
335.82952024047529
30
0
11
603.89439611502542
21
335.9929990526324
31
0
0
ARC
5
385
100
AcDbEntity
8
0
100
AcDbCircle
10
603.86653737501274
20
336.02081800557556
30
0
40
0.039370078740201028
210
-0
220
0
230
1
100
AcDbArc
50
-44.989512065119854
51
37.20541581945578
0
LINE
5
386
100
AcDbEntity
8
0
100
AcDbLine
10
615.21090367194995
20
345.64923350815582
30
0
11
615.21090367194995
21
342.42088705146284
31
0
0
ARC
5
387
100
AcDbEntity
8
0
100
AcDbCircle
10
592.42313690328388
20
347.06416470157313
30
0
40
0.011811023621975468
210
0
220
0
230
1
100
AcDbArc
50
220.33001085012498
51
278.71915868433609
0
ARC
5
388
100
AcDbEntity
8
0
100
AcDbCircle
10
588.50478593521154
20
335.92594901594305
30
0
40
0.23228346456689689
210
-0
220
0
230
1
100
AcDbArc
50
0
51
90
0
SPLINE
5
389
100
AcDbEntity
8
0
100
AcDbSpline
70
0
71
3
72
15
73
11
74
0
42
0.000000001
43
0.0000000001
44
0.0000000001
40
0
40
0
40
0
40
0
40
16.98343887071087
40
35.853742041514124
40
73.123849678033821
40
101.54932196433083
40
132.58042561947377
40
156.27904721985988
40
175.72385219782836
40
195.78342590117893
40
195.78342590117893
40
195.78342590117893
40
195.78342590117893
10
586.86872705769451
20
342.53601675608712
30
0
10
586.87796472383366
20
342.75925546552588
30
0
10
586.89746636312714
20
343.23053476077507
30
0
10
587.17743516370047
20
344.16196841734092
30
0
10
587.88584174516109
20
345.0606211323003
30
0
10
588.91138587140699
20
345.81554928929273
30
0
10
589.88862933681162
20
346.31185956547586
30
0
10
590.80059031192695
20
346.65435048937314
30
0
10
591.5949415926159
20
346.89503475993672
30
0
10
592.09929122852668
20
347.01534523016539
30
0
10
592.35555873174678
20
347.07577936515935
30
0
0
LWPOLYLINE
5
390
100
AcDbEntity
8
0
100
AcDbPolyline
90
4
70
1
43
0.0
10
606.41723447056381
20
343.55166995196771
42
-0.41421356237309503
10
606.49597462804411
20
343.47292979448741
42
-0.41421356237309503
10
606.41723447056393
20
343.39418963700717
42
-0.41421356237326151
10
606.3384943130834
20
343.47292979448747
42
-0.41421356237309503
0
ARC
5
391
100
AcDbEntity
8
0
100
AcDbCircle
10
605.13653281649954
20
340.92559110250784
30
0
40
1.5551181102364193
210
0
220
-0
230
1
100
AcDbArc
50
45.010441158773759
51
131.10792848914289
0
LINE
5
392
100
AcDbEntity
8
0
100
AcDbLine
10
613.77662661520719
20
346.89152459828023
30
0
11
613.77733244274805
21
337.80594724553038
31
0
0
ARC
5
393
100
AcDbEntity
8
0
100
AcDbCircle
10
615.2502737506901
20
345.64923350815582
30
0
40
0.039370078740166431
210
0
220
-0
230
1
100
AcDbArc
50
90
51
180
0
ARC
5
394
100
AcDbEntity
8
0
100
AcDbCircle
10
588.50478593521154
20
335.92594901594305
30
0
40
0.23228346456689689
210
0
220
-0
230
1
100
AcDbArc
50
90
51
180
0
ARC
5
395
100
AcDbEntity
8
0
100
AcDbCircle
10
615.2502737506901
20
342.4208870514629
30
0
40
0.039370078740211187
210
0
220
0
230
1
100
AcDbArc
50
180
51
270
0
ARC
5
396
100
AcDbEntity
8
0
100
AcDbCircle
10
586.92777370515785
20
334.47444195501311
30
0
40
0.05903481761688633
210
0
220
0
230
1
100
AcDbArc
50
179.48166822099574
51
236.43773953251323
0
ARC
5
397
100
AcDbEntity
8
0
100
AcDbCircle
10
626.21918409751413
20
334.41519196205132
30
0
40
0.011811023622124038
210
0
220
0
230
1
100
AcDbArc
50
179.99968627681048
51
236.44237651396793
0
LINE
5
398
100
AcDbEntity
8
0
100
AcDbLine
10
615.2502737506901
20
345.64923350815582
30
0
11
615.2502737506901
21
342.42088705146284
31
0
0
ARC
5
399
100
AcDbEntity
8
0
100
AcDbCircle
10
592.50905927457882
20
347.02788434943744
30
0
40
0.081456965742099291
210
0
220
0
230
1
100
AcDbArc
50
114.06874565330628
51
157.1083065175001
0
ARC
5
400
100
AcDbEntity
8
0
100
AcDbCircle
10
601.51940059065964
20
344.75326045122762
30
0
40
1.555118110236261
210
0
220
-0
230
1
100
AcDbArc
50
45.010441158767847
51
131.10792848914565
0
ARC
5
401
100
AcDbEntity
8
0
100
AcDbCircle
10
603.39561019690234
20
347.6707165482261
30
0
40
0.059054936995248559
210
0
220
0
230
1
100
AcDbArc
50
90.015189533681152
51
151.92796841836602
0
ARC
5
402
100
AcDbEntity
8
0
100
AcDbCircle
10
603.33655503202738
20
347.70221213866091
30
0
40
0.007874015747982837
210
0
220
0
230
1
100
AcDbArc
50
208.07270789484051
51
270.00045785532694
0
LWPOLYLINE
5
403
100
AcDbEntity
8
0
100
AcDbPolyline
90
4
70
1
43
0.0
10
600.15997535714143
20
342.20580352757236
42
-0.41421356237309503
10
600.23871551462173
20
342.2845436850526
42
-0.41421356237342799
10
600.31745567210203
20
342.20580352757236
42
-0.41421356237309503
10
600.23871551462173
20
342.12706337009206
42
-0.41421356237276202
0
LWPOLYLINE
5
404
100
AcDbEntity
8
0
100
AcDbPolyline
90
4
70
1
43
0.0
10
603.13908006924066
20
347.51075905701566
42
-0.41421356237309503
10
603.21782022672107
20
347.43201889953531
42
-0.41421356237326151
10
603.13908006924078
20
347.35327874205501
42
-0.41421356237326151
10
603.06033991176037
20
347.43201889953536
42
-0.41421356237292856
0
LWPOLYLINE
5
405
100
AcDbEntity
8
0
100
AcDbPolyline
90
4
70
1
43
0.0
10
599.1778120413145
20
343.55166995196771
42
-0.41421356237309503
10
599.25655219879468
20
343.47292979448747
42
-0.41421356237326151
10
599.1778120413145
20
343.39418963700712
42
-0.41421356237309503
10
599.0990718838342
20
343.47292979448747
42
-0.41421356237309503
0
LWPOLYLINE
5
406
100
AcDbEntity
8
0
100
AcDbPolyline
90
4
70
1
43
0.0
10
603.77709392212319
20
346.03337020220255
42
-0.41421356237309503
10
603.85583407960348
20
346.11211035968273
42
-0.414213562373761
10
603.93457423708389
20
346.03337020220249
42
-0.41421356237309503
10
603.8558340796036
20
345.95463004472219
42
-0.41421356237326151
0
LWPOLYLINE
5
407
100
AcDbEntity
8
0
100
AcDbPolyline
90
4
70
1
43
0.0
10
602.87885606306236
20
346.03348854943312
42
-0.41421356237309503
10
602.80011590558195
20
345.95474839195271
42
-0.41421356237309503
10
602.72137574810165
20
346.03348854943306
42
-0.41421356237309503
10
602.80011590558195
20
346.11222870691341
42
-0.41421356237292856
0
LWPOLYLINE
5
408
100
AcDbEntity
8
0
100
AcDbPolyline
90
4
70
1
43
0.0
10
600.23870185376359
20
345.95474551053968
42
-0.41421356237326151
10
600.15996169628318
20
346.03348566801998
42
-0.41421356237309503
10
600.23870185376359
20
346.11222582550027
42
-0.41421356237309503
10
600.31744201124388
20
346.03348566801998
42
-0.41421356237309503
0
LWPOLYLINE
5
409
100
AcDbEntity
8
0
100
AcDbPolyline
90
4
70
1
43
0.0
10
602.8096344251428
20
346.89914969406459
42
-0.41421356237309503
10
602.94742970073344
20
347.03694496965522
42
-0.41421356237309503
10
603.08522497632396
20
346.89914969406459
42
-0.41421356237309503
10
602.94742970073344
20
346.76135441847407
42
-0.41421356237280965
0
LWPOLYLINE
5
410
100
AcDbEntity
8
0
100
AcDbPolyline
90
4
70
1
43
0.0
10
604.06313663080948
20
346.97788985063812
42
-0.41421356237309503
10
604.14187678828978
20
346.89914969315788
42
-0.41421356237276202
10
604.06313663080948
20
346.82040953567758
42
-0.41421356237359452
10
603.98439647332918
20
346.89914969315788
42
-0.41421356237292856
0
LINE
5
411
100
AcDbEntity
8
0
100
AcDbLine
10
600.11387393953885
20
343.59781649195037
30
0
11
600.27729291338426
21
343.76129530410742
31
0
0
LWPOLYLINE
5
412
100
AcDbEntity
8
0
100
AcDbPolyline
90
4
70
1
43
0.0
10
598.69053993695388
20
346.89914969406459
42
-0.41421356237309503
10
598.76928009443418
20
346.97788985154494
42
-0.41421356237309503
10
598.84802025191459
20
346.89914969406459
42
-0.41421356237309503
10
598.76928009443418
20
346.82040953658429
42
-0.41421356237309503
0
ARC
5
413
100
AcDbEntity
8
0
100
AcDbCircle
10
600.55571731906821
20
343.48294272056336
30
0
40
0.039370078740103322
210
0
220
-0
230
1
100
AcDbArc
50
52.815466497951533
51
135.0104879349972
0
LINE
5
414
100
AcDbEntity
8
0
100
AcDbLine
10
600.36446944508941
20
343.34731271215526
30
0
11
600.52788854448306
21
343.51079164990642
31
0
0
LWPOLYLINE
5
415
100
AcDbEntity
8
0
100
AcDbPolyline
90
4
70
1
43
0.0
10
599.17782570217253
20
345.95463292613533
42
-0.41421356237309503
10
599.09908554469223
20
346.03337308361569
42
-0.41421356237309503
10
599.17782570217253
20
346.11211324109604
42
-0.41421356237309503
10
599.25656585965294
20
346.03337308361569
42
-0.41421356237309503
0
LWPOLYLINE
5
416
100
AcDbEntity
8
0
100
AcDbPolyline
90
4
70
1
43
0.0
10
603.61160494849844
20
347.43201889953531
42
-0.41421356237326151
10
603.53286479101814
20
347.35327874205495
42
-0.41421356237276202
10
603.45412463353784
20
347.43201889953536
42
-0.41421356237309503
10
603.53286479101814
20
347.51075905701555
42
-0.41421356237342799
0
LWPOLYLINE
5
417
100
AcDbEntity
8
0
100
AcDbPolyline
90
4
70
1
43
0.0
10
597.98032832747151
20
347.43201889953531
42
-0.41421356237309503
10
597.90158816999121
20
347.35327874205501
42
-0.41421356237309503
10
597.8228480125108
20
347.43201889953531
42
-0.41421356237309503
10
597.90158816999121
20
347.51075905701566
42
-0.41421356237309503
0
LWPOLYLINE
5
418
100
AcDbEntity
8
0
100
AcDbPolyline
90
4
70
1
43
0.0
10
599.25668607900923
20
342.20581920071339
42
-0.41421356237309503
10
599.17794592152893
20
342.1270790432331
42
-0.41421356237292856
10
599.09920576404863
20
342.20581920071339
42
-0.41421356237309503
10
599.17794592152893
20
342.28455935819375
42
-0.41421356237309503
0
ARC
5
419
100
AcDbEntity
8
0
100
AcDbCircle
10
600.24943417337158
20
343.7891142570507
30
0
40
0.039370078740201028
210
-0
220
0
230
1
100
AcDbArc
50
-44.989512065119854
51
37.20541581945578
0
ARC
5
420
100
AcDbEntity
8
0
100
AcDbCircle
10
603.27750007058671
20
347.67071586670193
30
0
40
0.059055078210280269
210
0
220
-0
230
1
100
AcDbArc
50
28.072707894726996
51
90.000094894963055
0
LWPOLYLINE
5
421
100
AcDbEntity
8
0
100
AcDbPolyline
90
4
70
1
43
0.0
10
599.45222849748632
20
344.75314498541019
42
-0.41421356237309503
10
597.89711038725011
20
343.19802687517398
42
-0.41421356237309503
10
596.3419922770139
20
344.75314498541019
42
-0.41421356237309503
10
597.89711038725011
20
346.30826309564645
42
-0.41421356237309503
0
ARC
5
422
100
AcDbEntity
8
0
100
AcDbCircle
10
603.3365605366788
20
347.70220296428505
30
0
40
0.0078648432543995707
210
0
220
0
230
1
100
AcDbArc
50
269.9603567230584
51
331.96739323695056
0
ARC
5
423
100
AcDbEntity
8
0
100
AcDbCircle
10
597.89723051836199
20
340.92565249281455
30
0
40
1.5551469419674575
210
0
220
0
230
1
100
AcDbArc
50
90.001841154690851
51
153.60662119007515
0
ARC
5
424
100
AcDbEntity
8
0
100
AcDbCircle
10
600.23917260411338
20
343.47256551418587
30
0
40
0.17716535433074346
210
0
220
0
230
1
100
AcDbArc
50
225.01090501917471
51
315.0109050191877
0
ARC
5
425
100
AcDbEntity
8
0
100
AcDbCircle
10
601.51940059065964
20
344.75326045122767
30
0
40
1.5551181102362346
210
0
220
0
230
1
100
AcDbArc
50
131.10792848914704
51
217.20541581952597
0
LINE
5
426
100
AcDbEntity
8
0
100
AcDbLine
10
604.26490828435271
20
347.11568512804223
30
0
11
604.26490828435271
21
346.68261426190048
31
0
0
ARC
5
427
100
AcDbEntity
8
0
100
AcDbCircle
10
600.23917260411338
20
343.47256551418593
30
0
40
0.17716535433071184
210
0
220
0
230
1
100
AcDbArc
50
135.01090501920075
51
225.0109050191877
0
ARC
5
428
100
AcDbEntity
8
0
100
AcDbCircle
10
597.89723051836188
20
340.92565249281472
30
0
40
1.5551469419672705
210
0
220
-0
230
1
100
AcDbArc
50
26.397061119291426
51
90.001841154686673
0
LINE
5
429
100
AcDbEntity
8
0
100
AcDbLine
10
606.55398902620664
20
347.72686989979093
30
0
11
606.55398902620664
21
329.25021258698899
31
0
0
LWPOLYLINE
5
430
100
AcDbEntity
8
0
100
AcDbPolyline
90
4
70
1
43
0.0
10
5.9839348132324686
20
-5.1487683696883666
42
-0.41421356237339102
10
5.8953521360671051
20
-5.2373510468538189
42
-0.41421356237309503
10
5.8067694589017425
20
-5.148768369688411
42
-0.41421356237309503
10
5.8953521360671051
20
-5.0601856925230475
42
-0.41421356237309503
0
LWPOLYLINE
5
431
100
AcDbEntity
8
0
100
AcDbPolyline
90
4
70
1
43
0.0
10
7.4410214274056159
20
-5.1487683696885007
42
-0.41421356237309503
10
7.3524387502402524
20
-5.2373510468538642
42
-0.41421356237309503
10
7.2638560730748898
20
-5.1487683696884554
42
-0.41421356237353901
10
7.3524387502402524
20
-5.0601856925231816
42
-0.41421356237309503
0
LWPOLYLINE
5
432
100
AcDbEntity
8
0
100
AcDbPolyline
90
11
70
1
43
0.0
10
6.7331846245653155
20
-6.1615005556574047
10
6.5578305043543432
20
-6.1615005635406028
42
-0.41421352925879712
10
6.5184604238442878
20
-6.1221304910215677
10
6.5184602807743257
20
-5.2167137377281732
10
6.9479088030115994
20
-5.2167137329015398
10
6.9479088030115994
20
-7.0669183633577273
42
-0.41421354920569292
10
6.9085387260414119
20
-7.1062884420978492
10
6.879916775637132
20
-7.1062884433845692
42
-0.41421357554049726
10
6.8405466951270766
20
-7.0669183646444473
10
6.8405466951270766
20
-6.6346083759231256
10
6.7331845872425529
20
-6.6346083807497136
0
ARC
5
433
100
AcDbEntity
8
0
100
AcDbCircle
10
6.1641296310734628
20
-5.3347294357263575
30
0
40
0.039370078740166466
210
0
220
-0
230
1
100
AcDbArc
50
89.99999742419179
51
180
0
ARC
5
434
100
AcDbEntity
8
0
100
AcDbCircle
10
6.1927515814776539
20
-5.334729437013122
30
0
40
0.039370078740211187
210
0
220
-0
230
1
100
AcDbArc
50
0
51
89.999997424062528
0
SPLINE
5
435
100
AcDbEntity
8
0
100
AcDbSpline
70
0
71
3
72
15
73
11
74
0
42
0.000000001
43
0.0000000001
44
0.0000000001
40
0
40
0
40
0
40
0
40
16.98343887071087
40
35.853742041514124
40
73.123849678033821
40
101.54932196433083
40
132.58042561947377
40
156.27904721985988
40
175.72385219782836
40
195.78342590117893
40
195.78342590117893
40
195.78342590117893
40
195.78342590117893
10
586.86872705769451
20
342.53601675608712
30
0
10
586.87796472383366
20
342.75925546552588
30
0
10
586.89746636312714
20
343.23053476077507
30
0
10
587.17743516370047
20
344.16196841734092
30
0
10
587.88584174516109
20
345.0606211323003
30
0
10
588.91138587140699
20
345.81554928929273
30
0
10
589.88862933681162
20
346.31185956547586
30
0
10
590.80059031192695
20
346.65435048937314
30
0
10
591.5949415926159
20
346.89503475993672
30
0
10
592.09929122852668
20
347.01534523016539
30
0
10
592.35555873174678
20
347.07577936515935
30
0
0
LWPOLYLINE
5
436
100
AcDbEntity
8
0
100
AcDbPolyline
90
4
70
1
43
0.0
10
587.10099079650468
20
334.53494583041049
42
-0.41421356237309503
10
587.02225063902449
20
334.61368598789079
42
-0.41421356237309503
10
587.10099079650468
20
334.69242614537109
42
-0.41421356237309503
10
587.17973095398497
20
334.61368598789079
42
-0.41421356237309503
0
LWPOLYLINE
5
437
100
AcDbEntity
8
0
100
AcDbPolyline
90
4
70
1
43
0.0
10
5.8949956193884647
20
-7.0856500878482978
42
-0.41421356237279905
10
5.9835782965538282
20
-7.1742327650137057
42
-0.41421356237309503
10
5.8949956193884647
20
-7.2628154421790692
42
-0.41421356237309503
10
5.8064129422231012
20
-7.174232765013751
42
-0.41421356237309503
0
LWPOLYLINE
5
438
100
AcDbEntity
8
0
100
AcDbPolyline
90
4
70
1
43
0.0
10
7.4412845107929106
20
-7.1742327650137954
42
-0.41421356237309503
10
7.352701833627548
20
-7.2628154421791589
42
-0.41421356237309503
10
7.2641191564621845
20
-7.1742327650138407
42
-0.4142135623729471
10
7.352701833627548
20
-7.0856500878484772
42
-0.41421356237309503
0
LWPOLYLINE
5
439
100
AcDbEntity
8
0
100
AcDbPolyline
90
4
70
1
43
0.0
10
614.10095557504064
20
330.71020397530583
42
-0.41421356237309503
10
614.01827840968633
20
330.62752680995152
42
-0.41421356237309503
10
613.93560124433191
20
330.71020397530583
42
-0.41421356237309503
10
614.01827840968633
20
330.79288114066026
42
-0.41421356237325357
0
CIRCLE
5
440
100
AcDbEntity
8
0
100
AcDbCircle
10
10.44003123911434
20
-6.6061548597750406
30
0
40
0.10000000000000052
210
0
220
0
230
1
0
LINE
5
441
100
AcDbEntity
8
0
100
AcDbLine
10
6.1927515832476772
20
-5.2953593582729113
30
0
11
6.1641296328433972
21
-5.2953593569861912
31
0
0
LWPOLYLINE
5
442
100
AcDbEntity
8
0
100
AcDbPolyline
90
4
70
1
43
0.0
10
620.01263229198992
20
330.79245823387816
42
-0.41421356237309503
10
620.09530945734423
20
330.7097810685238
42
-0.41421356237309503
10
620.01263229198992
20
330.62710390316948
42
-0.41421356237309503
10
619.9299551266356
20
330.7097810685238
42
-0.41421356237325357
0
LWPOLYLINE
5
443
100
AcDbEntity
8
0
100
AcDbPolyline
90
4
70
1
43
0.0
10
587.01831363115036
20
330.70978106852385
42
-0.41421356237309503
10
587.10099079650468
20
330.79245823387822
42
-0.41421356237325357
10
587.18366796185899
20
330.7097810685238
42
-0.41421356237309503
10
587.10099079650468
20
330.62710390316954
42
-0.41421356237309503
0
ARC
5
444
100
AcDbEntity
8
0
100
AcDbCircle
10
613.73934815446228
20
333.29221666355721
30
0
40
0.039370078740345642
210
-0
220
0
230
1
100
AcDbArc
50
270.00000551394913
51
315.00903445794239
0
ARC
5
445
100
AcDbEntity
8
0
100
AcDbCircle
10
613.7393481544625
20
333.29221666355693
30
0
40
0.039370078739975001
210
-0
220
0
230
1
100
AcDbArc
50
-44.99096554199906
51
0.018063402382414547
0
LWPOLYLINE
5
446
100
AcDbEntity
8
0
100
AcDbPolyline
90
4
70
1
43
0.0
10
599.19502964524543
20
333.37034452167484
42
-0.41421356237309503
10
599.42731310981242
20
333.60262798624177
42
-0.41421356237286927
10
599.65959657437929
20
333.37034452167484
42
-0.41421356237309503
10
599.42731310981242
20
333.1380610571079
42
-0.41421356237298218
0
LWPOLYLINE
5
447
100
AcDbEntity
8
0
100
AcDbPolyline
90
4
70
1
43
0.0
10
591.99714876009352
20
333.37182372656036
42
-0.41421356237315149
10
592.2294322246604
20
333.6041071911273
42
-0.41421356237309503
10
592.46171568922739
20
333.37182372656042
42
-0.41421356237309503
10
592.2294322246604
20
333.13954026199343
42
-0.41421356237309503
0
LWPOLYLINE
5
448
100
AcDbEntity
8
0
100
AcDbPolyline
90
6
70
1
43
0.0
10
595.53904843291741
20
331.80660305613623
10
595.53904843291741
20
331.62786983624937
42
-0.30369697790646411
10
595.32251299984648
20
331.48298447768883
42
-0.30369697790641592
10
595.10597756677566
20
331.62786983624932
10
595.10597756677566
20
331.80660305613623
42
-0.30369697790646411
10
595.32251299984648
20
331.95148841469671
42
-0.30369697790641592
0
LWPOLYLINE
5
449
100
AcDbEntity
8
0
100
AcDbPolyline
90
4
70
1
43
0.0
10
593.7055733367863
20
335.9259490186214
42
-0.4142135623732644
10
593.93785680135329
20
336.15823248318839
42
-0.41421356237309503
10
594.17014026592017
20
335.92594901862145
42
-0.41421356237298218
10
593.93785680135329
20
335.69366555405441
42
-0.41421356237309503
0
LWPOLYLINE
5
450
100
AcDbEntity
8
0
100
AcDbPolyline
90
4
70
1
43
0.0
10
625.48048566467878
20
344.31443609947149
42
-0.41421356237309503
10
625.55922582215908
20
344.23569594199125
42
-0.41421356237309503
10
625.48048566467878
20
344.15695578451096
42
-0.41421356237309503
10
625.40174550719837
20
344.23569594199131
42
-0.41421356237342799
0
LWPOLYLINE
5
451
100
AcDbEntity
8
0
100
AcDbPolyline
90
4
70
1
43
0.0
10
618.28679917252703
20
347.20505603034849
42
-0.41421356237309503
10
618.36553933000732
20
347.28379618782884
42
-0.41421356237309503
10
618.44427948748762
20
347.20505603034849
42
-0.41421356237309503
10
618.36553933000732
20
347.12631587286825
42
-0.41421356237342799
0
LWPOLYLINE
5
452
100
AcDbEntity
8
0
100
AcDbPolyline
90
4
70
1
43
0.0
10
600.23871551462173
20
342.2845436850526
42
-0.41421356237342799
10
600.31745567210203
20
342.20580352757236
42
-0.41421356237309503
10
600.23871551462173
20
342.12706337009206
42
-0.41421356237276202
10
600.15997535714143
20
342.20580352757236
42
-0.41421356237309503
0
LWPOLYLINE
5
453
100
AcDbEntity
8
0
100
AcDbPolyline
90
4
70
1
43
0.0
10
600.2150216815636
20
333.60294660884216
42
-0.41421356237309503
10
600.44730514613059
20
333.37066314427523
42
-0.4142135623732644
10
600.2150216815636
20
333.13837967970818
42
-0.41421356237309503
10
599.98273821699661
20
333.37066314427517
42
-0.41421356237309503
0
LWPOLYLINE
5
454
100
AcDbEntity
8
0
100
AcDbPolyline
90
4
70
1
43
0.0
10
600.23869884837472
20
335.62599605962151
42
-0.41421356237309503
10
600.15995869089443
20
335.70473621710187
42
-0.41421356237309503
10
600.23869884837472
20
335.78347637458216
42
-0.41421356237292856
10
600.31743900585502
20
335.70473621710187
42
-0.41421356237309503
0
LWPOLYLINE
5
455
100
AcDbEntity
8
0
100
AcDbPolyline
90
4
70
1
43
0.0
10
598.09829385958085
20
334.69242614537109
42
-0.41421356237309503
10
598.17703401706115
20
334.61368598789079
42
-0.41421356237309503
10
598.09829385958085
20
334.53494583041032
42
-0.41421356237276202
10
598.01955370210055
20
334.61368598789079
42
-0.41421356237309503
0
LWPOLYLINE
5
456
100
AcDbEntity
8
0
100
AcDbPolyline
90
6
70
1
43
0.0
10
596.1096950075837
20
331.48289352615939
42
-0.30369697790646411
10
595.89315957451288
20
331.62777888471987
10
595.89315957451288
20
331.80651210460672
42
-0.30369697790646411
10
596.1096950075837
20
331.95139746316721
42
-0.30369697790645572
10
596.32623044065463
20
331.80651210460672
10
596.32623044065451
20
331.62777888471987
42
-0.30369697790646411
0
LWPOLYLINE
5
457
100
AcDbEntity
8
0
100
AcDbPolyline
90
4
70
1
43
0.0
10
592.80006152576277
20
335.92594901862145
42
-0.41421356237303858
10
593.03234499032965
20
336.15823248318833
42
-0.41421356237309503
10
593.26462845489664
20
335.9259490186214
42
-0.41421356237309503
10
593.03234499032965
20
335.69366555405446
42
-0.41421356237309503
0
LINE
5
458
100
AcDbEntity
8
0
100
AcDbLine
10
591.36094675518291
20
331.98596000365848
30
0
11
590.51094675518289
21
331.98596000365848
31
0
0
ARC
5
459
100
AcDbEntity
8
0
100
AcDbCircle
10
613.73725653647557
20
346.89152482563117
30
0
40
0.039370078732184462
210
-0
220
0
230
1
100
AcDbArc
50
-0.00033086565404291917
51
89.999668989990283
0
LINE
5
460
100
AcDbEntity
8
0
100
AcDbLine
10
598.51841400510602
20
333.16096000365843
30
0
11
598.51841400510602
21
331.98596000365848
31
0
0
ARC
5
461
100
AcDbEntity
8
0
100
AcDbCircle
10
613.72018461189884
20
347.67071653393947
30
0
40
0.0590551179192546
210
0
220
-0
230
1
100
AcDbArc
50
24.400499490209103
51
90.000000184973004
0
LWPOLYLINE
5
462
100
AcDbEntity
8
0
100
AcDbPolyline
90
4
70
1
43
0.0
10
592.6247417784291
20
339.09633818203804
42
-0.41421356237292856
10
592.54600162094869
20
339.17507833951828
42
-0.41421356237309503
10
592.62474177842898
20
339.25381849699863
42
-0.41421356237309503
10
592.70348193590928
20
339.17507833951828
42
-0.41421356237309503
0
LWPOLYLINE
5
463
100
AcDbEntity
8
0
100
AcDbPolyline
90
4
70
1
43
0.0
10
621.79059781731962
20
345.08256583522422
42
-0.41421356237309503
10
621.71185765983932
20
345.16130599270457
42
-0.41421356237326151
10
621.79059781731962
20
345.24004615018487
42
-0.41421356237326151
10
621.86933797479981
20
345.16130599270457
42
-0.41421356237309503
0
LWPOLYLINE
5
464
100
AcDbEntity
8
0
100
AcDbPolyline
90
4
70
1
43
0.0
10
606.41724813142196
20
342.1270790432331
42
-0.41421356237276202
10
606.33850797394166
20
342.20581920071345
42
-0.41421356237309503
10
606.41724813142196
20
342.28455935819375
42
-0.41421356237309503
10
606.49598828890237
20
342.20581920071345
42
-0.41421356237359452
0
ARC
5
465
100
AcDbEntity
8
0
100
AcDbCircle
10
613.78113563932459
20
347.69836578689848
30
0
40
0.0078740157479942532
210
0
220
0
230
1
100
AcDbArc
50
204.4004994899455
51
266.55863892176399
0
LWPOLYLINE
5
466
100
AcDbEntity
8
0
100
AcDbPolyline
90
4
70
1
43
0.0
10
621.79059781731962
20
342.83007440943379
42
-0.41421356237309503
10
621.71185765983921
20
342.90881456691409
42
-0.41421356237309503
10
621.79059781731962
20
342.98755472439433
42
-0.41421356237309503
10
621.86933797479981
20
342.90881456691409
42
-0.41421356237309503
0
LWPOLYLINE
5
467
100
AcDbEntity
8
0
100
AcDbPolyline
90
4
70
1
43
0.0
10
599.25655219879468
20
343.47292979448747
42
-0.41421356237326151
10
599.1778120413145
20
343.39418963700712
42
-0.41421356237309503
10
599.0990718838342
20
343.47292979448747
42
-0.41421356237309503
10
599.1778120413145
20
343.55166995196771
42
-0.41421356237309503
0
LWPOLYLINE
5
468
100
AcDbEntity
8
0
100
AcDbPolyline
90
4
70
1
43
0.0
10
614.09701748552629
20
347.43201889953531
42
-0.41421356237309503
10
614.01827732804611
20
347.35327874205507
42
-0.41421356237342799
10
613.9395371705657
20
347.43201889953531
42
-0.41421356237342799
10
614.01827732804611
20
347.51075905701555
42
-0.41421356237309503
0
LWPOLYLINE
5
469
100
AcDbEntity
8
0
100
AcDbPolyline
90
6
70
1
43
0.0
10
592.17347846415703
20
331.48375769807927
42
-0.30369697790645572
10
591.9569430310861
20
331.62864305663982
10
591.95694303108621
20
331.80737627652661
42
-0.30369697790646411
10
592.17347846415703
20
331.95226163508715
42
-0.30369697790641592
10
592.39001389722796
20
331.80737627652667
10
592.39001389722796
20
331.62864305663982
42
-0.30369697790646411
0
LWPOLYLINE
5
470
100
AcDbEntity
8
0
100
AcDbPolyline
90
4
70
1
43
0.0
10
595.48698438644431
20
343.47292691307428
42
-0.41421356237309503
10
595.5657245439246
20
343.55166707055457
42
-0.41421356237309503
10
595.6444647014049
20
343.47292691307433
42
-0.41421356237259555
10
595.5657245439246
20
343.39418675559398
42
-0.41421356237359452
0
LWPOLYLINE
5
471
100
AcDbEntity
8
0
100
AcDbPolyline
90
4
70
1
43
0.0
10
599.09920576404863
20
342.20581920071339
42
-0.41421356237309503
10
599.17794592152893
20
342.28455935819375
42
-0.41421356237309503
10
599.25668607900923
20
342.20581920071339
42
-0.41421356237309503
10
599.17794592152893
20
342.1270790432331
42
-0.41421356237292856
0
LWPOLYLINE
5
472
100
AcDbEntity
8
0
100
AcDbPolyline
90
4
70
1
43
0.0
10
606.41724813142184
20
345.95463292613528
42
-0.41421356237276202
10
606.33850797394155
20
346.03337308361557
42
-0.41421356237309503
10
606.41724813142196
20
346.11211324109593
42
-0.41421356237342799
10
606.49598828890225
20
346.03337308361569
42
-0.41421356237342799
0
LWPOLYLINE
5
473
100
AcDbEntity
8
0
100
AcDbPolyline
90
4
70
1
43
0.0
10
592.23067663406925
20
334.71604819206999
42
-0.41421356237309503
10
592.33303883879364
20
334.6136859873456
42
-0.41421356237309503
10
592.23067663406925
20
334.51132378262122
42
-0.41421356237309503
10
592.12831442934475
20
334.6136859873456
42
-0.41421356237309503
0
LINE
5
474
100
AcDbEntity
8
0
100
AcDbLine
10
590.51094675518289
20
331.98596000365848
30
0
11
590.51094675518289
21
333.16096000365843
31
0
0
ARC
5
475
100
AcDbEntity
8
0
100
AcDbCircle
10
621.51011627037508
20
342.42088705146284
30
0
40
0.039370078740121668
210
0
220
0
230
1
100
AcDbArc
50
-90
51
0
0
LINE
5
476
100
AcDbEntity
8
0
100
AcDbLine
10
613.77663369832919
20
346.80034924360251
30
0
11
613.77655892220582
21
347.76288504886094
31
0
0
LWPOLYLINE
5
477
100
AcDbEntity
8
0
100
AcDbPolyline
90
4
70
1
43
0.0
10
607.1583581435641
20
345.49107225335831
42
-0.41421356237309503
10
607.07961798608392
20
345.56981241083855
42
-0.41421356237276202
10
607.1583581435641
20
345.64855256831885
42
-0.41421356237359452
10
607.2370983010444
20
345.56981241083855
42
-0.41421356237292856
0
LWPOLYLINE
5
478
100
AcDbEntity
8
0
100
AcDbPolyline
90
4
70
1
43
0.0
10
592.22890604776535
20
330.79245823387816
42
-0.41421356237309503
10
592.31158321311966
20
330.7097810685238
42
-0.41421356237309503
10
592.22890604776535
20
330.62710390316948
42
-0.41421356237309503
10
592.14622888241092
20
330.7097810685238
42
-0.41421356237309503
0
ARC
5
479
100
AcDbEntity
8
0
100
AcDbCircle
10
613.83833400853382
20
347.66361157105575
30
0
40
0.059055118110388806
210
0
220
-0
230
1
100
AcDbArc
50
88.591923341660973
51
148.71677835407371
0
ARC
5
480
100
AcDbEntity
8
0
100
AcDbCircle
10
600.23917260411338
20
343.47256551418587
30
0
40
0.17716535433074346
210
0
220
0
230
1
100
AcDbArc
50
225.01090501917471
51
315.0109050191877
0
LWPOLYLINE
5
481
100
AcDbEntity
8
0
100
AcDbPolyline
90
8
70
1
43
0.0
10
604.26490828435271
20
346.68261426189656
10
604.26490828435271
20
347.11568512804615
42
-0.41421356237309503
10
604.46175867805357
20
347.31253552174695
10
606.35152245758104
20
347.3125355217469
42
-0.41421356237329482
10
606.5483728512819
20
347.11568512804615
10
606.5483728512819
20
346.68261426189656
42
-0.41421356237309503
10
606.35152245758104
20
346.48576386819576
10
604.46175867805357
20
346.48576386819576
42
-0.41421356237309503
0
LWPOLYLINE
5
482
100
AcDbEntity
8
0
100
AcDbPolyline
90
6
70
1
43
0.0
10
593.96413485270455
20
331.62821484307028
42
-0.30369697790646411
10
593.74759941963373
20
331.4833294845098
42
-0.30369697790641592
10
593.53106398656291
20
331.62821484307028
10
593.53106398656291
20
331.80694806295713
42
-0.30369697790651234
10
593.74759941963373
20
331.95183342151762
42
-0.30369697790646411
10
593.96413485270455
20
331.80694806295713
0
CIRCLE
5
483
100
AcDbEntity
8
0
100
AcDbCircle
10
601.77836102555057
20
334.17832571694959
30
0
40
0.082500000000000004
210
0
220
0
230
1
0
LWPOLYLINE
5
484
100
AcDbEntity
8
0
100
AcDbPolyline
90
4
70
1
43
0.0
10
593.80418241293205
20
333.60391813903965
42
-0.41421356237309503
10
594.03646587749893
20
333.37163467447277
42
-0.41421356237309503
10
593.80418241293205
20
333.13935120990578
42
-0.41421356237309503
10
593.57189894836506
20
333.37163467447277
42
-0.41421356237309503
0
CIRCLE
5
485
100
AcDbEntity
8
0
100
AcDbCircle
10
-9.6714256193313961
20
-2.1735960252500983
30
0
40
0.091329996700589014
210
0
220
0
230
1
0
LWPOLYLINE
5
486
100
AcDbEntity
8
0
100
AcDbPolyline
90
4
70
1
43
0.0
10
596.28505199725885
20
336.48770485748543
42
-0.41421356237309503
10
596.21497325710141
20
336.55778359764287
42
-0.41421356237309503
10
596.28505199725885
20
336.62786233780042
42
-0.41421356237309503
10
596.35513073741629
20
336.55778359764287
42
-0.41421356237309503
0
LWPOLYLINE
5
487
100
AcDbEntity
8
0
100
AcDbPolyline
90
6
70
1
43
0.0
10
594.75174600570585
20
331.80769056900289
10
594.75174600570585
20
331.62895734911604
42
-0.30369697790646411
10
594.53521057263492
20
331.48407199055544
42
-0.30369697790650396
10
594.31867513956399
20
331.62895734911604
10
594.31867513956399
20
331.80769056900289
42
-0.30369697790656847
10
594.53521057263492
20
331.95257592756337
42
-0.30369697790646411
0
ARC
5
488
100
AcDbEntity
8
0
100
AcDbCircle
10
613.78113563932459
20
347.69836578689853
30
0
40
0.0078740157481064985
210
0
220
0
230
1
100
AcDbArc
50
266.55863892178877
51
328.71677835352813
0
LWPOLYLINE
5
489
100
AcDbEntity
8
0
100
AcDbPolyline
90
4
70
1
43
0.0
10
594.35959846048354
20
333.37181379467575
42
-0.41421356237315149
10
594.59188192505042
20
333.60409725924268
42
-0.41421356237309503
10
594.82416538961741
20
333.37181379467575
42
-0.41421356237309503
10
594.59188192505042
20
333.13953033010876
42
-0.41421356237309503
0
CIRCLE
5
490
100
AcDbEntity
8
0
100
AcDbCircle
10
-9.6714256193313961
20
-0.41282758134555614
30
0
40
0.12744734153002224
210
0
220
0
230
1
0
LWPOLYLINE
5
491
100
AcDbEntity
8
0
100
AcDbPolyline
90
6
70
1
43
0.0
10
596.89743193203333
20
331.94967844258116
42
-0.30369697790650396
10
597.11396736510426
20
331.80479308402056
10
597.11396736510426
20
331.62605986413371
42
-0.30369697790646411
10
596.89743193203333
20
331.48117450557322
42
-0.30369697790646411
10
596.68089649896251
20
331.62605986413371
10
596.68089649896262
20
331.80479308402056
42
-0.30369697790635136
0
CIRCLE
5
492
100
AcDbEntity
8
0
100
AcDbCircle
10
-8.4770947687399811
20
-2.1735960252500983
30
0
40
0.12023358153250041
210
0
220
0
230
1
0
LWPOLYLINE
5
493
100
AcDbEntity
8
0
100
AcDbPolyline
90
4
70
1
43
0.0
10
593.24782970445142
20
333.37145026326402
42
-0.41421356237309503
10
593.01554623988443
20
333.13916679869703
42
-0.41421356237309503
10
592.78326277531744
20
333.37145026326402
42
-0.41421356237309503
10
593.01554623988443
20
333.6037337278309
42
-0.41421356237309503
0
CIRCLE
5
494
100
AcDbEntity
8
0
100
AcDbCircle
10
-8.4770947687399811
20
-2.1735960252500983
30
0
40
0.12023358153250041
210
0
220
0
230
1
0
LWPOLYLINE
5
495
100
AcDbEntity
8
0
100
AcDbPolyline
90
6
70
1
43
0.0
10
592.96074950698278
20
331.48447637403001
42
-0.30369697790646411
10
592.74421407391196
20
331.6293617325905
10
592.74421407391196
20
331.80809495247729
42
-0.30369697790646411
10
592.96074950698278
20
331.95298031103783
42
-0.30369697790646411
10
593.1772849400536
20
331.80809495247735
10
593.1772849400536
20
331.6293617325905
42
-0.30369697790646411
0
LWPOLYLINE
5
496
100
AcDbEntity
8
0
100
AcDbPolyline
90
4
70
1
43
0.0
10
592.92556732923708
20
343.47291412134632
42
-0.41421356237326151
10
593.00430748671727
20
343.55165427882667
42
-0.41421356237292856
10
593.08304764419756
20
343.47291412134638
42
-0.41421356237309503
10
593.00430748671727
20
343.39417396386608
42
-0.41421356237326151
0
LWPOLYLINE
5
497
100
AcDbEntity
8
0
100
AcDbPolyline
90
4
70
1
43
0.0
10
602.94742970073344
20
346.76135441847407
42
-0.41421356237280965
10
602.8096344251428
20
346.89914969406459
42
-0.41421356237309503
10
602.94742970073344
20
347.03694496965522
42
-0.41421356237309503
10
603.08522497632396
20
346.89914969406459
42
-0.41421356237309503
0
LWPOLYLINE
5
498
100
AcDbEntity
8
0
100
AcDbPolyline
90
4
70
1
43
0.0
10
599.45222849748632
20
344.75314498541019
42
-0.41421356237309503
10
597.89711038725011
20
343.19802687517398
42
-0.41421356237309503
10
596.3419922770139
20
344.75314498541019
42
-0.41421356237309503
10
597.89711038725011
20
346.30826309564645
42
-0.41421356237309503
0
LINE
5
499
100
AcDbEntity
8
0
100
AcDbLine
10
604.26490828435271
20
347.11568512804223
30
0
11
604.26490828435271
21
346.68261426190048
31
0
0
LWPOLYLINE
5
500
100
AcDbEntity
8
0
100
AcDbPolyline
90
4
70
1
43
0.0
10
606.75014450482524
20
346.82040953567753
42
-0.41421356237309503
10
606.67140434734483
20
346.89914969315788
42
-0.41421356237292856
10
606.75014450482524
20
346.97788985063812
42
-0.41421356237309503
10
606.82888466230554
20
346.89914969315788
42
-0.41421356237309503
0
CIRCLE
5
501
100
AcDbEntity
8
0
100
AcDbCircle
10
-9.6714256193313961
20
-0.41282758134555614
30
0
40
0.12744734153002224
210
0
220
0
230
1
0
CIRCLE
5
502
100
AcDbEntity
8
0
100
AcDbCircle
10
-9.0654605456367428
20
-1.2550101636545843
30
0
40
0.38784909414957697
210
0
220
0
230
1
0
CIRCLE
5
503
100
AcDbEntity
8
0
100
AcDbCircle
10
588.1708774031473
20
330.79733353253198
30
0
40
0.082500000000000004
210
0
220
0
230
1
0
LWPOLYLINE
5
504
100
AcDbEntity
8
0
100
AcDbPolyline
90
4
70
1
43
0.0
10
591.89454971473913
20
335.92594902222385
42
-0.41421356237309503
10
592.126833179306
20
336.15823248679084
42
-0.41421356237309503
10
592.35911664387299
20
335.92594902222385
42
-0.41421356237309503
10
592.126833179306
20
335.69366555765697
42
-0.41421356237309503
0
LINE
5
505
100
AcDbEntity
8
0
100
AcDbLine
10
588.1708774031473
20
330.79733353253198
30
0
11
589.64962950314737
21
333.99733353253202
31
0
0
LWPOLYLINE
5
506
100
AcDbEntity
8
0
100
AcDbPolyline
90
4
70
1
43
0.0
10
602.23384702356816
20
346.89914969406465
42
-0.41421356237309503
10
602.15510686608786
20
346.82040953658429
42
-0.41421356237326151
10
602.07636670860745
20
346.8991496940647
42
-0.41421356237309503
10
602.15510686608775
20
346.977889851545
42
-0.41421356237276202
0
ARC
5
507
100
AcDbEntity
8
0
100
AcDbCircle
10
596.61700261616454
20
339.64487569936557
30
0
40
0.17716535433074346
210
0
220
0
230
1
100
AcDbArc
50
135.01090501918773
51
225.01090501916173
0
CIRCLE
5
508
100
AcDbEntity
8
0
100
AcDbCircle
10
-9.6714256193313961
20
-2.1735960252500983
30
0
40
0.091329996700589014
210
0
220
0
230
1
0
LINE
5
509
100
AcDbEntity
8
0
100
AcDbLine
10
589.64962950314737
20
330.79733353253198
30
0
11
588.1708774031473
21
333.99733353253202
31
0
0
LINE
5
510
100
AcDbEntity
8
0
100
AcDbLine
10
589.28457886885462
20
332.65847550012444
30
0
11
588.99526905671485
21
332.94778531226422
31
0
0
LWPOLYLINE
5
511
100
AcDbEntity
8
0
100
AcDbPolyline
90
4
70
1
43
0.0
10
592.14904116332946
20
338.34790061175647
42
-0.41421356237309503
10
591.03221361532599
20
337.23107306375306
42
-0.41421356237309503
10
589.91538606732263
20
338.34790061175647
42
-0.41421356237309503
10
591.03221361532599
20
339.46472815975994
42
-0.41421356237309503
0
LWPOLYLINE
5
512
100
AcDbEntity
8
0
100
AcDbPolyline
90
4
70
1
43
0.0
10
591.22132136828236
20
335.69366555673281
42
-0.41421356237309503
10
590.98903790371548
20
335.92594902129974
42
-0.41421356237309503
10
591.22132136828236
20
336.15823248586662
42
-0.41421356237309503
10
591.45360483284924
20
335.92594902129974
42
-0.41421356237309503
0
CIRCLE
5
513
100
AcDbEntity
8
0
100
AcDbCircle
10
-9.0654605456367428
20
-1.2550101636545843
30
0
40
0.38784909414957697
210
0
220
0
230
1
0
CIRCLE
5
514
100
AcDbEntity
8
0
100
AcDbCircle
10
-9.0654605456367428
20
-1.2550101636545843
30
0
40
0.38784909414957697
210
0
220
0
230
1
0
LWPOLYLINE
5
515
100
AcDbEntity
8
0
100
AcDbPolyline
90
4
70
1
43
0.0
10
604.14187678828978
20
346.89914969315788
42
-0.41421356237276202
10
604.06313663080948
20
346.82040953567758
42
-0.41421356237359452
10
603.98439647332918
20
346.89914969315788
42
-0.41421356237292856
10
604.06313663080948
20
346.97788985063812
42
-0.41421356237309503
0
LWPOLYLINE
5
516
100
AcDbEntity
8
0
100
AcDbPolyline
90
4
70
1
43
0.0
10
588.27250247064467
20
335.92594901594305
42
-0.41421356237315149
10
588.50478593521154
20
336.15823248050998
42
-0.41421356237309503
10
588.73706939977853
20
335.92594901594305
42
-0.4142135623732644
10
588.50478593521166
20
335.69366555137606
42
-0.41421356237309503
0
LWPOLYLINE
5
517
100
AcDbEntity
8
0
100
AcDbPolyline
90
4
70
1
43
0.0
10
596.53765482662675
20
343.47291700275952
42
-0.41421356237309503
10
596.61639498410705
20
343.55165716023987
42
-0.41421356237309503
10
596.69513514158734
20
343.47291700275952
42
-0.41421356237309503
10
596.61639498410705
20
343.39417684527922
42
-0.41421356237292856
0
LINE
5
518
100
AcDbEntity
8
0
100
AcDbLine
10
606.5483728512819
20
346.68261426190048
30
0
11
606.5483728512819
21
347.11568512804223
31
0
0
ARC
5
519
100
AcDbEntity
8
0
100
AcDbCircle
10
588.91025345314733
20
332.57345989655693
30
0
40
0.3838582677165559
210
-0
220
0
230
1
100
AcDbArc
50
-45.000000001373898
51
12.795772494638005
0
LWPOLYLINE
5
520
100
AcDbEntity
8
0
100
AcDbPolyline
90
4
70
1
43
0.0
10
588.50933509344668
20
337.22396053141438
42
-0.41421356237309503
10
587.39250754544321
20
338.34078807941791
42
-0.41421356237309503
10
588.50933509344657
20
339.45761562742138
42
-0.4142135623731068
10
589.62616264145015
20
338.34078807941785
42
-0.41421356237309503
0
ARC
5
521
100
AcDbEntity
8
0
100
AcDbCircle
10
605.13653281649965
20
344.75314498541024
30
0
40
1.5551181102360498
210
-0
220
0
230
1
100
AcDbArc
50
-41.087046171612407
51
45.010441158775244
0
ARC
5
522
100
AcDbEntity
8
0
100
AcDbCircle
10
600.23917260411338
20
343.47256551418593
30
0
40
0.17716535433071184
210
0
220
0
230
1
100
AcDbArc
50
135.01090501920075
51
225.0109050191877
0
LWPOLYLINE
5
523
100
AcDbEntity
8
0
100
AcDbPolyline
90
4
70
1
43
0.0
10
590.10562161956443
20
339.19933156497467
42
-0.41421356237328266
10
590.03573410848594
20
339.26921907605328
42
-0.41421356237290746
10
590.10562161956443
20
339.33910658713177
42
-0.41421356237309503
10
590.17550913064292
20
339.26921907605322
42
-0.41421356237309503
0
LINE
5
524
100
AcDbEntity
8
0
100
AcDbLine
10
588.1708774031473
20
330.79733353253198
30
0
11
588.1708774031473
21
333.99733353253202
31
0
0
CIRCLE
5
525
100
AcDbEntity
8
0
100
AcDbCircle
10
-9.6714256193313961
20
-2.1735960252500983
30
0
40
0.091329996700589014
210
0
220
0
230
1
0
LINE
5
526
100
AcDbEntity
8
0
100
AcDbLine
10
589.64962950314737
20
333.99733353253202
30
0
11
589.64962950314737
21
330.79733353253198
31
0
0
LWPOLYLINE
5
527
100
AcDbEntity
8
0
100
AcDbPolyline
90
4
70
1
43
0.0
10
591.95557928130586
20
337.49024522960275
42
-0.41421356237328266
10
592.02546679238446
20
337.42035771852409
42
-0.41421356237309503
10
591.95557928130597
20
337.35047020744554
42
-0.41421356237290746
10
591.88569177022737
20
337.42035771852409
42
-0.41421356237347023
0
CIRCLE
5
528
100
AcDbEntity
8
0
100
AcDbCircle
10
-9.6714256193313961
20
-0.41282758134555614
30
0
40
0.12744734153002224
210
0
220
0
230
1
0
LWPOLYLINE
5
529
100
AcDbEntity
8
0
100
AcDbPolyline
90
4
70
1
43
0.0
10
587.97614680236609
20
336.5577835977075
42
-0.41421356237309503
10
587.90606806220853
20
336.48770485755006
42
-0.41421356237309503
10
587.8359893220512
20
336.5577835977075
42
-0.41421356237309503
10
587.90606806220865
20
336.627862337865
42
-0.41421356237272089
0
LWPOLYLINE
5
530
100
AcDbEntity
8
0
100
AcDbPolyline
90
4
70
1
43
0.0
10
596.09047886138683
20
339.0963600199558
42
-0.41421356237309503
10
596.01173870390642
20
339.17510017743615
42
-0.41421356237309503
10
596.09047886138683
20
339.25384033491645
42
-0.41421356237309503
10
596.16921901886712
20
339.17510017743615
42
-0.41421356237309503
0
LWPOLYLINE
5
531
100
AcDbEntity
8
0
100
AcDbPolyline
90
4
70
1
43
0.0
10
587.65536395559695
20
337.41957736819029
42
-0.41421356237328266
10
587.58547644451846
20
337.34968985711163
42
-0.41421356237309503
10
587.51558893343997
20
337.41957736819023
42
-0.41421356237309503
10
587.58547644451846
20
337.48946487926878
42
-0.41421356237309503
0
LWPOLYLINE
5
532
100
AcDbEntity
8
0
100
AcDbPolyline
90
4
70
1
43
0.0
10
587.17973095398725
20
338.97944067919093
42
-0.41421356237309503
10
587.10099079650695
20
338.90070052171063
42
-0.41421356237309503
10
587.02225063902665
20
338.97944067919093
42
-0.41421356237309503
10
587.10099079650695
20
339.05818083667128
42
-0.41421356237309503
0
LWPOLYLINE
5
533
100
AcDbEntity
8
0
100
AcDbPolyline
90
4
70
1
43
0.0
10
589.50590997171423
20
337.41889937734487
42
-0.41421356237309503
10
589.43602246063563
20
337.34901186626632
42
-0.41421356237271989
10
589.36613494955702
20
337.41889937734487
42
-0.41421356237309503
10
589.43602246063551
20
337.48878688842342
42
-0.41421356237253226
0
LWPOLYLINE
5
534
100
AcDbEntity
8
0
100
AcDbPolyline
90
4
70
1
43
0.0
10
587.58595416630931
20
339.20037338542079
42
-0.41421356237309503
10
587.5160666552307
20
339.27026089649934
42
-0.41421356237309503
10
587.58595416630931
20
339.34014840757794
42
-0.41421356237309503
10
587.65584167738791
20
339.27026089649934
42
-0.41421356237290746
0
LWPOLYLINE
5
535
100
AcDbEntity
8
0
100
AcDbPolyline
90
4
70
1
43
0.0
10
592.14775498927702
20
344.30049810032972
42
-0.41421356237309503
10
591.03092744127355
20
343.18367055232625
42
-0.41421356237309503
10
589.91409989327008
20
344.30049810032972
42
-0.41421356237309503
10
591.03092744127355
20
345.41732564833319
42
-0.41421356237309503
0
LINE
5
536
100
AcDbEntity
8
0
100
AcDbLine
10
588.1708774031473
20
333.99733353253202
30
0
11
589.64962950314737
21
333.99733353253202
31
0
0
LWPOLYLINE
5
537
100
AcDbEntity
8
0
100
AcDbPolyline
90
4
70
1
43
0.0
10
587.97614680236711
20
335.26541383582202
42
-0.41421356237309503
10
587.90606806220967
20
335.19533509566452
42
-0.41421356237328211
10
587.83598932205234
20
335.26541383582207
42
-0.41421356237253382
10
587.90606806220967
20
335.33549257597946
42
-0.41421356237309503
0
ARC
5
538
100
AcDbEntity
8
0
100
AcDbCircle
10
605.13653281649954
20
340.92559110250801
30
0
40
1.5551181102362934
210
0
220
0
230
1
100
AcDbArc
50
131.10792848914704
51
217.20541581952841
0
LWPOLYLINE
5
539
100
AcDbEntity
8
0
100
AcDbPolyline
90
4
70
1
43
0.0
10
596.50303980945228
20
340.09059027164801
42
-0.41421356237309503
10
596.42429965197186
20
340.01185011416766
42
-0.41421356237309503
10
596.34555949449157
20
340.09059027164801
42
-0.41421356237309503
10
596.42429965197186
20
340.16933042912837
42
-0.41421356237309503
0
LWPOLYLINE
5
540
100
AcDbEntity
8
0
100
AcDbPolyline
90
4
70
1
43
0.0
10
592.02598913036434
20
339.2699298729072
42
-0.41421356237309503
10
591.95610161928585
20
339.20004236182871
42
-0.41421356237290746
10
591.88621410820713
20
339.26992987290726
42
-0.41421356237309503
10
591.95610161928573
20
339.3398173839858
42
-0.41421356237309503
0
LWPOLYLINE
5
541
100
AcDbEntity
8
0
100
AcDbPolyline
90
4
70
1
43
0.0
10
596.61653186971046
20
342.28455647678061
42
-0.41421356237309503
10
596.69527202719087
20
342.20581631930031
42
-0.41421356237309503
10
596.61653186971046
20
342.12707616181996
42
-0.41421356237309503
10
596.53779171223016
20
342.20581631930031
42
-0.41421356237309503
0
LWPOLYLINE
5
542
100
AcDbEntity
8
0
100
AcDbPolyline
90
4
70
1
43
0.0
10
602.72137574810176
20
339.64536311985717
42
-0.41421356237309503
10
602.80011590558206
20
339.72410327733752
42
-0.41421356237309503
10
602.87885606306236
20
339.64536311985717
42
-0.41421356237309503
10
602.80011590558206
20
339.56662296237687
42
-0.41421356237309503
0
LWPOLYLINE
5
543
100
AcDbEntity
8
0
100
AcDbPolyline
90
4
70
1
43
0.0
10
590.31580955725872
20
335.69366555405452
42
-0.41421356237309503
10
590.08352609269184
20
335.9259490186214
42
-0.41421356237315149
10
590.31580955725872
20
336.15823248318839
42
-0.41421356237309503
10
590.54809302182571
20
335.92594901862145
42
-0.41421356237309503
0
ARC
5
544
100
AcDbEntity
8
0
100
AcDbCircle
10
588.50478593521166
20
335.92594901594305
30
0
40
0.2322834645669864
210
0
220
0
230
1
100
AcDbArc
50
180
51
270
0
CIRCLE
5
545
100
AcDbEntity
8
0
100
AcDbCircle
10
8.3285743806686021
20
-0.41282758134555614
30
0
40
0.12744734153002224
210
0
220
0
230
1
0
LINE
5
546
100
AcDbEntity
8
0
100
AcDbLine
10
589.64962950314737
20
330.79733353253198
30
0
11
588.1708774031473
21
330.79733353253198
31
0
0
ARC
5
547
100
AcDbEntity
8
0
100
AcDbCircle
10
596.62727898037542
20
339.96143924260031
30
0
40
0.039370078740169387
210
-0
220
0
230
1
100
AcDbArc
50
-44.989512065178324
51
37.205112801854476
0
LINE
5
548
100
AcDbEntity
8
0
100
AcDbLine
10
588.53592803744016
20
332.48844429298953
30
0
11
588.82523784957982
21
332.19913448084969
31
0
0
ARC
5
549
100
AcDbEntity
8
0
100
AcDbCircle
10
588.91025345314733
20
332.57345989655698
30
0
40
0.38385826771652426
210
0
220
0
230
1
100
AcDbArc
50
134.99999999998801
51
192.79577249602494
0
LWPOLYLINE
5
550
100
AcDbEntity
8
0
100
AcDbPolyline
90
4
70
1
43
0.0
10
589.41029774623507
20
335.69366555673281
42
-0.41421356237309503
10
589.1780142816682
20
335.92594902129974
42
-0.41421356237298218
10
589.41029774623507
20
336.15823248586673
42
-0.41421356237298218
10
589.64258121080195
20
335.92594902129974
42
-0.41421356237309503
0
LWPOLYLINE
5
551
100
AcDbEntity
8
0
100
AcDbPolyline
90
4
70
1
43
0.0
10
594.28502288986033
20
343.19802399376078
42
-0.41421356237309503
10
592.72990477962401
20
344.75314210399705
42
-0.41421356237309503
10
594.28502288986033
20
346.30826021423326
42
-0.41421356237309503
10
595.84014100009642
20
344.75314210399705
42
-0.41421356237309503
0
LINE
5
552
100
AcDbEntity
8
0
100
AcDbLine
10
603.98160167092942
20
339.51964336343559
30
0
11
604.14502077032307
21
339.6831223011867
31
0
0
CIRCLE
5
553
100
AcDbEntity
8
0
100
AcDbCircle
10
589.64962950314737
20
330.79733353253198
30
0
40
0.082500000000000004
210
0
220
0
230
1
0
ARC
5
554
100
AcDbEntity
8
0
100
AcDbCircle
10
588.91025345314733
20
332.57345989655687
30
0
40
0.38385826771651893
210
0
220
0
230
1
100
AcDbArc
50
257.20422750259183
51
314.99999999863212
0
LWPOLYLINE
5
555
100
AcDbEntity
8
0
100
AcDbPolyline
90
4
70
1
43
0.0
10
589.36682386328891
20
339.27014958722344
42
-0.41421356237309503
10
589.43671137436752
20
339.34003709830205
42
-0.41421356237309503
10
589.50659888544612
20
339.27014958722344
42
-0.41421356237309503
10
589.43671137436752
20
339.2002620761449
42
-0.41421356237309503
0
LWPOLYLINE
5
556
100
AcDbEntity
8
0
100
AcDbPolyline
90
4
70
1
43
0.0
10
590.17559507733256
20
337.41945571627923
42
-0.41421356237309503
10
590.10570756625407
20
337.34956820520068
42
-0.41421356237290746
10
590.03582005517558
20
337.41945571627923
42
-0.41421356237309503
10
590.10570756625407
20
337.48934322735772
42
-0.41421356237290746
0
ARC
5
557
100
AcDbEntity
8
0
100
AcDbCircle
10
603.86656639921137
20
339.96144490833092
30
0
40
0.039370078740232697
210
-0
220
0
230
1
100
AcDbArc
50
-44.989512064944392
51
37.205415819389899
0
LWPOLYLINE
5
558
100
AcDbEntity
8
0
100
AcDbPolyline
90
4
70
1
43
0.0
10
603.13908006924066
20
347.51075905701566
42
-0.41421356237309503
10
603.21782022672107
20
347.43201889953531
42
-0.41421356237326151
10
603.13908006924078
20
347.35327874205501
42
-0.41421356237326151
10
603.06033991176037
20
347.43201889953536
42
-0.41421356237292856
0
ARC
5
559
100
AcDbEntity
8
0
100
AcDbCircle
10
603.85630482995327
20
339.64489616546621
30
0
40
0.17716535433068017
210
0
220
0
230
1
100
AcDbArc
50
135.01090501916175
51
225.01090501920069
0
LINE
5
560
100
AcDbEntity
8
0
100
AcDbLine
10
596.74229945714069
20
339.5196228973349
30
0
11
596.90571855653423
21
339.68310183508606
31
0
0
LINE
5
561
100
AcDbEntity
8
0
100
AcDbLine
10
596.49170395159001
20
339.77012667713001
30
0
11
596.65512292543542
21
339.93360548928712
31
0
0
LWPOLYLINE
5
562
100
AcDbEntity
8
0
100
AcDbPolyline
90
4
70
1
43
0.0
10
600.23870185376359
20
345.95474551053968
42
-0.41421356237326151
10
600.15996169628318
20
346.03348566801998
42
-0.41421356237309503
10
600.23870185376359
20
346.11222582550027
42
-0.41421356237309503
10
600.31744201124388
20
346.03348566801998
42
-0.41421356237309503
0
LWPOLYLINE
5
563
100
AcDbEntity
8
0
100
AcDbPolyline
90
4
70
1
43
0.0
10
593.00432415296427
20
346.11210747826976
42
-0.41421356237309503
10
593.08306431044468
20
346.03336732078941
42
-0.41421356237309503
10
593.00432415296427
20
345.95462716330911
42
-0.41421356237309503
10
592.92558399548398
20
346.03336732078941
42
-0.41421356237309503
0
ARC
5
564
100
AcDbEntity
8
0
100
AcDbCircle
10
597.89723051836177
20
340.92565249281472
30
0
40
1.5551469419672146
210
0
220
0
230
1
100
AcDbArc
50
153.60662119007708
51
217.21140122547359
0
LWPOLYLINE
5
565
100
AcDbEntity
8
0
100
AcDbPolyline
90
4
70
1
43
0.0
10
587.63512042837408
20
344.27048939065651
42
-0.41421356237292856
10
587.71386058585438
20
344.19174923317621
42
-0.41421356237309503
10
587.63512042837408
20
344.11300907569591
42
-0.41421356237309503
10
587.5563802708939
20
344.19174923317621
42
-0.41421356237309503
0
LWPOLYLINE
5
566
100
AcDbEntity
8
0
100
AcDbPolyline
90
4
70
1
43
0.0
10
599.17782570217253
20
346.11211324109604
42
-0.41421356237309503
10
599.25656585965294
20
346.03337308361569
42
-0.41421356237309503
10
599.17782570217253
20
345.95463292613533
42
-0.41421356237309503
10
599.09908554469223
20
346.03337308361569
42
-0.41421356237309503
0
ARC
5
567
100
AcDbEntity
8
0
100
AcDbCircle
10
597.89723051836199
20
340.92565249281455
30
0
40
1.5551469419674575
210
0
220
0
230
1
100
AcDbArc
50
90.001841154690851
51
153.60662119007515
0
LINE
5
568
100
AcDbEntity
8
0
100
AcDbLine
10
604.46175867805357
20
346.48576386819968
30
0
11
606.35152245758104
21
346.48576386819968
31
0
0
LINE
5
569
100
AcDbEntity
8
0
100
AcDbLine
10
600.11387393953885
20
343.59781649195037
30
0
11
600.27729291338426
21
343.76129530410742
31
0
0
ARC
5
570
100
AcDbEntity
8
0
100
AcDbCircle
10
588.91025345314733
20
332.57345989655693
30
0
40
0.38385826771656789
210
0
220
-0
230
1
100
AcDbArc
50
77.204227503970543
51
134.99999999998201
0
LINE
5
571
100
AcDbEntity
8
0
100
AcDbLine
10
603.73100616537874
20
339.77014714323064
30
0
11
603.89442513922427
21
339.93362595538775
31
0
0
ARC
5
572
100
AcDbEntity
8
0
100
AcDbCircle
10
600.24943417337158
20
343.7891142570507
30
0
40
0.039370078740201028
210
-0
220
0
230
1
100
AcDbArc
50
-44.989512065119854
51
37.20541581945578
0
LWPOLYLINE
5
573
100
AcDbEntity
8
0
100
AcDbPolyline
90
4
70
1
43
0.0
10
591.02737850877645
20
340.26231400441196
42
-0.41421356237309503
10
589.91055096077298
20
341.37914155241549
42
-0.41421356237309503
10
591.02737850877645
20
342.4959691004189
42
-0.41421356237308332
10
592.14420605677992
20
341.37914155241549
42
-0.41421356237309503
0
ARC
5
574
100
AcDbEntity
8
0
100
AcDbCircle
10
604.1728495449081
20
339.65527337184352
30
0
40
0.039370078740228742
210
0
220
-0
230
1
100
AcDbArc
50
52.815466497869721
51
135.01048793470468
0
ARC
5
575
100
AcDbEntity
8
0
100
AcDbCircle
10
605.13653281649954
20
340.92559110250784
30
0
40
1.5551181102364193
210
0
220
-0
230
1
100
AcDbArc
50
45.010441158773759
51
131.10792848914289
0
ARC
5
576
100
AcDbEntity
8
0
100
AcDbCircle
10
588.50478593521154
20
335.92594901594305
30
0
40
0.23228346456689689
210
-0
220
0
230
1
100
AcDbArc
50
0
51
90
0
LINE
5
577
100
AcDbEntity
8
0
100
AcDbLine
10
603.39559454100322
20
347.72977148314612
30
0
11
607.34101732379861
21
347.72614686528118
31
0
0
ARC
5
578
100
AcDbEntity
8
0
100
AcDbCircle
10
605.13653281649954
20
344.75314498541007
30
0
40
1.5551181102360869
210
0
220
0
230
1
100
AcDbArc
50
232.81546649800501
51
318.91295382839508
0
CIRCLE
5
579
100
AcDbEntity
8
0
100
AcDbCircle
10
588.1708774031473
20
333.99733353253202
30
0
40
0.082500000000000004
210
0
220
0
230
1
0
ARC
5
580
100
AcDbEntity
8
0
100
AcDbCircle
10
596.9335461279403
20
339.65525170212351
30
0
40
0.039370078740111662
210
0
220
-0
230
1
100
AcDbArc
50
52.817172978614153
51
135.01048793488022
0
ARC
5
581
100
AcDbEntity
8
0
100
AcDbCircle
10
597.89723051836188
20
340.92565249281472
30
0
40
1.5551469419672705
210
0
220
-0
230
1
100
AcDbArc
50
26.397061119291426
51
90.001841154686673
0
ARC
5
582
100
AcDbEntity
8
0
100
AcDbCircle
10
603.85630482995327
20
339.64489616546621
30
0
40
0.17716535433068017
210
0
220
0
230
1
100
AcDbArc
50
225.01090501920069
51
315.01090501921374
0
ARC
5
583
100
AcDbEntity
8
0
100
AcDbCircle
10
605.13653281649954
20
344.75314498541002
30
0
40
1.5551181102363558
210
0
220
-0
230
1
100
AcDbArc
50
45.010441158778207
51
131.10792848914289
0
ARC
5
584
100
AcDbEntity
8
0
100
AcDbCircle
10
600.55571731906821
20
343.48294272056336
30
0
40
0.039370078740103322
210
0
220
-0
230
1
100
AcDbArc
50
52.815466497951533
51
135.0104879349972
0
CIRCLE
5
585
100
AcDbEntity
8
0
100
AcDbCircle
10
589.64962950314737
20
333.99733353253202
30
0
40
0.082500000000000004
210
0
220
0
230
1
0
LWPOLYLINE
5
586
100
AcDbEntity
8
0
100
AcDbPolyline
90
4
70
1
43
0.0
10
607.23709830104451
20
347.43201889953531
42
-0.41421356237259555
10
607.15835814356421
20
347.35327874205507
42
-0.41421356237342799
10
607.07961798608392
20
347.43201889953531
42
-0.41421356237309503
10
607.15835814356421
20
347.51075905701555
42
-0.41421356237309503
0
LWPOLYLINE
5
587
100
AcDbEntity
8
0
100
AcDbPolyline
90
4
70
1
43
0.0
10
593.00432446497223
20
339.72410327733746
42
-0.41421356237309503
10
593.08306462245253
20
339.64536311985722
42
-0.41421356237259555
10
593.00432446497223
20
339.56662296237693
42
-0.41421356237309503
10
592.92558430749193
20
339.64536311985728
42
-0.41421356237309503
0
LWPOLYLINE
5
588
100
AcDbEntity
8
0
100
AcDbPolyline
90
4
70
1
43
0.0
10
590.10440461789801
20
340.38206626499857
42
-0.41421356237309503
10
590.03451710681941
20
340.45195377607706
42
-0.41421356237309503
10
590.10440461789801
20
340.52184128715567
42
-0.41421356237309503
10
590.17429212897662
20
340.45195377607706
42
-0.41421356237290746
0
LWPOLYLINE
5
589
100
AcDbEntity
8
0
100
AcDbPolyline
90
4
70
1
43
0.0
10
589.36718615366078
20
340.45320633141711
42
-0.41421356237309503
10
589.43707366473927
20
340.5230938424956
42
-0.41421356237290746
10
589.50696117581788
20
340.45320633141711
42
-0.41421356237309503
10
589.43707366473927
20
340.38331882033856
42
-0.41421356237328266
0
LWPOLYLINE
5
590
100
AcDbEntity
8
0
100
AcDbPolyline
90
4
70
1
43
0.0
10
595.64447836226304
20
346.03337020220255
42
-0.41421356237309503
10
595.56573820478275
20
345.95463004472219
42
-0.41421356237309503
10
595.48699804730245
20
346.03337020220255
42
-0.41421356237292856
10
595.56573820478263
20
346.11211035968296
42
-0.41421356237259555
0
LWPOLYLINE
5
591
100
AcDbEntity
8
0
100
AcDbPolyline
90
4
70
1
43
0.0
10
590.10560302948568
20
345.15910962797858
42
-0.41421356237365781
10
590.03571551840707
20
345.22899713905707
42
-0.41421356237347023
10
590.10560302948568
20
345.29888465013573
42
-0.41421356237309503
10
590.17549054056428
20
345.22899713905713
42
-0.41421356237309503
0
LWPOLYLINE
5
592
100
AcDbEntity
8
0
100
AcDbPolyline
90
4
70
1
43
0.0
10
591.95627576076754
20
345.29978404449554
42
-0.41421356237309503
10
592.02616327184614
20
345.22989653341705
42
-0.41421356237347023
10
591.95627576076754
20
345.16000902233833
42
-0.41421356237309503
10
591.88638824968905
20
345.22989653341693
42
-0.41421356237309503
0
LWPOLYLINE
5
593
100
AcDbEntity
8
0
100
AcDbPolyline
90
4
70
1
43
0.0
10
588.50574093950218
20
340.25972867163136
42
-0.41421356237309503
10
587.38891339149882
20
341.37655621963489
42
-0.41421356237309503
10
588.50574093950218
20
342.49338376763831
42
-0.41421356237309503
10
589.62256848750565
20
341.37655621963484
42
-0.41421356237309503
0
ARC
5
594
100
AcDbEntity
8
0
100
AcDbCircle
10
605.13653281649943
20
344.75314498541024
30
0
40
1.5551181102361673
210
0
220
0
230
1
100
AcDbArc
50
131.10792848914525
51
217.20541581953182
0
LWPOLYLINE
5
595
100
AcDbEntity
8
0
100
AcDbPolyline
90
4
70
1
43
0.0
10
603.77709392212319
20
342.20581631930025
42
-0.41421356237292856
10
603.85583407960348
20
342.28455647678049
42
-0.41421356237326151
10
603.93457423708389
20
342.2058163193002
42
-0.41421356237309503
10
603.85583407960348
20
342.1270761618199
42
-0.41421356237309503
0
ARC
5
596
100
AcDbEntity
8
0
100
AcDbCircle
10
601.51940059065964
20
344.75326045122767
30
0
40
1.5551181102362346
210
0
220
0
230
1
100
AcDbArc
50
131.10792848914704
51
217.20541581952597
0
LWPOLYLINE
5
597
100
AcDbEntity
8
0
100
AcDbPolyline
90
4
70
1
43
0.0
10
592.72992175787908
20
340.92559110250784
42
-0.41421356237309503
10
594.28503986811529
20
342.48070921274399
42
-0.41421356237309503
10
595.84015797835139
20
340.92559110250784
42
-0.41421356237309503
10
594.28503986811529
20
339.37047299227163
42
-0.41421356237309503
0
LWPOLYLINE
5
598
100
AcDbEntity
8
0
100
AcDbPolyline
90
4
70
1
43
0.0
10
595.64449534051812
20
342.20581920071339
42
-0.41421356237359452
10
595.5657551830376
20
342.1270790432331
42
-0.41421356237276202
10
595.48701502555741
20
342.20581920071345
42
-0.41421356237259555
10
595.5657551830376
20
342.28455935819375
42
-0.41421356237309503
0
ARC
5
599
100
AcDbEntity
8
0
100
AcDbCircle
10
596.61700261616454
20
339.64487569936557
30
0
40
0.17716535433074346
210
0
220
0
230
1
100
AcDbArc
50
225.01090501916173
51
315.0109050191877
0
ARC
5
600
100
AcDbEntity
8
0
100
AcDbCircle
10
607.39798241676135
20
347.70221259681512
30
0
40
0.0078740157480243333
210
-0
220
0
230
1
100
AcDbArc
50
270.00000005128948
51
331.92751309385505
0
ARC
5
601
100
AcDbEntity
8
0
100
AcDbCircle
10
601.51940059065964
20
344.75326045122762
30
0
40
1.555118110236273
210
-0
220
0
230
1
100
AcDbArc
50
-41.087046171612819
51
45.010441158767847
0
LWPOLYLINE
5
602
100
AcDbEntity
8
0
100
AcDbPolyline
90
4
70
1
43
0.0
10
596.69515180783435
20
346.03337020220255
42
-0.41421356237276202
10
596.61641165035417
20
345.95463004472225
42
-0.41421356237359452
10
596.53767149287376
20
346.03337020220255
42
-0.41421356237292856
10
596.61641165035405
20
346.11211035968296
42
-0.41421356237259555
0
ARC
5
603
100
AcDbEntity
8
0
100
AcDbCircle
10
603.3365605366788
20
347.70220296428505
30
0
40
0.0078648432543995707
210
0
220
0
230
1
100
AcDbArc
50
269.9603567230584
51
331.96739323695056
0
ARC
5
604
100
AcDbEntity
8
0
100
AcDbCircle
10
603.33655503202738
20
347.70221213866091
30
0
40
0.007874015747982837
210
0
220
0
230
1
100
AcDbArc
50
208.07270789484051
51
270.00045785532694
0
LWPOLYLINE
5
605
100
AcDbEntity
8
0
100
AcDbPolyline
90
4
70
1
43
0.0
10
603.13968565321954
20
342.76229256394669
42
-0.41421356237342799
10
603.06094549573913
20
342.84103272142693
42
-0.41421356237309503
10
603.13968565321954
20
342.91977287890722
42
-0.41421356237309503
10
603.21842581069973
20
342.84103272142698
42
-0.41421356237259555
0
LWPOLYLINE
5
606
100
AcDbEntity
8
0
100
AcDbPolyline
90
8
70
1
43
0.0
10
601.85392576372556
20
347.34206307989143
42
-0.41421356237309503
10
601.95333521254452
20
347.24265363107253
10
601.95333521254452
20
346.55564575705671
42
-0.4142135623729632
10
601.85392576372556
20
346.45623630823786
10
599.07046119679649
20
346.45623630823786
42
-0.41421356237335882
10
598.97105174797753
20
346.55564575705671
10
598.97105174797764
20
347.24265363107253
42
-0.41421356237309503
10
599.07046119679649
20
347.34206307989137
0
ARC
5
607
100
AcDbEntity
8
0
100
AcDbCircle
10
607.39798241676135
20
347.70221259681517
30
0
40
0.0078740157480407681
210
0
220
0
230
1
100
AcDbArc
50
208.60583157534239
51
270.00000005128948
0
ARC
5
608
100
AcDbEntity
8
0
100
AcDbCircle
10
607.45703753471264
20
347.67071653394709
30
0
40
0.059055117911543852
210
0
220
-0
230
1
100
AcDbArc
50
89.999999807195707
51
151.92751309385019
0
ARC
5
609
100
AcDbEntity
8
0
100
AcDbCircle
10
603.27750007058671
20
347.67071586670193
30
0
40
0.059055078210280269
210
0
220
-0
230
1
100
AcDbArc
50
28.072707894726996
51
90.000094894963055
0
LWPOLYLINE
5
610
100
AcDbEntity
8
0
100
AcDbPolyline
90
4
70
1
43
0.0
10
602.72138940895991
20
342.20580640898544
42
-0.41421356237309503
10
602.80012956644021
20
342.28454656646579
42
-0.41421356237309503
10
602.8788697239205
20
342.20580640898544
42
-0.41421356237309503
10
602.80012956644032
20
342.1270662515052
42
-0.41421356237292856
0
LWPOLYLINE
5
611
100
AcDbEntity
8
0
100
AcDbPolyline
90
4
70
1
43
0.0
10
587.58624616024372
20
340.52294110340932
42
-0.41421356237309503
10
587.65613367132232
20
340.45305359233078
42
-0.41421356237309503
10
587.58624616024372
20
340.38316608125217
42
-0.41421356237309503
10
587.51635864916511
20
340.45305359233078
42
-0.41421356237328266
0
LWPOLYLINE
5
612
100
AcDbEntity
8
0
100
AcDbPolyline
90
4
70
1
43
0.0
10
603.53286479101814
20
347.35327874205495
42
-0.41421356237276202
10
603.45412463353784
20
347.43201889953536
42
-0.41421356237309503
10
603.53286479101814
20
347.51075905701555
42
-0.41421356237342799
10
603.61160494849844
20
347.43201889953531
42
-0.41421356237326151
0
LWPOLYLINE
5
613
100
AcDbEntity
8
0
100
AcDbPolyline
90
4
70
1
43
0.0
10
595.48700136469915
20
339.64537591158512
42
-0.41421356237259555
10
595.56574152217945
20
339.72411606906542
42
-0.41421356237292856
10
595.64448167965975
20
339.64537591158512
42
-0.41421356237309503
10
595.56574152217945
20
339.56663575410477
42
-0.41421356237309503
0
LWPOLYLINE
5
614
100
AcDbEntity
8
0
100
AcDbPolyline
90
4
70
1
43
0.0
10
602.80011590558195
20
345.95474839195271
42
-0.41421356237309503
10
602.72137574810165
20
346.03348854943306
42
-0.41421356237309503
10
602.80011590558195
20
346.11222870691341
42
-0.41421356237292856
10
602.87885606306236
20
346.03348854943312
42
-0.41421356237309503
0
LWPOLYLINE
5
615
100
AcDbEntity
8
0
100
AcDbPolyline
90
4
70
1
43
0.0
10
589.43661474919088
20
342.37293048976693
42
-0.41421356237328266
10
589.50650226026937
20
342.30304297868832
42
-0.41421356237290746
10
589.43661474919088
20
342.23315546760978
42
-0.41421356237309503
10
589.36672723811239
20
342.30304297868832
42
-0.41421356237328266
0
LWPOLYLINE
5
616
100
AcDbEntity
8
0
100
AcDbPolyline
90
4
70
1
43
0.0
10
593.08308128869965
20
342.20581631930037
42
-0.414213562373761
10
593.00434113121923
20
342.12707616181996
42
-0.41421356237276202
10
592.92560097373894
20
342.20581631930031
42
-0.41421356237309503
10
593.00434113121923
20
342.28455647678061
42
-0.41421356237342799
0
LWPOLYLINE
5
617
100
AcDbEntity
8
0
100
AcDbPolyline
90
4
70
1
43
0.0
10
601.51941425151767
20
342.48069642101621
42
-0.41421356237308665
10
603.074532361754
20
340.92557831078
42
-0.41421356237311197
10
601.51941425151767
20
339.37046020054373
42
-0.41421356237308665
10
599.96429614128158
20
340.92557831078005
42
-0.41421356237306972
0
LWPOLYLINE
5
618
100
AcDbEntity
8
0
100
AcDbPolyline
90
4
70
1
43
0.0
10
603.93457423708389
20
346.03337020220249
42
-0.41421356237309503
10
603.8558340796036
20
345.95463004472219
42
-0.41421356237326151
10
603.77709392212319
20
346.03337020220255
42
-0.41421356237309503
10
603.85583407960348
20
346.11211035968273
42
-0.414213562373761
0
LINE
5
619
100
AcDbEntity
8
0
100
AcDbLine
10
607.39937969025073
20
346.86845281659441
30
0
11
607.39937969025073
21
347.72609324839704
31
0
0
LWPOLYLINE
5
620
100
AcDbEntity
8
0
100
AcDbPolyline
90
4
70
1
43
0.0
10
592.62457695400087
20
342.76206175073844
42
-0.41421356237309503
10
592.54583679652058
20
342.84080190821874
42
-0.41421356237309503
10
592.62457695400087
20
342.91954206569903
42
-0.41421356237292856
10
592.70331711148128
20
342.84080190821874
42
-0.41421356237309503
0
LWPOLYLINE
5
621
100
AcDbEntity
8
0
100
AcDbPolyline
90
4
70
1
43
0.0
10
592.02517354470046
20
340.45324556823323
42
-0.41421356237309503
10
591.95528603362197
20
340.38335805715462
42
-0.41421356237309503
10
591.88539852254348
20
340.45324556823323
42
-0.41421356237309503
10
591.95528603362197
20
340.52313307931178
42
-0.41421356237290746
0
LWPOLYLINE
5
622
100
AcDbEntity
8
0
100
AcDbPolyline
90
4
70
1
43
0.0
10
591.95631324355418
20
343.44994529313527
42
-0.41421356237328266
10
592.02620075463267
20
343.38005778205661
42
-0.41421356237234469
10
591.95631324355429
20
343.31017027097812
42
-0.41421356237365781
10
591.88642573247569
20
343.38005778205667
42
-0.41421356237309503
0
LINE
5
623
100
AcDbEntity
8
0
100
AcDbLine
10
603.98160167092942
20
343.34719724633783
30
0
11
604.14502077032307
21
343.51067618408899
31
0
0
LWPOLYLINE
5
624
100
AcDbEntity
8
0
100
AcDbPolyline
90
4
70
1
43
0.0
10
590.10506962392412
20
342.23280657407793
42
-0.41421356237365781
10
590.0351821128454
20
342.30269408515642
42
-0.41421356237347023
10
590.10506962392412
20
342.37258159623497
42
-0.41421356237253226
10
590.17495713500261
20
342.30269408515642
42
-0.41421356237271989
0
ARC
5
625
100
AcDbEntity
8
0
100
AcDbCircle
10
607.43874976899087
20
346.89128234151093
30
0
40
0.039370078740121668
210
0
220
-0
230
1
100
AcDbArc
50
89.999999999834557
51
180
0
ARC
5
626
100
AcDbEntity
8
0
100
AcDbCircle
10
603.39561019690234
20
347.6707165482261
30
0
40
0.059054936995248559
210
0
220
0
230
1
100
AcDbArc
50
90.015189533681152
51
151.92796841836602
0
LWPOLYLINE
5
627
100
AcDbEntity
8
0
100
AcDbPolyline
90
4
70
1
43
0.0
10
590.10549572582204
20
343.30789610630109
42
-0.41421356237328266
10
590.03560821474332
20
343.37778361737975
42
-0.41421356237290746
10
590.10549572582192
20
343.4476711284583
42
-0.41421356237309503
10
590.17538323690053
20
343.37778361737969
42
-0.41421356237309503
0
ARC
5
628
100
AcDbEntity
8
0
100
AcDbCircle
10
607.34102330120152
20
347.66709174747302
30
0
40
0.059055118110629294
210
0
220
-0
230
1
100
AcDbArc
50
32.064631541823374
51
90.005799327315813
0
LWPOLYLINE
5
629
100
AcDbEntity
8
0
100
AcDbPolyline
90
4
70
1
43
0.0
10
587.58587401280704
20
342.37240891275496
42
-0.41421356237309503
10
587.65576152388553
20
342.30252140167642
42
-0.41421356237309503
10
587.58587401280704
20
342.23263389059787
42
-0.41421356237290746
10
587.51598650172843
20
342.30252140167642
42
-0.41421356237309503
0
LWPOLYLINE
5
630
100
AcDbEntity
8
0
100
AcDbPolyline
90
4
70
1
43
0.0
10
602.72136208724351
20
343.47304526030479
42
-0.41421356237309503
10
602.80010224472392
20
343.55178541778508
42
-0.41421356237309503
10
602.87884240220421
20
343.47304526030479
42
-0.41421356237292856
10
602.80010224472392
20
343.39430510282449
42
-0.41421356237309503
0
LINE
5
631
100
AcDbEntity
8
0
100
AcDbLine
10
603.73100616537874
20
343.59770102613294
30
0
11
603.89442513922427
21
343.76117983828999
31
0
0
LWPOLYLINE
5
632
100
AcDbEntity
8
0
100
AcDbPolyline
90
4
70
1
43
0.0
10
591.95512875290922
20
342.23342968079669
42
-0.41421356237328266
10
591.88524124183061
20
342.30331719187535
42
-0.41421356237309503
10
591.95512875290922
20
342.3732047029539
42
-0.41421356237309503
10
592.02501626398782
20
342.30331719187529
42
-0.41421356237309503
0
ARC
5
633
100
AcDbEntity
8
0
100
AcDbCircle
10
603.85630482995327
20
343.47245004836844
30
0
40
0.17716535433064853
210
0
220
0
230
1
100
AcDbArc
50
225.01090501918776
51
315.0109050192267
0
CIRCLE
5
634
100
AcDbEntity
8
0
100
AcDbCircle
10
10.44003123911434
20
-5.1601299880105369
30
0
40
0.1000000000000001
210
0
220
0
230
1
0
ARC
5
635
100
AcDbEntity
8
0
100
AcDbCircle
10
604.1728495449081
20
343.48282725474593
30
0
40
0.039370078740174647
210
0
220
-0
230
1
100
AcDbArc
50
52.815466497919715
51
135.0104879348217
0
ARC
5
636
100
AcDbEntity
8
0
100
AcDbCircle
10
588.50478593521166
20
335.92594901594293
30
0
40
0.23228346456689689
210
0
220
0
230
1
100
AcDbArc
50
-90
51
0
0
ARC
5
637
100
AcDbEntity
8
0
100
AcDbCircle
10
603.85630482995327
20
343.4724500483685
30
0
40
0.17716535433071184
210
0
220
0
230
1
100
AcDbArc
50
135.01090501920075
51
225.01090501920069
0
ARC
5
638
100
AcDbEntity
8
0
100
AcDbCircle
10
588.50478593521154
20
335.92594901594305
30
0
40
0.23228346456689689
210
0
220
-0
230
1
100
AcDbArc
50
90
51
180
0
ARC
5
639
100
AcDbEntity
8
0
100
AcDbCircle
10
603.86656639921159
20
343.78899879123321
30
0
40
0.039370078740137718
210
-0
220
0
230
1
100
AcDbArc
50
-44.989512065236795
51
37.20541581948995
0
LINE
5
640
100
AcDbEntity
8
0
100
AcDbLine
10
6.1927515939767606
20
-7.027642821553111
30
0
11
6.1641296435725703
21
-7.0276428228398311
31
0
0
ARC
5
641
100
AcDbEntity
8
0
100
AcDbCircle
10
6.1927515922068261
20
-6.9882727428128995
30
0
40
0.039370078740211228
210
-0
220
0
230
1
100
AcDbArc
50
270.0000025758082
51
360
0
ARC
5
642
100
AcDbEntity
8
0
100
AcDbCircle
10
605.13653281649954
20
340.92559110250784
30
0
40
1.5551181102361753
210
0
220
0
230
1
100
AcDbArc
50
232.81546649801004
51
318.91295382839189
0
LINE
5
643
100
AcDbEntity
8
0
100
AcDbLine
10
606.55398902620664
20
347.72686989979093
30
0
11
606.55398902620664
21
329.25021258698899
31
0
0
LINE
5
644
100
AcDbEntity
8
0
100
AcDbLine
10
607.45703753491136
20
347.72977165185864
30
0
11
613.72018461170819
21
347.7297716518587
31
0
0
LINE
5
645
100
AcDbEntity
8
0
100
AcDbLine
10
607.43874976899099
20
333.25284597847826
30
0
11
613.73934815825112
21
333.25284658481689
31
0
0
CIRCLE
5
646
100
AcDbEntity
8
0
100
AcDbCircle
10
8.9345394543632555
20
-1.2550101636545843
30
0
40
0.82286620379863329
210
0
220
0
230
1
0
LWPOLYLINE
5
647
100
AcDbEntity
8
0
100
AcDbPolyline
90
4
70
1
43
0.0
10
620.96504384910872
20
334.61368598789079
42
-0.41421356237309503
10
620.88630369162843
20
334.53494583041044
42
-0.41421356237326151
10
620.80756353414813
20
334.61368598789073
42
-0.41421356237309503
10
620.88630369162843
20
334.69242614537109
42
-0.41421356237309503
0
LWPOLYLINE
5
648
100
AcDbEntity
8
0
100
AcDbPolyline
90
4
70
1
43
0.0
10
614.01827770207285
20
342.19588696765919
42
-0.41421356237292856
10
613.93953754459244
20
342.27462712513949
42
-0.41421356237309503
10
614.01827770207285
20
342.35336728261979
42
-0.41421356237276202
10
614.09701785955315
20
342.27462712513949
42
-0.41421356237309503
0
CIRCLE
5
649
100
AcDbEntity
8
0
100
AcDbCircle
10
609.34213464510822
20
332.02210958698902
30
0
40
0.374
210
0
220
0
230
1
0
LINE
5
650
100
AcDbEntity
8
0
100
AcDbLine
10
626.17999010679512
20
330.47396010860496
30
0
11
611.11242377145379
21
330.47396012325913
31
0
0
LINE
5
651
100
AcDbEntity
8
0
100
AcDbLine
10
607.43874976899099
20
346.93065242025102
30
0
11
613.73725676392496
21
346.93089490438246
31
0
0
LINE
5
652
100
AcDbEntity
8
0
100
AcDbLine
10
613.77733244615627
20
337.68783700677341
30
0
11
613.77871823124599
21
333.2922290755979
31
0
0
LWPOLYLINE
5
653
100
AcDbEntity
8
0
100
AcDbPolyline
90
4
70
1
43
0.0
10
603.074532361754
20
336.98496419975254
42
-0.41421356237309503
10
601.51941425151767
20
335.42984608951633
42
-0.41421356237309503
10
599.96429614128158
20
336.98496419975254
42
-0.41421356237309503
10
601.51941425151767
20
338.54008230998875
42
-0.41421356237308665
0
LWPOLYLINE
5
654
100
AcDbEntity
8
0
100
AcDbPolyline
90
4
70
1
43
0.0
10
624.05992855596639
20
334.53892120787924
42
-0.41421356237309503
10
623.971345878801
20
334.62750388504458
42
-0.41421356237309503
10
624.05992855596639
20
334.71608656220997
42
-0.41421356237309503
10
624.1485112331319
20
334.62750388504452
42
-0.41421356237279905
0
CIRCLE
5
655
100
AcDbEntity
8
0
100
AcDbCircle
10
8.9345394543632555
20
-1.2550101636545843
30
0
40
0.82286620379863329
210
0
220
0
230
1
0
LWPOLYLINE
5
656
100
AcDbEntity
8
0
100
AcDbPolyline
90
4
70
1
43
0.0
10
625.92824709842819
20
339.02039375429433
42
-0.41421356237309503
10
626.00698725590848
20
339.09913391177463
42
-0.41421356237326151
10
626.08572741338878
20
339.02039375429428
42
-0.41421356237309503
10
626.00698725590848
20
338.94165359681398
42
-0.41421356237309503
0
CIRCLE
5
657
100
AcDbEntity
8
0
100
AcDbCircle
10
-9.0654605456367428
20
-1.2550101636545843
30
0
40
0.82286620379863329
210
0
220
0
230
1
0
ARC
5
658
100
AcDbEntity
8
0
100
AcDbCircle
10
626.17999010685242
20
330.53301522671501
30
0
40
0.059055118110048231
210
0
220
0
230
1
100
AcDbArc
50
269.99999994440884
51
359.99968627681045
0
LWPOLYLINE
5
659
100
AcDbEntity
8
0
100
AcDbPolyline
90
4
70
1
43
0.0
10
615.04853236122597
20
342.90881456691409
42
-0.41421356237359452
10
614.96979220374556
20
342.83007440943379
42
-0.41421356237276202
10
614.89105204626537
20
342.90881456691409
42
-0.41421356237309503
10
614.96979220374556
20
342.98755472439444
42
-0.41421356237309503
0
LINE
5
660
100
AcDbEntity
8
0
100
AcDbLine
10
626.23906615852241
20
334.35613673507567
30
0
11
626.23904522496161
21
330.53301490335798
31
0
0
ARC
5
661
100
AcDbEntity
8
0
100
AcDbCircle
10
605.13650379230103
20
336.9849641997526
30
0
40
1.5551181102360707
210
-0
220
0
230
1
100
AcDbArc
50
-41.087046171618319
51
45.010441158770796
0
CIRCLE
5
662
100
AcDbEntity
8
0
100
AcDbCircle
10
-9.0654605456367428
20
-1.2550101636545843
30
0
40
0.82286620379863329
210
0
220
0
230
1
0
ARC
5
663
100
AcDbEntity
8
0
100
AcDbCircle
10
626.2191840975139
20
334.41519196205132
30
0
40
0.011811023621990657
210
0
220
0
230
1
100
AcDbArc
50
123.55699603758252
51
179.99968627681048
0
LWPOLYLINE
5
664
100
AcDbEntity
8
0
100
AcDbPolyline
90
4
70
1
43
0.0
10
625.9282470984283
20
334.61368598789073
42
-0.41421356237326151
10
626.00698725590848
20
334.69242614537103
42
-0.41421356237309503
10
626.08572741338878
20
334.61368598789073
42
-0.41421356237309503
10
626.00698725590848
20
334.53494583041038
42
-0.41421356237309503
0
LWPOLYLINE
5
665
100
AcDbEntity
8
0
100
AcDbPolyline
90
4
70
1
43
0.0
10
625.92431009055417
20
330.7097810685238
42
-0.41421356237309503
10
626.00698725590848
20
330.79245823387816
42
-0.41421356237309503
10
626.0896644212628
20
330.7097810685238
42
-0.41421356237293649
10
626.00698725590848
20
330.62710390316954
42
-0.41421356237293649
0
ARC
5
666
100
AcDbEntity
8
0
100
AcDbCircle
10
626.18001104041309
20
334.35613705843281
30
0
40
0.059055118110262123
210
-0
220
0
230
1
100
AcDbArc
50
-0.00031372318952718704
51
56.442376514182719
0
CIRCLE
5
667
100
AcDbEntity
8
0
100
AcDbCircle
10
8.3285743806686021
20
-0.41282758134555614
30
0
40
0.12744734153002224
210
0
220
0
230
1
0
ARC
5
668
100
AcDbEntity
8
0
100
AcDbCircle
10
615.2502737506901
20
342.4208870514629
30
0
40
0.039370078740211187
210
0
220
0
230
1
100
AcDbArc
50
180
51
270
0
LWPOLYLINE
5
669
100
AcDbEntity
8
0
100
AcDbPolyline
90
4
70
1
43
0.0
10
607.23709830104463
20
334.61368598789073
42
-0.41421356237359452
10
607.1583581435641
20
334.53494583041044
42
-0.41421356237276202
10
607.07961798608392
20
334.61368598789079
42
-0.41421356237309503
10
607.1583581435641
20
334.69242614537103
42
-0.41421356237309503
0
CIRCLE
5
670
100
AcDbEntity
8
0
100
AcDbCircle
10
606.7814866451082
20
332.02210958698902
30
0
40
0.374
210
0
220
0
230
1
0
ARC
5
671
100
AcDbEntity
8
0
100
AcDbCircle
10
605.1365037923008
20
336.98496419975254
30
0
40
1.5551181102362346
210
0
220
0
230
1
100
AcDbArc
50
131.10792848914565
51
217.20541581952597
0
CIRCLE
5
672
100
AcDbEntity
8
0
100
AcDbCircle
10
8.3285743806686021
20
-2.1735960252500983
30
0
40
0.091329996700589014
210
0
220
0
230
1
0
ARC
5
673
100
AcDbEntity
8
0
100
AcDbCircle
10
605.1365037923008
20
336.98496419975277
30
0
40
1.5551181102363907
210
0
220
0
230
1
100
AcDbArc
50
232.81546649800924
51
318.91295382838246
0
LWPOLYLINE
5
674
100
AcDbEntity
8
0
100
AcDbPolyline
90
4
70
1
43
0.0
10
614.96979220374556
20
345.08256583522433
42
-0.41421356237309503
10
614.89105204626537
20
345.16130599270457
42
-0.41421356237326151
10
614.96979220374556
20
345.24004615018492
42
-0.41421356237326151
10
615.04853236122597
20
345.16130599270457
42
-0.41421356237292856
0
LINE
5
675
100
AcDbEntity
8
0
100
AcDbLine
10
603.31482965204793
20
329.48083716873191
30
0
11
602.55233127039673
21
330.28270562912331
31
0
0
CIRCLE
5
676
100
AcDbEntity
8
0
100
AcDbCircle
10
-9.0654605456367428
20
-1.2550101636545843
30
0
40
0.82286620379863329
210
0
220
0
230
1
0
ARC
5
677
100
AcDbEntity
8
0
100
AcDbCircle
10
601.51940059065964
20
344.75326045122762
30
0
40
1.555118110236261
210
0
220
-0
230
1
100
AcDbArc
50
45.010441158767847
51
131.10792848914565
0
LWPOLYLINE
5
678
100
AcDbEntity
8
0
100
AcDbPolyline
90
4
70
1
43
0.0
10
606.41720544636519
20
335.78348916631012
42
-0.41421356237276202
10
606.49594560384537
20
335.70474900882976
42
-0.41421356237309503
10
606.41720544636507
20
335.62600885134947
42
-0.41421356237309503
10
606.33846528888478
20
335.70474900882971
42
-0.41421356237292856
0
ARC
5
679
100
AcDbEntity
8
0
100
AcDbCircle
10
601.51940059065964
20
344.75326045122756
30
0
40
1.5551181102362295
210
0
220
0
230
1
100
AcDbArc
50
232.81546649800546
51
318.91295382838877
0
LWPOLYLINE
5
680
100
AcDbEntity
8
0
100
AcDbPolyline
90
4
70
1
43
0.0
10
611.32962072851512
20
330.79245823387816
42
-0.41421356237309503
10
611.41229789386955
20
330.7097810685238
42
-0.41421356237309503
10
611.32962072851512
20
330.62710390316948
42
-0.41421356237325357
10
611.24694356316081
20
330.70978106852385
42
-0.41421356237293649
0
LINE
5
681
100
AcDbEntity
8
0
100
AcDbLine
10
598.51841400510602
20
331.98596000365848
30
0
11
597.66841400510611
21
331.98596000365848
31
0
0
LINE
5
682
100
AcDbEntity
8
0
100
AcDbLine
10
597.66841400510611
20
331.98596000365848
30
0
11
598.51841400510602
21
333.16096000365843
31
0
0
LWPOLYLINE
5
683
100
AcDbEntity
8
0
100
AcDbPolyline
90
4
70
1
43
0.0
10
603.57926363338254
20
334.71604819206999
42
-0.41421356237309503
10
603.68162583810692
20
334.6136859873456
42
-0.41421356237309503
10
603.57926363338254
20
334.51132378262122
42
-0.41421356237309503
10
603.47690142865815
20
334.6136859873456
42
-0.41421356237309503
0
SPLINE
5
684
100
AcDbEntity
8
0
100
AcDbSpline
70
0
71
3
72
14
73
10
74
0
42
0.000000001
43
0.0000000001
44
0.0000000001
40
0
40
0
40
0
40
0
40
94.074213406790932
40
190.22246044394524
40
260.82798094401551
40
305.05722477397285
40
337.93346459869917
40
356.48090088397203
40
372.11344451039531
40
372.11344451039531
40
372.11344451039531
40
372.11344451039531
10
613.8397851758632
20
347.72264885663355
30
0
10
615.07453590401235
20
347.6922980385142
30
0
10
617.57112441420952
20
347.62855689589219
30
0
10
620.97105106742538
20
347.13222049347331
30
0
10
623.61557937425562
20
346.22236881316587
30
0
10
625.22665893467843
20
345.09614788085059
30
0
10
625.97655240342181
20
344.04987980627948
30
0
10
626.21327334643104
20
343.19058928153999
30
0
10
626.23100239668952
20
342.74160517744303
30
0
10
626.23911094889866
20
342.53625796503979
30
0
0
ARC
5
685
100
AcDbEntity
8
0
100
AcDbCircle
10
626.21918409751413
20
334.41519196205132
30
0
40
0.011811023622124038
210
0
220
0
230
1
100
AcDbArc
50
179.99968627681048
51
236.44237651396793
0
LWPOLYLINE
5
686
100
AcDbEntity
8
0
100
AcDbPolyline
90
4
70
1
43
0.0
10
606.41721910722322
20
338.18645214047768
42
-0.41421356237309503
10
606.33847894974292
20
338.26519229795804
42
-0.41421356237292856
10
606.41721910722322
20
338.34393245543833
42
-0.41421356237259555
10
606.49595926470352
20
338.26519229795804
42
-0.41421356237309503
0
SPLINE
5
687
100
AcDbEntity
8
0
100
AcDbSpline
70
0
71
3
72
11
73
7
74
0
42
0.000000001
43
0.0000000001
44
0.0000000001
40
0
40
0
40
0
40
0
40
39.493341781749223
40
98.709185770871045
40
159.57806044535982
40
175.04390341281442
40
175.04390341281442
40
175.04390341281442
40
175.04390341281442
10
592.47583848013358
20
347.10225918445803
30
0
10
592.98463811475972
20
347.2022789335731
30
0
10
594.25657968625478
20
347.45062477065812
30
0
10
596.34673588828014
20
347.63296446173223
30
0
10
598.12405301067372
20
347.69916130684032
30
0
10
599.12551571705126
20
347.72461408150184
30
0
10
599.32841769184131
20
347.72977095675026
30
0
0
ARC
5
688
100
AcDbEntity
8
0
100
AcDbCircle
10
605.13650379230091
20
336.98496419975254
30
0
40
1.555118110236261
210
0
220
-0
230
1
100
AcDbArc
50
45.010441158769325
51
131.10792848914883
0
LINE
5
689
100
AcDbEntity
8
0
100
AcDbLine
10
615.2502737506901
20
342.38151697272275
30
0
11
621.51011627037508
21
342.38151697272275
31
0
0
ARC
5
690
100
AcDbEntity
8
0
100
AcDbCircle
10
611.10245803318458
20
329.59690493065432
30
0
40
0.87711181865516774
210
0
220
-0
230
1
100
AcDbArc
50
89.348991564969239
51
128.5664972897475
0
CIRCLE
5
691
100
AcDbEntity
8
0
100
AcDbCircle
10
604.60426664510828
20
331.78162837654116
30
0
40
0.26549999999999946
210
0
220
0
230
1
0
LINE
5
692
100
AcDbEntity
8
0
100
AcDbLine
10
601.99555427810219
20
330.47396013212597
30
0
11
601.99557584761601
21
334.41532452822315
31
0
0
LINE
5
693
100
AcDbEntity
8
0
100
AcDbLine
10
597.66841400510611
20
333.16096000365843
30
0
11
598.51841400510602
21
333.16096000365843
31
0
0
LWPOLYLINE
5
694
100
AcDbEntity
8
0
100
AcDbPolyline
90
4
70
1
43
0.0
10
607.1583581435641
20
339.05818199692072
42
-0.41421356237309503
10
607.23709830104463
20
338.97944183944043
42
-0.41421356237326151
10
607.1583581435641
20
338.90070168196019
42
-0.41421356237259555
10
607.07961798608392
20
338.97944183944043
42
-0.41421356237309503
0
ARC
5
695
100
AcDbEntity
8
0
100
AcDbCircle
10
602.0055200192287
20
329.59690493065449
30
0
40
0.87711181865502019
210
0
220
-0
230
1
100
AcDbArc
50
51.433502710253656
51
90.65100843503086
0
LWPOLYLINE
5
696
100
AcDbEntity
8
0
100
AcDbPolyline
90
4
70
1
43
0.0
10
614.01827732804611
20
345.4910722533582
42
-0.41421356237309503
10
613.9395371705657
20
345.56981241083855
42
-0.41421356237309503
10
614.01827732804611
20
345.64855256831891
42
-0.41421356237276202
10
614.09701748552641
20
345.56981241083855
42
-0.41421356237309503
0
ARC
5
697
100
AcDbEntity
8
0
100
AcDbCircle
10
626.18001168712749
20
334.47424729465149
30
0
40
0.059055118110113915
210
-0
220
0
230
1
100
AcDbArc
50
303.55699603801162
51
359.99968627681045
0
LINE
5
698
100
AcDbEntity
8
0
100
AcDbLine
10
615.2502737506901
20
345.64923350815582
30
0
11
621.51011627037508
21
345.64923350815582
31
0
0
LINE
5
699
100
AcDbEntity
8
0
100
AcDbLine
10
615.2502737506901
20
342.4208870514629
30
0
11
621.51011627037508
21
342.42088705146284
31
0
0
LINE
5
700
100
AcDbEntity
8
0
100
AcDbLine
10
609.23637140730489
20
329.25021258698899
30
0
11
603.87160664510827
21
329.25021258698899
31
0
0
LWPOLYLINE
5
701
100
AcDbEntity
8
0
100
AcDbPolyline
90
8
70
1
43
0.0
10
603.81390833677756
20
326.42649617558629
42
-0.41421356237309503
10
603.73516817929715
20
326.34775601810594
10
603.69579810055711
20
326.347756018106
42
-0.41421356237292856
10
603.6170579430767
20
326.42649617558629
10
603.61705794307659
20
327.45011822283027
42
-0.41421356237359452
10
603.69579810055711
20
327.52885838031062
10
603.73516817929715
20
327.52885838031062
42
-0.41421356237309503
10
603.81390833677756
20
327.45011822283027
0
LINE
5
702
100
AcDbEntity
8
0
100
AcDbLine
10
599.32841769184131
20
347.72977095675026
30
0
11
603.27749997277795
21
347.72977094491216
31
0
0
LINE
5
703
100
AcDbEntity
8
0
100
AcDbLine
10
598.51841400510602
20
331.98596000365848
30
0
11
597.66841400510611
21
333.16096000365843
31
0
0
LWPOLYLINE
5
704
100
AcDbEntity
8
0
100
AcDbPolyline
90
4
70
1
43
0.0
10
601.86103819090488
20
330.71056341982552
42
-0.41421356237293649
10
601.77836102555057
20
330.62788625447115
42
-0.41421356237309503
10
601.69568386019625
20
330.71056341982552
42
-0.41421356237309503
10
601.77836102555057
20
330.79324058517983
42
-0.41421356237309503
0
CIRCLE
5
705
100
AcDbEntity
8
0
100
AcDbCircle
10
604.60426664510828
20
330.45032510365348
30
0
40
0.26549999999999946
210
0
220
0
230
1
0
ARC
5
706
100
AcDbEntity
8
0
100
AcDbCircle
10
603.87160664510816
20
330.03761416179196
30
0
40
0.78740157480299766
210
0
220
0
230
1
100
AcDbArc
50
224.99999999999125
51
270.00000000000824
0
ARC
5
707
100
AcDbEntity
8
0
100
AcDbCircle
10
607.43874976899099
20
333.29221605721847
30
0
40
0.039370078740211187
210
0
220
0
230
1
100
AcDbArc
50
180
51
270
0
LWPOLYLINE
5
708
100
AcDbEntity
8
0
100
AcDbPolyline
90
4
70
1
43
0.0
10
602.87885606306236
20
335.70474900882976
42
-0.41421356237309503
10
602.80011590558206
20
335.62600885134947
42
-0.41421356237292856
10
602.72137574810176
20
335.70474900882976
42
-0.41421356237309503
10
602.80011590558206
20
335.78348916631006
42
-0.41421356237309503
0
LWPOLYLINE
5
709
100
AcDbEntity
8
0
100
AcDbPolyline
90
4
70
1
43
0.0
10
602.8788697239205
20
338.26519229795798
42
-0.41421356237309503
10
602.80012956644021
20
338.18645214047763
42
-0.41421356237276202
10
602.72138940895991
20
338.26519229795798
42
-0.41421356237326151
10
602.80012956644021
20
338.34393245543833
42
-0.41421356237309503
0
CIRCLE
5
710
100
AcDbEntity
8
0
100
AcDbCircle
10
607.81570113329724
20
330.41758258698906
30
0
40
0.19149999999999998
210
0
220
0
230
1
0
LWPOLYLINE
5
711
100
AcDbEntity
8
0
100
AcDbPolyline
90
4
70
1
43
0.0
10
595.37952243452344
20
333.13959387970732
42
-0.41421356237309503
10
595.14723896995645
20
333.37187734427431
42
-0.4142135623732644
10
595.37952243452332
20
333.60416080884124
42
-0.41421356237292573
10
595.61180589909031
20
333.37187734427431
42
-0.41421356237315149
0
ARC
5
712
100
AcDbEntity
8
0
100
AcDbCircle
10
615.2502737506901
20
345.64923350815582
30
0
40
0.039370078740166431
210
0
220
-0
230
1
100
AcDbArc
50
90
51
180
0
LWPOLYLINE
5
713
100
AcDbEntity
8
0
100
AcDbPolyline
90
4
70
1
43
0.0
10
597.8228480125108
20
347.43201889953531
42
-0.41421356237309503
10
597.90158816999121
20
347.51075905701566
42
-0.41421356237309503
10
597.98032832747151
20
347.43201889953531
42
-0.41421356237309503
10
597.90158816999121
20
347.35327874205501
42
-0.41421356237309503
0
LWPOLYLINE
5
714
100
AcDbEntity
8
0
100
AcDbPolyline
90
6
70
1
43
0.0
10
604.7095776118465
20
325.56035444330274
10
604.7095776118465
20
328.31625995511371
42
0.41421356236923246
10
604.41430202129925
20
328.61153554566494
42
0.41421356237700202
10
604.11902643074416
20
328.31625995511376
10
604.11902643074416
20
325.56035444330274
42
0.41421356236927687
10
604.41430202129141
20
325.26507885275157
42
0.41421356237691326
0
LWPOLYLINE
5
715
100
AcDbEntity
8
0
100
AcDbPolyline
90
4
70
1
43
0.0
10
601.72551961234944
20
331.41289155544268
42
-0.41421356237369544
10
601.68185018736335
20
331.36922213045636
42
-0.41421356237279483
10
601.63818076237692
20
331.41289155544263
42
-0.41421356237339524
10
601.68185018736324
20
331.45656098042889
42
-0.41421356237309503
0
LWPOLYLINE
5
716
100
AcDbEntity
8
0
100
AcDbPolyline
90
4
70
1
43
0.0
10
598.76928009443418
20
346.97788985154494
42
-0.41421356237309503
10
598.84802025191459
20
346.89914969406459
42
-0.41421356237309503
10
598.76928009443418
20
346.82040953658429
42
-0.41421356237309503
10
598.69053993695388
20
346.89914969406459
42
-0.41421356237309503
0
LWPOLYLINE
5
717
100
AcDbEntity
8
0
100
AcDbPolyline
90
4
70
1
43
0.0
10
606.41723447056393
20
343.39418963700717
42
-0.41421356237326151
10
606.3384943130834
20
343.47292979448747
42
-0.41421356237309503
10
606.41723447056381
20
343.55166995196771
42
-0.41421356237309503
10
606.49597462804411
20
343.47292979448741
42
-0.41421356237309503
0
LWPOLYLINE
5
718
100
AcDbEntity
8
0
100
AcDbPolyline
90
4
70
1
43
0.0
10
592.62422515462413
20
346.8055005074653
42
-0.41421356237309503
10
592.54548499714383
20
346.88424066494565
42
-0.41421356237309503
10
592.62422515462413
20
346.96298082242595
42
-0.41421356237259555
10
592.70296531210442
20
346.88424066494565
42
-0.41421356237309503
0
LINE
5
719
100
AcDbEntity
8
0
100
AcDbLine
10
615.2502737506901
20
345.64923350815582
30
0
11
615.2502737506901
21
342.42088705146284
31
0
0
LWPOLYLINE
5
720
100
AcDbEntity
8
0
100
AcDbPolyline
90
4
70
1
43
0.0
10
592.30891344864256
20
346.79822455388597
42
-0.41421356237309503
10
592.23017329116237
20
346.71948439640562
42
-0.41421356237326151
10
592.15143313368196
20
346.79822455388597
42
-0.41421356237292856
10
592.23017329116215
20
346.87696471136627
42
-0.41421356237292856
0
LINE
5
721
100
AcDbEntity
8
0
100
AcDbLine
10
610.55564677717859
20
330.28270562428537
30
0
11
609.79314840036523
21
329.48083716873191
31
0
0
CIRCLE
5
722
100
AcDbEntity
8
0
100
AcDbCircle
10
607.09900113329718
20
330.41758258698906
30
0
40
0.08313623745399655
210
0
220
0
230
1
0
LWPOLYLINE
5
723
100
AcDbEntity
8
0
100
AcDbPolyline
90
4
70
1
43
0.0
10
603.21884058303476
20
339.1761681247603
42
-0.41421356237292856
10
603.14010042555446
20
339.09742796727994
42
-0.41421356237309503
10
603.06136026807405
20
339.1761681247603
42
-0.41421356237309503
10
603.14010042555446
20
339.25490828224054
42
-0.41421356237309503
0
LWPOLYLINE
5
724
100
AcDbEntity
8
0
100
AcDbPolyline
90
4
70
1
43
0.0
10
592.23017329115623
20
346.8769656883216
42
-0.41421356237309503
10
592.30891344863653
20
346.79822553084125
42
-0.41421356237309503
10
592.23017329115623
20
346.7194853733609
42
-0.41421356237309503
10
592.15143313367582
20
346.79822553084125
42
-0.41421356237292856
0
LWPOLYLINE
5
725
100
AcDbEntity
8
0
100
AcDbPolyline
90
4
70
1
43
0.0
10
601.53421239208762
20
331.71800966318
42
-0.41421356237309503
10
601.68185018736312
20
331.86564745845556
42
-0.41421356237318385
10
601.82948798263885
20
331.71800966317994
42
-0.41421356237300627
10
601.68185018736324
20
331.57037186790438
42
-0.41421356237309503
0
LINE
5
726
100
AcDbEntity
8
0
100
AcDbLine
10
600.36446944508941
20
343.34731271215526
30
0
11
600.52788854448306
21
343.51079164990642
31
0
0
LWPOLYLINE
5
727
100
AcDbEntity
8
0
100
AcDbPolyline
90
4
70
1
43
0.0
10
596.16567503547969
20
333.6042203958703
42
-0.41421356237309503
10
596.39795850004668
20
333.37193693130342
42
-0.41421356237309503
10
596.16567503547969
20
333.13965346673649
42
-0.41421356237309503
10
595.93339157091282
20
333.37193693130342
42
-0.41421356237315149
0
CIRCLE
5
728
100
AcDbEntity
8
0
100
AcDbCircle
10
608.53240113329718
20
330.41758258698906
30
0
40
0.083136237453994968
210
0
220
0
230
1
0
ARC
5
729
100
AcDbEntity
8
0
100
AcDbCircle
10
603.85627580575454
20
335.70426926271085
30
0
40
0.1771653543307751
210
0
220
0
230
1
100
AcDbArc
50
225.01090501917471
51
315.01090501921374
0
LINE
5
730
100
AcDbEntity
8
0
100
AcDbLine
10
0
20
0.098425196850393692
30
0
11
0
21
0.78740157480314954
31
0
0
LINE
5
731
100
AcDbEntity
8
0
100
AcDbLine
10
615.21090367194995
20
345.64923350815582
30
0
11
615.21090367194995
21
342.42088705146284
31
0
0
ARC
5
732
100
AcDbEntity
8
0
100
AcDbCircle
10
609.23637140730511
20
330.03761416179191
30
0
40
0.78740157480288098
210
0
220
0
230
1
100
AcDbArc
50
269.99999999998346
51
315.00000000000585
0
LINE
5
733
100
AcDbEntity
8
0
100
AcDbLine
10
603.98157264673068
20
335.57901646068018
30
0
11
604.14499174612422
21
335.74249539843134
31
0
0
LINE
5
734
100
AcDbEntity
8
0
100
AcDbLine
10
603.73097714118001
20
335.82952024047529
30
0
11
603.89439611502542
21
335.9929990526324
31
0
0
ARC
5
735
100
AcDbEntity
8
0
100
AcDbCircle
10
592.42313690328388
20
347.0641647015733
30
0
40
0.011811023622127747
210
-0
220
0
230
1
100
AcDbArc
50
278.71915868421075
51
337.10830651722586
0
LWPOLYLINE
5
736
100
AcDbEntity
8
0
100
AcDbPolyline
90
4
70
1
43
0.0
10
607.1583581435641
20
342.35336728261979
42
-0.41421356237342799
10
607.23709830104463
20
342.27462712513955
42
-0.41421356237359452
10
607.1583581435641
20
342.19588696765919
42
-0.41421356237276202
10
607.07961798608392
20
342.27462712513955
42
-0.41421356237259555
0
LWPOLYLINE
5
737
100
AcDbEntity
8
0
100
AcDbPolyline
90
6
70
1
43
0.0
10
601.46531475429242
20
333.46002975421857
42
-0.30369697790646411
10
601.68185018736324
20
333.60491511277911
42
-0.30369697790646411
10
601.89838562043406
20
333.46002975421862
10
601.89838562043406
20
333.28129653433172
42
-0.30369697790646411
10
601.68185018736324
20
333.13641117577123
42
-0.30369697790641592
10
601.46531475429242
20
333.28129653433172
0
LWPOLYLINE
5
738
100
AcDbEntity
8
0
100
AcDbPolyline
90
4
70
1
43
0.0
10
600.23871551462184
20
338.18644925906466
42
-0.41421356237326151
10
600.15997535714143
20
338.26518941654496
42
-0.41421356237309503
10
600.23871551462173
20
338.34392957402525
42
-0.41421356237309503
10
600.31745567210203
20
338.2651894165449
42
-0.41421356237309503
0
LINE
5
739
100
AcDbEntity
8
0
100
AcDbLine
10
615.2502737506901
20
345.68860358689597
30
0
11
621.51011627037508
21
345.68860358689597
31
0
0
LWPOLYLINE
5
740
100
AcDbEntity
8
0
100
AcDbPolyline
90
4
70
1
43
0.0
10
603.85580505540474
20
338.18644925906455
42
-0.41421356237276202
10
603.77706489792456
20
338.2651894165449
42
-0.41421356237309503
10
603.85580505540474
20
338.3439295740252
42
-0.41421356237309503
10
603.93454521288504
20
338.26518941654496
42
-0.41421356237309503
0
ARC
5
741
100
AcDbEntity
8
0
100
AcDbCircle
10
592.50905927457882
20
347.02788434943744
30
0
40
0.081456965742099291
210
0
220
0
230
1
100
AcDbArc
50
114.06874565330628
51
157.1083065175001
0
LWPOLYLINE
5
742
100
AcDbEntity
8
0
100
AcDbPolyline
90
4
70
1
43
0.0
10
600.15995869089443
20
339.64535032812933
42
-0.41421356237259555
10
600.23869884837472
20
339.72409048560962
42
-0.41421356237292856
10
600.31743900585502
20
339.64535032812933
42
-0.41421356237309503
10
600.23869884837472
20
339.56661017064908
42
-0.41421356237309503
0
LWPOLYLINE
5
743
100
AcDbEntity
8
0
100
AcDbPolyline
90
4
70
1
43
0.0
10
599.71443616657234
20
339.09633402342973
42
-0.41421356237309503
10
599.63569600909204
20
339.17507418091003
42
-0.41421356237309503
10
599.71443616657234
20
339.25381433839038
42
-0.41421356237309503
10
599.79317632405275
20
339.17507418091003
42
-0.41421356237309503
0
LWPOLYLINE
5
744
100
AcDbEntity
8
0
100
AcDbPolyline
90
4
70
1
43
0.0
10
606.41723447056393
20
339.56663575410471
42
-0.41421356237259555
10
606.3384943130834
20
339.64537591158512
42
-0.41421356237309503
10
606.4172344705637
20
339.72411606906542
42
-0.41421356237292856
10
606.49597462804411
20
339.64537591158512
42
-0.41421356237359452
0
ARC
5
745
100
AcDbEntity
8
0
100
AcDbCircle
10
599.16718222504596
20
339.96143924260031
30
0
40
0.039370078740120981
210
0
220
0
230
1
100
AcDbArc
50
142.79488719811138
51
224.9895120651783
0
ARC
5
746
100
AcDbEntity
8
0
100
AcDbCircle
10
599.17745858925696
20
339.64487569936563
30
0
40
0.1771653543307751
210
0
220
0
230
1
100
AcDbArc
50
224.98909498082529
51
314.98909498079928
0
LINE
5
747
100
AcDbEntity
8
0
100
AcDbLine
10
604.7095776118465
20
325.56035444330274
30
0
11
604.7095776118465
21
328.31625995511371
31
0
0
ARC
5
748
100
AcDbEntity
8
0
100
AcDbCircle
10
605.13653281649931
20
340.92559110250795
30
0
40
1.5551181102364462
210
-0
220
0
230
1
100
AcDbArc
50
-41.087046171605742
51
45.01044115876487
0
ARC
5
749
100
AcDbEntity
8
0
100
AcDbCircle
10
592.36911355683981
20
347.01830090230845
30
0
40
0.059055118110195981
210
0
220
-0
230
1
100
AcDbArc
50
40.330010850532737
51
103.26930660943972
0
LINE
5
750
100
AcDbEntity
8
0
100
AcDbLine
10
597.66841400510611
20
331.98596000365848
30
0
11
597.66841400510611
21
333.16096000365843
31
0
0
LINE
5
751
100
AcDbEntity
8
0
100
AcDbLine
10
599.30275725383149
20
339.77012667713001
30
0
11
599.13933827998596
21
339.93360548928712
31
0
0
ARC
5
752
100
AcDbEntity
8
0
100
AcDbCircle
10
604.17282052070925
20
335.71464646908839
30
0
40
0.039370078740138988
210
0
220
-0
230
1
100
AcDbArc
50
52.815466497819727
51
135.0104879348217
0
ARC
5
753
100
AcDbEntity
8
0
100
AcDbCircle
10
599.17745858925696
20
339.64487569936557
30
0
40
0.17716535433068017
210
-0
220
0
230
1
100
AcDbArc
50
-45.010905019187739
51
44.989094980812261
0
LINE
5
754
100
AcDbEntity
8
0
100
AcDbLine
10
604.11902643074416
20
328.31625995511376
30
0
11
604.11902643074416
21
325.56035444330274
31
0
0
ARC
5
755
100
AcDbEntity
8
0
100
AcDbCircle
10
603.85627580575454
20
335.70426926271085
30
0
40
0.17716535433074346
210
0
220
0
230
1
100
AcDbArc
50
135.01090501918773
51
225.01090501917471
0
ARC
5
756
100
AcDbEntity
8
0
100
AcDbCircle
10
592.42313690328388
20
347.06416470157313
30
0
40
0.011811023621975468
210
0
220
0
230
1
100
AcDbArc
50
220.33001085012498
51
278.71915868433609
0
ARC
5
757
100
AcDbEntity
8
0
100
AcDbCircle
10
603.86653737501274
20
336.02081800557556
30
0
40
0.039370078740201028
210
-0
220
0
230
1
100
AcDbArc
50
-44.989512065119854
51
37.20541581945578
0
LINE
5
758
100
AcDbEntity
8
0
100
AcDbLine
10
590.51094675518289
20
333.16096000365843
30
0
11
591.36094675518291
21
333.16096000365843
31
0
0
LINE
5
759
100
AcDbEntity
8
0
100
AcDbLine
10
591.36094675518291
20
331.98596000365848
30
0
11
590.51094675518289
21
333.16096000365843
31
0
0
ARC
5
760
100
AcDbEntity
8
0
100
AcDbCircle
10
598.86089870382716
20
339.65526808177287
30
0
40
0.039370078740169387
210
0
220
-0
230
1
100
AcDbArc
50
44.989512065061341
51
127.18339414787711
0
CIRCLE
5
761
100
AcDbEntity
8
0
100
AcDbCircle
10
-8.4770947687399811
20
-2.1735960252500983
30
0
40
0.12023358153250041
210
0
220
0
230
1
0
LWPOLYLINE
5
762
100
AcDbEntity
8
0
100
AcDbPolyline
90
4
70
1
43
0.0
10
597.59774584349827
20
334.61368598789073
42
-0.41421356237309503
10
597.67648600097857
20
334.69242614537103
42
-0.41421356237309503
10
597.75522615845887
20
334.61368598789073
42
-0.41421356237309503
10
597.67648600097868
20
334.53494583041044
42
-0.41421356237292856
0
LWPOLYLINE
5
763
100
AcDbEntity
8
0
100
AcDbPolyline
90
4
70
1
43
0.0
10
597.7536517211538
20
330.7097810685238
42
-0.41421356237293649
10
597.67097455579938
20
330.62710390316948
42
-0.41421356237309503
10
597.58829739044506
20
330.7097810685238
42
-0.41421356237309503
10
597.67097455579938
20
330.79245823387816
42
-0.41421356237309503
0
LWPOLYLINE
5
764
100
AcDbEntity
8
0
100
AcDbPolyline
90
4
70
1
43
0.0
10
622.16801483667348
20
346.35223229608664
42
-0.41421356237309503
10
622.24675499415378
20
346.43097245356688
42
-0.41421356237309503
10
622.32549515163396
20
346.35223229608658
42
-0.41421356237309503
10
622.24675499415378
20
346.2734921386064
42
-0.41421356237309503
0
LINE
5
765
100
AcDbEntity
8
0
100
AcDbLine
10
621.51011627037508
20
345.64923350815582
30
0
11
621.51011627037508
21
342.42088705146284
31
0
0
ARC
5
766
100
AcDbEntity
8
0
100
AcDbCircle
10
621.51011627037508
20
345.64923350815582
30
0
40
0.039370078740121668
210
-0
220
0
230
1
100
AcDbArc
50
0
51
90
0
CIRCLE
5
767
100
AcDbEntity
8
0
100
AcDbCircle
10
-8.4770947687399811
20
-0.41282758134555614
30
0
40
0.13143333660840431
210
0
220
0
230
1
0
LINE
5
768
100
AcDbEntity
8
0
100
AcDbLine
10
621.54948634911523
20
345.64923350815582
30
0
11
621.54948634911523
21
342.42088705146284
31
0
0
LWPOLYLINE
5
769
100
AcDbEntity
8
0
100
AcDbPolyline
90
4
70
1
43
0.0
10
596.28505199725885
20
335.19533509566457
42
-0.41421356237309503
10
596.21497325710129
20
335.26541383582202
42
-0.41421356237328211
10
596.28505199725885
20
335.33549257597957
42
-0.41421356237309503
10
596.35513073741629
20
335.26541383582202
42
-0.41421356237309503
0
LINE
5
770
100
AcDbEntity
8
0
100
AcDbLine
10
591.36094675518291
20
333.16096000365843
30
0
11
591.36094675518291
21
331.98596000365848
31
0
0
CIRCLE
5
771
100
AcDbEntity
8
0
100
AcDbCircle
10
-8.4770947687399811
20
-0.41282758134555614
30
0
40
0.13143333660840431
210
0
220
0
230
1
0
LINE
5
772
100
AcDbEntity
8
0
100
AcDbLine
10
590.51094675518289
20
331.98596000365848
30
0
11
591.36094675518291
21
333.16096000365843
31
0
0
LINE
5
773
100
AcDbEntity
8
0
100
AcDbLine
10
599.05216174828081
20
339.5196228973349
30
0
11
598.88874264888727
21
339.68310183508606
31
0
0
ARC
5
774
100
AcDbEntity
8
0
100
AcDbCircle
10
597.89723051836177
20
340.92565249281472
30
0
40
1.555146941967346
210
-0
220
0
230
1
100
AcDbArc
50
-37.207718916101996
51
26.397061119289564
0
CIRCLE
5
775
100
AcDbEntity
8
0
100
AcDbCircle
10
-8.4770947687399811
20
-0.41282758134555614
30
0
40
0.13143333660840431
210
0
220
0
230
1
0
LINE
5
776
100
AcDbEntity
8
0
100
AcDbLine
10
586.90041811544017
20
334.41540713799509
30
0
11
626.2073730738922
21
334.41519202672276
31
0
0
ARC
5
777
100
AcDbEntity
8
0
100
AcDbCircle
10
586.92777370515796
20
334.35637232097707
30
0
40
0.059034817616890035
210
0
220
0
230
1
100
AcDbArc
50
123.5622604675787
51
180.51833177905843
0
ARC
5
778
100
AcDbEntity
8
0
100
AcDbCircle
10
586.88860709181824
20
334.41540713799509
30
0
40
0.011811023622076974
210
-0
220
0
230
1
100
AcDbArc
50
-56.437739532775879
51
0
0
ARC
5
779
100
AcDbEntity
8
0
100
AcDbCircle
10
586.88860709181824
20
334.41540713799509
30
0
40
0.011811023622036501
210
-0
220
0
230
1
100
AcDbArc
50
0
51
56.437739532775907
0
LINE
5
780
100
AcDbEntity
8
0
100
AcDbLine
10
586.86874130325589
20
334.47497601188286
30
0
11
586.8687270576944
21
342.53601675608718
31
0
0
ARC
5
781
100
AcDbEntity
8
0
100
AcDbCircle
10
586.92767847476728
20
330.53301526489025
30
0
40
0.059055118109817104
210
0
220
0
230
1
100
AcDbArc
50
224.99911609059677
51
269.99999994440884
0
LINE
5
782
100
AcDbEntity
8
0
100
AcDbLine
10
586.86862335668548
20
330.53301708693493
30
0
11
586.86874130325589
21
334.35583826410726
31
0
0
ARC
5
783
100
AcDbEntity
8
0
100
AcDbCircle
10
586.92767847476739
20
330.53301526489037
30
0
40
0.059055118110003108
210
0
220
0
230
1
100
AcDbArc
50
179.99823223676984
51
224.99911609059677
0
ARC
5
784
100
AcDbEntity
8
0
100
AcDbCircle
10
586.92777370515785
20
334.47444195501311
30
0
40
0.05903481761688633
210
0
220
0
230
1
100
AcDbArc
50
179.48166822099574
51
236.43773953251323
0
ARC
5
785
100
AcDbEntity
8
0
100
AcDbCircle
10
6.1641296418025462
20
-6.9882727440997092
30
0
40
0.039370078740121668
210
0
220
0
230
1
100
AcDbArc
50
180
51
270.00000257593877
0
LINE
5
786
100
AcDbEntity
8
0
100
AcDbLine
10
601.99555427810219
20
330.47396013212597
30
0
11
586.92767847470998
21
330.47396014678037
31
0
0
LINE
5
787
100
AcDbEntity
8
0
100
AcDbLine
10
6.2321216657353462
20
-6.9882727428129447
30
0
11
6.2321216657352574
21
-5.3347294370130776
31
0
0
LINE
5
788
100
AcDbEntity
8
0
100
AcDbLine
10
6.1247595578507337
20
-5.3347294357263122
30
0
11
6.1247595578507337
21
-6.9882727440996648
31
0
0
LWPOLYLINE
5
789
100
AcDbEntity
8
0
100
AcDbPolyline
90
4
70
1
43
0.0
10
616.80914853640286
20
334.69242614537103
42
-0.41421356237309503
10
616.88788869388316
20
334.61368598789073
42
-0.41421356237309503
10
616.80914853640286
20
334.53494583041032
42
-0.41421356237259555
10
616.73040837892256
20
334.61368598789073
42
-0.41421356237276202
0
LWPOLYLINE
5
790
100
AcDbEntity
8
0
100
AcDbPolyline
90
4
70
1
43
0.0
10
616.41348016709048
20
334.69242614537103
42
-0.41421356237326151
10
616.49222032457089
20
334.61368598789079
42
-0.41421356237309503
10
616.4134801670906
20
334.53494583041044
42
-0.41421356237309503
10
616.3347400096103
20
334.61368598789079
42
-0.41421356237309503
0
LWPOLYLINE
5
791
100
AcDbEntity
8
0
100
AcDbPolyline
90
4
70
1
43
0.0
10
614.09701748552629
20
337.94217887583176
42
-0.41421356237259555
10
614.01827732804611
20
337.86343871835146
42
-0.41421356237342799
10
613.9395371705657
20
337.9421788758317
42
-0.41421356237309503
10
614.01827732804611
20
338.02091903331205
42
-0.41421356237326151
0
LWPOLYLINE
5
792
100
AcDbEntity
8
0
100
AcDbPolyline
90
4
70
1
43
0.0
10
614.09701748552641
20
337.55202338771414
42
-0.41421356237309503
10
614.01827732804611
20
337.47328323023379
42
-0.41421356237309503
10
613.9395371705657
20
337.55202338771414
42
-0.41421356237342799
10
614.01827732804611
20
337.63076354519438
42
-0.41421356237309503
0
ARC
5
793
100
AcDbEntity
8
0
100
AcDbCircle
10
613.83638756085827
20
337.80594724525486
30
0
40
0.059055118110272024
210
0
220
0
230
1
100
AcDbArc
50
180
51
236.44269405362809
0
CIRCLE
5
794
100
AcDbEntity
8
0
100
AcDbCircle
10
8.9345394543632555
20
-1.2550101636545843
30
0
40
0.38784909414957697
210
0
220
0
230
1
0
LINE
5
795
100
AcDbEntity
8
0
100
AcDbLine
10
613.77662661520719
20
346.89152459828023
30
0
11
613.77733244274805
21
337.80594724553038
31
0
0
CIRCLE
5
796
100
AcDbEntity
8
0
100
AcDbCircle
10
8.9345394543632555
20
-1.2550101636545843
30
0
40
0.38784909414957697
210
0
220
0
230
1
0
CIRCLE
5
797
100
AcDbEntity
8
0
100
AcDbCircle
10
8.9345394543632555
20
-1.2550101636545843
30
0
40
0.38784909414957697
210
0
220
0
230
1
0
CIRCLE
5
798
100
AcDbEntity
8
0
100
AcDbCircle
10
9.5229052312600171
20
-0.41282758134555614
30
0
40
0.13143333660840431
210
0
220
0
230
1
0
CIRCLE
5
799
100
AcDbEntity
8
0
100
AcDbCircle
10
9.5229052312600171
20
-2.1735960252500983
30
0
40
0.12023358153250041
210
0
220
0
230
1
0
CIRCLE
5
800
100
AcDbEntity
8
0
100
AcDbCircle
10
9.5229052312600171
20
-2.1735960252500983
30
0
40
0.12023358153250041
210
0
220
0
230
1
0
LWPOLYLINE
5
801
100
AcDbEntity
8
0
100
AcDbPolyline
90
4
70
1
43
0.0
10
614.09701748552641
20
334.61368598789079
42
-0.41421356237326151
10
614.01827732804611
20
334.53494583041044
42
-0.41421356237309503
10
613.93953717056581
20
334.61368598789079
42
-0.41421356237309503
10
614.01827732804611
20
334.69242614537103
42
-0.41421356237309503
0
CIRCLE
5
802
100
AcDbEntity
8
0
100
AcDbCircle
10
9.5229052312600171
20
-2.1735960252500983
30
0
40
0.12023358153250041
210
0
220
0
230
1
0
CIRCLE
5
803
100
AcDbEntity
8
0
100
AcDbCircle
10
9.5229052312600171
20
-0.41282758134555614
30
0
40
0.13143333660840431
210
0
220
0
230
1
0
LINE
5
804
100
AcDbEntity
8
0
100
AcDbLine
10
616.66340278493703
20
337.74689412667539
30
0
11
616.66338455214725
21
334.41524425716176
31
0
0
CIRCLE
5
805
100
AcDbEntity
8
0
100
AcDbCircle
10
9.5229052312600171
20
-0.41282758134555614
30
0
40
0.13143333660840431
210
0
220
0
230
1
0
LINE
5
806
100
AcDbEntity
8
0
100
AcDbLine
10
607.39937969025073
20
333.29221605721847
30
0
11
607.39937969025073
21
346.89128234151087
31
0
0
ARC
5
807
100
AcDbEntity
8
0
100
AcDbCircle
10
613.79721483052208
20
337.74689212488374
30
0
40
0.011811023622126018
210
-0
220
0
230
1
100
AcDbArc
50
0
51
56.442691000536584
0
ARC
5
808
100
AcDbEntity
8
0
100
AcDbCircle
10
613.8363875642666
20
337.68783700677346
30
0
40
0.059055118110244324
210
0
220
0
230
1
100
AcDbArc
50
123.55730976190131
51
180
0
CIRCLE
5
809
100
AcDbEntity
8
0
100
AcDbCircle
10
8.3285743806686021
20
-0.41282758134555614
30
0
40
0.12744734153002224
210
0
220
0
230
1
0
LINE
5
810
100
AcDbEntity
8
0
100
AcDbLine
10
616.66340278493703
20
337.74689412667539
30
0
11
613.80902585397462
21
337.74689412667533
31
0
0
CIRCLE
5
811
100
AcDbEntity
8
0
100
AcDbCircle
10
8.9345394543632555
20
-1.2550101636545843
30
0
40
0.82286620379863329
210
0
220
0
230
1
0
CIRCLE
5
812
100
AcDbEntity
8
0
100
AcDbCircle
10
8.3285743806686021
20
-2.1735960252500983
30
0
40
0.091329996700589014
210
0
220
0
230
1
0
CIRCLE
5
813
100
AcDbEntity
8
0
100
AcDbCircle
10
8.3285743806686021
20
-2.1735960252500983
30
0
40
0.091329996700589014
210
0
220
0
230
1
0
ARC
5
814
100
AcDbEntity
8
0
100
AcDbCircle
10
613.79721483052219
20
337.74689212488374
30
0
40
0.01181102362207353
210
-0
220
0
230
1
100
AcDbArc
50
-56.442690237884371
51
0
0
LINE
5
815
100
AcDbEntity
8
0
100
AcDbLine
10
626.23911094889866
20
342.53625796503979
30
0
11
626.2390668052368
21
334.47424697129441
31
0
0
ARC
5
816
100
AcDbEntity
8
0
100
AcDbCircle
10
597.89721216053056
20
340.92562528568629
30
0
40
1.5551521895843126
210
0
220
0
230
1
100
AcDbArc
50
232.81717297914719
51
307.19202518310425
0
ENDSEC
0
SECTION
2
OBJECTS
0
DICTIONARY
5
C
100
AcDbDictionary
3
ACAD_GROUP
350
D
3
ACAD_MLINESTYLE
350
17
0
DICTIONARY
5
D
100
AcDbDictionary
0
DICTIONARY
5
1A
330
C
100
AcDbDictionary
0
DICTIONARY
5
17
100
AcDbDictionary
0
ENDSEC
0
EOF
