0
SECTION
2
HEADER
9
$INSUNITS
70
1
9
$ACADVER
1
AC1014
9
$HANDSEED
5
FFFF
0
ENDSEC
0
SECTION
2
TABLES
0
TABLE
2
VPORT
5
8
100
AcDbSymbolTable
0
ENDTAB
0
TABLE
2
LTYPE
5
5
100
AcDbSymbolTable
0
LTYPE
5
14
100
AcDbSymbolTableRecord
100
AcDbLinetypeTableRecord
2
BYBLOCK
70
0
0
LTYPE
5
15
100
AcDbSymbolTableRecord
100
AcDbLinetypeTableRecord
2
BYLAYER
70
0
0
ENDTAB
0
TABLE
2
LAYER
5
2
100
AcDbSymbolTable
70
2
0
LAYER
5
50
100
AcDbSymbolTableRecord
100
AcDbLayerTableRecord
2
0
70
0
6
CONTINUOUS
0
ENDTAB
0
TABLE
2
STYLE
5
3
100
AcDbSymbolTable
70
1
0
STYLE
5
11
100
AcDbSymbolTableRecord
100
AcDbTextStyleTableRecord
2
STANDARD
70
0
0
ENDTAB
0
TABLE
2
VIEW
5
6
100
AcDbSymbolTable
70
0
0
ENDTAB
0
TABLE
2
UCS
5
7
100
AcDbSymbolTable
70
0
0
ENDTAB
0
TABLE
2
APPID
5
9
100
AcDbSymbolTable
70
2
0
APPID
5
12
100
AcDbSymbolTableRecord
100
AcDbRegAppTableRecord
2
ACAD
70
0
0
ENDTAB
0
TABLE
2
DIMSTYLE
5
A
100
AcDbSymbolTable
70
1
0
ENDTAB
0
TABLE
2
BLOCK_RECORD
5
1
100
AcDbSymbolTable
70
1
0
BLOCK_RECORD
5
1F
100
AcDbSymbolTableRecord
100
AcDbBlockTableRecord
2
*MODEL_SPACE
0
BLOCK_RECORD
5
1B
100
AcDbSymbolTableRecord
100
AcDbBlockTableRecord
2
*PAPER_SPACE
0
ENDTAB
0
ENDSEC
0
SECTION
2
BLOCKS
0
BLOCK
5
20
100
AcDbEntity
100
AcDbBlockBegin
2
*MODEL_SPACE
0
ENDBLK
5
21
100
AcDbEntity
100
AcDbBlockEnd
0
BLOCK
5
1C
100
AcDbEntity
100
AcDbBlockBegin
2
*PAPER_SPACE
0
ENDBLK
5
1D
100
AcDbEntity
100
AcDbBlockEnd
0
ENDSEC
0
SECTION
2
ENTITIES
0
LWPOLYLINE
5
100
100
AcDbEntity
8
0
100
AcDbPolyline
90
4
70
1
43
0.0
10
625.79909922253069
20
339.65263067095924
42
0.41421356237309503
10
625.87783938001098
20
339.73137082843959
42
0.41421356237326151
10
625.79909922253069
20
339.81011098591995
42
0.41421356237326151
10
625.72035906505039
20
339.73137082843959
42
0.41421356237309503
0
LWPOLYLINE
5
101
100
AcDbEntity
8
0
100
AcDbPolyline
90
6
70
1
43
0.0
10
604.41430202129925
20
328.61153554566499
42
0.41421356237704643
10
604.11902643074416
20
328.31625995511376
10
604.11902643074416
20
325.56035444330274
42
0.41421356236927687
10
604.41430202129141
20
325.26507885275157
42
0.41421356237691326
10
604.7095776118465
20
325.56035444330274
10
604.7095776118465
20
328.31625995511376
42
0.41421356236923246
0
LWPOLYLINE
5
102
100
AcDbEntity
8
0
100
AcDbPolyline
90
4
70
1
43
0.0
10
620.81216247504176
20
334.28946065482137
42
0.41421356237309503
10
620.89090263252194
20
334.21072049734107
42
0.41421356237342799
10
620.96964279000235
20
334.28946065482137
42
0.41421356237309503
10
620.89090263252206
20
334.36820081230178
42
0.41421356237342799
0
LWPOLYLINE
5
103
100
AcDbEntity
8
0
100
AcDbPolyline
90
4
70
1
43
0.0
10
602.51822619776294
20
334.24115221336581
42
0.41421356237309503
10
602.62058840248733
20
334.34351441809019
42
0.41421356237309503
10
602.51822619776294
20
334.44587662281464
42
0.41421356237309503
10
602.41586399303856
20
334.34351441809019
42
0.41421356237309503
0
LWPOLYLINE
5
104
100
AcDbEntity
8
0
100
AcDbPolyline
90
4
70
1
43
0.0
10
604.78138388255377
20
332.77592496088607
10
604.78138388255377
20
334.41227745347004
10
611.04122640223886
20
334.41227745347004
10
611.04122640223886
20
332.77592496088607
0
LWPOLYLINE
5
105
100
AcDbEntity
8
0
100
AcDbPolyline
90
4
70
1
43
0.0
10
597.50430416991878
20
334.35672138554878
42
0.41421356237292856
10
597.58304432739908
20
334.27798122806854
42
0.41421356237309503
10
597.66178448487938
20
334.35672138554878
42
0.41421356237326151
10
597.58304432739919
20
334.43546154302908
42
0.41421356237292856
0
ARC
5
106
100
AcDbEntity
8
0
100
AcDbCircle
10
626.21918867464842
20
334.08006859868647
30
0
40
0.011811023582366336
210
0
220
0
230
1
100
AcDbArc
50
123.53848392857877
51
208.08458084267528
0
ARC
5
107
100
AcDbEntity
8
0
100
AcDbCircle
10
610.72824111002865
20
335.22187610557648
30
0
40
0.17716535433074346
210
0
220
0
230
1
100
AcDbArc
50
135.01090501918773
51
225.01090501917471
0
LWPOLYLINE
5
108
100
AcDbEntity
8
0
100
AcDbPolyline
90
4
70
1
43
0.0
10
610.80651051715915
20
337.78279625941065
42
0.41421356237276202
10
610.72777035967897
20
337.86153641689077
42
0.41421356237326151
10
610.64903020219845
20
337.78279625941059
42
0.41421356237309503
10
610.72777035967874
20
337.70405610193023
42
0.41421356237326151
0
LWPOLYLINE
5
109
100
AcDbEntity
8
0
100
AcDbPolyline
90
4
70
1
43
0.0
10
624.60083604500244
20
344.91304258135551
42
0.41421356237292856
10
624.67957620248285
20
344.99178273883581
42
0.41421356237326151
10
624.60083604500255
20
345.07052289631605
42
0.41421356237326151
10
624.52209588752214
20
344.99178273883581
42
0.41421356237309503
0
LWPOLYLINE
5
110
100
AcDbEntity
8
0
100
AcDbPolyline
90
4
70
1
43
0.0
10
625.78454909294908
20
334.79975316726461
42
0.41421356237309503
10
625.86328925042949
20
334.87849332474491
42
0.41421356237309503
10
625.78454909294908
20
334.95723348222532
42
0.41421356237309503
10
625.70580893546878
20
334.87849332474497
42
0.41421356237342799
0
LWPOLYLINE
5
111
100
AcDbEntity
8
0
100
AcDbPolyline
90
4
70
1
43
0.0
10
599.42540855846289
20
334.28537718684277
42
0.41421356237292856
10
599.50414871594319
20
334.36411734432312
42
0.41421356237309503
10
599.42540855846289
20
334.44285750180347
42
0.41421356237309503
10
599.34666840098271
20
334.36411734432312
42
0.41421356237326151
0
LINE
5
112
100
AcDbEntity
8
0
100
AcDbLine
10
603.31486333095347
20
329.48077990558011
30
0
11
602.55236056100773
21
330.28264419311017
31
0
0
ARC
5
113
100
AcDbEntity
8
0
100
AcDbCircle
10
611.04478582498336
20
335.23225331195391
30
0
40
0.039370078740138988
210
0
220
-0
230
1
100
AcDbArc
50
52.815466497819727
51
135.01048793470474
0
ARC
5
114
100
AcDbEntity
8
0
100
AcDbCircle
10
626.2191887792402
20
334.08006840276124
30
0
40
0.011811024654376872
210
0
220
0
230
1
100
AcDbArc
50
208.08350345107334
51
236.44772495824816
0
LWPOLYLINE
5
115
100
AcDbEntity
8
0
100
AcDbPolyline
90
4
70
1
43
0.0
10
613.21044425401692
20
337.78279914082367
42
0.41421356237309503
10
613.28918441149733
20
337.70405898334343
42
0.41421356237309503
10
613.36792456897763
20
337.78279914082367
42
0.41421356237259555
10
613.28918441149733
20
337.86153929830397
42
0.41421356237292856
0
LWPOLYLINE
5
116
100
AcDbEntity
8
0
100
AcDbPolyline
90
4
70
1
43
0.0
10
609.65862676652443
20
335.26940095558376
42
0.41421356237309503
10
609.57988660904437
20
335.348141113064
42
0.41421356237292856
10
609.50114645156395
20
335.26940095558376
42
0.41421356237309503
10
609.57988660904414
20
335.19066079810352
42
0.41421356237326151
0
LWPOLYLINE
5
117
100
AcDbEntity
8
0
100
AcDbPolyline
90
4
70
1
43
0.0
10
607.01848621808392
20
337.90858152077931
42
0.41421356237309503
10
606.93974606060351
20
337.8298413632989
42
0.41421356237342799
10
607.01848621808392
20
337.75110120581854
42
0.41421356237276202
10
607.09722637556411
20
337.8298413632989
42
0.41421356237242907
0
LWPOLYLINE
5
118
100
AcDbEntity
8
0
100
AcDbPolyline
90
4
70
1
43
0.0
10
603.04367725400868
20
347.14903656887878
42
0.41421356237309503
10
602.96493709652839
20
347.22777672635908
42
0.41421356237309503
10
602.88619693904798
20
347.14903656887873
42
0.41421356237326151
10
602.96493709652839
20
347.07029641139837
42
0.41421356237342799
0
LWPOLYLINE
5
119
100
AcDbEntity
8
0
100
AcDbPolyline
90
4
70
1
43
0.0
10
606.66432860388147
20
347.07029641139786
42
0.41421356237309503
10
606.74306876136177
20
347.14903656887827
42
0.41421356237342799
10
606.66432860388147
20
347.22777672635851
42
0.41421356237292856
10
606.58558844640106
20
347.14903656887833
42
0.41421356237292856
0
LWPOLYLINE
5
120
100
AcDbEntity
8
0
100
AcDbPolyline
90
4
70
1
43
0.0
10
610.28035631195939
20
347.14555006486063
42
0.41421356237342799
10
610.35909646943969
20
347.06680990738039
42
0.41421356237242907
10
610.43783662691999
20
347.14555006486063
42
0.41421356237309503
10
610.35909646943969
20
347.22429022234081
42
0.41421356237326151
0
LWPOLYLINE
5
121
100
AcDbEntity
8
0
100
AcDbPolyline
90
4
70
1
43
0.0
10
595.92890604776528
20
330.79245823387816
42
0.41421356237309503
10
595.84622888241097
20
330.7097810685238
42
0.41421356237309503
10
595.92890604776528
20
330.62710390316948
42
0.41421356237309503
10
596.01158321311959
20
330.7097810685238
42
0.41421356237309503
0
LWPOLYLINE
5
122
100
AcDbEntity
8
0
100
AcDbPolyline
90
4
70
1
43
0.0
10
621.27207642314352
20
346.51277617365503
42
0.41421356237309503
10
621.3508165806237
20
346.43403601617473
42
0.41421356237309503
10
621.42955673810411
20
346.51277617365503
42
0.41421356237309503
10
621.3508165806237
20
346.59151633113527
42
0.41421356237309503
0
LWPOLYLINE
5
123
100
AcDbEntity
8
0
100
AcDbPolyline
90
8
70
1
43
0.0
10
603.81390833677756
20
327.45011822283027
42
0.41421356237309503
10
603.73516817929715
20
327.52885838031062
10
603.69579810055711
20
327.52885838031074
42
0.41421356237326151
10
603.61705794307659
20
327.45011822283033
10
603.61705794307659
20
326.42649617558629
42
0.41421356237276202
10
603.69579810055711
20
326.347756018106
10
603.73516817929715
20
326.34775601810594
42
0.41421356237309503
10
603.81390833677756
20
326.42649617558629
0
LWPOLYLINE
5
124
100
AcDbEntity
8
0
100
AcDbPolyline
90
4
70
1
43
0.0
10
601.69568386019625
20
330.71056341982552
42
0.41421356237309503
10
601.77836102555057
20
330.62788625447115
42
0.41421356237309503
10
601.86103819090488
20
330.71056341982552
42
0.41421356237309503
10
601.77836102555057
20
330.79324058517983
42
0.41421356237309503
0
LWPOLYLINE
5
125
100
AcDbEntity
8
0
100
AcDbPolyline
90
4
70
1
43
0.0
10
617.75687934906091
20
346.85116821024872
42
0.41421356237326151
10
617.83561950654143
20
346.92990836772901
42
0.41421356237309503
10
617.75687934906114
20
347.00864852520931
42
0.41421356237309503
10
617.67813919158073
20
346.92990836772901
42
0.41421356237292856
0
LWPOLYLINE
5
126
100
AcDbEntity
8
0
100
AcDbPolyline
90
4
70
1
43
0.0
10
612.62142978848226
20
334.21032089439865
42
0.41421356237359452
10
612.70016994596267
20
334.28906105187889
42
0.41421356237292856
10
612.62142978848237
20
334.36780120935924
42
0.41421356237309503
10
612.54268963100196
20
334.28906105187889
42
0.41421356237259555
0
LWPOLYLINE
5
127
100
AcDbEntity
8
0
100
AcDbPolyline
90
4
70
1
43
0.0
10
587.37932950271147
20
339.79913558604409
42
0.41421356237309503
10
587.45806966019177
20
339.87787574352438
42
0.41421356237342799
10
587.37932950271147
20
339.95661590100485
42
0.41421356237342799
10
587.30058934523106
20
339.87787574352438
42
0.41421356237309503
0
LWPOLYLINE
5
128
100
AcDbEntity
8
0
100
AcDbPolyline
90
4
70
1
43
0.0
10
609.65864042738269
20
337.82984424471204
42
0.41421356237309503
10
609.5799002699024
20
337.90858440219233
42
0.41421356237309503
10
609.50116011242199
20
337.82984424471204
42
0.41421356237309503
10
609.5799002699024
20
337.75110408723168
42
0.41421356237309503
0
LWPOLYLINE
5
129
100
AcDbEntity
8
0
100
AcDbPolyline
90
4
70
1
43
0.0
10
607.01846955183692
20
335.34812832133622
42
0.41421356237309503
10
606.9397293943565
20
335.26938816385587
42
0.41421356237292856
10
607.0184695518368
20
335.19064800637551
42
0.41421356237326151
10
607.09720970931721
20
335.26938816385592
42
0.41421356237309503
0
LINE
5
130
100
AcDbEntity
8
0
100
AcDbLine
10
607.45697134462182
20
347.7297370570837
30
0
11
613.83971902445819
21
347.7226491920884
31
0
0
LINE
5
131
100
AcDbEntity
8
0
100
AcDbLine
10
586.86865127767669
20
330.53286982024599
30
0
11
586.86873980379232
21
334.02080315983949
31
0
0
ARC
5
132
100
AcDbEntity
8
0
100
AcDbCircle
10
586.92778224755989
20
334.13938567472417
30
0
40
0.059034817184297192
210
0
220
0
230
1
100
AcDbArc
50
179.45756534041152
51
236.43334521306355
0
SPLINE
5
133
100
AcDbEntity
8
0
100
AcDbSpline
70
0
71
3
72
14
73
10
74
0
42
0.000000001
43
0.0000000001
44
0.0000000001
40
0
40
0
40
0
40
0
40
94.074213406790918
40
190.22246044394524
40
260.82798094401556
40
305.05722477397279
40
337.93346459869917
40
356.48090088397208
40
372.11344451039525
40
372.11344451039525
40
372.11344451039525
40
372.11344451039525
10
613.83971902445819
20
347.7226491920884
30
0
10
615.07446991868676
20
347.69230513126723
30
0
10
617.57105877767651
20
347.62857765147839
30
0
10
620.97098814709238
20
347.13225985550821
30
0
10
623.61552143313804
20
346.22242264766209
30
0
10
625.22660715689426
20
345.09621053215892
30
0
10
625.97650635143395
20
344.04994656147102
30
0
10
626.2132319969935
20
343.19065733222351
30
0
10
626.23096350436253
20
342.74167332515736
30
0
10
626.23907318035492
20
342.53632615713207
30
0
0
LWPOLYLINE
5
134
100
AcDbEntity
8
0
100
AcDbPolyline
90
6
70
1
43
0.0
10
588.93831721766105
20
332.59538040567259
42
-0.25766709236115976
10
589.29476160534546
20
332.69827703726293
10
589.58407141748512
20
332.40896722512321
42
-0.2576670923676001
10
589.48117478588824
20
332.05252283743226
42
-0.25766709236121021
10
589.12473039820145
20
331.94962620585051
10
588.83542058607065
20
332.23893601798829
42
-0.25766709236118168
0
ARC
5
135
100
AcDbEntity
8
0
100
AcDbCircle
10
612.00846909657491
20
336.50257104261829
30
0
40
1.5551181102363907
210
0
220
0
230
1
100
AcDbArc
50
232.81546649800924
51
318.91295382838518
0
ARC
5
136
100
AcDbEntity
8
0
100
AcDbCircle
10
586.92770639576747
20
330.53286832138639
30
0
40
0.059055118109798355
210
0
220
0
230
1
100
AcDbArc
50
224.99942964753708
51
269.99686957034044
0
ARC
5
137
100
AcDbEntity
8
0
100
AcDbCircle
10
586.92777242553984
20
334.02131237770408
30
0
40
0.059034817558772316
210
0
220
0
230
1
100
AcDbArc
50
123.55786464811196
51
180.49422353290453
0
LINE
5
138
100
AcDbEntity
8
0
100
AcDbLine
10
586.86875007597803
20
334.13994456497539
30
0
11
586.86868929106015
21
342.53586948978602
31
0
0
LINE
5
139
100
AcDbEntity
8
0
100
AcDbLine
10
626.18001834983943
20
330.47397764881441
30
0
11
611.11245008338994
21
330.47397764881441
31
0
0
LINE
5
140
100
AcDbEntity
8
0
100
AcDbLine
10
603.27743378255479
20
347.7297134771967
30
0
11
607.45621674464155
21
347.7297134771967
31
0
0
LINE
5
141
100
AcDbEntity
8
0
100
AcDbLine
10
604.7095776118465
20
325.56035444330274
30
0
11
604.7095776118465
21
328.31625995511376
31
0
0
CIRCLE
5
142
100
AcDbEntity
8
0
100
AcDbCircle
10
609.34213464510822
20
332.02210958698902
30
0
40
0.374
210
0
220
0
230
1
0
LINE
5
143
100
AcDbEntity
8
0
100
AcDbLine
10
626.23907318035492
20
342.53632615713207
30
0
11
626.23907315588372
21
334.1391004732842
31
0
0
ARC
5
144
100
AcDbEntity
8
0
100
AcDbCircle
10
610.72824111002865
20
335.22187610557648
30
0
40
0.17716535433074346
210
0
220
0
230
1
100
AcDbArc
50
225.01090501917471
51
315.0109050191877
0
CIRCLE
5
145
100
AcDbEntity
8
0
100
AcDbCircle
10
603.77157866943878
20
332.92551584920147
30
0
40
0.083136237453994954
210
0
220
0
230
1
0
CIRCLE
5
146
100
AcDbEntity
8
0
100
AcDbCircle
10
603.05487866943884
20
332.92551584920147
30
0
40
0.19149999999999998
210
0
220
0
230
1
0
ARC
5
147
100
AcDbEntity
8
0
100
AcDbCircle
10
603.87163727698714
20
330.03755994565006
30
0
40
0.78740157480301531
210
0
220
0
230
1
100
AcDbArc
50
225.00031355692082
51
270.00031355693875
0
SPLINE
5
148
100
AcDbEntity
8
0
100
AcDbSpline
70
0
71
3
72
11
73
7
74
0
42
0.000000001
43
0.0000000001
44
0.0000000001
40
0
40
0
40
0
40
0
40
39.493341781749223
40
98.709185770871045
40
159.57806044535982
40
175.04390341281442
40
175.04390341281442
40
175.04390341281442
40
175.04390341281442
10
592.47577572419368
20
347.10214260357083
30
0
10
592.98457481144385
20
347.20216513714172
30
0
10
594.25651502382232
20
347.45051793505144
30
0
10
596.34667022794406
20
347.63286906471325
30
0
10
598.12398698804213
20
347.69907563636741
30
0
10
599.1254495551118
20
347.72453389163417
30
0
10
599.32835150167728
20
347.72969187728398
30
0
0
LINE
5
149
100
AcDbEntity
8
0
100
AcDbLine
10
602.0211743236988
20
330.47381320336473
30
0
11
586.92770316921406
21
330.47381320336478
31
0
0
ARC
5
150
100
AcDbEntity
8
0
100
AcDbCircle
10
609.23640203910361
20
330.03758930486578
30
0
40
0.78740157480290052
210
0
220
0
230
1
100
AcDbArc
50
270.00031355692215
51
315.00031355664299
0
LINE
5
151
100
AcDbEntity
8
0
100
AcDbLine
10
586.87834902800864
20
334.07450826982893
30
0
11
626.20876835577701
21
334.07450826982802
31
0
0
CIRCLE
5
152
100
AcDbEntity
8
0
100
AcDbCircle
10
606.7814866451082
20
332.02210958698902
30
0
40
0.374
210
0
220
0
230
1
0
CIRCLE
5
153
100
AcDbEntity
8
0
100
AcDbCircle
10
602.33817866943878
20
332.92551584920147
30
0
40
0.083136237453996537
210
0
220
0
230
1
0
LINE
5
154
100
AcDbEntity
8
0
100
AcDbLine
10
588.47036995177791
20
333.74782525753074
30
0
11
589.94912205177786
21
333.74782525753074
31
0
0
LINE
5
155
100
AcDbEntity
8
0
100
AcDbLine
10
589.94912205177798
20
330.5478252575308
30
0
11
588.47036995177791
21
333.74782525753074
31
0
0
CIRCLE
5
156
100
AcDbEntity
8
0
100
AcDbCircle
10
588.47036995177791
20
333.74782525753074
30
0
40
0.082500000000000004
210
0
220
0
230
1
0
CIRCLE
5
157
100
AcDbEntity
8
0
100
AcDbCircle
10
588.47036995177791
20
330.5478252575308
30
0
40
0.082500000000000004
210
0
220
0
230
1
0
LINE
5
158
100
AcDbEntity
8
0
100
AcDbLine
10
602.0211743236988
20
330.47381320336473
30
0
11
602.02117432369903
21
334.07450826982858
31
0
0
CIRCLE
5
159
100
AcDbEntity
8
0
100
AcDbCircle
10
589.94912205177798
20
330.5478252575308
30
0
40
0.082500000000000004
210
0
220
0
230
1
0
CIRCLE
5
160
100
AcDbEntity
8
0
100
AcDbCircle
10
601.57836102555052
20
333.67832571694959
30
0
40
0.082500000000000004
210
0
220
0
230
1
0
LINE
5
161
100
AcDbEntity
8
0
100
AcDbLine
10
589.94912205177786
20
333.74782525753074
30
0
11
589.94912205177798
21
330.5478252575308
31
0
0
LINE
5
162
100
AcDbEntity
8
0
100
AcDbLine
10
589.94912205177798
20
330.5478252575308
30
0
11
588.47036995177791
21
330.5478252575308
31
0
0
LINE
5
163
100
AcDbEntity
8
0
100
AcDbLine
10
609.23640634823801
20
329.25018773007463
30
0
11
603.87164158612177
21
329.25015837085886
31
0
0
LINE
5
164
100
AcDbEntity
8
0
100
AcDbLine
10
588.47036995177791
20
330.5478252575308
30
0
11
589.94912205177786
21
333.74782525753074
31
0
0
LINE
5
165
100
AcDbEntity
8
0
100
AcDbLine
10
588.47036995177791
20
330.5478252575308
30
0
11
588.47036995177791
21
333.74782525753074
31
0
0
CIRCLE
5
166
100
AcDbEntity
8
0
100
AcDbCircle
10
589.94912205177798
20
333.74782525753074
30
0
40
0.082500000000000004
210
0
220
0
230
1
0
LWPOLYLINE
5
167
100
AcDbEntity
8
0
100
AcDbPolyline
90
4
70
1
43
0.0
10
608.29918495497986
20
338.1047342567428
42
0.41421356237309503
10
606.74406684474366
20
336.54961614650654
42
0.41421356237309503
10
608.29918495497986
20
334.99449803627033
42
0.41421356237309503
10
609.85430306521607
20
336.54961614650654
42
0.41421356237309503
0
LWPOLYLINE
5
168
100
AcDbEntity
8
0
100
AcDbPolyline
90
4
70
1
43
0.0
10
613.28917075063896
20
335.14361569421516
42
0.41421356237326151
10
613.36791090811937
20
335.22235585169545
42
0.41421356237309503
10
613.28917075063919
20
335.30109600917575
42
0.41421356237292856
10
613.21043059315878
20
335.22235585169545
42
0.41421356237309503
0
LWPOLYLINE
5
169
100
AcDbEntity
8
0
100
AcDbPolyline
90
4
70
1
43
0.0
10
614.03189417067006
20
347.15127441172757
42
0.41421356237342799
10
613.95315401318965
20
347.07253425424733
42
0.41421356237342799
10
614.03189417067006
20
346.99379409676703
42
0.41421356237326151
10
614.11063432815047
20
347.07253425424733
42
0.41421356237292856
0
ARC
5
170
100
AcDbEntity
8
0
100
AcDbCircle
10
612.00846909657514
20
336.50257104261817
30
0
40
1.5551181102361971
210
-0
220
0
230
1
100
AcDbArc
50
-41.087046171617139
51
45.010441158772281
0
ARC
5
171
100
AcDbEntity
8
0
100
AcDbCircle
10
611.10251878831252
20
329.59694598111082
30
0
40
0.87708789569622925
210
0
220
-0
230
1
100
AcDbArc
50
89.351224141083748
51
128.56938628320466
0
ARC
5
172
100
AcDbEntity
8
0
100
AcDbCircle
10
626.18000527166703
20
330.53304553715788
30
0
40
0.059067889791275731
210
0
220
0
230
1
100
AcDbArc
50
-89.987314188959616
51
0.036431317698775674
0
LWPOLYLINE
5
173
100
AcDbEntity
8
0
100
AcDbPolyline
90
4
70
1
43
0.0
10
587.35133571124084
20
334.8965551516967
42
0.41421356237309503
10
587.43007586872113
20
334.97529530917706
42
0.41421356237309503
10
587.35133571124084
20
335.05403546665735
42
0.41421356237309503
10
587.27259555376054
20
334.97529530917706
42
0.41421356237309503
0
ARC
5
174
100
AcDbEntity
8
0
100
AcDbCircle
10
626.18001804288622
20
334.1391251102412
30
0
40
0.05905511809253277
210
-0
220
0
230
1
100
AcDbArc
50
303.55862815260696
51
359.97609701342498
0
ARC
5
175
100
AcDbEntity
8
0
100
AcDbCircle
10
626.18001804253811
20
334.02101196012944
30
0
40
0.059055118114557208
210
-0
220
0
230
1
100
AcDbArc
50
-0.023903995949108747
51
56.444008261741757
0
ARC
5
176
100
AcDbEntity
8
0
100
AcDbCircle
10
612.0084690965748
20
336.50257104261817
30
0
40
1.5551181102362346
210
0
220
0
230
1
100
AcDbArc
50
131.10792848914249
51
217.20541581952597
0
ARC
5
177
100
AcDbEntity
8
0
100
AcDbCircle
10
612.00846909657491
20
336.50257104261817
30
0
40
1.5551181102362293
210
0
220
-0
230
1
100
AcDbArc
50
45.010441158766355
51
131.10792848914565
0
ARC
5
178
100
AcDbEntity
8
0
100
AcDbCircle
10
586.88861260173189
20
334.08035286985091
30
0
40
0.011811024298855131
210
0
220
0
230
1
100
AcDbArc
50
-150.34061682029656
51
56.442049039048548
0
LINE
5
179
100
AcDbEntity
8
0
100
AcDbLine
10
626.2390731555131
20
334.0209873221321
30
0
11
626.23907314951794
21
330.53308309526307
31
0
0
LINE
5
180
100
AcDbEntity
8
0
100
AcDbLine
10
610.55568787314371
20
330.28270040289209
30
0
11
609.79318207917083
21
329.48081535882943
31
0
0
ARC
5
181
100
AcDbEntity
8
0
100
AcDbCircle
10
602.00555306296121
20
329.59684050217197
30
0
40
0.87711181865501642
210
0
220
-0
230
1
100
AcDbArc
50
51.433816267174457
51
88.97951479522014
0
ARC
5
182
100
AcDbEntity
8
0
100
AcDbCircle
10
586.92770639576759
20
330.53286832138656
30
0
40
0.059055118109957359
210
0
220
0
230
1
100
AcDbArc
50
179.99854579388705
51
224.99942964757608
0
ARC
5
183
100
AcDbEntity
8
0
100
AcDbCircle
10
586.88861308600383
20
334.08035201935098
30
0
40
0.011811023624004482
210
-0
220
0
230
1
100
AcDbArc
50
-56.45810991459016
51
209.65463542548611
0
SPLINE
5
184
100
AcDbEntity
8
0
100
AcDbSpline
70
0
71
3
72
15
73
11
74
0
42
0.000000001
43
0.0000000001
44
0.0000000001
40
0
40
0
40
0
40
0
40
16.98343887071087
40
35.853742041514124
40
73.123849678033807
40
101.54932196433084
40
132.58042561947377
40
156.27904721985988
40
175.72385219782836
40
195.7834259011789
40
195.7834259011789
40
195.7834259011789
40
195.7834259011789
10
586.86868929106026
20
342.53586948978597
30
0
10
586.87792573550303
20
342.75910824977547
30
0
10
586.89742479567269
20
343.23038765174226
30
0
10
587.17738849887735
20
344.16182284045163
30
0
10
587.88579016235985
20
345.06047943222393
30
0
10
588.91133015716991
20
345.81541320159869
30
0
10
589.88857090645183
20
346.31172882583769
30
0
10
590.80053000723751
20
346.65422474052815
30
0
10
591.59487997074564
20
346.89491335825568
30
0
10
592.09922894823762
20
347.01522658858676
30
0
10
592.35549612072202
20
347.0756621260295
30
0
0
ARC
5
185
100
AcDbEntity
8
0
100
AcDbCircle
10
610.73850267928685
20
335.5384248484412
30
0
40
0.039370078740201028
210
-0
220
0
230
1
100
AcDbArc
50
-44.989512065178324
51
37.205415819555832
0
LINE
5
186
100
AcDbEntity
8
0
100
AcDbLine
10
610.602942445454
20
335.34712708334092
30
0
11
610.76636141929953
21
335.51060589549803
31
0
0
LINE
5
187
100
AcDbEntity
8
0
100
AcDbLine
10
599.32835150167728
20
347.72969187728398
30
0
11
603.27743378255479
21
347.7297134771967
31
0
0
LINE
5
188
100
AcDbEntity
8
0
100
AcDbLine
10
604.11902643074416
20
328.31625995511376
30
0
11
604.11902643074416
21
325.56035444330274
31
0
0
LINE
5
189
100
AcDbEntity
8
0
100
AcDbLine
10
610.85353795100468
20
335.09662330354581
30
0
11
611.01695705039833
21
335.26010224129698
31
0
0
LWPOLYLINE
5
190
100
AcDbEntity
8
0
100
AcDbPolyline
90
4
70
1
43
0.0
10
603.29123183351442
20
335.28498003377337
42
0.41421356237292856
10
603.36997199099471
20
335.20623987629307
42
0.41421356237326151
10
603.44871214847512
20
335.28498003377342
42
0.41421356237309503
10
603.36997199099483
20
335.36372019125372
42
0.41421356237309503
0
LWPOLYLINE
5
191
100
AcDbEntity
8
0
100
AcDbPolyline
90
4
70
1
43
0.0
10
604.65068739413778
20
335.01008990618783
42
0.41421356237309503
10
606.20580550437398
20
336.56520801642404
42
0.41421356237309503
10
604.65068739413778
20
338.1203261266603
42
0.41421356237309503
10
603.09556928390157
20
336.56520801642404
42
0.41421356237309503
0
LWPOLYLINE
5
192
100
AcDbEntity
8
0
100
AcDbPolyline
90
4
70
1
43
0.0
10
606.0101428665406
20
337.84543611462954
42
0.41421356237309503
10
605.93140270906019
20
337.92417627210989
42
0.41421356237309503
10
605.8526625515799
20
337.84543611462954
42
0.41421356237309503
10
605.93140270906019
20
337.76669595714918
42
0.41421356237309503
0
LWPOLYLINE
5
193
100
AcDbEntity
8
0
100
AcDbPolyline
90
4
70
1
43
0.0
10
606.01012920568235
20
335.28499282550132
42
0.41421356237309503
10
605.93138904820216
20
335.3637329829815
42
0.41421356237292856
10
605.85264889072175
20
335.28499282550132
42
0.41421356237309503
10
605.93138904820205
20
335.20625266802102
42
0.41421356237326151
0
LWPOLYLINE
5
194
100
AcDbEntity
8
0
100
AcDbPolyline
90
4
70
1
43
0.0
10
603.36998865724183
20
337.92417339069681
42
0.41421356237309503
10
603.29124849976131
20
337.8454332332164
42
0.41421356237342799
10
603.36998865724183
20
337.7666930757361
42
0.41421356237276202
10
603.44872881472202
20
337.8454332332164
42
0.41421356237242907
0
CIRCLE
5
195
100
AcDbEntity
8
0
100
AcDbCircle
10
591.91699600895583
20
346.60508588449943
30
0
40
0.078999999999973577
210
0
220
0
230
1
0
CIRCLE
5
196
100
AcDbEntity
8
0
100
AcDbCircle
10
595.58728271446796
20
347.03474948718559
30
0
40
0.078999999999973577
210
0
220
0
230
1
0
CIRCLE
5
197
100
AcDbEntity
8
0
100
AcDbCircle
10
599.26479888325559
20
347.11211760162837
30
0
40
0.078999999999973577
210
0
220
0
230
1
0
CIRCLE
5
198
100
AcDbEntity
8
0
100
AcDbCircle
10
588.61406865399454
20
345.14476408160573
30
0
40
0.078999999999973577
210
0
220
0
230
1
0
LINE
5
199
100
AcDbEntity
8
0
100
AcDbLine
10
596.228698112845
20
334.14021996109784
30
0
11
596.22869811285386
21
337.74689414405373
31
0
0
LINE
5
200
100
AcDbEntity
8
0
100
AcDbLine
10
596.22869811285386
20
337.74689414405373
30
0
11
598.95301301510528
21
337.74689414405373
31
0
0
LINE
5
201
100
AcDbEntity
8
0
100
AcDbLine
10
598.95301301510517
20
338.36961725299972
30
0
11
598.95301301510528
21
334.0745082698287
31
0
0
LINE
5
202
100
AcDbEntity
8
0
100
AcDbLine
10
598.95301301510517
20
338.36961725299972
30
0
11
614.29191244028323
21
338.36961725299972
31
0
0
LINE
5
203
100
AcDbEntity
8
0
100
AcDbLine
10
614.29191244028323
20
338.36961725299972
30
0
11
614.29191244028323
21
334.0745082698283
31
0
0
LINE
5
204
100
AcDbEntity
8
0
100
AcDbLine
10
614.29191244028323
20
337.74689414405373
30
0
11
617.01074069721517
21
337.74689414405373
31
0
0
LINE
5
205
100
AcDbEntity
8
0
100
AcDbLine
10
617.01074069721517
20
337.74689414405373
30
0
11
617.01074069721039
21
334.07450826982819
31
0
0
LWPOLYLINE
5
206
100
AcDbEntity
8
0
100
AcDbPolyline
90
10
70
1
43
0.0
10
589.26043258596644
20
340.71665122367909
10
588.28546415849121
20
340.71665122367909
10
588.28546415849121
20
338.02642291034505
10
588.28546415849121
20
335.02851790587715
10
594.79034908086908
20
335.02851790587715
10
594.79034908086908
20
338.02642291034505
10
591.30764018958143
20
338.02642291034505
10
591.30764018958143
20
340.71665122367909
10
591.30764018958143
20
342.21433488044067
10
589.26043258596644
20
342.21433488044067
0
LWPOLYLINE
5
207
100
AcDbEntity
8
0
100
AcDbPolyline
90
4
70
1
43
0.0
10
595.56590125877858
20
333.80018962297572
10
590.77470136840645
20
333.80018962297572
10
590.77470136840645
20
330.7097810685238
10
595.56590125877858
20
330.7097810685238
0
LWPOLYLINE
5
208
100
AcDbEntity
8
0
100
AcDbPolyline
90
4
70
1
43
0.0
10
601.26673304165922
20
333.80018962297572
10
596.38390140422507
20
333.80018962297572
10
596.38390140422507
20
330.7097810685238
10
601.26673304165922
20
330.7097810685238
0
LWPOLYLINE
5
209
100
AcDbEntity
8
0
100
AcDbPolyline
90
4
70
1
43
0.0
10
603.85168521900846
20
338.84164253848309
10
592.17465232496136
20
338.84164253848309
10
592.17465232496136
20
346.38751439189031
10
603.85168521900846
20
346.38751439189031
0
LWPOLYLINE
5
210
100
AcDbEntity
8
0
100
AcDbPolyline
90
4
70
1
43
0.0
10
617.68399397512485
20
346.38751439189031
10
606.09599096252236
20
346.38751439189031
10
606.09599096252236
20
338.84164253848309
10
617.68399397512485
20
338.84164253848309
0
LWPOLYLINE
5
211
100
AcDbEntity
8
0
100
AcDbPolyline
90
4
70
1
43
0.0
10
605.52137924288922
20
346.38751439189031
10
604.3003293386688
20
346.38751439189031
10
604.3003293386688
20
338.84164253848309
10
605.52137924288922
20
338.84164253848309
0
LINE
5
212
100
AcDbEntity
8
0
100
AcDbLine
10
607.45621674464155
20
347.7297134771967
30
0
11
607.45697134462182
21
347.7297370570837
31
0
0
LINE
5
213
100
AcDbEntity
8
0
100
AcDbLine
10
603.27743378255479
20
347.7297134771967
30
0
11
601.7624652081056
21
347.72970267724037
31
0
0
LINE
5
214
100
AcDbEntity
8
0
100
AcDbLine
10
592.35549612072202
20
347.0756621260295
30
0
11
592.47577572419368
21
347.10214260357083
31
0
0
LWPOLYLINE
5
215
100
AcDbEntity
8
0
100
AcDbPolyline
90
4
70
1
43
0.0
10
599.37669295990054
20
338.19283432381366
42
0.41421356237309503
10
599.27433075517615
20
338.09047211908927
42
0.41421356237309503
10
599.37669295990054
20
337.98810991436483
42
0.41421356237309503
10
599.47905516462504
20
338.09047211908927
42
0.41421356237309503
0
LWPOLYLINE
5
216
100
AcDbEntity
8
0
100
AcDbPolyline
90
4
70
1
43
0.0
10
606.46321825363532
20
338.14928584435341
42
0.41421356237309503
10
606.36085604891093
20
338.04692363962903
42
0.41421356237309503
10
606.46321825363532
20
337.94456143490459
42
0.41421356237309503
10
606.56558045835982
20
338.04692363962903
42
0.41421356237309503
0
LWPOLYLINE
5
217
100
AcDbEntity
8
0
100
AcDbPolyline
90
4
70
1
43
0.0
10
613.80050653490252
20
338.03248266941523
42
0.41421356237309503
10
613.69814433017802
20
338.13484487413962
42
0.41421356237309503
10
613.59578212545364
20
338.03248266941523
42
0.41421356237309503
10
613.69814433017802
20
337.93012046469079
42
0.41421356237309503
0
LWPOLYLINE
5
218
100
AcDbEntity
8
0
100
AcDbPolyline
90
4
70
1
43
0.0
10
615.77374542313441
20
334.30022142575768
42
0.41421356237309503
10
615.67138321840991
20
334.40258363048213
42
0.41421356237309503
10
615.56902101368553
20
334.30022142575768
42
0.41421356237309503
10
615.67138321840991
20
334.1978592210333
42
0.41421356237309503
0
LINE
5
219
100
AcDbEntity
8
0
100
AcDbLine
10
626.23907315478164
20
333.59541972145968
30
0
11
627.11896507047072
21
333.5954197199473
31
0
0
LINE
5
220
100
AcDbEntity
8
0
100
AcDbLine
10
627.11896507047072
20
333.5954197199473
30
0
11
627.11896507220024
21
334.60163892027458
31
0
0
LINE
5
221
100
AcDbEntity
8
0
100
AcDbLine
10
627.11896507220024
20
334.60163892027458
30
0
11
627.28917130315597
21
334.60163891998201
31
0
0
LINE
5
222
100
AcDbEntity
8
0
100
AcDbLine
10
627.28917130315597
20
334.60163891998201
30
0
11
627.28917131118374
21
339.27229818665722
31
0
0
LINE
5
223
100
AcDbEntity
8
0
100
AcDbLine
10
627.28917131118374
20
339.27229818665722
30
0
11
626.7885647365523
21
339.27229818751766
31
0
0
LINE
5
224
100
AcDbEntity
8
0
100
AcDbLine
10
626.7885647365523
20
339.27229818751766
30
0
11
626.78856473687938
21
339.46252868191164
31
0
0
LINE
5
225
100
AcDbEntity
8
0
100
AcDbLine
10
626.78856473687938
20
339.46252868191164
30
0
11
627.03886802386808
21
339.46252868148144
31
0
0
LINE
5
226
100
AcDbEntity
8
0
100
AcDbLine
10
627.03886802386808
20
339.46252868148144
30
0
11
627.10176696283565
21
340.37772299378958
31
0
0
SPLINE
5
227
100
AcDbEntity
8
0
100
AcDbSpline
70
0
71
3
72
35
73
31
74
0
42
0.000000001
43
0.0000000001
44
0.0000000001
40
0
40
0
40
0
40
0
40
16.98343887071087
40
16.98343887071087
40
16.98343887071087
40
35.853742041514124
40
35.853742041514124
40
35.853742041514124
40
66.180883249749911
40
66.180883249749911
40
66.180883249749911
40
73.123849678033807
40
73.123849678033807
40
73.123849678033807
40
101.54932196433084
40
101.54932196433084
40
101.54932196433084
40
132.58042561947377
40
132.58042561947377
40
132.58042561947377
40
156.27904721985988
40
156.27904721985988
40
156.27904721985988
40
175.72385219782836
40
175.72385219782836
40
175.72385219782836
40
195.7834259011789
40
195.7834259011789
40
195.7834259011789
40
195.90900449552905
40
195.90900449552905
40
195.90900449552905
40
195.90900449552905
10
586.20542362153901
20
342.56331193081894
30
0
10
586.21466006598178
20
342.78655069080833
30
0
10
586.22342801434468
20
343.0364200925963
30
0
10
586.26754678258521
20
343.30854992112592
30
0
10
586.3165671569958
20
343.61091344156915
30
0
10
586.40524773423556
20
343.90543856863587
30
0
10
586.52938982692933
20
344.18415518503099
30
0
10
586.72890303776285
20
344.63209065835053
30
0
10
587.01162543776661
20
345.02154101425646
30
0
10
587.32953944762062
20
345.35715914587757
30
0
10
587.40232132581821
20
345.43399413024258
30
0
10
587.47703017515289
20
345.50804086981572
30
0
10
587.55321506735072
20
345.57937547327009
30
0
10
587.86512663485973
20
345.87142928261687
30
0
10
588.20240335470783
20
346.11870585058773
30
0
10
588.54906448138229
20
346.33402898719271
30
0
10
588.92750242769671
20
346.56908979828648
30
0
10
589.32158186477534
20
346.76880198348772
30
0
10
589.72134340635512
20
346.94125594141127
30
0
10
590.02664345657479
20
347.0729599612792
30
0
10
590.3354201275489
20
347.18880369321926
30
0
10
590.64534831077287
20
347.29272535628343
30
0
10
590.89964550921718
20
347.37799345775119
30
0
10
591.15649050633044
20
347.45581927221497
30
0
10
591.41540438518348
20
347.52599139088676
30
0
10
591.6825041088141
20
347.59838207765432
30
0
10
591.94574716554587
20
347.66107415439149
30
0
10
592.20312404551544
20
347.72177139436769
30
0
10
592.20472835036185
20
347.72214973789363
30
0
10
592.20633265520814
20
347.72252808141951
30
0
10
592.20793696004932
20
347.7229064249442
30
0
0
SPLINE
5
228
100
AcDbEntity
8
0
100
AcDbSpline
70
0
71
3
72
35
73
31
74
0
42
0.000000001
43
0.0000000001
44
0.0000000001
40
-0.19770100886966058
40
-0.19770100886966058
40
-0.19770100886966058
40
-0.19770100886966058
40
0
40
0
40
0
40
94.074213406790918
40
94.074213406790918
40
94.074213406790918
40
190.22246044394524
40
190.22246044394524
40
190.22246044394524
40
260.82798094401556
40
260.82798094401556
40
260.82798094401556
40
302.74746800238199
40
302.74746800238199
40
302.74746800238199
40
305.05722477397279
40
305.05722477397279
40
305.05722477397279
40
334.17607385857008
40
334.17607385857008
40
334.17607385857008
40
337.93346459869917
40
337.93346459869917
40
337.93346459869917
40
356.48090088397208
40
356.48090088397208
40
356.48090088397208
40
372.11344451039525
40
372.11344451039525
40
372.11344451039525
40
372.11344451039525
10
613.84824318437472
20
348.38647327417061
30
0
10
613.85083806652824
20
348.38640950482062
30
0
10
613.85343294868187
20
348.38634573547068
30
0
10
613.85602783083561
20
348.38628196612069
30
0
10
615.09119909166361
20
348.35592757477076
30
0
10
616.3392263645585
20
348.32445669457945
30
0
10
617.59582782768041
20
348.21778403821105
30
0
10
618.88013330872718
20
348.10875959309271
30
0
10
620.17050971883168
20
347.92126818460429
30
0
10
621.44218592997595
20
347.59281793453084
30
0
10
622.37602886068169
20
347.35162372060154
30
0
10
623.31450869208993
20
347.03144477703859
30
0
10
624.19560050476707
20
346.54644787568355
30
0
10
624.71871706246895
20
346.25849841810992
30
0
10
625.23024131898865
20
345.9080666689884
30
0
10
625.6780055911056
20
345.4602955988633
30
0
10
625.70267732809896
20
345.43562348730086
30
0
10
625.72715003933854
20
345.41065752786926
30
0
10
625.75141296530228
20
345.38539295895401
30
0
10
626.0572929991572
20
345.06688532279043
30
0
10
626.3330983310201
20
344.69869318682356
30
0
10
626.53588313410262
20
344.27639810533907
30
0
10
626.56204975006756
20
344.22190667869779
30
0
10
626.58697443538006
20
344.16652718921057
30
0
10
626.61054143879323
20
344.11026937372117
30
0
10
626.72687416127917
20
343.83256648879274
30
0
10
626.80691867328301
20
343.54165498589327
30
0
10
626.85008405836993
20
343.24595896142142
30
0
10
626.88646562373265
20
342.99673416659635
30
0
10
626.89427957118642
20
342.76786934448495
30
0
10
626.9023892471788
20
342.56252217645971
30
0
0
SPLINE
5
229
100
AcDbEntity
8
0
100
AcDbSpline
70
4
71
5
72
16
73
10
74
0
42
0.000000001
43
0.0000000001
44
0.0000000001
40
0
40
0
40
0
40
0
40
0
40
0
40
0.20000000000000001
40
0.40000000000000002
40
0.60000000000000009
40
0.80000000000000004
40
1
40
1
40
1
40
1
40
1
40
1
41
1
41
1
41
1
41
1
41
1
41
1
41
1
41
1
41
1
41
1
10
592.20793696004932
20
347.7229064249442
30
0
10
592.36762914790052
20
347.74717639281971
30
0
10
592.70211754122613
20
347.79571398812328
30
0
10
593.2492218245261
20
347.86851192327754
30
0
10
594.14381836492214
20
347.96431252770816
30
0
10
596.06021945679095
20
348.07382476241901
30
0
10
598.88947073619204
20
348.1434133443683
30
0
10
602.17867187045908
20
348.17905948036588
30
0
10
604.97909118860082
20
348.19418696092055
30
0
10
606.53134516254988
20
348.19958955153106
30
0
0
SPLINE
5
230
100
AcDbEntity
8
0
100
AcDbSpline
70
4
71
5
72
16
73
10
74
0
42
0.000000001
43
0.0000000001
44
0.0000000001
40
0
40
0
40
0
40
0
40
0
40
0
40
0.20000000000000001
40
0.40000000000000002
40
0.60000000000000009
40
0.80000000000000004
40
1
40
1
40
1
40
1
40
1
40
1
41
1
41
1
41
1
41
1
41
1
41
1
41
1
41
1
41
1
41
1
10
620.85475336505044
20
347.7229064249442
30
0
10
620.69506117719925
20
347.74717639281971
30
0
10
620.36057278387443
20
347.79571398812328
30
0
10
619.81346850058583
20
347.86851192327754
30
0
10
618.91887196019081
20
347.96431252770816
30
0
10
617.00247086831723
20
348.07382476241901
30
0
10
614.17321958890898
20
348.1434133443683
30
0
10
610.88401845464057
20
348.17905948036588
30
0
10
608.08359913649895
20
348.19418696092055
30
0
10
606.53134516254988
20
348.19958955153106
30
0
0
LINE
5
231
100
AcDbEntity
8
0
100
AcDbLine
10
620.85475336505044
20
347.7229064249442
30
0
11
621.00550487168414
21
347.69999525895412
31
0
0
LINE
5
232
100
AcDbEntity
8
0
100
AcDbLine
10
626.9023892471788
20
342.56252217645977
30
0
11
627.10176696283565
21
340.37772299378958
31
0
0
LINE
5
233
100
AcDbEntity
8
0
100
AcDbLine
10
586.86873235276551
20
333.72723233527347
30
0
11
586.05340511025042
21
333.72725302883231
31
0
0
LINE
5
234
100
AcDbEntity
8
0
100
AcDbLine
10
586.05340511025042
20
333.72725302883231
30
0
11
586.05343276177996
21
334.81672465941796
31
0
0
LINE
5
235
100
AcDbEntity
8
0
100
AcDbLine
10
586.05343276177996
20
334.81672465941796
30
0
11
585.85589354008857
21
334.81672967309748
31
0
0
LINE
5
236
100
AcDbEntity
8
0
100
AcDbLine
10
585.85589354008857
20
334.81672967309748
30
0
11
585.8560101313642
21
339.41043172485166
31
0
0
LINE
5
237
100
AcDbEntity
8
0
100
AcDbLine
10
585.8560101313642
20
339.41043172485166
30
0
11
586.43568193115971
21
339.41041701238794
31
0
0
LINE
5
238
100
AcDbEntity
8
0
100
AcDbLine
10
586.43568193115971
20
339.41041701238794
30
0
11
586.43568823812484
21
339.6589117507533
31
0
0
LINE
5
239
100
AcDbEntity
8
0
100
AcDbLine
10
586.43568823812484
20
339.6589117507533
30
0
11
586.14584603126207
21
339.65891910714527
31
0
0
LINE
5
240
100
AcDbEntity
8
0
100
AcDbLine
10
586.14584603126207
20
339.65891910714527
30
0
11
586.14584603126207
21
340.55726494222432
31
0
0
LINE
5
241
100
AcDbEntity
8
0
100
AcDbLine
10
586.20542362153901
20
342.56331193081894
30
0
11
586.14584603126207
21
340.55726494222432
31
0
0
LWPOLYLINE
5
242
100
AcDbEntity
8
0
100
AcDbPolyline
90
4
70
1
43
0.0
10
5.9839348132324686
20
-5.1487683696883666
42
-0.41421356237339102
10
5.8953521360671051
20
-5.2373510468538189
42
-0.41421356237309503
10
5.8067694589017425
20
-5.148768369688411
42
-0.41421356237309503
10
5.8953521360671051
20
-5.0601856925230475
42
-0.41421356237309503
0
LWPOLYLINE
5
243
100
AcDbEntity
8
0
100
AcDbPolyline
90
4
70
1
43
0.0
10
7.4410214274056159
20
-5.1487683696885007
42
-0.41421356237309503
10
7.3524387502402524
20
-5.2373510468538642
42
-0.41421356237309503
10
7.2638560730748898
20
-5.1487683696884554
42
-0.41421356237353901
10
7.3524387502402524
20
-5.0601856925231816
42
-0.41421356237309503
0
LWPOLYLINE
5
244
100
AcDbEntity
8
0
100
AcDbPolyline
90
11
70
1
43
0.0
10
6.7331846245653155
20
-6.1615005556574047
10
6.5578305043543432
20
-6.1615005635406028
42
-0.41421352925879712
10
6.5184604238442878
20
-6.1221304910215677
10
6.5184602807743257
20
-5.2167137377281732
10
6.9479088030115994
20
-5.2167137329015398
10
6.9479088030115994
20
-7.0669183633577273
42
-0.41421354920569292
10
6.9085387260414119
20
-7.1062884420978492
10
6.879916775637132
20
-7.1062884433845692
42
-0.41421357554049726
10
6.8405466951270766
20
-7.0669183646444473
10
6.8405466951270766
20
-6.6346083759231256
10
6.7331845872425529
20
-6.6346083807497136
0
ARC
5
245
100
AcDbEntity
8
0
100
AcDbCircle
10
6.1641296310734628
20
-5.3347294357263575
30
0
40
0.039370078740166466
210
0
220
-0
230
1
100
AcDbArc
50
89.99999742419179
51
180
0
ARC
5
246
100
AcDbEntity
8
0
100
AcDbCircle
10
6.1927515814776539
20
-5.334729437013122
30
0
40
0.039370078740211187
210
0
220
-0
230
1
100
AcDbArc
50
0
51
89.999997424062528
0
SPLINE
5
247
100
AcDbEntity
8
0
100
AcDbSpline
70
0
71
3
72
15
73
11
74
0
42
0.000000001
43
0.0000000001
44
0.0000000001
40
0
40
0
40
0
40
0
40
16.98343887071087
40
35.853742041514124
40
73.123849678033821
40
101.54932196433083
40
132.58042561947377
40
156.27904721985988
40
175.72385219782836
40
195.78342590117893
40
195.78342590117893
40
195.78342590117893
40
195.78342590117893
10
586.86872705769451
20
342.53601675608712
30
0
10
586.87796472383366
20
342.75925546552588
30
0
10
586.89746636312714
20
343.23053476077507
30
0
10
587.17743516370047
20
344.16196841734092
30
0
10
587.88584174516109
20
345.0606211323003
30
0
10
588.91138587140699
20
345.81554928929273
30
0
10
589.88862933681162
20
346.31185956547586
30
0
10
590.80059031192695
20
346.65435048937314
30
0
10
591.5949415926159
20
346.89503475993672
30
0
10
592.09929122852668
20
347.01534523016539
30
0
10
592.35555873174678
20
347.07577936515935
30
0
0
LWPOLYLINE
5
248
100
AcDbEntity
8
0
100
AcDbPolyline
90
4
70
1
43
0.0
10
5.8949956193884647
20
-7.0856500878482978
42
-0.41421356237279905
10
5.9835782965538282
20
-7.1742327650137057
42
-0.41421356237309503
10
5.8949956193884647
20
-7.2628154421790692
42
-0.41421356237309503
10
5.8064129422231012
20
-7.174232765013751
42
-0.41421356237309503
0
LWPOLYLINE
5
249
100
AcDbEntity
8
0
100
AcDbPolyline
90
4
70
1
43
0.0
10
7.4412845107929106
20
-7.1742327650137954
42
-0.41421356237309503
10
7.352701833627548
20
-7.2628154421791589
42
-0.41421356237309503
10
7.2641191564621845
20
-7.1742327650138407
42
-0.4142135623729471
10
7.352701833627548
20
-7.0856500878484772
42
-0.41421356237309503
0
CIRCLE
5
250
100
AcDbEntity
8
0
100
AcDbCircle
10
10.44003123911434
20
-6.6061548597750406
30
0
40
0.10000000000000052
210
0
220
0
230
1
0
LINE
5
251
100
AcDbEntity
8
0
100
AcDbLine
10
6.1927515832476772
20
-5.2953593582729113
30
0
11
6.1641296328433972
21
-5.2953593569861912
31
0
0
LWPOLYLINE
5
252
100
AcDbEntity
8
0
100
AcDbPolyline
90
4
70
1
43
0.0
10
620.01263229198992
20
330.79245823387816
42
-0.41421356237309503
10
620.09530945734423
20
330.7097810685238
42
-0.41421356237309503
10
620.01263229198992
20
330.62710390316948
42
-0.41421356237309503
10
619.9299551266356
20
330.7097810685238
42
-0.41421356237325357
0
LWPOLYLINE
5
253
100
AcDbEntity
8
0
100
AcDbPolyline
90
4
70
1
43
0.0
10
587.01831363115036
20
330.70978106852385
42
-0.41421356237309503
10
587.10099079650468
20
330.79245823387822
42
-0.41421356237325357
10
587.18366796185899
20
330.7097810685238
42
-0.41421356237309503
10
587.10099079650468
20
330.62710390316954
42
-0.41421356237309503
0
LWPOLYLINE
5
254
100
AcDbEntity
8
0
100
AcDbPolyline
90
4
70
1
43
0.0
10
599.19502964524543
20
333.37034452167484
42
-0.41421356237309503
10
599.42731310981242
20
333.60262798624177
42
-0.41421356237286927
10
599.65959657437929
20
333.37034452167484
42
-0.41421356237309503
10
599.42731310981242
20
333.1380610571079
42
-0.41421356237298218
0
LWPOLYLINE
5
255
100
AcDbEntity
8
0
100
AcDbPolyline
90
4
70
1
43
0.0
10
591.99714876009352
20
333.37182372656036
42
-0.41421356237315149
10
592.2294322246604
20
333.6041071911273
42
-0.41421356237309503
10
592.46171568922739
20
333.37182372656042
42
-0.41421356237309503
10
592.2294322246604
20
333.13954026199343
42
-0.41421356237309503
0
LWPOLYLINE
5
256
100
AcDbEntity
8
0
100
AcDbPolyline
90
6
70
1
43
0.0
10
595.53904843291741
20
331.80660305613623
10
595.53904843291741
20
331.62786983624937
42
-0.30369697790646411
10
595.32251299984648
20
331.48298447768883
42
-0.30369697790641592
10
595.10597756677566
20
331.62786983624932
10
595.10597756677566
20
331.80660305613623
42
-0.30369697790646411
10
595.32251299984648
20
331.95148841469671
42
-0.30369697790641592
0
ARC
5
257
100
AcDbEntity
8
0
100
AcDbCircle
10
618.36553933000732
20
347.20505603034849
30
0
40
0.078740157480332862
210
0
220
-0
230
1
100
AcDbArc
50
90
51
180
0
LWPOLYLINE
5
258
100
AcDbEntity
8
0
100
AcDbPolyline
90
4
70
1
43
0.0
10
600.2150216815636
20
333.60294660884216
42
-0.41421356237309503
10
600.44730514613059
20
333.37066314427523
42
-0.4142135623732644
10
600.2150216815636
20
333.13837967970818
42
-0.41421356237309503
10
599.98273821699661
20
333.37066314427517
42
-0.41421356237309503
0
LWPOLYLINE
5
259
100
AcDbEntity
8
0
100
AcDbPolyline
90
6
70
1
43
0.0
10
596.1096950075837
20
331.48289352615939
42
-0.30369697790646411
10
595.89315957451288
20
331.62777888471987
10
595.89315957451288
20
331.80651210460672
42
-0.30369697790646411
10
596.1096950075837
20
331.95139746316721
42
-0.30369697790645572
10
596.32623044065463
20
331.80651210460672
10
596.32623044065451
20
331.62777888471987
42
-0.30369697790646411
0
LINE
5
260
100
AcDbEntity
8
0
100
AcDbLine
10
591.36094675518291
20
331.98596000365848
30
0
11
590.51094675518289
21
331.98596000365848
31
0
0
LINE
5
261
100
AcDbEntity
8
0
100
AcDbLine
10
598.51841400510602
20
333.16096000365843
30
0
11
598.51841400510602
21
331.98596000365848
31
0
0
ARC
5
262
100
AcDbEntity
8
0
100
AcDbCircle
10
613.72018461189884
20
347.67071653393947
30
0
40
0.0590551179192546
210
0
220
-0
230
1
100
AcDbArc
50
24.400499490209103
51
90.000000184973004
0
ARC
5
263
100
AcDbEntity
8
0
100
AcDbCircle
10
613.78113563932459
20
347.69836578689848
30
0
40
0.0078740157479942532
210
0
220
0
230
1
100
AcDbArc
50
204.4004994899455
51
266.55863892176399
0
LWPOLYLINE
5
264
100
AcDbEntity
8
0
100
AcDbPolyline
90
6
70
1
43
0.0
10
592.17347846415703
20
331.48375769807927
42
-0.30369697790645572
10
591.9569430310861
20
331.62864305663982
10
591.95694303108621
20
331.80737627652661
42
-0.30369697790646411
10
592.17347846415703
20
331.95226163508715
42
-0.30369697790641592
10
592.39001389722796
20
331.80737627652667
10
592.39001389722796
20
331.62864305663982
42
-0.30369697790646411
0
LWPOLYLINE
5
265
100
AcDbEntity
8
0
100
AcDbPolyline
90
4
70
1
43
0.0
10
592.23067663406925
20
334.71604819206999
42
-0.41421356237309503
10
592.33303883879364
20
334.6136859873456
42
-0.41421356237309503
10
592.23067663406925
20
334.51132378262122
42
-0.41421356237309503
10
592.12831442934475
20
334.6136859873456
42
-0.41421356237309503
0
LINE
5
266
100
AcDbEntity
8
0
100
AcDbLine
10
590.51094675518289
20
331.98596000365848
30
0
11
590.51094675518289
21
333.16096000365843
31
0
0
LINE
5
267
100
AcDbEntity
8
0
100
AcDbLine
10
613.77663369832919
20
346.80034924360251
30
0
11
613.77655892220582
21
347.76288504886094
31
0
0
LWPOLYLINE
5
268
100
AcDbEntity
8
0
100
AcDbPolyline
90
4
70
1
43
0.0
10
592.22890604776535
20
330.79245823387816
42
-0.41421356237309503
10
592.31158321311966
20
330.7097810685238
42
-0.41421356237309503
10
592.22890604776535
20
330.62710390316948
42
-0.41421356237309503
10
592.14622888241092
20
330.7097810685238
42
-0.41421356237309503
0
ARC
5
269
100
AcDbEntity
8
0
100
AcDbCircle
10
613.83833400853382
20
347.66361157105575
30
0
40
0.059055118110388806
210
0
220
-0
230
1
100
AcDbArc
50
88.591923341660973
51
148.71677835407371
0
LINE
5
270
100
AcDbEntity
8
0
100
AcDbLine
10
604.26490828435271
20
347.11568512804615
30
0
11
604.26490828435271
21
346.68261426189656
31
0
0
LWPOLYLINE
5
271
100
AcDbEntity
8
0
100
AcDbPolyline
90
6
70
1
43
0.0
10
593.96413485270455
20
331.62821484307028
42
-0.30369697790646411
10
593.74759941963373
20
331.4833294845098
42
-0.30369697790641592
10
593.53106398656291
20
331.62821484307028
10
593.53106398656291
20
331.80694806295713
42
-0.30369697790651234
10
593.74759941963373
20
331.95183342151762
42
-0.30369697790646411
10
593.96413485270455
20
331.80694806295713
0
CIRCLE
5
272
100
AcDbEntity
8
0
100
AcDbCircle
10
601.77836102555057
20
334.17832571694959
30
0
40
0.082500000000000004
210
0
220
0
230
1
0
LWPOLYLINE
5
273
100
AcDbEntity
8
0
100
AcDbPolyline
90
4
70
1
43
0.0
10
593.80418241293205
20
333.60391813903965
42
-0.41421356237309503
10
594.03646587749893
20
333.37163467447277
42
-0.41421356237309503
10
593.80418241293205
20
333.13935120990578
42
-0.41421356237309503
10
593.57189894836506
20
333.37163467447277
42
-0.41421356237309503
0
CIRCLE
5
274
100
AcDbEntity
8
0
100
AcDbCircle
10
-9.6714256193313961
20
-2.1735960252500983
30
0
40
0.091329996700589014
210
0
220
0
230
1
0
LWPOLYLINE
5
275
100
AcDbEntity
8
0
100
AcDbPolyline
90
6
70
1
43
0.0
10
594.75174600570585
20
331.80769056900289
10
594.75174600570585
20
331.62895734911604
42
-0.30369697790646411
10
594.53521057263492
20
331.48407199055544
42
-0.30369697790650396
10
594.31867513956399
20
331.62895734911604
10
594.31867513956399
20
331.80769056900289
42
-0.30369697790656847
10
594.53521057263492
20
331.95257592756337
42
-0.30369697790646411
0
ARC
5
276
100
AcDbEntity
8
0
100
AcDbCircle
10
613.78113563932459
20
347.69836578689853
30
0
40
0.0078740157481064985
210
0
220
0
230
1
100
AcDbArc
50
266.55863892178877
51
328.71677835352813
0
LWPOLYLINE
5
277
100
AcDbEntity
8
0
100
AcDbPolyline
90
4
70
1
43
0.0
10
594.35959846048354
20
333.37181379467575
42
-0.41421356237315149
10
594.59188192505042
20
333.60409725924268
42
-0.41421356237309503
10
594.82416538961741
20
333.37181379467575
42
-0.41421356237309503
10
594.59188192505042
20
333.13953033010876
42
-0.41421356237309503
0
CIRCLE
5
278
100
AcDbEntity
8
0
100
AcDbCircle
10
-9.6714256193313961
20
-0.41282758134555614
30
0
40
0.12744734153002224
210
0
220
0
230
1
0
LWPOLYLINE
5
279
100
AcDbEntity
8
0
100
AcDbPolyline
90
6
70
1
43
0.0
10
596.89743193203333
20
331.94967844258116
42
-0.30369697790650396
10
597.11396736510426
20
331.80479308402056
10
597.11396736510426
20
331.62605986413371
42
-0.30369697790646411
10
596.89743193203333
20
331.48117450557322
42
-0.30369697790646411
10
596.68089649896251
20
331.62605986413371
10
596.68089649896262
20
331.80479308402056
42
-0.30369697790635136
0
CIRCLE
5
280
100
AcDbEntity
8
0
100
AcDbCircle
10
-8.4770947687399811
20
-2.1735960252500983
30
0
40
0.12023358153250041
210
0
220
0
230
1
0
LWPOLYLINE
5
281
100
AcDbEntity
8
0
100
AcDbPolyline
90
4
70
1
43
0.0
10
593.24782970445142
20
333.37145026326402
42
-0.41421356237309503
10
593.01554623988443
20
333.13916679869703
42
-0.41421356237309503
10
592.78326277531744
20
333.37145026326402
42
-0.41421356237309503
10
593.01554623988443
20
333.6037337278309
42
-0.41421356237309503
0
CIRCLE
5
282
100
AcDbEntity
8
0
100
AcDbCircle
10
-8.4770947687399811
20
-2.1735960252500983
30
0
40
0.12023358153250041
210
0
220
0
230
1
0
LWPOLYLINE
5
283
100
AcDbEntity
8
0
100
AcDbPolyline
90
6
70
1
43
0.0
10
592.96074950698278
20
331.48447637403001
42
-0.30369697790646411
10
592.74421407391196
20
331.6293617325905
10
592.74421407391196
20
331.80809495247729
42
-0.30369697790646411
10
592.96074950698278
20
331.95298031103783
42
-0.30369697790646411
10
593.1772849400536
20
331.80809495247735
10
593.1772849400536
20
331.6293617325905
42
-0.30369697790646411
0
LINE
5
284
100
AcDbEntity
8
0
100
AcDbLine
10
604.26490828435271
20
347.11568512804223
30
0
11
604.26490828435271
21
346.68261426190048
31
0
0
CIRCLE
5
285
100
AcDbEntity
8
0
100
AcDbCircle
10
-9.6714256193313961
20
-0.41282758134555614
30
0
40
0.12744734153002224
210
0
220
0
230
1
0
CIRCLE
5
286
100
AcDbEntity
8
0
100
AcDbCircle
10
-9.0654605456367428
20
-1.2550101636545843
30
0
40
0.38784909414957697
210
0
220
0
230
1
0
CIRCLE
5
287
100
AcDbEntity
8
0
100
AcDbCircle
10
588.1708774031473
20
330.79733353253198
30
0
40
0.082500000000000004
210
0
220
0
230
1
0
LINE
5
288
100
AcDbEntity
8
0
100
AcDbLine
10
588.1708774031473
20
330.79733353253198
30
0
11
589.64962950314737
21
333.99733353253202
31
0
0
CIRCLE
5
289
100
AcDbEntity
8
0
100
AcDbCircle
10
-9.6714256193313961
20
-2.1735960252500983
30
0
40
0.091329996700589014
210
0
220
0
230
1
0
LINE
5
290
100
AcDbEntity
8
0
100
AcDbLine
10
589.64962950314737
20
330.79733353253198
30
0
11
588.1708774031473
21
333.99733353253202
31
0
0
LINE
5
291
100
AcDbEntity
8
0
100
AcDbLine
10
589.28457886885462
20
332.65847550012444
30
0
11
588.99526905671485
21
332.94778531226422
31
0
0
CIRCLE
5
292
100
AcDbEntity
8
0
100
AcDbCircle
10
-9.0654605456367428
20
-1.2550101636545843
30
0
40
0.38784909414957697
210
0
220
0
230
1
0
CIRCLE
5
293
100
AcDbEntity
8
0
100
AcDbCircle
10
-9.0654605456367428
20
-1.2550101636545843
30
0
40
0.38784909414957697
210
0
220
0
230
1
0
ARC
5
294
100
AcDbEntity
8
0
100
AcDbCircle
10
588.50478593521154
20
335.92594901594305
30
0
40
0.23228346456689689
210
0
220
-0
230
1
100
AcDbArc
50
90
51
180
0
ARC
5
295
100
AcDbEntity
8
0
100
AcDbCircle
10
588.91025345314733
20
332.57345989655693
30
0
40
0.3838582677165559
210
-0
220
0
230
1
100
AcDbArc
50
-45.000000001373898
51
12.795772494638005
0
LINE
5
296
100
AcDbEntity
8
0
100
AcDbLine
10
588.1708774031473
20
330.79733353253198
30
0
11
588.1708774031473
21
333.99733353253202
31
0
0
CIRCLE
5
297
100
AcDbEntity
8
0
100
AcDbCircle
10
-9.6714256193313961
20
-2.1735960252500983
30
0
40
0.091329996700589014
210
0
220
0
230
1
0
LINE
5
298
100
AcDbEntity
8
0
100
AcDbLine
10
589.64962950314737
20
333.99733353253202
30
0
11
589.64962950314737
21
330.79733353253198
31
0
0
CIRCLE
5
299
100
AcDbEntity
8
0
100
AcDbCircle
10
-9.6714256193313961
20
-0.41282758134555614
30
0
40
0.12744734153002224
210
0
220
0
230
1
0
LINE
5
300
100
AcDbEntity
8
0
100
AcDbLine
10
588.1708774031473
20
333.99733353253202
30
0
11
589.64962950314737
21
333.99733353253202
31
0
0
ARC
5
301
100
AcDbEntity
8
0
100
AcDbCircle
10
588.50478593521166
20
335.92594901594305
30
0
40
0.2322834645669864
210
0
220
0
230
1
100
AcDbArc
50
180
51
270
0
CIRCLE
5
302
100
AcDbEntity
8
0
100
AcDbCircle
10
8.3285743806686021
20
-0.41282758134555614
30
0
40
0.12744734153002224
210
0
220
0
230
1
0
LINE
5
303
100
AcDbEntity
8
0
100
AcDbLine
10
589.64962950314737
20
330.79733353253198
30
0
11
588.1708774031473
21
330.79733353253198
31
0
0
LINE
5
304
100
AcDbEntity
8
0
100
AcDbLine
10
588.53592803744016
20
332.48844429298953
30
0
11
588.82523784957982
21
332.19913448084969
31
0
0
ARC
5
305
100
AcDbEntity
8
0
100
AcDbCircle
10
588.91025345314733
20
332.57345989655698
30
0
40
0.38385826771652426
210
0
220
0
230
1
100
AcDbArc
50
134.99999999998801
51
192.79577249602494
0
LWPOLYLINE
5
306
100
AcDbEntity
8
0
100
AcDbPolyline
90
4
70
1
43
0.0
10
-11.577604089883373
20
5.5970279116885919
42
-0.45461705975775379
10
-13.824084246582551
20
6.2646008606070529
42
-0.41421356237309503
10
-12.268966136346322
20
7.8197189708432875
42
-1.5226218756997569
10
-9.4221145906006427
20
7.6145574660137818
42
-0.72211786918030463
0
CIRCLE
5
307
100
AcDbEntity
8
0
100
AcDbCircle
10
589.64962950314737
20
330.79733353253198
30
0
40
0.082500000000000004
210
0
220
0
230
1
0
ARC
5
308
100
AcDbEntity
8
0
100
AcDbCircle
10
588.91025345314733
20
332.57345989655687
30
0
40
0.38385826771651893
210
0
220
0
230
1
100
AcDbArc
50
257.20422750259183
51
314.99999999863212
0
LWPOLYLINE
5
309
100
AcDbEntity
8
0
100
AcDbPolyline
90
4
70
1
43
0.0
10
593.00432415296427
20
346.11210747826976
42
-0.41421356237309503
10
593.08306431044468
20
346.03336732078941
42
-0.41421356237309503
10
593.00432415296427
20
345.95462716330911
42
-0.41421356237309503
10
592.92558399548398
20
346.03336732078941
42
-0.41421356237309503
0
LINE
5
310
100
AcDbEntity
8
0
100
AcDbLine
10
604.46175867805357
20
347.31253552174695
30
0
11
606.35152245758104
21
347.3125355217469
31
0
0
LINE
5
311
100
AcDbEntity
8
0
100
AcDbLine
10
604.46175867805357
20
346.48576386819968
30
0
11
606.35152245758104
21
346.48576386819968
31
0
0
ARC
5
312
100
AcDbEntity
8
0
100
AcDbCircle
10
588.91025345314733
20
332.57345989655693
30
0
40
0.38385826771656789
210
0
220
-0
230
1
100
AcDbArc
50
77.204227503970543
51
134.99999999998201
0
LINE
5
313
100
AcDbEntity
8
0
100
AcDbLine
10
606.35152245758104
20
346.48576386819576
30
0
11
604.46175867805357
21
346.48576386819576
31
0
0
LINE
5
314
100
AcDbEntity
8
0
100
AcDbLine
10
603.39559454100322
20
347.72977148314612
30
0
11
607.34101732379861
21
347.72614686528118
31
0
0
CIRCLE
5
315
100
AcDbEntity
8
0
100
AcDbCircle
10
588.1708774031473
20
333.99733353253202
30
0
40
0.082500000000000004
210
0
220
0
230
1
0
CIRCLE
5
316
100
AcDbEntity
8
0
100
AcDbCircle
10
589.64962950314737
20
333.99733353253202
30
0
40
0.082500000000000004
210
0
220
0
230
1
0
ARC
5
317
100
AcDbEntity
8
0
100
AcDbCircle
10
607.39798241676135
20
347.70221259681512
30
0
40
0.0078740157480243333
210
-0
220
0
230
1
100
AcDbArc
50
270.00000005128948
51
331.92751309385505
0
ARC
5
318
100
AcDbEntity
8
0
100
AcDbCircle
10
603.3365605366788
20
347.70220296428505
30
0
40
0.0078648432543995707
210
0
220
0
230
1
100
AcDbArc
50
269.9603567230584
51
331.96739323695056
0
ARC
5
319
100
AcDbEntity
8
0
100
AcDbCircle
10
603.33655503202738
20
347.70221213866091
30
0
40
0.007874015747982837
210
0
220
0
230
1
100
AcDbArc
50
208.07270789484051
51
270.00045785532694
0
ARC
5
320
100
AcDbEntity
8
0
100
AcDbCircle
10
606.35152245758115
20
347.11568512804621
30
0
40
0.19685039370069787
210
-0
220
0
230
1
100
AcDbArc
50
0
51
90.000000000033097
0
ARC
5
321
100
AcDbEntity
8
0
100
AcDbCircle
10
607.39798241676135
20
347.70221259681517
30
0
40
0.0078740157480407681
210
0
220
0
230
1
100
AcDbArc
50
208.60583157534239
51
270.00000005128948
0
ARC
5
322
100
AcDbEntity
8
0
100
AcDbCircle
10
607.45703753471264
20
347.67071653394709
30
0
40
0.059055117911543852
210
0
220
-0
230
1
100
AcDbArc
50
89.999999807195707
51
151.92751309385019
0
ARC
5
323
100
AcDbEntity
8
0
100
AcDbCircle
10
604.46175867805357
20
347.11568512804615
30
0
40
0.19685039370078738
210
0
220
-0
230
1
100
AcDbArc
50
90
51
180
0
ARC
5
324
100
AcDbEntity
8
0
100
AcDbCircle
10
603.27750007058671
20
347.67071586670193
30
0
40
0.059055078210280269
210
0
220
-0
230
1
100
AcDbArc
50
28.072707894726996
51
90.000094894963055
0
ARC
5
325
100
AcDbEntity
8
0
100
AcDbCircle
10
603.39561019690234
20
347.6707165482261
30
0
40
0.059054936995248559
210
0
220
0
230
1
100
AcDbArc
50
90.015189533681152
51
151.92796841836602
0
ARC
5
326
100
AcDbEntity
8
0
100
AcDbCircle
10
607.34102330120152
20
347.66709174747302
30
0
40
0.059055118110629294
210
0
220
-0
230
1
100
AcDbArc
50
32.064631541823374
51
90.005799327315813
0
CIRCLE
5
327
100
AcDbEntity
8
0
100
AcDbCircle
10
10.44003123911434
20
-5.1601299880105369
30
0
40
0.1000000000000001
210
0
220
0
230
1
0
ARC
5
328
100
AcDbEntity
8
0
100
AcDbCircle
10
604.46175867805357
20
346.68261426189656
30
0
40
0.19685039370078738
210
0
220
0
230
1
100
AcDbArc
50
180
51
270
0
LINE
5
329
100
AcDbEntity
8
0
100
AcDbLine
10
6.1927515939767606
20
-7.027642821553111
30
0
11
6.1641296435725703
21
-7.0276428228398311
31
0
0
ARC
5
330
100
AcDbEntity
8
0
100
AcDbCircle
10
6.1927515922068261
20
-6.9882727428128995
30
0
40
0.039370078740211228
210
-0
220
0
230
1
100
AcDbArc
50
270.0000025758082
51
360
0
LINE
5
331
100
AcDbEntity
8
0
100
AcDbLine
10
607.45703753491136
20
347.72977165185864
30
0
11
613.72018461170819
21
347.7297716518587
31
0
0
CIRCLE
5
332
100
AcDbEntity
8
0
100
AcDbCircle
10
8.9345394543632555
20
-1.2550101636545843
30
0
40
0.82286620379863329
210
0
220
0
230
1
0
CIRCLE
5
333
100
AcDbEntity
8
0
100
AcDbCircle
10
609.34213464510822
20
332.02210958698902
30
0
40
0.374
210
0
220
0
230
1
0
LINE
5
334
100
AcDbEntity
8
0
100
AcDbLine
10
626.17999010679512
20
330.47396010860496
30
0
11
611.11242377145379
21
330.47396012325913
31
0
0
CIRCLE
5
335
100
AcDbEntity
8
0
100
AcDbCircle
10
8.9345394543632555
20
-1.2550101636545843
30
0
40
0.82286620379863329
210
0
220
0
230
1
0
CIRCLE
5
336
100
AcDbEntity
8
0
100
AcDbCircle
10
-9.0654605456367428
20
-1.2550101636545843
30
0
40
0.82286620379863329
210
0
220
0
230
1
0
ARC
5
337
100
AcDbEntity
8
0
100
AcDbCircle
10
626.17999010685242
20
330.53301522671501
30
0
40
0.059055118110048231
210
0
220
0
230
1
100
AcDbArc
50
269.99999994440884
51
359.99968627681045
0
LINE
5
338
100
AcDbEntity
8
0
100
AcDbLine
10
626.23906615852241
20
334.35613673507567
30
0
11
626.23904522496161
21
330.53301490335798
31
0
0
CIRCLE
5
339
100
AcDbEntity
8
0
100
AcDbCircle
10
-9.0654605456367428
20
-1.2550101636545843
30
0
40
0.82286620379863329
210
0
220
0
230
1
0
ARC
5
340
100
AcDbEntity
8
0
100
AcDbCircle
10
626.2191840975139
20
334.41519196205132
30
0
40
0.011811023621990657
210
0
220
0
230
1
100
AcDbArc
50
123.55699603758252
51
179.99968627681048
0
LWPOLYLINE
5
341
100
AcDbEntity
8
0
100
AcDbPolyline
90
4
70
1
43
0.0
10
625.92431009055417
20
330.7097810685238
42
-0.41421356237309503
10
626.00698725590848
20
330.79245823387816
42
-0.41421356237309503
10
626.0896644212628
20
330.7097810685238
42
-0.41421356237293649
10
626.00698725590848
20
330.62710390316954
42
-0.41421356237293649
0
ARC
5
342
100
AcDbEntity
8
0
100
AcDbCircle
10
626.18001104041309
20
334.35613705843281
30
0
40
0.059055118110262123
210
-0
220
0
230
1
100
AcDbArc
50
-0.00031372318952718704
51
56.442376514182719
0
CIRCLE
5
343
100
AcDbEntity
8
0
100
AcDbCircle
10
8.3285743806686021
20
-0.41282758134555614
30
0
40
0.12744734153002224
210
0
220
0
230
1
0
CIRCLE
5
344
100
AcDbEntity
8
0
100
AcDbCircle
10
606.7814866451082
20
332.02210958698902
30
0
40
0.374
210
0
220
0
230
1
0
CIRCLE
5
345
100
AcDbEntity
8
0
100
AcDbCircle
10
8.3285743806686021
20
-2.1735960252500983
30
0
40
0.091329996700589014
210
0
220
0
230
1
0
LINE
5
346
100
AcDbEntity
8
0
100
AcDbLine
10
603.31482965204793
20
329.48083716873191
30
0
11
602.55233127039673
21
330.28270562912331
31
0
0
CIRCLE
5
347
100
AcDbEntity
8
0
100
AcDbCircle
10
-9.0654605456367428
20
-1.2550101636545843
30
0
40
0.82286620379863329
210
0
220
0
230
1
0
LWPOLYLINE
5
348
100
AcDbEntity
8
0
100
AcDbPolyline
90
4
70
1
43
0.0
10
606.41720544636519
20
335.78348916631012
42
-0.41421356237276202
10
606.49594560384537
20
335.70474900882976
42
-0.41421356237309503
10
606.41720544636507
20
335.62600885134947
42
-0.41421356237309503
10
606.33846528888478
20
335.70474900882971
42
-0.41421356237292856
0
LINE
5
349
100
AcDbEntity
8
0
100
AcDbLine
10
598.51841400510602
20
331.98596000365848
30
0
11
597.66841400510611
21
331.98596000365848
31
0
0
LINE
5
350
100
AcDbEntity
8
0
100
AcDbLine
10
597.66841400510611
20
331.98596000365848
30
0
11
598.51841400510602
21
333.16096000365843
31
0
0
SPLINE
5
351
100
AcDbEntity
8
0
100
AcDbSpline
70
0
71
3
72
14
73
10
74
0
42
0.000000001
43
0.0000000001
44
0.0000000001
40
0
40
0
40
0
40
0
40
94.074213406790932
40
190.22246044394524
40
260.82798094401551
40
305.05722477397285
40
337.93346459869917
40
356.48090088397203
40
372.11344451039531
40
372.11344451039531
40
372.11344451039531
40
372.11344451039531
10
613.8397851758632
20
347.72264885663355
30
0
10
615.07453590401235
20
347.6922980385142
30
0
10
617.57112441420952
20
347.62855689589219
30
0
10
620.97105106742538
20
347.13222049347331
30
0
10
623.61557937425562
20
346.22236881316587
30
0
10
625.22665893467843
20
345.09614788085059
30
0
10
625.97655240342181
20
344.04987980627948
30
0
10
626.21327334643104
20
343.19058928153999
30
0
10
626.23100239668952
20
342.74160517744303
30
0
10
626.23911094889866
20
342.53625796503979
30
0
0
ARC
5
352
100
AcDbEntity
8
0
100
AcDbCircle
10
626.21918409751413
20
334.41519196205132
30
0
40
0.011811023622124038
210
0
220
0
230
1
100
AcDbArc
50
179.99968627681048
51
236.44237651396793
0
SPLINE
5
353
100
AcDbEntity
8
0
100
AcDbSpline
70
0
71
3
72
11
73
7
74
0
42
0.000000001
43
0.0000000001
44
0.0000000001
40
0
40
0
40
0
40
0
40
39.493341781749223
40
98.709185770871045
40
159.57806044535982
40
175.04390341281442
40
175.04390341281442
40
175.04390341281442
40
175.04390341281442
10
592.47583848013358
20
347.10225918445803
30
0
10
592.98463811475972
20
347.2022789335731
30
0
10
594.25657968625478
20
347.45062477065812
30
0
10
596.34673588828014
20
347.63296446173223
30
0
10
598.12405301067372
20
347.69916130684032
30
0
10
599.12551571705126
20
347.72461408150184
30
0
10
599.32841769184131
20
347.72977095675026
30
0
0
ARC
5
354
100
AcDbEntity
8
0
100
AcDbCircle
10
611.10245803318458
20
329.59690493065432
30
0
40
0.87711181865516774
210
0
220
-0
230
1
100
AcDbArc
50
89.348991564969239
51
128.5664972897475
0
LINE
5
355
100
AcDbEntity
8
0
100
AcDbLine
10
601.99555427810219
20
330.47396013212597
30
0
11
601.99557584761601
21
334.41532452822315
31
0
0
LINE
5
356
100
AcDbEntity
8
0
100
AcDbLine
10
597.66841400510611
20
333.16096000365843
30
0
11
598.51841400510602
21
333.16096000365843
31
0
0
ARC
5
357
100
AcDbEntity
8
0
100
AcDbCircle
10
602.0055200192287
20
329.59690493065449
30
0
40
0.87711181865502019
210
0
220
-0
230
1
100
AcDbArc
50
51.433502710253656
51
90.65100843503086
0
ARC
5
358
100
AcDbEntity
8
0
100
AcDbCircle
10
626.18001168712749
20
334.47424729465149
30
0
40
0.059055118110113915
210
-0
220
0
230
1
100
AcDbArc
50
303.55699603801162
51
359.99968627681045
0
ARC
5
359
100
AcDbEntity
8
0
100
AcDbCircle
10
607.15835814356421
20
338.97944183944048
30
0
40
0.078740157480332862
210
0
220
0
230
1
100
AcDbArc
50
180
51
269.99999999991724
0
LINE
5
360
100
AcDbEntity
8
0
100
AcDbLine
10
609.23637140730489
20
329.25021258698899
30
0
11
603.87160664510827
21
329.25021258698899
31
0
0
ARC
5
361
100
AcDbEntity
8
0
100
AcDbCircle
10
607.15835814356421
20
338.97944183944043
30
0
40
0.078740157480288092
210
0
220
0
230
1
100
AcDbArc
50
-90.00000000008275
51
0
0
LWPOLYLINE
5
362
100
AcDbEntity
8
0
100
AcDbPolyline
90
8
70
1
43
0.0
10
603.81390833677756
20
326.42649617558629
42
-0.41421356237309503
10
603.73516817929715
20
326.34775601810594
10
603.69579810055711
20
326.347756018106
42
-0.41421356237292856
10
603.6170579430767
20
326.42649617558629
10
603.61705794307659
20
327.45011822283027
42
-0.41421356237359452
10
603.69579810055711
20
327.52885838031062
10
603.73516817929715
20
327.52885838031062
42
-0.41421356237309503
10
603.81390833677756
20
327.45011822283027
0
LINE
5
363
100
AcDbEntity
8
0
100
AcDbLine
10
599.32841769184131
20
347.72977095675026
30
0
11
603.27749997277795
21
347.72977094491216
31
0
0
LINE
5
364
100
AcDbEntity
8
0
100
AcDbLine
10
598.51841400510602
20
331.98596000365848
30
0
11
597.66841400510611
21
333.16096000365843
31
0
0
LWPOLYLINE
5
365
100
AcDbEntity
8
0
100
AcDbPolyline
90
4
70
1
43
0.0
10
601.86103819090488
20
330.71056341982552
42
-0.41421356237293649
10
601.77836102555057
20
330.62788625447115
42
-0.41421356237309503
10
601.69568386019625
20
330.71056341982552
42
-0.41421356237309503
10
601.77836102555057
20
330.79324058517983
42
-0.41421356237309503
0
ARC
5
366
100
AcDbEntity
8
0
100
AcDbCircle
10
603.87160664510816
20
330.03761416179196
30
0
40
0.78740157480299766
210
0
220
0
230
1
100
AcDbArc
50
224.99999999999125
51
270.00000000000824
0
LWPOLYLINE
5
367
100
AcDbEntity
8
0
100
AcDbPolyline
90
4
70
1
43
0.0
10
595.37952243452344
20
333.13959387970732
42
-0.41421356237309503
10
595.14723896995645
20
333.37187734427431
42
-0.4142135623732644
10
595.37952243452332
20
333.60416080884124
42
-0.41421356237292573
10
595.61180589909031
20
333.37187734427431
42
-0.41421356237315149
0
LWPOLYLINE
5
368
100
AcDbEntity
8
0
100
AcDbPolyline
90
6
70
1
43
0.0
10
604.7095776118465
20
325.56035444330274
10
604.7095776118465
20
328.31625995511371
42
0.41421356236923246
10
604.41430202129925
20
328.61153554566494
42
0.41421356237700202
10
604.11902643074416
20
328.31625995511376
10
604.11902643074416
20
325.56035444330274
42
0.41421356236927687
10
604.41430202129141
20
325.26507885275157
42
0.41421356237691326
0
LWPOLYLINE
5
369
100
AcDbEntity
8
0
100
AcDbPolyline
90
4
70
1
43
0.0
10
601.72551961234944
20
331.41289155544268
42
-0.41421356237369544
10
601.68185018736335
20
331.36922213045636
42
-0.41421356237279483
10
601.63818076237692
20
331.41289155544263
42
-0.41421356237339524
10
601.68185018736324
20
331.45656098042889
42
-0.41421356237309503
0
LINE
5
370
100
AcDbEntity
8
0
100
AcDbLine
10
610.55564677717859
20
330.28270562428537
30
0
11
609.79314840036523
21
329.48083716873191
31
0
0
LWPOLYLINE
5
371
100
AcDbEntity
8
0
100
AcDbPolyline
90
4
70
1
43
0.0
10
601.53421239208762
20
331.71800966318
42
-0.41421356237309503
10
601.68185018736312
20
331.86564745845556
42
-0.41421356237318385
10
601.82948798263885
20
331.71800966317994
42
-0.41421356237300627
10
601.68185018736324
20
331.57037186790438
42
-0.41421356237309503
0
LWPOLYLINE
5
372
100
AcDbEntity
8
0
100
AcDbPolyline
90
4
70
1
43
0.0
10
596.16567503547969
20
333.6042203958703
42
-0.41421356237309503
10
596.39795850004668
20
333.37193693130342
42
-0.41421356237309503
10
596.16567503547969
20
333.13965346673649
42
-0.41421356237309503
10
595.93339157091282
20
333.37193693130342
42
-0.41421356237315149
0
ARC
5
373
100
AcDbEntity
8
0
100
AcDbCircle
10
603.85627580575454
20
335.70426926271085
30
0
40
0.1771653543307751
210
0
220
0
230
1
100
AcDbArc
50
225.01090501917471
51
315.01090501921374
0
ARC
5
374
100
AcDbEntity
8
0
100
AcDbCircle
10
609.23637140730511
20
330.03761416179191
30
0
40
0.78740157480288098
210
0
220
0
230
1
100
AcDbArc
50
269.99999999998346
51
315.00000000000585
0
LINE
5
375
100
AcDbEntity
8
0
100
AcDbLine
10
603.98157264673068
20
335.57901646068018
30
0
11
604.14499174612422
21
335.74249539843134
31
0
0
LINE
5
376
100
AcDbEntity
8
0
100
AcDbLine
10
603.73097714118001
20
335.82952024047529
30
0
11
603.89439611502542
21
335.9929990526324
31
0
0
ARC
5
377
100
AcDbEntity
8
0
100
AcDbCircle
10
592.42313690328388
20
347.0641647015733
30
0
40
0.011811023622127747
210
-0
220
0
230
1
100
AcDbArc
50
278.71915868421075
51
337.10830651722586
0
LWPOLYLINE
5
378
100
AcDbEntity
8
0
100
AcDbPolyline
90
6
70
1
43
0.0
10
601.46531475429242
20
333.46002975421857
42
-0.30369697790646411
10
601.68185018736324
20
333.60491511277911
42
-0.30369697790646411
10
601.89838562043406
20
333.46002975421862
10
601.89838562043406
20
333.28129653433172
42
-0.30369697790646411
10
601.68185018736324
20
333.13641117577123
42
-0.30369697790641592
10
601.46531475429242
20
333.28129653433172
0
ARC
5
379
100
AcDbEntity
8
0
100
AcDbCircle
10
592.50905927457882
20
347.02788434943744
30
0
40
0.081456965742099291
210
0
220
0
230
1
100
AcDbArc
50
114.06874565330628
51
157.1083065175001
0
LINE
5
380
100
AcDbEntity
8
0
100
AcDbLine
10
604.7095776118465
20
325.56035444330274
30
0
11
604.7095776118465
21
328.31625995511371
31
0
0
ARC
5
381
100
AcDbEntity
8
0
100
AcDbCircle
10
592.36911355683981
20
347.01830090230845
30
0
40
0.059055118110195981
210
0
220
-0
230
1
100
AcDbArc
50
40.330010850532737
51
103.26930660943972
0
LINE
5
382
100
AcDbEntity
8
0
100
AcDbLine
10
597.66841400510611
20
331.98596000365848
30
0
11
597.66841400510611
21
333.16096000365843
31
0
0
LINE
5
383
100
AcDbEntity
8
0
100
AcDbLine
10
604.11902643074416
20
328.31625995511376
30
0
11
604.11902643074416
21
325.56035444330274
31
0
0
ARC
5
384
100
AcDbEntity
8
0
100
AcDbCircle
10
603.85627580575454
20
335.70426926271085
30
0
40
0.17716535433074346
210
0
220
0
230
1
100
AcDbArc
50
135.01090501918773
51
225.01090501917471
0
ARC
5
385
100
AcDbEntity
8
0
100
AcDbCircle
10
592.42313690328388
20
347.06416470157313
30
0
40
0.011811023621975468
210
0
220
0
230
1
100
AcDbArc
50
220.33001085012498
51
278.71915868433609
0
LINE
5
386
100
AcDbEntity
8
0
100
AcDbLine
10
590.51094675518289
20
333.16096000365843
30
0
11
591.36094675518291
21
333.16096000365843
31
0
0
LINE
5
387
100
AcDbEntity
8
0
100
AcDbLine
10
591.36094675518291
20
331.98596000365848
30
0
11
590.51094675518289
21
333.16096000365843
31
0
0
CIRCLE
5
388
100
AcDbEntity
8
0
100
AcDbCircle
10
-8.4770947687399811
20
-2.1735960252500983
30
0
40
0.12023358153250041
210
0
220
0
230
1
0
LWPOLYLINE
5
389
100
AcDbEntity
8
0
100
AcDbPolyline
90
4
70
1
43
0.0
10
597.7536517211538
20
330.7097810685238
42
-0.41421356237293649
10
597.67097455579938
20
330.62710390316948
42
-0.41421356237309503
10
597.58829739044506
20
330.7097810685238
42
-0.41421356237309503
10
597.67097455579938
20
330.79245823387816
42
-0.41421356237309503
0
CIRCLE
5
390
100
AcDbEntity
8
0
100
AcDbCircle
10
-8.4770947687399811
20
-0.41282758134555614
30
0
40
0.13143333660840431
210
0
220
0
230
1
0
LINE
5
391
100
AcDbEntity
8
0
100
AcDbLine
10
591.36094675518291
20
333.16096000365843
30
0
11
591.36094675518291
21
331.98596000365848
31
0
0
CIRCLE
5
392
100
AcDbEntity
8
0
100
AcDbCircle
10
-8.4770947687399811
20
-0.41282758134555614
30
0
40
0.13143333660840431
210
0
220
0
230
1
0
LINE
5
393
100
AcDbEntity
8
0
100
AcDbLine
10
590.51094675518289
20
331.98596000365848
30
0
11
591.36094675518291
21
333.16096000365843
31
0
0
CIRCLE
5
394
100
AcDbEntity
8
0
100
AcDbCircle
10
-8.4770947687399811
20
-0.41282758134555614
30
0
40
0.13143333660840431
210
0
220
0
230
1
0
LINE
5
395
100
AcDbEntity
8
0
100
AcDbLine
10
586.90041811544017
20
334.41540713799509
30
0
11
626.2073730738922
21
334.41519202672276
31
0
0
ARC
5
396
100
AcDbEntity
8
0
100
AcDbCircle
10
586.92777370515796
20
334.35637232097707
30
0
40
0.059034817616890035
210
0
220
0
230
1
100
AcDbArc
50
123.5622604675787
51
180.51833177905843
0
ARC
5
397
100
AcDbEntity
8
0
100
AcDbCircle
10
586.88860709181824
20
334.41540713799509
30
0
40
0.011811023622076974
210
-0
220
0
230
1
100
AcDbArc
50
-56.437739532775879
51
0
0
ARC
5
398
100
AcDbEntity
8
0
100
AcDbCircle
10
586.88860709181824
20
334.41540713799509
30
0
40
0.011811023622036501
210
-0
220
0
230
1
100
AcDbArc
50
0
51
56.437739532775907
0
LINE
5
399
100
AcDbEntity
8
0
100
AcDbLine
10
586.86874130325589
20
334.47497601188286
30
0
11
586.8687270576944
21
342.53601675608718
31
0
0
ARC
5
400
100
AcDbEntity
8
0
100
AcDbCircle
10
586.92767847476728
20
330.53301526489025
30
0
40
0.059055118109817104
210
0
220
0
230
1
100
AcDbArc
50
224.99911609059677
51
269.99999994440884
0
LINE
5
401
100
AcDbEntity
8
0
100
AcDbLine
10
586.86862335668548
20
330.53301708693493
30
0
11
586.86874130325589
21
334.35583826410726
31
0
0
ARC
5
402
100
AcDbEntity
8
0
100
AcDbCircle
10
586.92767847476739
20
330.53301526489037
30
0
40
0.059055118110003108
210
0
220
0
230
1
100
AcDbArc
50
179.99823223676984
51
224.99911609059677
0
ARC
5
403
100
AcDbEntity
8
0
100
AcDbCircle
10
586.92777370515785
20
334.47444195501311
30
0
40
0.05903481761688633
210
0
220
0
230
1
100
AcDbArc
50
179.48166822099574
51
236.43773953251323
0
ARC
5
404
100
AcDbEntity
8
0
100
AcDbCircle
10
6.1641296418025462
20
-6.9882727440997092
30
0
40
0.039370078740121668
210
0
220
0
230
1
100
AcDbArc
50
180
51
270.00000257593877
0
LINE
5
405
100
AcDbEntity
8
0
100
AcDbLine
10
601.99555427810219
20
330.47396013212597
30
0
11
586.92767847470998
21
330.47396014678037
31
0
0
LINE
5
406
100
AcDbEntity
8
0
100
AcDbLine
10
6.2321216657353462
20
-6.9882727428129447
30
0
11
6.2321216657352574
21
-5.3347294370130776
31
0
0
LINE
5
407
100
AcDbEntity
8
0
100
AcDbLine
10
6.1247595578507337
20
-5.3347294357263122
30
0
11
6.1247595578507337
21
-6.9882727440996648
31
0
0
LWPOLYLINE
5
408
100
AcDbEntity
8
0
100
AcDbPolyline
90
4
70
1
43
0.0
10
616.80914853640286
20
334.69242614537103
42
-0.41421356237309503
10
616.88788869388316
20
334.61368598789073
42
-0.41421356237309503
10
616.80914853640286
20
334.53494583041032
42
-0.41421356237259555
10
616.73040837892256
20
334.61368598789073
42
-0.41421356237276202
0
LWPOLYLINE
5
409
100
AcDbEntity
8
0
100
AcDbPolyline
90
4
70
1
43
0.0
10
616.41348016709048
20
334.69242614537103
42
-0.41421356237326151
10
616.49222032457089
20
334.61368598789079
42
-0.41421356237309503
10
616.4134801670906
20
334.53494583041044
42
-0.41421356237309503
10
616.3347400096103
20
334.61368598789079
42
-0.41421356237309503
0
LWPOLYLINE
5
410
100
AcDbEntity
8
0
100
AcDbPolyline
90
4
70
1
43
0.0
10
614.09701748552629
20
337.94217887583176
42
-0.41421356237259555
10
614.01827732804611
20
337.86343871835146
42
-0.41421356237342799
10
613.9395371705657
20
337.9421788758317
42
-0.41421356237309503
10
614.01827732804611
20
338.02091903331205
42
-0.41421356237326151
0
LWPOLYLINE
5
411
100
AcDbEntity
8
0
100
AcDbPolyline
90
4
70
1
43
0.0
10
614.09701748552641
20
337.55202338771414
42
-0.41421356237309503
10
614.01827732804611
20
337.47328323023379
42
-0.41421356237309503
10
613.9395371705657
20
337.55202338771414
42
-0.41421356237342799
10
614.01827732804611
20
337.63076354519438
42
-0.41421356237309503
0
CIRCLE
5
412
100
AcDbEntity
8
0
100
AcDbCircle
10
8.9345394543632555
20
-1.2550101636545843
30
0
40
0.38784909414957697
210
0
220
0
230
1
0
CIRCLE
5
413
100
AcDbEntity
8
0
100
AcDbCircle
10
8.9345394543632555
20
-1.2550101636545843
30
0
40
0.38784909414957697
210
0
220
0
230
1
0
CIRCLE
5
414
100
AcDbEntity
8
0
100
AcDbCircle
10
8.9345394543632555
20
-1.2550101636545843
30
0
40
0.38784909414957697
210
0
220
0
230
1
0
CIRCLE
5
415
100
AcDbEntity
8
0
100
AcDbCircle
10
9.5229052312600171
20
-0.41282758134555614
30
0
40
0.13143333660840431
210
0
220
0
230
1
0
CIRCLE
5
416
100
AcDbEntity
8
0
100
AcDbCircle
10
9.5229052312600171
20
-2.1735960252500983
30
0
40
0.12023358153250041
210
0
220
0
230
1
0
CIRCLE
5
417
100
AcDbEntity
8
0
100
AcDbCircle
10
9.5229052312600171
20
-2.1735960252500983
30
0
40
0.12023358153250041
210
0
220
0
230
1
0
CIRCLE
5
418
100
AcDbEntity
8
0
100
AcDbCircle
10
9.5229052312600171
20
-2.1735960252500983
30
0
40
0.12023358153250041
210
0
220
0
230
1
0
CIRCLE
5
419
100
AcDbEntity
8
0
100
AcDbCircle
10
9.5229052312600171
20
-0.41282758134555614
30
0
40
0.13143333660840431
210
0
220
0
230
1
0
LINE
5
420
100
AcDbEntity
8
0
100
AcDbLine
10
616.66340278493703
20
337.74689412667539
30
0
11
616.66338455214725
21
334.41524425716176
31
0
0
CIRCLE
5
421
100
AcDbEntity
8
0
100
AcDbCircle
10
9.5229052312600171
20
-0.41282758134555614
30
0
40
0.13143333660840431
210
0
220
0
230
1
0
CIRCLE
5
422
100
AcDbEntity
8
0
100
AcDbCircle
10
8.3285743806686021
20
-0.41282758134555614
30
0
40
0.12744734153002224
210
0
220
0
230
1
0
LINE
5
423
100
AcDbEntity
8
0
100
AcDbLine
10
616.66340278493703
20
337.74689412667539
30
0
11
613.80902585397462
21
337.74689412667533
31
0
0
CIRCLE
5
424
100
AcDbEntity
8
0
100
AcDbCircle
10
8.9345394543632555
20
-1.2550101636545843
30
0
40
0.82286620379863329
210
0
220
0
230
1
0
CIRCLE
5
425
100
AcDbEntity
8
0
100
AcDbCircle
10
8.3285743806686021
20
-2.1735960252500983
30
0
40
0.091329996700589014
210
0
220
0
230
1
0
CIRCLE
5
426
100
AcDbEntity
8
0
100
AcDbCircle
10
8.3285743806686021
20
-2.1735960252500983
30
0
40
0.091329996700589014
210
0
220
0
230
1
0
LINE
5
427
100
AcDbEntity
8
0
100
AcDbLine
10
626.23911094889866
20
342.53625796503979
30
0
11
626.2390668052368
21
334.47424697129441
31
0
0
ENDSEC
0
SECTION
2
OBJECTS
0
DICTIONARY
5
C
100
AcDbDictionary
3
ACAD_GROUP
350
D
3
ACAD_MLINESTYLE
350
17
0
DICTIONARY
5
D
100
AcDbDictionary
0
DICTIONARY
5
1A
330
C
100
AcDbDictionary
0
DICTIONARY
5
17
100
AcDbDictionary
0
ENDSEC
0
EOF
