0
SECTION
2
HEADER
9
$INSUNITS
70
1
9
$ACADVER
1
AC1014
9
$HANDSEED
5
FFFF
0
ENDSEC
0
SECTION
2
TABLES
0
TABLE
2
VPORT
5
8
100
AcDbSymbolTable
0
ENDTAB
0
TABLE
2
LTYPE
5
5
100
AcDbSymbolTable
0
LTYPE
5
14
100
AcDbSymbolTableRecord
100
AcDbLinetypeTableRecord
2
BYBLOCK
70
0
0
LTYPE
5
15
100
AcDbSymbolTableRecord
100
AcDbLinetypeTableRecord
2
BYLAYER
70
0
0
ENDTAB
0
TABLE
2
LAYER
5
2
100
AcDbSymbolTable
70
2
0
LAYER
5
50
100
AcDbSymbolTableRecord
100
AcDbLayerTableRecord
2
0
70
0
6
CONTINUOUS
0
ENDTAB
0
TABLE
2
STYLE
5
3
100
AcDbSymbolTable
70
1
0
STYLE
5
11
100
AcDbSymbolTableRecord
100
AcDbTextStyleTableRecord
2
STANDARD
70
0
0
ENDTAB
0
TABLE
2
VIEW
5
6
100
AcDbSymbolTable
70
0
0
ENDTAB
0
TABLE
2
UCS
5
7
100
AcDbSymbolTable
70
0
0
ENDTAB
0
TABLE
2
APPID
5
9
100
AcDbSymbolTable
70
2
0
APPID
5
12
100
AcDbSymbolTableRecord
100
AcDbRegAppTableRecord
2
ACAD
70
0
0
ENDTAB
0
TABLE
2
DIMSTYLE
5
A
100
AcDbSymbolTable
70
1
0
ENDTAB
0
TABLE
2
BLOCK_RECORD
5
1
100
AcDbSymbolTable
70
1
0
BLOCK_RECORD
5
1F
100
AcDbSymbolTableRecord
100
AcDbBlockTableRecord
2
*MODEL_SPACE
0
BLOCK_RECORD
5
1B
100
AcDbSymbolTableRecord
100
AcDbBlockTableRecord
2
*PAPER_SPACE
0
ENDTAB
0
ENDSEC
0
SECTION
2
BLOCKS
0
BLOCK
5
20
100
AcDbEntity
100
AcDbBlockBegin
2
*MODEL_SPACE
0
ENDBLK
5
21
100
AcDbEntity
100
AcDbBlockEnd
0
BLOCK
5
1C
100
AcDbEntity
100
AcDbBlockBegin
2
*PAPER_SPACE
0
ENDBLK
5
1D
100
AcDbEntity
100
AcDbBlockEnd
0
ENDSEC
0
SECTION
2
ENTITIES
0
CIRCLE
5
100
100
AcDbEntity
8
0
100
AcDbCircle
10
-9.0654605456367428
20
-1.2550101636545843
30
0
40
0.82286620379863329
210
0
220
0
230
1
0
CIRCLE
5
101
100
AcDbEntity
8
0
100
AcDbCircle
10
-9.0654605456367428
20
-1.2550101636545843
30
0
40
0.38784909414957697
210
0
220
0
230
1
0
CIRCLE
5
102
100
AcDbEntity
8
0
100
AcDbCircle
10
-9.6714256193313961
20
-0.41282758134555614
30
0
40
0.12744734153002224
210
0
220
0
230
1
0
CIRCLE
5
103
100
AcDbEntity
8
0
100
AcDbCircle
10
-8.4770947687399811
20
-0.41282758134555614
30
0
40
0.13143333660840431
210
0
220
0
230
1
0
CIRCLE
5
104
100
AcDbEntity
8
0
100
AcDbCircle
10
-8.4770947687399811
20
-2.1735960252500983
30
0
40
0.12023358153250041
210
0
220
0
230
1
0
CIRCLE
5
105
100
AcDbEntity
8
0
100
AcDbCircle
10
-9.6714256193313961
20
-2.1735960252500983
30
0
40
0.091329996700589014
210
0
220
0
230
1
0
CIRCLE
5
106
100
AcDbEntity
8
0
100
AcDbCircle
10
-9.0654605456367428
20
-1.2550101636545843
30
0
40
0.38784909414957697
210
0
220
0
230
1
0
CIRCLE
5
107
100
AcDbEntity
8
0
100
AcDbCircle
10
-8.4770947687399811
20
-0.41282758134555614
30
0
40
0.13143333660840431
210
0
220
0
230
1
0
CIRCLE
5
108
100
AcDbEntity
8
0
100
AcDbCircle
10
-8.4770947687399811
20
-2.1735960252500983
30
0
40
0.12023358153250041
210
0
220
0
230
1
0
CIRCLE
5
109
100
AcDbEntity
8
0
100
AcDbCircle
10
-9.0654605456367428
20
-1.2550101636545843
30
0
40
0.82286620379863329
210
0
220
0
230
1
0
CIRCLE
5
110
100
AcDbEntity
8
0
100
AcDbCircle
10
-9.6714256193313961
20
-0.41282758134555614
30
0
40
0.12744734153002224
210
0
220
0
230
1
0
CIRCLE
5
111
100
AcDbEntity
8
0
100
AcDbCircle
10
-9.6714256193313961
20
-2.1735960252500983
30
0
40
0.091329996700589014
210
0
220
0
230
1
0
CIRCLE
5
112
100
AcDbEntity
8
0
100
AcDbCircle
10
-9.0654605456367428
20
-1.2550101636545843
30
0
40
0.38784909414957697
210
0
220
0
230
1
0
CIRCLE
5
113
100
AcDbEntity
8
0
100
AcDbCircle
10
-8.4770947687399811
20
-0.41282758134555614
30
0
40
0.13143333660840431
210
0
220
0
230
1
0
CIRCLE
5
114
100
AcDbEntity
8
0
100
AcDbCircle
10
-8.4770947687399811
20
-2.1735960252500983
30
0
40
0.12023358153250041
210
0
220
0
230
1
0
CIRCLE
5
115
100
AcDbEntity
8
0
100
AcDbCircle
10
-9.0654605456367428
20
-1.2550101636545843
30
0
40
0.82286620379863329
210
0
220
0
230
1
0
CIRCLE
5
116
100
AcDbEntity
8
0
100
AcDbCircle
10
-9.6714256193313961
20
-0.41282758134555614
30
0
40
0.12744734153002224
210
0
220
0
230
1
0
CIRCLE
5
117
100
AcDbEntity
8
0
100
AcDbCircle
10
-9.6714256193313961
20
-2.1735960252500983
30
0
40
0.091329996700589014
210
0
220
0
230
1
0
CIRCLE
5
118
100
AcDbEntity
8
0
100
AcDbCircle
10
9.5229052312600171
20
-2.1735960252500983
30
0
40
0.12023358153250041
210
0
220
0
230
1
0
CIRCLE
5
119
100
AcDbEntity
8
0
100
AcDbCircle
10
8.9345394543632555
20
-1.2550101636545843
30
0
40
0.38784909414957697
210
0
220
0
230
1
0
CIRCLE
5
120
100
AcDbEntity
8
0
100
AcDbCircle
10
8.3285743806686021
20
-2.1735960252500983
30
0
40
0.091329996700589014
210
0
220
0
230
1
0
CIRCLE
5
121
100
AcDbEntity
8
0
100
AcDbCircle
10
8.3285743806686021
20
-2.1735960252500983
30
0
40
0.091329996700589014
210
0
220
0
230
1
0
CIRCLE
5
122
100
AcDbEntity
8
0
100
AcDbCircle
10
8.9345394543632555
20
-1.2550101636545843
30
0
40
0.82286620379863329
210
0
220
0
230
1
0
CIRCLE
5
123
100
AcDbEntity
8
0
100
AcDbCircle
10
8.3285743806686021
20
-0.41282758134555614
30
0
40
0.12744734153002224
210
0
220
0
230
1
0
CIRCLE
5
124
100
AcDbEntity
8
0
100
AcDbCircle
10
8.9345394543632555
20
-1.2550101636545843
30
0
40
0.38784909414957697
210
0
220
0
230
1
0
CIRCLE
5
125
100
AcDbEntity
8
0
100
AcDbCircle
10
8.3285743806686021
20
-0.41282758134555614
30
0
40
0.12744734153002224
210
0
220
0
230
1
0
CIRCLE
5
126
100
AcDbEntity
8
0
100
AcDbCircle
10
9.5229052312600171
20
-2.1735960252500983
30
0
40
0.12023358153250041
210
0
220
0
230
1
0
CIRCLE
5
127
100
AcDbEntity
8
0
100
AcDbCircle
10
8.9345394543632555
20
-1.2550101636545843
30
0
40
0.82286620379863329
210
0
220
0
230
1
0
CIRCLE
5
128
100
AcDbEntity
8
0
100
AcDbCircle
10
8.3285743806686021
20
-0.41282758134555614
30
0
40
0.12744734153002224
210
0
220
0
230
1
0
CIRCLE
5
129
100
AcDbEntity
8
0
100
AcDbCircle
10
9.5229052312600171
20
-0.41282758134555614
30
0
40
0.13143333660840431
210
0
220
0
230
1
0
CIRCLE
5
130
100
AcDbEntity
8
0
100
AcDbCircle
10
9.5229052312600171
20
-0.41282758134555614
30
0
40
0.13143333660840431
210
0
220
0
230
1
0
CIRCLE
5
131
100
AcDbEntity
8
0
100
AcDbCircle
10
9.5229052312600171
20
-0.41282758134555614
30
0
40
0.13143333660840431
210
0
220
0
230
1
0
CIRCLE
5
132
100
AcDbEntity
8
0
100
AcDbCircle
10
8.9345394543632555
20
-1.2550101636545843
30
0
40
0.82286620379863329
210
0
220
0
230
1
0
CIRCLE
5
133
100
AcDbEntity
8
0
100
AcDbCircle
10
8.3285743806686021
20
-2.1735960252500983
30
0
40
0.091329996700589014
210
0
220
0
230
1
0
CIRCLE
5
134
100
AcDbEntity
8
0
100
AcDbCircle
10
9.5229052312600171
20
-2.1735960252500983
30
0
40
0.12023358153250041
210
0
220
0
230
1
0
CIRCLE
5
135
100
AcDbEntity
8
0
100
AcDbCircle
10
8.9345394543632555
20
-1.2550101636545843
30
0
40
0.38784909414957697
210
0
220
0
230
1
0
CIRCLE
5
136
100
AcDbEntity
8
0
100
AcDbCircle
10
10.44003123911434
20
-5.1601299880105369
30
0
40
0.1000000000000001
210
0
220
0
230
1
0
CIRCLE
5
137
100
AcDbEntity
8
0
100
AcDbCircle
10
10.44003123911434
20
-6.6061548597750406
30
0
40
0.10000000000000052
210
0
220
0
230
1
0
LINE
5
138
100
AcDbEntity
8
0
100
AcDbLine
10
6.1927515939767606
20
-7.027642821553111
30
0
11
6.1641296435725703
21
-7.0276428228398311
31
0
0
LWPOLYLINE
5
139
100
AcDbEntity
8
0
100
AcDbPolyline
90
4
70
1
43
0.0
10
5.8953521360671051
20
-5.0601856925230475
42
-0.41421356237309503
10
5.9839348132324686
20
-5.1487683696883666
42
-0.41421356237339102
10
5.8953521360671051
20
-5.2373510468538189
42
-0.41421356237309503
10
5.8067694589017425
20
-5.148768369688411
42
-0.41421356237309503
0
ARC
5
140
100
AcDbEntity
8
0
100
AcDbCircle
10
6.1927515922068261
20
-6.9882727428128995
30
0
40
0.039370078740211228
210
-0
220
0
230
1
100
AcDbArc
50
270.0000025758082
51
360
0
LWPOLYLINE
5
141
100
AcDbEntity
8
0
100
AcDbPolyline
90
4
70
1
43
0.0
10
5.8064129422231012
20
-7.174232765013751
42
-0.41421356237309503
10
5.8949956193884647
20
-7.0856500878482978
42
-0.41421356237279905
10
5.9835782965538282
20
-7.1742327650137057
42
-0.41421356237309503
10
5.8949956193884647
20
-7.2628154421790692
42
-0.41421356237309503
0
LWPOLYLINE
5
142
100
AcDbEntity
8
0
100
AcDbPolyline
90
11
70
1
43
0.0
10
6.7331845872425529
20
-6.6346083807497136
10
6.7331846245653155
20
-6.1615005556574047
10
6.5578305043543432
20
-6.1615005635406028
42
-0.41421352925879712
10
6.5184604238442878
20
-6.1221304910215677
10
6.5184602807743257
20
-5.2167137377281732
10
6.9479088030115994
20
-5.2167137329015398
10
6.9479088030115994
20
-7.0669183633577273
42
-0.41421354920569292
10
6.9085387260414119
20
-7.1062884420978492
10
6.879916775637132
20
-7.1062884433845692
42
-0.41421357554049726
10
6.8405466951270766
20
-7.0669183646444473
10
6.8405466951270766
20
-6.6346083759231256
0
LINE
5
143
100
AcDbEntity
8
0
100
AcDbLine
10
6.1927515832476772
20
-5.2953593582729113
30
0
11
6.1641296328433972
21
-5.2953593569861912
31
0
0
ARC
5
144
100
AcDbEntity
8
0
100
AcDbCircle
10
6.1641296310734628
20
-5.3347294357263575
30
0
40
0.039370078740166466
210
0
220
-0
230
1
100
AcDbArc
50
89.99999742419179
51
180
0
LINE
5
145
100
AcDbEntity
8
0
100
AcDbLine
10
6.2321216657353462
20
-6.9882727428129447
30
0
11
6.2321216657352574
21
-5.3347294370130776
31
0
0
LWPOLYLINE
5
146
100
AcDbEntity
8
0
100
AcDbPolyline
90
4
70
1
43
0.0
10
7.352701833627548
20
-7.2628154421791589
42
-0.41421356237309503
10
7.2641191564621845
20
-7.1742327650138407
42
-0.4142135623729471
10
7.352701833627548
20
-7.0856500878484772
42
-0.41421356237309503
10
7.4412845107929106
20
-7.1742327650137954
42
-0.41421356237309503
0
ARC
5
147
100
AcDbEntity
8
0
100
AcDbCircle
10
6.1641296418025462
20
-6.9882727440997092
30
0
40
0.039370078740121668
210
0
220
0
230
1
100
AcDbArc
50
180
51
270.00000257593877
0
LWPOLYLINE
5
148
100
AcDbEntity
8
0
100
AcDbPolyline
90
4
70
1
43
0.0
10
7.3524387502402524
20
-5.2373510468538642
42
-0.41421356237309503
10
7.2638560730748898
20
-5.1487683696884554
42
-0.41421356237353901
10
7.3524387502402524
20
-5.0601856925231816
42
-0.41421356237309503
10
7.4410214274056159
20
-5.1487683696885007
42
-0.41421356237309503
0
LINE
5
149
100
AcDbEntity
8
0
100
AcDbLine
10
6.1247595578507337
20
-5.3347294357263122
30
0
11
6.1247595578507337
21
-6.9882727440996648
31
0
0
ARC
5
150
100
AcDbEntity
8
0
100
AcDbCircle
10
6.1927515814776539
20
-5.334729437013122
30
0
40
0.039370078740211187
210
0
220
-0
230
1
100
AcDbArc
50
0
51
89.999997424062528
0
SPLINE
5
151
100
AcDbEntity
8
0
100
AcDbSpline
70
0
71
3
72
15
73
11
74
0
42
0.000000001
43
0.0000000001
44
0.0000000001
40
0
40
0
40
0
40
0
40
16.98343887071087
40
35.853742041514124
40
73.123849678033821
40
101.54932196433083
40
132.58042561947377
40
156.27904721985988
40
175.72385219782836
40
195.78342590117893
40
195.78342590117893
40
195.78342590117893
40
195.78342590117893
10
-19.685261968512137
20
4.0474755126971678
30
0
10
-19.676024302372937
20
4.2707142221358954
30
0
10
-19.656522663079453
20
4.7419935173850689
30
0
10
-19.376553862506118
20
5.6734271739509579
30
0
10
-18.668147281045538
20
6.5720798889102978
30
0
10
-17.642603154799655
20
7.3270080459027618
30
0
10
-16.665359689395018
20
7.823318322085858
30
0
10
-15.753398714279617
20
8.1658092459831568
30
0
10
-14.959047433590719
20
8.4064935165467727
30
0
10
-14.454697797679913
20
8.5268039867754197
30
0
10
-14.198430294459822
20
8.5872381217693885
30
0
0
LWPOLYLINE
5
152
100
AcDbEntity
8
0
100
AcDbPolyline
90
4
70
1
43
0.0
10
7.5469665488339865
20
-7.7783372680841225
42
-0.41421356237309503
10
7.4642893834796862
20
-7.8610144334384682
42
-0.41421356237309503
10
7.3816122181253858
20
-7.7783372680841225
42
-0.41421356237309503
10
7.4642893834796862
20
-7.6956601027297333
42
-0.41421356237325357
0
LWPOLYLINE
5
153
100
AcDbEntity
8
0
100
AcDbPolyline
90
4
70
1
43
0.0
10
13.458643265783314
20
-7.6960830095118116
42
-0.41421356237309503
10
13.54132043113766
20
-7.7787601748661563
42
-0.41421356237309503
10
13.458643265783314
20
-7.8614373402205011
42
-0.41421356237309503
10
13.375966100429014
20
-7.7787601748661563
42
-0.41421356237325357
0
LWPOLYLINE
5
154
100
AcDbEntity
8
0
100
AcDbPolyline
90
4
70
1
43
0.0
10
-19.535675395056249
20
-7.7787601748661119
42
-0.41421356237309503
10
-19.452998229701905
20
-7.6960830095117663
42
-0.41421356237325357
10
-19.370321064347561
20
-7.7787601748661563
42
-0.41421356237309503
10
-19.452998229701905
20
-7.8614373402204567
42
-0.41421356237309503
0
ARC
5
155
100
AcDbEntity
8
0
100
AcDbCircle
10
7.1853591282556257
20
-5.196324579832762
30
0
40
0.039370078740345642
210
-0
220
0
230
1
100
AcDbArc
50
270.00000551404224
51
315.00903445804926
0
ARC
5
156
100
AcDbEntity
8
0
100
AcDbCircle
10
7.1853591282558948
20
-5.1963245798330311
30
0
40
0.039370078739975001
210
-0
220
0
230
1
100
AcDbArc
50
-44.990965541950608
51
0.018063402382414547
0
ARC
5
157
100
AcDbEntity
8
0
100
AcDbCircle
10
7.1661955856922113
20
9.1821752905494698
30
0
40
0.0590551179192546
210
0
220
-0
230
1
100
AcDbArc
50
24.400499490195998
51
90.000000184991094
0
ARC
5
158
100
AcDbEntity
8
0
100
AcDbCircle
10
7.2271466131179816
20
9.2098245435084838
30
0
40
0.0078740157479942532
210
0
220
0
230
1
100
AcDbArc
50
204.40049949000166
51
266.55863892223903
0
LINE
5
159
100
AcDbEntity
8
0
100
AcDbLine
10
7.2226446721226312
20
8.311808000212519
30
0
11
7.2225698959991709
21
9.2743438054709504
31
0
0
LWPOLYLINE
5
160
100
AcDbEntity
8
0
100
AcDbPolyline
90
4
70
1
43
0.0
10
-14.325082978441298
20
-7.6960830095118116
42
-0.41421356237309503
10
-14.242405813086954
20
-7.7787601748661563
42
-0.41421356237309503
10
-14.325082978441298
20
-7.8614373402205011
42
-0.41421356237309503
10
-14.407760143795644
20
-7.7787601748661563
42
-0.41421356237309503
0
ARC
5
161
100
AcDbEntity
8
0
100
AcDbCircle
10
7.2843449823272657
20
9.1750703276658001
30
0
40
0.059055118110388806
210
0
220
-0
230
1
100
AcDbArc
50
88.591923341695264
51
148.7167783540965
0
CIRCLE
5
162
100
AcDbEntity
8
0
100
AcDbCircle
10
-4.7756280006560123
20
-4.3102155264404063
30
0
40
0.082500000000000004
210
0
220
0
230
1
0
ARC
5
163
100
AcDbEntity
8
0
100
AcDbCircle
10
7.2271466131179816
20
9.2098245435085726
30
0
40
0.0078740157481064985
210
0
220
0
230
1
100
AcDbArc
50
266.55863892227785
51
328.71677835361032
0
CIRCLE
5
164
100
AcDbEntity
8
0
100
AcDbCircle
10
-18.383111623059243
20
-7.6912077108579879
30
0
40
0.082500000000000004
210
0
220
0
230
1
0
LINE
5
165
100
AcDbEntity
8
0
100
AcDbLine
10
-18.383111623059243
20
-7.6912077108579879
30
0
11
-16.904359523059199
21
-4.4912077108579709
31
0
0
LINE
5
166
100
AcDbEntity
8
0
100
AcDbLine
10
-16.904359523059199
20
-7.6912077108579879
30
0
11
-18.383111623059243
21
-4.4912077108579709
31
0
0
LINE
5
167
100
AcDbEntity
8
0
100
AcDbLine
10
-17.269410157351953
20
-5.8300657432655454
30
0
11
-17.558719969491719
21
-5.5407559311257808
31
0
0
ARC
5
168
100
AcDbEntity
8
0
100
AcDbCircle
10
-17.643735573059221
20
-5.9150813468330465
30
0
40
0.3838582677165559
210
-0
220
0
230
1
100
AcDbArc
50
-45.000000001384123
51
12.795772494637948
0
LINE
5
169
100
AcDbEntity
8
0
100
AcDbLine
10
-18.383111623059243
20
-7.6912077108579879
30
0
11
-18.383111623059243
21
-4.4912077108579709
31
0
0
LINE
5
170
100
AcDbEntity
8
0
100
AcDbLine
10
-16.904359523059199
20
-4.4912077108579709
30
0
11
-16.904359523059199
21
-7.6912077108579879
31
0
0
LINE
5
171
100
AcDbEntity
8
0
100
AcDbLine
10
-18.383111623059243
20
-4.4912077108579709
30
0
11
-16.904359523059199
21
-4.4912077108579709
31
0
0
LINE
5
172
100
AcDbEntity
8
0
100
AcDbLine
10
-16.904359523059199
20
-7.6912077108579879
30
0
11
-18.383111623059243
21
-7.6912077108579879
31
0
0
LINE
5
173
100
AcDbEntity
8
0
100
AcDbLine
10
-18.018060988766486
20
-6.000096950400458
30
0
11
-17.728751176626723
21
-6.2894067625402688
31
0
0
ARC
5
174
100
AcDbEntity
8
0
100
AcDbCircle
10
-17.643735573059221
20
-5.9150813468330021
30
0
40
0.38385826771652426
210
0
220
0
230
1
100
AcDbArc
50
134.99999999999991
51
192.79577249602198
0
CIRCLE
5
175
100
AcDbEntity
8
0
100
AcDbCircle
10
-16.904359523059199
20
-7.6912077108579879
30
0
40
0.082500000000000004
210
0
220
0
230
1
0
ARC
5
176
100
AcDbEntity
8
0
100
AcDbCircle
10
-17.643735573059221
20
-5.9150813468330918
30
0
40
0.38385826771651893
210
0
220
0
230
1
100
AcDbArc
50
257.2042275025857
51
314.99999999862064
0
ARC
5
177
100
AcDbEntity
8
0
100
AcDbCircle
10
-17.643735573059221
20
-5.9150813468330465
30
0
40
0.38385826771656789
210
0
220
-0
230
1
100
AcDbArc
50
77.204227503971296
51
134.99999999999523
0
LINE
5
178
100
AcDbEntity
8
0
100
AcDbLine
10
-3.1583944852034107
20
9.2412302397561472
30
0
11
0.78702829759198867
21
9.2376056218911771
31
0
0
CIRCLE
5
179
100
AcDbEntity
8
0
100
AcDbCircle
10
-18.383111623059243
20
-4.4912077108579709
30
0
40
0.082500000000000004
210
0
220
0
230
1
0
CIRCLE
5
180
100
AcDbEntity
8
0
100
AcDbCircle
10
-16.904359523059199
20
-4.4912077108579709
30
0
40
0.082500000000000004
210
0
220
0
230
1
0
ARC
5
181
100
AcDbEntity
8
0
100
AcDbCircle
10
0.84399339055480804
20
9.2136713534251502
30
0
40
0.0078740157480243333
210
-0
220
0
230
1
100
AcDbArc
50
270.00000005080716
51
331.92751309356731
0
ARC
5
182
100
AcDbEntity
8
0
100
AcDbCircle
10
-3.217428489527741
20
9.2136617208950611
30
0
40
0.0078648432543995707
210
0
220
0
230
1
100
AcDbArc
50
269.9603567223628
51
331.9673932369567
0
ARC
5
183
100
AcDbEntity
8
0
100
AcDbCircle
10
-3.2174339941791654
20
9.213670895270953
30
0
40
0.007874015747982837
210
0
220
0
230
1
100
AcDbArc
50
208.07270789487237
51
270.00045785461924
0
ARC
5
184
100
AcDbEntity
8
0
100
AcDbCircle
10
0.84399339055480804
20
9.2136713534251946
30
0
40
0.0078740157480407681
210
0
220
0
230
1
100
AcDbArc
50
208.60583157501208
51
270.00000005080716
0
ARC
5
185
100
AcDbEntity
8
0
100
AcDbCircle
10
0.90304850850600804
20
9.1821752905571241
30
0
40
0.059055117911543852
210
0
220
-0
230
1
100
AcDbArc
50
89.999999807192253
51
151.92751309385116
0
ARC
5
186
100
AcDbEntity
8
0
100
AcDbCircle
10
-3.2764889556198442
20
9.1821746233119743
30
0
40
0.059055078210280269
210
0
220
-0
230
1
100
AcDbArc
50
28.072707894710557
51
90.000094895010875
0
LINE
5
187
100
AcDbEntity
8
0
100
AcDbLine
10
0.8453906640441553
20
8.3799115732044189
30
0
11
0.8453906640441553
21
9.2375520050070445
31
0
0
ARC
5
188
100
AcDbEntity
8
0
100
AcDbCircle
10
-3.1583788293042154
20
9.1821753048361447
30
0
40
0.059054936995248559
210
0
220
0
230
1
100
AcDbArc
50
90.01518953375485
51
151.92796841839228
0
ARC
5
189
100
AcDbEntity
8
0
100
AcDbCircle
10
0.78703427499490985
20
9.1785505040830699
30
0
40
0.059055118110629294
210
0
220
-0
230
1
100
AcDbArc
50
32.064631541818343
51
90.005799327329711
0
LINE
5
190
100
AcDbEntity
8
0
100
AcDbLine
10
0
20
9.2383286564009577
30
0
11
0
21
-8.638328656400958
31
0
0
LINE
5
191
100
AcDbEntity
8
0
100
AcDbLine
10
0.90304850870473619
20
9.2412304084686667
30
0
11
7.1661955855015398
21
9.2412304084687129
31
0
0
LINE
5
192
100
AcDbEntity
8
0
100
AcDbLine
10
19.62600108058848
20
-8.0145811347850167
30
0
11
4.558434745247161
21
-8.0145811201308277
31
0
0
ARC
5
193
100
AcDbEntity
8
0
100
AcDbCircle
10
19.62600108064586
20
-7.9555260166749679
30
0
40
0.059055118110048231
210
0
220
0
230
1
100
AcDbArc
50
269.99999994432955
51
359.99968627681045
0
LINE
5
194
100
AcDbEntity
8
0
100
AcDbLine
10
19.685077132315854
20
-4.1324045083143126
30
0
11
19.68505619875506
21
-7.9555263400319784
31
0
0
ARC
5
195
100
AcDbEntity
8
0
100
AcDbCircle
10
19.665195071307359
20
-4.0733492813386434
30
0
40
0.011811023621990657
210
0
220
0
230
1
100
AcDbArc
50
123.5569960376928
51
179.99968627681048
0
LWPOLYLINE
5
196
100
AcDbEntity
8
0
100
AcDbPolyline
90
4
70
1
43
0.0
10
19.370321064347561
20
-7.7787601748661563
42
-0.41421356237309503
10
19.452998229701905
20
-7.6960830095118116
42
-0.41421356237309503
10
19.535675395056249
20
-7.7787601748661563
42
-0.41421356237293649
10
19.452998229701905
20
-7.8614373402204567
42
-0.41421356237293649
0
ARC
5
197
100
AcDbEntity
8
0
100
AcDbCircle
10
19.626022014206477
20
-4.1324041849571671
30
0
40
0.059055118110262123
210
-0
220
0
230
1
100
AcDbArc
50
-0.00031372318952718704
51
56.442376514130608
0
LWPOLYLINE
5
198
100
AcDbEntity
8
0
100
AcDbPolyline
90
4
70
1
43
0.0
10
4.775631702308579
20
-7.6960830095118116
42
-0.41421356237309503
10
4.8583088676629247
20
-7.7787601748661563
42
-0.41421356237309503
10
4.775631702308579
20
-7.8614373402205011
42
-0.41421356237325357
10
4.6929545369542343
20
-7.7787601748661119
42
-0.41421356237293649
0
SPLINE
5
199
100
AcDbEntity
8
0
100
AcDbSpline
70
0
71
3
72
14
73
10
74
0
42
0.000000001
43
0.0000000001
44
0.0000000001
40
0
40
0
40
0
40
0
40
94.074213406790932
40
190.22246044394524
40
260.82798094401551
40
305.05722477397285
40
337.93346459869917
40
356.48090088397203
40
372.11344451039531
40
372.11344451039531
40
372.11344451039531
40
372.11344451039531
10
7.2857961496566084
20
9.2341076132435855
30
0
10
8.5205468778057121
20
9.2037567951242316
30
0
10
11.017135388002981
20
9.1400156525022389
30
0
10
14.417062041218824
20
8.6436792500833466
30
0
10
17.061590348048966
20
7.7338275697759107
30
0
10
18.672669908471828
20
6.6076066374606164
30
0
10
19.422563377215251
20
5.5613385628894889
30
0
10
19.659284320224415
20
4.7020480381499814
30
0
10
19.677013370482928
20
4.2530639340530723
30
0
10
19.685121922692076
20
4.0477167216498326
30
0
0
ARC
5
200
100
AcDbEntity
8
0
100
AcDbCircle
10
19.665195071307537
20
-4.0733492813386434
30
0
40
0.011811023622124038
210
0
220
0
230
1
100
AcDbArc
50
179.99968627681048
51
236.44237651416131
0
SPLINE
5
201
100
AcDbEntity
8
0
100
AcDbSpline
70
0
71
3
72
11
73
7
74
0
42
0.000000001
43
0.0000000001
44
0.0000000001
40
0
40
0
40
0
40
0
40
39.493341781749223
40
98.709185770871045
40
159.57806044535982
40
175.04390341281442
40
175.04390341281442
40
175.04390341281442
40
175.04390341281442
10
-14.07815054607298
20
8.6137179410680407
30
0
10
-13.569350911446925
20
8.7137376901831498
30
0
10
-12.297409339951834
20
8.9620835272681703
30
0
10
-10.207253137926408
20
9.1444232183422578
30
0
10
-8.4299360155328245
20
9.2106200634503246
30
0
10
-7.4284733091553425
20
9.2360728381118928
30
0
10
-7.2255713343652559
20
9.2412297133602621
30
0
0
LINE
5
202
100
AcDbEntity
8
0
100
AcDbLine
10
-4.5584347481044603
20
-8.0145811112640146
30
0
11
-4.5584131785905955
21
-4.0732167151668452
31
0
0
ARC
5
203
100
AcDbEntity
8
0
100
AcDbCircle
10
19.626022660920945
20
-4.0142939487385032
30
0
40
0.059055118110113915
210
-0
220
0
230
1
100
AcDbArc
50
303.55699603800389
51
359.99968627681045
0
LINE
5
204
100
AcDbEntity
8
0
100
AcDbLine
10
2.6823823810983001
20
-8.638328656400958
30
0
11
-2.6823823810983001
21
-8.638328656400958
31
0
0
LWPOLYLINE
5
205
100
AcDbEntity
8
0
100
AcDbPolyline
90
8
70
1
43
0.0
10
-2.7400806894290799
20
-12.062045067803698
42
-0.41421356237309503
10
-2.8188208469094125
20
-12.140785225284031
10
-2.8581909256495344
20
-12.140785225283986
42
-0.41421356237292856
10
-2.9369310831298669
20
-12.062045067803698
10
-2.9369310831299118
20
-11.038423020559684
42
-0.41421356237359452
10
-2.8581909256495344
20
-10.959682863079351
10
-2.8188208469094125
20
-10.959682863079351
42
-0.41421356237309503
10
-2.7400806894290799
20
-11.038423020559684
0
LINE
5
206
100
AcDbEntity
8
0
100
AcDbLine
10
-7.2255713343652559
20
9.2412297133602621
30
0
11
-3.276489053428659
21
9.2412297015221956
31
0
0
LWPOLYLINE
5
207
100
AcDbEntity
8
0
100
AcDbPolyline
90
4
70
1
43
0.0
10
-4.6929508353016676
20
-7.7779778235644796
42
-0.41421356237293649
10
-4.7756280006560123
20
-7.8606549889188253
42
-0.41421356237309503
10
-4.8583051660103571
20
-7.7779778235644796
42
-0.41421356237309503
10
-4.7756280006560123
20
-7.6953006582101349
42
-0.41421356237309503
0
LWPOLYLINE
5
208
100
AcDbEntity
8
0
100
AcDbPolyline
90
6
70
1
43
0.0
10
-1.844411414360122
20
-12.928186800087225
10
-1.844411414360122
20
-10.172281288276245
42
0.41421356236923246
10
-2.1396870049073642
20
-9.8770056977250196
42
0.41421356237700202
10
-2.4349625954624843
20
-10.172281288276201
10
-2.4349625954624843
20
-12.928186800087225
42
0.41421356236927687
10
-2.1396870049151522
20
-13.223462390638407
42
0.41421356237691326
0
ARC
5
209
100
AcDbEntity
8
0
100
AcDbCircle
10
-14.130852122922725
20
8.5756234581833084
30
0
40
0.011811023622127747
210
-0
220
0
230
1
100
AcDbArc
50
278.71915868408036
51
337.10830651730379
0
ARC
5
210
100
AcDbEntity
8
0
100
AcDbCircle
10
-14.044929751627761
20
8.5393431060474647
30
0
40
0.081456965742099291
210
0
220
0
230
1
100
AcDbArc
50
114.06874565329603
51
157.10830651750666
0
LINE
5
211
100
AcDbEntity
8
0
100
AcDbLine
10
-1.844411414360122
20
-12.928186800087225
30
0
11
-1.844411414360122
21
-10.172281288276245
31
0
0
ARC
5
212
100
AcDbEntity
8
0
100
AcDbCircle
10
-14.184875469366785
20
8.5297596589184668
30
0
40
0.059055118110195981
210
0
220
-0
230
1
100
AcDbArc
50
40.330010850520779
51
103.26930660942482
0
LINE
5
213
100
AcDbEntity
8
0
100
AcDbLine
10
-2.4349625954624843
20
-10.172281288276201
30
0
11
-2.4349625954624843
21
-12.928186800087225
31
0
0
ARC
5
214
100
AcDbEntity
8
0
100
AcDbCircle
10
-14.130852122922725
20
8.5756234581831308
30
0
40
0.011811023621975468
210
0
220
0
230
1
100
AcDbArc
50
220.33001085015349
51
278.71915868421098
0
LWPOLYLINE
5
215
100
AcDbEntity
8
0
100
AcDbPolyline
90
4
70
1
43
0.0
10
-8.8003373050528317
20
-7.7787601748661563
42
-0.41421356237293649
10
-8.8830144704071756
20
-7.8614373402205011
42
-0.41421356237309503
10
-8.9656916357615213
20
-7.7787601748661563
42
-0.41421356237309503
10
-8.8830144704071756
20
-7.6960830095118116
42
-0.41421356237309503
0
LINE
5
216
100
AcDbEntity
8
0
100
AcDbLine
10
-19.653570910766369
20
-4.0731341053948986
30
0
11
19.653384047685591
21
-4.0733492166672152
31
0
0
ARC
5
217
100
AcDbEntity
8
0
100
AcDbCircle
10
-19.626215321048623
20
-4.1321689224128999
30
0
40
0.059034817616890035
210
0
220
0
230
1
100
AcDbArc
50
123.56226046756478
51
180.51833177904857
0
LWPOLYLINE
5
218
100
AcDbEntity
8
0
100
AcDbPolyline
90
4
70
1
43
0.0
10
9.3389085608130582
20
-1.4097658358756811
42
-0.41421356237309503
10
9.4412707655374639
20
-1.3074036311512751
42
-0.41421356237309503
10
9.5436329702618696
20
-1.4097658358756811
42
-0.41421356237309503
10
9.4412707655374639
20
-1.5121280406000868
42
-0.41421356237309503
0
ARC
5
219
100
AcDbEntity
8
0
100
AcDbCircle
10
-19.665381934388407
20
-4.0731341053948986
30
0
40
0.011811023622076974
210
-0
220
0
230
1
100
AcDbArc
50
-56.437739532392996
51
0
0
ARC
5
220
100
AcDbEntity
8
0
100
AcDbCircle
10
-19.665381934388407
20
-4.0731341053948986
30
0
40
0.011811023622036501
210
-0
220
0
230
1
100
AcDbArc
50
0
51
56.437739532749632
0
LINE
5
221
100
AcDbEntity
8
0
100
AcDbLine
10
-19.685247722950709
20
-4.0135652315070978
30
0
11
-19.685261968512226
21
4.0474755126972122
31
0
0
ARC
5
222
100
AcDbEntity
8
0
100
AcDbCircle
10
-19.626310551439285
20
-7.9555259784997334
30
0
40
0.059055118109817104
210
0
220
0
230
1
100
AcDbArc
50
224.99911609051873
51
269.99999994432955
0
LINE
5
223
100
AcDbEntity
8
0
100
AcDbLine
10
-19.68536566952109
20
-7.9555241564550636
30
0
11
-19.685247722950709
21
-4.1327029792826995
31
0
0
ARC
5
224
100
AcDbEntity
8
0
100
AcDbCircle
10
-19.626310551439197
20
-7.9555259784995993
30
0
40
0.059055118110003108
210
0
220
0
230
1
100
AcDbArc
50
179.99823223697601
51
224.99911609054985
0
ARC
5
225
100
AcDbEntity
8
0
100
AcDbCircle
10
-19.626215321048715
20
-4.0140992883768973
30
0
40
0.05903481761688633
210
0
220
0
230
1
100
AcDbArc
50
179.48166822095141
51
236.43773953243857
0
LINE
5
226
100
AcDbEntity
8
0
100
AcDbLine
10
-4.5584347481044603
20
-8.0145811112640146
30
0
11
-19.626310551496665
21
-8.0145810966096036
31
0
0
LINE
5
227
100
AcDbEntity
8
0
100
AcDbLine
10
19.685121922692076
20
4.0477167216498326
30
0
11
19.685077779030234
21
-4.014294272095559
31
0
0
SPLINE
5
228
100
AcDbEntity
8
0
100
AcDbSpline
70
0
71
3
72
15
73
11
74
0
42
0.000000001
43
0.0000000001
44
0.0000000001
40
0
40
0
40
0
40
0
40
16.98343887071087
40
35.853742041514124
40
73.123849678033821
40
101.54932196433083
40
132.58042561947377
40
156.27904721985988
40
175.72385219782836
40
195.78342590117893
40
195.78342590117893
40
195.78342590117893
40
195.78342590117893
10
-19.685224201877936
20
4.0476227789983517
30
0
10
-19.675986535738737
20
4.2708614884370792
30
0
10
-19.656484896445253
20
4.7421407836862528
30
0
10
-19.376516095871921
20
5.6735744402521417
30
0
10
-18.668109514411338
20
6.5722271552114373
30
0
10
-17.642565388165544
20
7.3271553122039013
30
0
10
-16.665321922760906
20
7.8234655883869975
30
0
10
-15.753360947645508
20
8.1659565122842963
30
0
10
-14.959009666956609
20
8.4066407828479104
30
0
10
-14.454660031045803
20
8.5269512530765592
30
0
10
-14.19839252782571
20
8.587385388070528
30
0
0
LINE
5
229
100
AcDbEntity
8
0
100
AcDbLine
10
20.735220051611169
20
0.78390420956841045
30
0
11
20.234613476979778
21
0.78390421042889447
31
0
0
LWPOLYLINE
5
230
100
AcDbEntity
8
0
100
AcDbPolyline
90
4
70
1
43
0.0
10
19.37035883098158
20
-7.7786129085649725
42
-0.41421356237309503
10
19.453035996335924
20
-7.6959357432106268
42
-0.41421356237309503
10
19.535713161690271
20
-7.7786129085649725
42
-0.41421356237293649
10
19.453035996335924
20
-7.8612900739192728
42
-0.41421356237293649
0
SPLINE
5
231
100
AcDbEntity
8
0
100
AcDbSpline
70
0
71
3
72
35
73
31
74
0
42
0.000000001
43
0.0000000001
44
0.0000000001
40
-0.19770100886966058
40
-0.19770100886966058
40
-0.19770100886966058
40
-0.19770100886966058
40
0
40
0
40
0
40
94.074213406790918
40
94.074213406790918
40
94.074213406790918
40
190.22246044394524
40
190.22246044394524
40
190.22246044394524
40
260.82798094401556
40
260.82798094401556
40
260.82798094401556
40
302.74746800238199
40
302.74746800238199
40
302.74746800238199
40
305.05722477397279
40
305.05722477397279
40
305.05722477397279
40
334.17607385857008
40
334.17607385857008
40
334.17607385857008
40
337.93346459869917
40
337.93346459869917
40
337.93346459869917
40
356.48090088397208
40
356.48090088397208
40
356.48090088397208
40
372.11344451039525
40
372.11344451039525
40
372.11344451039525
40
372.11344451039525
10
7.2942919248022884
20
9.8980792970817717
30
0
10
7.2968868069557082
20
9.8980155277318076
30
0
10
7.2994816891093972
20
9.8979517583818417
30
0
10
7.302076571263175
20
9.8978879890318776
30
0
10
8.5372478320911469
20
9.8675335976819518
30
0
10
9.7852751049859705
20
9.836062717490595
30
0
10
11.04187656810797
20
9.7293900611221904
30
0
10
12.326182049154729
20
9.6203656160038964
30
0
10
13.616558459259199
20
9.4328742075154555
30
0
10
14.888234670403415
20
9.1044239574420232
30
0
10
15.82207760110914
20
8.8632297435127132
30
0
10
16.760557432517391
20
8.5430507999497305
30
0
10
17.641649245194465
20
8.0580538985947339
30
0
10
18.164765802896362
20
7.7701044410210791
30
0
10
18.676290059416054
20
7.4196726918995672
30
0
10
19.124054331533035
20
6.9719016217744656
30
0
10
19.148726068526344
20
6.9472295102120301
30
0
10
19.173198779765958
20
6.9222635507804533
30
0
10
19.197461705729754
20
6.8969989818651625
30
0
10
19.503341739584631
20
6.5784913457015923
30
0
10
19.779147071447486
20
6.2102992097347451
30
0
10
19.981931874530002
20
5.7880041282502797
30
0
10
20.008098490495023
20
5.7335127016089897
30
0
10
20.033023175807461
20
5.6781332121217707
30
0
10
20.05659017922066
20
5.6218753966323831
30
0
10
20.172922901706549
20
5.3441725117039365
30
0
10
20.252967413710405
20
5.0532610088044905
30
0
10
20.296132798797391
20
4.7575649843326309
30
0
10
20.332514364160065
20
4.5083401895075577
30
0
10
20.340328311613835
20
4.2794753673961363
30
0
10
20.348437987606182
20
4.0741281993709118
30
0
0
ARC
5
232
100
AcDbEntity
8
0
100
AcDbCircle
10
19.665232837941378
20
-4.0732020150374595
30
0
40
0.011811023621990657
210
0
220
0
230
1
100
AcDbArc
50
123.55699603767846
51
179.99968627681048
0
SPLINE
5
233
100
AcDbEntity
8
0
100
AcDbSpline
70
0
71
3
72
14
73
10
74
0
42
0.000000001
43
0.0000000001
44
0.0000000001
40
0
40
0
40
0
40
0
40
94.074213406790932
40
190.22246044394524
40
260.82798094401551
40
305.05722477397285
40
337.93346459869917
40
356.48090088397203
40
372.11344451039531
40
372.11344451039531
40
372.11344451039531
40
372.11344451039531
10
7.2858339162907182
20
9.234254879544725
30
0
10
8.5205846444398219
20
9.2039040614253711
30
0
10
11.017173154637092
20
9.1401629188033784
30
0
10
14.417099807852933
20
8.6438265163844861
30
0
10
17.061628114682986
20
7.7339748360770502
30
0
10
18.672707675105851
20
6.6077539037617559
30
0
10
19.422601143849274
20
5.5614858291906728
30
0
10
19.659322086858435
20
4.7021953044511662
30
0
10
19.677051137116951
20
4.253211200354257
30
0
10
19.685159689326095
20
4.0478639879510174
30
0
0
SPLINE
5
234
100
AcDbEntity
8
0
100
AcDbSpline
70
4
71
5
72
16
73
10
74
0
42
0.000000001
43
0.0000000001
44
0.0000000001
40
0
40
0
40
0
40
0
40
0
40
0
40
0.20000000000000001
40
0.40000000000000002
40
0.60000000000000009
40
0.80000000000000004
40
1
40
1
40
1
40
1
40
1
40
1
41
1
41
1
41
1
41
1
41
1
41
1
41
1
41
1
41
1
41
1
10
-14.346014299523118
20
9.2345124478553782
30
0
10
-14.186322111671936
20
9.2587824157308436
30
0
10
-13.851833718347235
20
9.3073200110341077
30
0
10
-13.304729435055288
20
9.3801179461853437
30
0
10
-12.410132894660929
20
9.4759185506146757
30
0
10
-10.493731802789407
20
9.5854307853263023
30
0
10
-7.6644805233827586
20
9.6550193672781734
30
0
10
-4.3752793891136887
20
9.6906655032769233
30
0
10
-1.57486007097167
20
9.7057929838317172
30
0
10
-0.022606097022563467
20
9.71119557444222
30
0
0
ARC
5
235
100
AcDbEntity
8
0
100
AcDbCircle
10
19.62605401209446
20
-7.9553484399309395
30
0
40
0.059067889791275731
210
0
220
0
230
1
100
AcDbArc
50
-89.987314189018207
51
0.036431317738792317
0
LINE
5
236
100
AcDbEntity
8
0
100
AcDbLine
10
-7.2255997578951972
20
9.2412979001951463
30
0
11
-3.2765174770176819
21
9.2413195001078847
31
0
0
LINE
5
237
100
AcDbEntity
8
0
100
AcDbLine
10
-7.2255335677311452
20
9.2413769796614016
30
0
11
-3.2764512867945483
21
9.2413769678233351
31
0
0
ARC
5
238
100
AcDbEntity
8
0
100
AcDbCircle
10
19.626038847279883
20
-7.9553787503737841
30
0
40
0.059055118110048231
210
0
220
0
230
1
100
AcDbArc
50
269.99999994432955
51
359.99968627681045
0
SPLINE
5
239
100
AcDbEntity
8
0
100
AcDbSpline
70
0
71
3
72
14
73
10
74
0
42
0.000000001
43
0.0000000001
44
0.0000000001
40
0
40
0
40
0
40
0
40
94.074213406790918
40
190.22246044394524
40
260.82798094401556
40
305.05722477397279
40
337.93346459869917
40
356.48090088397208
40
372.11344451039525
40
372.11344451039525
40
372.11344451039525
40
372.11344451039525
10
7.2857677648857324
20
9.2342552149995374
30
0
10
8.5205186591142983
20
9.2039111541783925
30
0
10
11.017107518104039
20
9.1401836743895757
30
0
10
14.417036887519899
20
8.6438658784193798
30
0
10
17.061570173565428
20
7.734028670573232
30
0
10
18.672655897321651
20
6.6078165550700625
30
0
10
19.422555091861391
20
5.5615525843822029
30
0
10
19.659280737420964
20
4.702263355134737
30
0
10
19.677012244789967
20
4.2532793480685589
30
0
10
19.685121920782315
20
4.0479321800432899
30
0
0
SPLINE
5
240
100
AcDbEntity
8
0
100
AcDbSpline
70
0
71
3
72
35
73
31
74
0
42
0.000000001
43
0.0000000001
44
0.0000000001
40
0
40
0
40
0
40
0
40
16.98343887071087
40
16.98343887071087
40
16.98343887071087
40
35.853742041514124
40
35.853742041514124
40
35.853742041514124
40
66.180883249749911
40
66.180883249749911
40
66.180883249749911
40
73.123849678033807
40
73.123849678033807
40
73.123849678033807
40
101.54932196433084
40
101.54932196433084
40
101.54932196433084
40
132.58042561947377
40
132.58042561947377
40
132.58042561947377
40
156.27904721985988
40
156.27904721985988
40
156.27904721985988
40
175.72385219782836
40
175.72385219782836
40
175.72385219782836
40
195.7834259011789
40
195.7834259011789
40
195.7834259011789
40
195.90900449552905
40
195.90900449552905
40
195.90900449552905
40
195.90900449552905
10
-20.34852763803335
20
4.0749179537301625
30
0
10
-20.339291193590633
20
4.2981567137195631
30
0
10
-20.330523245227713
20
4.5480261155075175
30
0
10
-20.286404476987233
20
4.8201559440371513
30
0
10
-20.23738410257662
20
5.1225194644803818
30
0
10
-20.148703525336799
20
5.4170445915470786
30
0
10
-20.024561432643079
20
5.6957612079421898
30
0
10
-19.825048221809546
20
6.1436966812616749
30
0
10
-19.542325821805751
20
6.5331470371676197
30
0
10
-19.224411811951789
20
6.8687651687887525
30
0
10
-19.151629933754236
20
6.9456001531537321
30
0
10
-19.07692108441956
20
7.0196468927268967
30
0
10
-19.000736192221634
20
7.0909814961812723
30
0
10
-18.688824624712645
20
7.3830353055280362
30
0
10
-18.351547904864681
20
7.6303118734988775
30
0
10
-18.00488677819024
20
7.8456350101038597
30
0
10
-17.626448831875734
20
8.0806958211976561
30
0
10
-17.232369394797139
20
8.2804080063988827
30
0
10
-16.832607853217361
20
8.452861964322457
30
0
10
-16.527307802997651
20
8.5845659841903466
30
0
10
-16.218531132023589
20
8.700409716130423
30
0
10
-15.908602948799555
20
8.8043313791945987
30
0
10
-15.654305750355322
20
8.8895994806623495
30
0
10
-15.397460753242076
20
8.9674252951261568
30
0
10
-15.138546874389007
20
9.0375974137979327
30
0
10
-14.871447150758428
20
9.1099881005654755
30
0
10
-14.608204094026661
20
9.172680177302631
30
0
10
-14.350827214057007
20
9.2333774172788434
30
0
10
-14.349222909210647
20
9.2337557608047725
30
0
10
-14.347618604364376
20
9.2341341043307033
30
0
10
-14.346014299523118
20
9.2345124478553782
30
0
0
LINE
5
241
100
AcDbEntity
8
0
100
AcDbLine
10
20.234613477306784
20
0.97413470482286701
30
0
11
20.484916764295516
21
0.97413470439264738
31
0
0
ARC
5
242
100
AcDbEntity
8
0
100
AcDbCircle
10
0.78707204162902045
20
9.1786977703842094
30
0
40
0.059055118110629294
210
0
220
-0
230
1
100
AcDbArc
50
32.064631541818393
51
90.005799327329711
0
LINE
5
243
100
AcDbEntity
8
0
100
AcDbLine
10
20.348437987606182
20
4.0741281993709562
30
0
11
20.547815703263062
21
1.8893290167008088
31
0
0
ARC
5
244
100
AcDbEntity
8
0
100
AcDbCircle
10
0.84403115718891852
20
9.2138186197262897
30
0
40
0.0078740157480243333
210
-0
220
0
230
1
100
AcDbArc
50
270.00000005080716
51
331.92751309356731
0
SPLINE
5
245
100
AcDbEntity
8
0
100
AcDbSpline
70
0
71
3
72
11
73
7
74
0
42
0.000000001
43
0.0000000001
44
0.0000000001
40
0
40
0
40
0
40
0
40
39.493341781749223
40
98.709185770871045
40
159.57806044535982
40
175.04390341281442
40
175.04390341281442
40
175.04390341281442
40
175.04390341281442
10
-14.07811277943887
20
8.6138652073691802
30
0
10
-13.569313144812815
20
8.7138849564842893
30
0
10
-12.297371573317724
20
8.9622307935693097
30
0
10
-10.207215371292298
20
9.1445704846433973
30
0
10
-8.4298982488987129
20
9.2107673297514641
30
0
10
-7.4284355425212318
20
9.2362201044130323
30
0
10
-7.2255335677311452
20
9.2413769796614016
30
0
0
LINE
5
246
100
AcDbEntity
8
0
100
AcDbLine
10
20.484916764295516
20
0.97413470439264738
30
0
11
20.547815703263062
21
1.8893290167008088
31
0
0
SPLINE
5
247
100
AcDbEntity
8
0
100
AcDbSpline
70
0
71
3
72
11
73
7
74
0
42
0.000000001
43
0.0000000001
44
0.0000000001
40
0
40
0
40
0
40
0
40
39.493341781749223
40
98.709185770871045
40
159.57806044535982
40
175.04390341281442
40
175.04390341281442
40
175.04390341281442
40
175.04390341281442
10
-14.078175535378858
20
8.6137486264819891
30
0
10
-13.569376448128608
20
8.7137711600528593
30
0
10
-12.297436235750173
20
8.9621239579626071
30
0
10
-10.207281031628421
20
9.1444750876244001
30
0
10
-8.4299642715303502
20
9.2106816592785705
30
0
10
-7.4285017044606914
20
9.2361399145453209
30
0
10
-7.2255997578951972
20
9.2412979001951463
30
0
0
LINE
5
248
100
AcDbEntity
8
0
100
AcDbLine
10
-3.2765174770176819
20
9.2413195001078847
30
0
11
0.90226548506908277
21
9.2413195001078403
31
0
0
LINE
5
249
100
AcDbEntity
8
0
100
AcDbLine
10
-3.2765174770176819
20
9.2413195001078847
30
0
11
-4.7914860514669
21
9.2413087001515155
31
0
0
ARC
5
250
100
AcDbEntity
8
0
100
AcDbCircle
10
0.84403115718891852
20
9.2138186197263341
30
0
40
0.0078740157480407681
210
0
220
0
230
1
100
AcDbArc
50
208.60583157501208
51
270.00000005080716
0
LINE
5
251
100
AcDbEntity
8
0
100
AcDbLine
10
-3.1583567185693004
20
9.2413775060572867
30
0
11
0.78706606422609926
21
9.2377528881923165
31
0
0
LINE
5
252
100
AcDbEntity
8
0
100
AcDbLine
10
20.234613476979778
20
0.78390421042889447
30
0
11
20.234613477306784
21
0.97413470482286701
31
0
0
LINE
5
253
100
AcDbEntity
8
0
100
AcDbLine
10
-20.500546149321952
20
-4.7611409482565099
30
0
11
-20.50051849779242
21
-3.6716693176708399
31
0
0
LINE
5
254
100
AcDbEntity
8
0
100
AcDbLine
10
-20.34852763803335
20
4.0749179537301625
30
0
11
-20.408105228310379
21
2.0688709651355519
31
0
0
LINE
5
255
100
AcDbEntity
8
0
100
AcDbLine
10
-20.698057719483838
20
-3.6716643039913315
30
0
11
-20.697941128208175
21
0.92203774776287994
31
0
0
ARC
5
256
100
AcDbEntity
8
0
100
AcDbCircle
10
19.626066783313593
20
-4.3492688668475967
30
0
40
0.05905511809253277
210
-0
220
0
230
1
100
AcDbArc
50
303.55862815260605
51
359.97609701344027
0
LINE
5
257
100
AcDbEntity
8
0
100
AcDbLine
10
-20.50051849779242
20
-3.6716693176708399
30
0
11
-20.698057719483838
21
-3.6716643039913315
31
0
0
LINE
5
258
100
AcDbEntity
8
0
100
AcDbLine
10
19.685121920782315
20
4.0479321800432899
30
0
11
19.68512189631118
21
-4.3492935038045744
31
0
0
LINE
5
259
100
AcDbEntity
8
0
100
AcDbLine
10
-19.685209956316509
20
-4.0134179652059139
30
0
11
-19.685224201878025
21
4.047622778998397
31
0
0
SPLINE
5
260
100
AcDbEntity
8
0
100
AcDbSpline
70
0
71
3
72
15
73
11
74
0
42
0.000000001
43
0.0000000001
44
0.0000000001
40
0
40
0
40
0
40
0
40
16.98343887071087
40
35.853742041514124
40
73.123849678033807
40
101.54932196433084
40
132.58042561947377
40
156.27904721985988
40
175.72385219782836
40
195.7834259011789
40
195.7834259011789
40
195.7834259011789
40
195.7834259011789
10
-19.685261968512137
20
4.0474755126971678
30
0
10
-19.67602552406942
20
4.270714272686658
30
0
10
-19.656526463899706
20
4.7419936746534423
30
0
10
-19.376562760695059
20
5.673428863362834
30
0
10
-18.668161097212582
20
6.5720854551350953
30
0
10
-17.6426211024026
20
7.32701922450984
30
0
10
-16.665380353120639
20
7.8233348487488428
30
0
10
-15.753421252334979
20
8.1658307634393257
30
0
10
-14.959071288826884
20
8.4065193811668202
30
0
10
-14.454722311334832
20
8.5268326114978983
30
0
10
-14.198455138850429
20
8.5872681489406641
30
0
0
LINE
5
261
100
AcDbEntity
8
0
100
AcDbLine
10
-19.685201183594334
20
-4.3484494121133777
30
0
11
-19.685261968512226
21
4.0474755126972122
31
0
0
ARC
5
262
100
AcDbEntity
8
0
100
AcDbCircle
10
-19.665338657840515
20
-4.4080411072378753
30
0
40
0.011811024298855131
210
0
220
0
230
1
100
AcDbArc
50
-150.34061682020672
51
56.442049038885585
0
LINE
5
263
100
AcDbEntity
8
0
100
AcDbLine
10
19.685114898949873
20
-4.1322572420131287
30
0
11
19.685093965389079
21
-7.9553790737307946
31
0
0
ARC
5
264
100
AcDbEntity
8
0
100
AcDbCircle
10
19.6260597808405
20
-4.1322569186559832
30
0
40
0.059055118110262123
210
-0
220
0
230
1
100
AcDbArc
50
-0.00031372318952718704
51
56.442376514133471
0
LINE
5
265
100
AcDbEntity
8
0
100
AcDbLine
10
20.565013812627665
20
-3.8867550568142173
30
0
11
20.735220043583443
21
-3.8867550571067593
31
0
0
LINE
5
266
100
AcDbEntity
8
0
100
AcDbLine
10
-19.685218906806856
20
-4.7611616418153488
30
0
11
-20.500546149321952
21
-4.7611409482565099
31
0
0
LINE
5
267
100
AcDbEntity
8
0
100
AcDbLine
10
19.685121895940579
20
-4.4674066549566662
30
0
11
19.685121889945343
21
-7.955310881825703
31
0
0
LINE
5
268
100
AcDbEntity
8
0
100
AcDbLine
10
20.735220043583443
20
-3.8867550571067593
30
0
11
20.735220051611169
21
0.78390420956841045
31
0
0
ARC
5
269
100
AcDbEntity
8
0
100
AcDbCircle
10
19.665237519667585
20
-4.4083255743275656
30
0
40
0.011811024654376872
210
0
220
0
230
1
100
AcDbArc
50
208.0835034511598
51
236.44772495829349
0
ARC
5
270
100
AcDbEntity
8
0
100
AcDbCircle
10
-19.626178834032562
20
-4.4670815993846977
30
0
40
0.059034817558772316
210
0
220
0
230
1
100
AcDbArc
50
123.55786464814491
51
180.49422353290601
0
SPLINE
5
271
100
AcDbEntity
8
0
100
AcDbSpline
70
4
71
5
72
16
73
10
74
0
42
0.000000001
43
0.0000000001
44
0.0000000001
40
0
40
0
40
0
40
0
40
0
40
0
40
0.20000000000000001
40
0.40000000000000002
40
0.60000000000000009
40
0.80000000000000004
40
1
40
1
40
1
40
1
40
1
40
1
41
1
41
1
41
1
41
1
41
1
41
1
41
1
41
1
41
1
41
1
10
14.300802105477992
20
9.2345124478553782
30
0
10
14.141109917626808
20
9.2587824157308436
30
0
10
13.806621524302127
20
9.3073200110341077
30
0
10
13.259517241010284
20
9.3801179461853437
30
0
10
12.364920700615977
20
9.4759185506146757
30
0
10
10.448519608744421
20
9.5854307853263023
30
0
10
7.6192683293376877
20
9.6550193672781734
30
0
10
4.3300671950685716
20
9.6906655032769233
30
0
10
1.5296478769265434
20
9.7057929838317172
30
0
10
-0.022606097022563467
20
9.71119557444222
30
0
0
ARC
5
272
100
AcDbEntity
8
0
100
AcDbCircle
10
19.626066782965548
20
-4.4673820169593652
30
0
40
0.059055118114557208
210
-0
220
0
230
1
100
AcDbArc
50
-0.023903995903359648
51
56.444008261775771
0
LINE
5
273
100
AcDbEntity
8
0
100
AcDbLine
10
20.565013810898105
20
-4.8929742571415114
30
0
11
20.565013812627665
21
-3.8867550568142173
31
0
0
ARC
5
274
100
AcDbEntity
8
0
100
AcDbCircle
10
19.665237415075875
20
-4.4083253784023109
30
0
40
0.011811023582366336
210
0
220
0
230
1
100
AcDbArc
50
123.5384839289398
51
208.08458084273681
0
LINE
5
275
100
AcDbEntity
8
0
100
AcDbLine
10
0.90226548506908277
20
9.2413195001078403
30
0
11
0.90302008504929143
21
9.2413430799948433
31
0
0
ARC
5
276
100
AcDbEntity
8
0
100
AcDbCircle
10
-3.2173907228936303
20
9.2138089871961988
30
0
40
0.0078648432543995707
210
0
220
0
230
1
100
AcDbArc
50
269.96035672235951
51
331.96739323696823
0
ARC
5
277
100
AcDbEntity
8
0
100
AcDbCircle
10
-3.2764511889857335
20
9.1823218896131138
30
0
40
0.059055078210280269
210
0
220
-0
230
1
100
AcDbArc
50
28.072707894710557
51
90.000094895010875
0
ARC
5
278
100
AcDbEntity
8
0
100
AcDbCircle
10
-3.2173962275450547
20
9.2138181615720924
30
0
40
0.007874015747982837
210
0
220
0
230
1
100
AcDbArc
50
208.07270789487237
51
270.000457854616
0
ARC
5
279
100
AcDbEntity
8
0
100
AcDbCircle
10
0.90308627514011852
20
9.1823225568582636
30
0
40
0.059055117911543852
210
0
220
-0
230
1
100
AcDbArc
50
89.999999807192253
51
151.92751309385116
0
ARC
5
280
100
AcDbEntity
8
0
100
AcDbCircle
10
-14.044891984993649
20
8.5394903723486042
30
0
40
0.081456965742099291
210
0
220
0
230
1
100
AcDbArc
50
114.06874565329719
51
157.10830651750828
0
LINE
5
281
100
AcDbEntity
8
0
100
AcDbLine
10
-14.19845513885052
20
8.5872681489406641
30
0
11
-14.078175535378858
21
8.6137486264819891
31
0
0
ARC
5
282
100
AcDbEntity
8
0
100
AcDbCircle
10
-3.1583410626701047
20
9.1823225711372842
30
0
40
0.059054936995248559
210
0
220
0
230
1
100
AcDbArc
50
90.015189533755276
51
151.92796841839228
0
ARC
5
283
100
AcDbEntity
8
0
100
AcDbCircle
10
-14.130814356288615
20
8.5757707244844479
30
0
40
0.011811023622127747
210
-0
220
0
230
1
100
AcDbArc
50
278.71915868408882
51
337.10830651729583
0
ARC
5
284
100
AcDbEntity
8
0
100
AcDbCircle
10
-14.130814356288615
20
8.5757707244842685
30
0
40
0.011811023621975468
210
0
220
0
230
1
100
AcDbArc
50
220.33001085015908
51
278.71915868422082
0
ARC
5
285
100
AcDbEntity
8
0
100
AcDbCircle
10
-14.184837702732674
20
8.5299069252196063
30
0
40
0.059055118110195981
210
0
220
-0
230
1
100
AcDbArc
50
40.330010850519457
51
103.26930660942651
0
LINE
5
286
100
AcDbEntity
8
0
100
AcDbLine
10
-20.118269328412676
20
0.92202303529914409
30
0
11
-20.118263021447547
21
1.170517773664504
31
0
0
LINE
5
287
100
AcDbEntity
8
0
100
AcDbLine
10
-20.118263021447547
20
1.170517773664504
30
0
11
-20.408105228310379
21
1.170525130056451
31
0
0
ARC
5
288
100
AcDbEntity
8
0
100
AcDbCircle
10
19.665232837941559
20
-4.0732020150374595
30
0
40
0.011811023622124038
210
0
220
0
230
1
100
AcDbArc
50
179.99968627681048
51
236.44237651414699
0
LINE
5
289
100
AcDbEntity
8
0
100
AcDbLine
10
19.685159689326095
20
4.0478639879510174
30
0
11
19.685115545664253
21
-4.0141470057943751
31
0
0
LINE
5
290
100
AcDbEntity
8
0
100
AcDbLine
10
-20.697941128208175
20
0.92203774776287994
30
0
11
-20.118269328412676
21
0.92202303529914409
31
0
0
LINE
5
291
100
AcDbEntity
8
0
100
AcDbLine
10
19.685121895209043
20
-4.8929742556291185
30
0
11
20.565013810898105
21
-4.8929742571415114
31
0
0
LINE
5
292
100
AcDbEntity
8
0
100
AcDbLine
10
-19.68532790288689
20
-7.9553768901538797
30
0
11
-19.685209956316509
21
-4.1325557129815156
31
0
0
LINE
5
293
100
AcDbEntity
8
0
100
AcDbLine
10
-19.685299981895742
20
-7.9555241568428068
30
0
11
-19.685211455780106
21
-4.4675908172492891
31
0
0
LINE
5
294
100
AcDbEntity
8
0
100
AcDbLine
10
-20.408105228310379
20
1.170525130056451
30
0
11
-20.408105228310379
21
2.0688709651355519
31
0
0
LINE
5
295
100
AcDbEntity
8
0
100
AcDbLine
10
0.90308627533884667
20
9.2413776747698062
30
0
11
7.1662333521356505
21
9.2413776747698524
31
0
0
LINE
5
296
100
AcDbEntity
8
0
100
AcDbLine
10
0.90302008504929143
20
9.2413430799948433
30
0
11
7.2857677648857324
21
9.2342552149995818
31
0
0
ARC
5
297
100
AcDbEntity
8
0
100
AcDbCircle
10
-19.626169012012472
20
-4.3490083023646022
30
0
40
0.059034817184297192
210
0
220
0
230
1
100
AcDbArc
50
179.45756534041419
51
236.43334521306886
0
ARC
5
298
100
AcDbEntity
8
0
100
AcDbCircle
10
19.626060427554968
20
-4.0141466824373193
30
0
40
0.059055118110113915
210
-0
220
0
230
1
100
AcDbArc
50
303.55699603800389
51
359.99968627681045
0
ARC
5
299
100
AcDbEntity
8
0
100
AcDbCircle
10
-19.6653381735686
20
-4.4080419577377912
30
0
40
0.011811023624004482
210
-0
220
0
230
1
100
AcDbArc
50
-56.458109914659062
51
209.65463542568702
0
LINE
5
300
100
AcDbEntity
8
0
100
AcDbLine
10
-4.5584344141025612
20
-7.9535494534522382
30
0
11
-4.1217062804380644
21
-7.9535518434909633
31
0
0
ENDSEC
0
SECTION
2
OBJECTS
0
DICTIONARY
5
C
100
AcDbDictionary
3
ACAD_GROUP
350
D
3
ACAD_MLINESTYLE
350
17
0
DICTIONARY
5
D
100
AcDbDictionary
0
DICTIONARY
5
1A
330
C
100
AcDbDictionary
0
DICTIONARY
5
17
100
AcDbDictionary
0
ENDSEC
0
EOF
