<?xml version="1.0" standalone="no"?>
<!DOCTYPE svg PUBLIC "-//W3C//DTD SVG 20010904//EN"
 "http://www.w3.org/TR/2001/REC-SVG-20010904/DTD/svg10.dtd">
<svg version="1.0" xmlns="http://www.w3.org/2000/svg"
 width="582.000000pt" height="582.000000pt" viewBox="0 0 582.000000 582.000000"
 preserveAspectRatio="xMidYMid meet">
<metadata>
Created by potrace 1.15, written by Peter Selinger 2001-2017
</metadata>
<g transform="translate(0.000000,582.000000) scale(0.100000,-0.100000)"
fill="#000000" stroke="none">
<path d="M2545 5800 c-332 -40 -618 -127 -940 -286 -773 -380 -1342 -1105
-1535 -1954 -57 -246 -65 -329 -65 -650 0 -321 8 -404 65 -650 214 -941 896
-1731 1781 -2064 l65 -24 2 26 c1 15 14 59 28 97 75 204 102 269 111 272 25 9
20 -33 -13 -119 -20 -51 -45 -120 -56 -153 -11 -33 -29 -76 -39 -96 l-18 -36
37 -12 c20 -6 72 -22 115 -35 42 -14 75 -21 72 -16 -5 8 30 154 56 237 11 35
39 46 39 16 0 -10 -10 -52 -21 -93 -31 -111 -38 -143 -39 -161 0 -12 24 -21
97 -36 58 -13 100 -18 104 -12 5 9 13 48 45 229 29 163 29 165 47 168 20 4 21
-13 7 -89 -27 -135 -50 -276 -50 -301 0 -29 4 -30 142 -42 68 -5 63 -15 78
143 12 124 16 137 34 122 8 -7 9 -41 2 -130 -4 -66 -6 -127 -3 -135 5 -11 45
-14 226 -12 121 1 223 4 227 8 4 4 2 63 -3 130 -9 100 -8 126 3 137 18 20 20
12 34 -130 7 -64 15 -121 19 -127 7 -12 180 4 195 18 9 9 -6 117 -40 287 -18
92 -18 123 0 123 17 0 21 -12 36 -100 11 -68 21 -123 41 -228 7 -35 18 -66 25
-69 18 -7 166 27 182 42 11 10 9 30 -14 111 -36 131 -40 164 -22 164 10 0 21
-23 33 -62 9 -35 21 -74 25 -88 4 -14 13 -44 19 -67 8 -30 17 -43 30 -43 22 0
162 47 174 59 5 5 2 28 -7 52 -21 64 -92 259 -105 291 -10 27 -6 58 9 58 8 0
28 -46 65 -150 15 -41 33 -91 40 -110 7 -19 20 -53 28 -75 8 -22 21 -41 29
-43 24 -5 173 62 176 80 2 8 -20 64 -48 124 -28 59 -48 114 -46 121 9 22 32 4
51 -40 85 -194 97 -207 146 -168 13 10 38 26 56 35 37 19 37 21 -19 118 -21
36 -38 76 -38 88 0 12 -25 64 -55 115 -30 52 -55 98 -55 104 0 12 40 41 56 41
17 0 54 -62 54 -91 0 -13 24 -64 53 -114 30 -49 66 -111 81 -137 15 -27 34
-48 43 -48 23 0 143 80 143 95 0 6 -33 59 -74 117 -52 75 -71 110 -65 119 11
17 26 1 116 -124 49 -68 66 -85 80 -80 18 7 153 111 153 118 0 4 -199 244
-237 285 -26 28 -30 50 -9 50 15 0 58 -46 184 -197 47 -57 92 -103 100 -103 8
0 38 24 66 54 107 112 123 128 190 189 54 49 67 66 60 79 -8 15 -63 63 -236
206 -66 55 -84 82 -53 82 8 0 82 -57 164 -126 110 -92 155 -124 168 -119 23 8
125 143 118 155 -3 6 -51 42 -106 81 -95 67 -119 92 -105 106 3 3 57 -28 119
-71 63 -42 120 -74 128 -71 14 5 104 144 98 149 -2 2 -35 21 -74 43 -201 115
-302 176 -319 192 -17 18 -17 20 -1 45 10 14 22 26 28 26 6 0 95 -49 198 -110
103 -60 196 -110 206 -110 22 0 96 130 87 153 -2 7 -24 22 -47 32 -91 40 -207
99 -207 106 0 23 44 13 147 -36 63 -30 121 -55 128 -55 16 0 75 119 82 165 5
33 23 24 -217 110 -147 53 -162 59 -167 72 -13 32 0 29 237 -57 144 -53 163
-59 171 -54 9 5 72 195 67 199 -5 3 -211 57 -241 62 -29 6 -44 24 -33 42 4 6
16 6 34 0 59 -20 246 -68 250 -64 16 16 68 307 83 460 15 157 6 555 -16 695
-99 636 -380 1194 -825 1640 -349 350 -791 610 -1275 749 -325 93 -781 125
-1150 81z m1795 -387 c14 -9 27 -18 29 -19 2 -2 -31 -63 -73 -137 -42 -73 -76
-143 -76 -155 0 -26 -38 -92 -53 -92 -7 0 -23 9 -37 20 l-25 19 19 33 c10 18
32 58 48 88 17 30 34 59 39 65 5 5 9 20 9 32 0 26 19 66 58 126 28 42 29 43
62 20z m-2814 -11 c6 -4 23 -29 39 -57 15 -27 58 -103 96 -167 38 -64 69 -121
69 -126 0 -15 -50 -44 -64 -39 -7 3 -28 32 -46 64 -18 32 -43 76 -56 98 -12
22 -41 71 -63 110 -23 38 -41 75 -41 82 0 6 10 19 22 27 25 18 29 19 44 8z
m1291 -151 c10 -11 50 -60 88 -110 39 -49 75 -89 80 -87 6 1 12 49 15 107 l5
104 27 3 c37 4 39 -8 36 -223 -3 -209 -9 -220 -74 -135 -25 33 -41 47 -48 40
-7 -7 -6 -61 3 -162 7 -84 17 -198 21 -253 11 -137 28 -329 40 -455 5 -58 14
-163 20 -235 6 -71 13 -151 16 -176 l4 -47 -61 -51 c-33 -28 -64 -51 -68 -51
-4 0 -33 23 -65 52 l-58 52 7 95 c4 53 11 148 16 211 4 63 15 201 24 305 9
105 20 242 25 305 5 63 16 196 24 295 l15 180 -22 32 c-37 55 -46 44 -49 -68
-2 -82 -6 -104 -20 -112 -12 -8 -21 -7 -32 2 -14 11 -16 42 -16 201 0 210 4
227 47 181z m-804 -232 c20 -22 27 -40 27 -69 0 -35 4 -41 35 -56 41 -19 75
-69 75 -110 0 -16 -9 -43 -20 -61 -37 -61 -151 -97 -165 -53 -9 27 -1 36 37
44 42 8 68 33 68 64 0 40 -27 62 -77 62 -51 0 -64 17 -39 55 45 69 -16 116
-76 58 -23 -22 -32 -25 -46 -17 -28 18 -25 43 8 74 60 56 126 60 173 9z m2097
-77 c33 -32 40 -45 40 -77 0 -33 -7 -45 -44 -79 -37 -35 -43 -46 -39 -72 9
-59 -55 -134 -113 -134 -34 0 -87 26 -117 58 -56 58 -6 100 51 43 37 -37 55
-39 87 -6 31 30 31 54 3 90 -27 34 -14 61 27 58 45 -3 67 14 63 50 -3 28 -8
34 -45 45 -29 9 -43 20 -43 31 0 26 9 31 51 31 31 0 46 -8 79 -38z m-2386 -82
c13 -13 22 -38 26 -73 4 -44 8 -52 27 -55 36 -5 83 -67 83 -108 0 -66 -59
-129 -132 -140 -70 -12 -77 53 -7 67 92 19 82 124 -13 124 -54 0 -70 22 -40
59 17 22 19 32 10 51 -18 40 -55 38 -99 -6 -16 -16 -22 -17 -39 -7 -11 7 -20
19 -20 27 0 19 65 79 92 84 40 9 91 -2 112 -23z m3390 -89 c7 -11 -31 -47
-178 -170 -59 -50 -115 -91 -122 -91 -26 0 -14 27 29 63 23 19 87 74 142 121
98 83 118 95 129 77z m290 -405 c21 -33 14 -46 -37 -76 -23 -13 -107 -61 -187
-107 l-145 -84 -22 26 c-13 14 -23 30 -23 35 0 5 64 47 143 93 78 46 162 95
187 110 56 33 64 33 84 3z m-4826 -53 c215 -126 237 -140 240 -155 2 -8 -6
-25 -16 -38 l-18 -23 -60 33 c-82 46 -276 161 -291 172 -16 13 11 68 33 68 9
0 59 -26 112 -57z m585 -38 c139 -65 199 -168 147 -252 -44 -73 -116 -85 -213
-38 -110 54 -157 113 -157 195 0 36 6 48 39 81 34 34 44 39 85 39 29 0 67 -9
99 -25z m3746 -183 c35 -19 48 -40 38 -67 -5 -10 -17 -9 -65 8 -33 11 -67 17
-76 14 -15 -6 -14 -10 4 -44 24 -46 25 -65 4 -109 -22 -46 -70 -74 -129 -74
-41 0 -52 5 -80 35 -51 53 -57 122 -17 170 28 34 85 73 122 84 48 14 156 5
199 -17z m-3983 -98 c18 -9 42 -31 53 -49 18 -31 21 -33 65 -28 43 5 48 3 86
-35 46 -45 50 -74 21 -138 -19 -41 -63 -84 -87 -84 -8 0 -17 12 -20 26 -5 20
-2 31 13 43 12 9 26 27 33 40 10 20 9 28 -7 50 -26 34 -68 39 -98 11 -19 -18
-27 -20 -44 -10 -18 9 -21 17 -16 43 5 25 2 37 -14 51 -29 26 -69 8 -77 -34
-14 -65 -64 -66 -64 -1 0 31 7 49 32 77 48 54 73 62 124 38z m4829 -579 c0
-14 -61 -31 -175 -50 -52 -8 -123 -21 -157 -27 -67 -12 -77 -10 -68 14 4 10
30 19 73 26 122 19 246 43 251 48 9 9 76 -1 76 -11z m-2809 -47 c9 -18 27 -43
41 -55 30 -26 42 -75 43 -164 0 -43 5 -70 13 -78 10 -7 144 -12 433 -13 l419
-3 3 -101 c2 -73 -1 -104 -10 -111 -12 -9 -67 -23 -359 -93 -116 -27 -141 -30
-302 -30 -141 0 -177 -3 -187 -15 -6 -8 -16 -45 -21 -82 -5 -37 -16 -120 -25
-183 -8 -63 -18 -141 -21 -172 -6 -66 -19 -57 131 -83 49 -8 94 -19 98 -23 5
-5 8 -31 6 -57 -3 -47 -4 -49 -43 -61 -22 -7 -76 -24 -120 -38 -70 -22 -82
-23 -96 -10 -20 18 -38 18 -59 -1 -13 -12 -23 -13 -41 -6 -13 6 -64 22 -114
37 -49 15 -93 30 -98 34 -12 10 -17 72 -7 91 7 12 36 22 102 33 156 28 141 19
135 84 -3 31 -13 109 -21 172 -9 63 -20 146 -25 183 -5 37 -15 74 -21 82 -10
12 -45 15 -183 15 -116 0 -190 5 -231 15 -34 8 -110 26 -171 40 -203 47 -250
59 -263 68 -9 7 -12 38 -10 111 l3 101 421 3 c332 2 424 5 433 15 5 7 13 58
17 112 7 91 9 101 37 129 16 17 35 43 43 59 19 35 30 34 50 -5z m-2163 -279
c181 -58 210 -74 175 -96 -12 -7 -198 -73 -207 -73 -2 0 2 -6 8 -14 7 -8 48
-26 92 -40 98 -32 119 -42 119 -61 0 -17 -370 -141 -394 -132 -21 8 -20 40 2
59 9 8 46 23 82 33 72 20 125 44 117 51 -3 3 -49 21 -103 39 -53 18 -101 41
-106 50 -10 18 13 30 117 61 33 10 68 25 78 34 16 14 10 18 -88 48 -90 28
-106 36 -111 57 -7 27 1 45 19 45 7 0 96 -27 200 -61z m4465 -186 l3 -123 -31
0 -30 0 0 79 c0 89 -9 104 -62 99 l-33 -3 -3 -63 c-3 -62 -3 -63 -30 -60 -24
3 -27 8 -30 43 -5 82 -7 85 -61 85 -59 0 -61 -4 -61 -106 l0 -74 -30 0 -30 0
0 125 0 125 198 -2 197 -3 3 -122z m287 -439 c44 -8 107 -19 140 -25 33 -6 68
-13 78 -16 20 -5 23 -33 4 -33 -11 0 -134 21 -355 59 -48 9 -57 15 -47 31 8
13 42 10 180 -16z m-4421 -326 c18 -25 9 -41 -36 -64 -15 -8 -28 -20 -28 -27
0 -6 16 -38 35 -70 54 -90 44 -108 -48 -89 -29 6 -97 18 -152 28 -61 10 -107
24 -119 35 -18 16 -16 19 60 62 107 62 126 77 120 92 -8 21 18 36 52 29 20 -4
38 -1 53 10 31 21 45 20 63 -6z m3674 -118 c57 -33 110 -60 118 -60 9 0 14 11
14 35 0 39 8 43 38 18 16 -14 22 -36 27 -100 4 -53 3 -83 -3 -83 -6 0 -43 19
-84 43 -40 24 -98 57 -128 74 -108 60 -120 68 -125 82 -5 13 20 51 34 51 3 0
53 -27 109 -60z m-3474 -227 c31 -52 56 -99 56 -103 0 -16 -28 -17 -161 -7
-151 10 -191 2 -197 -40 -3 -22 24 -57 62 -78 14 -8 17 -17 11 -34 -6 -20 -12
-22 -38 -17 -85 17 -137 136 -87 199 30 37 78 49 185 45 51 -1 96 0 100 4 4 3
-5 27 -19 52 -31 55 -32 72 -9 85 25 13 33 4 97 -106z m3331 -30 c33 -67 69
-131 79 -142 41 -45 96 -9 96 63 0 39 25 56 48 33 17 -18 18 -76 2 -108 -21
-40 -61 -78 -91 -84 -62 -14 -119 39 -181 169 -12 27 -28 51 -34 53 -7 2 -26
-19 -43 -47 -25 -40 -36 -51 -54 -48 -34 5 -32 33 10 101 21 34 47 79 58 100
12 22 26 36 35 35 8 -2 42 -58 75 -125z m-1325 -18 c4 -21 12 -31 27 -33 18
-3 22 2 25 30 2 25 8 33 23 33 18 0 20 -8 23 -72 3 -74 -9 -96 -28 -50 l-9 22
-7 -22 c-10 -35 -43 -30 -50 7 -8 37 -22 39 -26 3 -2 -14 -9 -28 -15 -31 -10
-3 -13 15 -13 66 0 38 3 72 7 76 15 15 38 -1 43 -29z m-2510 -59 c14 -26 13
-29 -5 -42 -24 -18 -343 -204 -349 -204 -3 0 -12 7 -20 16 -26 26 -19 57 17
78 172 103 323 186 332 183 5 -2 17 -16 25 -31z m2126 -179 c3 -8 6 -130 7
-273 l2 -258 45 -17 c47 -17 60 -39 39 -65 -8 -10 -21 -13 -42 -8 -35 7 -47
-6 -47 -56 0 -41 4 -47 52 -82 51 -39 66 -87 41 -135 -11 -20 -33 -44 -51 -53
-17 -10 -38 -23 -46 -29 -14 -11 -46 -5 -46 9 0 4 -13 10 -29 13 -51 11 -51
67 0 67 16 0 29 6 30 13 5 74 1 85 -45 129 -39 38 -46 50 -46 83 0 41 40 105
65 105 8 0 17 5 20 10 3 6 6 125 5 265 -1 247 4 295 31 295 5 0 12 -6 15 -13z
m-1146 -203 c15 -17 8 -32 -69 -169 -22 -38 -37 -73 -35 -77 3 -5 18 -8 35 -8
22 0 29 -5 29 -19 0 -27 -18 -37 -80 -45 -30 -4 -64 -9 -75 -12 -11 -2 -26 0
-33 4 -10 7 2 33 48 111 33 57 60 104 60 106 0 2 16 31 36 64 37 63 60 75 84
45z m2319 -98 c76 -136 75 -135 98 -113 29 25 36 21 29 -15 -4 -18 -10 -55
-14 -83 -6 -42 -11 -51 -29 -53 -13 -2 -23 0 -23 5 0 4 -40 78 -90 163 -84
144 -88 155 -73 172 30 33 47 21 102 -76z m-2038 -56 c112 -66 108 -63 111
-77 2 -6 -58 -42 -132 -80 -153 -77 -182 -106 -144 -143 12 -12 37 -23 58 -24
47 -4 65 -20 50 -44 -15 -23 -76 -27 -115 -7 -84 44 -104 116 -49 179 17 19
65 51 110 73 43 21 81 43 84 50 3 7 -18 25 -49 43 -56 32 -60 37 -49 64 10 26
36 19 125 -34z m1799 11 c12 -24 3 -51 -17 -51 -8 0 -30 -7 -49 -16 -30 -14
-34 -21 -34 -54 0 -42 36 -90 69 -90 11 0 35 16 54 35 19 19 39 35 45 35 15 0
105 -158 99 -173 -8 -20 -149 -98 -172 -95 -12 2 -21 12 -23 24 -2 17 9 28 52
53 31 17 56 35 56 39 0 5 -7 17 -15 28 -13 18 -15 18 -45 2 -71 -40 -144 -12
-181 70 -40 86 -5 164 87 197 52 19 62 18 74 -4z m-2160 -371 c24 -24 30 -7
-78 -195 -131 -226 -128 -223 -172 -187 l-23 18 28 50 c31 56 160 277 181 312
18 27 38 28 64 2z"/>
<path d="M1017 4212 c-10 -10 -17 -28 -17 -40 0 -47 139 -142 208 -142 33 0
62 27 62 56 0 26 -40 64 -114 108 -67 40 -114 46 -139 18z"/>
</g>
</svg>
