<svg width="6.446850393700789in" height="2.846850314960631in" viewBox="0 0 6.446850393700789 2.846850314960631" xmlns="http://www.w3.org/2000/svg" xmlnsXlink="http://www.w3.org/1999/xlink">
  <g transform="translate(0 2.846850314960631)">
    <g data-reactroot="" transform="scale(1, -1)"><g fill="none" stroke="rgb(0,0,0)"><g transform="matrix(1,0,0,1,1.393963521653545,2.2013404724409456)"><path class="outline" d="M -0.06147523818897636 -0.2022731102362205 C -0.06147523818897636 -0.2022731102362205 0.06147523818897636 -0.2022731102362205 0.06147523818897636 -0.2022731102362205 C 0.08919613621486883 -0.2022731102362205 0.11166836417322831 -0.179800882277861 0.11166836417322831 -0.15207998425196853 C 0.11166836417322831 -0.15207998425196853 0.11166836417322831 0.15207998425196853 0.11166836417322831 0.15207998425196853 C 0.11166836417322831 0.179800882277861 0.08919613621486883 0.2022731102362205 0.06147523818897636 0.2022731102362205 C 0.06147523818897636 0.2022731102362205 -0.06147523818897636 0.2022731102362205 -0.06147523818897636 0.2022731102362205 C -0.08919613621486883 0.2022731102362205 -0.11166836417322831 0.179800882277861 -0.11166836417322831 0.15207998425196853 C -0.11166836417322831 0.15207998425196853 -0.11166836417322831 -0.15207998425196853 -0.11166836417322831 -0.15207998425196853 C -0.11166836417322831 -0.179800882277861 -0.08919613621486883 -0.2022731102362205 -0.06147523818897636 -0.2022731102362205" stroke-width="0.01"></path></g></g><g fill="none" stroke="rgb(0,0,0)"><g transform="matrix(1,0,0,1,1.3939635295275608,1.553402125984253)"><path class="outline" d="M -0.06147524606299212 -0.2022731102362205 C -0.06147524606299212 -0.2022731102362205 0.06147524606299212 -0.2022731102362205 0.06147524606299212 -0.2022731102362205 C 0.0891961440888846 -0.2022731102362205 0.11166837204724409 -0.179800882277861 0.11166837204724409 -0.15207998425196853 C 0.11166837204724409 -0.15207998425196853 0.11166837204724409 0.15207998425196853 0.11166837204724409 0.15207998425196853 C 0.11166837204724409 0.179800882277861 0.0891961440888846 0.2022731102362205 0.06147524606299212 0.2022731102362205 C 0.06147524606299212 0.2022731102362205 -0.06147524606299212 0.2022731102362205 -0.06147524606299212 0.2022731102362205 C -0.0891961440888846 0.2022731102362205 -0.11166837204724409 0.179800882277861 -0.11166837204724409 0.15207998425196853 C -0.11166837204724409 0.15207998425196853 -0.11166837204724409 -0.15207998425196853 -0.11166837204724409 -0.15207998425196853 C -0.11166837204724409 -0.179800882277861 -0.0891961440888846 -0.2022731102362205 -0.06147524606299212 -0.2022731102362205" stroke-width="0.01"></path></g></g><g fill="none" stroke="rgb(0,0,0)"><g transform="matrix(6.123233995736766e-17,-1,1,6.123233995736766e-17,2.008580000000003,0.4147124527559066)"><path class="outline" d="M -0.036924708661417324 -0.19796807086614168 C -0.036924708661417324 -0.19796807086614168 0.036924708661417324 -0.19796807086614168 0.036924708661417324 -0.19796807086614168 C 0.07178618536579975 -0.19796807086614168 0.10004699606299212 -0.1697072601689493 0.10004699606299212 -0.13484578346456688 C 0.10004699606299212 -0.13484578346456688 0.10004699606299212 0.13484578346456688 0.10004699606299212 0.13484578346456688 C 0.10004699606299212 0.1697072601689493 0.07178618536579975 0.19796807086614168 0.036924708661417324 0.19796807086614168 C 0.036924708661417324 0.19796807086614168 -0.036924708661417324 0.19796807086614168 -0.036924708661417324 0.19796807086614168 C -0.07178618536579975 0.19796807086614168 -0.10004699606299212 0.1697072601689493 -0.10004699606299212 0.13484578346456688 C -0.10004699606299212 0.13484578346456688 -0.10004699606299212 -0.13484578346456688 -0.10004699606299212 -0.13484578346456688 C -0.10004699606299212 -0.1697072601689493 -0.07178618536579975 -0.19796807086614168 -0.036924708661417324 -0.19796807086614168" stroke-width="0.01"></path></g></g><g fill="none" stroke="rgb(0,0,0)"><g transform="matrix(6.123233995736766e-17,-1,1,6.123233995736766e-17,2.717477244094491,0.41471244291338694)"><path class="outline" d="M -0.03692471850393699 -0.19796807086614168 C -0.03692471850393699 -0.19796807086614168 0.03692471850393699 -0.19796807086614168 0.03692471850393699 -0.19796807086614168 C 0.07178619520831941 -0.19796807086614168 0.10004700590551177 -0.1697072601689493 0.10004700590551177 -0.13484578346456688 C 0.10004700590551177 -0.13484578346456688 0.10004700590551177 0.13484578346456688 0.10004700590551177 0.13484578346456688 C 0.10004700590551177 0.1697072601689493 0.07178619520831941 0.19796807086614168 0.03692471850393699 0.19796807086614168 C 0.03692471850393699 0.19796807086614168 -0.03692471850393699 0.19796807086614168 -0.03692471850393699 0.19796807086614168 C -0.07178619520831941 0.19796807086614168 -0.10004700590551177 0.1697072601689493 -0.10004700590551177 0.13484578346456688 C -0.10004700590551177 0.13484578346456688 -0.10004700590551177 -0.13484578346456688 -0.10004700590551177 -0.13484578346456688 C -0.10004700590551177 -0.1697072601689493 -0.07178619520831941 -0.19796807086614168 -0.03692471850393699 -0.19796807086614168" stroke-width="0.01"></path></g></g><g fill="none" stroke="rgb(0,0,0)"><g transform="matrix(6.123233995736766e-17,-1,1,6.123233995736766e-17,3.4211622440944893,0.41471244291338694)"><path class="outline" d="M -0.03692471850393699 -0.19796807086614168 C -0.03692471850393699 -0.19796807086614168 0.03692471850393699 -0.19796807086614168 0.03692471850393699 -0.19796807086614168 C 0.07178619520831941 -0.19796807086614168 0.10004700590551177 -0.1697072601689493 0.10004700590551177 -0.13484578346456688 C 0.10004700590551177 -0.13484578346456688 0.10004700590551177 0.13484578346456688 0.10004700590551177 0.13484578346456688 C 0.10004700590551177 0.1697072601689493 0.07178619520831941 0.19796807086614168 0.03692471850393699 0.19796807086614168 C 0.03692471850393699 0.19796807086614168 -0.03692471850393699 0.19796807086614168 -0.03692471850393699 0.19796807086614168 C -0.07178619520831941 0.19796807086614168 -0.10004700590551177 0.1697072601689493 -0.10004700590551177 0.13484578346456688 C -0.10004700590551177 0.13484578346456688 -0.10004700590551177 -0.13484578346456688 -0.10004700590551177 -0.13484578346456688 C -0.10004700590551177 -0.1697072601689493 -0.07178619520831941 -0.19796807086614168 -0.03692471850393699 -0.19796807086614168" stroke-width="0.01"></path></g></g><g fill="none" stroke="rgb(0,0,0)"><g transform="matrix(6.123233995736766e-17,-1,1,6.123233995736766e-17,4.131699251968505,0.41471244291338694)"><path class="outline" d="M -0.03692471850393699 -0.19796807086614168 C -0.03692471850393699 -0.19796807086614168 0.03692471850393699 -0.19796807086614168 0.03692471850393699 -0.19796807086614168 C 0.07178619520831941 -0.19796807086614168 0.10004700590551177 -0.1697072601689493 0.10004700590551177 -0.13484578346456688 C 0.10004700590551177 -0.13484578346456688 0.10004700590551177 0.13484578346456688 0.10004700590551177 0.13484578346456688 C 0.10004700590551177 0.1697072601689493 0.07178619520831941 0.19796807086614168 0.03692471850393699 0.19796807086614168 C 0.03692471850393699 0.19796807086614168 -0.03692471850393699 0.19796807086614168 -0.03692471850393699 0.19796807086614168 C -0.07178619520831941 0.19796807086614168 -0.10004700590551177 0.1697072601689493 -0.10004700590551177 0.13484578346456688 C -0.10004700590551177 0.13484578346456688 -0.10004700590551177 -0.13484578346456688 -0.10004700590551177 -0.13484578346456688 C -0.10004700590551177 -0.1697072601689493 -0.07178619520831941 -0.19796807086614168 -0.03692471850393699 -0.19796807086614168" stroke-width="0.01"></path></g></g><g fill="none" stroke="rgb(0,0,0)"><g transform="matrix(6.123233995736766e-17,-1,1,6.123233995736766e-17,4.841334685039372,0.41471244291338694)"><path class="outline" d="M -0.03692471850393699 -0.19796807086614168 C -0.03692471850393699 -0.19796807086614168 0.03692471850393699 -0.19796807086614168 0.03692471850393699 -0.19796807086614168 C 0.07178619520831941 -0.19796807086614168 0.10004700590551177 -0.1697072601689493 0.10004700590551177 -0.13484578346456688 C 0.10004700590551177 -0.13484578346456688 0.10004700590551177 0.13484578346456688 0.10004700590551177 0.13484578346456688 C 0.10004700590551177 0.1697072601689493 0.07178619520831941 0.19796807086614168 0.03692471850393699 0.19796807086614168 C 0.03692471850393699 0.19796807086614168 -0.03692471850393699 0.19796807086614168 -0.03692471850393699 0.19796807086614168 C -0.07178619520831941 0.19796807086614168 -0.10004700590551177 0.1697072601689493 -0.10004700590551177 0.13484578346456688 C -0.10004700590551177 0.13484578346456688 -0.10004700590551177 -0.13484578346456688 -0.10004700590551177 -0.13484578346456688 C -0.10004700590551177 -0.1697072601689493 -0.07178619520831941 -0.19796807086614168 -0.03692471850393699 -0.19796807086614168" stroke-width="0.01"></path></g></g><g fill="none" stroke="rgb(0,0,0)"><g transform="matrix(1,0,0,1,3.42143877952756,1.6524547637795286)"><path class="outline" d="M -1.6456221771653543 -1.056102401574803 C -1.6456221771653543 -1.056102401574803 1.6456221771653543 -1.056102401574803 1.6456221771653543 -1.056102401574803 C 1.7005505419169227 -1.056102401574803 1.745078779527559 -1.0115741639641667 1.745078779527559 -0.9566457992125983 C 1.745078779527559 -0.9566457992125983 1.745078779527559 0.9566457992125983 1.745078779527559 0.9566457992125983 C 1.745078779527559 1.0115741639641667 1.7005505419169227 1.056102401574803 1.6456221771653543 1.056102401574803 C 1.6456221771653543 1.056102401574803 -1.6456221771653543 1.056102401574803 -1.6456221771653543 1.056102401574803 C -1.7005505419169227 1.056102401574803 -1.745078779527559 1.0115741639641667 -1.745078779527559 0.9566457992125983 C -1.745078779527559 0.9566457992125983 -1.745078779527559 -0.9566457992125983 -1.745078779527559 -0.9566457992125983 C -1.745078779527559 -1.0115741639641667 -1.7005505419169227 -1.056102401574803 -1.6456221771653543 -1.056102401574803" stroke-width="0.01"></path></g></g><g fill="none" stroke="rgb(0,0,0)"><g transform="matrix(6.123233995736766e-17,-1,1,6.123233995736766e-17,5.513701692913387,1.6825049645669305)"><path class="outline" d="M -0.061475255905511804 -0.2022731102362205 C -0.061475255905511804 -0.2022731102362205 0.061475255905511804 -0.2022731102362205 0.061475255905511804 -0.2022731102362205 C 0.08919615393140429 -0.2022731102362205 0.11166838188976377 -0.179800882277861 0.11166838188976377 -0.15207998425196853 C 0.11166838188976377 -0.15207998425196853 0.11166838188976377 0.15207998425196853 0.11166838188976377 0.15207998425196853 C 0.11166838188976377 0.179800882277861 0.08919615393140429 0.2022731102362205 0.061475255905511804 0.2022731102362205 C 0.061475255905511804 0.2022731102362205 -0.061475255905511804 0.2022731102362205 -0.061475255905511804 0.2022731102362205 C -0.08919615393140429 0.2022731102362205 -0.11166838188976377 0.179800882277861 -0.11166838188976377 0.15207998425196853 C -0.11166838188976377 0.15207998425196853 -0.11166838188976377 -0.15207998425196853 -0.11166838188976377 -0.15207998425196853 C -0.11166838188976377 -0.179800882277861 -0.08919615393140429 -0.2022731102362205 -0.061475255905511804 -0.2022731102362205" stroke-width="0.01"></path></g></g><g fill="none" stroke="rgb(0,0,0)"><g transform="matrix(6.123233995736766e-17,-1,1,6.123233995736766e-17,6.064882795275592,1.68250495472441)"><path class="outline" d="M -0.06147526574803149 -0.2022731102362205 C -0.06147526574803149 -0.2022731102362205 0.06147526574803149 -0.2022731102362205 0.06147526574803149 -0.2022731102362205 C 0.08919616377392398 -0.2022731102362205 0.11166839173228346 -0.179800882277861 0.11166839173228346 -0.15207998425196853 C 0.11166839173228346 -0.15207998425196853 0.11166839173228346 0.15207998425196853 0.11166839173228346 0.15207998425196853 C 0.11166839173228346 0.179800882277861 0.08919616377392398 0.2022731102362205 0.06147526574803149 0.2022731102362205 C 0.06147526574803149 0.2022731102362205 -0.06147526574803149 0.2022731102362205 -0.06147526574803149 0.2022731102362205 C -0.08919616377392398 0.2022731102362205 -0.11166839173228346 0.179800882277861 -0.11166839173228346 0.15207998425196853 C -0.11166839173228346 0.15207998425196853 -0.11166839173228346 -0.15207998425196853 -0.11166839173228346 -0.15207998425196853 C -0.11166839173228346 -0.179800882277861 -0.08919616377392398 -0.2022731102362205 -0.06147526574803149 -0.2022731102362205" stroke-width="0.01"></path></g></g><g fill="none" stroke="rgb(0,0,0)"><g transform="matrix(6.123233995736766e-17,-1,1,6.123233995736766e-17,5.513701692913387,2.076205742125985)"><path class="outline" d="M -0.06147526574803149 -0.2022731102362205 C -0.06147526574803149 -0.2022731102362205 0.06147526574803149 -0.2022731102362205 0.06147526574803149 -0.2022731102362205 C 0.08919616377392398 -0.2022731102362205 0.11166839173228346 -0.179800882277861 0.11166839173228346 -0.15207998425196853 C 0.11166839173228346 -0.15207998425196853 0.11166839173228346 0.15207998425196853 0.11166839173228346 0.15207998425196853 C 0.11166839173228346 0.179800882277861 0.08919616377392398 0.2022731102362205 0.06147526574803149 0.2022731102362205 C 0.06147526574803149 0.2022731102362205 -0.06147526574803149 0.2022731102362205 -0.06147526574803149 0.2022731102362205 C -0.08919616377392398 0.2022731102362205 -0.11166839173228346 0.179800882277861 -0.11166839173228346 0.15207998425196853 C -0.11166839173228346 0.15207998425196853 -0.11166839173228346 -0.15207998425196853 -0.11166839173228346 -0.15207998425196853 C -0.11166839173228346 -0.179800882277861 -0.08919616377392398 -0.2022731102362205 -0.06147526574803149 -0.2022731102362205" stroke-width="0.01"></path></g></g><g fill="none" stroke="rgb(0,0,0)"><g transform="matrix(6.123233995736766e-17,-1,1,6.123233995736766e-17,6.064882795275592,2.076205742125985)"><path class="outline" d="M -0.06147526574803149 -0.2022731102362205 C -0.06147526574803149 -0.2022731102362205 0.06147526574803149 -0.2022731102362205 0.06147526574803149 -0.2022731102362205 C 0.08919616377392398 -0.2022731102362205 0.11166839173228346 -0.179800882277861 0.11166839173228346 -0.15207998425196853 C 0.11166839173228346 -0.15207998425196853 0.11166839173228346 0.15207998425196853 0.11166839173228346 0.15207998425196853 C 0.11166839173228346 0.179800882277861 0.08919616377392398 0.2022731102362205 0.06147526574803149 0.2022731102362205 C 0.06147526574803149 0.2022731102362205 -0.06147526574803149 0.2022731102362205 -0.06147526574803149 0.2022731102362205 C -0.08919616377392398 0.2022731102362205 -0.11166839173228346 0.179800882277861 -0.11166839173228346 0.15207998425196853 C -0.11166839173228346 0.15207998425196853 -0.11166839173228346 -0.15207998425196853 -0.11166839173228346 -0.15207998425196853 C -0.11166839173228346 -0.179800882277861 -0.08919616377392398 -0.2022731102362205 -0.06147526574803149 -0.2022731102362205" stroke-width="0.01"></path></g></g><g fill="none" stroke="rgb(0,0,0)"><g transform="matrix(6.123233995736766e-17,-1,1,6.123233995736766e-17,5.786267283464568,2.462332265748033)"><path class="outline" d="M -0.0628088562992126 -0.4557043700787401 C -0.0628088562992126 -0.4557043700787401 0.0628088562992126 -0.4557043700787401 0.0628088562992126 -0.4557043700787401 C 0.09943804428324622 -0.4557043700787401 0.12913186811023622 -0.4260105462517501 0.12913186811023622 -0.38938135826771647 C 0.12913186811023622 -0.38938135826771647 0.12913186811023622 0.38938135826771647 0.12913186811023622 0.38938135826771647 C 0.12913186811023622 0.4260105462517501 0.09943804428324622 0.4557043700787401 0.0628088562992126 0.4557043700787401 C 0.0628088562992126 0.4557043700787401 -0.0628088562992126 0.4557043700787401 -0.0628088562992126 0.4557043700787401 C -0.09943804428324622 0.4557043700787401 -0.12913186811023622 0.4260105462517501 -0.12913186811023622 0.38938135826771647 C -0.12913186811023622 0.38938135826771647 -0.12913186811023622 -0.38938135826771647 -0.12913186811023622 -0.38938135826771647 C -0.12913186811023622 -0.4260105462517501 -0.09943804428324622 -0.4557043700787401 -0.0628088562992126 -0.4557043700787401" stroke-width="0.01"></path></g></g><g fill="none" stroke="rgb(0,0,0)"><g transform="matrix(1,0,0,1,6.143418290551183,2.347082977381891)"><path class="outline" d="M -0.004557291574803148 -0.0019531249803149604 C -0.004557291574803148 -0.0019531249803149604 0.004557291574803148 -0.0019531249803149604 0.004557291574803148 -0.0019531249803149604 C 0.005635972705012779 -0.0019531249803149604 0.006510416535433069 -0.00107868114989467 0.006510416535433069 -1.9685039405817336e-11 C 0.006510416535433069 -1.9685039405817336e-11 0.006510416535433069 1.9685039405817336e-11 0.006510416535433069 1.9685039405817336e-11 C 0.006510416535433069 0.00107868114989467 0.005635972705012779 0.0019531249803149604 0.004557291574803148 0.0019531249803149604 C 0.004557291574803148 0.0019531249803149604 -0.004557291574803148 0.0019531249803149604 -0.004557291574803148 0.0019531249803149604 C -0.005635972705012779 0.0019531249803149604 -0.006510416535433069 0.00107868114989467 -0.006510416535433069 1.9685039405817336e-11 C -0.006510416535433069 1.9685039405817336e-11 -0.006510416535433069 -1.9685039405817336e-11 -0.006510416535433069 -1.9685039405817336e-11 C -0.006510416535433069 -0.00107868114989467 -0.005635972705012779 -0.0019531249803149604 -0.004557291574803148 -0.0019531249803149604" stroke-width="0.01"></path></g></g><g fill="none" stroke="rgb(0,0,0)"><g transform="matrix(1,0,0,1,3.321850393700788,1.521850354330709)"><path class="outline" d="M -3.0292142007874014 -1.3249999606299212 C -3.0292142007874014 -1.3249999606299212 3.0292142007874014 -1.3249999606299212 3.0292142007874014 -1.3249999606299212 C 3.0821152369399245 -1.3249999606299212 3.125 -1.282115197569846 3.125 -1.2292141614173229 C 3.125 -1.2292141614173229 3.125 1.2292141614173229 3.125 1.2292141614173229 C 3.125 1.282115197569846 3.0821152369399245 1.3249999606299212 3.0292142007874014 1.3249999606299212 C 3.0292142007874014 1.3249999606299212 -3.0292142007874014 1.3249999606299212 -3.0292142007874014 1.3249999606299212 C -3.0821152369399245 1.3249999606299212 -3.125 1.282115197569846 -3.125 1.2292141614173229 C -3.125 1.2292141614173229 -3.125 -1.2292141614173229 -3.125 -1.2292141614173229 C -3.125 -1.282115197569846 -3.0821152369399245 -1.3249999606299212 -3.0292142007874014 -1.3249999606299212" stroke-width="0.01"></path></g></g><g fill="none" stroke="rgb(0,0,0)"><g transform="matrix(1,0,0,1,0.665641692913387,1.787427952755905)"><path class="outline" d="M 0 0.13546798031496063 C 0.07481689961415935 0.13546798031496063 0.13546798031496063 0.07481689961415935 0.13546798031496063 0 C 0.13546798031496063 -0.07481689961415935 0.07481689961415935 -0.13546798031496063 0 -0.13546798031496063 C -0.07481689961415935 -0.13546798031496063 -0.13546798031496063 -0.07481689961415935 -0.13546798031496063 0 C -0.13546798031496063 0.07481689961415935 -0.07481689961415935 0.13546798031496063 0 0.13546798031496063" stroke-width="0.01"></path></g></g><g fill="none" stroke="rgb(0,0,0)"><g transform="matrix(1,0,0,1,0.6656416929133868,2.4198877952755917)"><path class="outline" d="M 0 0.13546798031496063 C 0.07481689961415935 0.13546798031496063 0.13546798031496063 0.07481689961415935 0.13546798031496063 0 C 0.13546798031496063 -0.07481689961415935 0.07481689961415935 -0.13546798031496063 0 -0.13546798031496063 C -0.07481689961415935 -0.13546798031496063 -0.13546798031496063 -0.07481689961415935 -0.13546798031496063 0 C -0.13546798031496063 0.07481689961415935 -0.07481689961415935 0.13546798031496063 0 0.13546798031496063" stroke-width="0.01"></path></g></g><g fill="none" stroke="rgb(0,0,0)"><g transform="matrix(1,0,0,1,0.6360377559055133,0.7135783464566939)"><path class="outline" d="M 0 0.2932868228346457 C 0.16197783956886921 0.2932868228346457 0.2932868228346457 0.16197783956886921 0.2932868228346457 0 C 0.2932868228346457 -0.16197783956886921 0.16197783956886921 -0.2932868228346457 0 -0.2932868228346457 C -0.16197783956886921 -0.2932868228346457 -0.2932868228346457 -0.16197783956886921 -0.2932868228346457 0 C -0.2932868228346457 0.16197783956886921 -0.16197783956886921 0.2932868228346457 0 0.2932868228346457" stroke-width="0.01"></path></g></g><g fill="none" stroke="rgb(0,0,0)"><g transform="matrix(1,0,0,1,5.999835826771655,0.7135783464566939)"><path class="outline" d="M 0 0.29330694881889763 C 0.16198895484304626 0.29330694881889763 0.29330694881889763 0.16198895484304626 0.29330694881889763 0 C 0.29330694881889763 -0.16198895484304626 0.16198895484304626 -0.29330694881889763 0 -0.29330694881889763 C -0.16198895484304626 -0.29330694881889763 -0.29330694881889763 -0.16198895484304626 -0.29330694881889763 0 C -0.29330694881889763 0.16198895484304626 -0.16198895484304626 0.29330694881889763 0 0.29330694881889763" stroke-width="0.01"></path></g></g><g fill="none" stroke="rgb(0,0,0)"><g transform="matrix(1,0,0,1,1.3776179921259857,2.60806409448819)"><path class="outline" d="M 0 0.10311974409448818 C 0.05695146206666443 0.10311974409448818 0.10311974409448818 0.05695146206666443 0.10311974409448818 0 C 0.10311974409448818 -0.05695146206666443 0.05695146206666443 -0.10311974409448818 0 -0.10311974409448818 C -0.05695146206666443 -0.10311974409448818 -0.10311974409448818 -0.05695146206666443 -0.10311974409448818 0 C -0.10311974409448818 0.05695146206666443 -0.05695146206666443 0.10311974409448818 0 0.10311974409448818" stroke-width="0.01"></path></g></g><g fill="none" stroke="rgb(0,0,0)"><g transform="matrix(1,0,0,1,1.2553914566929154,0.3878791338582682)"><path class="outline" d="M 0 0.07165655905511811 C 0.039574824789284826 0.07165655905511811 0.07165655905511811 0.039574824789284826 0.07165655905511811 0 C 0.07165655905511811 -0.039574824789284826 0.039574824789284826 -0.07165655905511811 0 -0.07165655905511811 C -0.039574824789284826 -0.07165655905511811 -0.07165655905511811 -0.039574824789284826 -0.07165655905511811 0 C -0.07165655905511811 0.039574824789284826 -0.039574824789284826 0.07165655905511811 0 0.07165655905511811" stroke-width="0.01"></path></g></g><g fill="none" stroke="rgb(0,0,0)"><g transform="matrix(1,0,0,1,0.39128099606299327,1.9229728937007873)"><path class="outline" d="M -0.07554580472440943 -0.5535975393700787 C -0.07554580472440943 -0.5535975393700787 0.07554580472440943 -0.5535975393700787 0.07554580472440943 -0.5535975393700787 C 0.09115839145680227 -0.5535975393700787 0.10381489370078736 -0.5409410371260936 0.10381489370078736 -0.5253284503937008 C 0.10381489370078736 -0.5253284503937008 0.10381489370078736 0.5253284503937008 0.10381489370078736 0.5253284503937008 C 0.10381489370078736 0.5409410371260936 0.09115839145680227 0.5535975393700787 0.07554580472440943 0.5535975393700787 C 0.07554580472440943 0.5535975393700787 -0.07554580472440943 0.5535975393700787 -0.07554580472440943 0.5535975393700787 C -0.09115839145680227 0.5535975393700787 -0.10381489370078736 0.5409410371260936 -0.10381489370078736 0.5253284503937008 C -0.10381489370078736 0.5253284503937008 -0.10381489370078736 -0.5253284503937008 -0.10381489370078736 -0.5253284503937008 C -0.10381489370078736 -0.5409410371260936 -0.09115839145680227 -0.5535975393700787 -0.07554580472440943 -0.5535975393700787" stroke-width="0.01"></path></g></g><g fill="none" stroke="rgb(0,0,0)"><g transform="matrix(1,0,0,1,1.0387881614173242,1.9229728543307085)"><path class="outline" d="M -0.07554580472440943 -0.5535975787401575 C -0.07554580472440943 -0.5535975787401575 0.07554580472440943 -0.5535975787401575 0.07554580472440943 -0.5535975787401575 C 0.09115839145680227 -0.5535975787401575 0.10381489370078736 -0.5409410764961724 0.10381489370078736 -0.5253284897637795 C 0.10381489370078736 -0.5253284897637795 0.10381489370078736 0.5253284897637795 0.10381489370078736 0.5253284897637795 C 0.10381489370078736 0.5409410764961724 0.09115839145680227 0.5535975787401575 0.07554580472440943 0.5535975787401575 C 0.07554580472440943 0.5535975787401575 -0.07554580472440943 0.5535975787401575 -0.07554580472440943 0.5535975787401575 C -0.09115839145680227 0.5535975787401575 -0.10381489370078736 0.5409410764961724 -0.10381489370078736 0.5253284897637795 C -0.10381489370078736 0.5253284897637795 -0.10381489370078736 -0.5253284897637795 -0.10381489370078736 -0.5253284897637795 C -0.10381489370078736 -0.5409410764961724 -0.09115839145680227 -0.5535975787401575 -0.07554580472440943 -0.5535975787401575" stroke-width="0.01"></path></g></g></g>
  </g>
</svg>