<?xml version="1.0" standalone="no"?>
<!DOCTYPE svg PUBLIC "-//W3C//DTD SVG 20010904//EN"
 "http://www.w3.org/TR/2001/REC-SVG-20010904/DTD/svg10.dtd">
<svg version="1.0" xmlns="http://www.w3.org/2000/svg"
 width="305.000000pt" height="165.000000pt" viewBox="0 0 305.000000 165.000000"
 preserveAspectRatio="xMidYMid meet">
<metadata>
Created by potrace 1.15, written by Peter Selinger 2001-2017
</metadata>
<g transform="translate(0.000000,165.000000) scale(0.100000,-0.100000)"
fill="#000000" stroke="none">
<path d="M867 1258 c-51 -122 -130 -314 -168 -407 -44 -106 -99 -290 -99 -331
0 -42 36 -66 140 -94 273 -73 524 -100 855 -93 253 6 371 18 560 58 235 50
295 75 295 124 0 55 -60 243 -130 410 -23 55 -69 165 -101 245 -32 80 -64 146
-71 147 -7 2 -42 -8 -78 -21 l-65 -24 0 -45 c0 -29 -6 -52 -17 -64 -19 -21
-23 -59 -9 -82 5 -8 35 -28 67 -45 l58 -31 89 -187 c96 -201 103 -231 51 -244
-42 -11 -393 23 -419 40 -29 19 -27 11 -70 246 -20 107 -38 203 -41 213 -5 15
-23 17 -189 17 -166 0 -184 -2 -189 -17 -3 -10 -21 -103 -41 -208 -19 -104
-38 -200 -40 -212 -10 -43 -42 -52 -237 -69 -102 -9 -197 -14 -212 -10 -52 13
-46 43 49 242 49 101 96 190 104 197 9 7 35 22 59 32 44 19 73 58 64 85 -3 8
-14 26 -24 40 -14 18 -18 33 -13 61 l6 36 -71 27 c-39 14 -75 26 -79 26 -5 0
-20 -28 -34 -62z"/>
</g>
</svg>
