<?xml version="1.0" standalone="no"?>
<!DOCTYPE svg PUBLIC "-//W3C//DTD SVG 20010904//EN"
 "http://www.w3.org/TR/2001/REC-SVG-20010904/DTD/svg10.dtd">
<svg version="1.0" xmlns="http://www.w3.org/2000/svg"
 width="1000.000000pt" height="563.000000pt" viewBox="0 0 1000.000000 563.000000"
 preserveAspectRatio="xMidYMid meet">
<metadata>
Created by potrace 1.15, written by Peter Selinger 2001-2017
</metadata>
<g transform="translate(0.000000,563.000000) scale(0.100000,-0.100000)"
fill="#000000" stroke="none">
<path d="M7740 5005 c-38 -15 -76 -23 -90 -20 -19 4 -58 -10 -135 -48 -89 -44
-123 -56 -178 -60 -54 -5 -69 -3 -74 8 -13 34 -83 6 -83 -34 0 -20 -26 -37
-82 -55 -10 -3 -18 -14 -18 -25 0 -10 -7 -21 -15 -25 -13 -5 -15 -22 -10 -106
4 -86 37 -289 50 -311 3 -4 7 -24 11 -45 3 -22 12 -51 20 -66 8 -15 14 -29 13
-30 -3 -4 19 -76 31 -103 24 -56 21 -71 -22 -121 -24 -27 -64 -71 -90 -99 -59
-61 -75 -111 -58 -170 23 -76 68 -125 140 -151 163 -60 237 -113 329 -234 62
-80 78 -109 111 -200 9 -25 82 -207 162 -405 185 -459 212 -534 203 -586 l-7
-39 -25 20 c-17 13 -33 18 -49 14 -19 -5 -24 -2 -24 12 0 13 -3 15 -8 7 -6 -9
-17 -10 -42 -3 -25 7 -36 6 -42 -3 -5 -8 -8 -5 -8 10 0 19 -6 22 -37 22 -33 0
-81 5 -106 9 -5 1 -6 6 -3 10 3 5 -17 5 -44 2 -27 -3 -56 -2 -65 2 -8 5 -20 6
-26 3 -5 -4 -17 -1 -26 7 -14 11 -15 10 -8 -11 7 -22 5 -23 -16 -18 -13 4 -33
7 -44 8 -11 0 -14 3 -7 6 6 2 12 9 12 14 0 14 -40 4 -51 -12 -7 -12 -10 -12
-18 0 -5 7 -11 9 -14 4 -3 -5 -23 -7 -44 -6 -118 8 -126 8 -130 -4 -3 -7 3
-13 12 -13 9 0 13 -5 10 -11 -5 -7 -15 -3 -30 11 -16 15 -25 18 -30 10 -4 -6
-13 -9 -21 -6 -7 3 -16 1 -19 -4 -7 -11 -46 -9 -63 4 -10 7 -16 6 -22 -3 -5
-9 -17 -11 -34 -7 -15 4 -26 2 -26 -4 0 -5 -5 -10 -11 -10 -6 0 -8 7 -5 17 4
10 4 14 0 10 -4 -4 -13 1 -21 11 -12 16 -13 16 -7 -2 4 -11 1 -22 -7 -27 -23
-14 -32 -10 -18 8 13 16 13 16 -10 0 -18 -12 -28 -14 -38 -5 -7 6 -13 7 -13 2
0 -5 -5 -2 -10 6 -8 13 -10 12 -10 -4 0 -14 -5 -17 -22 -11 -26 8 -149 13
-162 6 -17 -8 -76 -8 -76 1 0 10 -61 5 -78 -6 -7 -4 -12 -2 -12 5 0 6 -8 9
-20 6 -12 -3 -29 4 -45 19 -14 12 -25 19 -25 14 0 -15 -58 -12 -63 3 -3 9 -7
9 -19 0 -8 -7 -18 -10 -21 -6 -12 12 -7 23 10 23 13 0 14 3 5 12 -8 8 -15 8
-28 -3 -13 -10 -18 -11 -21 -2 -2 7 -10 10 -18 7 -8 -3 -11 -12 -8 -21 4 -11
1 -14 -13 -11 -12 2 -19 12 -20 28 -2 24 -25 152 -44 235 -5 22 -20 110 -35
195 -14 85 -32 184 -39 220 -8 36 -24 121 -36 190 -12 69 -31 168 -42 220 -25
118 -55 278 -73 390 -25 155 -43 192 -112 222 -42 19 -73 21 -362 25 -374 6
-342 6 -413 1 -32 -3 -58 -1 -58 4 0 4 -8 3 -19 -3 -13 -9 -26 -9 -50 -1 -17
6 -30 8 -27 4 3 -5 -122 -16 -277 -25 -307 -19 -369 -28 -407 -55 -41 -30 -50
-62 -81 -280 -48 -333 -131 -940 -149 -1092 -12 -99 -38 -277 -46 -320 -3 -14
-6 -31 -6 -38 -1 -7 -9 -10 -18 -7 -18 6 -35 -19 -24 -36 9 -16 -5 -10 -26 11
-11 11 -20 26 -20 32 0 9 -3 8 -9 -2 -6 -8 -8 -17 -5 -21 2 -5 -5 -6 -16 -4
-11 2 -18 0 -15 -4 2 -5 -5 -11 -16 -14 -18 -5 -20 -2 -17 18 3 15 1 22 -7 18
-7 -2 -12 -12 -11 -21 1 -11 -5 -16 -18 -14 -14 3 -17 -1 -12 -13 5 -14 2 -16
-14 -12 -11 3 -20 0 -20 -6 0 -7 -7 -4 -14 5 -14 20 -62 26 -50 7 11 -18 -18
-30 -31 -12 -13 18 -67 11 -62 -8 1 -7 -4 -14 -12 -17 -8 -3 -11 0 -7 7 5 8 0
8 -19 1 -33 -13 -48 -13 -40 0 8 13 1 13 -40 -4 -18 -8 -46 -13 -61 -11 -16 1
-34 -5 -46 -17 -12 -12 -26 -17 -36 -13 -14 5 -14 7 -2 15 13 8 13 10 1 10 -8
0 -22 -6 -30 -14 -17 -16 -120 -24 -140 -12 -6 4 -33 1 -59 -7 -26 -9 -54 -15
-62 -16 -37 -1 -81 -9 -87 -15 -3 -3 -11 -6 -17 -6 -6 0 -5 5 2 12 23 23 12
29 -14 9 -28 -22 -50 -28 -39 -11 3 5 -2 11 -12 11 -96 7 -112 6 -117 -8 -8
-20 -26 -6 -19 15 5 16 5 16 -8 0 -9 -12 -22 -16 -36 -12 -24 7 -32 24 -11 24
6 0 8 3 5 7 -4 3 -17 -2 -29 -13 -12 -10 -19 -14 -15 -9 3 6 -8 17 -24 24 -17
7 -26 17 -23 24 5 8 2 8 -7 0 -17 -17 -33 -17 -26 -1 3 9 -6 14 -27 15 -17 0
-25 -1 -18 -4 19 -7 14 -23 -7 -23 -10 0 -26 11 -35 25 -21 32 -38 32 -30 0 3
-14 2 -25 -3 -25 -5 0 -9 10 -10 21 -3 30 -11 35 -33 21 -27 -16 -29 -15 -23
11 l5 22 -21 -23 c-11 -13 -25 -20 -31 -17 -6 4 -11 1 -9 -6 3 -26 -1 -39 -12
-39 -6 0 -9 7 -5 15 3 9 0 15 -9 15 -8 0 -15 5 -15 10 0 6 -5 10 -10 10 -6 0
-4 -10 4 -23 10 -14 12 -27 6 -36 -6 -11 -12 -7 -24 20 l-16 34 5 -40 c3 -22
2 -35 -2 -29 -4 6 -23 11 -40 11 -33 0 -42 -10 -23 -22 16 -10 12 -22 -9 -28
-11 -2 -21 -15 -23 -28 -1 -12 -9 -24 -15 -27 -26 -8 -14 95 21 201 52 153
129 376 181 522 26 72 55 157 65 190 39 131 109 313 140 365 60 102 253 267
381 326 88 41 118 143 71 239 -11 21 -18 45 -15 52 3 7 0 13 -7 13 -6 0 -8 -5
-4 -11 4 -7 1 -10 -7 -7 -8 3 -13 17 -12 34 0 16 -1 24 -4 17 -5 -13 -47 32
-72 77 -14 25 -14 25 7 6 12 -10 25 -28 28 -40 7 -19 8 -19 15 8 5 18 4 35 -2
42 -20 24 2 36 22 13 12 -15 16 -25 9 -29 -6 -4 -8 -15 -4 -26 5 -16 4 -17 -6
-4 -10 13 -11 12 -6 -3 3 -10 6 -20 6 -23 0 -2 7 -1 15 2 8 4 15 14 15 24 0
22 67 65 73 47 2 -7 8 -9 12 -5 5 5 -8 24 -28 43 -21 20 -37 41 -37 47 0 17
-30 -12 -31 -31 0 -10 -4 -8 -10 7 -5 13 -7 28 -3 33 3 5 1 9 -3 9 -14 0 -34
40 -27 52 5 7 12 5 21 -7 7 -11 13 -14 13 -8 0 6 3 19 7 29 3 10 2 15 -3 12
-5 -4 -9 4 -10 15 0 12 -5 31 -9 42 -8 17 -7 18 7 8 16 -14 28 -8 28 14 0 19
-37 8 -68 -20 l-23 -21 -6 22 c-3 12 -10 22 -15 22 -5 0 -2 7 6 16 16 16 41
10 31 -7 -4 -5 -2 -9 4 -9 22 0 23 24 3 41 -12 9 -22 23 -23 31 0 7 -4 4 -9
-7 -6 -13 -9 -15 -9 -5 0 8 3 21 8 29 7 11 10 9 16 -9 6 -18 9 -20 16 -9 8 12
11 12 20 -1 9 -13 10 -13 6 0 -2 8 -11 14 -20 14 -23 -2 -32 53 -17 102 6 22
14 57 16 79 2 22 11 70 20 106 24 103 19 117 -46 140 -249 89 -700 239 -719
239 -24 0 -101 -46 -107 -64 -3 -10 -19 -30 -35 -45 -36 -32 -137 -202 -226
-379 -76 -151 -89 -217 -60 -309 21 -66 31 -292 17 -395 -6 -46 -25 -150 -41
-233 -17 -82 -32 -168 -35 -190 -3 -22 -21 -112 -41 -200 -19 -88 -50 -234
-68 -325 -19 -91 -45 -217 -59 -280 -14 -63 -34 -180 -46 -260 -11 -80 -30
-203 -41 -275 -30 -193 -59 -486 -59 -603 0 -82 4 -110 20 -141 23 -46 132
-147 179 -167 69 -29 477 -55 1171 -74 489 -14 2329 -14 2645 -1 587 26 1713
104 2185 152 432 43 1077 124 1130 140 42 13 111 77 151 138 26 40 29 53 29
128 0 94 -17 218 -59 438 -28 144 -35 186 -81 484 -11 73 -36 204 -56 290 -19
86 -48 221 -65 301 -17 80 -50 222 -73 315 -114 448 -124 518 -102 723 8 78 8
82 -10 76 -17 -6 -17 -5 3 17 60 67 59 144 -6 275 -104 214 -244 441 -293 477
-16 12 -28 29 -28 39 0 13 -17 27 -52 43 -64 30 -67 30 -148 0z m-3594 -1372
c-3 -16 -10 -75 -16 -133 -6 -58 -15 -118 -20 -135 -5 -16 -12 -57 -15 -90 -4
-33 -15 -88 -26 -122 -10 -34 -19 -78 -19 -97 0 -19 -5 -38 -11 -41 -16 -11
-18 -4 -8 55 4 30 15 102 23 160 9 58 18 116 20 130 2 14 12 79 21 145 10 66
21 128 26 138 15 27 32 21 25 -10z m699 -273 c-3 -6 5 -14 19 -20 26 -9 37
-32 14 -27 -6 1 -14 -6 -16 -15 -4 -21 18 -24 37 -5 11 10 13 9 7 -1 -5 -7 2
-15 17 -21 14 -6 28 -15 33 -22 5 -9 2 -10 -9 -6 -9 3 -19 2 -22 -3 -3 -5 -22
-14 -43 -21 -36 -12 -93 -49 -76 -49 5 -1 -2 -10 -15 -20 -13 -11 -20 -20 -17
-20 4 0 1 -10 -5 -22 -12 -21 -30 -108 -23 -108 2 0 20 11 40 25 67 45 164 68
263 62 117 -7 188 -35 251 -99 l50 -51 -21 49 c-27 61 -57 104 -72 104 -12 1
-87 66 -87 76 0 3 -9 19 -21 35 -17 24 -18 33 -9 44 10 12 10 18 0 30 -7 8
-16 12 -21 9 -5 -3 -9 4 -9 14 0 11 -8 23 -17 26 -13 5 -8 11 21 27 33 17 43
18 74 8 174 -55 324 -232 339 -396 5 -63 4 -66 -10 -48 -13 17 -19 18 -36 8
-12 -7 -32 -13 -46 -13 -14 0 -28 -7 -31 -15 -5 -12 -10 -10 -24 8 -14 16 -12
8 6 -31 40 -83 43 -205 9 -297 -4 -11 4 -5 19 14 14 19 26 40 26 47 0 6 16 28
35 48 l35 37 -6 -33 c-4 -18 -18 -54 -32 -81 -27 -51 -127 -167 -144 -167 -6
0 -5 7 3 18 7 9 -9 -4 -37 -30 -27 -26 -80 -62 -119 -80 -63 -29 -79 -33 -160
-33 -100 0 -157 17 -235 68 -60 40 -127 121 -147 178 -13 37 -21 45 -35 41
-16 -4 -18 -1 -12 22 5 22 4 25 -12 19 -12 -4 -15 -3 -10 6 5 7 17 16 29 20
11 4 16 10 11 14 -6 3 -21 0 -35 -6 -31 -16 -38 -63 -12 -83 17 -14 16 -14 -4
-4 -13 6 -23 14 -23 19 0 4 -6 8 -14 8 -12 0 -11 -5 2 -26 10 -15 12 -22 4
-17 -18 11 -58 93 -77 161 -24 80 -17 237 14 317 51 132 188 261 326 304 50
16 68 17 60 4z"/>
<path d="M4914 2954 c-143 -52 -221 -237 -155 -365 53 -102 140 -159 243 -159
126 0 201 44 255 149 27 52 33 74 33 127 0 104 -56 196 -146 239 -51 25 -174
30 -230 9z"/>
</g>
</svg>
