<?xml version="1.0" standalone="no"?>
<!DOCTYPE svg PUBLIC "-//W3C//DTD SVG 20010904//EN"
 "http://www.w3.org/TR/2001/REC-SVG-20010904/DTD/svg10.dtd">
<svg version="1.0" xmlns="http://www.w3.org/2000/svg"
 width="602.000000pt" height="339.000000pt" viewBox="0 0 602.000000 339.000000"
 preserveAspectRatio="xMidYMid meet">
<metadata>
Created by potrace 1.15, written by Peter Selinger 2001-2017
</metadata>
<g transform="translate(0.000000,339.000000) scale(0.100000,-0.100000)"
fill="#000000" stroke="none">
<path d="M1128 2930 c-27 -17 -48 -34 -48 -39 0 -5 -3 -16 -6 -25 -5 -12 3
-17 35 -22 23 -4 41 -9 41 -13 -1 -3 -31 -27 -68 -54 -99 -70 -142 -109 -147
-134 -2 -12 -8 -30 -14 -40 -5 -11 -15 -66 -21 -123 -14 -134 -32 -196 -137
-454 -156 -387 -260 -664 -333 -891 -80 -246 -120 -391 -120 -437 0 -104 112
-209 265 -247 156 -40 307 -63 680 -105 250 -28 309 -33 632 -46 127 -5 287
-13 355 -17 248 -15 1096 -9 1424 10 171 10 322 20 335 22 13 2 60 6 104 10
420 33 810 87 1055 147 154 37 253 82 319 143 46 43 51 52 51 92 0 129 -145
551 -392 1143 -181 432 -204 497 -227 639 -26 161 -48 201 -161 295 -49 42
-114 94 -145 117 l-55 41 -87 -31 c-49 -18 -140 -52 -204 -78 -111 -43 -117
-47 -137 -87 -22 -46 -22 -87 -1 -218 12 -73 11 -79 -14 -150 -36 -98 -35
-143 3 -195 32 -43 58 -56 171 -87 106 -29 149 -93 432 -644 150 -291 177
-350 177 -387 0 -42 -3 -46 -45 -70 l-44 -26 -233 10 c-265 12 -668 45 -745
61 -57 12 -106 41 -134 80 -10 14 -29 70 -43 125 -42 174 -68 286 -72 322 -3
20 -7 39 -9 44 -3 4 -8 29 -10 56 -7 58 -18 116 -96 498 -23 111 -40 139 -98
155 -43 12 -533 12 -743 1 -194 -11 -214 -24 -233 -156 -3 -27 -19 -104 -35
-170 -15 -66 -58 -273 -94 -460 -67 -343 -85 -415 -115 -449 -28 -32 -89 -56
-169 -66 -176 -22 -589 -62 -752 -74 -324 -23 -332 -6 -152 351 60 121 134
274 162 339 28 65 67 144 85 174 18 30 46 82 63 115 38 77 55 91 142 121 86
29 184 95 200 134 13 31 10 74 -11 183 -12 60 -11 78 5 157 10 50 15 101 12
114 -3 14 -2 27 3 30 9 6 -17 66 -42 95 -8 9 -17 23 -20 32 -4 14 -18 16 -68
14 -75 -3 -89 1 -89 26 0 23 -19 31 -125 54 -44 10 -109 30 -144 46 -35 16
-64 29 -65 29 0 0 -22 -14 -48 -30z"/>
<path d="M4062 2074 c-13 -9 -34 -14 -47 -12 -24 5 -43 -16 -26 -27 5 -3 7
-24 5 -48 -2 -23 -2 -37 1 -31 4 8 17 2 37 -16 16 -15 47 -30 68 -34 21 -3 40
-11 42 -18 7 -19 37 -17 62 5 22 19 23 22 7 34 -15 12 -14 13 5 19 20 5 21 8
8 34 -8 15 -21 34 -29 40 -9 8 -13 21 -9 32 5 16 2 18 -23 12 -25 -7 -27 -6
-14 9 12 15 10 17 -26 17 -21 0 -49 -7 -61 -16z"/>
</g>
</svg>
