<?xml version="1.0" standalone="no"?>
<!DOCTYPE svg PUBLIC "-//W3C//DTD SVG 20010904//EN"
 "http://www.w3.org/TR/2001/REC-SVG-20010904/DTD/svg10.dtd">
<svg version="1.0" xmlns="http://www.w3.org/2000/svg"
 width="259.000000pt" height="194.000000pt" viewBox="0 0 259.000000 194.000000"
 preserveAspectRatio="xMidYMid meet">
<metadata>
Created by potrace 1.15, written by Peter Selinger 2001-2017
</metadata>
<g transform="translate(0.000000,194.000000) scale(0.100000,-0.100000)"
fill="#000000" stroke="none">
<path d="M0 970 l0 -970 498 0 498 0 12 108 c6 59 23 208 36 332 28 258 55
537 63 659 10 155 27 264 42 269 10 3 12 0 8 -11 -3 -9 1 -21 9 -27 8 -7 14
-25 14 -40 0 -16 3 -35 6 -44 8 -21 44 -21 44 0 0 8 5 12 11 8 7 -4 10 4 8 22
-3 42 10 66 32 59 12 -4 19 -2 19 6 0 14 132 9 380 -15 85 -9 165 -15 178 -16
29 0 28 -14 -3 -28 -14 -6 -25 -18 -25 -25 0 -8 -11 -19 -24 -25 -19 -8 -25
-21 -30 -59 -3 -26 -8 -59 -11 -73 -23 -116 -26 -163 -11 -179 9 -10 13 -21
10 -24 -8 -8 34 -25 73 -30 17 -2 32 -12 38 -25 5 -12 13 -22 17 -22 5 0 8
-14 8 -30 0 -17 4 -38 10 -48 9 -16 33 -74 70 -174 l18 -47 -30 -12 c-25 -10
-31 -10 -39 2 -5 8 -9 9 -9 3 0 -8 -15 -9 -52 -3 -74 13 -220 49 -241 60 -24
13 -37 3 -37 -27 0 -13 -4 -24 -10 -24 -5 0 -10 5 -10 10 0 6 -6 10 -14 10
-18 0 -26 22 -19 49 3 12 0 28 -7 36 -9 11 -14 65 -16 178 -3 159 -5 181 -21
262 -8 39 -9 40 -63 49 -30 4 -57 11 -60 15 -3 3 -12 6 -20 6 -8 0 -17 11 -21
25 l-7 25 -1 -27 c-1 -40 -31 -38 -31 1 0 17 -5 33 -11 37 -8 4 -9 0 -4 -15 4
-14 2 -21 -7 -21 -11 0 -11 -2 0 -9 11 -7 11 -9 -2 -14 -13 -5 -15 -34 -16
-193 0 -201 -7 -284 -22 -284 -6 0 -8 -10 -5 -21 7 -26 -13 -322 -22 -329 -3
-3 -7 -21 -7 -40 -1 -19 -8 -88 -16 -152 l-14 -118 252 0 252 0 -6 46 c-3 32
-1 49 8 54 11 7 11 11 0 24 -15 19 -17 18 37 45 26 13 61 21 91 21 32 0 54 5
62 15 7 8 21 15 32 15 10 0 46 9 79 20 63 21 204 49 250 50 15 0 39 10 54 21
25 21 27 25 20 78 -11 98 -65 345 -101 468 -50 170 -64 235 -61 290 2 47 -1
52 -54 112 l-55 62 -145 4 c-79 3 -250 15 -379 29 -129 13 -242 24 -250 23 -8
0 -58 5 -110 11 -52 6 -129 13 -170 16 -256 19 -555 47 -809 78 -80 9 -91 13
-70 21 l24 10 -22 4 c-13 3 -23 8 -23 13 0 4 17 4 37 -1 49 -11 53 -11 53 1 0
6 -15 10 -32 10 l-33 1 33 30 c24 21 31 35 27 49 -4 14 -2 20 9 20 9 0 16 7
16 15 0 8 -4 15 -10 15 -5 0 -10 7 -10 15 0 8 5 15 11 15 6 0 9 6 6 13 -5 14
23 67 36 67 8 0 4 -36 -9 -82 -7 -24 23 -38 57 -26 29 10 44 46 34 79 -5 15 0
20 24 25 28 6 31 10 31 45 0 28 -4 39 -15 39 -23 0 -18 10 23 46 l37 33 -197
1 -198 0 0 -970z m1363 -826 c-2 -6 10 -14 29 -18 29 -7 31 -9 13 -16 -17 -7
-17 -9 -2 -9 13 -1 17 -10 17 -42 l0 -41 -35 6 c-19 3 -51 9 -71 12 l-36 6 6
46 c3 24 6 51 6 58 0 8 13 12 39 11 24 -1 37 -6 34 -13z"/>
<path d="M545 1828 c-9 -28 -11 -37 -20 -115 l-8 -63 34 0 c19 0 43 -3 55 -6
19 -5 22 1 35 69 8 41 13 80 11 86 -2 6 -26 11 -53 11 -33 0 -48 4 -44 11 4 6
22 8 45 4 23 -4 41 -2 45 4 4 7 -6 11 -29 11 -19 0 -41 3 -49 6 -9 3 -17 -3
-22 -18z"/>
<path d="M2493 1744 c-78 -38 -111 -119 -82 -203 14 -40 33 -50 114 -57 l65
-6 0 146 c0 146 0 146 -23 146 -13 0 -46 -12 -74 -26z m77 -39 c-18 -22 -20
-70 -5 -127 15 -61 11 -68 -48 -68 -73 0 -110 78 -75 155 20 44 129 98 136 68
2 -8 -2 -20 -8 -28z"/>
<path d="M2557 1137 c-15 -12 -38 -39 -50 -61 -14 -24 -40 -49 -72 -66 -87
-48 -83 -34 -97 -395 -11 -299 -11 -326 6 -395 16 -66 17 -76 3 -84 -13 -8
-12 -12 7 -28 14 -12 15 -16 5 -12 -24 8 -29 -16 -12 -59 l15 -37 114 0 114 0
0 580 c0 319 -1 580 -2 580 -2 0 -16 -10 -31 -23z"/>
</g>
</svg>
