<svg width="6.407475984251968in" height="4.757475590551181in" viewBox="0 0 6.407475984251968 4.757475590551181" xmlns="http://www.w3.org/2000/svg" xmlnsXlink="http://www.w3.org/1999/xlink">
  <g transform="translate(0 4.757475590551181)">
    <g data-reactroot="" transform="scale(1, -1)"><g fill="none" stroke="rgb(-13,-13,-13)"><g transform="matrix(1,0,0,1,0.6651338582677175,0.7600507874015742)"><path class="outline" d="M 0 0.2683185236220472 C 0.14818822868530773 0.2683185236220472 0.2683185236220472 0.14818822868530773 0.2683185236220472 0 C 0.2683185236220472 -0.14818822868530773 0.14818822868530773 -0.2683185236220472 0 -0.2683185236220472 C -0.14818822868530773 -0.2683185236220472 -0.2683185236220472 -0.14818822868530773 -0.2683185236220472 0 C -0.2683185236220472 0.14818822868530773 -0.14818822868530773 0.2683185236220472 0 0.2683185236220472" stroke-width="0.01"></path></g></g><g fill="none" stroke="rgb(-13,-13,-13)"><g transform="matrix(1,0,0,1,5.9229767322834626,0.7600507874015731)"><path class="outline" d="M 0 0.2683185393700787 C 0.14818823738270537 0.2683185393700787 0.2683185393700787 0.14818823738270537 0.2683185393700787 0 C 0.2683185393700787 -0.14818823738270537 0.14818823738270537 -0.2683185393700787 0 -0.2683185393700787 C -0.14818823738270537 -0.2683185393700787 -0.2683185393700787 -0.14818823738270537 -0.2683185393700787 0 C -0.2683185393700787 0.14818823738270537 -0.14818823738270537 0.2683185393700787 0 0.2683185393700787" stroke-width="0.01"></path></g></g><g fill="none" stroke="rgb(255,255,255)"><g transform="matrix(6.123233995736766e-17,-1,1,6.123233995736766e-17,5.948173257874014,3.8480475196850388)"><path class="outline" d="M -0.3620232952755906 -0.1968503937007874 C -0.3620232952755906 -0.1968503937007874 0.3620232952755906 -0.1968503937007874 0.3620232952755906 -0.1968503937007874 C 0.4012617851752954 -0.1968503937007874 0.4330708661417323 -0.16504131273435052 0.4330708661417323 -0.12580282283464567 C 0.4330708661417323 -0.12580282283464567 0.4330708661417323 0.12580282283464567 0.4330708661417323 0.12580282283464567 C 0.4330708661417323 0.16504131273435052 0.4012617851752954 0.1968503937007874 0.3620232952755906 0.1968503937007874 C 0.3620232952755906 0.1968503937007874 -0.3620232952755906 0.1968503937007874 -0.3620232952755906 0.1968503937007874 C -0.4012617851752954 0.1968503937007874 -0.4330708661417323 0.16504131273435052 -0.4330708661417323 0.12580282283464567 C -0.4330708661417323 0.12580282283464567 -0.4330708661417323 -0.12580282283464567 -0.4330708661417323 -0.12580282283464567 C -0.4330708661417323 -0.16504131273435052 -0.4012617851752954 -0.1968503937007874 -0.3620232952755906 -0.1968503937007874" stroke-width="0.01"></path></g></g><g fill="none" stroke="rgb(255,255,255)"><g transform="matrix(6.123233995736766e-17,-1,1,6.123233995736766e-17,2.326126169291339,0.913893312992126)"><path class="outline" d="M -0.09099874763779525 -0.19685039370078738 C -0.09099874763779525 -0.19685039370078738 0.09099874763779525 -0.19685039370078738 0.09099874763779525 -0.19685039370078738 C 0.10923353343937679 -0.19685039370078738 0.12401574803149604 -0.18283478236607664 0.12401574803149604 -0.1655456496062992 C 0.12401574803149604 -0.1655456496062992 0.12401574803149604 0.1655456496062992 0.12401574803149604 0.1655456496062992 C 0.12401574803149604 0.18283478236607664 0.10923353343937679 0.19685039370078738 0.09099874763779525 0.19685039370078738 C 0.09099874763779525 0.19685039370078738 -0.09099874763779525 0.19685039370078738 -0.09099874763779525 0.19685039370078738 C -0.10923353343937679 0.19685039370078738 -0.12401574803149604 0.18283478236607664 -0.12401574803149604 0.1655456496062992 C -0.12401574803149604 0.1655456496062992 -0.12401574803149604 -0.1655456496062992 -0.12401574803149604 -0.1655456496062992 C -0.12401574803149604 -0.18283478236607664 -0.10923353343937679 -0.19685039370078738 -0.09099874763779525 -0.19685039370078738" stroke-width="0.01"></path></g></g><g fill="none" stroke="rgb(-13,-13,-13)"><g transform="matrix(1,0,0,1,0.6190350393700794,2.6407925196850375)"><path class="outline" d="M 0 0.12521530708661416 C 0.06915450454546086 0.12521530708661416 0.12521530708661416 0.06915450454546086 0.12521530708661416 0 C 0.12521530708661416 -0.06915450454546086 0.06915450454546086 -0.12521530708661416 0 -0.12521530708661416 C -0.06915450454546086 -0.12521530708661416 -0.12521530708661416 -0.06915450454546086 -0.12521530708661416 0 C -0.12521530708661416 0.06915450454546086 -0.06915450454546086 0.12521530708661416 0 0.12521530708661416" stroke-width="0.01"></path></g></g><g fill="none" stroke="rgb(-13,-13,-13)"><g transform="matrix(1,0,0,1,0.5979438976377951,3.6886696850393697)"><path class="outline" d="M 0 0.12521531496062993 C 0.0691545088941597 0.12521531496062993 0.12521531496062993 0.0691545088941597 0.12521531496062993 0 C 0.12521531496062993 -0.0691545088941597 0.0691545088941597 -0.12521531496062993 0 -0.12521531496062993 C -0.0691545088941597 -0.12521531496062993 -0.12521531496062993 -0.0691545088941597 -0.12521531496062993 0 C -0.12521531496062993 0.0691545088941597 -0.0691545088941597 0.12521531496062993 0 0.12521531496062993" stroke-width="0.01"></path></g></g><g fill="none" stroke="rgb(255,255,255)"><g transform="matrix(1,0,0,1,3.332927874015748,2.885429901574803)"><path class="outline" d="M -2.0619502098425198 -1.259367342519685 C -2.0619502098425198 -1.259367342519685 2.0619502098425198 -1.259367342519685 2.0619502098425198 -1.259367342519685 C 2.080745278955636 -1.259367342519685 2.095981692913386 -1.2476445916762 2.095981692913386 -1.2331838456692912 C 2.095981692913386 -1.2331838456692912 2.095981692913386 1.2331838456692912 2.095981692913386 1.2331838456692912 C 2.095981692913386 1.2476445916762 2.080745278955636 1.259367342519685 2.0619502098425198 1.259367342519685 C 2.0619502098425198 1.259367342519685 -2.0619502098425198 1.259367342519685 -2.0619502098425198 1.259367342519685 C -2.080745278955636 1.259367342519685 -2.095981692913386 1.2476445916762 -2.095981692913386 1.2331838456692912 C -2.095981692913386 1.2331838456692912 -2.095981692913386 -1.2331838456692912 -2.095981692913386 -1.2331838456692912 C -2.095981692913386 -1.2476445916762 -2.080745278955636 -1.259367342519685 -2.0619502098425198 -1.259367342519685" stroke-width="0.01"></path></g></g><g fill="none" stroke="rgb(255,255,255)"><g transform="matrix(1,0,0,1,3.303022559055118,0.46740826771653576)"><path class="outline" d="M 0 0.06453617322834646 C 0.035642344284466776 0.06453617322834646 0.06453617322834646 0.035642344284466776 0.06453617322834646 0 C 0.06453617322834646 -0.035642344284466776 0.035642344284466776 -0.06453617322834646 0 -0.06453617322834646 C -0.035642344284466776 -0.06453617322834646 -0.06453617322834646 -0.035642344284466776 -0.06453617322834646 0 C -0.06453617322834646 0.035642344284466776 -0.035642344284466776 0.06453617322834646 0 0.06453617322834646" stroke-width="0.01"></path></g></g><g fill="none" stroke="rgb(255,255,255)"><g transform="matrix(1,0,0,1,2.2362275787401558,0.5240254901574796)"><path class="outline" d="M -0.5185175708661416 -0.08101899803149606 C -0.5185175708661416 -0.08101899803149606 0.5185175708661416 -0.08101899803149606 0.5185175708661416 -0.08101899803149606 C 0.5277634090008327 -0.08101899803149606 0.5352586417322833 -0.07102523870041136 0.5352586417322833 -0.058697311811023625 C 0.5352586417322833 -0.058697311811023625 0.5352586417322833 0.058697311811023625 0.5352586417322833 0.058697311811023625 C 0.5352586417322833 0.07102523870041136 0.5277634090008327 0.08101899803149606 0.5185175708661416 0.08101899803149606 C 0.5185175708661416 0.08101899803149606 -0.5185175708661416 0.08101899803149606 -0.5185175708661416 0.08101899803149606 C -0.5277634090008327 0.08101899803149606 -0.5352586417322833 0.07102523870041136 -0.5352586417322833 0.058697311811023625 C -0.5352586417322833 0.058697311811023625 -0.5352586417322833 -0.058697311811023625 -0.5352586417322833 -0.058697311811023625 C -0.5352586417322833 -0.07102523870041136 -0.5277634090008327 -0.08101899803149606 -0.5185175708661416 -0.08101899803149606" stroke-width="0.01"></path></g></g><g fill="none" stroke="rgb(255,255,255)"><g transform="matrix(1,0,0,1,4.388228681102359,0.5237428129921259)"><path class="outline" d="M -0.5185175708661416 -0.08101899803149606 C -0.5185175708661416 -0.08101899803149606 0.5185175708661416 -0.08101899803149606 0.5185175708661416 -0.08101899803149606 C 0.5277634090008327 -0.08101899803149606 0.5352586417322833 -0.07102523870041136 0.5352586417322833 -0.058697311811023625 C 0.5352586417322833 -0.058697311811023625 0.5352586417322833 0.058697311811023625 0.5352586417322833 0.058697311811023625 C 0.5352586417322833 0.07102523870041136 0.5277634090008327 0.08101899803149606 0.5185175708661416 0.08101899803149606 C 0.5185175708661416 0.08101899803149606 -0.5185175708661416 0.08101899803149606 -0.5185175708661416 0.08101899803149606 C -0.5277634090008327 0.08101899803149606 -0.5352586417322833 0.07102523870041136 -0.5352586417322833 0.058697311811023625 C -0.5352586417322833 0.058697311811023625 -0.5352586417322833 -0.058697311811023625 -0.5352586417322833 -0.058697311811023625 C -0.5352586417322833 -0.07102523870041136 -0.5277634090008327 -0.08101899803149606 -0.5185175708661416 -0.08101899803149606" stroke-width="0.01"></path></g></g><g fill="none" stroke="rgb(-13,-13,-13)"><g transform="matrix(1,0,0,1,3.3021631889763774,2.4771629921259843)"><path class="outline" d="M -3.0265726377952755 -2.280312598425197 C -3.0265726377952755 -2.280312598425197 3.0265726377952755 -2.280312598425197 3.0265726377952755 -2.280312598425197 C 3.070059625968504 -2.280312598425197 3.1053127952755903 -2.2450594291181103 3.1053127952755903 -2.201572440944882 C 3.1053127952755903 -2.201572440944882 3.1053127952755903 2.201572440944882 3.1053127952755903 2.201572440944882 C 3.1053127952755903 2.2450594291181103 3.070059625968504 2.280312598425197 3.0265726377952755 2.280312598425197 C 3.0265726377952755 2.280312598425197 -3.0265726377952755 2.280312598425197 -3.0265726377952755 2.280312598425197 C -3.070059625968504 2.280312598425197 -3.1053127952755903 2.2450594291181103 -3.1053127952755903 2.201572440944882 C -3.1053127952755903 2.201572440944882 -3.1053127952755903 -2.201572440944882 -3.1053127952755903 -2.201572440944882 C -3.1053127952755903 -2.2450594291181103 -3.070059625968504 -2.280312598425197 -3.0265726377952755 -2.280312598425197" stroke-width="0.01"></path></g></g><g fill="none" stroke="rgb(-13,-13,-13)"><g transform="matrix(1,0,0,1,0.6651338582677175,0.7600507874015742)"><path class="outline" d="M 0 0.2683185236220472 C 0.14818822868530773 0.2683185236220472 0.2683185236220472 0.14818822868530773 0.2683185236220472 0 C 0.2683185236220472 -0.14818822868530773 0.14818822868530773 -0.2683185236220472 0 -0.2683185236220472 C -0.14818822868530773 -0.2683185236220472 -0.2683185236220472 -0.14818822868530773 -0.2683185236220472 0 C -0.2683185236220472 0.14818822868530773 -0.14818822868530773 0.2683185236220472 0 0.2683185236220472" stroke-width="0.01"></path></g></g><g fill="none" stroke="rgb(-13,-13,-13)"><g transform="matrix(1,0,0,1,5.9229767322834626,0.7600507874015731)"><path class="outline" d="M 0 0.2683185393700787 C 0.14818823738270537 0.2683185393700787 0.2683185393700787 0.14818823738270537 0.2683185393700787 0 C 0.2683185393700787 -0.14818823738270537 0.14818823738270537 -0.2683185393700787 0 -0.2683185393700787 C -0.14818823738270537 -0.2683185393700787 -0.2683185393700787 -0.14818823738270537 -0.2683185393700787 0 C -0.2683185393700787 0.14818823738270537 -0.14818823738270537 0.2683185393700787 0 0.2683185393700787" stroke-width="0.01"></path></g></g><g fill="none" stroke="rgb(255,255,255)"><g transform="matrix(1,0,0,1,0.8435438917322837,4.161747468503934)"><path class="outline" d="M -0.09099874763779525 -0.19685039370078738 C -0.09099874763779525 -0.19685039370078738 0.09099874763779525 -0.19685039370078738 0.09099874763779525 -0.19685039370078738 C 0.10923353343937679 -0.19685039370078738 0.12401574803149604 -0.18283478324740587 0.12401574803149604 -0.16554565157480314 C 0.12401574803149604 -0.16554565157480314 0.12401574803149604 0.16554565157480314 0.12401574803149604 0.16554565157480314 C 0.12401574803149604 0.18283478324740587 0.10923353343937679 0.19685039370078738 0.09099874763779525 0.19685039370078738 C 0.09099874763779525 0.19685039370078738 -0.09099874763779525 0.19685039370078738 -0.09099874763779525 0.19685039370078738 C -0.10923353343937679 0.19685039370078738 -0.12401574803149604 0.18283478324740587 -0.12401574803149604 0.16554565157480314 C -0.12401574803149604 0.16554565157480314 -0.12401574803149604 -0.16554565157480314 -0.12401574803149604 -0.16554565157480314 C -0.12401574803149604 -0.18283478324740587 -0.10923353343937679 -0.19685039370078738 -0.09099874763779525 -0.19685039370078738" stroke-width="0.01"></path></g></g><g fill="none" stroke="rgb(255,255,255)"><g transform="matrix(1,0,0,1,0.8829139704724409,3.1183951675183885)"><path class="outline" d="M -0.09099874763779525 -0.19685039370078738 C -0.09099874763779525 -0.19685039370078738 0.09099874763779525 -0.19685039370078738 0.09099874763779525 -0.19685039370078738 C 0.10923353343937678 -0.19685039370078738 0.12401574803149604 -0.18283478236607664 0.12401574803149604 -0.1655456496062992 C 0.12401574803149604 -0.1655456496062992 0.12401574803149604 0.1655456496062992 0.12401574803149604 0.1655456496062992 C 0.12401574803149604 0.18283478236607664 0.10923353343937678 0.19685039370078738 0.09099874763779525 0.19685039370078738 C 0.09099874763779525 0.19685039370078738 -0.09099874763779525 0.19685039370078738 -0.09099874763779525 0.19685039370078738 C -0.10923353343937678 0.19685039370078738 -0.12401574803149604 0.18283478236607664 -0.12401574803149604 0.1655456496062992 C -0.12401574803149604 0.1655456496062992 -0.12401574803149604 -0.1655456496062992 -0.12401574803149604 -0.1655456496062992 C -0.12401574803149604 -0.18283478236607664 -0.10923353343937678 -0.19685039370078738 -0.09099874763779525 -0.19685039370078738" stroke-width="0.01"></path></g></g><g fill="none" stroke="rgb(255,255,255)"><g transform="matrix(6.123233995736766e-17,-1,1,6.123233995736766e-17,5.948173807086613,2.331216147637796)"><path class="outline" d="M -0.09001449566929134 -0.19685039370078738 C -0.09001449566929134 -0.19685039370078738 0.09001449566929134 -0.19685039370078738 0.09001449566929134 -0.19685039370078738 C 0.10824928147087289 -0.19685039370078738 0.12303149606299213 -0.18283478236607664 0.12303149606299213 -0.1655456496062992 C 0.12303149606299213 -0.1655456496062992 0.12303149606299213 0.1655456496062992 0.12303149606299213 0.1655456496062992 C 0.12303149606299213 0.18283478236607664 0.10824928147087289 0.19685039370078738 0.09001449566929134 0.19685039370078738 C 0.09001449566929134 0.19685039370078738 -0.09001449566929134 0.19685039370078738 -0.09001449566929134 0.19685039370078738 C -0.10824928147087289 0.19685039370078738 -0.12303149606299213 0.18283478236607664 -0.12303149606299213 0.1655456496062992 C -0.12303149606299213 0.1655456496062992 -0.12303149606299213 -0.1655456496062992 -0.12303149606299213 -0.1655456496062992 C -0.12303149606299213 -0.18283478236607664 -0.10824928147087289 -0.19685039370078738 -0.09001449566929134 -0.19685039370078738" stroke-width="0.01"></path></g></g><g fill="none" stroke="rgb(255,255,255)"><g transform="matrix(6.123233995736766e-17,-1,1,6.123233995736766e-17,5.948173807086613,2.7249169350393685)"><path class="outline" d="M -0.09099874763779525 -0.19685039370078738 C -0.09099874763779525 -0.19685039370078738 0.09099874763779525 -0.19685039370078738 0.09099874763779525 -0.19685039370078738 C 0.10923353343937678 -0.19685039370078738 0.12401574803149604 -0.18283478236607664 0.12401574803149604 -0.1655456496062992 C 0.12401574803149604 -0.1655456496062992 0.12401574803149604 0.1655456496062992 0.12401574803149604 0.1655456496062992 C 0.12401574803149604 0.18283478236607664 0.10923353343937678 0.19685039370078738 0.09099874763779525 0.19685039370078738 C 0.09099874763779525 0.19685039370078738 -0.09099874763779525 0.19685039370078738 -0.09099874763779525 0.19685039370078738 C -0.10923353343937678 0.19685039370078738 -0.12401574803149604 0.18283478236607664 -0.12401574803149604 0.1655456496062992 C -0.12401574803149604 0.1655456496062992 -0.12401574803149604 -0.1655456496062992 -0.12401574803149604 -0.1655456496062992 C -0.12401574803149604 -0.18283478236607664 -0.10923353343937678 -0.19685039370078738 -0.09099874763779525 -0.19685039370078738" stroke-width="0.01"></path></g></g><g fill="none" stroke="rgb(255,255,255)"><g transform="matrix(6.123233995736766e-17,-1,1,6.123233995736766e-17,5.948173807086614,3.1186177224409444)"><path class="outline" d="M -0.09001449566929134 -0.19685039370078738 C -0.09001449566929134 -0.19685039370078738 0.09001449566929134 -0.19685039370078738 0.09001449566929134 -0.19685039370078738 C 0.10824928147087289 -0.19685039370078738 0.12303149606299213 -0.18283478236607664 0.12303149606299213 -0.1655456496062992 C 0.12303149606299213 -0.1655456496062992 0.12303149606299213 0.1655456496062992 0.12303149606299213 0.1655456496062992 C 0.12303149606299213 0.18283478236607664 0.10824928147087289 0.19685039370078738 0.09001449566929134 0.19685039370078738 C 0.09001449566929134 0.19685039370078738 -0.09001449566929134 0.19685039370078738 -0.09001449566929134 0.19685039370078738 C -0.10824928147087289 0.19685039370078738 -0.12303149606299213 0.18283478236607664 -0.12303149606299213 0.1655456496062992 C -0.12303149606299213 0.1655456496062992 -0.12303149606299213 -0.1655456496062992 -0.12303149606299213 -0.1655456496062992 C -0.12303149606299213 -0.18283478236607664 -0.10824928147087289 -0.19685039370078738 -0.09001449566929134 -0.19685039370078738" stroke-width="0.01"></path></g></g><g fill="none" stroke="rgb(255,255,255)"><g transform="matrix(6.123233995736766e-17,-1,1,6.123233995736766e-17,5.948173807086613,1.8981452814960629)"><path class="outline" d="M -0.09099874763779525 -0.19685039370078738 C -0.09099874763779525 -0.19685039370078738 0.09099874763779525 -0.19685039370078738 0.09099874763779525 -0.19685039370078738 C 0.10923353343937678 -0.19685039370078738 0.12401574803149604 -0.18283478236607664 0.12401574803149604 -0.1655456496062992 C 0.12401574803149604 -0.1655456496062992 0.12401574803149604 0.1655456496062992 0.12401574803149604 0.1655456496062992 C 0.12401574803149604 0.18283478236607664 0.10923353343937678 0.19685039370078738 0.09099874763779525 0.19685039370078738 C 0.09099874763779525 0.19685039370078738 -0.09099874763779525 0.19685039370078738 -0.09099874763779525 0.19685039370078738 C -0.10923353343937678 0.19685039370078738 -0.12401574803149604 0.18283478236607664 -0.12401574803149604 0.1655456496062992 C -0.12401574803149604 0.1655456496062992 -0.12401574803149604 -0.1655456496062992 -0.12401574803149604 -0.1655456496062992 C -0.12401574803149604 -0.18283478236607664 -0.10923353343937678 -0.19685039370078738 -0.09099874763779525 -0.19685039370078738" stroke-width="0.01"></path></g></g><g fill="none" stroke="rgb(255,255,255)"><g transform="matrix(6.123233995736766e-17,-1,1,6.123233995736766e-17,1.6785788510884663,0.913893312992126)"><path class="outline" d="M -0.09099874763779525 -0.19685039370078738 C -0.09099874763779525 -0.19685039370078738 0.09099874763779525 -0.19685039370078738 0.09099874763779525 -0.19685039370078738 C 0.10923353343937678 -0.19685039370078738 0.12401574803149604 -0.18283478236607664 0.12401574803149604 -0.1655456496062992 C 0.12401574803149604 -0.1655456496062992 0.12401574803149604 0.1655456496062992 0.12401574803149604 0.1655456496062992 C 0.12401574803149604 0.18283478236607664 0.10923353343937678 0.19685039370078738 0.09099874763779525 0.19685039370078738 C 0.09099874763779525 0.19685039370078738 -0.09099874763779525 0.19685039370078738 -0.09099874763779525 0.19685039370078738 C -0.10923353343937678 0.19685039370078738 -0.12401574803149604 0.18283478236607664 -0.12401574803149604 0.1655456496062992 C -0.12401574803149604 0.1655456496062992 -0.12401574803149604 -0.1655456496062992 -0.12401574803149604 -0.1655456496062992 C -0.12401574803149604 -0.18283478236607664 -0.10923353343937678 -0.19685039370078738 -0.09099874763779525 -0.19685039370078738" stroke-width="0.01"></path></g></g><g fill="none" stroke="rgb(255,255,255)"><g transform="matrix(6.123233995736766e-17,-1,1,6.123233995736766e-17,2.9757324685039377,0.913893312992126)"><path class="outline" d="M -0.09099874763779525 -0.19685039370078738 C -0.09099874763779525 -0.19685039370078738 0.09099874763779525 -0.19685039370078738 0.09099874763779525 -0.19685039370078738 C 0.10923353343937678 -0.19685039370078738 0.12401574803149604 -0.18283478236607664 0.12401574803149604 -0.1655456496062992 C 0.12401574803149604 -0.1655456496062992 0.12401574803149604 0.1655456496062992 0.12401574803149604 0.1655456496062992 C 0.12401574803149604 0.18283478236607664 0.10923353343937678 0.19685039370078738 0.09099874763779525 0.19685039370078738 C 0.09099874763779525 0.19685039370078738 -0.09099874763779525 0.19685039370078738 -0.09099874763779525 0.19685039370078738 C -0.10923353343937678 0.19685039370078738 -0.12401574803149604 0.18283478236607664 -0.12401574803149604 0.1655456496062992 C -0.12401574803149604 0.1655456496062992 -0.12401574803149604 -0.1655456496062992 -0.12401574803149604 -0.1655456496062992 C -0.12401574803149604 -0.18283478236607664 -0.10923353343937678 -0.19685039370078738 -0.09099874763779525 -0.19685039370078738" stroke-width="0.01"></path></g></g><g fill="none" stroke="rgb(255,255,255)"><g transform="matrix(6.123233995736766e-17,-1,1,6.123233995736766e-17,3.6253387677165363,0.913893312992126)"><path class="outline" d="M -0.09099874763779525 -0.19685039370078738 C -0.09099874763779525 -0.19685039370078738 0.09099874763779525 -0.19685039370078738 0.09099874763779525 -0.19685039370078738 C 0.10923353343937678 -0.19685039370078738 0.12401574803149604 -0.18283478236607664 0.12401574803149604 -0.1655456496062992 C 0.12401574803149604 -0.1655456496062992 0.12401574803149604 0.1655456496062992 0.12401574803149604 0.1655456496062992 C 0.12401574803149604 0.18283478236607664 0.10923353343937678 0.19685039370078738 0.09099874763779525 0.19685039370078738 C 0.09099874763779525 0.19685039370078738 -0.09099874763779525 0.19685039370078738 -0.09099874763779525 0.19685039370078738 C -0.10923353343937678 0.19685039370078738 -0.12401574803149604 0.18283478236607664 -0.12401574803149604 0.1655456496062992 C -0.12401574803149604 0.1655456496062992 -0.12401574803149604 -0.1655456496062992 -0.12401574803149604 -0.1655456496062992 C -0.12401574803149604 -0.18283478236607664 -0.10923353343937678 -0.19685039370078738 -0.09099874763779525 -0.19685039370078738" stroke-width="0.01"></path></g></g><g fill="none" stroke="rgb(255,255,255)"><g transform="matrix(6.123233995736766e-17,-1,1,6.123233995736766e-17,4.274945066929132,0.9159521365215377)"><path class="outline" d="M -0.09099874763779525 -0.19685039370078738 C -0.09099874763779525 -0.19685039370078738 0.09099874763779525 -0.19685039370078738 0.09099874763779525 -0.19685039370078738 C 0.10923353343937679 -0.19685039370078738 0.12401574803149604 -0.18283478236607664 0.12401574803149604 -0.1655456496062992 C 0.12401574803149604 -0.1655456496062992 0.12401574803149604 0.1655456496062992 0.12401574803149604 0.1655456496062992 C 0.12401574803149604 0.18283478236607664 0.10923353343937679 0.19685039370078738 0.09099874763779525 0.19685039370078738 C 0.09099874763779525 0.19685039370078738 -0.09099874763779525 0.19685039370078738 -0.09099874763779525 0.19685039370078738 C -0.10923353343937679 0.19685039370078738 -0.12401574803149604 0.18283478236607664 -0.12401574803149604 0.1655456496062992 C -0.12401574803149604 0.1655456496062992 -0.12401574803149604 -0.1655456496062992 -0.12401574803149604 -0.1655456496062992 C -0.12401574803149604 -0.18283478236607664 -0.10923353343937679 -0.19685039370078738 -0.09099874763779525 -0.19685039370078738" stroke-width="0.01"></path></g></g><g fill="none" stroke="rgb(255,255,255)"><g transform="matrix(6.123233995736766e-17,-1,1,6.123233995736766e-17,4.92455175984252,0.9138933129921257)"><path class="outline" d="M -0.09099874763779525 -0.19685039370078738 C -0.09099874763779525 -0.19685039370078738 0.09099874763779525 -0.19685039370078738 0.09099874763779525 -0.19685039370078738 C 0.10923353343937679 -0.19685039370078738 0.12401574803149604 -0.18283478236607664 0.12401574803149604 -0.1655456496062992 C 0.12401574803149604 -0.1655456496062992 0.12401574803149604 0.1655456496062992 0.12401574803149604 0.1655456496062992 C 0.12401574803149604 0.18283478236607664 0.10923353343937679 0.19685039370078738 0.09099874763779525 0.19685039370078738 C 0.09099874763779525 0.19685039370078738 -0.09099874763779525 0.19685039370078738 -0.09099874763779525 0.19685039370078738 C -0.10923353343937679 0.19685039370078738 -0.12401574803149604 0.18283478236607664 -0.12401574803149604 0.1655456496062992 C -0.12401574803149604 0.1655456496062992 -0.12401574803149604 -0.1655456496062992 -0.12401574803149604 -0.1655456496062992 C -0.12401574803149604 -0.18283478236607664 -0.10923353343937679 -0.19685039370078738 -0.09099874763779525 -0.19685039370078738" stroke-width="0.01"></path></g></g><g fill="none" stroke="rgb(-13,-13,-13)"><g transform="matrix(1,0,0,1,0.6190350393700794,2.6407925196850375)"><path class="outline" d="M 0 0.13385826771653542 C 0.06915450454546086 0.13385826771653542 0.12521530708661416 0.07392787989448818 0.12521530708661416 0 C 0.12521530708661416 -0.07392787989448818 0.06915450454546086 -0.13385826771653542 0 -0.13385826771653542 C -0.06915450454546086 -0.13385826771653542 -0.12521530708661416 -0.07392787989448818 -0.12521530708661416 0 C -0.12521530708661416 0.07392787989448818 -0.06915450454546086 0.13385826771653542 0 0.13385826771653542" stroke-width="0.01"></path></g></g><g fill="none" stroke="rgb(-13,-13,-13)"><g transform="matrix(1,0,0,1,0.5979438976377951,3.6886696850393697)"><path class="outline" d="M 0 0.13385826771653542 C 0.07392787989448818 0.13385826771653542 0.13385826771653542 0.07392787989448818 0.13385826771653542 0 C 0.13385826771653542 -0.07392787989448818 0.07392787989448818 -0.13385826771653542 0 -0.13385826771653542 C -0.07392787989448818 -0.13385826771653542 -0.13385826771653542 -0.07392787989448818 -0.13385826771653542 0 C -0.13385826771653542 0.07392787989448818 -0.07392787989448818 0.13385826771653542 0 0.13385826771653542" stroke-width="0.01"></path></g></g><g fill="none" stroke="rgb(-13,-13,-13)"><g transform="matrix(1,0,0,1,3.332927874015748,2.885429901574803)"><path class="outline" d="M -2.3577008003937006 -1.5374015748031493 C -2.3577008003937006 -1.5374015748031493 2.3577008003937006 -1.5374015748031493 2.3577008003937006 -1.5374015748031493 C 2.376495869506817 -1.5374015748031493 2.3917322834645667 -1.5256788239596644 2.3917322834645667 -1.5112180779527555 C 2.3917322834645667 -1.5112180779527555 2.3917322834645667 1.5112180779527555 2.3917322834645667 1.5112180779527555 C 2.3917322834645667 1.5256788239596644 2.376495869506817 1.5374015748031493 2.3577008003937006 1.5374015748031493 C 2.3577008003937006 1.5374015748031493 -2.3577008003937006 1.5374015748031493 -2.3577008003937006 1.5374015748031493 C -2.376495869506817 1.5374015748031493 -2.3917322834645667 1.5256788239596644 -2.3917322834645667 1.5112180779527555 C -2.3917322834645667 1.5112180779527555 -2.3917322834645667 -1.5112180779527555 -2.3917322834645667 -1.5112180779527555 C -2.3917322834645667 -1.5256788239596644 -2.376495869506817 -1.5374015748031493 -2.3577008003937006 -1.5374015748031493" stroke-width="0.01"></path></g></g><g fill="none" stroke="rgb(255,255,255)"><g transform="matrix(1,0,0,1,3.303022559055118,0.46740826771653576)"><path class="outline" d="M 0 0.06453617322834646 C 0.035642344284466776 0.06453617322834646 0.06453617322834646 0.035642344284466776 0.06453617322834646 0 C 0.06453617322834646 -0.035642344284466776 0.035642344284466776 -0.06453617322834646 0 -0.06453617322834646 C -0.035642344284466776 -0.06453617322834646 -0.06453617322834646 -0.035642344284466776 -0.06453617322834646 0 C -0.06453617322834646 0.035642344284466776 -0.035642344284466776 0.06453617322834646 0 0.06453617322834646" stroke-width="0.01"></path></g></g><g fill="none" stroke="rgb(255,255,255)"><g transform="matrix(1,0,0,1,2.2362275787401558,0.5240254901574796)"><path class="outline" d="M -0.5185175708661416 -0.08101899803149606 C -0.5185175708661416 -0.08101899803149606 0.5185175708661416 -0.08101899803149606 0.5185175708661416 -0.08101899803149606 C 0.5277634090008327 -0.08101899803149606 0.5352586417322833 -0.07102523870041136 0.5352586417322833 -0.058697311811023625 C 0.5352586417322833 -0.058697311811023625 0.5352586417322833 0.058697311811023625 0.5352586417322833 0.058697311811023625 C 0.5352586417322833 0.07102523870041136 0.5277634090008327 0.08101899803149606 0.5185175708661416 0.08101899803149606 C 0.5185175708661416 0.08101899803149606 -0.5185175708661416 0.08101899803149606 -0.5185175708661416 0.08101899803149606 C -0.5277634090008327 0.08101899803149606 -0.5352586417322833 0.07102523870041136 -0.5352586417322833 0.058697311811023625 C -0.5352586417322833 0.058697311811023625 -0.5352586417322833 -0.058697311811023625 -0.5352586417322833 -0.058697311811023625 C -0.5352586417322833 -0.07102523870041136 -0.5277634090008327 -0.08101899803149606 -0.5185175708661416 -0.08101899803149606" stroke-width="0.01"></path></g></g><g fill="none" stroke="rgb(255,255,255)"><g transform="matrix(1,0,0,1,4.388228681102359,0.5237428129921259)"><path class="outline" d="M -0.5185175708661416 -0.08101899803149606 C -0.5185175708661416 -0.08101899803149606 0.5185175708661416 -0.08101899803149606 0.5185175708661416 -0.08101899803149606 C 0.5277634090008327 -0.08101899803149606 0.5352586417322833 -0.07102523870041136 0.5352586417322833 -0.058697311811023625 C 0.5352586417322833 -0.058697311811023625 0.5352586417322833 0.058697311811023625 0.5352586417322833 0.058697311811023625 C 0.5352586417322833 0.07102523870041136 0.5277634090008327 0.08101899803149606 0.5185175708661416 0.08101899803149606 C 0.5185175708661416 0.08101899803149606 -0.5185175708661416 0.08101899803149606 -0.5185175708661416 0.08101899803149606 C -0.5277634090008327 0.08101899803149606 -0.5352586417322833 0.07102523870041136 -0.5352586417322833 0.058697311811023625 C -0.5352586417322833 0.058697311811023625 -0.5352586417322833 -0.058697311811023625 -0.5352586417322833 -0.058697311811023625 C -0.5352586417322833 -0.07102523870041136 -0.5277634090008327 -0.08101899803149606 -0.5185175708661416 -0.08101899803149606" stroke-width="0.01"></path></g></g><g fill="none" stroke="rgb(-13,-13,-13)"><g transform="matrix(6.123233995736766e-17,1,-1,6.123233995736766e-17,0.8031496062992123,3.1181102362204727)"><path class="outline" d="M -0.13976377952755906 -0.12007874015748031 C -0.13976377952755906 -0.12007874015748031 0.13976377952755906 -0.12007874015748031 0.13976377952755906 -0.12007874015748031 C 0.13976377952755906 -0.12007874015748031 0.13976377952755906 0.12007874015748031 0.13976377952755906 0.12007874015748031 C 0.13976377952755906 0.12007874015748031 -0.13976377952755906 0.12007874015748031 -0.13976377952755906 0.12007874015748031 C -0.13976377952755906 0.12007874015748031 -0.13976377952755906 -0.12007874015748031 -0.13976377952755906 -0.12007874015748031" stroke-width="0.01"></path></g></g><g fill="none" stroke="rgb(-13,-13,-13)"><g transform="matrix(6.123233995736766e-17,1,-1,6.123233995736766e-17,0.8025724236869265,4.161417322834645)"><path class="outline" d="M -0.13976377952755906 -0.12007874015748031 C -0.13976377952755906 -0.12007874015748031 0.13976377952755906 -0.12007874015748031 0.13976377952755906 -0.12007874015748031 C 0.13976377952755906 -0.12007874015748031 0.13976377952755906 0.12007874015748031 0.13976377952755906 0.12007874015748031 C 0.13976377952755906 0.12007874015748031 -0.13976377952755906 0.12007874015748031 -0.13976377952755906 0.12007874015748031 C -0.13976377952755906 0.12007874015748031 -0.13976377952755906 -0.12007874015748031 -0.13976377952755906 -0.12007874015748031" stroke-width="0.01"></path></g></g><g fill="none" stroke="rgb(-13,-13,-13)"><g transform="matrix(1,0,0,1,1.6771653543307088,0.9131018235934654)"><path class="outline" d="M -0.13976377952755906 -0.12007874015748031 C -0.13976377952755906 -0.12007874015748031 0.13976377952755906 -0.12007874015748031 0.13976377952755906 -0.12007874015748031 C 0.13976377952755906 -0.12007874015748031 0.13976377952755906 0.12007874015748031 0.13976377952755906 0.12007874015748031 C 0.13976377952755906 0.12007874015748031 -0.13976377952755906 0.12007874015748031 -0.13976377952755906 0.12007874015748031 C -0.13976377952755906 0.12007874015748031 -0.13976377952755906 -0.12007874015748031 -0.13976377952755906 -0.12007874015748031" stroke-width="0.01"></path></g></g><g fill="none" stroke="rgb(-13,-13,-13)"><g transform="matrix(1,0,0,1,2.326771653543307,0.9131018235934654)"><path class="outline" d="M -0.13976377952755906 -0.12007874015748031 C -0.13976377952755906 -0.12007874015748031 0.13976377952755906 -0.12007874015748031 0.13976377952755906 -0.12007874015748031 C 0.13976377952755906 -0.12007874015748031 0.13976377952755906 0.12007874015748031 0.13976377952755906 0.12007874015748031 C 0.13976377952755906 0.12007874015748031 -0.13976377952755906 0.12007874015748031 -0.13976377952755906 0.12007874015748031 C -0.13976377952755906 0.12007874015748031 -0.13976377952755906 -0.12007874015748031 -0.13976377952755906 -0.12007874015748031" stroke-width="0.01"></path></g></g><g fill="none" stroke="rgb(-13,-13,-13)"><g transform="matrix(1,0,0,1,2.976377952755905,0.9131018235934654)"><path class="outline" d="M -0.13976377952755906 -0.12007874015748031 C -0.13976377952755906 -0.12007874015748031 0.13976377952755906 -0.12007874015748031 0.13976377952755906 -0.12007874015748031 C 0.13976377952755906 -0.12007874015748031 0.13976377952755906 0.12007874015748031 0.13976377952755906 0.12007874015748031 C 0.13976377952755906 0.12007874015748031 -0.13976377952755906 0.12007874015748031 -0.13976377952755906 0.12007874015748031 C -0.13976377952755906 0.12007874015748031 -0.13976377952755906 -0.12007874015748031 -0.13976377952755906 -0.12007874015748031" stroke-width="0.01"></path></g></g><g fill="none" stroke="rgb(-13,-13,-13)"><g transform="matrix(1,0,0,1,3.6259842519685037,0.9131018235934654)"><path class="outline" d="M -0.13976377952755906 -0.12007874015748031 C -0.13976377952755906 -0.12007874015748031 0.13976377952755906 -0.12007874015748031 0.13976377952755906 -0.12007874015748031 C 0.13976377952755906 -0.12007874015748031 0.13976377952755906 0.12007874015748031 0.13976377952755906 0.12007874015748031 C 0.13976377952755906 0.12007874015748031 -0.13976377952755906 0.12007874015748031 -0.13976377952755906 0.12007874015748031 C -0.13976377952755906 0.12007874015748031 -0.13976377952755906 -0.12007874015748031 -0.13976377952755906 -0.12007874015748031" stroke-width="0.01"></path></g></g><g fill="none" stroke="rgb(-13,-13,-13)"><g transform="matrix(1,0,0,1,4.275590551181102,0.9131018235934654)"><path class="outline" d="M -0.13976377952755906 -0.12007874015748031 C -0.13976377952755906 -0.12007874015748031 0.13976377952755906 -0.12007874015748031 0.13976377952755906 -0.12007874015748031 C 0.13976377952755906 -0.12007874015748031 0.13976377952755906 0.12007874015748031 0.13976377952755906 0.12007874015748031 C 0.13976377952755906 0.12007874015748031 -0.13976377952755906 0.12007874015748031 -0.13976377952755906 0.12007874015748031 C -0.13976377952755906 0.12007874015748031 -0.13976377952755906 -0.12007874015748031 -0.13976377952755906 -0.12007874015748031" stroke-width="0.01"></path></g></g><g fill="none" stroke="rgb(-13,-13,-13)"><g transform="matrix(1,0,0,1,4.925196850393697,0.9131018235934654)"><path class="outline" d="M -0.13976377952755906 -0.12007874015748031 C -0.13976377952755906 -0.12007874015748031 0.13976377952755906 -0.12007874015748031 0.13976377952755906 -0.12007874015748031 C 0.13976377952755906 -0.12007874015748031 0.13976377952755906 0.12007874015748031 0.13976377952755906 0.12007874015748031 C 0.13976377952755906 0.12007874015748031 -0.13976377952755906 0.12007874015748031 -0.13976377952755906 0.12007874015748031 C -0.13976377952755906 0.12007874015748031 -0.13976377952755906 -0.12007874015748031 -0.13976377952755906 -0.12007874015748031" stroke-width="0.01"></path></g></g><g fill="none" stroke="rgb(-13,-13,-13)"><g transform="matrix(1,0,0,1,5.950697081982395,1.8973537920974008)"><path class="outline" d="M -0.13976377952755906 -0.12007874015748031 C -0.13976377952755906 -0.12007874015748031 0.13976377952755906 -0.12007874015748031 0.13976377952755906 -0.12007874015748031 C 0.13976377952755906 -0.12007874015748031 0.13976377952755906 0.12007874015748031 0.13976377952755906 0.12007874015748031 C 0.13976377952755906 0.12007874015748031 -0.13976377952755906 0.12007874015748031 -0.13976377952755906 0.12007874015748031 C -0.13976377952755906 0.12007874015748031 -0.13976377952755906 -0.12007874015748031 -0.13976377952755906 -0.12007874015748031" stroke-width="0.01"></path></g></g><g fill="none" stroke="rgb(-13,-13,-13)"><g transform="matrix(1,0,0,1,5.948818897637795,2.3304246582391324)"><path class="outline" d="M -0.13976377952755906 -0.12007874015748031 C -0.13976377952755906 -0.12007874015748031 0.13976377952755906 -0.12007874015748031 0.13976377952755906 -0.12007874015748031 C 0.13976377952755906 -0.12007874015748031 0.13976377952755906 0.12007874015748031 0.13976377952755906 0.12007874015748031 C 0.13976377952755906 0.12007874015748031 -0.13976377952755906 0.12007874015748031 -0.13976377952755906 0.12007874015748031 C -0.13976377952755906 0.12007874015748031 -0.13976377952755906 -0.12007874015748031 -0.13976377952755906 -0.12007874015748031" stroke-width="0.01"></path></g></g><g fill="none" stroke="rgb(-13,-13,-13)"><g transform="matrix(1,0,0,1,5.948818897637795,2.7241254456407065)"><path class="outline" d="M -0.13976377952755906 -0.12007874015748031 C -0.13976377952755906 -0.12007874015748031 0.13976377952755906 -0.12007874015748031 0.13976377952755906 -0.12007874015748031 C 0.13976377952755906 -0.12007874015748031 0.13976377952755906 0.12007874015748031 0.13976377952755906 0.12007874015748031 C 0.13976377952755906 0.12007874015748031 -0.13976377952755906 0.12007874015748031 -0.13976377952755906 0.12007874015748031 C -0.13976377952755906 0.12007874015748031 -0.13976377952755906 -0.12007874015748031 -0.13976377952755906 -0.12007874015748031" stroke-width="0.01"></path></g></g><g fill="none" stroke="rgb(-13,-13,-13)"><g transform="matrix(1,0,0,1,5.948818897637795,3.1178262330422806)"><path class="outline" d="M -0.13976377952755906 -0.12007874015748031 C -0.13976377952755906 -0.12007874015748031 0.13976377952755906 -0.12007874015748031 0.13976377952755906 -0.12007874015748031 C 0.13976377952755906 -0.12007874015748031 0.13976377952755906 0.12007874015748031 0.13976377952755906 0.12007874015748031 C 0.13976377952755906 0.12007874015748031 -0.13976377952755906 0.12007874015748031 -0.13976377952755906 0.12007874015748031 C -0.13976377952755906 0.12007874015748031 -0.13976377952755906 -0.12007874015748031 -0.13976377952755906 -0.12007874015748031" stroke-width="0.01"></path></g></g><g fill="none" stroke="rgb(-13,-13,-13)"><g transform="matrix(1,0,0,1,5.948818897637795,3.629637256664327)"><path class="outline" d="M -0.13976377952755906 -0.12007874015748031 C -0.13976377952755906 -0.12007874015748031 0.13976377952755906 -0.12007874015748031 0.13976377952755906 -0.12007874015748031 C 0.13976377952755906 -0.12007874015748031 0.13976377952755906 0.12007874015748031 0.13976377952755906 0.12007874015748031 C 0.13976377952755906 0.12007874015748031 -0.13976377952755906 0.12007874015748031 -0.13976377952755906 0.12007874015748031 C -0.13976377952755906 0.12007874015748031 -0.13976377952755906 -0.12007874015748031 -0.13976377952755906 -0.12007874015748031" stroke-width="0.01"></path></g></g><g fill="none" stroke="rgb(-13,-13,-13)"><g transform="matrix(1,0,0,1,5.948818897637795,4.062708122806058)"><path class="outline" d="M -0.13976377952755906 -0.12007874015748031 C -0.13976377952755906 -0.12007874015748031 0.13976377952755906 -0.12007874015748031 0.13976377952755906 -0.12007874015748031 C 0.13976377952755906 -0.12007874015748031 0.13976377952755906 0.12007874015748031 0.13976377952755906 0.12007874015748031 C 0.13976377952755906 0.12007874015748031 -0.13976377952755906 0.12007874015748031 -0.13976377952755906 0.12007874015748031 C -0.13976377952755906 0.12007874015748031 -0.13976377952755906 -0.12007874015748031 -0.13976377952755906 -0.12007874015748031" stroke-width="0.01"></path></g></g></g>
  </g>
</svg>