<?xml version="1.0" encoding="UTF-8" standalone="no"?>
<svg
   xmlns:dc="http://purl.org/dc/elements/1.1/"
   xmlns:cc="http://creativecommons.org/ns#"
   xmlns:rdf="http://www.w3.org/1999/02/22-rdf-syntax-ns#"
   xmlns:svg="http://www.w3.org/2000/svg"
   xmlns="http://www.w3.org/2000/svg"
   xmlns:sodipodi="http://sodipodi.sourceforge.net/DTD/sodipodi-0.dtd"
   xmlns:inkscape="http://www.inkscape.org/namespaces/inkscape"
   inkscape:version="1.0 (4035a4fb49, 2020-05-01)"
   sodipodi:docname="design.svg"
   id="svg186"
   version="1.1"
   xmlnsXlink="http://www.w3.org/1999/xlink"
   viewBox="0 0 6.407475984251968 4.757475590551181"
   height="4.757475590551181in"
   width="6.407475984251968in">
  <metadata
     id="metadata192">
    <rdf:RDF>
      <cc:Work
         rdf:about="">
        <dc:format>image/svg+xml</dc:format>
        <dc:type
           rdf:resource="http://purl.org/dc/dcmitype/StillImage" />
      </cc:Work>
    </rdf:RDF>
  </metadata>
  <defs
     id="defs190" />
  <sodipodi:namedview
     inkscape:current-layer="svg186"
     inkscape:window-maximized="1"
     inkscape:window-y="-9"
     inkscape:window-x="-9"
     inkscape:cy="235.2843"
     inkscape:cx="270.44542"
     inkscape:zoom="1.3129043"
     showgrid="false"
     id="namedview188"
     inkscape:window-height="1001"
     inkscape:window-width="1920"
     inkscape:pageshadow="2"
     inkscape:pageopacity="0"
     guidetolerance="10"
     gridtolerance="10"
     objecttolerance="10"
     borderopacity="1"
     bordercolor="#666666"
     pagecolor="#ffffff" />
  <g
     id="g184"
     transform="translate(-0.0872747,4.813014)">
    <g
       id="g182"
       transform="scale(1,-1)"
       data-reactroot="">
      <g
         id="g6"
         stroke="#000000"
         fill="none">
        <g
           id="g4"
           transform="translate(0.66513386,0.76005079)">
          <path
             id="path2"
             stroke-width="0.01"
             d="M 0,0.26831852 C 0.14818823,0.26831852 0.26831852,0.14818823 0.26831852,0 0.26831852,-0.14818823 0.14818823,-0.26831852 0,-0.26831852 c -0.14818823,0 -0.26831852,0.12013029 -0.26831852,0.26831852 0,0.14818823 0.12013029,0.26831852 0.26831852,0.26831852"
             class="outline" />
        </g>
      </g>
      <g
         id="g12"
         stroke="#000000"
         fill="none">
        <g
           id="g10"
           transform="translate(5.9229767,0.76005079)">
          <path
             id="path8"
             stroke-width="0.01"
             d="m 0,0.26831854 c 0.14818824,0 0.26831854,-0.1201303 0.26831854,-0.26831854 0,-0.14818824 -0.1201303,-0.26831854 -0.26831854,-0.26831854 -0.14818824,0 -0.26831854,0.1201303 -0.26831854,0.26831854 0,0.14818824 0.1201303,0.26831854 0.26831854,0.26831854"
             class="outline" />
        </g>
      </g>
      <g
         id="g18"
         stroke="#000000"
         fill="none">
        <g
           id="g16"
           transform="rotate(-90,4.8981104,-1.0500629)">
          <path
             id="path14"
             stroke-width="0.01"
             d="m -0.3620233,-0.19685039 c 0,0 0.7240466,0 0.7240466,0 0.0392385,0 0.0710476,0.0318091 0.0710476,0.0710476 0,0 0,0.25160564 0,0.25160564 0,0.0392385 -0.0318091,0.0710476 -0.0710476,0.0710476 0,0 -0.7240466,0 -0.7240466,0 -0.0392385,0 -0.0710476,-0.0318091 -0.0710476,-0.0710476 0,0 0,-0.25160564 0,-0.25160564 0,-0.0392385 0.0318091,-0.0710476 0.0710476,-0.0710476"
             class="outline" />
        </g>
      </g>
      <g
         id="g24"
         stroke="#000000"
         fill="none">
        <g
           id="g22"
           transform="rotate(-90,1.6200097,-0.70611643)">
          <path
             id="path20"
             stroke-width="0.01"
             d="m -0.09099875,-0.19685039 c 0,0 0.1819975,0 0.1819975,0 0.01823478,0 0.033017,0.0140156 0.033017,0.0313047 0,0 0,0.3310913 0,0.3310913 0,0.0172891 -0.0147822,0.0313047 -0.033017,0.0313047 0,0 -0.1819975,0 -0.1819975,0 -0.01823478,0 -0.033017,-0.0140156 -0.033017,-0.0313047 0,0 0,-0.3310913 0,-0.3310913 0,-0.0172891 0.0147822,-0.0313047 0.033017,-0.0313047"
             class="outline" />
        </g>
      </g>
      <g
         id="g30"
         stroke="#000000"
         fill="none">
        <g
           id="g28"
           transform="translate(0.61903504,2.6407925)">
          <path
             id="path26"
             stroke-width="0.01"
             d="M 0,0.12521531 C 0.0691545,0.12521531 0.12521531,0.0691545 0.12521531,0 0.12521531,-0.0691545 0.0691545,-0.12521531 0,-0.12521531 c -0.0691545,0 -0.12521531,0.05606081 -0.12521531,0.12521531 0,0.0691545 0.05606081,0.12521531 0.12521531,0.12521531"
             class="outline" />
        </g>
      </g>
      <g
         id="g36"
         stroke="#000000"
         fill="none">
        <g
           id="g34"
           transform="translate(0.5979439,3.6886697)">
          <path
             id="path32"
             stroke-width="0.01"
             d="m 0,0.12521531 c 0.06915451,0 0.12521531,-0.0560608 0.12521531,-0.12521531 0,-0.06915451 -0.0560608,-0.12521531 -0.12521531,-0.12521531 -0.06915451,0 -0.12521531,0.0560608 -0.12521531,0.12521531 0,0.06915451 0.0560608,0.12521531 0.12521531,0.12521531"
             class="outline" />
        </g>
      </g>
      <g
         id="g42"
         stroke="#ffffff"
         fill="none">
        <g
           id="g40"
           transform="translate(3.3329279,2.8854299)">
          <path
             id="path38"
             stroke-width="0.01"
             d="m -2.0619502,-1.2593673 c 0,0 4.1239004,0 4.1239004,0 0.018795,0 0.034031,0.011723 0.034031,0.026184 0,0 0,2.4663676 0,2.4663676 0,0.014461 -0.015236,0.026184 -0.034031,0.026184 0,0 -4.1239004,0 -4.1239004,0 -0.018795,0 -0.034031,-0.011723 -0.034031,-0.026184 0,0 0,-2.4663676 0,-2.4663676 0,-0.014461 0.015236,-0.026184 0.034031,-0.026184"
             class="outline" />
        </g>
      </g>
      <g
         id="g48"
         stroke="#ffffff"
         fill="none">
        <g
           id="g46"
           transform="translate(3.3030226,0.46740827)">
          <path
             id="path44"
             stroke-width="0.01"
             d="M 0,0.06453617 C 0.03564234,0.06453617 0.06453617,0.03564234 0.06453617,0 0.06453617,-0.03564234 0.03564234,-0.06453617 0,-0.06453617 c -0.03564234,0 -0.06453617,0.02889383 -0.06453617,0.06453617 0,0.03564234 0.02889383,0.06453617 0.06453617,0.06453617"
             class="outline" />
        </g>
      </g>
      <g
         id="g54"
         stroke="#000000"
         fill="none">
        <g
           id="g52"
           transform="translate(2.2362276,0.52402549)">
          <path
             id="path50"
             stroke-width="0.01"
             d="m -0.51851757,-0.081019 c 0,0 1.03703514,0 1.03703514,0 0.009246,0 0.0167411,0.0099938 0.0167411,0.02232169 0,0 0,0.11739462 0,0.11739462 0,0.01232793 -0.007495,0.02232169 -0.0167411,0.02232169 0,0 -1.03703514,0 -1.03703514,0 -0.009246,0 -0.0167411,-0.0099938 -0.0167411,-0.02232169 0,0 0,-0.11739462 0,-0.11739462 0,-0.01232793 0.007495,-0.02232169 0.0167411,-0.02232169"
             class="outline" />
        </g>
      </g>
      <g
         id="g60"
         stroke="#000000"
         fill="none">
        <g
           id="g58"
           transform="translate(4.3882287,0.52374281)">
          <path
             id="path56"
             stroke-width="0.01"
             d="m -0.51851757,-0.081019 c 0,0 1.03703514,0 1.03703514,0 0.009246,0 0.0167411,0.0099938 0.0167411,0.02232169 0,0 0,0.11739462 0,0.11739462 0,0.01232793 -0.007495,0.02232169 -0.0167411,0.02232169 0,0 -1.03703514,0 -1.03703514,0 -0.009246,0 -0.0167411,-0.0099938 -0.0167411,-0.02232169 0,0 0,-0.11739462 0,-0.11739462 0,-0.01232793 0.007495,-0.02232169 0.0167411,-0.02232169"
             class="outline" />
        </g>
      </g>
      <g
         id="g66"
         stroke="#000000"
         fill="none">
        <g
           id="g64"
           transform="translate(3.3021632,2.477163)">
          <path
             id="path62"
             stroke-width="0.01"
             d="m -3.0265726,-2.2803126 c 0,0 6.0531452,0 6.0531452,0 0.043487,0 0.07874,0.035253 0.07874,0.07874 0,0 0,4.4031448 0,4.4031448 0,0.043487 -0.035253,0.07874 -0.07874,0.07874 0,0 -6.0531452,0 -6.0531452,0 -0.043487,0 -0.07874,-0.035253 -0.07874,-0.07874 0,0 0,-4.4031448 0,-4.4031448 0,-0.043487 0.035253,-0.07874 0.07874,-0.07874"
             class="outline" />
        </g>
      </g>
      <g
         id="g72"
         stroke="#000000"
         fill="none">
        <g
           id="g70"
           transform="translate(0.66513386,0.76005079)">
          <path
             id="path68"
             stroke-width="0.01"
             d="M 0,0.26831852 C 0.14818823,0.26831852 0.26831852,0.14818823 0.26831852,0 0.26831852,-0.14818823 0.14818823,-0.26831852 0,-0.26831852 c -0.14818823,0 -0.26831852,0.12013029 -0.26831852,0.26831852 0,0.14818823 0.12013029,0.26831852 0.26831852,0.26831852"
             class="outline" />
        </g>
      </g>
      <g
         id="g78"
         stroke="#000000"
         fill="none">
        <g
           id="g76"
           transform="translate(5.9229767,0.76005079)">
          <path
             id="path74"
             stroke-width="0.01"
             d="m 0,0.26831854 c 0.14818824,0 0.26831854,-0.1201303 0.26831854,-0.26831854 0,-0.14818824 -0.1201303,-0.26831854 -0.26831854,-0.26831854 -0.14818824,0 -0.26831854,0.1201303 -0.26831854,0.26831854 0,0.14818824 0.1201303,0.26831854 0.26831854,0.26831854"
             class="outline" />
        </g>
      </g>
      <g
         id="g84"
         stroke="#000000"
         fill="none">
        <g
           id="g82"
           transform="translate(0.80314961,4.1617475)">
          <path
             id="path80"
             stroke-width="0.01"
             d="m -0.09099875,-0.19685039 c 0,0 0.1819975,0 0.1819975,0 0.01823478,0 0.033017,0.0140156 0.033017,0.0313047 0,0 0,0.3310913 0,0.3310913 0,0.0172891 -0.0147822,0.0313047 -0.033017,0.0313047 0,0 -0.1819975,0 -0.1819975,0 -0.01823478,0 -0.033017,-0.0140156 -0.033017,-0.0313047 0,0 0,-0.3310913 0,-0.3310913 0,-0.0172891 0.0147822,-0.0313047 0.033017,-0.0313047"
             class="outline" />
        </g>
      </g>
      <g
         id="g90"
         stroke="#000000"
         fill="none">
        <g
           id="g88"
           transform="translate(0.80314961,3.1183952)">
          <path
             id="path86"
             stroke-width="0.01"
             d="m -0.09099875,-0.19685039 c 0,0 0.1819975,0 0.1819975,0 0.01823478,0 0.033017,0.0140156 0.033017,0.0313047 0,0 0,0.3310913 0,0.3310913 0,0.0172891 -0.0147822,0.0313047 -0.033017,0.0313047 0,0 -0.1819975,0 -0.1819975,0 -0.01823478,0 -0.033017,-0.0140156 -0.033017,-0.0313047 0,0 0,-0.3310913 0,-0.3310913 0,-0.0172891 0.0147822,-0.0313047 0.033017,-0.0313047"
             class="outline" />
        </g>
      </g>
      <g
         id="g96"
         stroke="#000000"
         fill="none">
        <g
           id="g94"
           transform="rotate(-90,4.139695,-1.8084788)">
          <path
             id="path92"
             stroke-width="0.01"
             d="m -0.0900145,-0.19685039 c 0,0 0.180029,0 0.180029,0 0.01823478,0 0.033017,0.0140156 0.033017,0.0313047 0,0 0,0.3310913 0,0.3310913 0,0.0172891 -0.0147822,0.0313047 -0.033017,0.0313047 0,0 -0.180029,0 -0.180029,0 -0.01823478,0 -0.033017,-0.0140156 -0.033017,-0.0313047 0,0 0,-0.3310913 0,-0.3310913 0,-0.0172891 0.0147822,-0.0313047 0.033017,-0.0313047"
             class="outline" />
        </g>
      </g>
      <g
         id="g102"
         stroke="#000000"
         fill="none">
        <g
           id="g100"
           transform="rotate(-90,4.3365454,-1.6116284)">
          <path
             id="path98"
             stroke-width="0.01"
             d="m -0.09099875,-0.19685039 c 0,0 0.1819975,0 0.1819975,0 0.01823478,0 0.033017,0.0140156 0.033017,0.0313047 0,0 0,0.3310913 0,0.3310913 0,0.0172891 -0.0147822,0.0313047 -0.033017,0.0313047 0,0 -0.1819975,0 -0.1819975,0 -0.01823478,0 -0.033017,-0.0140156 -0.033017,-0.0313047 0,0 0,-0.3310913 0,-0.3310913 0,-0.0172891 0.0147822,-0.0313047 0.033017,-0.0313047"
             class="outline" />
        </g>
      </g>
      <g
         id="g108"
         stroke="#000000"
         fill="none">
        <g
           id="g106"
           transform="rotate(-90,4.5333958,-1.414778)">
          <path
             id="path104"
             stroke-width="0.01"
             d="m -0.0900145,-0.19685039 c 0,0 0.180029,0 0.180029,0 0.01823478,0 0.033017,0.0140156 0.033017,0.0313047 0,0 0,0.3310913 0,0.3310913 0,0.0172891 -0.0147822,0.0313047 -0.033017,0.0313047 0,0 -0.180029,0 -0.180029,0 -0.01823478,0 -0.033017,-0.0140156 -0.033017,-0.0313047 0,0 0,-0.3310913 0,-0.3310913 0,-0.0172891 0.0147822,-0.0313047 0.033017,-0.0313047"
             class="outline" />
        </g>
      </g>
      <g
         id="g114"
         stroke="#000000"
         fill="none">
        <g
           id="g112"
           transform="rotate(-90,3.9231595,-2.0250143)">
          <path
             id="path110"
             stroke-width="0.01"
             d="m -0.09099875,-0.19685039 c 0,0 0.1819975,0 0.1819975,0 0.01823478,0 0.033017,0.0140156 0.033017,0.0313047 0,0 0,0.3310913 0,0.3310913 0,0.0172891 -0.0147822,0.0313047 -0.033017,0.0313047 0,0 -0.1819975,0 -0.1819975,0 -0.01823478,0 -0.033017,-0.0140156 -0.033017,-0.0313047 0,0 0,-0.3310913 0,-0.3310913 0,-0.0172891 0.0147822,-0.0313047 0.033017,-0.0313047"
             class="outline" />
        </g>
      </g>
      <g
         id="g120"
         stroke="#000000"
         fill="none">
        <g
           id="g118"
           transform="rotate(-90,1.2952067,-0.38131336)">
          <path
             id="path116"
             stroke-width="0.01"
             d="m -0.09099875,-0.19685039 c 0,0 0.1819975,0 0.1819975,0 0.01823478,0 0.033017,0.0140156 0.033017,0.0313047 0,0 0,0.3310913 0,0.3310913 0,0.0172891 -0.0147822,0.0313047 -0.033017,0.0313047 0,0 -0.1819975,0 -0.1819975,0 -0.01823478,0 -0.033017,-0.0140156 -0.033017,-0.0313047 0,0 0,-0.3310913 0,-0.3310913 0,-0.0172891 0.0147822,-0.0313047 0.033017,-0.0313047"
             class="outline" />
        </g>
      </g>
      <g
         id="g126"
         stroke="#000000"
         fill="none">
        <g
           id="g124"
           transform="rotate(-90,1.9448129,-1.0309196)">
          <path
             id="path122"
             stroke-width="0.01"
             d="m -0.09099875,-0.19685039 c 0,0 0.1819975,0 0.1819975,0 0.01823478,0 0.033017,0.0140156 0.033017,0.0313047 0,0 0,0.3310913 0,0.3310913 0,0.0172891 -0.0147822,0.0313047 -0.033017,0.0313047 0,0 -0.1819975,0 -0.1819975,0 -0.01823478,0 -0.033017,-0.0140156 -0.033017,-0.0313047 0,0 0,-0.3310913 0,-0.3310913 0,-0.0172891 0.0147822,-0.0313047 0.033017,-0.0313047"
             class="outline" />
        </g>
      </g>
      <g
         id="g132"
         stroke="#000000"
         fill="none">
        <g
           id="g130"
           transform="rotate(-90,2.269616,-1.3557227)">
          <path
             id="path128"
             stroke-width="0.01"
             d="m -0.09099875,-0.19685039 c 0,0 0.1819975,0 0.1819975,0 0.01823478,0 0.033017,0.0140156 0.033017,0.0313047 0,0 0,0.3310913 0,0.3310913 0,0.0172891 -0.0147822,0.0313047 -0.033017,0.0313047 0,0 -0.1819975,0 -0.1819975,0 -0.01823478,0 -0.033017,-0.0140156 -0.033017,-0.0313047 0,0 0,-0.3310913 0,-0.3310913 0,-0.0172891 0.0147822,-0.0313047 0.033017,-0.0313047"
             class="outline" />
        </g>
      </g>
      <g
         id="g138"
         stroke="#000000"
         fill="none">
        <g
           id="g136"
           transform="rotate(-90,2.5954486,-1.6794965)">
          <path
             id="path134"
             stroke-width="0.01"
             d="m -0.09099875,-0.19685039 c 0,0 0.1819975,0 0.1819975,0 0.01823478,0 0.033017,0.0140156 0.033017,0.0313047 0,0 0,0.3310913 0,0.3310913 0,0.0172891 -0.0147822,0.0313047 -0.033017,0.0313047 0,0 -0.1819975,0 -0.1819975,0 -0.01823478,0 -0.033017,-0.0140156 -0.033017,-0.0313047 0,0 0,-0.3310913 0,-0.3310913 0,-0.0172891 0.0147822,-0.0313047 0.033017,-0.0313047"
             class="outline" />
        </g>
      </g>
      <g
         id="g144"
         stroke="#000000"
         fill="none">
        <g
           id="g142"
           transform="rotate(-90,2.9192225,-2.0053292)">
          <path
             id="path140"
             stroke-width="0.01"
             d="m -0.09099875,-0.19685039 c 0,0 0.1819975,0 0.1819975,0 0.01823478,0 0.033017,0.0140156 0.033017,0.0313047 0,0 0,0.3310913 0,0.3310913 0,0.0172891 -0.0147822,0.0313047 -0.033017,0.0313047 0,0 -0.1819975,0 -0.1819975,0 -0.01823478,0 -0.033017,-0.0140156 -0.033017,-0.0313047 0,0 0,-0.3310913 0,-0.3310913 0,-0.0172891 0.0147822,-0.0313047 0.033017,-0.0313047"
             class="outline" />
        </g>
      </g>
      <g
         id="g150"
         stroke="#000000"
         fill="none">
        <g
           id="g148"
           transform="translate(0.61903504,2.6407925)">
          <path
             id="path146"
             stroke-width="0.01"
             d="M 0,0.12521531 C 0.0691545,0.12521531 0.12521531,0.0691545 0.12521531,0 0.12521531,-0.0691545 0.0691545,-0.12521531 0,-0.12521531 c -0.0691545,0 -0.12521531,0.05606081 -0.12521531,0.12521531 0,0.0691545 0.05606081,0.12521531 0.12521531,0.12521531"
             class="outline" />
        </g>
      </g>
      <g
         id="g156"
         stroke="#000000"
         fill="none">
        <g
           id="g154"
           transform="translate(0.5979439,3.6886697)">
          <path
             id="path152"
             stroke-width="0.01"
             d="m 0,0.12521531 c 0.06915451,0 0.12521531,-0.0560608 0.12521531,-0.12521531 0,-0.06915451 -0.0560608,-0.12521531 -0.12521531,-0.12521531 -0.06915451,0 -0.12521531,0.0560608 -0.12521531,0.12521531 0,0.06915451 0.0560608,0.12521531 0.12521531,0.12521531"
             class="outline" />
        </g>
      </g>
      <g
         id="g162"
         stroke="#000000"
         fill="none">
        <g
           id="g160"
           transform="translate(3.3329279,2.8854299)">
          <path
             id="path158"
             stroke-width="0.01"
             d="m -2.1859291,-1.4985236 c 0,0 4.3718582,0 4.3718582,0 0.018795,0 0.034031,0.011723 0.034031,0.026183 0,0 0,2.9446802 0,2.9446802 0,0.014461 -0.015236,0.026183 -0.034031,0.026183 0,0 -4.3718582,0 -4.3718582,0 -0.018795,0 -0.034031,-0.011723 -0.034031,-0.026183 0,0 0,-2.9446802 0,-2.9446802 0,-0.014461 0.015236,-0.026183 0.034031,-0.026183"
             class="outline" />
        </g>
      </g>
      <g
         id="g168"
         stroke="#ffffff"
         fill="none">
        <g
           id="g166"
           transform="translate(3.3030226,0.46740827)">
          <path
             id="path164"
             stroke-width="0.01"
             d="M 0,0.06453617 C 0.03564234,0.06453617 0.06453617,0.03564234 0.06453617,0 0.06453617,-0.03564234 0.03564234,-0.06453617 0,-0.06453617 c -0.03564234,0 -0.06453617,0.02889383 -0.06453617,0.06453617 0,0.03564234 0.02889383,0.06453617 0.06453617,0.06453617"
             class="outline" />
        </g>
      </g>
      <g
         id="g174"
         stroke="#000000"
         fill="none">
        <g
           id="g172"
           transform="translate(2.2362276,0.52402549)">
          <path
             id="path170"
             stroke-width="0.01"
             d="m -0.51851757,-0.081019 c 0,0 1.03703514,0 1.03703514,0 0.009246,0 0.0167411,0.0099938 0.0167411,0.02232169 0,0 0,0.11739462 0,0.11739462 0,0.01232793 -0.007495,0.02232169 -0.0167411,0.02232169 0,0 -1.03703514,0 -1.03703514,0 -0.009246,0 -0.0167411,-0.0099938 -0.0167411,-0.02232169 0,0 0,-0.11739462 0,-0.11739462 0,-0.01232793 0.007495,-0.02232169 0.0167411,-0.02232169"
             class="outline" />
        </g>
      </g>
      <g
         id="g180"
         stroke="#000000"
         fill="none">
        <g
           id="g178"
           transform="translate(4.3882287,0.52374281)">
          <path
             id="path176"
             stroke-width="0.01"
             d="m -0.51851757,-0.081019 c 0,0 1.03703514,0 1.03703514,0 0.009246,0 0.0167411,0.0099938 0.0167411,0.02232169 0,0 0,0.11739462 0,0.11739462 0,0.01232793 -0.007495,0.02232169 -0.0167411,0.02232169 0,0 -1.03703514,0 -1.03703514,0 -0.009246,0 -0.0167411,-0.0099938 -0.0167411,-0.02232169 0,0 0,-0.11739462 0,-0.11739462 0,-0.01232793 0.007495,-0.02232169 0.0167411,-0.02232169"
             class="outline" />
        </g>
      </g>
    </g>
  </g>
</svg>
